<?xml version="1.0" encoding="UTF-8" standalone="no"?>
<!DOCTYPE svg PUBLIC "-//W3C//DTD SVG 1.1//EN"
 "http://www.w3.org/Graphics/SVG/1.1/DTD/svg11.dtd">
<!-- Generated by graphviz version 2.40.1 (20161225.0304)
 -->
<!-- Title: /home/travis/build/AliceO2Group/AliceO2/Utilities/rANS/include/librans/SymbolTable.h Pages: 1 -->
<svg width="288pt" height="239pt"
 viewBox="0.00 0.00 288.00 239.00" xmlns="http://www.w3.org/2000/svg" xmlns:xlink="http://www.w3.org/1999/xlink">
<g id="graph0" class="graph" transform="scale(1 1) rotate(0) translate(4 235)">
<title>/home/travis/build/AliceO2Group/AliceO2/Utilities/rANS/include/librans/SymbolTable.h</title>
<!-- Node7 -->
<g id="node1" class="node">
<title>Node7</title>
<polygon fill="#bfbfbf" stroke="#000000" points="74,-178.5 74,-230.5 201,-230.5 201,-178.5 74,-178.5"/>
<text text-anchor="start" x="82" y="-218.5" font-family="Helvetica,sans-Serif" font-size="10.00" fill="#000000">/home/travis/build</text>
<text text-anchor="start" x="82" y="-207.5" font-family="Helvetica,sans-Serif" font-size="10.00" fill="#000000">/AliceO2Group/AliceO2</text>
<text text-anchor="start" x="82" y="-196.5" font-family="Helvetica,sans-Serif" font-size="10.00" fill="#000000">/Utilities/rANS/include</text>
<text text-anchor="middle" x="137.5" y="-185.5" font-family="Helvetica,sans-Serif" font-size="10.00" fill="#000000">/librans/SymbolTable.h</text>
</g>
<!-- Node8 -->
<g id="node2" class="node">
<title>Node8</title>
<g id="a_node2"><a xlink:href="../../d4/dfd/Utilities_2rANS_2include_2librans_2Decoder_8h.html" target="_top" xlink:title="/home/travis/build\l/AliceO2Group/AliceO2\l/Utilities/rANS/include\l/librans/Decoder.h">
<polygon fill="none" stroke="#000000" points="2,-89.5 2,-141.5 129,-141.5 129,-89.5 2,-89.5"/>
<text text-anchor="start" x="10" y="-129.5" font-family="Helvetica,sans-Serif" font-size="10.00" fill="#000000">/home/travis/build</text>
<text text-anchor="start" x="10" y="-118.5" font-family="Helvetica,sans-Serif" font-size="10.00" fill="#000000">/AliceO2Group/AliceO2</text>
<text text-anchor="start" x="10" y="-107.5" font-family="Helvetica,sans-Serif" font-size="10.00" fill="#000000">/Utilities/rANS/include</text>
<text text-anchor="middle" x="65.5" y="-96.5" font-family="Helvetica,sans-Serif" font-size="10.00" fill="#000000">/librans/Decoder.h</text>
</a>
</g>
</g>
<!-- Node7&#45;&gt;Node8 -->
<g id="edge1" class="edge">
<title>Node7&#45;&gt;Node8</title>
<path fill="none" stroke="#191970" d="M109.9365,-170.4285C102.1808,-160.8416 93.8716,-150.5704 86.5613,-141.5341"/>
<polygon fill="#191970" stroke="#191970" points="107.2765,-172.7053 116.287,-178.2784 112.7186,-168.3026 107.2765,-172.7053"/>
</g>
<!-- Node11 -->
<g id="node5" class="node">
<title>Node11</title>
<g id="a_node5"><a xlink:href="../../d4/db1/Utilities_2rANS_2include_2librans_2Encoder_8h.html" target="_top" xlink:title="/home/travis/build\l/AliceO2Group/AliceO2\l/Utilities/rANS/include\l/librans/Encoder.h">
<polygon fill="none" stroke="#000000" points="147,-89.5 147,-141.5 274,-141.5 274,-89.5 147,-89.5"/>
<text text-anchor="start" x="155" y="-129.5" font-family="Helvetica,sans-Serif" font-size="10.00" fill="#000000">/home/travis/build</text>
<text text-anchor="start" x="155" y="-118.5" font-family="Helvetica,sans-Serif" font-size="10.00" fill="#000000">/AliceO2Group/AliceO2</text>
<text text-anchor="start" x="155" y="-107.5" font-family="Helvetica,sans-Serif" font-size="10.00" fill="#000000">/Utilities/rANS/include</text>
<text text-anchor="middle" x="210.5" y="-96.5" font-family="Helvetica,sans-Serif" font-size="10.00" fill="#000000">/librans/Encoder.h</text>
</a>
</g>
</g>
<!-- Node7&#45;&gt;Node11 -->
<g id="edge4" class="edge">
<title>Node7&#45;&gt;Node11</title>
<path fill="none" stroke="#191970" d="M165.4463,-170.4285C173.3097,-160.8416 181.7344,-150.5704 189.1461,-141.5341"/>
<polygon fill="#191970" stroke="#191970" points="162.6433,-168.3269 159.0076,-178.2784 168.0556,-172.7662 162.6433,-168.3269"/>
</g>
<!-- Node9 -->
<g id="node3" class="node">
<title>Node9</title>
<g id="a_node3"><a xlink:href="../../d4/de7/rans_8h.html" target="_top" xlink:title="header for public api ">
<polygon fill="none" stroke="#000000" points="0,-.5 0,-52.5 127,-52.5 127,-.5 0,-.5"/>
<text text-anchor="start" x="8" y="-40.5" font-family="Helvetica,sans-Serif" font-size="10.00" fill="#000000">/home/travis/build</text>
<text text-anchor="start" x="8" y="-29.5" font-family="Helvetica,sans-Serif" font-size="10.00" fill="#000000">/AliceO2Group/AliceO2</text>
<text text-anchor="start" x="8" y="-18.5" font-family="Helvetica,sans-Serif" font-size="10.00" fill="#000000">/Utilities/rANS/include</text>
<text text-anchor="middle" x="63.5" y="-7.5" font-family="Helvetica,sans-Serif" font-size="10.00" fill="#000000">/librans/rans.h</text>
</a>
</g>
</g>
<!-- Node8&#45;&gt;Node9 -->
<g id="edge2" class="edge">
<title>Node8&#45;&gt;Node9</title>
<path fill="none" stroke="#191970" d="M64.6824,-79.1155C64.4822,-70.2061 64.2719,-60.8475 64.085,-52.5341"/>
<polygon fill="#191970" stroke="#191970" points="61.1869,-79.3596 64.9108,-89.2784 68.1851,-79.2023 61.1869,-79.3596"/>
</g>
<!-- Node10 -->
<g id="node4" class="node">
<title>Node10</title>
<g id="a_node4"><a xlink:href="../../d6/d7c/test__ransEncodeDecode_8cxx.html" target="_top" xlink:title="/home/travis/build\l/AliceO2Group/AliceO2\l/Utilities/rANS/test/test\l_ransEncodeDecode.cxx">
<polygon fill="none" stroke="#000000" points="145,-.5 145,-52.5 280,-52.5 280,-.5 145,-.5"/>
<text text-anchor="start" x="153" y="-40.5" font-family="Helvetica,sans-Serif" font-size="10.00" fill="#000000">/home/travis/build</text>
<text text-anchor="start" x="153" y="-29.5" font-family="Helvetica,sans-Serif" font-size="10.00" fill="#000000">/AliceO2Group/AliceO2</text>
<text text-anchor="start" x="153" y="-18.5" font-family="Helvetica,sans-Serif" font-size="10.00" fill="#000000">/Utilities/rANS/test/test</text>
<text text-anchor="middle" x="212.5" y="-7.5" font-family="Helvetica,sans-Serif" font-size="10.00" fill="#000000">_ransEncodeDecode.cxx</text>
</a>
</g>
</g>
<!-- Node8&#45;&gt;Node10 -->
<g id="edge3" class="edge">
<title>Node8&#45;&gt;Node10</title>
<path fill="none" stroke="#191970" d="M117.5298,-83.9989C134.5398,-73.7004 153.2314,-62.3837 169.4998,-52.5341"/>
<polygon fill="#191970" stroke="#191970" points="115.5514,-81.1052 108.8098,-89.2784 119.1768,-87.0933 115.5514,-81.1052"/>
</g>
<!-- Node11&#45;&gt;Node9 -->
<g id="edge5" class="edge">
<title>Node11&#45;&gt;Node9</title>
<path fill="none" stroke="#191970" d="M158.4702,-83.9989C141.4602,-73.7004 122.7686,-62.3837 106.5002,-52.5341"/>
<polygon fill="#191970" stroke="#191970" points="156.8232,-87.0933 167.1902,-89.2784 160.4486,-81.1052 156.8232,-87.0933"/>
</g>
<!-- Node11&#45;&gt;Node10 -->
<g id="edge6" class="edge">
<title>Node11&#45;&gt;Node10</title>
<path fill="none" stroke="#191970" d="M211.3176,-79.1155C211.5178,-70.2061 211.7281,-60.8475 211.915,-52.5341"/>
<polygon fill="#191970" stroke="#191970" points="207.8149,-79.2023 211.0892,-89.2784 214.8131,-79.3596 207.8149,-79.2023"/>
</g>
</g>
</svg>
