<?xml version="1.0" encoding="UTF-8" standalone="no"?>
<!DOCTYPE svg PUBLIC "-//W3C//DTD SVG 1.1//EN"
 "http://www.w3.org/Graphics/SVG/1.1/DTD/svg11.dtd">
<!-- Generated by graphviz version 2.40.1 (20161225.0304)
 -->
<!-- Title: GPUTPCGMMerger_CompareTracksAttachWeight Pages: 1 -->
<svg width="194pt" height="226pt"
 viewBox="0.00 0.00 194.00 226.00" xmlns="http://www.w3.org/2000/svg" xmlns:xlink="http://www.w3.org/1999/xlink">
<g id="graph0" class="graph" transform="scale(1 1) rotate(0) translate(4 222)">
<title>GPUTPCGMMerger_CompareTracksAttachWeight</title>
<!-- Node1 -->
<g id="node1" class="node">
<title>Node1</title>
<polygon fill="#bfbfbf" stroke="#000000" points="0,-.5 0,-101.5 186,-101.5 186,-.5 0,-.5"/>
<text text-anchor="start" x="8" y="-89.5" font-family="Helvetica,sans-Serif" font-size="10.00" fill="#000000">GPUTPCGMMerger_CompareTracks</text>
<text text-anchor="middle" x="93" y="-78.5" font-family="Helvetica,sans-Serif" font-size="10.00" fill="#000000">AttachWeight</text>
<polyline fill="none" stroke="#000000" points="0,-71.5 186,-71.5 "/>
<text text-anchor="middle" x="93" y="-59.5" font-family="Helvetica,sans-Serif" font-size="10.00" fill="#000000"> </text>
<polyline fill="none" stroke="#000000" points="0,-52.5 186,-52.5 "/>
<text text-anchor="start" x="8" y="-40.5" font-family="Helvetica,sans-Serif" font-size="10.00" fill="#000000">+ GPUd()</text>
<text text-anchor="start" x="8" y="-29.5" font-family="Helvetica,sans-Serif" font-size="10.00" fill="#000000">+ GPUd()</text>
<text text-anchor="start" x="8" y="-18.5" font-family="Helvetica,sans-Serif" font-size="10.00" fill="#000000">+ GPUrestrict()</text>
<text text-anchor="start" x="8" y="-7.5" font-family="Helvetica,sans-Serif" font-size="10.00" fill="#000000">+ return()</text>
</g>
<!-- Node2 -->
<g id="node2" class="node">
<title>Node2</title>
<polygon fill="none" stroke="#bfbfbf" points="71.5,-160.5 71.5,-217.5 114.5,-217.5 114.5,-160.5 71.5,-160.5"/>
<text text-anchor="middle" x="93" y="-205.5" font-family="Helvetica,sans-Serif" font-size="10.00" fill="#000000">const</text>
<polyline fill="none" stroke="#bfbfbf" points="71.5,-198.5 114.5,-198.5 "/>
<text text-anchor="middle" x="93" y="-186.5" font-family="Helvetica,sans-Serif" font-size="10.00" fill="#000000"> </text>
<polyline fill="none" stroke="#bfbfbf" points="71.5,-179.5 114.5,-179.5 "/>
<text text-anchor="middle" x="93" y="-167.5" font-family="Helvetica,sans-Serif" font-size="10.00" fill="#000000"> </text>
</g>
<!-- Node2&#45;&gt;Node1 -->
<g id="edge1" class="edge">
<title>Node2&#45;&gt;Node1</title>
<path fill="none" stroke="#404040" d="M93,-160.4063C93,-146.8804 93,-130.1561 93,-113.8884"/>
<polygon fill="none" stroke="#404040" points="93.0001,-113.5979 89,-107.5979 93,-101.5979 97,-107.5979 93.0001,-113.5979"/>
<text text-anchor="middle" x="115" y="-134" font-family="Helvetica,sans-Serif" font-size="10.00" fill="#000000"> +mCmp</text>
<text text-anchor="middle" x="115" y="-123" font-family="Helvetica,sans-Serif" font-size="10.00" fill="#000000">+bb</text>
</g>
</g>
</svg>
