<?xml version="1.0" encoding="UTF-8" standalone="no"?>
<!DOCTYPE svg PUBLIC "-//W3C//DTD SVG 1.1//EN"
 "http://www.w3.org/Graphics/SVG/1.1/DTD/svg11.dtd">
<!-- Generated by graphviz version 2.40.1 (20161225.0304)
 -->
<!-- Title: /home/travis/build/AliceO2Group/AliceO2/Framework/Core/test/benchmark_TableBuilder.cxx Pages: 1 -->
<svg width="2984pt" height="341pt"
 viewBox="0.00 0.00 2984.00 341.00" xmlns="http://www.w3.org/2000/svg" xmlns:xlink="http://www.w3.org/1999/xlink">
<g id="graph0" class="graph" transform="scale(1 1) rotate(0) translate(4 337)">
<title>/home/travis/build/AliceO2Group/AliceO2/Framework/Core/test/benchmark_TableBuilder.cxx</title>
<!-- Node0 -->
<g id="node1" class="node">
<title>Node0</title>
<polygon fill="#bfbfbf" stroke="#000000" points="2651.5,-280.5 2651.5,-332.5 2830.5,-332.5 2830.5,-280.5 2651.5,-280.5"/>
<text text-anchor="start" x="2659.5" y="-320.5" font-family="Helvetica,sans-Serif" font-size="10.00" fill="#000000">/home/travis/build</text>
<text text-anchor="start" x="2659.5" y="-309.5" font-family="Helvetica,sans-Serif" font-size="10.00" fill="#000000">/AliceO2Group/AliceO2</text>
<text text-anchor="start" x="2659.5" y="-298.5" font-family="Helvetica,sans-Serif" font-size="10.00" fill="#000000">/Framework/Core/test/benchmark</text>
<text text-anchor="middle" x="2741" y="-287.5" font-family="Helvetica,sans-Serif" font-size="10.00" fill="#000000">_TableBuilder.cxx</text>
</g>
<!-- Node1 -->
<g id="node2" class="node">
<title>Node1</title>
<g id="a_node2"><a xlink:href="../../d5/d98/TableBuilder_8h.html" target="_top" xlink:title="Framework/TableBuilder.h">
<polygon fill="none" stroke="#000000" points="2318,-224.5 2318,-243.5 2460,-243.5 2460,-224.5 2318,-224.5"/>
<text text-anchor="middle" x="2389" y="-231.5" font-family="Helvetica,sans-Serif" font-size="10.00" fill="#000000">Framework/TableBuilder.h</text>
</a>
</g>
</g>
<!-- Node0&#45;&gt;Node1 -->
<g id="edge1" class="edge">
<title>Node0&#45;&gt;Node1</title>
<path fill="none" stroke="#191970" d="M2651.2648,-288.0176C2586.4519,-274.6684 2500.9033,-257.0483 2445.4252,-245.6217"/>
<polygon fill="#191970" stroke="#191970" points="2445.9285,-242.1519 2435.428,-243.5626 2444.5163,-249.008 2445.9285,-242.1519"/>
</g>
<!-- Node43 -->
<g id="node44" class="node">
<title>Node43</title>
<g id="a_node44"><a xlink:href="../../dc/d03/TableConsumer_8h.html" target="_top" xlink:title="Framework/TableConsumer.h">
<polygon fill="none" stroke="#000000" points="2662.5,-224.5 2662.5,-243.5 2819.5,-243.5 2819.5,-224.5 2662.5,-224.5"/>
<text text-anchor="middle" x="2741" y="-231.5" font-family="Helvetica,sans-Serif" font-size="10.00" fill="#000000">Framework/TableConsumer.h</text>
</a>
</g>
</g>
<!-- Node0&#45;&gt;Node43 -->
<g id="edge63" class="edge">
<title>Node0&#45;&gt;Node43</title>
<path fill="none" stroke="#191970" d="M2741,-280.3258C2741,-271.5142 2741,-261.8397 2741,-253.621"/>
<polygon fill="#191970" stroke="#191970" points="2744.5001,-253.534 2741,-243.534 2737.5001,-253.534 2744.5001,-253.534"/>
</g>
<!-- Node44 -->
<g id="node45" class="node">
<title>Node44</title>
<polygon fill="none" stroke="#bfbfbf" points="2838,-224.5 2838,-243.5 2976,-243.5 2976,-224.5 2838,-224.5"/>
<text text-anchor="middle" x="2907" y="-231.5" font-family="Helvetica,sans-Serif" font-size="10.00" fill="#000000">benchmark/benchmark.h</text>
</g>
<!-- Node0&#45;&gt;Node44 -->
<g id="edge65" class="edge">
<title>Node0&#45;&gt;Node44</title>
<path fill="none" stroke="#191970" d="M2800.9298,-280.3258C2826.2641,-269.2612 2854.7133,-256.8361 2875.7662,-247.6413"/>
<polygon fill="#191970" stroke="#191970" points="2877.4072,-250.7439 2885.1704,-243.534 2874.6055,-244.329 2877.4072,-250.7439"/>
</g>
<!-- Node2 -->
<g id="node3" class="node">
<title>Node2</title>
<g id="a_node3"><a xlink:href="../../de/d33/ASoA_8h.html" target="_top" xlink:title="Framework/ASoA.h">
<polygon fill="none" stroke="#000000" points="1449,-168.5 1449,-187.5 1557,-187.5 1557,-168.5 1449,-168.5"/>
<text text-anchor="middle" x="1503" y="-175.5" font-family="Helvetica,sans-Serif" font-size="10.00" fill="#000000">Framework/ASoA.h</text>
</a>
</g>
</g>
<!-- Node1&#45;&gt;Node2 -->
<g id="edge2" class="edge">
<title>Node1&#45;&gt;Node2</title>
<path fill="none" stroke="#191970" d="M2317.9926,-229.5119C2149.734,-218.8771 1728.8039,-192.272 1567.3943,-182.0701"/>
<polygon fill="#191970" stroke="#191970" points="1567.3442,-178.56 1557.1433,-181.4222 1566.9026,-185.5461 1567.3442,-178.56"/>
</g>
<!-- Node8 -->
<g id="node9" class="node">
<title>Node8</title>
<g id="a_node9"><a xlink:href="../../de/d9b/FunctionalHelpers_8h.html" target="_top" xlink:title="Framework/FunctionalHelpers.h">
<polygon fill="none" stroke="#000000" points="1949,-112.5 1949,-131.5 2119,-131.5 2119,-112.5 1949,-112.5"/>
<text text-anchor="middle" x="2034" y="-119.5" font-family="Helvetica,sans-Serif" font-size="10.00" fill="#000000">Framework/FunctionalHelpers.h</text>
</a>
</g>
</g>
<!-- Node1&#45;&gt;Node8 -->
<g id="edge50" class="edge">
<title>Node1&#45;&gt;Node8</title>
<path fill="none" stroke="#191970" d="M2317.8551,-229.0684C2265.2478,-223.5705 2192.688,-212.0408 2133,-188 2102.5924,-175.7526 2071.8406,-153.3271 2052.8564,-138.0488"/>
<polygon fill="#191970" stroke="#191970" points="2054.9528,-135.2414 2045.0055,-131.5942 2050.5073,-140.6486 2054.9528,-135.2414"/>
</g>
<!-- Node9 -->
<g id="node10" class="node">
<title>Node9</title>
<polygon fill="none" stroke="#bfbfbf" points="2233.5,-56.5 2233.5,-75.5 2298.5,-75.5 2298.5,-56.5 2233.5,-56.5"/>
<text text-anchor="middle" x="2266" y="-63.5" font-family="Helvetica,sans-Serif" font-size="10.00" fill="#000000">functional</text>
</g>
<!-- Node1&#45;&gt;Node9 -->
<g id="edge58" class="edge">
<title>Node1&#45;&gt;Node9</title>
<path fill="none" stroke="#191970" d="M2317.7658,-225.3902C2271.8745,-218.2116 2218.218,-206.1863 2204,-188 2183.1958,-161.3894 2188.8159,-142.1725 2204,-112 2210.6737,-98.7387 2223.1793,-88.3415 2235.2207,-80.8125"/>
<polygon fill="#191970" stroke="#191970" points="2237.3201,-83.6422 2244.2342,-75.6143 2233.823,-77.5783 2237.3201,-83.6422"/>
</g>
<!-- Node19 -->
<g id="node20" class="node">
<title>Node19</title>
<polygon fill="none" stroke="#bfbfbf" points="2134.5,-56.5 2134.5,-75.5 2215.5,-75.5 2215.5,-56.5 2134.5,-56.5"/>
<text text-anchor="middle" x="2175" y="-63.5" font-family="Helvetica,sans-Serif" font-size="10.00" fill="#000000">arrow/table.h</text>
</g>
<!-- Node1&#45;&gt;Node19 -->
<g id="edge56" class="edge">
<title>Node1&#45;&gt;Node19</title>
<path fill="none" stroke="#191970" d="M2317.9927,-226.3442C2267.6665,-219.373 2206.1567,-207.1909 2189,-188 2163.8851,-159.9073 2166.7766,-112.4501 2170.9738,-85.7597"/>
<polygon fill="#191970" stroke="#191970" points="2174.4559,-86.1699 2172.7746,-75.7093 2167.5657,-84.9352 2174.4559,-86.1699"/>
</g>
<!-- Node24 -->
<g id="node25" class="node">
<title>Node24</title>
<polygon fill="none" stroke="#bfbfbf" points="518,-56.5 518,-75.5 562,-75.5 562,-56.5 518,-56.5"/>
<text text-anchor="middle" x="540" y="-63.5" font-family="Helvetica,sans-Serif" font-size="10.00" fill="#000000">string</text>
</g>
<!-- Node1&#45;&gt;Node24 -->
<g id="edge60" class="edge">
<title>Node1&#45;&gt;Node24</title>
<path fill="none" stroke="#191970" d="M2317.9503,-233.3136C2079.3791,-230.7302 1308.1642,-220.0476 1062,-188 843.2968,-159.5275 788.4235,-136.0022 572.0393,-76.1396"/>
<polygon fill="#191970" stroke="#191970" points="572.8515,-72.733 562.2807,-73.4456 570.9887,-79.4806 572.8515,-72.733"/>
</g>
<!-- Node25 -->
<g id="node26" class="node">
<title>Node25</title>
<polygon fill="none" stroke="#bfbfbf" points="2858,-56.5 2858,-75.5 2916,-75.5 2916,-56.5 2858,-56.5"/>
<text text-anchor="middle" x="2887" y="-63.5" font-family="Helvetica,sans-Serif" font-size="10.00" fill="#000000">memory</text>
</g>
<!-- Node1&#45;&gt;Node25 -->
<g id="edge61" class="edge">
<title>Node1&#45;&gt;Node25</title>
<path fill="none" stroke="#191970" d="M2460.3463,-231.9022C2586.6231,-227.5034 2838.9761,-215.3668 2868,-188 2895.8263,-161.7624 2894.0947,-112.8378 2890.4896,-85.5938"/>
<polygon fill="#191970" stroke="#191970" points="2893.9449,-85.0353 2888.9651,-75.6837 2887.0263,-86.0996 2893.9449,-85.0353"/>
</g>
<!-- Node35 -->
<g id="node36" class="node">
<title>Node35</title>
<g id="a_node36"><a xlink:href="../../db/d4f/StructToTuple_8h.html" target="_top" xlink:title="Framework/StructToTuple.h">
<polygon fill="none" stroke="#000000" points="2213.5,-168.5 2213.5,-187.5 2360.5,-187.5 2360.5,-168.5 2213.5,-168.5"/>
<text text-anchor="middle" x="2287" y="-175.5" font-family="Helvetica,sans-Serif" font-size="10.00" fill="#000000">Framework/StructToTuple.h</text>
</a>
</g>
</g>
<!-- Node1&#45;&gt;Node35 -->
<g id="edge46" class="edge">
<title>Node1&#45;&gt;Node35</title>
<path fill="none" stroke="#191970" d="M2371.233,-224.2455C2355.2905,-215.4928 2331.6741,-202.527 2313.5011,-192.5496"/>
<polygon fill="#191970" stroke="#191970" points="2315.0137,-189.3873 2304.5634,-187.6427 2311.6448,-195.5233 2315.0137,-189.3873"/>
</g>
<!-- Node36 -->
<g id="node37" class="node">
<title>Node36</title>
<polygon fill="none" stroke="#bfbfbf" points="2379.5,-112.5 2379.5,-131.5 2420.5,-131.5 2420.5,-112.5 2379.5,-112.5"/>
<text text-anchor="middle" x="2400" y="-119.5" font-family="Helvetica,sans-Serif" font-size="10.00" fill="#000000">tuple</text>
</g>
<!-- Node1&#45;&gt;Node36 -->
<g id="edge62" class="edge">
<title>Node1&#45;&gt;Node36</title>
<path fill="none" stroke="#191970" d="M2389.9379,-224.4509C2391.7319,-206.184 2395.683,-165.9553 2398.0654,-141.6976"/>
<polygon fill="#191970" stroke="#191970" points="2401.5702,-141.8191 2399.0645,-131.5249 2394.6038,-141.1349 2401.5702,-141.8191"/>
</g>
<!-- Node37 -->
<g id="node38" class="node">
<title>Node37</title>
<g id="a_node38"><a xlink:href="../../d7/dbe/VariantHelpers_8h.html" target="_top" xlink:title="Framework/VariantHelpers.h">
<polygon fill="none" stroke="#000000" points="1071.5,-168.5 1071.5,-187.5 1226.5,-187.5 1226.5,-168.5 1071.5,-168.5"/>
<text text-anchor="middle" x="1149" y="-175.5" font-family="Helvetica,sans-Serif" font-size="10.00" fill="#000000">Framework/VariantHelpers.h</text>
</a>
</g>
</g>
<!-- Node1&#45;&gt;Node37 -->
<g id="edge51" class="edge">
<title>Node1&#45;&gt;Node37</title>
<path fill="none" stroke="#191970" d="M2317.8785,-230.7881C2104.5251,-221.1527 1470.2849,-192.5096 1236.6665,-181.9591"/>
<polygon fill="#191970" stroke="#191970" points="1236.6635,-178.4555 1226.5158,-181.5007 1236.3477,-185.4484 1236.6635,-178.4555"/>
</g>
<!-- Node38 -->
<g id="node39" class="node">
<title>Node38</title>
<polygon fill="none" stroke="#bfbfbf" points="2417,-168.5 2417,-187.5 2473,-187.5 2473,-168.5 2417,-168.5"/>
<text text-anchor="middle" x="2445" y="-175.5" font-family="Helvetica,sans-Serif" font-size="10.00" fill="#000000">sstream</text>
</g>
<!-- Node1&#45;&gt;Node38 -->
<g id="edge53" class="edge">
<title>Node1&#45;&gt;Node38</title>
<path fill="none" stroke="#191970" d="M2398.7545,-224.2455C2406.8648,-216.1352 2418.5925,-204.4075 2428.2081,-194.7919"/>
<polygon fill="#191970" stroke="#191970" points="2430.7611,-197.1887 2435.3573,-187.6427 2425.8113,-192.2389 2430.7611,-197.1887"/>
</g>
<!-- Node39 -->
<g id="node40" class="node">
<title>Node39</title>
<polygon fill="none" stroke="#bfbfbf" points="2491,-168.5 2491,-187.5 2559,-187.5 2559,-168.5 2491,-168.5"/>
<text text-anchor="middle" x="2525" y="-175.5" font-family="Helvetica,sans-Serif" font-size="10.00" fill="#000000">arrow/stl.h</text>
</g>
<!-- Node1&#45;&gt;Node39 -->
<g id="edge54" class="edge">
<title>Node1&#45;&gt;Node39</title>
<path fill="none" stroke="#191970" d="M2412.3792,-224.3733C2434.5045,-215.2629 2467.9134,-201.5062 2492.6019,-191.3404"/>
<polygon fill="#191970" stroke="#191970" points="2494.0117,-194.5451 2501.9258,-187.5011 2491.3464,-188.0723 2494.0117,-194.5451"/>
</g>
<!-- Node40 -->
<g id="node41" class="node">
<title>Node40</title>
<polygon fill="none" stroke="#bfbfbf" points="2577.5,-168.5 2577.5,-187.5 2686.5,-187.5 2686.5,-168.5 2577.5,-168.5"/>
<text text-anchor="middle" x="2632" y="-175.5" font-family="Helvetica,sans-Serif" font-size="10.00" fill="#000000">arrow/type_traits.h</text>
</g>
<!-- Node1&#45;&gt;Node40 -->
<g id="edge55" class="edge">
<title>Node1&#45;&gt;Node40</title>
<path fill="none" stroke="#191970" d="M2430.4971,-224.4369C2472.0847,-214.8529 2536.1834,-200.0812 2580.8831,-189.78"/>
<polygon fill="#191970" stroke="#191970" points="2581.7155,-193.18 2590.6741,-187.5237 2580.1435,-186.3588 2581.7155,-193.18"/>
</g>
<!-- Node41 -->
<g id="node42" class="node">
<title>Node41</title>
<polygon fill="none" stroke="#bfbfbf" points="2704.5,-168.5 2704.5,-187.5 2793.5,-187.5 2793.5,-168.5 2704.5,-168.5"/>
<text text-anchor="middle" x="2749" y="-175.5" font-family="Helvetica,sans-Serif" font-size="10.00" fill="#000000">arrow/builder.h</text>
</g>
<!-- Node1&#45;&gt;Node41 -->
<g id="edge57" class="edge">
<title>Node1&#45;&gt;Node41</title>
<path fill="none" stroke="#191970" d="M2457.7037,-224.4626C2517.6878,-215.9624 2607.345,-202.8416 2694.4331,-188.2214"/>
<polygon fill="#191970" stroke="#191970" points="2695.2107,-191.6397 2704.4888,-186.5245 2694.0458,-184.7373 2695.2107,-191.6397"/>
</g>
<!-- Node42 -->
<g id="node43" class="node">
<title>Node42</title>
<polygon fill="none" stroke="#bfbfbf" points="2811.5,-168.5 2811.5,-187.5 2858.5,-187.5 2858.5,-168.5 2811.5,-168.5"/>
<text text-anchor="middle" x="2835" y="-175.5" font-family="Helvetica,sans-Serif" font-size="10.00" fill="#000000">vector</text>
</g>
<!-- Node1&#45;&gt;Node42 -->
<g id="edge59" class="edge">
<title>Node1&#45;&gt;Node42</title>
<path fill="none" stroke="#191970" d="M2460.3472,-230.2485C2541.1885,-225.0632 2676.8821,-213.5346 2801.2874,-188.0431"/>
<polygon fill="#191970" stroke="#191970" points="2802.2933,-191.4087 2811.3684,-185.9412 2800.8645,-184.5561 2802.2933,-191.4087"/>
</g>
<!-- Node3 -->
<g id="node4" class="node">
<title>Node3</title>
<g id="a_node4"><a xlink:href="../../dd/dce/Pack_8h.html" target="_top" xlink:title="Framework/Pack.h">
<polygon fill="none" stroke="#000000" points="2011.5,-56.5 2011.5,-75.5 2116.5,-75.5 2116.5,-56.5 2011.5,-56.5"/>
<text text-anchor="middle" x="2064" y="-63.5" font-family="Helvetica,sans-Serif" font-size="10.00" fill="#000000">Framework/Pack.h</text>
</a>
</g>
</g>
<!-- Node2&#45;&gt;Node3 -->
<g id="edge3" class="edge">
<title>Node2&#45;&gt;Node3</title>
<path fill="none" stroke="#191970" d="M1542.9084,-168.4339C1576.4145,-160.0166 1625.3486,-146.8178 1667,-132 1688.0037,-124.5278 1691.4969,-117.8824 1713,-112 1834.6798,-78.7131 1871.9781,-93.5049 2000.9821,-76.0695"/>
<polygon fill="#191970" stroke="#191970" points="2001.8325,-79.4849 2011.2545,-74.6397 2000.8674,-72.5518 2001.8325,-79.4849"/>
</g>
<!-- Node7 -->
<g id="node8" class="node">
<title>Node7</title>
<g id="a_node8"><a xlink:href="../../d1/d00/CheckTypes_8h.html" target="_top" xlink:title="Framework/CheckTypes.h">
<polygon fill="none" stroke="#000000" points="908,-56.5 908,-75.5 1048,-75.5 1048,-56.5 908,-56.5"/>
<text text-anchor="middle" x="978" y="-63.5" font-family="Helvetica,sans-Serif" font-size="10.00" fill="#000000">Framework/CheckTypes.h</text>
</a>
</g>
</g>
<!-- Node2&#45;&gt;Node7 -->
<g id="edge7" class="edge">
<title>Node2&#45;&gt;Node7</title>
<path fill="none" stroke="#191970" d="M1495.6185,-168.2872C1483.552,-153.2369 1458.0194,-124.6955 1429,-112 1355.5851,-79.8823 1154.3729,-84.8078 1058.2733,-76.0132"/>
<polygon fill="#191970" stroke="#191970" points="1058.4998,-72.5184 1048.1985,-74.9948 1057.7957,-79.4829 1058.4998,-72.5184"/>
</g>
<!-- Node2&#45;&gt;Node8 -->
<g id="edge8" class="edge">
<title>Node2&#45;&gt;Node8</title>
<path fill="none" stroke="#191970" d="M1557.1632,-172.3181C1637.8145,-163.8532 1794.5507,-147.3861 1938.5978,-132.1475"/>
<polygon fill="#191970" stroke="#191970" points="1939.3699,-135.5854 1948.9461,-131.0526 1938.6333,-128.6243 1939.3699,-135.5854"/>
</g>
<!-- Node10 -->
<g id="node11" class="node">
<title>Node10</title>
<g id="a_node11"><a xlink:href="../../d9/de8/CompilerBuiltins_8h.html" target="_top" xlink:title="Framework/CompilerBuiltins.h">
<polygon fill="none" stroke="#000000" points="726,-56.5 726,-75.5 890,-75.5 890,-56.5 726,-56.5"/>
<text text-anchor="middle" x="808" y="-63.5" font-family="Helvetica,sans-Serif" font-size="10.00" fill="#000000">Framework/CompilerBuiltins.h</text>
</a>
</g>
</g>
<!-- Node2&#45;&gt;Node10 -->
<g id="edge11" class="edge">
<title>Node2&#45;&gt;Node10</title>
<path fill="none" stroke="#191970" d="M1487.4333,-168.3331C1458.0578,-150.0995 1397.2591,-112.4068 1396,-112 1293.5106,-78.8868 1024.5317,-85.6385 900.4411,-76.0353"/>
<polygon fill="#191970" stroke="#191970" points="900.5841,-72.5351 890.3261,-75.1854 899.9979,-79.5105 900.5841,-72.5351"/>
</g>
<!-- Node11 -->
<g id="node12" class="node">
<title>Node11</title>
<g id="a_node12"><a xlink:href="../../db/d31/Traits_8h.html" target="_top" xlink:title="Framework/Traits.h">
<polygon fill="none" stroke="#000000" points="2213.5,-112.5 2213.5,-131.5 2322.5,-131.5 2322.5,-112.5 2213.5,-112.5"/>
<text text-anchor="middle" x="2268" y="-119.5" font-family="Helvetica,sans-Serif" font-size="10.00" fill="#000000">Framework/Traits.h</text>
</a>
</g>
</g>
<!-- Node2&#45;&gt;Node11 -->
<g id="edge12" class="edge">
<title>Node2&#45;&gt;Node11</title>
<path fill="none" stroke="#191970" d="M1557.0981,-174.0399C1694.1867,-164.0046 2054.819,-137.6054 2203.0058,-126.7577"/>
<polygon fill="#191970" stroke="#191970" points="2203.5843,-130.2249 2213.3021,-126.004 2203.0732,-123.2435 2203.5843,-130.2249"/>
</g>
<!-- Node13 -->
<g id="node14" class="node">
<title>Node13</title>
<g id="a_node14"><a xlink:href="../../d0/d91/Expressions_8h.html" target="_top" xlink:title="Framework/Expressions.h">
<polygon fill="none" stroke="#000000" points="1481.5,-112.5 1481.5,-131.5 1622.5,-131.5 1622.5,-112.5 1481.5,-112.5"/>
<text text-anchor="middle" x="1552" y="-119.5" font-family="Helvetica,sans-Serif" font-size="10.00" fill="#000000">Framework/Expressions.h</text>
</a>
</g>
</g>
<!-- Node2&#45;&gt;Node13 -->
<g id="edge14" class="edge">
<title>Node2&#45;&gt;Node13</title>
<path fill="none" stroke="#191970" d="M1511.5351,-168.2455C1518.4912,-160.2958 1528.4883,-148.8706 1536.8051,-139.3656"/>
<polygon fill="#191970" stroke="#191970" points="1539.6116,-141.4732 1543.5627,-131.6427 1534.3436,-136.8637 1539.6116,-141.4732"/>
</g>
<!-- Node2&#45;&gt;Node19 -->
<g id="edge39" class="edge">
<title>Node2&#45;&gt;Node19</title>
<path fill="none" stroke="#191970" d="M1557.2242,-168.9336C1598.1991,-161.2848 1655.4805,-148.8744 1704,-132 1723.5277,-125.2085 1726.0716,-117.5059 1746,-112 1905.9866,-67.798 1955.7098,-99.3698 2124.439,-75.9116"/>
<polygon fill="#191970" stroke="#191970" points="2125.0001,-79.367 2134.4017,-74.4822 2124.006,-72.4379 2125.0001,-79.367"/>
</g>
<!-- Node20 -->
<g id="node21" class="node">
<title>Node20</title>
<polygon fill="none" stroke="#bfbfbf" points="1846.5,-56.5 1846.5,-75.5 1993.5,-75.5 1993.5,-56.5 1846.5,-56.5"/>
<text text-anchor="middle" x="1920" y="-63.5" font-family="Helvetica,sans-Serif" font-size="10.00" fill="#000000">gandiva/selection_vector.h</text>
</g>
<!-- Node2&#45;&gt;Node20 -->
<g id="edge44" class="edge">
<title>Node2&#45;&gt;Node20</title>
<path fill="none" stroke="#191970" d="M1531.7222,-168.4289C1557.8314,-159.5513 1597.3081,-145.6847 1631,-132 1650.9019,-123.9164 1654.5176,-118.4733 1675,-112 1727.4913,-95.4104 1788.3073,-83.9499 1836.2155,-76.6172"/>
<polygon fill="#191970" stroke="#191970" points="1836.8646,-80.0591 1846.235,-75.1148 1835.8265,-73.1365 1836.8646,-80.0591"/>
</g>
<!-- Node26 -->
<g id="node27" class="node">
<title>Node26</title>
<g id="a_node27"><a xlink:href="../../d0/d92/Kernels_8h.html" target="_top" xlink:title="Framework/Kernels.h">
<polygon fill="none" stroke="#000000" points="373.5,-112.5 373.5,-131.5 492.5,-131.5 492.5,-112.5 373.5,-112.5"/>
<text text-anchor="middle" x="433" y="-119.5" font-family="Helvetica,sans-Serif" font-size="10.00" fill="#000000">Framework/Kernels.h</text>
</a>
</g>
</g>
<!-- Node2&#45;&gt;Node26 -->
<g id="edge30" class="edge">
<title>Node2&#45;&gt;Node26</title>
<path fill="none" stroke="#191970" d="M1448.9849,-175.8694C1305.0636,-170.0807 900.3822,-153.0745 564,-132 544.1299,-130.7551 522.5805,-129.1966 502.8069,-127.6831"/>
<polygon fill="#191970" stroke="#191970" points="502.8868,-124.1789 492.6467,-126.8976 502.3471,-131.1581 502.8868,-124.1789"/>
</g>
<!-- Node27 -->
<g id="node28" class="node">
<title>Node27</title>
<polygon fill="none" stroke="#bfbfbf" points="366.5,-56.5 366.5,-75.5 499.5,-75.5 499.5,-56.5 366.5,-56.5"/>
<text text-anchor="middle" x="433" y="-63.5" font-family="Helvetica,sans-Serif" font-size="10.00" fill="#000000">arrow/compute/kernel.h</text>
</g>
<!-- Node2&#45;&gt;Node27 -->
<g id="edge43" class="edge">
<title>Node2&#45;&gt;Node27</title>
<path fill="none" stroke="#191970" d="M1448.7968,-172.9869C1300.4215,-159.1465 874.9462,-118.6718 509.688,-76.0538"/>
<polygon fill="#191970" stroke="#191970" points="510.0535,-72.5728 499.7147,-74.8878 509.2406,-79.5254 510.0535,-72.5728"/>
</g>
<!-- Node30 -->
<g id="node31" class="node">
<title>Node30</title>
<polygon fill="none" stroke="#bfbfbf" points="0,-56.5 0,-75.5 110,-75.5 110,-56.5 0,-56.5"/>
<text text-anchor="middle" x="55" y="-63.5" font-family="Helvetica,sans-Serif" font-size="10.00" fill="#000000">arrow/util/variant.h</text>
</g>
<!-- Node2&#45;&gt;Node30 -->
<g id="edge41" class="edge">
<title>Node2&#45;&gt;Node30</title>
<path fill="none" stroke="#191970" d="M1448.7539,-175.9344C1225.8976,-167.4327 391.2129,-135.4304 364,-132 269.077,-120.0341 160.07,-93.7384 100.2287,-78.1925"/>
<polygon fill="#191970" stroke="#191970" points="100.9092,-74.7528 90.3489,-75.6072 99.1371,-81.5248 100.9092,-74.7528"/>
</g>
<!-- Node31 -->
<g id="node32" class="node">
<title>Node31</title>
<g id="a_node32"><a xlink:href="../../d1/dc1/ArrowCompatibility_8h.html" target="_top" xlink:title="Framework/ArrowCompatibility.h">
<polygon fill="none" stroke="#000000" points="1755,-112.5 1755,-131.5 1931,-131.5 1931,-112.5 1755,-112.5"/>
<text text-anchor="middle" x="1843" y="-119.5" font-family="Helvetica,sans-Serif" font-size="10.00" fill="#000000">Framework/ArrowCompatibility.h</text>
</a>
</g>
</g>
<!-- Node2&#45;&gt;Node31 -->
<g id="edge37" class="edge">
<title>Node2&#45;&gt;Node31</title>
<path fill="none" stroke="#191970" d="M1557.25,-169.0647C1616.4224,-159.3187 1711.2259,-143.704 1775.2468,-133.1593"/>
<polygon fill="#191970" stroke="#191970" points="1775.9491,-136.5909 1785.2473,-131.5122 1774.8114,-129.684 1775.9491,-136.5909"/>
</g>
<!-- Node32 -->
<g id="node33" class="node">
<title>Node32</title>
<polygon fill="none" stroke="#bfbfbf" points="1079,-112.5 1079,-131.5 1159,-131.5 1159,-112.5 1079,-112.5"/>
<text text-anchor="middle" x="1119" y="-119.5" font-family="Helvetica,sans-Serif" font-size="10.00" fill="#000000">arrow/array.h</text>
</g>
<!-- Node2&#45;&gt;Node32 -->
<g id="edge40" class="edge">
<title>Node2&#45;&gt;Node32</title>
<path fill="none" stroke="#191970" d="M1448.8754,-171.6641C1384.5799,-163.8933 1273.8602,-149.7438 1169.1812,-132.115"/>
<polygon fill="#191970" stroke="#191970" points="1169.5164,-128.6219 1159.0716,-130.3983 1168.3445,-135.5231 1169.5164,-128.6219"/>
</g>
<!-- Node33 -->
<g id="node34" class="node">
<title>Node33</title>
<polygon fill="none" stroke="#bfbfbf" points="1177.5,-112.5 1177.5,-131.5 1316.5,-131.5 1316.5,-112.5 1177.5,-112.5"/>
<text text-anchor="middle" x="1247" y="-119.5" font-family="Helvetica,sans-Serif" font-size="10.00" fill="#000000">arrow/compute/context.h</text>
</g>
<!-- Node2&#45;&gt;Node33 -->
<g id="edge42" class="edge">
<title>Node2&#45;&gt;Node33</title>
<path fill="none" stroke="#191970" d="M1459.2829,-168.4369C1415.3784,-158.8328 1347.6587,-144.0191 1300.555,-133.7152"/>
<polygon fill="#191970" stroke="#191970" points="1301.0537,-130.2416 1290.5368,-131.5237 1299.5578,-137.0799 1301.0537,-130.2416"/>
</g>
<!-- Node34 -->
<g id="node35" class="node">
<title>Node34</title>
<polygon fill="none" stroke="#bfbfbf" points="1335,-112.5 1335,-131.5 1387,-131.5 1387,-112.5 1335,-112.5"/>
<text text-anchor="middle" x="1361" y="-119.5" font-family="Helvetica,sans-Serif" font-size="10.00" fill="#000000">cassert</text>
</g>
<!-- Node2&#45;&gt;Node34 -->
<g id="edge45" class="edge">
<title>Node2&#45;&gt;Node34</title>
<path fill="none" stroke="#191970" d="M1478.5893,-168.3733C1455.3858,-159.2226 1420.2962,-145.3844 1394.4858,-135.2057"/>
<polygon fill="#191970" stroke="#191970" points="1395.6789,-131.9139 1385.0921,-131.5011 1393.1108,-138.4258 1395.6789,-131.9139"/>
</g>
<!-- Node4 -->
<g id="node5" class="node">
<title>Node4</title>
<polygon fill="none" stroke="#bfbfbf" points="1970.5,-.5 1970.5,-19.5 2023.5,-19.5 2023.5,-.5 1970.5,-.5"/>
<text text-anchor="middle" x="1997" y="-7.5" font-family="Helvetica,sans-Serif" font-size="10.00" fill="#000000">cstddef</text>
</g>
<!-- Node3&#45;&gt;Node4 -->
<g id="edge4" class="edge">
<title>Node3&#45;&gt;Node4</title>
<path fill="none" stroke="#191970" d="M2052.3295,-56.2455C2042.4339,-47.9746 2028.0373,-35.9416 2016.4099,-26.2232"/>
<polygon fill="#191970" stroke="#191970" points="2018.4542,-23.3703 2008.5368,-19.6427 2013.965,-28.7413 2018.4542,-23.3703"/>
</g>
<!-- Node5 -->
<g id="node6" class="node">
<title>Node5</title>
<polygon fill="none" stroke="#bfbfbf" points="2041.5,-.5 2041.5,-19.5 2086.5,-19.5 2086.5,-.5 2041.5,-.5"/>
<text text-anchor="middle" x="2064" y="-7.5" font-family="Helvetica,sans-Serif" font-size="10.00" fill="#000000">utility</text>
</g>
<!-- Node3&#45;&gt;Node5 -->
<g id="edge5" class="edge">
<title>Node3&#45;&gt;Node5</title>
<path fill="none" stroke="#191970" d="M2064,-56.2455C2064,-48.9382 2064,-38.6944 2064,-29.7046"/>
<polygon fill="#191970" stroke="#191970" points="2067.5001,-29.6426 2064,-19.6427 2060.5001,-29.6427 2067.5001,-29.6426"/>
</g>
<!-- Node6 -->
<g id="node7" class="node">
<title>Node6</title>
<polygon fill="none" stroke="#bfbfbf" points="2105,-.5 2105,-19.5 2151,-19.5 2151,-.5 2105,-.5"/>
<text text-anchor="middle" x="2128" y="-7.5" font-family="Helvetica,sans-Serif" font-size="10.00" fill="#000000">cstdio</text>
</g>
<!-- Node3&#45;&gt;Node6 -->
<g id="edge6" class="edge">
<title>Node3&#45;&gt;Node6</title>
<path fill="none" stroke="#191970" d="M2075.1479,-56.2455C2084.5087,-48.0549 2098.0858,-36.1749 2109.1349,-26.5069"/>
<polygon fill="#191970" stroke="#191970" points="2111.7588,-28.8618 2116.9798,-19.6427 2107.1492,-23.5937 2111.7588,-28.8618"/>
</g>
<!-- Node8&#45;&gt;Node3 -->
<g id="edge9" class="edge">
<title>Node8&#45;&gt;Node3</title>
<path fill="none" stroke="#191970" d="M2039.2256,-112.2455C2043.3123,-104.617 2049.1135,-93.7881 2054.075,-84.5267"/>
<polygon fill="#191970" stroke="#191970" points="2057.1972,-86.1103 2058.8343,-75.6427 2051.0268,-82.8047 2057.1972,-86.1103"/>
</g>
<!-- Node8&#45;&gt;Node9 -->
<g id="edge10" class="edge">
<title>Node8&#45;&gt;Node9</title>
<path fill="none" stroke="#191970" d="M2073.6186,-112.4369C2115.3134,-102.3726 2180.7085,-86.5876 2223.4686,-76.2662"/>
<polygon fill="#191970" stroke="#191970" points="2224.3928,-79.6437 2233.2924,-73.8949 2222.7503,-72.8391 2224.3928,-79.6437"/>
</g>
<!-- Node12 -->
<g id="node13" class="node">
<title>Node12</title>
<polygon fill="none" stroke="#bfbfbf" points="2316.5,-56.5 2316.5,-75.5 2385.5,-75.5 2385.5,-56.5 2316.5,-56.5"/>
<text text-anchor="middle" x="2351" y="-63.5" font-family="Helvetica,sans-Serif" font-size="10.00" fill="#000000">type_traits</text>
</g>
<!-- Node11&#45;&gt;Node12 -->
<g id="edge13" class="edge">
<title>Node11&#45;&gt;Node12</title>
<path fill="none" stroke="#191970" d="M2282.4575,-112.2455C2295.0732,-103.7337 2313.5944,-91.2375 2328.2045,-81.3801"/>
<polygon fill="#191970" stroke="#191970" points="2330.3761,-84.1371 2336.7082,-75.6427 2326.4609,-78.3343 2330.3761,-84.1371"/>
</g>
<!-- Node13&#45;&gt;Node3 -->
<g id="edge17" class="edge">
<title>Node13&#45;&gt;Node3</title>
<path fill="none" stroke="#191970" d="M1622.6853,-116.0528C1709.3545,-108.4737 1860.9604,-94.2887 2001.1896,-76.04"/>
<polygon fill="#191970" stroke="#191970" points="2001.8052,-79.4893 2011.2654,-74.7191 2000.8952,-72.5487 2001.8052,-79.4893"/>
</g>
<!-- Node13&#45;&gt;Node7 -->
<g id="edge18" class="edge">
<title>Node13&#45;&gt;Node7</title>
<path fill="none" stroke="#191970" d="M1481.0561,-113.495C1476.3009,-112.9739 1471.5821,-112.4706 1467,-112 1288.3213,-93.6491 1240.594,-95.4175 1058.3901,-76.1143"/>
<polygon fill="#191970" stroke="#191970" points="1058.5097,-72.6073 1048.1949,-75.0272 1057.7674,-79.5679 1058.5097,-72.6073"/>
</g>
<!-- Node13&#45;&gt;Node10 -->
<g id="edge16" class="edge">
<title>Node13&#45;&gt;Node10</title>
<path fill="none" stroke="#191970" d="M1481.4404,-116.1014C1464.2833,-114.7118 1445.9854,-113.2673 1429,-112 1196.89,-94.6824 1135.8886,-96.8335 900.5734,-76.1093"/>
<polygon fill="#191970" stroke="#191970" points="900.5943,-72.5975 890.3246,-75.202 899.977,-79.5703 900.5943,-72.5975"/>
</g>
<!-- Node14 -->
<g id="node15" class="node">
<title>Node14</title>
<g id="a_node15"><a xlink:href="../../dd/dc2/BasicOps_8h.html" target="_top" xlink:title="Framework/BasicOps.h">
<polygon fill="none" stroke="#000000" points="580,-56.5 580,-75.5 708,-75.5 708,-56.5 580,-56.5"/>
<text text-anchor="middle" x="644" y="-63.5" font-family="Helvetica,sans-Serif" font-size="10.00" fill="#000000">Framework/BasicOps.h</text>
</a>
</g>
</g>
<!-- Node13&#45;&gt;Node14 -->
<g id="edge15" class="edge">
<title>Node13&#45;&gt;Node14</title>
<path fill="none" stroke="#191970" d="M1481.3417,-117.3049C1454.6089,-115.5721 1423.9053,-113.6341 1396,-112 1097.7032,-94.532 1019.5976,-104.3063 718.4088,-76.0593"/>
<polygon fill="#191970" stroke="#191970" points="718.3439,-72.5377 708.0591,-75.082 717.6857,-79.5067 718.3439,-72.5377"/>
</g>
<!-- Node15 -->
<g id="node16" class="node">
<title>Node15</title>
<polygon fill="none" stroke="#bfbfbf" points="1066.5,-56.5 1066.5,-75.5 1167.5,-75.5 1167.5,-56.5 1066.5,-56.5"/>
<text text-anchor="middle" x="1117" y="-63.5" font-family="Helvetica,sans-Serif" font-size="10.00" fill="#000000">arrow/type_fwd.h</text>
</g>
<!-- Node13&#45;&gt;Node15 -->
<g id="edge19" class="edge">
<title>Node13&#45;&gt;Node15</title>
<path fill="none" stroke="#191970" d="M1481.448,-113.5124C1388.2374,-102.2751 1230.5544,-83.1757 1177.8086,-76.0203"/>
<polygon fill="#191970" stroke="#191970" points="1178.1031,-72.5275 1167.7151,-74.6103 1177.1347,-79.4602 1178.1031,-72.5275"/>
</g>
<!-- Node16 -->
<g id="node17" class="node">
<title>Node16</title>
<polygon fill="none" stroke="#bfbfbf" points="1186,-56.5 1186,-75.5 1332,-75.5 1332,-56.5 1186,-56.5"/>
<text text-anchor="middle" x="1259" y="-63.5" font-family="Helvetica,sans-Serif" font-size="10.00" fill="#000000">gandiva/gandiva_aliases.h</text>
</g>
<!-- Node13&#45;&gt;Node16 -->
<g id="edge20" class="edge">
<title>Node13&#45;&gt;Node16</title>
<path fill="none" stroke="#191970" d="M1501.9644,-112.4369C1451.293,-102.7522 1372.9052,-87.7703 1318.9441,-77.4569"/>
<polygon fill="#191970" stroke="#191970" points="1319.3085,-73.9633 1308.8292,-75.5237 1317.9943,-80.8388 1319.3085,-73.9633"/>
</g>
<!-- Node17 -->
<g id="node18" class="node">
<title>Node17</title>
<polygon fill="none" stroke="#bfbfbf" points="1350,-56.5 1350,-75.5 1428,-75.5 1428,-56.5 1350,-56.5"/>
<text text-anchor="middle" x="1389" y="-63.5" font-family="Helvetica,sans-Serif" font-size="10.00" fill="#000000">arrow/type.h</text>
</g>
<!-- Node13&#45;&gt;Node17 -->
<g id="edge21" class="edge">
<title>Node13&#45;&gt;Node17</title>
<path fill="none" stroke="#191970" d="M1523.9793,-112.3733C1496.9922,-103.1016 1455.9983,-89.0178 1426.2689,-78.804"/>
<polygon fill="#191970" stroke="#191970" points="1427.2497,-75.4403 1416.6551,-75.5011 1424.9752,-82.0605 1427.2497,-75.4403"/>
</g>
<!-- Node18 -->
<g id="node19" class="node">
<title>Node18</title>
<polygon fill="none" stroke="#bfbfbf" points="1446.5,-56.5 1446.5,-75.5 1541.5,-75.5 1541.5,-56.5 1446.5,-56.5"/>
<text text-anchor="middle" x="1494" y="-63.5" font-family="Helvetica,sans-Serif" font-size="10.00" fill="#000000">gandiva/arrow.h</text>
</g>
<!-- Node13&#45;&gt;Node18 -->
<g id="edge22" class="edge">
<title>Node13&#45;&gt;Node18</title>
<path fill="none" stroke="#191970" d="M1541.8972,-112.2455C1533.4972,-104.1352 1521.3506,-92.4075 1511.3916,-82.7919"/>
<polygon fill="#191970" stroke="#191970" points="1513.6122,-80.0707 1503.9871,-75.6427 1508.75,-85.1066 1513.6122,-80.0707"/>
</g>
<!-- Node13&#45;&gt;Node19 -->
<g id="edge23" class="edge">
<title>Node13&#45;&gt;Node19</title>
<path fill="none" stroke="#191970" d="M1622.7156,-117.3655C1749.8427,-108.866 2013.285,-90.4451 2124.4515,-75.8843"/>
<polygon fill="#191970" stroke="#191970" points="2124.9707,-79.346 2134.4089,-74.5323 2124.0289,-72.4096 2124.9707,-79.346"/>
</g>
<!-- Node13&#45;&gt;Node20 -->
<g id="edge24" class="edge">
<title>Node13&#45;&gt;Node20</title>
<path fill="none" stroke="#191970" d="M1614.8433,-112.4369C1679.2791,-102.6314 1779.3998,-87.3957 1847.2336,-77.0731"/>
<polygon fill="#191970" stroke="#191970" points="1848.0563,-80.4883 1857.4159,-75.5237 1847.0031,-73.568 1848.0563,-80.4883"/>
</g>
<!-- Node21 -->
<g id="node22" class="node">
<title>Node21</title>
<polygon fill="none" stroke="#bfbfbf" points="1560,-56.5 1560,-75.5 1652,-75.5 1652,-56.5 1560,-56.5"/>
<text text-anchor="middle" x="1606" y="-63.5" font-family="Helvetica,sans-Serif" font-size="10.00" fill="#000000">gandiva/node.h</text>
</g>
<!-- Node13&#45;&gt;Node21 -->
<g id="edge25" class="edge">
<title>Node13&#45;&gt;Node21</title>
<path fill="none" stroke="#191970" d="M1561.4061,-112.2455C1569.1493,-104.2155 1580.312,-92.6394 1589.5318,-83.0781"/>
<polygon fill="#191970" stroke="#191970" points="1592.2798,-85.2706 1596.7017,-75.6427 1587.2409,-80.4117 1592.2798,-85.2706"/>
</g>
<!-- Node22 -->
<g id="node23" class="node">
<title>Node22</title>
<polygon fill="none" stroke="#bfbfbf" points="1670.5,-56.5 1670.5,-75.5 1759.5,-75.5 1759.5,-56.5 1670.5,-56.5"/>
<text text-anchor="middle" x="1715" y="-63.5" font-family="Helvetica,sans-Serif" font-size="10.00" fill="#000000">gandiva/filter.h</text>
</g>
<!-- Node13&#45;&gt;Node22 -->
<g id="edge26" class="edge">
<title>Node13&#45;&gt;Node22</title>
<path fill="none" stroke="#191970" d="M1580.0207,-112.3733C1607.0078,-103.1016 1648.0017,-89.0178 1677.7311,-78.804"/>
<polygon fill="#191970" stroke="#191970" points="1679.0248,-82.0605 1687.3449,-75.5011 1676.7503,-75.4403 1679.0248,-82.0605"/>
</g>
<!-- Node23 -->
<g id="node24" class="node">
<title>Node23</title>
<polygon fill="none" stroke="#bfbfbf" points="1777.5,-56.5 1777.5,-75.5 1828.5,-75.5 1828.5,-56.5 1777.5,-56.5"/>
<text text-anchor="middle" x="1803" y="-63.5" font-family="Helvetica,sans-Serif" font-size="10.00" fill="#000000">variant</text>
</g>
<!-- Node13&#45;&gt;Node23 -->
<g id="edge27" class="edge">
<title>Node13&#45;&gt;Node23</title>
<path fill="none" stroke="#191970" d="M1601.5488,-112.4514C1643.242,-104.1904 1704.6374,-91.4997 1767.3642,-76.0281"/>
<polygon fill="#191970" stroke="#191970" points="1768.5809,-79.3321 1777.44,-73.5214 1766.8908,-72.5392 1768.5809,-79.3321"/>
</g>
<!-- Node13&#45;&gt;Node24 -->
<g id="edge28" class="edge">
<title>Node13&#45;&gt;Node24</title>
<path fill="none" stroke="#191970" d="M1481.3496,-117.1649C1454.6177,-115.4159 1423.9126,-113.5035 1396,-112 1032.8262,-92.4381 934.0076,-140.0477 572.1309,-75.7259"/>
<polygon fill="#191970" stroke="#191970" points="572.6297,-72.2596 562.1688,-73.9389 571.3937,-79.1496 572.6297,-72.2596"/>
</g>
<!-- Node13&#45;&gt;Node25 -->
<g id="edge29" class="edge">
<title>Node13&#45;&gt;Node25</title>
<path fill="none" stroke="#191970" d="M1622.9402,-118.1523C1659.6657,-116.2087 1705.2354,-113.8723 1746,-112 2177.8185,-92.1668 2701.7855,-72.7481 2847.6675,-67.4258"/>
<polygon fill="#191970" stroke="#191970" points="2848.036,-70.9148 2857.9019,-67.053 2847.7811,-63.9195 2848.036,-70.9148"/>
</g>
<!-- Node26&#45;&gt;Node14 -->
<g id="edge31" class="edge">
<title>Node26&#45;&gt;Node14</title>
<path fill="none" stroke="#191970" d="M469.2722,-112.3733C504.9658,-102.9001 559.5879,-88.4032 598.2451,-78.1435"/>
<polygon fill="#191970" stroke="#191970" points="599.4336,-81.4493 608.2011,-75.5011 597.6379,-74.6835 599.4336,-81.4493"/>
</g>
<!-- Node26&#45;&gt;Node24 -->
<g id="edge36" class="edge">
<title>Node26&#45;&gt;Node24</title>
<path fill="none" stroke="#191970" d="M451.638,-112.2455C468.4386,-103.4527 493.3634,-90.4079 512.4618,-80.4125"/>
<polygon fill="#191970" stroke="#191970" points="514.3386,-83.3807 521.5756,-75.6427 511.0927,-77.1787 514.3386,-83.3807"/>
</g>
<!-- Node26&#45;&gt;Node27 -->
<g id="edge32" class="edge">
<title>Node26&#45;&gt;Node27</title>
<path fill="none" stroke="#191970" d="M433,-112.2455C433,-104.9382 433,-94.6944 433,-85.7046"/>
<polygon fill="#191970" stroke="#191970" points="436.5001,-85.6426 433,-75.6427 429.5001,-85.6427 436.5001,-85.6426"/>
</g>
<!-- Node28 -->
<g id="node29" class="node">
<title>Node28</title>
<polygon fill="none" stroke="#bfbfbf" points="128,-56.5 128,-75.5 214,-75.5 214,-56.5 128,-56.5"/>
<text text-anchor="middle" x="171" y="-63.5" font-family="Helvetica,sans-Serif" font-size="10.00" fill="#000000">arrow/status.h</text>
</g>
<!-- Node26&#45;&gt;Node28 -->
<g id="edge33" class="edge">
<title>Node26&#45;&gt;Node28</title>
<path fill="none" stroke="#191970" d="M388.2583,-112.4369C342.8213,-102.7252 272.4615,-87.6864 224.1975,-77.3705"/>
<polygon fill="#191970" stroke="#191970" points="224.7615,-73.912 214.2508,-75.2444 223.2983,-80.7574 224.7615,-73.912"/>
</g>
<!-- Node29 -->
<g id="node30" class="node">
<title>Node29</title>
<polygon fill="none" stroke="#bfbfbf" points="232,-56.5 232,-75.5 348,-75.5 348,-56.5 232,-56.5"/>
<text text-anchor="middle" x="290" y="-63.5" font-family="Helvetica,sans-Serif" font-size="10.00" fill="#000000">arrow/util/visibility.h</text>
</g>
<!-- Node26&#45;&gt;Node29 -->
<g id="edge34" class="edge">
<title>Node26&#45;&gt;Node29</title>
<path fill="none" stroke="#191970" d="M408.4174,-112.3733C385.0504,-103.2226 349.7138,-89.3844 323.7216,-79.2057"/>
<polygon fill="#191970" stroke="#191970" points="324.8495,-75.8886 314.2618,-75.5011 322.297,-82.4066 324.8495,-75.8886"/>
</g>
<!-- Node26&#45;&gt;Node30 -->
<g id="edge35" class="edge">
<title>Node26&#45;&gt;Node30</title>
<path fill="none" stroke="#191970" d="M373.3631,-113.436C312.3414,-104.6341 214.4938,-90.4129 120.1538,-76.1644"/>
<polygon fill="#191970" stroke="#191970" points="120.5638,-72.6867 110.1528,-74.6518 119.517,-79.608 120.5638,-72.6867"/>
</g>
<!-- Node31&#45;&gt;Node19 -->
<g id="edge38" class="edge">
<title>Node31&#45;&gt;Node19</title>
<path fill="none" stroke="#191970" d="M1905.2759,-112.4952C1960.2554,-103.9549 2042.8325,-90.7666 2124.4211,-76.0547"/>
<polygon fill="#191970" stroke="#191970" points="2125.1483,-79.4801 2134.3641,-74.2533 2123.9003,-72.5922 2125.1483,-79.4801"/>
</g>
<!-- Node35&#45;&gt;Node11 -->
<g id="edge47" class="edge">
<title>Node35&#45;&gt;Node11</title>
<path fill="none" stroke="#191970" d="M2283.6905,-168.2455C2281.1567,-160.7776 2277.5823,-150.2427 2274.485,-141.1137"/>
<polygon fill="#191970" stroke="#191970" points="2277.7991,-139.9879 2271.2716,-131.6427 2271.1702,-142.237 2277.7991,-139.9879"/>
</g>
<!-- Node35&#45;&gt;Node12 -->
<g id="edge49" class="edge">
<title>Node35&#45;&gt;Node12</title>
<path fill="none" stroke="#191970" d="M2299.4187,-168.3196C2309.5665,-159.7851 2323.5666,-146.4813 2332,-132 2340.3446,-117.6713 2345.2299,-99.4344 2347.9519,-85.7634"/>
<polygon fill="#191970" stroke="#191970" points="2351.4649,-85.996 2349.758,-75.5396 2344.5716,-84.7782 2351.4649,-85.996"/>
</g>
<!-- Node35&#45;&gt;Node36 -->
<g id="edge48" class="edge">
<title>Node35&#45;&gt;Node36</title>
<path fill="none" stroke="#191970" d="M2306.4254,-168.3733C2324.4021,-159.4644 2351.3441,-146.1127 2371.709,-136.0203"/>
<polygon fill="#191970" stroke="#191970" points="2373.4222,-139.0776 2380.8281,-131.5011 2370.3139,-132.8055 2373.4222,-139.0776"/>
</g>
<!-- Node37&#45;&gt;Node10 -->
<g id="edge52" class="edge">
<title>Node37&#45;&gt;Node10</title>
<path fill="none" stroke="#191970" d="M1119.9265,-168.4509C1058.5219,-148.2829 915.61,-101.3441 846.6233,-78.6857"/>
<polygon fill="#191970" stroke="#191970" points="847.5927,-75.3202 836.9999,-75.5249 845.4084,-81.9706 847.5927,-75.3202"/>
</g>
<!-- Node43&#45;&gt;Node25 -->
<g id="edge64" class="edge">
<title>Node43&#45;&gt;Node25</title>
<path fill="none" stroke="#191970" d="M2801.0085,-224.4287C2841.1142,-216.6663 2888.6993,-204.3355 2901,-188 2923.7565,-157.7792 2908.2395,-110.8382 2896.5739,-84.8757"/>
<polygon fill="#191970" stroke="#191970" points="2899.6832,-83.2642 2892.2304,-75.7338 2893.3606,-86.2682 2899.6832,-83.2642"/>
</g>
</g>
</svg>
