<?xml version="1.0" encoding="UTF-8" standalone="no"?>
<!DOCTYPE svg PUBLIC "-//W3C//DTD SVG 1.1//EN"
 "http://www.w3.org/Graphics/SVG/1.1/DTD/svg11.dtd">
<!-- Generated by graphviz version 2.40.1 (20161225.0304)
 -->
<!-- Title: o2::tpc::CompressedClustersPtrs_helper&lt; T &gt; Pages: 1 -->
<svg width="319pt" height="424pt"
 viewBox="0.00 0.00 318.50 424.00" xmlns="http://www.w3.org/2000/svg" xmlns:xlink="http://www.w3.org/1999/xlink">
<g id="graph0" class="graph" transform="scale(1 1) rotate(0) translate(4 420)">
<title>o2::tpc::CompressedClustersPtrs_helper&lt; T &gt;</title>
<!-- Node2 -->
<g id="node1" class="node">
<title>Node2</title>
<polygon fill="#bfbfbf" stroke="#000000" points="24.5,-.5 24.5,-200.5 180.5,-200.5 180.5,-.5 24.5,-.5"/>
<text text-anchor="start" x="32.5" y="-188.5" font-family="Helvetica,sans-Serif" font-size="10.00" fill="#000000">o2::tpc::CompressedClusters</text>
<text text-anchor="middle" x="102.5" y="-177.5" font-family="Helvetica,sans-Serif" font-size="10.00" fill="#000000">Ptrs_helper&lt; T &gt;</text>
<polyline fill="none" stroke="#000000" points="24.5,-170.5 180.5,-170.5 "/>
<text text-anchor="start" x="32.5" y="-158.5" font-family="Helvetica,sans-Serif" font-size="10.00" fill="#000000">+ qTotA</text>
<text text-anchor="start" x="32.5" y="-147.5" font-family="Helvetica,sans-Serif" font-size="10.00" fill="#000000">+ flagsA</text>
<text text-anchor="start" x="32.5" y="-136.5" font-family="Helvetica,sans-Serif" font-size="10.00" fill="#000000">+ padResA</text>
<text text-anchor="start" x="32.5" y="-125.5" font-family="Helvetica,sans-Serif" font-size="10.00" fill="#000000">+ timeResA</text>
<text text-anchor="start" x="32.5" y="-114.5" font-family="Helvetica,sans-Serif" font-size="10.00" fill="#000000">+ qPtA</text>
<text text-anchor="start" x="32.5" y="-103.5" font-family="Helvetica,sans-Serif" font-size="10.00" fill="#000000">+ sliceA</text>
<text text-anchor="start" x="32.5" y="-92.5" font-family="Helvetica,sans-Serif" font-size="10.00" fill="#000000">+ padA</text>
<text text-anchor="start" x="32.5" y="-81.5" font-family="Helvetica,sans-Serif" font-size="10.00" fill="#000000">+ qTotU</text>
<text text-anchor="start" x="32.5" y="-70.5" font-family="Helvetica,sans-Serif" font-size="10.00" fill="#000000">+ flagsU</text>
<text text-anchor="start" x="32.5" y="-59.5" font-family="Helvetica,sans-Serif" font-size="10.00" fill="#000000">+ timeDiffU</text>
<text text-anchor="start" x="32.5" y="-48.5" font-family="Helvetica,sans-Serif" font-size="10.00" fill="#000000">+ sigmaPadU</text>
<text text-anchor="start" x="32.5" y="-37.5" font-family="Helvetica,sans-Serif" font-size="10.00" fill="#000000">+ sigmaTimeU</text>
<text text-anchor="start" x="32.5" y="-26.5" font-family="Helvetica,sans-Serif" font-size="10.00" fill="#000000">+ nSliceRowClusters</text>
<polyline fill="none" stroke="#000000" points="24.5,-19.5 180.5,-19.5 "/>
<text text-anchor="start" x="32.5" y="-7.5" font-family="Helvetica,sans-Serif" font-size="10.00" fill="#000000">+ ClassDefNV()</text>
</g>
<!-- Node3 -->
<g id="node2" class="node">
<title>Node3</title>
<polygon fill="none" stroke="#bfbfbf" points="0,-358.5 0,-415.5 29,-415.5 29,-358.5 0,-358.5"/>
<text text-anchor="middle" x="14.5" y="-403.5" font-family="Helvetica,sans-Serif" font-size="10.00" fill="#000000">T</text>
<polyline fill="none" stroke="#bfbfbf" points="0,-396.5 29,-396.5 "/>
<text text-anchor="middle" x="14.5" y="-384.5" font-family="Helvetica,sans-Serif" font-size="10.00" fill="#000000"> </text>
<polyline fill="none" stroke="#bfbfbf" points="0,-377.5 29,-377.5 "/>
<text text-anchor="middle" x="14.5" y="-365.5" font-family="Helvetica,sans-Serif" font-size="10.00" fill="#000000"> </text>
</g>
<!-- Node3&#45;&gt;Node2 -->
<g id="edge1" class="edge">
<title>Node3&#45;&gt;Node2</title>
<path fill="none" stroke="#191970" d="M23.5125,-348.1546C31.7343,-313.9022 44.6785,-262.7738 58.5,-219 60.3832,-213.0358 62.3924,-206.9309 64.4762,-200.7906"/>
<polygon fill="none" stroke="#191970" points="20.0283,-347.6772 21.1167,-358.216 26.838,-349.2987 20.0283,-347.6772"/>
</g>
<!-- Node4 -->
<g id="node3" class="node">
<title>Node4</title>
<polygon fill="none" stroke="#bfbfbf" points="47.5,-358.5 47.5,-415.5 85.5,-415.5 85.5,-358.5 47.5,-358.5"/>
<text text-anchor="middle" x="66.5" y="-403.5" font-family="Helvetica,sans-Serif" font-size="10.00" fill="#000000">char</text>
<polyline fill="none" stroke="#bfbfbf" points="47.5,-396.5 85.5,-396.5 "/>
<text text-anchor="middle" x="66.5" y="-384.5" font-family="Helvetica,sans-Serif" font-size="10.00" fill="#000000"> </text>
<polyline fill="none" stroke="#bfbfbf" points="47.5,-377.5 85.5,-377.5 "/>
<text text-anchor="middle" x="66.5" y="-365.5" font-family="Helvetica,sans-Serif" font-size="10.00" fill="#000000"> </text>
</g>
<!-- Node4&#45;&gt;Node2 -->
<g id="edge2" class="edge">
<title>Node4&#45;&gt;Node2</title>
<path fill="none" stroke="#404040" d="M64.2363,-358.2774C62.1492,-324.6784 60.3435,-267.4755 67.5,-219 67.8209,-216.8265 68.1721,-214.6371 68.5508,-212.4368"/>
<polygon fill="none" stroke="#404040" points="68.5621,-212.3773 65.7626,-205.7318 70.8202,-200.5917 73.6197,-207.2372 68.5621,-212.3773"/>
<text text-anchor="middle" x="92" y="-277" font-family="Helvetica,sans-Serif" font-size="10.00" fill="#000000"> +flatdata</text>
</g>
<!-- Node5 -->
<g id="node4" class="node">
<title>Node5</title>
<polygon fill="none" stroke="#bfbfbf" points="124,-358.5 124,-415.5 153,-415.5 153,-358.5 124,-358.5"/>
<text text-anchor="middle" x="138.5" y="-403.5" font-family="Helvetica,sans-Serif" font-size="10.00" fill="#000000">int</text>
<polyline fill="none" stroke="#bfbfbf" points="124,-396.5 153,-396.5 "/>
<text text-anchor="middle" x="138.5" y="-384.5" font-family="Helvetica,sans-Serif" font-size="10.00" fill="#000000"> </text>
<polyline fill="none" stroke="#bfbfbf" points="124,-377.5 153,-377.5 "/>
<text text-anchor="middle" x="138.5" y="-365.5" font-family="Helvetica,sans-Serif" font-size="10.00" fill="#000000"> </text>
</g>
<!-- Node5&#45;&gt;Node2 -->
<g id="edge3" class="edge">
<title>Node5&#45;&gt;Node2</title>
<path fill="none" stroke="#404040" d="M134.9166,-358.4819C130.6514,-324.5386 123.2698,-265.793 116.6269,-212.9268"/>
<polygon fill="none" stroke="#404040" points="116.586,-212.6007 111.8692,-207.1463 115.0899,-200.6944 119.8067,-206.1488 116.586,-212.6007"/>
<text text-anchor="middle" x="166.5" y="-277" font-family="Helvetica,sans-Serif" font-size="10.00" fill="#000000"> +flatdataSize</text>
</g>
<!-- Node6 -->
<g id="node5" class="node">
<title>Node6</title>
<polygon fill="none" stroke="#bfbfbf" points="201,-358.5 201,-415.5 262,-415.5 262,-358.5 201,-358.5"/>
<text text-anchor="middle" x="231.5" y="-403.5" font-family="Helvetica,sans-Serif" font-size="10.00" fill="#000000">unsigned</text>
<polyline fill="none" stroke="#bfbfbf" points="201,-396.5 262,-396.5 "/>
<text text-anchor="middle" x="231.5" y="-384.5" font-family="Helvetica,sans-Serif" font-size="10.00" fill="#000000"> </text>
<polyline fill="none" stroke="#bfbfbf" points="201,-377.5 262,-377.5 "/>
<text text-anchor="middle" x="231.5" y="-365.5" font-family="Helvetica,sans-Serif" font-size="10.00" fill="#000000"> </text>
</g>
<!-- Node6&#45;&gt;Node2 -->
<g id="edge4" class="edge">
<title>Node6&#45;&gt;Node2</title>
<path fill="none" stroke="#404040" d="M231.8202,-358.2682C231.1573,-323.662 226.6227,-264.5107 205.5,-219 200.5942,-208.4301 194.4546,-198.0858 187.63,-188.1866"/>
<polygon fill="none" stroke="#404040" points="187.6209,-188.1739 180.8658,-185.65 180.5975,-178.4439 187.3525,-180.9677 187.6209,-188.1739"/>
<text text-anchor="middle" x="270.5" y="-332" font-family="Helvetica,sans-Serif" font-size="10.00" fill="#000000"> +qMaxA</text>
<text text-anchor="middle" x="270.5" y="-321" font-family="Helvetica,sans-Serif" font-size="10.00" fill="#000000">+nTrackClusters</text>
<text text-anchor="middle" x="270.5" y="-310" font-family="Helvetica,sans-Serif" font-size="10.00" fill="#000000">+padDiffU</text>
<text text-anchor="middle" x="270.5" y="-299" font-family="Helvetica,sans-Serif" font-size="10.00" fill="#000000">+rowA</text>
<text text-anchor="middle" x="270.5" y="-288" font-family="Helvetica,sans-Serif" font-size="10.00" fill="#000000">+sigmaPadA</text>
<text text-anchor="middle" x="270.5" y="-277" font-family="Helvetica,sans-Serif" font-size="10.00" fill="#000000">+qMaxU</text>
<text text-anchor="middle" x="270.5" y="-266" font-family="Helvetica,sans-Serif" font-size="10.00" fill="#000000">+sigmaTimeA</text>
<text text-anchor="middle" x="270.5" y="-255" font-family="Helvetica,sans-Serif" font-size="10.00" fill="#000000">+rowDiffA</text>
<text text-anchor="middle" x="270.5" y="-244" font-family="Helvetica,sans-Serif" font-size="10.00" fill="#000000">+sliceLegDiffA</text>
<text text-anchor="middle" x="270.5" y="-233" font-family="Helvetica,sans-Serif" font-size="10.00" fill="#000000">+timeA</text>
<text text-anchor="middle" x="270.5" y="-222" font-family="Helvetica,sans-Serif" font-size="10.00" fill="#000000">...</text>
</g>
</g>
</svg>
