<?xml version="1.0" encoding="UTF-8" standalone="no"?>
<!DOCTYPE svg PUBLIC "-//W3C//DTD SVG 1.1//EN"
 "http://www.w3.org/Graphics/SVG/1.1/DTD/svg11.dtd">
<!-- Generated by graphviz version 2.40.1 (20161225.0304)
 -->
<!-- Title: /home/travis/build/AliceO2Group/AliceO2/Framework/Core/include/Framework/ASoAHelpers.h Pages: 1 -->
<svg width="2855pt" height="285pt"
 viewBox="0.00 0.00 2854.98 285.00" xmlns="http://www.w3.org/2000/svg" xmlns:xlink="http://www.w3.org/1999/xlink">
<g id="graph0" class="graph" transform="scale(1 1) rotate(0) translate(4 281)">
<title>/home/travis/build/AliceO2Group/AliceO2/Framework/Core/include/Framework/ASoAHelpers.h</title>
<!-- Node0 -->
<g id="node1" class="node">
<title>Node0</title>
<polygon fill="#bfbfbf" stroke="#000000" points="2467.9814,-224.5 2467.9814,-276.5 2616.9814,-276.5 2616.9814,-224.5 2467.9814,-224.5"/>
<text text-anchor="start" x="2475.9814" y="-264.5" font-family="Helvetica,sans-Serif" font-size="10.00" fill="#000000">/home/travis/build</text>
<text text-anchor="start" x="2475.9814" y="-253.5" font-family="Helvetica,sans-Serif" font-size="10.00" fill="#000000">/AliceO2Group/AliceO2</text>
<text text-anchor="start" x="2475.9814" y="-242.5" font-family="Helvetica,sans-Serif" font-size="10.00" fill="#000000">/Framework/Core/include</text>
<text text-anchor="middle" x="2542.4814" y="-231.5" font-family="Helvetica,sans-Serif" font-size="10.00" fill="#000000">/Framework/ASoAHelpers.h</text>
</g>
<!-- Node1 -->
<g id="node2" class="node">
<title>Node1</title>
<g id="a_node2"><a xlink:href="../../de/d33/ASoA_8h.html" target="_top" xlink:title="Framework/ASoA.h">
<polygon fill="none" stroke="#000000" points="1887.4814,-168.5 1887.4814,-187.5 1995.4814,-187.5 1995.4814,-168.5 1887.4814,-168.5"/>
<text text-anchor="middle" x="1941.4814" y="-175.5" font-family="Helvetica,sans-Serif" font-size="10.00" fill="#000000">Framework/ASoA.h</text>
</a>
</g>
</g>
<!-- Node0&#45;&gt;Node1 -->
<g id="edge1" class="edge">
<title>Node0&#45;&gt;Node1</title>
<path fill="none" stroke="#191970" d="M2467.8821,-241.5009C2348.8398,-227.1406 2117.9362,-199.2861 2005.756,-185.7536"/>
<polygon fill="#191970" stroke="#191970" points="2005.951,-182.2518 1995.6038,-184.5289 2005.1126,-189.2014 2005.951,-182.2518"/>
</g>
<!-- Node4 -->
<g id="node5" class="node">
<title>Node4</title>
<polygon fill="none" stroke="#bfbfbf" points="924.9814,-.5 924.9814,-19.5 969.9814,-19.5 969.9814,-.5 924.9814,-.5"/>
<text text-anchor="middle" x="947.4814" y="-7.5" font-family="Helvetica,sans-Serif" font-size="10.00" fill="#000000">utility</text>
</g>
<!-- Node0&#45;&gt;Node4 -->
<g id="edge51" class="edge">
<title>Node0&#45;&gt;Node4</title>
<path fill="none" stroke="#191970" d="M2467.7803,-248.3771C2056.6468,-236.3206 85.1395,-173.534 4.4814,-76 -1.1834,-69.15 -1.649,-62.4367 4.4814,-56 36.493,-22.3888 750.3292,-12.2419 914.1731,-10.3519"/>
<polygon fill="#191970" stroke="#191970" points="914.6212,-13.8472 924.581,-10.2345 914.5422,-6.8476 914.6212,-13.8472"/>
</g>
<!-- Node18 -->
<g id="node19" class="node">
<title>Node18</title>
<polygon fill="none" stroke="#bfbfbf" points="2395.9814,-56.5 2395.9814,-75.5 2476.9814,-75.5 2476.9814,-56.5 2395.9814,-56.5"/>
<text text-anchor="middle" x="2436.4814" y="-63.5" font-family="Helvetica,sans-Serif" font-size="10.00" fill="#000000">arrow/table.h</text>
</g>
<!-- Node0&#45;&gt;Node18 -->
<g id="edge46" class="edge">
<title>Node0&#45;&gt;Node18</title>
<path fill="none" stroke="#191970" d="M2603.5321,-224.4196C2657.2742,-197.8152 2721.8861,-154.5135 2686.4814,-112 2661.6512,-82.1843 2552.979,-71.6252 2487.3597,-67.9359"/>
<polygon fill="#191970" stroke="#191970" points="2487.3878,-64.4327 2477.2173,-67.4009 2487.019,-71.4229 2487.3878,-64.4327"/>
</g>
<!-- Node25 -->
<g id="node26" class="node">
<title>Node25</title>
<g id="a_node26"><a xlink:href="../../d0/d92/Kernels_8h.html" target="_top" xlink:title="Framework/Kernels.h">
<polygon fill="none" stroke="#000000" points="440.9814,-112.5 440.9814,-131.5 559.9814,-131.5 559.9814,-112.5 440.9814,-112.5"/>
<text text-anchor="middle" x="500.4814" y="-119.5" font-family="Helvetica,sans-Serif" font-size="10.00" fill="#000000">Framework/Kernels.h</text>
</a>
</g>
</g>
<!-- Node0&#45;&gt;Node25 -->
<g id="edge45" class="edge">
<title>Node0&#45;&gt;Node25</title>
<path fill="none" stroke="#191970" d="M2467.6885,-245.7934C2146.0808,-225.5551 882.9722,-146.0696 570.622,-126.4138"/>
<polygon fill="#191970" stroke="#191970" points="570.5497,-122.9025 560.3496,-125.7674 570.1101,-129.8886 570.5497,-122.9025"/>
</g>
<!-- Node30 -->
<g id="node31" class="node">
<title>Node30</title>
<g id="a_node31"><a xlink:href="../../d1/dc1/ArrowCompatibility_8h.html" target="_top" xlink:title="Framework/ArrowCompatibility.h">
<polygon fill="none" stroke="#000000" points="2344.4814,-112.5 2344.4814,-131.5 2520.4814,-131.5 2520.4814,-112.5 2344.4814,-112.5"/>
<text text-anchor="middle" x="2432.4814" y="-119.5" font-family="Helvetica,sans-Serif" font-size="10.00" fill="#000000">Framework/ArrowCompatibility.h</text>
</a>
</g>
</g>
<!-- Node0&#45;&gt;Node30 -->
<g id="edge47" class="edge">
<title>Node0&#45;&gt;Node30</title>
<path fill="none" stroke="#191970" d="M2520.2212,-224.4961C2498.4961,-199.1172 2466.0556,-161.2208 2447.3099,-139.3224"/>
<polygon fill="#191970" stroke="#191970" points="2449.7877,-136.8348 2440.6258,-131.5142 2444.47,-141.387 2449.7877,-136.8348"/>
</g>
<!-- Node32 -->
<g id="node33" class="node">
<title>Node32</title>
<polygon fill="none" stroke="#bfbfbf" points="2538.9814,-112.5 2538.9814,-131.5 2677.9814,-131.5 2677.9814,-112.5 2538.9814,-112.5"/>
<text text-anchor="middle" x="2608.4814" y="-119.5" font-family="Helvetica,sans-Serif" font-size="10.00" fill="#000000">arrow/compute/context.h</text>
</g>
<!-- Node0&#45;&gt;Node32 -->
<g id="edge48" class="edge">
<title>Node0&#45;&gt;Node32</title>
<path fill="none" stroke="#191970" d="M2555.8375,-224.4961C2568.6418,-199.5664 2587.6498,-162.5584 2598.9794,-140.5"/>
<polygon fill="#191970" stroke="#191970" points="2602.1392,-142.0086 2603.5947,-131.5142 2595.9125,-138.8104 2602.1392,-142.0086"/>
</g>
<!-- Node34 -->
<g id="node35" class="node">
<title>Node34</title>
<polygon fill="none" stroke="#bfbfbf" points="2734.9814,-168.5 2734.9814,-187.5 2787.9814,-187.5 2787.9814,-168.5 2734.9814,-168.5"/>
<text text-anchor="middle" x="2761.4814" y="-175.5" font-family="Helvetica,sans-Serif" font-size="10.00" fill="#000000">iterator</text>
</g>
<!-- Node0&#45;&gt;Node34 -->
<g id="edge49" class="edge">
<title>Node0&#45;&gt;Node34</title>
<path fill="none" stroke="#191970" d="M2617.2362,-225.7524C2653.5926,-213.7166 2695.6499,-199.7935 2724.9349,-190.0987"/>
<polygon fill="#191970" stroke="#191970" points="2726.3371,-193.3214 2734.7304,-186.8559 2724.1371,-186.6761 2726.3371,-193.3214"/>
</g>
<!-- Node35 -->
<g id="node36" class="node">
<title>Node35</title>
<polygon fill="none" stroke="#bfbfbf" points="2805.9814,-168.5 2805.9814,-187.5 2846.9814,-187.5 2846.9814,-168.5 2805.9814,-168.5"/>
<text text-anchor="middle" x="2826.4814" y="-175.5" font-family="Helvetica,sans-Serif" font-size="10.00" fill="#000000">tuple</text>
</g>
<!-- Node0&#45;&gt;Node35 -->
<g id="edge50" class="edge">
<title>Node0&#45;&gt;Node35</title>
<path fill="none" stroke="#191970" d="M2617.0881,-233.8089C2665.5407,-222.5811 2730.2063,-206.8714 2796.1552,-187.924"/>
<polygon fill="#191970" stroke="#191970" points="2797.2605,-191.2478 2805.8929,-185.1052 2795.314,-184.5239 2797.2605,-191.2478"/>
</g>
<!-- Node2 -->
<g id="node3" class="node">
<title>Node2</title>
<g id="a_node3"><a xlink:href="../../dd/dce/Pack_8h.html" target="_top" xlink:title="Framework/Pack.h">
<polygon fill="none" stroke="#000000" points="1919.9814,-56.5 1919.9814,-75.5 2024.9814,-75.5 2024.9814,-56.5 1919.9814,-56.5"/>
<text text-anchor="middle" x="1972.4814" y="-63.5" font-family="Helvetica,sans-Serif" font-size="10.00" fill="#000000">Framework/Pack.h</text>
</a>
</g>
</g>
<!-- Node1&#45;&gt;Node2 -->
<g id="edge2" class="edge">
<title>Node1&#45;&gt;Node2</title>
<path fill="none" stroke="#191970" d="M1887.302,-174.6936C1827.1617,-168.9462 1742.6155,-153.4242 1775.4814,-112 1784.0097,-101.2509 1855.5361,-86.4837 1909.9692,-76.6097"/>
<polygon fill="#191970" stroke="#191970" points="1910.6905,-80.0362 1919.9151,-74.825 1909.4541,-73.1463 1910.6905,-80.0362"/>
</g>
<!-- Node6 -->
<g id="node7" class="node">
<title>Node6</title>
<g id="a_node7"><a xlink:href="../../d1/d00/CheckTypes_8h.html" target="_top" xlink:title="Framework/CheckTypes.h">
<polygon fill="none" stroke="#000000" points="1761.4814,-56.5 1761.4814,-75.5 1901.4814,-75.5 1901.4814,-56.5 1761.4814,-56.5"/>
<text text-anchor="middle" x="1831.4814" y="-63.5" font-family="Helvetica,sans-Serif" font-size="10.00" fill="#000000">Framework/CheckTypes.h</text>
</a>
</g>
</g>
<!-- Node1&#45;&gt;Node6 -->
<g id="edge6" class="edge">
<title>Node1&#45;&gt;Node6</title>
<path fill="none" stroke="#191970" d="M1887.1481,-171.1905C1840.8482,-164.1398 1779.4856,-151.402 1764.4814,-132 1749.336,-112.4154 1775.6368,-92.8766 1799.5998,-80.2001"/>
<polygon fill="#191970" stroke="#191970" points="1801.2121,-83.307 1808.5782,-75.6919 1798.0709,-77.0514 1801.2121,-83.307"/>
</g>
<!-- Node7 -->
<g id="node8" class="node">
<title>Node7</title>
<g id="a_node8"><a xlink:href="../../de/d9b/FunctionalHelpers_8h.html" target="_top" xlink:title="Framework/FunctionalHelpers.h">
<polygon fill="none" stroke="#000000" points="1784.4814,-112.5 1784.4814,-131.5 1954.4814,-131.5 1954.4814,-112.5 1784.4814,-112.5"/>
<text text-anchor="middle" x="1869.4814" y="-119.5" font-family="Helvetica,sans-Serif" font-size="10.00" fill="#000000">Framework/FunctionalHelpers.h</text>
</a>
</g>
</g>
<!-- Node1&#45;&gt;Node7 -->
<g id="edge7" class="edge">
<title>Node1&#45;&gt;Node7</title>
<path fill="none" stroke="#191970" d="M1928.9399,-168.2455C1918.2026,-159.8943 1902.534,-147.7076 1889.9767,-137.9408"/>
<polygon fill="#191970" stroke="#191970" points="1891.9214,-135.0194 1881.8791,-131.6427 1887.6238,-140.5449 1891.9214,-135.0194"/>
</g>
<!-- Node9 -->
<g id="node10" class="node">
<title>Node9</title>
<g id="a_node10"><a xlink:href="../../d9/de8/CompilerBuiltins_8h.html" target="_top" xlink:title="Framework/CompilerBuiltins.h">
<polygon fill="none" stroke="#000000" points="2126.4814,-56.5 2126.4814,-75.5 2290.4814,-75.5 2290.4814,-56.5 2126.4814,-56.5"/>
<text text-anchor="middle" x="2208.4814" y="-63.5" font-family="Helvetica,sans-Serif" font-size="10.00" fill="#000000">Framework/CompilerBuiltins.h</text>
</a>
</g>
</g>
<!-- Node1&#45;&gt;Node9 -->
<g id="edge10" class="edge">
<title>Node1&#45;&gt;Node9</title>
<path fill="none" stroke="#191970" d="M1995.8523,-171.7569C2035.1929,-165.627 2088.7321,-153.8811 2131.4814,-132 2155.5492,-119.6809 2178.4492,-98.3927 2192.9222,-83.3284"/>
<polygon fill="#191970" stroke="#191970" points="2195.7824,-85.3937 2200.0496,-75.6962 2190.6663,-80.616 2195.7824,-85.3937"/>
</g>
<!-- Node10 -->
<g id="node11" class="node">
<title>Node10</title>
<g id="a_node11"><a xlink:href="../../db/d31/Traits_8h.html" target="_top" xlink:title="Framework/Traits.h">
<polygon fill="none" stroke="#000000" points="2178.9814,-112.5 2178.9814,-131.5 2287.9814,-131.5 2287.9814,-112.5 2178.9814,-112.5"/>
<text text-anchor="middle" x="2233.4814" y="-119.5" font-family="Helvetica,sans-Serif" font-size="10.00" fill="#000000">Framework/Traits.h</text>
</a>
</g>
</g>
<!-- Node1&#45;&gt;Node10 -->
<g id="edge11" class="edge">
<title>Node1&#45;&gt;Node10</title>
<path fill="none" stroke="#191970" d="M1991.3462,-168.4369C2041.8447,-158.7522 2119.9649,-143.7703 2173.7419,-133.4569"/>
<polygon fill="#191970" stroke="#191970" points="2174.6605,-136.8446 2183.8222,-131.5237 2173.342,-129.9699 2174.6605,-136.8446"/>
</g>
<!-- Node12 -->
<g id="node13" class="node">
<title>Node12</title>
<g id="a_node13"><a xlink:href="../../d0/d91/Expressions_8h.html" target="_top" xlink:title="Framework/Expressions.h">
<polygon fill="none" stroke="#000000" points="1321.9814,-112.5 1321.9814,-131.5 1462.9814,-131.5 1462.9814,-112.5 1321.9814,-112.5"/>
<text text-anchor="middle" x="1392.4814" y="-119.5" font-family="Helvetica,sans-Serif" font-size="10.00" fill="#000000">Framework/Expressions.h</text>
</a>
</g>
</g>
<!-- Node1&#45;&gt;Node12 -->
<g id="edge13" class="edge">
<title>Node1&#45;&gt;Node12</title>
<path fill="none" stroke="#191970" d="M1887.3387,-172.4772C1790.4426,-162.5935 1586.9261,-141.8341 1473.3933,-130.2533"/>
<polygon fill="#191970" stroke="#191970" points="1473.6686,-126.7633 1463.365,-129.2304 1472.9582,-133.7272 1473.6686,-126.7633"/>
</g>
<!-- Node1&#45;&gt;Node18 -->
<g id="edge38" class="edge">
<title>Node1&#45;&gt;Node18</title>
<path fill="none" stroke="#191970" d="M1995.5865,-173.2851C2080.6391,-165.4872 2241.5858,-149.0627 2296.4814,-132 2315.0832,-126.2182 2317.9462,-120.4837 2335.4814,-112 2358.7337,-100.7503 2385.3309,-88.6679 2405.3929,-79.7102"/>
<polygon fill="#191970" stroke="#191970" points="2406.9595,-82.844 2414.6732,-75.5811 2404.1139,-76.4485 2406.9595,-82.844"/>
</g>
<!-- Node19 -->
<g id="node20" class="node">
<title>Node19</title>
<polygon fill="none" stroke="#bfbfbf" points="1595.9814,-56.5 1595.9814,-75.5 1742.9814,-75.5 1742.9814,-56.5 1595.9814,-56.5"/>
<text text-anchor="middle" x="1669.4814" y="-63.5" font-family="Helvetica,sans-Serif" font-size="10.00" fill="#000000">gandiva/selection_vector.h</text>
</g>
<!-- Node1&#45;&gt;Node19 -->
<g id="edge43" class="edge">
<title>Node1&#45;&gt;Node19</title>
<path fill="none" stroke="#191970" d="M1887.2877,-170.4736C1849.3194,-163.7987 1798.1271,-151.9301 1756.4814,-132 1729.9772,-119.3161 1703.6776,-97.7998 1687.0491,-82.7945"/>
<polygon fill="#191970" stroke="#191970" points="1689.0056,-79.837 1679.2852,-75.6224 1684.2557,-84.9789 1689.0056,-79.837"/>
</g>
<!-- Node1&#45;&gt;Node25 -->
<g id="edge29" class="edge">
<title>Node1&#45;&gt;Node25</title>
<path fill="none" stroke="#191970" d="M1887.188,-175.8901C1664.2577,-167.2266 819.2692,-134.3887 570.0617,-124.704"/>
<polygon fill="#191970" stroke="#191970" points="570.1737,-121.2058 560.0453,-124.3148 569.9018,-128.2005 570.1737,-121.2058"/>
</g>
<!-- Node26 -->
<g id="node27" class="node">
<title>Node26</title>
<polygon fill="none" stroke="#bfbfbf" points="379.9814,-56.5 379.9814,-75.5 512.9814,-75.5 512.9814,-56.5 379.9814,-56.5"/>
<text text-anchor="middle" x="446.4814" y="-63.5" font-family="Helvetica,sans-Serif" font-size="10.00" fill="#000000">arrow/compute/kernel.h</text>
</g>
<!-- Node1&#45;&gt;Node26 -->
<g id="edge42" class="edge">
<title>Node1&#45;&gt;Node26</title>
<path fill="none" stroke="#191970" d="M1887.2511,-175.2587C1699.7488,-165.5358 1061.4187,-130.3971 523.4804,-76.0471"/>
<polygon fill="#191970" stroke="#191970" points="523.4855,-72.5298 513.1835,-75.0032 522.7794,-79.4941 523.4855,-72.5298"/>
</g>
<!-- Node29 -->
<g id="node30" class="node">
<title>Node29</title>
<polygon fill="none" stroke="#bfbfbf" points="13.4814,-56.5 13.4814,-75.5 123.4814,-75.5 123.4814,-56.5 13.4814,-56.5"/>
<text text-anchor="middle" x="68.4814" y="-63.5" font-family="Helvetica,sans-Serif" font-size="10.00" fill="#000000">arrow/util/variant.h</text>
</g>
<!-- Node1&#45;&gt;Node29 -->
<g id="edge40" class="edge">
<title>Node1&#45;&gt;Node29</title>
<path fill="none" stroke="#191970" d="M1887.1736,-177.4341C1652.2531,-174.8183 722.302,-162.6941 431.4814,-132 319.16,-120.1452 189.3539,-93.3094 119.4369,-77.7541"/>
<polygon fill="#191970" stroke="#191970" points="120.0882,-74.3133 109.565,-75.544 118.5588,-81.1442 120.0882,-74.3133"/>
</g>
<!-- Node1&#45;&gt;Node30 -->
<g id="edge36" class="edge">
<title>Node1&#45;&gt;Node30</title>
<path fill="none" stroke="#191970" d="M1995.903,-171.7931C2078.7844,-162.3402 2237.7056,-144.2147 2339.2305,-132.6355"/>
<polygon fill="#191970" stroke="#191970" points="2339.6379,-136.1119 2349.1769,-131.5011 2338.8447,-129.1569 2339.6379,-136.1119"/>
</g>
<!-- Node31 -->
<g id="node32" class="node">
<title>Node31</title>
<polygon fill="none" stroke="#bfbfbf" points="1972.4814,-112.5 1972.4814,-131.5 2052.4814,-131.5 2052.4814,-112.5 1972.4814,-112.5"/>
<text text-anchor="middle" x="2012.4814" y="-119.5" font-family="Helvetica,sans-Serif" font-size="10.00" fill="#000000">arrow/array.h</text>
</g>
<!-- Node1&#45;&gt;Node31 -->
<g id="edge39" class="edge">
<title>Node1&#45;&gt;Node31</title>
<path fill="none" stroke="#191970" d="M1953.8486,-168.2455C1964.4368,-159.8943 1979.8878,-147.7076 1992.2707,-137.9408"/>
<polygon fill="#191970" stroke="#191970" points="1994.5717,-140.5837 2000.2558,-131.6427 1990.2367,-135.0875 1994.5717,-140.5837"/>
</g>
<!-- Node1&#45;&gt;Node32 -->
<g id="edge41" class="edge">
<title>Node1&#45;&gt;Node32</title>
<path fill="none" stroke="#191970" d="M1995.8738,-174.6177C2098.005,-168.0765 2325.6722,-152.5943 2528.4666,-132.0593"/>
<polygon fill="#191970" stroke="#191970" points="2529.1216,-135.5107 2538.7152,-131.0149 2528.4119,-128.5468 2529.1216,-135.5107"/>
</g>
<!-- Node33 -->
<g id="node34" class="node">
<title>Node33</title>
<polygon fill="none" stroke="#bfbfbf" points="2070.4814,-112.5 2070.4814,-131.5 2122.4814,-131.5 2122.4814,-112.5 2070.4814,-112.5"/>
<text text-anchor="middle" x="2096.4814" y="-119.5" font-family="Helvetica,sans-Serif" font-size="10.00" fill="#000000">cassert</text>
</g>
<!-- Node1&#45;&gt;Node33 -->
<g id="edge44" class="edge">
<title>Node1&#45;&gt;Node33</title>
<path fill="none" stroke="#191970" d="M1968.1268,-168.3733C1993.7552,-159.114 2032.6676,-145.0553 2060.9287,-134.8448"/>
<polygon fill="#191970" stroke="#191970" points="2062.2259,-138.0977 2070.4416,-131.4079 2059.8473,-131.5142 2062.2259,-138.0977"/>
</g>
<!-- Node3 -->
<g id="node4" class="node">
<title>Node3</title>
<polygon fill="none" stroke="#bfbfbf" points="1979.9814,-.5 1979.9814,-19.5 2032.9814,-19.5 2032.9814,-.5 1979.9814,-.5"/>
<text text-anchor="middle" x="2006.4814" y="-7.5" font-family="Helvetica,sans-Serif" font-size="10.00" fill="#000000">cstddef</text>
</g>
<!-- Node2&#45;&gt;Node3 -->
<g id="edge3" class="edge">
<title>Node2&#45;&gt;Node3</title>
<path fill="none" stroke="#191970" d="M1978.4037,-56.2455C1983.0841,-48.5367 1989.7486,-37.5598 1995.4102,-28.2348"/>
<polygon fill="#191970" stroke="#191970" points="1998.4288,-30.007 2000.6269,-19.6427 1992.4453,-26.3741 1998.4288,-30.007"/>
</g>
<!-- Node2&#45;&gt;Node4 -->
<g id="edge4" class="edge">
<title>Node2&#45;&gt;Node4</title>
<path fill="none" stroke="#191970" d="M1919.7698,-57.0856C1916.6317,-56.6832 1913.5178,-56.3164 1910.4814,-56 1547.2863,-18.1562 1103.7388,-11.4061 980.5672,-10.2375"/>
<polygon fill="#191970" stroke="#191970" points="980.3321,-6.7353 970.3013,-10.1462 980.2698,-13.7351 980.3321,-6.7353"/>
</g>
<!-- Node5 -->
<g id="node6" class="node">
<title>Node5</title>
<polygon fill="none" stroke="#bfbfbf" points="1915.4814,-.5 1915.4814,-19.5 1961.4814,-19.5 1961.4814,-.5 1915.4814,-.5"/>
<text text-anchor="middle" x="1938.4814" y="-7.5" font-family="Helvetica,sans-Serif" font-size="10.00" fill="#000000">cstdio</text>
</g>
<!-- Node2&#45;&gt;Node5 -->
<g id="edge5" class="edge">
<title>Node2&#45;&gt;Node5</title>
<path fill="none" stroke="#191970" d="M1966.559,-56.2455C1961.8787,-48.5367 1955.2141,-37.5598 1949.5525,-28.2348"/>
<polygon fill="#191970" stroke="#191970" points="1952.5174,-26.3741 1944.3359,-19.6427 1946.5339,-30.007 1952.5174,-26.3741"/>
</g>
<!-- Node7&#45;&gt;Node2 -->
<g id="edge8" class="edge">
<title>Node7&#45;&gt;Node2</title>
<path fill="none" stroke="#191970" d="M1887.4226,-112.2455C1903.5214,-103.4928 1927.3693,-90.527 1945.7205,-80.5496"/>
<polygon fill="#191970" stroke="#191970" points="1947.6321,-83.4942 1954.7457,-75.6427 1944.2884,-77.3444 1947.6321,-83.4942"/>
</g>
<!-- Node8 -->
<g id="node9" class="node">
<title>Node8</title>
<polygon fill="none" stroke="#bfbfbf" points="2042.9814,-56.5 2042.9814,-75.5 2107.9814,-75.5 2107.9814,-56.5 2042.9814,-56.5"/>
<text text-anchor="middle" x="2075.4814" y="-63.5" font-family="Helvetica,sans-Serif" font-size="10.00" fill="#000000">functional</text>
</g>
<!-- Node7&#45;&gt;Node8 -->
<g id="edge9" class="edge">
<title>Node7&#45;&gt;Node8</title>
<path fill="none" stroke="#191970" d="M1904.894,-112.3733C1940.4811,-102.6991 1995.3403,-87.7859 2033.191,-77.4964"/>
<polygon fill="#191970" stroke="#191970" points="2034.1733,-80.8565 2042.9049,-74.8557 2032.3369,-74.1016 2034.1733,-80.8565"/>
</g>
<!-- Node11 -->
<g id="node12" class="node">
<title>Node11</title>
<polygon fill="none" stroke="#bfbfbf" points="2308.9814,-56.5 2308.9814,-75.5 2377.9814,-75.5 2377.9814,-56.5 2308.9814,-56.5"/>
<text text-anchor="middle" x="2343.4814" y="-63.5" font-family="Helvetica,sans-Serif" font-size="10.00" fill="#000000">type_traits</text>
</g>
<!-- Node10&#45;&gt;Node11 -->
<g id="edge12" class="edge">
<title>Node10&#45;&gt;Node11</title>
<path fill="none" stroke="#191970" d="M2252.6419,-112.2455C2269.9925,-103.4125 2295.7714,-90.2887 2315.4397,-80.2758"/>
<polygon fill="#191970" stroke="#191970" points="2317.2167,-83.2986 2324.5404,-75.6427 2314.0409,-77.0605 2317.2167,-83.2986"/>
</g>
<!-- Node12&#45;&gt;Node2 -->
<g id="edge16" class="edge">
<title>Node12&#45;&gt;Node2</title>
<path fill="none" stroke="#191970" d="M1463.0301,-117.3375C1560.8262,-110.5177 1743.3342,-96.5051 1909.3479,-76.0597"/>
<polygon fill="#191970" stroke="#191970" points="1910.2607,-79.4733 1919.7529,-74.767 1909.3976,-72.5267 1910.2607,-79.4733"/>
</g>
<!-- Node12&#45;&gt;Node6 -->
<g id="edge17" class="edge">
<title>Node12&#45;&gt;Node6</title>
<path fill="none" stroke="#191970" d="M1463.0143,-113.0026C1541.6564,-102.9708 1668.6024,-86.7773 1751.0465,-76.2605"/>
<polygon fill="#191970" stroke="#191970" points="1751.6468,-79.7124 1761.1235,-74.975 1750.7609,-72.7686 1751.6468,-79.7124"/>
</g>
<!-- Node12&#45;&gt;Node9 -->
<g id="edge15" class="edge">
<title>Node12&#45;&gt;Node9</title>
<path fill="none" stroke="#191970" d="M1463.2137,-118.5606C1591.0994,-112.1107 1869.5298,-97.0091 2116.0097,-76.0009"/>
<polygon fill="#191970" stroke="#191970" points="2116.5759,-79.4653 2126.2404,-75.1239 2115.978,-72.4909 2116.5759,-79.4653"/>
</g>
<!-- Node13 -->
<g id="node14" class="node">
<title>Node13</title>
<g id="a_node14"><a xlink:href="../../dd/dc2/BasicOps_8h.html" target="_top" xlink:title="Framework/BasicOps.h">
<polygon fill="none" stroke="#000000" points="593.4814,-56.5 593.4814,-75.5 721.4814,-75.5 721.4814,-56.5 593.4814,-56.5"/>
<text text-anchor="middle" x="657.4814" y="-63.5" font-family="Helvetica,sans-Serif" font-size="10.00" fill="#000000">Framework/BasicOps.h</text>
</a>
</g>
</g>
<!-- Node12&#45;&gt;Node13 -->
<g id="edge14" class="edge">
<title>Node12&#45;&gt;Node13</title>
<path fill="none" stroke="#191970" d="M1321.8068,-118.6414C1202.4322,-112.6267 953.0527,-98.5913 731.7307,-76.0669"/>
<polygon fill="#191970" stroke="#191970" points="731.8513,-72.561 721.5464,-75.0223 731.137,-79.5245 731.8513,-72.561"/>
</g>
<!-- Node14 -->
<g id="node15" class="node">
<title>Node14</title>
<polygon fill="none" stroke="#bfbfbf" points="1476.9814,-56.5 1476.9814,-75.5 1577.9814,-75.5 1577.9814,-56.5 1476.9814,-56.5"/>
<text text-anchor="middle" x="1527.4814" y="-63.5" font-family="Helvetica,sans-Serif" font-size="10.00" fill="#000000">arrow/type_fwd.h</text>
</g>
<!-- Node12&#45;&gt;Node14 -->
<g id="edge18" class="edge">
<title>Node12&#45;&gt;Node14</title>
<path fill="none" stroke="#191970" d="M1415.6887,-112.3733C1437.6513,-103.2629 1470.8146,-89.5062 1495.3215,-79.3404"/>
<polygon fill="#191970" stroke="#191970" points="1496.6811,-82.5657 1504.5769,-75.5011 1493.999,-76.0999 1496.6811,-82.5657"/>
</g>
<!-- Node15 -->
<g id="node16" class="node">
<title>Node15</title>
<polygon fill="none" stroke="#bfbfbf" points="739.4814,-56.5 739.4814,-75.5 885.4814,-75.5 885.4814,-56.5 739.4814,-56.5"/>
<text text-anchor="middle" x="812.4814" y="-63.5" font-family="Helvetica,sans-Serif" font-size="10.00" fill="#000000">gandiva/gandiva_aliases.h</text>
</g>
<!-- Node12&#45;&gt;Node15 -->
<g id="edge19" class="edge">
<title>Node12&#45;&gt;Node15</title>
<path fill="none" stroke="#191970" d="M1321.905,-116.1351C1227.4113,-108.1366 1054.2825,-92.9715 896.1781,-76.1573"/>
<polygon fill="#191970" stroke="#191970" points="896.102,-72.6293 885.7868,-75.0474 895.3585,-79.5897 896.102,-72.6293"/>
</g>
<!-- Node16 -->
<g id="node17" class="node">
<title>Node16</title>
<polygon fill="none" stroke="#bfbfbf" points="903.4814,-56.5 903.4814,-75.5 981.4814,-75.5 981.4814,-56.5 903.4814,-56.5"/>
<text text-anchor="middle" x="942.4814" y="-63.5" font-family="Helvetica,sans-Serif" font-size="10.00" fill="#000000">arrow/type.h</text>
</g>
<!-- Node12&#45;&gt;Node16 -->
<g id="edge20" class="edge">
<title>Node12&#45;&gt;Node16</title>
<path fill="none" stroke="#191970" d="M1321.7741,-115.8825C1243.4732,-108.6635 1113.3143,-95.3487 991.9346,-76.1157"/>
<polygon fill="#191970" stroke="#191970" points="992.1476,-72.6053 981.7199,-74.4796 991.0405,-79.5172 992.1476,-72.6053"/>
</g>
<!-- Node17 -->
<g id="node18" class="node">
<title>Node17</title>
<polygon fill="none" stroke="#bfbfbf" points="999.9814,-56.5 999.9814,-75.5 1094.9814,-75.5 1094.9814,-56.5 999.9814,-56.5"/>
<text text-anchor="middle" x="1047.4814" y="-63.5" font-family="Helvetica,sans-Serif" font-size="10.00" fill="#000000">gandiva/arrow.h</text>
</g>
<!-- Node12&#45;&gt;Node17 -->
<g id="edge21" class="edge">
<title>Node12&#45;&gt;Node17</title>
<path fill="none" stroke="#191970" d="M1331.1987,-112.4898C1275.0862,-103.7186 1189.4604,-90.1759 1105.0737,-76.0795"/>
<polygon fill="#191970" stroke="#191970" points="1105.4985,-72.602 1095.0578,-74.4027 1104.3426,-79.5059 1105.4985,-72.602"/>
</g>
<!-- Node12&#45;&gt;Node18 -->
<g id="edge22" class="edge">
<title>Node12&#45;&gt;Node18</title>
<path fill="none" stroke="#191970" d="M1463.2759,-120.1166C1656.125,-114.7679 2188.8769,-98.481 2385.9348,-75.8355"/>
<polygon fill="#191970" stroke="#191970" points="2386.3894,-79.3062 2395.9055,-74.6486 2385.5618,-72.3553 2386.3894,-79.3062"/>
</g>
<!-- Node12&#45;&gt;Node19 -->
<g id="edge23" class="edge">
<title>Node12&#45;&gt;Node19</title>
<path fill="none" stroke="#191970" d="M1439.7846,-112.4369C1487.5894,-102.7724 1561.4882,-87.8326 1612.4922,-77.5213"/>
<polygon fill="#191970" stroke="#191970" points="1613.2651,-80.9359 1622.3732,-75.5237 1611.8779,-74.0747 1613.2651,-80.9359"/>
</g>
<!-- Node20 -->
<g id="node21" class="node">
<title>Node20</title>
<polygon fill="none" stroke="#bfbfbf" points="1113.4814,-56.5 1113.4814,-75.5 1205.4814,-75.5 1205.4814,-56.5 1113.4814,-56.5"/>
<text text-anchor="middle" x="1159.4814" y="-63.5" font-family="Helvetica,sans-Serif" font-size="10.00" fill="#000000">gandiva/node.h</text>
</g>
<!-- Node12&#45;&gt;Node20 -->
<g id="edge24" class="edge">
<title>Node12&#45;&gt;Node20</title>
<path fill="none" stroke="#191970" d="M1352.692,-112.4369C1312.9834,-102.8932 1251.871,-88.2052 1209.0359,-77.9101"/>
<polygon fill="#191970" stroke="#191970" points="1209.6477,-74.4575 1199.1066,-75.5237 1208.0118,-81.2637 1209.6477,-74.4575"/>
</g>
<!-- Node21 -->
<g id="node22" class="node">
<title>Node21</title>
<polygon fill="none" stroke="#bfbfbf" points="1223.9814,-56.5 1223.9814,-75.5 1312.9814,-75.5 1312.9814,-56.5 1223.9814,-56.5"/>
<text text-anchor="middle" x="1268.4814" y="-63.5" font-family="Helvetica,sans-Serif" font-size="10.00" fill="#000000">gandiva/filter.h</text>
</g>
<!-- Node12&#45;&gt;Node21 -->
<g id="edge25" class="edge">
<title>Node12&#45;&gt;Node21</title>
<path fill="none" stroke="#191970" d="M1371.165,-112.3733C1351.2598,-103.3838 1321.3378,-89.8706 1298.9214,-79.7471"/>
<polygon fill="#191970" stroke="#191970" points="1300.0739,-76.4272 1289.5196,-75.5011 1297.1927,-82.8068 1300.0739,-76.4272"/>
</g>
<!-- Node22 -->
<g id="node23" class="node">
<title>Node22</title>
<polygon fill="none" stroke="#bfbfbf" points="1330.9814,-56.5 1330.9814,-75.5 1381.9814,-75.5 1381.9814,-56.5 1330.9814,-56.5"/>
<text text-anchor="middle" x="1356.4814" y="-63.5" font-family="Helvetica,sans-Serif" font-size="10.00" fill="#000000">variant</text>
</g>
<!-- Node12&#45;&gt;Node22 -->
<g id="edge26" class="edge">
<title>Node12&#45;&gt;Node22</title>
<path fill="none" stroke="#191970" d="M1386.2107,-112.2455C1381.255,-104.5367 1374.1984,-93.5598 1368.2038,-84.2348"/>
<polygon fill="#191970" stroke="#191970" points="1371.032,-82.1618 1362.6802,-75.6427 1365.1437,-85.9471 1371.032,-82.1618"/>
</g>
<!-- Node23 -->
<g id="node24" class="node">
<title>Node23</title>
<polygon fill="none" stroke="#bfbfbf" points="531.4814,-56.5 531.4814,-75.5 575.4814,-75.5 575.4814,-56.5 531.4814,-56.5"/>
<text text-anchor="middle" x="553.4814" y="-63.5" font-family="Helvetica,sans-Serif" font-size="10.00" fill="#000000">string</text>
</g>
<!-- Node12&#45;&gt;Node23 -->
<g id="edge27" class="edge">
<title>Node12&#45;&gt;Node23</title>
<path fill="none" stroke="#191970" d="M1321.8923,-120.2897C1155.821,-115.9019 743.1728,-102.7853 585.6578,-75.7063"/>
<polygon fill="#191970" stroke="#191970" points="586.1194,-72.2331 575.6569,-73.9024 584.8768,-79.1219 586.1194,-72.2331"/>
</g>
<!-- Node24 -->
<g id="node25" class="node">
<title>Node24</title>
<polygon fill="none" stroke="#bfbfbf" points="1400.4814,-56.5 1400.4814,-75.5 1458.4814,-75.5 1458.4814,-56.5 1400.4814,-56.5"/>
<text text-anchor="middle" x="1429.4814" y="-63.5" font-family="Helvetica,sans-Serif" font-size="10.00" fill="#000000">memory</text>
</g>
<!-- Node12&#45;&gt;Node24 -->
<g id="edge28" class="edge">
<title>Node12&#45;&gt;Node24</title>
<path fill="none" stroke="#191970" d="M1398.9263,-112.2455C1404.0196,-104.5367 1411.2722,-93.5598 1417.4334,-84.2348"/>
<polygon fill="#191970" stroke="#191970" points="1420.5179,-85.9155 1423.1103,-75.6427 1414.6775,-82.0566 1420.5179,-85.9155"/>
</g>
<!-- Node25&#45;&gt;Node13 -->
<g id="edge30" class="edge">
<title>Node25&#45;&gt;Node13</title>
<path fill="none" stroke="#191970" d="M527.4706,-112.3733C553.3513,-103.1419 592.6062,-89.1402 621.2103,-78.9375"/>
<polygon fill="#191970" stroke="#191970" points="622.6014,-82.1573 630.8443,-75.5011 620.2496,-75.5642 622.6014,-82.1573"/>
</g>
<!-- Node25&#45;&gt;Node23 -->
<g id="edge35" class="edge">
<title>Node25&#45;&gt;Node23</title>
<path fill="none" stroke="#191970" d="M509.7133,-112.2455C517.3131,-104.2155 528.2691,-92.6394 537.3181,-83.0781"/>
<polygon fill="#191970" stroke="#191970" points="540.0234,-85.3115 544.3553,-75.6427 534.9394,-80.4998 540.0234,-85.3115"/>
</g>
<!-- Node25&#45;&gt;Node26 -->
<g id="edge31" class="edge">
<title>Node25&#45;&gt;Node26</title>
<path fill="none" stroke="#191970" d="M491.0753,-112.2455C483.3321,-104.2155 472.1694,-92.6394 462.9496,-83.0781"/>
<polygon fill="#191970" stroke="#191970" points="465.2405,-80.4117 455.7797,-75.6427 460.2016,-85.2706 465.2405,-80.4117"/>
</g>
<!-- Node27 -->
<g id="node28" class="node">
<title>Node27</title>
<polygon fill="none" stroke="#bfbfbf" points="275.4814,-56.5 275.4814,-75.5 361.4814,-75.5 361.4814,-56.5 275.4814,-56.5"/>
<text text-anchor="middle" x="318.4814" y="-63.5" font-family="Helvetica,sans-Serif" font-size="10.00" fill="#000000">arrow/status.h</text>
</g>
<!-- Node25&#45;&gt;Node27 -->
<g id="edge32" class="edge">
<title>Node25&#45;&gt;Node27</title>
<path fill="none" stroke="#191970" d="M469.1945,-112.3733C438.7996,-103.021 392.4921,-88.7725 359.2314,-78.5385"/>
<polygon fill="#191970" stroke="#191970" points="359.9471,-75.0968 349.36,-75.5011 357.8885,-81.7873 359.9471,-75.0968"/>
</g>
<!-- Node28 -->
<g id="node29" class="node">
<title>Node28</title>
<polygon fill="none" stroke="#bfbfbf" points="141.4814,-56.5 141.4814,-75.5 257.4814,-75.5 257.4814,-56.5 141.4814,-56.5"/>
<text text-anchor="middle" x="199.4814" y="-63.5" font-family="Helvetica,sans-Serif" font-size="10.00" fill="#000000">arrow/util/visibility.h</text>
</g>
<!-- Node25&#45;&gt;Node28 -->
<g id="edge33" class="edge">
<title>Node25&#45;&gt;Node28</title>
<path fill="none" stroke="#191970" d="M449.0796,-112.4369C396.9165,-102.7321 316.1617,-87.708 260.7168,-77.3926"/>
<polygon fill="#191970" stroke="#191970" points="261.1426,-73.9119 250.6711,-75.5237 259.8622,-80.7938 261.1426,-73.9119"/>
</g>
<!-- Node25&#45;&gt;Node29 -->
<g id="edge34" class="edge">
<title>Node25&#45;&gt;Node29</title>
<path fill="none" stroke="#191970" d="M440.8119,-115.111C370.0224,-106.8104 248.1771,-92.1228 133.62,-76.1275"/>
<polygon fill="#191970" stroke="#191970" points="134.0126,-72.6484 123.6234,-74.7257 133.0405,-79.5806 134.0126,-72.6484"/>
</g>
<!-- Node30&#45;&gt;Node18 -->
<g id="edge37" class="edge">
<title>Node30&#45;&gt;Node18</title>
<path fill="none" stroke="#191970" d="M2433.1781,-112.2455C2433.7001,-104.9382 2434.4318,-94.6944 2435.0739,-85.7046"/>
<polygon fill="#191970" stroke="#191970" points="2438.5712,-85.8667 2435.7926,-75.6427 2431.5889,-85.3679 2438.5712,-85.8667"/>
</g>
</g>
</svg>
