<?xml version="1.0" encoding="UTF-8" standalone="no"?>
<!DOCTYPE svg PUBLIC "-//W3C//DTD SVG 1.1//EN"
 "http://www.w3.org/Graphics/SVG/1.1/DTD/svg11.dtd">
<!-- Generated by graphviz version 2.40.1 (20161225.0304)
 -->
<!-- Title: /home/travis/build/AliceO2Group/AliceO2/Framework/Core/include/Framework/ASoA.h Pages: 1 -->
<!--zoomable 229 -->
<svg id="main" version="1.1" xmlns="http://www.w3.org/2000/svg" xmlns:xlink="http://www.w3.org/1999/xlink" xml:space="preserve" onload="init(evt)">
<style type="text/css"><![CDATA[
.edge:hover path { stroke: red; }
.edge:hover polygon { stroke: red; fill: red; }
]]></style>
<script type="text/javascript"><![CDATA[
var edges = document.getElementsByTagName('g');
if (edges && edges.length) {
  for (var i=0;i<edges.length;i++) {
    if (edges[i].id.substr(0,4)=='edge') {
      edges[i].setAttribute('class','edge');
    }
  }
}
]]></script>
        <defs>
                <circle id="rim" cx="0" cy="0" r="7"/>
                <circle id="rim2" cx="0" cy="0" r="3.5"/>
                <g id="zoomPlus">
                        <use xlink:href="#rim" fill="#404040">
                                <set attributeName="fill" to="#808080" begin="zoomplus.mouseover" end="zoomplus.mouseout"/>
                        </use>
                        <path d="M-4,0h8M0,-4v8" fill="none" stroke="white" stroke-width="1.5" pointer-events="none"/>
                </g>
                <g id="zoomMin">
                        <use xlink:href="#rim" fill="#404040">
                                <set attributeName="fill" to="#808080" begin="zoomminus.mouseover" end="zoomminus.mouseout"/>
                        </use>
                        <path d="M-4,0h8" fill="none" stroke="white" stroke-width="1.5" pointer-events="none"/>
                </g>
                <g id="dirArrow">
                        <path fill="none" stroke="white" stroke-width="1.5" d="M0,-3.0v7 M-2.5,-0.5L0,-3.0L2.5,-0.5"/>
                </g>
               <g id="resetDef">
                       <use xlink:href="#rim2" fill="#404040">
                               <set attributeName="fill" to="#808080" begin="reset.mouseover" end="reset.mouseout"/>
                       </use>
               </g>
        </defs>

<script type="text/javascript">
var viewWidth = 2471;
var viewHeight = 229;
var sectionId = 'dynsection-0';
</script>
<script xlink:href="../../svgpan.js"/>
<svg id="graph" class="graph">
<g id="viewport">
<title>/home/travis/build/AliceO2Group/AliceO2/Framework/Core/include/Framework/ASoA.h</title>
<!-- Node0 -->
<g id="node1" class="node">
<title>Node0</title>
<polygon fill="#bfbfbf" stroke="#000000" points="1570,-168.5 1570,-220.5 1707,-220.5 1707,-168.5 1570,-168.5"/>
<text text-anchor="start" x="1578" y="-208.5" font-family="Helvetica,sans-Serif" font-size="10.00" fill="#000000">/home/travis/build</text>
<text text-anchor="start" x="1578" y="-197.5" font-family="Helvetica,sans-Serif" font-size="10.00" fill="#000000">/AliceO2Group/AliceO2</text>
<text text-anchor="start" x="1578" y="-186.5" font-family="Helvetica,sans-Serif" font-size="10.00" fill="#000000">/Framework/Core/include</text>
<text text-anchor="middle" x="1638.5" y="-175.5" font-family="Helvetica,sans-Serif" font-size="10.00" fill="#000000">/Framework/ASoA.h</text>
</g>
<!-- Node1 -->
<g id="node2" class="node">
<title>Node1</title>
<g id="a_node2"><a xlink:href="../../dd/dce/Pack_8h.html" target="_top" xlink:title="Framework/Pack.h">
<polygon fill="none" stroke="#000000" points="83,-56.5 83,-75.5 188,-75.5 188,-56.5 83,-56.5"/>
<text text-anchor="middle" x="135.5" y="-63.5" font-family="Helvetica,sans-Serif" font-size="10.00" fill="#000000">Framework/Pack.h</text>
</a>
</g>
</g>
<!-- Node0&#45;&gt;Node1 -->
<g id="edge1" class="edge">
<title>Node0&#45;&gt;Node1</title>
<path fill="none" stroke="#191970" d="M1569.9501,-191.7081C1407.8925,-184.7812 988.5428,-164.9466 639.5,-132 445.2026,-113.66 394.5671,-104.7983 198.1283,-76.2062"/>
<polygon fill="#191970" stroke="#191970" points="198.4531,-72.7167 188.0535,-74.7411 197.4457,-79.6438 198.4531,-72.7167"/>
</g>
<!-- Node5 -->
<g id="node6" class="node">
<title>Node5</title>
<g id="a_node6"><a xlink:href="../../d1/d00/CheckTypes_8h.html" target="_top" xlink:title="Framework/CheckTypes.h">
<polygon fill="none" stroke="#000000" points="293.5,-56.5 293.5,-75.5 433.5,-75.5 433.5,-56.5 293.5,-56.5"/>
<text text-anchor="middle" x="363.5" y="-63.5" font-family="Helvetica,sans-Serif" font-size="10.00" fill="#000000">Framework/CheckTypes.h</text>
</a>
</g>
</g>
<!-- Node0&#45;&gt;Node5 -->
<g id="edge5" class="edge">
<title>Node0&#45;&gt;Node5</title>
<path fill="none" stroke="#191970" d="M1569.984,-188.5205C1388.2276,-172.4845 878.5551,-126.3872 443.6389,-76.1143"/>
<polygon fill="#191970" stroke="#191970" points="444.0383,-72.6372 433.702,-74.9634 443.2329,-79.5908 444.0383,-72.6372"/>
</g>
<!-- Node6 -->
<g id="node7" class="node">
<title>Node6</title>
<g id="a_node7"><a xlink:href="../../de/d9b/FunctionalHelpers_8h.html" target="_top" xlink:title="Framework/FunctionalHelpers.h">
<polygon fill="none" stroke="#000000" points="50.5,-112.5 50.5,-131.5 220.5,-131.5 220.5,-112.5 50.5,-112.5"/>
<text text-anchor="middle" x="135.5" y="-119.5" font-family="Helvetica,sans-Serif" font-size="10.00" fill="#000000">Framework/FunctionalHelpers.h</text>
</a>
</g>
</g>
<!-- Node0&#45;&gt;Node6 -->
<g id="edge6" class="edge">
<title>Node0&#45;&gt;Node6</title>
<path fill="none" stroke="#191970" d="M1569.787,-192.2992C1368.0771,-185.6436 760.1418,-164.1888 256.5,-132 248.1843,-131.4685 239.5516,-130.8627 230.898,-130.2183"/>
<polygon fill="#191970" stroke="#191970" points="230.9843,-126.7148 220.7476,-129.4461 230.4533,-133.6946 230.9843,-126.7148"/>
</g>
<!-- Node8 -->
<g id="node9" class="node">
<title>Node8</title>
<g id="a_node9"><a xlink:href="../../d9/de8/CompilerBuiltins_8h.html" target="_top" xlink:title="Framework/CompilerBuiltins.h">
<polygon fill="none" stroke="#000000" points="451.5,-56.5 451.5,-75.5 615.5,-75.5 615.5,-56.5 451.5,-56.5"/>
<text text-anchor="middle" x="533.5" y="-63.5" font-family="Helvetica,sans-Serif" font-size="10.00" fill="#000000">Framework/CompilerBuiltins.h</text>
</a>
</g>
</g>
<!-- Node0&#45;&gt;Node8 -->
<g id="edge9" class="edge">
<title>Node0&#45;&gt;Node8</title>
<path fill="none" stroke="#191970" d="M1569.628,-185.4801C1448.9536,-169.7822 1191.3929,-136.7513 973.5,-112 821.891,-94.7782 781.2865,-92.6048 626.2192,-76.176"/>
<polygon fill="#191970" stroke="#191970" points="626.1511,-72.6491 615.8372,-75.0729 625.4114,-79.6099 626.1511,-72.6491"/>
</g>
<!-- Node9 -->
<g id="node10" class="node">
<title>Node9</title>
<g id="a_node10"><a xlink:href="../../db/d31/Traits_8h.html" target="_top" xlink:title="Framework/Traits.h">
<polygon fill="none" stroke="#000000" points="648,-112.5 648,-131.5 757,-131.5 757,-112.5 648,-112.5"/>
<text text-anchor="middle" x="702.5" y="-119.5" font-family="Helvetica,sans-Serif" font-size="10.00" fill="#000000">Framework/Traits.h</text>
</a>
</g>
</g>
<!-- Node0&#45;&gt;Node9 -->
<g id="edge10" class="edge">
<title>Node0&#45;&gt;Node9</title>
<path fill="none" stroke="#191970" d="M1569.6737,-189.1689C1395.1826,-175.6533 937.3222,-140.1887 767.2911,-127.0185"/>
<polygon fill="#191970" stroke="#191970" points="767.4763,-123.5225 757.2359,-126.2397 766.9357,-130.5016 767.4763,-123.5225"/>
</g>
<!-- Node11 -->
<g id="node12" class="node">
<title>Node11</title>
<g id="a_node12"><a xlink:href="../../d0/d91/Expressions_8h.html" target="_top" xlink:title="Framework/Expressions.h">
<polygon fill="none" stroke="#000000" points="1157,-112.5 1157,-131.5 1298,-131.5 1298,-112.5 1157,-112.5"/>
<text text-anchor="middle" x="1227.5" y="-119.5" font-family="Helvetica,sans-Serif" font-size="10.00" fill="#000000">Framework/Expressions.h</text>
</a>
</g>
</g>
<!-- Node0&#45;&gt;Node11 -->
<g id="edge12" class="edge">
<title>Node0&#45;&gt;Node11</title>
<path fill="none" stroke="#191970" d="M1569.7078,-182.3651C1492.0695,-168.6698 1366.7864,-146.57 1291.2752,-133.2499"/>
<polygon fill="#191970" stroke="#191970" points="1291.8702,-129.8009 1281.4142,-131.5104 1290.6541,-136.6944 1291.8702,-129.8009"/>
</g>
<!-- Node17 -->
<g id="node18" class="node">
<title>Node17</title>
<polygon fill="none" stroke="#bfbfbf" points="1655,-56.5 1655,-75.5 1736,-75.5 1736,-56.5 1655,-56.5"/>
<text text-anchor="middle" x="1695.5" y="-63.5" font-family="Helvetica,sans-Serif" font-size="10.00" fill="#000000">arrow/table.h</text>
</g>
<!-- Node0&#45;&gt;Node17 -->
<g id="edge37" class="edge">
<title>Node0&#45;&gt;Node17</title>
<path fill="none" stroke="#191970" d="M1699.103,-168.432C1713.599,-159.1427 1727.2521,-147.1261 1735.5,-132 1744.9169,-114.73 1730.3774,-95.5617 1716.2618,-82.3523"/>
<polygon fill="#191970" stroke="#191970" points="1718.4524,-79.6186 1708.6182,-75.6766 1713.8478,-84.8909 1718.4524,-79.6186"/>
</g>
<!-- Node18 -->
<g id="node19" class="node">
<title>Node18</title>
<polygon fill="none" stroke="#bfbfbf" points="1490,-56.5 1490,-75.5 1637,-75.5 1637,-56.5 1490,-56.5"/>
<text text-anchor="middle" x="1563.5" y="-63.5" font-family="Helvetica,sans-Serif" font-size="10.00" fill="#000000">gandiva/selection_vector.h</text>
</g>
<!-- Node0&#45;&gt;Node18 -->
<g id="edge42" class="edge">
<title>Node0&#45;&gt;Node18</title>
<path fill="none" stroke="#191970" d="M1577.897,-168.432C1563.401,-159.1427 1549.7479,-147.1261 1541.5,-132 1533.2315,-116.8361 1541.065,-98.0193 1549.5916,-84.3622"/>
<polygon fill="#191970" stroke="#191970" points="1552.6632,-86.0708 1555.416,-75.8399 1546.8839,-82.1211 1552.6632,-86.0708"/>
</g>
<!-- Node24 -->
<g id="node25" class="node">
<title>Node24</title>
<g id="a_node25"><a xlink:href="../../d0/d92/Kernels_8h.html" target="_top" xlink:title="Framework/Kernels.h">
<polygon fill="none" stroke="#000000" points="1821,-112.5 1821,-131.5 1940,-131.5 1940,-112.5 1821,-112.5"/>
<text text-anchor="middle" x="1880.5" y="-119.5" font-family="Helvetica,sans-Serif" font-size="10.00" fill="#000000">Framework/Kernels.h</text>
</a>
</g>
</g>
<!-- Node0&#45;&gt;Node24 -->
<g id="edge28" class="edge">
<title>Node0&#45;&gt;Node24</title>
<path fill="none" stroke="#191970" d="M1707.2002,-173.9183C1749.6063,-161.214 1802.6247,-145.3304 1838.7778,-134.4994"/>
<polygon fill="#191970" stroke="#191970" points="1839.9299,-137.808 1848.5048,-131.5853 1837.9209,-131.1025 1839.9299,-137.808"/>
</g>
<!-- Node25 -->
<g id="node26" class="node">
<title>Node25</title>
<polygon fill="none" stroke="#bfbfbf" points="1963,-56.5 1963,-75.5 2096,-75.5 2096,-56.5 1963,-56.5"/>
<text text-anchor="middle" x="2029.5" y="-63.5" font-family="Helvetica,sans-Serif" font-size="10.00" fill="#000000">arrow/compute/kernel.h</text>
</g>
<!-- Node0&#45;&gt;Node25 -->
<g id="edge41" class="edge">
<title>Node0&#45;&gt;Node25</title>
<path fill="none" stroke="#191970" d="M1685.6213,-168.4546C1719.9343,-150.4166 1767.9994,-127.0349 1812.5,-112 1858.9432,-96.3088 1912.853,-84.8487 1955.3207,-77.2916"/>
<polygon fill="#191970" stroke="#191970" points="1956.0548,-80.7165 1965.3041,-75.5492 1954.8512,-73.8208 1956.0548,-80.7165"/>
</g>
<!-- Node28 -->
<g id="node29" class="node">
<title>Node28</title>
<polygon fill="none" stroke="#bfbfbf" points="2352.5,-56.5 2352.5,-75.5 2462.5,-75.5 2462.5,-56.5 2352.5,-56.5"/>
<text text-anchor="middle" x="2407.5" y="-63.5" font-family="Helvetica,sans-Serif" font-size="10.00" fill="#000000">arrow/util/variant.h</text>
</g>
<!-- Node0&#45;&gt;Node28 -->
<g id="edge39" class="edge">
<title>Node0&#45;&gt;Node28</title>
<path fill="none" stroke="#191970" d="M1707.0403,-186.4651C1771.0813,-177.6265 1868.6749,-160.7182 1949.5,-132 1967.4838,-125.6101 1969.2261,-117.5055 1987.5,-112 2136.6459,-67.0655 2183.8381,-95.0777 2342.2695,-76.0656"/>
<polygon fill="#191970" stroke="#191970" points="2342.878,-79.5169 2352.3691,-74.8084 2342.0133,-72.5705 2342.878,-79.5169"/>
</g>
<!-- Node29 -->
<g id="node30" class="node">
<title>Node29</title>
<g id="a_node30"><a xlink:href="../../d1/dc1/ArrowCompatibility_8h.html" target="_top" xlink:title="Framework/ArrowCompatibility.h">
<polygon fill="none" stroke="#000000" points="1550.5,-112.5 1550.5,-131.5 1726.5,-131.5 1726.5,-112.5 1550.5,-112.5"/>
<text text-anchor="middle" x="1638.5" y="-119.5" font-family="Helvetica,sans-Serif" font-size="10.00" fill="#000000">Framework/ArrowCompatibility.h</text>
</a>
</g>
</g>
<!-- Node0&#45;&gt;Node29 -->
<g id="edge35" class="edge">
<title>Node0&#45;&gt;Node29</title>
<path fill="none" stroke="#191970" d="M1638.5,-168.3258C1638.5,-159.5142 1638.5,-149.8397 1638.5,-141.621"/>
<polygon fill="#191970" stroke="#191970" points="1642.0001,-141.534 1638.5,-131.534 1635.0001,-141.534 1642.0001,-141.534"/>
</g>
<!-- Node30 -->
<g id="node31" class="node">
<title>Node30</title>
<polygon fill="none" stroke="#bfbfbf" points="1996.5,-112.5 1996.5,-131.5 2076.5,-131.5 2076.5,-112.5 1996.5,-112.5"/>
<text text-anchor="middle" x="2036.5" y="-119.5" font-family="Helvetica,sans-Serif" font-size="10.00" fill="#000000">arrow/array.h</text>
</g>
<!-- Node0&#45;&gt;Node30 -->
<g id="edge38" class="edge">
<title>Node0&#45;&gt;Node30</title>
<path fill="none" stroke="#191970" d="M1707.0437,-182.1171C1776.4805,-169.5562 1886.974,-149.5228 1982.5,-132 1983.766,-131.7678 1985.0487,-131.5322 1986.3427,-131.2944"/>
<polygon fill="#191970" stroke="#191970" points="1987.1979,-134.6958 1996.3983,-129.4418 1985.9296,-127.8116 1987.1979,-134.6958"/>
</g>
<!-- Node31 -->
<g id="node32" class="node">
<title>Node31</title>
<polygon fill="none" stroke="#bfbfbf" points="2095,-112.5 2095,-131.5 2234,-131.5 2234,-112.5 2095,-112.5"/>
<text text-anchor="middle" x="2164.5" y="-119.5" font-family="Helvetica,sans-Serif" font-size="10.00" fill="#000000">arrow/compute/context.h</text>
</g>
<!-- Node0&#45;&gt;Node31 -->
<g id="edge40" class="edge">
<title>Node0&#45;&gt;Node31</title>
<path fill="none" stroke="#191970" d="M1707.2653,-185.0219C1804.6894,-171.5937 1982.4565,-147.0915 2085.2824,-132.9188"/>
<polygon fill="#191970" stroke="#191970" points="2085.8711,-136.3708 2095.2996,-131.5381 2084.9153,-129.4364 2085.8711,-136.3708"/>
</g>
<!-- Node32 -->
<g id="node33" class="node">
<title>Node32</title>
<polygon fill="none" stroke="#bfbfbf" points="2252.5,-112.5 2252.5,-131.5 2304.5,-131.5 2304.5,-112.5 2252.5,-112.5"/>
<text text-anchor="middle" x="2278.5" y="-119.5" font-family="Helvetica,sans-Serif" font-size="10.00" fill="#000000">cassert</text>
</g>
<!-- Node0&#45;&gt;Node32 -->
<g id="edge43" class="edge">
<title>Node0&#45;&gt;Node32</title>
<path fill="none" stroke="#191970" d="M1707.1194,-191.3345C1818.0361,-185.3578 2043.5256,-169.6455 2242.2075,-131.9628"/>
<polygon fill="#191970" stroke="#191970" points="2243.0855,-135.3583 2252.2462,-130.0355 2241.7657,-128.4838 2243.0855,-135.3583"/>
</g>
<!-- Node2 -->
<g id="node3" class="node">
<title>Node2</title>
<polygon fill="none" stroke="#bfbfbf" points="42,-.5 42,-19.5 95,-19.5 95,-.5 42,-.5"/>
<text text-anchor="middle" x="68.5" y="-7.5" font-family="Helvetica,sans-Serif" font-size="10.00" fill="#000000">cstddef</text>
</g>
<!-- Node1&#45;&gt;Node2 -->
<g id="edge2" class="edge">
<title>Node1&#45;&gt;Node2</title>
<path fill="none" stroke="#191970" d="M123.8295,-56.2455C113.9339,-47.9746 99.5373,-35.9416 87.9099,-26.2232"/>
<polygon fill="#191970" stroke="#191970" points="89.9542,-23.3703 80.0368,-19.6427 85.465,-28.7413 89.9542,-23.3703"/>
</g>
<!-- Node3 -->
<g id="node4" class="node">
<title>Node3</title>
<polygon fill="none" stroke="#bfbfbf" points="113,-.5 113,-19.5 158,-19.5 158,-.5 113,-.5"/>
<text text-anchor="middle" x="135.5" y="-7.5" font-family="Helvetica,sans-Serif" font-size="10.00" fill="#000000">utility</text>
</g>
<!-- Node1&#45;&gt;Node3 -->
<g id="edge3" class="edge">
<title>Node1&#45;&gt;Node3</title>
<path fill="none" stroke="#191970" d="M135.5,-56.2455C135.5,-48.9382 135.5,-38.6944 135.5,-29.7046"/>
<polygon fill="#191970" stroke="#191970" points="139.0001,-29.6426 135.5,-19.6427 132.0001,-29.6427 139.0001,-29.6426"/>
</g>
<!-- Node4 -->
<g id="node5" class="node">
<title>Node4</title>
<polygon fill="none" stroke="#bfbfbf" points="176.5,-.5 176.5,-19.5 222.5,-19.5 222.5,-.5 176.5,-.5"/>
<text text-anchor="middle" x="199.5" y="-7.5" font-family="Helvetica,sans-Serif" font-size="10.00" fill="#000000">cstdio</text>
</g>
<!-- Node1&#45;&gt;Node4 -->
<g id="edge4" class="edge">
<title>Node1&#45;&gt;Node4</title>
<path fill="none" stroke="#191970" d="M146.6479,-56.2455C156.0087,-48.0549 169.5858,-36.1749 180.6349,-26.5069"/>
<polygon fill="#191970" stroke="#191970" points="183.2588,-28.8618 188.4798,-19.6427 178.6492,-23.5937 183.2588,-28.8618"/>
</g>
<!-- Node6&#45;&gt;Node1 -->
<g id="edge7" class="edge">
<title>Node6&#45;&gt;Node1</title>
<path fill="none" stroke="#191970" d="M135.5,-112.2455C135.5,-104.9382 135.5,-94.6944 135.5,-85.7046"/>
<polygon fill="#191970" stroke="#191970" points="139.0001,-85.6426 135.5,-75.6427 132.0001,-85.6427 139.0001,-85.6426"/>
</g>
<!-- Node7 -->
<g id="node8" class="node">
<title>Node7</title>
<polygon fill="none" stroke="#bfbfbf" points="0,-56.5 0,-75.5 65,-75.5 65,-56.5 0,-56.5"/>
<text text-anchor="middle" x="32.5" y="-63.5" font-family="Helvetica,sans-Serif" font-size="10.00" fill="#000000">functional</text>
</g>
<!-- Node6&#45;&gt;Node7 -->
<g id="edge8" class="edge">
<title>Node6&#45;&gt;Node7</title>
<path fill="none" stroke="#191970" d="M117.5588,-112.2455C101.46,-103.4928 77.6121,-90.527 59.2609,-80.5496"/>
<polygon fill="#191970" stroke="#191970" points="60.6929,-77.3444 50.2356,-75.6427 57.3493,-83.4942 60.6929,-77.3444"/>
</g>
<!-- Node10 -->
<g id="node11" class="node">
<title>Node10</title>
<polygon fill="none" stroke="#bfbfbf" points="206,-56.5 206,-75.5 275,-75.5 275,-56.5 206,-56.5"/>
<text text-anchor="middle" x="240.5" y="-63.5" font-family="Helvetica,sans-Serif" font-size="10.00" fill="#000000">type_traits</text>
</g>
<!-- Node9&#45;&gt;Node10 -->
<g id="edge11" class="edge">
<title>Node9&#45;&gt;Node10</title>
<path fill="none" stroke="#191970" d="M647.7847,-117.9782C569.6282,-111.7926 421.3791,-98.428 285.2121,-75.9399"/>
<polygon fill="#191970" stroke="#191970" points="285.4537,-72.4318 275.0133,-74.2345 284.2991,-79.3359 285.4537,-72.4318"/>
</g>
<!-- Node11&#45;&gt;Node1 -->
<g id="edge15" class="edge">
<title>Node11&#45;&gt;Node1</title>
<path fill="none" stroke="#191970" d="M1156.6466,-119.9291C958.8113,-113.976 402.1841,-96.0188 198.0531,-76.0273"/>
<polygon fill="#191970" stroke="#191970" points="198.3209,-72.5367 188.0196,-75.0132 197.6169,-79.5012 198.3209,-72.5367"/>
</g>
<!-- Node11&#45;&gt;Node5 -->
<g id="edge16" class="edge">
<title>Node11&#45;&gt;Node5</title>
<path fill="none" stroke="#191970" d="M1156.7461,-119.4531C1020.7024,-114.2064 713.0021,-100.6479 443.6522,-76.0503"/>
<polygon fill="#191970" stroke="#191970" points="443.9629,-72.5642 433.6843,-75.1333 443.3216,-79.5347 443.9629,-72.5642"/>
</g>
<!-- Node11&#45;&gt;Node8 -->
<g id="edge14" class="edge">
<title>Node11&#45;&gt;Node8</title>
<path fill="none" stroke="#191970" d="M1156.8671,-116.5046C1137.9121,-115.0353 1117.4256,-113.4522 1098.5,-112 891.1374,-96.0882 836.5618,-95.5548 625.9744,-76.1127"/>
<polygon fill="#191970" stroke="#191970" points="626.1076,-72.6102 615.8273,-75.1725 625.4617,-79.5803 626.1076,-72.6102"/>
</g>
<!-- Node12 -->
<g id="node13" class="node">
<title>Node12</title>
<g id="a_node13"><a xlink:href="../../dd/dc2/BasicOps_8h.html" target="_top" xlink:title="Framework/BasicOps.h">
<polygon fill="none" stroke="#000000" points="1816.5,-56.5 1816.5,-75.5 1944.5,-75.5 1944.5,-56.5 1816.5,-56.5"/>
<text text-anchor="middle" x="1880.5" y="-63.5" font-family="Helvetica,sans-Serif" font-size="10.00" fill="#000000">Framework/BasicOps.h</text>
</a>
</g>
</g>
<!-- Node11&#45;&gt;Node12 -->
<g id="edge13" class="edge">
<title>Node11&#45;&gt;Node12</title>
<path fill="none" stroke="#191970" d="M1298.154,-117.6994C1405.5731,-110.8723 1616.6364,-96.3278 1806.2732,-76.0792"/>
<polygon fill="#191970" stroke="#191970" points="1806.8628,-79.5361 1816.4312,-74.9868 1806.1143,-72.5762 1806.8628,-79.5361"/>
</g>
<!-- Node13 -->
<g id="node14" class="node">
<title>Node13</title>
<polygon fill="none" stroke="#bfbfbf" points="710,-56.5 710,-75.5 811,-75.5 811,-56.5 710,-56.5"/>
<text text-anchor="middle" x="760.5" y="-63.5" font-family="Helvetica,sans-Serif" font-size="10.00" fill="#000000">arrow/type_fwd.h</text>
</g>
<!-- Node11&#45;&gt;Node13 -->
<g id="edge17" class="edge">
<title>Node11&#45;&gt;Node13</title>
<path fill="none" stroke="#191970" d="M1156.7726,-115.1459C1077.6192,-107.2179 945.3151,-93.1993 821.2688,-76.0448"/>
<polygon fill="#191970" stroke="#191970" points="821.5974,-72.5569 811.2102,-74.6443 820.632,-79.49 821.5974,-72.5569"/>
</g>
<!-- Node14 -->
<g id="node15" class="node">
<title>Node14</title>
<polygon fill="none" stroke="#bfbfbf" points="829.5,-56.5 829.5,-75.5 975.5,-75.5 975.5,-56.5 829.5,-56.5"/>
<text text-anchor="middle" x="902.5" y="-63.5" font-family="Helvetica,sans-Serif" font-size="10.00" fill="#000000">gandiva/gandiva_aliases.h</text>
</g>
<!-- Node11&#45;&gt;Node14 -->
<g id="edge18" class="edge">
<title>Node11&#45;&gt;Node14</title>
<path fill="none" stroke="#191970" d="M1171.9998,-112.4369C1115.4437,-102.6918 1027.7596,-87.5832 967.8741,-77.2645"/>
<polygon fill="#191970" stroke="#191970" points="968.2204,-73.7726 957.7713,-75.5237 967.0317,-80.671 968.2204,-73.7726"/>
</g>
<!-- Node15 -->
<g id="node16" class="node">
<title>Node15</title>
<polygon fill="none" stroke="#bfbfbf" points="993.5,-56.5 993.5,-75.5 1071.5,-75.5 1071.5,-56.5 993.5,-56.5"/>
<text text-anchor="middle" x="1032.5" y="-63.5" font-family="Helvetica,sans-Serif" font-size="10.00" fill="#000000">arrow/type.h</text>
</g>
<!-- Node11&#45;&gt;Node15 -->
<g id="edge19" class="edge">
<title>Node11&#45;&gt;Node15</title>
<path fill="none" stroke="#191970" d="M1193.9783,-112.3733C1161.1317,-102.9404 1110.9405,-88.5265 1075.2422,-78.2747"/>
<polygon fill="#191970" stroke="#191970" points="1076.1619,-74.8974 1065.5843,-75.5011 1074.2297,-81.6255 1076.1619,-74.8974"/>
</g>
<!-- Node16 -->
<g id="node17" class="node">
<title>Node16</title>
<polygon fill="none" stroke="#bfbfbf" points="1090,-56.5 1090,-75.5 1185,-75.5 1185,-56.5 1090,-56.5"/>
<text text-anchor="middle" x="1137.5" y="-63.5" font-family="Helvetica,sans-Serif" font-size="10.00" fill="#000000">gandiva/arrow.h</text>
</g>
<!-- Node11&#45;&gt;Node16 -->
<g id="edge20" class="edge">
<title>Node11&#45;&gt;Node16</title>
<path fill="none" stroke="#191970" d="M1211.8232,-112.2455C1198.0144,-103.6534 1177.6807,-91.0014 1161.7708,-81.1018"/>
<polygon fill="#191970" stroke="#191970" points="1163.3368,-77.954 1152.9972,-75.6427 1159.6387,-83.8974 1163.3368,-77.954"/>
</g>
<!-- Node11&#45;&gt;Node17 -->
<g id="edge21" class="edge">
<title>Node11&#45;&gt;Node17</title>
<path fill="none" stroke="#191970" d="M1298.1912,-116.2377C1379.5777,-109.154 1517.4538,-95.7781 1644.9665,-76.1313"/>
<polygon fill="#191970" stroke="#191970" points="1645.5677,-79.58 1654.9101,-74.583 1644.4907,-72.6633 1645.5677,-79.58"/>
</g>
<!-- Node11&#45;&gt;Node18 -->
<g id="edge22" class="edge">
<title>Node11&#45;&gt;Node18</title>
<path fill="none" stroke="#191970" d="M1284.8787,-112.4369C1343.4697,-102.6717 1434.3756,-87.5207 1496.2966,-77.2006"/>
<polygon fill="#191970" stroke="#191970" points="1497.0695,-80.6201 1506.358,-75.5237 1495.9186,-73.7154 1497.0695,-80.6201"/>
</g>
<!-- Node19 -->
<g id="node20" class="node">
<title>Node19</title>
<polygon fill="none" stroke="#bfbfbf" points="1203.5,-56.5 1203.5,-75.5 1295.5,-75.5 1295.5,-56.5 1203.5,-56.5"/>
<text text-anchor="middle" x="1249.5" y="-63.5" font-family="Helvetica,sans-Serif" font-size="10.00" fill="#000000">gandiva/node.h</text>
</g>
<!-- Node11&#45;&gt;Node19 -->
<g id="edge23" class="edge">
<title>Node11&#45;&gt;Node19</title>
<path fill="none" stroke="#191970" d="M1231.3321,-112.2455C1234.2659,-104.7776 1238.4047,-94.2427 1241.991,-85.1137"/>
<polygon fill="#191970" stroke="#191970" points="1245.3129,-86.23 1245.7118,-75.6427 1238.7976,-83.6704 1245.3129,-86.23"/>
</g>
<!-- Node20 -->
<g id="node21" class="node">
<title>Node20</title>
<polygon fill="none" stroke="#bfbfbf" points="1314,-56.5 1314,-75.5 1403,-75.5 1403,-56.5 1314,-56.5"/>
<text text-anchor="middle" x="1358.5" y="-63.5" font-family="Helvetica,sans-Serif" font-size="10.00" fill="#000000">gandiva/filter.h</text>
</g>
<!-- Node11&#45;&gt;Node20 -->
<g id="edge24" class="edge">
<title>Node11&#45;&gt;Node20</title>
<path fill="none" stroke="#191970" d="M1250.0197,-112.3733C1271.2372,-103.3032 1303.2276,-89.6279 1326.9769,-79.4755"/>
<polygon fill="#191970" stroke="#191970" points="1328.4548,-82.6502 1336.2742,-75.5011 1325.7033,-76.2136 1328.4548,-82.6502"/>
</g>
<!-- Node21 -->
<g id="node22" class="node">
<title>Node21</title>
<polygon fill="none" stroke="#bfbfbf" points="1421,-56.5 1421,-75.5 1472,-75.5 1472,-56.5 1421,-56.5"/>
<text text-anchor="middle" x="1446.5" y="-63.5" font-family="Helvetica,sans-Serif" font-size="10.00" fill="#000000">variant</text>
</g>
<!-- Node11&#45;&gt;Node21 -->
<g id="edge25" class="edge">
<title>Node11&#45;&gt;Node21</title>
<path fill="none" stroke="#191970" d="M1268.0472,-112.4406C1303.4863,-103.9687 1356.5541,-91.0028 1411.0795,-76.3152"/>
<polygon fill="#191970" stroke="#191970" points="1412.1761,-79.6444 1420.9132,-73.6516 1410.3459,-72.8879 1412.1761,-79.6444"/>
</g>
<!-- Node22 -->
<g id="node23" class="node">
<title>Node22</title>
<polygon fill="none" stroke="#bfbfbf" points="1754.5,-56.5 1754.5,-75.5 1798.5,-75.5 1798.5,-56.5 1754.5,-56.5"/>
<text text-anchor="middle" x="1776.5" y="-63.5" font-family="Helvetica,sans-Serif" font-size="10.00" fill="#000000">string</text>
</g>
<!-- Node11&#45;&gt;Node22 -->
<g id="edge26" class="edge">
<title>Node11&#45;&gt;Node22</title>
<path fill="none" stroke="#191970" d="M1298.1757,-120.7089C1396.5062,-117.8123 1580.062,-108.4169 1744.0348,-75.8889"/>
<polygon fill="#191970" stroke="#191970" points="1745.1978,-79.2248 1754.3075,-73.8152 1743.8126,-72.3632 1745.1978,-79.2248"/>
</g>
<!-- Node23 -->
<g id="node24" class="node">
<title>Node23</title>
<polygon fill="none" stroke="#bfbfbf" points="633.5,-56.5 633.5,-75.5 691.5,-75.5 691.5,-56.5 633.5,-56.5"/>
<text text-anchor="middle" x="662.5" y="-63.5" font-family="Helvetica,sans-Serif" font-size="10.00" fill="#000000">memory</text>
</g>
<!-- Node11&#45;&gt;Node23 -->
<g id="edge27" class="edge">
<title>Node11&#45;&gt;Node23</title>
<path fill="none" stroke="#191970" d="M1156.8267,-116.4683C1030.7385,-106.5087 774.2066,-85.8068 702.0576,-75.6496"/>
<polygon fill="#191970" stroke="#191970" points="702.1949,-72.1291 691.7766,-74.0549 701.1219,-79.0464 702.1949,-72.1291"/>
</g>
<!-- Node24&#45;&gt;Node12 -->
<g id="edge29" class="edge">
<title>Node24&#45;&gt;Node12</title>
<path fill="none" stroke="#191970" d="M1880.5,-112.2455C1880.5,-104.9382 1880.5,-94.6944 1880.5,-85.7046"/>
<polygon fill="#191970" stroke="#191970" points="1884.0001,-85.6426 1880.5,-75.6427 1877.0001,-85.6427 1884.0001,-85.6426"/>
</g>
<!-- Node24&#45;&gt;Node22 -->
<g id="edge34" class="edge">
<title>Node24&#45;&gt;Node22</title>
<path fill="none" stroke="#191970" d="M1862.3846,-112.2455C1846.055,-103.4527 1821.829,-90.4079 1803.2661,-80.4125"/>
<polygon fill="#191970" stroke="#191970" points="1804.8719,-77.3021 1794.4078,-75.6427 1801.5532,-83.4654 1804.8719,-77.3021"/>
</g>
<!-- Node24&#45;&gt;Node25 -->
<g id="edge30" class="edge">
<title>Node24&#45;&gt;Node25</title>
<path fill="none" stroke="#191970" d="M1906.114,-112.3733C1930.5687,-103.1822 1967.6054,-89.2624 1994.7209,-79.0713"/>
<polygon fill="#191970" stroke="#191970" points="1996.0909,-82.2956 2004.2202,-75.5011 1993.6281,-75.7431 1996.0909,-82.2956"/>
</g>
<!-- Node26 -->
<g id="node27" class="node">
<title>Node26</title>
<polygon fill="none" stroke="#bfbfbf" points="2248.5,-56.5 2248.5,-75.5 2334.5,-75.5 2334.5,-56.5 2248.5,-56.5"/>
<text text-anchor="middle" x="2291.5" y="-63.5" font-family="Helvetica,sans-Serif" font-size="10.00" fill="#000000">arrow/status.h</text>
</g>
<!-- Node24&#45;&gt;Node26 -->
<g id="edge31" class="edge">
<title>Node24&#45;&gt;Node26</title>
<path fill="none" stroke="#191970" d="M1940.2685,-113.8779C1945.0828,-113.2375 1949.8723,-112.6049 1954.5,-112 2077.8818,-95.8712 2111.7116,-96.0456 2238.32,-76.1082"/>
<polygon fill="#191970" stroke="#191970" points="2239.0791,-79.5316 2248.4074,-74.5083 2237.9826,-72.618 2239.0791,-79.5316"/>
</g>
<!-- Node27 -->
<g id="node28" class="node">
<title>Node27</title>
<polygon fill="none" stroke="#bfbfbf" points="2114.5,-56.5 2114.5,-75.5 2230.5,-75.5 2230.5,-56.5 2114.5,-56.5"/>
<text text-anchor="middle" x="2172.5" y="-63.5" font-family="Helvetica,sans-Serif" font-size="10.00" fill="#000000">arrow/util/visibility.h</text>
</g>
<!-- Node24&#45;&gt;Node27 -->
<g id="edge32" class="edge">
<title>Node24&#45;&gt;Node27</title>
<path fill="none" stroke="#191970" d="M1930.3648,-112.4369C1980.8633,-102.7522 2058.9835,-87.7703 2112.7605,-77.4569"/>
<polygon fill="#191970" stroke="#191970" points="2113.6791,-80.8446 2122.8409,-75.5237 2112.3606,-73.9699 2113.6791,-80.8446"/>
</g>
<!-- Node24&#45;&gt;Node28 -->
<g id="edge33" class="edge">
<title>Node24&#45;&gt;Node28</title>
<path fill="none" stroke="#191970" d="M1940.2476,-113.7067C1945.0666,-113.1047 1949.8629,-112.5277 1954.5,-112 2123.8135,-92.734 2169.5139,-97.2339 2342.4277,-76.0667"/>
<polygon fill="#191970" stroke="#191970" points="2342.8773,-79.5378 2352.3729,-74.8383 2342.0192,-72.5906 2342.8773,-79.5378"/>
</g>
<!-- Node29&#45;&gt;Node17 -->
<g id="edge36" class="edge">
<title>Node29&#45;&gt;Node17</title>
<path fill="none" stroke="#191970" d="M1648.4286,-112.2455C1656.6838,-104.1352 1668.6209,-92.4075 1678.4082,-82.7919"/>
<polygon fill="#191970" stroke="#191970" points="1681.0046,-85.1476 1685.6851,-75.6427 1676.0989,-80.1542 1681.0046,-85.1476"/>
</g>
</g>
</svg>
        <g id="navigator" transform="translate(0 0)" fill="#404254">
                <rect fill="#f2f5e9" fill-opacity="0.5" stroke="#606060" stroke-width=".5" x="0" y="0" width="60" height="60"/>
                <use id="zoomplus" xlink:href="#zoomPlus" x="17" y="9" onmousedown="handleZoom(evt,'in')"/>
                <use id="zoomminus" xlink:href="#zoomMin" x="42" y="9" onmousedown="handleZoom(evt,'out')"/>
                <use id="reset" xlink:href="#resetDef" x="30" y="36" onmousedown="handleReset()"/>
                <g id="arrowUp" xlink:href="#dirArrow" transform="translate(30 24)" onmousedown="handlePan(0,-1)">
                  <use xlink:href="#rim" fill="#404040">
                        <set attributeName="fill" to="#808080" begin="arrowUp.mouseover" end="arrowUp.mouseout"/>
                  </use>
                  <path fill="none" stroke="white" stroke-width="1.5" d="M0,-3.0v7 M-2.5,-0.5L0,-3.0L2.5,-0.5"/>
                </g>
                <g id="arrowRight" xlink:href="#dirArrow" transform="rotate(90) translate(36 -43)" onmousedown="handlePan(1,0)">
                  <use xlink:href="#rim" fill="#404040">
                        <set attributeName="fill" to="#808080" begin="arrowRight.mouseover" end="arrowRight.mouseout"/>
                  </use>
                  <path fill="none" stroke="white" stroke-width="1.5" d="M0,-3.0v7 M-2.5,-0.5L0,-3.0L2.5,-0.5"/>
                </g>
                <g id="arrowDown" xlink:href="#dirArrow" transform="rotate(180) translate(-30 -48)" onmousedown="handlePan(0,1)">
                  <use xlink:href="#rim" fill="#404040">
                        <set attributeName="fill" to="#808080" begin="arrowDown.mouseover" end="arrowDown.mouseout"/>
                  </use>
                  <path fill="none" stroke="white" stroke-width="1.5" d="M0,-3.0v7 M-2.5,-0.5L0,-3.0L2.5,-0.5"/>
                </g>
                <g id="arrowLeft" xlink:href="#dirArrow" transform="rotate(270) translate(-36 17)" onmousedown="handlePan(-1,0)">
                  <use xlink:href="#rim" fill="#404040">
                        <set attributeName="fill" to="#808080" begin="arrowLeft.mouseover" end="arrowLeft.mouseout"/>
                  </use>
                  <path fill="none" stroke="white" stroke-width="1.5" d="M0,-3.0v7 M-2.5,-0.5L0,-3.0L2.5,-0.5"/>
                </g>
        </g>
        <svg viewBox="0 0 15 15" width="100%" height="30px" preserveAspectRatio="xMaxYMin meet">
         <g id="arrow_out" transform="scale(0.3 0.3)">
          <a xlink:href="ASoA_8h__incl_org.svg" target="_base">
           <rect id="button" ry="5" rx="5" y="6" x="6" height="38" width="38"
                fill="#f2f5e9" fill-opacity="0.5" stroke="#606060" stroke-width="1.0"/>
           <path id="arrow"
             d="M 11.500037,31.436501 C 11.940474,20.09759 22.043105,11.32322 32.158766,21.979434 L 37.068811,17.246167 C 37.068811,17.246167 37.088388,32 37.088388,32 L 22.160133,31.978069 C 22.160133,31.978069 26.997745,27.140456 26.997745,27.140456 C 18.528582,18.264221 13.291696,25.230495 11.500037,31.436501 z"
             style="fill:#404040;"/>
          </a>
         </g>
        </svg>
</svg>
