<?xml version="1.0" encoding="UTF-8" standalone="no"?>
<!DOCTYPE svg PUBLIC "-//W3C//DTD SVG 1.1//EN"
 "http://www.w3.org/Graphics/SVG/1.1/DTD/svg11.dtd">
<!-- Generated by graphviz version 2.40.1 (20161225.0304)
 -->
<!-- Title: /home/travis/build/AliceO2Group/AliceO2/Framework/Core/include/Framework/TableTreeHelpers.h Pages: 1 -->
<svg width="2473pt" height="341pt"
 viewBox="0.00 0.00 2473.00 341.00" xmlns="http://www.w3.org/2000/svg" xmlns:xlink="http://www.w3.org/1999/xlink">
<g id="graph0" class="graph" transform="scale(1 1) rotate(0) translate(4 337)">
<title>/home/travis/build/AliceO2Group/AliceO2/Framework/Core/include/Framework/TableTreeHelpers.h</title>
<!-- Node0 -->
<g id="node1" class="node">
<title>Node0</title>
<polygon fill="#bfbfbf" stroke="#000000" points="1530,-280.5 1530,-332.5 1699,-332.5 1699,-280.5 1530,-280.5"/>
<text text-anchor="start" x="1538" y="-320.5" font-family="Helvetica,sans-Serif" font-size="10.00" fill="#000000">/home/travis/build</text>
<text text-anchor="start" x="1538" y="-309.5" font-family="Helvetica,sans-Serif" font-size="10.00" fill="#000000">/AliceO2Group/AliceO2</text>
<text text-anchor="start" x="1538" y="-298.5" font-family="Helvetica,sans-Serif" font-size="10.00" fill="#000000">/Framework/Core/include</text>
<text text-anchor="middle" x="1614.5" y="-287.5" font-family="Helvetica,sans-Serif" font-size="10.00" fill="#000000">/Framework/TableTreeHelpers.h</text>
</g>
<!-- Node1 -->
<g id="node2" class="node">
<title>Node1</title>
<polygon fill="none" stroke="#bfbfbf" points="1447.5,-224.5 1447.5,-243.5 1495.5,-243.5 1495.5,-224.5 1447.5,-224.5"/>
<text text-anchor="middle" x="1471.5" y="-231.5" font-family="Helvetica,sans-Serif" font-size="10.00" fill="#000000">TFile.h</text>
</g>
<!-- Node0&#45;&gt;Node1 -->
<g id="edge1" class="edge">
<title>Node0&#45;&gt;Node1</title>
<path fill="none" stroke="#191970" d="M1562.8737,-280.3258C1541.5434,-269.5115 1517.6497,-257.3976 1499.6469,-248.2703"/>
<polygon fill="#191970" stroke="#191970" points="1500.8069,-244.9343 1490.305,-243.534 1497.6415,-251.1777 1500.8069,-244.9343"/>
</g>
<!-- Node2 -->
<g id="node3" class="node">
<title>Node2</title>
<polygon fill="none" stroke="#bfbfbf" points="1514,-224.5 1514,-243.5 1599,-243.5 1599,-224.5 1514,-224.5"/>
<text text-anchor="middle" x="1556.5" y="-231.5" font-family="Helvetica,sans-Serif" font-size="10.00" fill="#000000">TTreeReader.h</text>
</g>
<!-- Node0&#45;&gt;Node2 -->
<g id="edge2" class="edge">
<title>Node0&#45;&gt;Node2</title>
<path fill="none" stroke="#191970" d="M1593.5607,-280.3258C1585.8705,-270.7131 1577.3588,-260.0735 1570.4339,-251.4174"/>
<polygon fill="#191970" stroke="#191970" points="1573.1072,-249.1563 1564.1272,-243.534 1567.6411,-253.5292 1573.1072,-249.1563"/>
</g>
<!-- Node3 -->
<g id="node4" class="node">
<title>Node3</title>
<polygon fill="none" stroke="#bfbfbf" points="1617,-224.5 1617,-243.5 1730,-243.5 1730,-224.5 1617,-224.5"/>
<text text-anchor="middle" x="1673.5" y="-231.5" font-family="Helvetica,sans-Serif" font-size="10.00" fill="#000000">TTreeReaderValue.h</text>
</g>
<!-- Node0&#45;&gt;Node3 -->
<g id="edge3" class="edge">
<title>Node0&#45;&gt;Node3</title>
<path fill="none" stroke="#191970" d="M1635.8004,-280.3258C1643.6231,-270.7131 1652.2815,-260.0735 1659.3258,-251.4174"/>
<polygon fill="#191970" stroke="#191970" points="1662.144,-253.4995 1665.7413,-243.534 1656.7146,-249.0811 1662.144,-253.4995"/>
</g>
<!-- Node4 -->
<g id="node5" class="node">
<title>Node4</title>
<g id="a_node5"><a xlink:href="../../d5/d98/TableBuilder_8h.html" target="_top" xlink:title="TableBuilder.h">
<polygon fill="none" stroke="#000000" points="1748,-224.5 1748,-243.5 1833,-243.5 1833,-224.5 1748,-224.5"/>
<text text-anchor="middle" x="1790.5" y="-231.5" font-family="Helvetica,sans-Serif" font-size="10.00" fill="#000000">TableBuilder.h</text>
</a>
</g>
</g>
<!-- Node0&#45;&gt;Node4 -->
<g id="edge4" class="edge">
<title>Node0&#45;&gt;Node4</title>
<path fill="none" stroke="#191970" d="M1678.04,-280.3258C1705.1435,-269.161 1735.6097,-256.6111 1757.9887,-247.3924"/>
<polygon fill="#191970" stroke="#191970" points="1759.4423,-250.5791 1767.3554,-243.534 1756.776,-244.1067 1759.4423,-250.5791"/>
</g>
<!-- Node5 -->
<g id="node6" class="node">
<title>Node5</title>
<g id="a_node6"><a xlink:href="../../de/d33/ASoA_8h.html" target="_top" xlink:title="Framework/ASoA.h">
<polygon fill="none" stroke="#000000" points="1377.5,-168.5 1377.5,-187.5 1485.5,-187.5 1485.5,-168.5 1377.5,-168.5"/>
<text text-anchor="middle" x="1431.5" y="-175.5" font-family="Helvetica,sans-Serif" font-size="10.00" fill="#000000">Framework/ASoA.h</text>
</a>
</g>
</g>
<!-- Node4&#45;&gt;Node5 -->
<g id="edge5" class="edge">
<title>Node4&#45;&gt;Node5</title>
<path fill="none" stroke="#191970" d="M1747.9589,-225.6709C1744.7608,-225.0901 1741.581,-224.5268 1738.5,-224 1654.8411,-209.6945 1557.9323,-195.5818 1495.7346,-186.8382"/>
<polygon fill="#191970" stroke="#191970" points="1496.0669,-183.3507 1485.6779,-185.4288 1495.0953,-190.2829 1496.0669,-183.3507"/>
</g>
<!-- Node11 -->
<g id="node12" class="node">
<title>Node11</title>
<g id="a_node12"><a xlink:href="../../de/d9b/FunctionalHelpers_8h.html" target="_top" xlink:title="Framework/FunctionalHelpers.h">
<polygon fill="none" stroke="#000000" points="486.5,-112.5 486.5,-131.5 656.5,-131.5 656.5,-112.5 486.5,-112.5"/>
<text text-anchor="middle" x="571.5" y="-119.5" font-family="Helvetica,sans-Serif" font-size="10.00" fill="#000000">Framework/FunctionalHelpers.h</text>
</a>
</g>
</g>
<!-- Node4&#45;&gt;Node11 -->
<g id="edge53" class="edge">
<title>Node4&#45;&gt;Node11</title>
<path fill="none" stroke="#191970" d="M1747.7248,-225.291C1744.6106,-224.8054 1741.5115,-224.3669 1738.5,-224 1435.8736,-187.1265 1357.0102,-216.7046 1053.5,-188 905.3849,-173.992 732.8975,-148.0137 639.702,-133.17"/>
<polygon fill="#191970" stroke="#191970" points="639.9879,-129.6714 629.5608,-131.5488 638.8829,-136.5836 639.9879,-129.6714"/>
</g>
<!-- Node12 -->
<g id="node13" class="node">
<title>Node12</title>
<polygon fill="none" stroke="#bfbfbf" points="0,-56.5 0,-75.5 65,-75.5 65,-56.5 0,-56.5"/>
<text text-anchor="middle" x="32.5" y="-63.5" font-family="Helvetica,sans-Serif" font-size="10.00" fill="#000000">functional</text>
</g>
<!-- Node4&#45;&gt;Node12 -->
<g id="edge61" class="edge">
<title>Node4&#45;&gt;Node12</title>
<path fill="none" stroke="#191970" d="M1747.733,-225.2213C1744.6169,-224.7521 1741.5151,-224.3363 1738.5,-224 1244.418,-168.8861 1114.2327,-246.1596 620.5,-188 413.4542,-163.6109 171.102,-102.8869 74.9247,-77.4716"/>
<polygon fill="#191970" stroke="#191970" points="75.5657,-74.0206 65.0024,-74.8375 73.7695,-80.7862 75.5657,-74.0206"/>
</g>
<!-- Node22 -->
<g id="node23" class="node">
<title>Node22</title>
<polygon fill="none" stroke="#bfbfbf" points="1556,-56.5 1556,-75.5 1637,-75.5 1637,-56.5 1556,-56.5"/>
<text text-anchor="middle" x="1596.5" y="-63.5" font-family="Helvetica,sans-Serif" font-size="10.00" fill="#000000">arrow/table.h</text>
</g>
<!-- Node4&#45;&gt;Node22 -->
<g id="edge59" class="edge">
<title>Node4&#45;&gt;Node22</title>
<path fill="none" stroke="#191970" d="M1780.4693,-224.1597C1754.6216,-198.8605 1686.0537,-132.1289 1661.5,-112 1648.2511,-101.1387 1632.598,-90.0138 1619.9728,-81.4255"/>
<polygon fill="#191970" stroke="#191970" points="1621.6448,-78.3323 1611.3925,-75.6603 1617.7408,-84.1425 1621.6448,-78.3323"/>
</g>
<!-- Node27 -->
<g id="node28" class="node">
<title>Node27</title>
<polygon fill="none" stroke="#bfbfbf" points="1493.5,-56.5 1493.5,-75.5 1537.5,-75.5 1537.5,-56.5 1493.5,-56.5"/>
<text text-anchor="middle" x="1515.5" y="-63.5" font-family="Helvetica,sans-Serif" font-size="10.00" fill="#000000">string</text>
</g>
<!-- Node4&#45;&gt;Node27 -->
<g id="edge63" class="edge">
<title>Node4&#45;&gt;Node27</title>
<path fill="none" stroke="#191970" d="M1747.9873,-225.4907C1744.7826,-224.9516 1741.5936,-224.447 1738.5,-224 1601.9503,-204.2709 1210.4566,-239.9191 1124.5,-132 1074.1958,-68.8427 1404.3897,-92.153 1483.5,-76 1483.5998,-75.9796 1483.6997,-75.9591 1483.7998,-75.9383"/>
<polygon fill="#191970" stroke="#191970" points="1484.4135,-79.3924 1493.2715,-73.5798 1482.7221,-72.5999 1484.4135,-79.3924"/>
</g>
<!-- Node28 -->
<g id="node29" class="node">
<title>Node28</title>
<polygon fill="none" stroke="#bfbfbf" points="1655.5,-56.5 1655.5,-75.5 1713.5,-75.5 1713.5,-56.5 1655.5,-56.5"/>
<text text-anchor="middle" x="1684.5" y="-63.5" font-family="Helvetica,sans-Serif" font-size="10.00" fill="#000000">memory</text>
</g>
<!-- Node4&#45;&gt;Node28 -->
<g id="edge64" class="edge">
<title>Node4&#45;&gt;Node28</title>
<path fill="none" stroke="#191970" d="M1783.3644,-224.3076C1776.6943,-215.1186 1766.5787,-200.8474 1758.5,-188 1737.8408,-155.1462 1735.9155,-145.0057 1715.5,-112 1709.6963,-102.6171 1702.8788,-92.4199 1697.1171,-84.0163"/>
<polygon fill="#191970" stroke="#191970" points="1699.947,-81.9549 1691.3775,-75.7248 1694.1915,-85.9391 1699.947,-81.9549"/>
</g>
<!-- Node38 -->
<g id="node39" class="node">
<title>Node38</title>
<g id="a_node39"><a xlink:href="../../db/d4f/StructToTuple_8h.html" target="_top" xlink:title="Framework/StructToTuple.h">
<polygon fill="none" stroke="#000000" points="1768,-168.5 1768,-187.5 1915,-187.5 1915,-168.5 1768,-168.5"/>
<text text-anchor="middle" x="1841.5" y="-175.5" font-family="Helvetica,sans-Serif" font-size="10.00" fill="#000000">Framework/StructToTuple.h</text>
</a>
</g>
</g>
<!-- Node4&#45;&gt;Node38 -->
<g id="edge49" class="edge">
<title>Node4&#45;&gt;Node38</title>
<path fill="none" stroke="#191970" d="M1799.3835,-224.2455C1806.6966,-216.2155 1817.2391,-204.6394 1825.9467,-195.0781"/>
<polygon fill="#191970" stroke="#191970" points="1828.5727,-197.3928 1832.7183,-187.6427 1823.3972,-192.6795 1828.5727,-197.3928"/>
</g>
<!-- Node39 -->
<g id="node40" class="node">
<title>Node39</title>
<polygon fill="none" stroke="#bfbfbf" points="2148,-112.5 2148,-131.5 2189,-131.5 2189,-112.5 2148,-112.5"/>
<text text-anchor="middle" x="2168.5" y="-119.5" font-family="Helvetica,sans-Serif" font-size="10.00" fill="#000000">tuple</text>
</g>
<!-- Node4&#45;&gt;Node39 -->
<g id="edge65" class="edge">
<title>Node4&#45;&gt;Node39</title>
<path fill="none" stroke="#191970" d="M1822.7003,-224.4781C1850.1762,-215.9924 1890.5147,-202.6733 1924.5,-188 1942.0219,-180.4348 1944.5457,-174.4723 1962.5,-168 2035.5636,-141.6615 2058.1139,-150.6799 2133.5,-132 2134.9568,-131.639 2136.4446,-131.2589 2137.945,-130.8664"/>
<polygon fill="#191970" stroke="#191970" points="2139.1117,-134.1761 2147.8369,-128.166 2137.2681,-127.4232 2139.1117,-134.1761"/>
</g>
<!-- Node40 -->
<g id="node41" class="node">
<title>Node40</title>
<g id="a_node41"><a xlink:href="../../d7/dbe/VariantHelpers_8h.html" target="_top" xlink:title="Framework/VariantHelpers.h">
<polygon fill="none" stroke="#000000" points="630,-168.5 630,-187.5 785,-187.5 785,-168.5 630,-168.5"/>
<text text-anchor="middle" x="707.5" y="-175.5" font-family="Helvetica,sans-Serif" font-size="10.00" fill="#000000">Framework/VariantHelpers.h</text>
</a>
</g>
</g>
<!-- Node4&#45;&gt;Node40 -->
<g id="edge54" class="edge">
<title>Node4&#45;&gt;Node40</title>
<path fill="none" stroke="#191970" d="M1747.7281,-225.2638C1744.6131,-224.7847 1741.5129,-224.355 1738.5,-224 1715.2157,-221.2564 1040.4156,-192.2326 795.3487,-181.7498"/>
<polygon fill="#191970" stroke="#191970" points="795.1982,-178.2403 785.0578,-181.3097 794.8991,-185.2339 795.1982,-178.2403"/>
</g>
<!-- Node41 -->
<g id="node42" class="node">
<title>Node41</title>
<polygon fill="none" stroke="#bfbfbf" points="1971.5,-168.5 1971.5,-187.5 2027.5,-187.5 2027.5,-168.5 1971.5,-168.5"/>
<text text-anchor="middle" x="1999.5" y="-175.5" font-family="Helvetica,sans-Serif" font-size="10.00" fill="#000000">sstream</text>
</g>
<!-- Node4&#45;&gt;Node41 -->
<g id="edge56" class="edge">
<title>Node4&#45;&gt;Node41</title>
<path fill="none" stroke="#191970" d="M1826.4284,-224.3733C1864.1407,-214.2685 1923.1853,-198.448 1961.6158,-188.1508"/>
<polygon fill="#191970" stroke="#191970" points="1962.6413,-191.4995 1971.3947,-185.5306 1960.8296,-184.7381 1962.6413,-191.4995"/>
</g>
<!-- Node42 -->
<g id="node43" class="node">
<title>Node42</title>
<polygon fill="none" stroke="#bfbfbf" points="2045.5,-168.5 2045.5,-187.5 2113.5,-187.5 2113.5,-168.5 2045.5,-168.5"/>
<text text-anchor="middle" x="2079.5" y="-175.5" font-family="Helvetica,sans-Serif" font-size="10.00" fill="#000000">arrow/stl.h</text>
</g>
<!-- Node4&#45;&gt;Node42 -->
<g id="edge57" class="edge">
<title>Node4&#45;&gt;Node42</title>
<path fill="none" stroke="#191970" d="M1833.2751,-226.5854C1880.4201,-218.2835 1958.7295,-204.1127 2035.432,-188.1605"/>
<polygon fill="#191970" stroke="#191970" points="2036.1908,-191.5776 2045.2623,-186.1042 2034.7575,-184.7259 2036.1908,-191.5776"/>
</g>
<!-- Node43 -->
<g id="node44" class="node">
<title>Node43</title>
<polygon fill="none" stroke="#bfbfbf" points="2132,-168.5 2132,-187.5 2241,-187.5 2241,-168.5 2132,-168.5"/>
<text text-anchor="middle" x="2186.5" y="-175.5" font-family="Helvetica,sans-Serif" font-size="10.00" fill="#000000">arrow/type_traits.h</text>
</g>
<!-- Node4&#45;&gt;Node43 -->
<g id="edge58" class="edge">
<title>Node4&#45;&gt;Node43</title>
<path fill="none" stroke="#191970" d="M1833.2471,-228.3181C1894.6468,-220.1038 2011.6229,-204.2576 2121.7462,-188.0913"/>
<polygon fill="#191970" stroke="#191970" points="2122.3129,-191.5457 2131.6967,-186.6269 2121.2937,-184.6203 2122.3129,-191.5457"/>
</g>
<!-- Node44 -->
<g id="node45" class="node">
<title>Node44</title>
<polygon fill="none" stroke="#bfbfbf" points="2259,-168.5 2259,-187.5 2348,-187.5 2348,-168.5 2259,-168.5"/>
<text text-anchor="middle" x="2303.5" y="-175.5" font-family="Helvetica,sans-Serif" font-size="10.00" fill="#000000">arrow/builder.h</text>
</g>
<!-- Node4&#45;&gt;Node44 -->
<g id="edge60" class="edge">
<title>Node4&#45;&gt;Node44</title>
<path fill="none" stroke="#191970" d="M1833.1405,-230.9797C1912.8683,-225.0628 2090.1145,-210.6379 2248.7853,-188.1536"/>
<polygon fill="#191970" stroke="#191970" points="2249.323,-191.6124 2258.7262,-186.7308 2248.3311,-184.683 2249.323,-191.6124"/>
</g>
<!-- Node45 -->
<g id="node46" class="node">
<title>Node45</title>
<polygon fill="none" stroke="#bfbfbf" points="2366,-168.5 2366,-187.5 2413,-187.5 2413,-168.5 2366,-168.5"/>
<text text-anchor="middle" x="2389.5" y="-175.5" font-family="Helvetica,sans-Serif" font-size="10.00" fill="#000000">vector</text>
</g>
<!-- Node4&#45;&gt;Node45 -->
<g id="edge62" class="edge">
<title>Node4&#45;&gt;Node45</title>
<path fill="none" stroke="#191970" d="M1833.0114,-231.7769C1943.5413,-225.807 2238.9188,-208.5936 2355.7996,-187.9043"/>
<polygon fill="#191970" stroke="#191970" points="2356.6967,-191.2974 2365.8847,-186.0217 2355.4122,-184.4163 2356.6967,-191.2974"/>
</g>
<!-- Node6 -->
<g id="node7" class="node">
<title>Node6</title>
<g id="a_node7"><a xlink:href="../../dd/dce/Pack_8h.html" target="_top" xlink:title="Framework/Pack.h">
<polygon fill="none" stroke="#000000" points="266,-56.5 266,-75.5 371,-75.5 371,-56.5 266,-56.5"/>
<text text-anchor="middle" x="318.5" y="-63.5" font-family="Helvetica,sans-Serif" font-size="10.00" fill="#000000">Framework/Pack.h</text>
</a>
</g>
</g>
<!-- Node5&#45;&gt;Node6 -->
<g id="edge6" class="edge">
<title>Node5&#45;&gt;Node6</title>
<path fill="none" stroke="#191970" d="M1377.2217,-175.3893C1248.7689,-168.9691 929.0248,-151.5078 823.5,-132 792.9416,-126.3508 787.0006,-117.9535 756.5,-112 594.9523,-80.4668 548.8016,-96.7106 381.383,-76.0232"/>
<polygon fill="#191970" stroke="#191970" points="381.5912,-72.5218 371.2316,-74.7422 380.7148,-79.4667 381.5912,-72.5218"/>
</g>
<!-- Node10 -->
<g id="node11" class="node">
<title>Node10</title>
<g id="a_node11"><a xlink:href="../../d1/d00/CheckTypes_8h.html" target="_top" xlink:title="Framework/CheckTypes.h">
<polygon fill="none" stroke="#000000" points="389.5,-56.5 389.5,-75.5 529.5,-75.5 529.5,-56.5 389.5,-56.5"/>
<text text-anchor="middle" x="459.5" y="-63.5" font-family="Helvetica,sans-Serif" font-size="10.00" fill="#000000">Framework/CheckTypes.h</text>
</a>
</g>
</g>
<!-- Node5&#45;&gt;Node10 -->
<g id="edge10" class="edge">
<title>Node5&#45;&gt;Node10</title>
<path fill="none" stroke="#191970" d="M1377.365,-174.8919C1259.1607,-167.8647 981.1467,-149.9625 888.5,-132 858.8271,-126.247 853.0483,-118.3621 823.5,-112 701.8562,-85.8086 666.9257,-91.6885 539.8349,-76.1476"/>
<polygon fill="#191970" stroke="#191970" points="540.0667,-72.6496 529.7111,-74.8885 539.2026,-79.5961 540.0667,-72.6496"/>
</g>
<!-- Node5&#45;&gt;Node11 -->
<g id="edge11" class="edge">
<title>Node5&#45;&gt;Node11</title>
<path fill="none" stroke="#191970" d="M1377.3774,-174.4757C1234.8003,-165.1916 847.4618,-139.9696 666.7402,-128.2017"/>
<polygon fill="#191970" stroke="#191970" points="666.9213,-124.7062 656.715,-127.5489 666.4664,-131.6914 666.9213,-124.7062"/>
</g>
<!-- Node13 -->
<g id="node14" class="node">
<title>Node13</title>
<g id="a_node14"><a xlink:href="../../d9/de8/CompilerBuiltins_8h.html" target="_top" xlink:title="Framework/CompilerBuiltins.h">
<polygon fill="none" stroke="#000000" points="83.5,-56.5 83.5,-75.5 247.5,-75.5 247.5,-56.5 83.5,-56.5"/>
<text text-anchor="middle" x="165.5" y="-63.5" font-family="Helvetica,sans-Serif" font-size="10.00" fill="#000000">Framework/CompilerBuiltins.h</text>
</a>
</g>
</g>
<!-- Node5&#45;&gt;Node13 -->
<g id="edge14" class="edge">
<title>Node5&#45;&gt;Node13</title>
<path fill="none" stroke="#191970" d="M1377.4042,-177.0316C1262.5037,-174.3794 985.8502,-164.8333 756.5,-132 715.5082,-126.1317 706.4319,-118.2728 665.5,-112 488.384,-84.857 439.8368,-93.6324 258.005,-76.1218"/>
<polygon fill="#191970" stroke="#191970" points="258.1244,-72.6169 247.8315,-75.1282 257.4439,-79.5838 258.1244,-72.6169"/>
</g>
<!-- Node14 -->
<g id="node15" class="node">
<title>Node14</title>
<g id="a_node15"><a xlink:href="../../db/d31/Traits_8h.html" target="_top" xlink:title="Framework/Traits.h">
<polygon fill="none" stroke="#000000" points="1982,-112.5 1982,-131.5 2091,-131.5 2091,-112.5 1982,-112.5"/>
<text text-anchor="middle" x="2036.5" y="-119.5" font-family="Helvetica,sans-Serif" font-size="10.00" fill="#000000">Framework/Traits.h</text>
</a>
</g>
</g>
<!-- Node5&#45;&gt;Node14 -->
<g id="edge15" class="edge">
<title>Node5&#45;&gt;Node14</title>
<path fill="none" stroke="#191970" d="M1485.6215,-174.4036C1582.4543,-167.7355 1791.6759,-152.2681 1967.5,-132 1968.9655,-131.8311 1970.4479,-131.6555 1971.9421,-131.4745"/>
<polygon fill="#191970" stroke="#191970" points="1972.4445,-134.9389 1981.925,-130.2092 1971.5643,-127.9944 1972.4445,-134.9389"/>
</g>
<!-- Node16 -->
<g id="node17" class="node">
<title>Node16</title>
<g id="a_node17"><a xlink:href="../../d0/d91/Expressions_8h.html" target="_top" xlink:title="Framework/Expressions.h">
<polygon fill="none" stroke="#000000" points="898,-112.5 898,-131.5 1039,-131.5 1039,-112.5 898,-112.5"/>
<text text-anchor="middle" x="968.5" y="-119.5" font-family="Helvetica,sans-Serif" font-size="10.00" fill="#000000">Framework/Expressions.h</text>
</a>
</g>
</g>
<!-- Node5&#45;&gt;Node16 -->
<g id="edge17" class="edge">
<title>Node5&#45;&gt;Node16</title>
<path fill="none" stroke="#191970" d="M1377.4819,-171.4665C1296.5816,-161.6816 1143.4121,-143.1557 1049.2095,-131.7618"/>
<polygon fill="#191970" stroke="#191970" points="1049.5012,-128.2717 1039.1533,-130.5455 1048.6606,-135.2211 1049.5012,-128.2717"/>
</g>
<!-- Node5&#45;&gt;Node22 -->
<g id="edge42" class="edge">
<title>Node5&#45;&gt;Node22</title>
<path fill="none" stroke="#191970" d="M1485.6777,-173.9017C1542.0794,-168.3763 1624.8977,-156.2876 1644.5,-132 1657.9588,-115.3243 1638.7589,-95.3147 1620.793,-81.7317"/>
<polygon fill="#191970" stroke="#191970" points="1622.3959,-78.5762 1612.221,-75.6227 1618.3333,-84.2767 1622.3959,-78.5762"/>
</g>
<!-- Node23 -->
<g id="node24" class="node">
<title>Node23</title>
<polygon fill="none" stroke="#bfbfbf" points="1328,-56.5 1328,-75.5 1475,-75.5 1475,-56.5 1328,-56.5"/>
<text text-anchor="middle" x="1401.5" y="-63.5" font-family="Helvetica,sans-Serif" font-size="10.00" fill="#000000">gandiva/selection_vector.h</text>
</g>
<!-- Node5&#45;&gt;Node23 -->
<g id="edge47" class="edge">
<title>Node5&#45;&gt;Node23</title>
<path fill="none" stroke="#191970" d="M1377.1698,-173.6766C1293.4349,-166.4563 1140.745,-150.8605 1124.5,-132 1118.699,-125.265 1118.7525,-118.7807 1124.5,-112 1130.9046,-104.4441 1240.8526,-87.9379 1320.2716,-76.8937"/>
<polygon fill="#191970" stroke="#191970" points="1320.8582,-80.346 1330.2838,-75.5077 1319.8983,-73.4121 1320.8582,-80.346"/>
</g>
<!-- Node29 -->
<g id="node30" class="node">
<title>Node29</title>
<g id="a_node30"><a xlink:href="../../d0/d92/Kernels_8h.html" target="_top" xlink:title="Framework/Kernels.h">
<polygon fill="none" stroke="#000000" points="1768,-112.5 1768,-131.5 1887,-131.5 1887,-112.5 1768,-112.5"/>
<text text-anchor="middle" x="1827.5" y="-119.5" font-family="Helvetica,sans-Serif" font-size="10.00" fill="#000000">Framework/Kernels.h</text>
</a>
</g>
</g>
<!-- Node5&#45;&gt;Node29 -->
<g id="edge33" class="edge">
<title>Node5&#45;&gt;Node29</title>
<path fill="none" stroke="#191970" d="M1485.7318,-170.3309C1556.3808,-160.3401 1680.0132,-142.8567 1757.6209,-131.8819"/>
<polygon fill="#191970" stroke="#191970" points="1758.3755,-135.3101 1767.7869,-130.4443 1757.3953,-128.3791 1758.3755,-135.3101"/>
</g>
<!-- Node30 -->
<g id="node31" class="node">
<title>Node30</title>
<polygon fill="none" stroke="#bfbfbf" points="2116,-56.5 2116,-75.5 2249,-75.5 2249,-56.5 2116,-56.5"/>
<text text-anchor="middle" x="2182.5" y="-63.5" font-family="Helvetica,sans-Serif" font-size="10.00" fill="#000000">arrow/compute/kernel.h</text>
</g>
<!-- Node5&#45;&gt;Node30 -->
<g id="edge46" class="edge">
<title>Node5&#45;&gt;Node30</title>
<path fill="none" stroke="#191970" d="M1485.5332,-174.9392C1590.9306,-168.5938 1820.3048,-152.84 1896.5,-132 1916.8305,-126.4395 1919.4354,-118.4543 1939.5,-112 1971.0389,-101.8548 2052.8578,-87.225 2112.8759,-77.2041"/>
<polygon fill="#191970" stroke="#191970" points="2113.768,-80.604 2123.0595,-75.513 2112.6212,-73.6985 2113.768,-80.604"/>
</g>
<!-- Node33 -->
<g id="node34" class="node">
<title>Node33</title>
<polygon fill="none" stroke="#bfbfbf" points="2267.5,-56.5 2267.5,-75.5 2377.5,-75.5 2377.5,-56.5 2267.5,-56.5"/>
<text text-anchor="middle" x="2322.5" y="-63.5" font-family="Helvetica,sans-Serif" font-size="10.00" fill="#000000">arrow/util/variant.h</text>
</g>
<!-- Node5&#45;&gt;Node33 -->
<g id="edge44" class="edge">
<title>Node5&#45;&gt;Node33</title>
<path fill="none" stroke="#191970" d="M1485.7386,-175.4204C1597.2463,-169.7237 1848.7024,-154.7439 1931.5,-132 1951.4365,-126.5236 1953.6592,-117.8136 1973.5,-112 2092.9109,-77.011 2130.1948,-92.9897 2257.242,-76.1089"/>
<polygon fill="#191970" stroke="#191970" points="2257.9258,-79.548 2267.3573,-74.7212 2256.9744,-72.6129 2257.9258,-79.548"/>
</g>
<!-- Node34 -->
<g id="node35" class="node">
<title>Node34</title>
<g id="a_node35"><a xlink:href="../../d1/dc1/ArrowCompatibility_8h.html" target="_top" xlink:title="Framework/ArrowCompatibility.h">
<polygon fill="none" stroke="#000000" points="1133.5,-112.5 1133.5,-131.5 1309.5,-131.5 1309.5,-112.5 1133.5,-112.5"/>
<text text-anchor="middle" x="1221.5" y="-119.5" font-family="Helvetica,sans-Serif" font-size="10.00" fill="#000000">Framework/ArrowCompatibility.h</text>
</a>
</g>
</g>
<!-- Node5&#45;&gt;Node34 -->
<g id="edge40" class="edge">
<title>Node5&#45;&gt;Node34</title>
<path fill="none" stroke="#191970" d="M1395.3997,-168.3733C1359.8752,-158.9001 1305.512,-144.4032 1267.0381,-134.1435"/>
<polygon fill="#191970" stroke="#191970" points="1267.6934,-130.696 1257.1292,-131.5011 1265.8897,-137.4596 1267.6934,-130.696"/>
</g>
<!-- Node35 -->
<g id="node36" class="node">
<title>Node35</title>
<polygon fill="none" stroke="#bfbfbf" points="1327.5,-112.5 1327.5,-131.5 1407.5,-131.5 1407.5,-112.5 1327.5,-112.5"/>
<text text-anchor="middle" x="1367.5" y="-119.5" font-family="Helvetica,sans-Serif" font-size="10.00" fill="#000000">arrow/array.h</text>
</g>
<!-- Node5&#45;&gt;Node35 -->
<g id="edge43" class="edge">
<title>Node5&#45;&gt;Node35</title>
<path fill="none" stroke="#191970" d="M1420.3521,-168.2455C1410.9913,-160.0549 1397.4142,-148.1749 1386.3651,-138.5069"/>
<polygon fill="#191970" stroke="#191970" points="1388.3508,-135.5937 1378.5202,-131.6427 1383.7412,-140.8618 1388.3508,-135.5937"/>
</g>
<!-- Node36 -->
<g id="node37" class="node">
<title>Node36</title>
<polygon fill="none" stroke="#bfbfbf" points="1426,-112.5 1426,-131.5 1565,-131.5 1565,-112.5 1426,-112.5"/>
<text text-anchor="middle" x="1495.5" y="-119.5" font-family="Helvetica,sans-Serif" font-size="10.00" fill="#000000">arrow/compute/context.h</text>
</g>
<!-- Node5&#45;&gt;Node36 -->
<g id="edge45" class="edge">
<title>Node5&#45;&gt;Node36</title>
<path fill="none" stroke="#191970" d="M1442.6479,-168.2455C1452.0087,-160.0549 1465.5858,-148.1749 1476.6349,-138.5069"/>
<polygon fill="#191970" stroke="#191970" points="1479.2588,-140.8618 1484.4798,-131.6427 1474.6492,-135.5937 1479.2588,-140.8618"/>
</g>
<!-- Node37 -->
<g id="node38" class="node">
<title>Node37</title>
<polygon fill="none" stroke="#bfbfbf" points="1583.5,-112.5 1583.5,-131.5 1635.5,-131.5 1635.5,-112.5 1583.5,-112.5"/>
<text text-anchor="middle" x="1609.5" y="-119.5" font-family="Helvetica,sans-Serif" font-size="10.00" fill="#000000">cassert</text>
</g>
<!-- Node5&#45;&gt;Node37 -->
<g id="edge48" class="edge">
<title>Node5&#45;&gt;Node37</title>
<path fill="none" stroke="#191970" d="M1462.0993,-168.3733C1493.0873,-158.6242 1540.9867,-143.5547 1573.7147,-133.2583"/>
<polygon fill="#191970" stroke="#191970" points="1574.8604,-136.5671 1583.349,-130.2273 1572.7596,-129.8897 1574.8604,-136.5671"/>
</g>
<!-- Node7 -->
<g id="node8" class="node">
<title>Node7</title>
<polygon fill="none" stroke="#bfbfbf" points="225,-.5 225,-19.5 278,-19.5 278,-.5 225,-.5"/>
<text text-anchor="middle" x="251.5" y="-7.5" font-family="Helvetica,sans-Serif" font-size="10.00" fill="#000000">cstddef</text>
</g>
<!-- Node6&#45;&gt;Node7 -->
<g id="edge7" class="edge">
<title>Node6&#45;&gt;Node7</title>
<path fill="none" stroke="#191970" d="M306.8295,-56.2455C296.9339,-47.9746 282.5373,-35.9416 270.9099,-26.2232"/>
<polygon fill="#191970" stroke="#191970" points="272.9542,-23.3703 263.0368,-19.6427 268.465,-28.7413 272.9542,-23.3703"/>
</g>
<!-- Node8 -->
<g id="node9" class="node">
<title>Node8</title>
<polygon fill="none" stroke="#bfbfbf" points="296,-.5 296,-19.5 341,-19.5 341,-.5 296,-.5"/>
<text text-anchor="middle" x="318.5" y="-7.5" font-family="Helvetica,sans-Serif" font-size="10.00" fill="#000000">utility</text>
</g>
<!-- Node6&#45;&gt;Node8 -->
<g id="edge8" class="edge">
<title>Node6&#45;&gt;Node8</title>
<path fill="none" stroke="#191970" d="M318.5,-56.2455C318.5,-48.9382 318.5,-38.6944 318.5,-29.7046"/>
<polygon fill="#191970" stroke="#191970" points="322.0001,-29.6426 318.5,-19.6427 315.0001,-29.6427 322.0001,-29.6426"/>
</g>
<!-- Node9 -->
<g id="node10" class="node">
<title>Node9</title>
<polygon fill="none" stroke="#bfbfbf" points="359.5,-.5 359.5,-19.5 405.5,-19.5 405.5,-.5 359.5,-.5"/>
<text text-anchor="middle" x="382.5" y="-7.5" font-family="Helvetica,sans-Serif" font-size="10.00" fill="#000000">cstdio</text>
</g>
<!-- Node6&#45;&gt;Node9 -->
<g id="edge9" class="edge">
<title>Node6&#45;&gt;Node9</title>
<path fill="none" stroke="#191970" d="M329.6479,-56.2455C339.0087,-48.0549 352.5858,-36.1749 363.6349,-26.5069"/>
<polygon fill="#191970" stroke="#191970" points="366.2588,-28.8618 371.4798,-19.6427 361.6492,-23.5937 366.2588,-28.8618"/>
</g>
<!-- Node11&#45;&gt;Node6 -->
<g id="edge12" class="edge">
<title>Node11&#45;&gt;Node6</title>
<path fill="none" stroke="#191970" d="M528.2952,-112.4369C484.9053,-102.8328 417.9791,-88.0191 371.4274,-77.7152"/>
<polygon fill="#191970" stroke="#191970" points="372.0467,-74.2676 361.5266,-75.5237 370.5338,-81.1022 372.0467,-74.2676"/>
</g>
<!-- Node11&#45;&gt;Node12 -->
<g id="edge13" class="edge">
<title>Node11&#45;&gt;Node12</title>
<path fill="none" stroke="#191970" d="M486.1708,-117.7801C389.0266,-112.1464 225.4845,-100.1465 75.726,-75.9891"/>
<polygon fill="#191970" stroke="#191970" points="75.8596,-72.4646 65.4258,-74.3046 74.7298,-79.3728 75.8596,-72.4646"/>
</g>
<!-- Node15 -->
<g id="node16" class="node">
<title>Node15</title>
<polygon fill="none" stroke="#bfbfbf" points="2396,-56.5 2396,-75.5 2465,-75.5 2465,-56.5 2396,-56.5"/>
<text text-anchor="middle" x="2430.5" y="-63.5" font-family="Helvetica,sans-Serif" font-size="10.00" fill="#000000">type_traits</text>
</g>
<!-- Node14&#45;&gt;Node15 -->
<g id="edge16" class="edge">
<title>Node14&#45;&gt;Node15</title>
<path fill="none" stroke="#191970" d="M2091.1015,-114.0019C2095.9691,-113.3146 2100.8227,-112.6385 2105.5,-112 2227.085,-95.4023 2260.8249,-97.8376 2386.0037,-75.9377"/>
<polygon fill="#191970" stroke="#191970" points="2386.738,-79.3622 2395.9765,-74.1757 2385.5201,-72.469 2386.738,-79.3622"/>
</g>
<!-- Node16&#45;&gt;Node6 -->
<g id="edge20" class="edge">
<title>Node16&#45;&gt;Node6</title>
<path fill="none" stroke="#191970" d="M897.7314,-116.7911C759.4003,-106.5636 460.4319,-84.2211 381.2642,-75.924"/>
<polygon fill="#191970" stroke="#191970" points="381.5501,-72.4343 371.2239,-74.8049 380.7746,-79.3912 381.5501,-72.4343"/>
</g>
<!-- Node16&#45;&gt;Node10 -->
<g id="edge21" class="edge">
<title>Node16&#45;&gt;Node10</title>
<path fill="none" stroke="#191970" d="M897.6804,-114.2866C890.5259,-113.5121 883.3689,-112.7391 876.5,-112 729.5222,-96.1849 690.2299,-93.5941 539.7757,-76.1317"/>
<polygon fill="#191970" stroke="#191970" points="540.04,-72.6389 529.7025,-74.9596 539.2309,-79.592 540.04,-72.6389"/>
</g>
<!-- Node16&#45;&gt;Node13 -->
<g id="edge19" class="edge">
<title>Node16&#45;&gt;Node13</title>
<path fill="none" stroke="#191970" d="M897.9322,-118.494C771.7099,-111.9916 498.7117,-96.88 257.8218,-76.0823"/>
<polygon fill="#191970" stroke="#191970" points="258.0888,-72.5924 247.8235,-75.2142 257.4833,-79.5662 258.0888,-72.5924"/>
</g>
<!-- Node17 -->
<g id="node18" class="node">
<title>Node17</title>
<g id="a_node18"><a xlink:href="../../dd/dc2/BasicOps_8h.html" target="_top" xlink:title="Framework/BasicOps.h">
<polygon fill="none" stroke="#000000" points="1731.5,-56.5 1731.5,-75.5 1859.5,-75.5 1859.5,-56.5 1731.5,-56.5"/>
<text text-anchor="middle" x="1795.5" y="-63.5" font-family="Helvetica,sans-Serif" font-size="10.00" fill="#000000">Framework/BasicOps.h</text>
</a>
</g>
</g>
<!-- Node16&#45;&gt;Node17 -->
<g id="edge18" class="edge">
<title>Node16&#45;&gt;Node17</title>
<path fill="none" stroke="#191970" d="M1039.1647,-117.4119C1065.8983,-115.6914 1096.6007,-113.734 1124.5,-112 1386.8725,-95.6932 1455.7819,-101.9231 1721.1051,-76.0693"/>
<polygon fill="#191970" stroke="#191970" points="1721.8278,-79.5153 1731.4384,-75.056 1721.1445,-72.5488 1721.8278,-79.5153"/>
</g>
<!-- Node18 -->
<g id="node19" class="node">
<title>Node18</title>
<polygon fill="none" stroke="#bfbfbf" points="1044,-56.5 1044,-75.5 1145,-75.5 1145,-56.5 1044,-56.5"/>
<text text-anchor="middle" x="1094.5" y="-63.5" font-family="Helvetica,sans-Serif" font-size="10.00" fill="#000000">arrow/type_fwd.h</text>
</g>
<!-- Node16&#45;&gt;Node18 -->
<g id="edge22" class="edge">
<title>Node16&#45;&gt;Node18</title>
<path fill="none" stroke="#191970" d="M990.1602,-112.3733C1010.4772,-103.3435 1041.064,-89.7494 1063.875,-79.6111"/>
<polygon fill="#191970" stroke="#191970" points="1065.4059,-82.7609 1073.1225,-75.5011 1062.5628,-76.3642 1065.4059,-82.7609"/>
</g>
<!-- Node19 -->
<g id="node20" class="node">
<title>Node19</title>
<polygon fill="none" stroke="#bfbfbf" points="1163.5,-56.5 1163.5,-75.5 1309.5,-75.5 1309.5,-56.5 1163.5,-56.5"/>
<text text-anchor="middle" x="1236.5" y="-63.5" font-family="Helvetica,sans-Serif" font-size="10.00" fill="#000000">gandiva/gandiva_aliases.h</text>
</g>
<!-- Node16&#45;&gt;Node19 -->
<g id="edge23" class="edge">
<title>Node16&#45;&gt;Node19</title>
<path fill="none" stroke="#191970" d="M1014.2663,-112.4369C1060.4215,-102.7925 1131.7178,-87.8948 1181.0537,-77.5858"/>
<polygon fill="#191970" stroke="#191970" points="1181.8498,-80.9951 1190.9224,-75.5237 1180.4179,-74.1431 1181.8498,-80.9951"/>
</g>
<!-- Node20 -->
<g id="node21" class="node">
<title>Node20</title>
<polygon fill="none" stroke="#bfbfbf" points="547.5,-56.5 547.5,-75.5 625.5,-75.5 625.5,-56.5 547.5,-56.5"/>
<text text-anchor="middle" x="586.5" y="-63.5" font-family="Helvetica,sans-Serif" font-size="10.00" fill="#000000">arrow/type.h</text>
</g>
<!-- Node16&#45;&gt;Node20 -->
<g id="edge24" class="edge">
<title>Node16&#45;&gt;Node20</title>
<path fill="none" stroke="#191970" d="M897.9108,-113.704C832.4103,-105.6809 731.9937,-92.5572 635.6601,-76.1118"/>
<polygon fill="#191970" stroke="#191970" points="636.1998,-72.6533 625.7509,-74.4058 635.012,-79.5518 636.1998,-72.6533"/>
</g>
<!-- Node21 -->
<g id="node22" class="node">
<title>Node21</title>
<polygon fill="none" stroke="#bfbfbf" points="644,-56.5 644,-75.5 739,-75.5 739,-56.5 644,-56.5"/>
<text text-anchor="middle" x="691.5" y="-63.5" font-family="Helvetica,sans-Serif" font-size="10.00" fill="#000000">gandiva/arrow.h</text>
</g>
<!-- Node16&#45;&gt;Node21 -->
<g id="edge25" class="edge">
<title>Node16&#45;&gt;Node21</title>
<path fill="none" stroke="#191970" d="M921.1967,-112.4369C873.392,-102.7724 799.4932,-87.8326 748.4892,-77.5213"/>
<polygon fill="#191970" stroke="#191970" points="749.1034,-74.0747 738.6082,-75.5237 747.7163,-80.9359 749.1034,-74.0747"/>
</g>
<!-- Node16&#45;&gt;Node22 -->
<g id="edge26" class="edge">
<title>Node16&#45;&gt;Node22</title>
<path fill="none" stroke="#191970" d="M1039.0616,-117.4316C1166.9933,-108.9804 1433.5706,-90.5536 1545.8533,-75.896"/>
<polygon fill="#191970" stroke="#191970" points="1546.4692,-79.3446 1555.9092,-74.5346 1545.53,-72.4079 1546.4692,-79.3446"/>
</g>
<!-- Node16&#45;&gt;Node23 -->
<g id="edge27" class="edge">
<title>Node16&#45;&gt;Node23</title>
<path fill="none" stroke="#191970" d="M1039.0326,-112.878C1115.215,-103.0253 1236.5328,-87.3352 1317.5664,-76.8552"/>
<polygon fill="#191970" stroke="#191970" points="1318.2676,-80.2937 1327.736,-75.5399 1317.3697,-73.3515 1318.2676,-80.2937"/>
</g>
<!-- Node24 -->
<g id="node25" class="node">
<title>Node24</title>
<polygon fill="none" stroke="#bfbfbf" points="757.5,-56.5 757.5,-75.5 849.5,-75.5 849.5,-56.5 757.5,-56.5"/>
<text text-anchor="middle" x="803.5" y="-63.5" font-family="Helvetica,sans-Serif" font-size="10.00" fill="#000000">gandiva/node.h</text>
</g>
<!-- Node16&#45;&gt;Node24 -->
<g id="edge28" class="edge">
<title>Node16&#45;&gt;Node24</title>
<path fill="none" stroke="#191970" d="M940.1355,-112.3733C912.8173,-103.1016 871.3204,-89.0178 841.2262,-78.804"/>
<polygon fill="#191970" stroke="#191970" points="842.0887,-75.4008 831.4944,-75.5011 839.839,-82.0294 842.0887,-75.4008"/>
</g>
<!-- Node25 -->
<g id="node26" class="node">
<title>Node25</title>
<polygon fill="none" stroke="#bfbfbf" points="868,-56.5 868,-75.5 957,-75.5 957,-56.5 868,-56.5"/>
<text text-anchor="middle" x="912.5" y="-63.5" font-family="Helvetica,sans-Serif" font-size="10.00" fill="#000000">gandiva/filter.h</text>
</g>
<!-- Node16&#45;&gt;Node25 -->
<g id="edge29" class="edge">
<title>Node16&#45;&gt;Node25</title>
<path fill="none" stroke="#191970" d="M958.7455,-112.2455C950.6352,-104.1352 938.9075,-92.4075 929.2919,-82.7919"/>
<polygon fill="#191970" stroke="#191970" points="931.6887,-80.2389 922.1427,-75.6427 926.7389,-85.1887 931.6887,-80.2389"/>
</g>
<!-- Node26 -->
<g id="node27" class="node">
<title>Node26</title>
<polygon fill="none" stroke="#bfbfbf" points="975,-56.5 975,-75.5 1026,-75.5 1026,-56.5 975,-56.5"/>
<text text-anchor="middle" x="1000.5" y="-63.5" font-family="Helvetica,sans-Serif" font-size="10.00" fill="#000000">variant</text>
</g>
<!-- Node16&#45;&gt;Node26 -->
<g id="edge30" class="edge">
<title>Node16&#45;&gt;Node26</title>
<path fill="none" stroke="#191970" d="M974.074,-112.2455C978.4331,-104.617 984.6211,-93.7881 989.9133,-84.5267"/>
<polygon fill="#191970" stroke="#191970" points="993.0673,-86.0616 994.9899,-75.6427 986.9896,-82.5886 993.0673,-86.0616"/>
</g>
<!-- Node16&#45;&gt;Node27 -->
<g id="edge31" class="edge">
<title>Node16&#45;&gt;Node27</title>
<path fill="none" stroke="#191970" d="M1039.4417,-113.4734C1044.1975,-112.9575 1048.917,-112.4613 1053.5,-112 1244.3155,-92.7934 1295.2886,-112.8228 1483.5,-76 1483.6,-75.9804 1483.7001,-75.9607 1483.8003,-75.9407"/>
<polygon fill="#191970" stroke="#191970" points="1484.3955,-79.3982 1493.2811,-73.6279 1482.7364,-72.5977 1484.3955,-79.3982"/>
</g>
<!-- Node16&#45;&gt;Node28 -->
<g id="edge32" class="edge">
<title>Node16&#45;&gt;Node28</title>
<path fill="none" stroke="#191970" d="M1039.1152,-117.3723C1198.2543,-106.9224 1575.8486,-82.0027 1645.2839,-75.2666"/>
<polygon fill="#191970" stroke="#191970" points="1645.7016,-78.7418 1655.2337,-74.117 1644.8981,-71.788 1645.7016,-78.7418"/>
</g>
<!-- Node29&#45;&gt;Node17 -->
<g id="edge34" class="edge">
<title>Node29&#45;&gt;Node17</title>
<path fill="none" stroke="#191970" d="M1821.926,-112.2455C1817.5669,-104.617 1811.3789,-93.7881 1806.0867,-84.5267"/>
<polygon fill="#191970" stroke="#191970" points="1809.0104,-82.5886 1801.0101,-75.6427 1802.9327,-86.0616 1809.0104,-82.5886"/>
</g>
<!-- Node29&#45;&gt;Node27 -->
<g id="edge39" class="edge">
<title>Node29&#45;&gt;Node27</title>
<path fill="none" stroke="#191970" d="M1767.7772,-114.8633C1712.7715,-107.6952 1628.813,-95.2539 1547.6227,-75.9961"/>
<polygon fill="#191970" stroke="#191970" points="1548.279,-72.5542 1537.7373,-73.6137 1546.6389,-79.3593 1548.279,-72.5542"/>
</g>
<!-- Node29&#45;&gt;Node30 -->
<g id="edge35" class="edge">
<title>Node29&#45;&gt;Node30</title>
<path fill="none" stroke="#191970" d="M1887.3195,-112.5637C1949.3106,-102.7848 2046.1556,-87.5078 2111.8689,-77.1418"/>
<polygon fill="#191970" stroke="#191970" points="2112.8057,-80.5374 2122.1381,-75.5219 2111.7149,-73.6229 2112.8057,-80.5374"/>
</g>
<!-- Node31 -->
<g id="node32" class="node">
<title>Node31</title>
<polygon fill="none" stroke="#bfbfbf" points="1877.5,-56.5 1877.5,-75.5 1963.5,-75.5 1963.5,-56.5 1877.5,-56.5"/>
<text text-anchor="middle" x="1920.5" y="-63.5" font-family="Helvetica,sans-Serif" font-size="10.00" fill="#000000">arrow/status.h</text>
</g>
<!-- Node29&#45;&gt;Node31 -->
<g id="edge36" class="edge">
<title>Node29&#45;&gt;Node31</title>
<path fill="none" stroke="#191970" d="M1843.6994,-112.2455C1858.1018,-103.5731 1879.3732,-90.7645 1895.8799,-80.825"/>
<polygon fill="#191970" stroke="#191970" points="1897.725,-83.7996 1904.4863,-75.6427 1894.114,-77.8028 1897.725,-83.7996"/>
</g>
<!-- Node32 -->
<g id="node33" class="node">
<title>Node32</title>
<polygon fill="none" stroke="#bfbfbf" points="1981.5,-56.5 1981.5,-75.5 2097.5,-75.5 2097.5,-56.5 1981.5,-56.5"/>
<text text-anchor="middle" x="2039.5" y="-63.5" font-family="Helvetica,sans-Serif" font-size="10.00" fill="#000000">arrow/util/visibility.h</text>
</g>
<!-- Node29&#45;&gt;Node32 -->
<g id="edge37" class="edge">
<title>Node29&#45;&gt;Node32</title>
<path fill="none" stroke="#191970" d="M1863.9441,-112.3733C1899.8069,-102.9001 1954.6878,-88.4032 1993.5282,-78.1435"/>
<polygon fill="#191970" stroke="#191970" points="1994.757,-81.439 2003.5315,-75.5011 1992.9692,-74.6712 1994.757,-81.439"/>
</g>
<!-- Node29&#45;&gt;Node33 -->
<g id="edge38" class="edge">
<title>Node29&#45;&gt;Node33</title>
<path fill="none" stroke="#191970" d="M1887.2195,-116.5528C1968.5666,-108.927 2118.9936,-94.0946 2257.4216,-76.0907"/>
<polygon fill="#191970" stroke="#191970" points="2257.9054,-79.5573 2267.3665,-74.789 2256.9968,-72.6165 2257.9054,-79.5573"/>
</g>
<!-- Node34&#45;&gt;Node22 -->
<g id="edge41" class="edge">
<title>Node34&#45;&gt;Node22</title>
<path fill="none" stroke="#191970" d="M1297.5363,-112.4793C1361.2023,-104.2219 1454.6846,-91.4349 1545.9148,-76.0206"/>
<polygon fill="#191970" stroke="#191970" points="1546.6057,-79.4534 1555.8768,-74.3252 1545.4313,-72.5526 1546.6057,-79.4534"/>
</g>
<!-- Node38&#45;&gt;Node14 -->
<g id="edge50" class="edge">
<title>Node38&#45;&gt;Node14</title>
<path fill="none" stroke="#191970" d="M1875.0217,-168.3733C1907.8683,-158.9404 1958.0595,-144.5265 1993.7578,-134.2747"/>
<polygon fill="#191970" stroke="#191970" points="1994.7703,-137.6255 2003.4157,-131.5011 1992.8381,-130.8974 1994.7703,-137.6255"/>
</g>
<!-- Node38&#45;&gt;Node15 -->
<g id="edge52" class="edge">
<title>Node38&#45;&gt;Node15</title>
<path fill="none" stroke="#191970" d="M1907.9365,-168.4995C1972.4909,-158.8546 2065.7129,-143.7142 2100.5,-132 2118.9611,-125.7834 2120.9447,-117.9293 2139.5,-112 2242.1809,-79.1888 2275.5508,-95.3265 2386.0998,-75.9092"/>
<polygon fill="#191970" stroke="#191970" points="2386.7518,-79.3482 2395.9662,-74.1187 2385.5019,-72.4606 2386.7518,-79.3482"/>
</g>
<!-- Node38&#45;&gt;Node39 -->
<g id="edge51" class="edge">
<title>Node38&#45;&gt;Node39</title>
<path fill="none" stroke="#191970" d="M1915.1662,-168.9282C1974.4883,-161.016 2059.8338,-148.2625 2133.5,-132 2134.9656,-131.6765 2136.4605,-131.3269 2137.9667,-130.9589"/>
<polygon fill="#191970" stroke="#191970" points="2139.1023,-134.2791 2147.8785,-128.3437 2137.3164,-127.5107 2139.1023,-134.2791"/>
</g>
<!-- Node40&#45;&gt;Node13 -->
<g id="edge55" class="edge">
<title>Node40&#45;&gt;Node13</title>
<path fill="none" stroke="#191970" d="M659.0083,-168.4636C612.4393,-159.267 540.1206,-144.885 477.5,-132 387.0897,-113.3969 282.1124,-91.0322 219.8863,-77.6953"/>
<polygon fill="#191970" stroke="#191970" points="220.4129,-74.2288 209.9013,-75.5541 218.9451,-81.0732 220.4129,-74.2288"/>
</g>
</g>
</svg>
