<?xml version="1.0" encoding="UTF-8" standalone="no"?>
<!DOCTYPE svg PUBLIC "-//W3C//DTD SVG 1.1//EN"
 "http://www.w3.org/Graphics/SVG/1.1/DTD/svg11.dtd">
<!-- Generated by graphviz version 2.40.1 (20161225.0304)
 -->
<!-- Title: GPUCA_NAMESPACE::gpu::GPUCommonMath Pages: 1 -->
<!--zoomable 589 -->
<svg id="main" version="1.1" xmlns="http://www.w3.org/2000/svg" xmlns:xlink="http://www.w3.org/1999/xlink" xml:space="preserve" onload="init(evt)">
<style type="text/css"><![CDATA[
.edge:hover path { stroke: red; }
.edge:hover polygon { stroke: red; fill: red; }
]]></style>
<script type="text/javascript"><![CDATA[
var edges = document.getElementsByTagName('g');
if (edges && edges.length) {
  for (var i=0;i<edges.length;i++) {
    if (edges[i].id.substr(0,4)=='edge') {
      edges[i].setAttribute('class','edge');
    }
  }
}
]]></script>
        <defs>
                <circle id="rim" cx="0" cy="0" r="7"/>
                <circle id="rim2" cx="0" cy="0" r="3.5"/>
                <g id="zoomPlus">
                        <use xlink:href="#rim" fill="#404040">
                                <set attributeName="fill" to="#808080" begin="zoomplus.mouseover" end="zoomplus.mouseout"/>
                        </use>
                        <path d="M-4,0h8M0,-4v8" fill="none" stroke="white" stroke-width="1.5" pointer-events="none"/>
                </g>
                <g id="zoomMin">
                        <use xlink:href="#rim" fill="#404040">
                                <set attributeName="fill" to="#808080" begin="zoomminus.mouseover" end="zoomminus.mouseout"/>
                        </use>
                        <path d="M-4,0h8" fill="none" stroke="white" stroke-width="1.5" pointer-events="none"/>
                </g>
                <g id="dirArrow">
                        <path fill="none" stroke="white" stroke-width="1.5" d="M0,-3.0v7 M-2.5,-0.5L0,-3.0L2.5,-0.5"/>
                </g>
               <g id="resetDef">
                       <use xlink:href="#rim2" fill="#404040">
                               <set attributeName="fill" to="#808080" begin="reset.mouseover" end="reset.mouseout"/>
                       </use>
               </g>
        </defs>

<script type="text/javascript">
var viewWidth = 349;
var viewHeight = 589;
var sectionId = 'dynsection-0';
</script>
<script xlink:href="../../svgpan.js"/>
<svg id="graph" class="graph">
<g id="viewport">
<title>GPUCA_NAMESPACE::gpu::GPUCommonMath</title>
<!-- Node1 -->
<g id="node1" class="node">
<title>Node1</title>
<polygon fill="#bfbfbf" stroke="#000000" points="100,-.5 100,-431.5 240,-431.5 240,-.5 100,-.5"/>
<text text-anchor="start" x="108" y="-419.5" font-family="Helvetica,sans-Serif" font-size="10.00" fill="#000000">GPUCA_NAMESPACE::gpu</text>
<text text-anchor="middle" x="170" y="-408.5" font-family="Helvetica,sans-Serif" font-size="10.00" fill="#000000">::GPUCommonMath</text>
<polyline fill="none" stroke="#000000" points="100,-401.5 240,-401.5 "/>
<text text-anchor="middle" x="170" y="-389.5" font-family="Helvetica,sans-Serif" font-size="10.00" fill="#000000"> </text>
<polyline fill="none" stroke="#000000" points="100,-382.5 240,-382.5 "/>
<text text-anchor="start" x="108" y="-370.5" font-family="Helvetica,sans-Serif" font-size="10.00" fill="#000000">+ GPUhdni()</text>
<text text-anchor="start" x="108" y="-359.5" font-family="Helvetica,sans-Serif" font-size="10.00" fill="#000000">+ GPUhd()</text>
<text text-anchor="start" x="108" y="-348.5" font-family="Helvetica,sans-Serif" font-size="10.00" fill="#000000">+ GPUhd()</text>
<text text-anchor="start" x="108" y="-337.5" font-family="Helvetica,sans-Serif" font-size="10.00" fill="#000000">+ GPUhd()</text>
<text text-anchor="start" x="108" y="-326.5" font-family="Helvetica,sans-Serif" font-size="10.00" fill="#000000">+ GPUhd()</text>
<text text-anchor="start" x="108" y="-315.5" font-family="Helvetica,sans-Serif" font-size="10.00" fill="#000000">+ GPUhdni()</text>
<text text-anchor="start" x="108" y="-304.5" font-family="Helvetica,sans-Serif" font-size="10.00" fill="#000000">+ GPUhd()</text>
<text text-anchor="start" x="108" y="-293.5" font-family="Helvetica,sans-Serif" font-size="10.00" fill="#000000">+ GPUhdni()</text>
<text text-anchor="start" x="108" y="-282.5" font-family="Helvetica,sans-Serif" font-size="10.00" fill="#000000">+ GPUhdni()</text>
<text text-anchor="start" x="108" y="-271.5" font-family="Helvetica,sans-Serif" font-size="10.00" fill="#000000">+ GPUhdni()</text>
<text text-anchor="start" x="108" y="-260.5" font-family="Helvetica,sans-Serif" font-size="10.00" fill="#000000">+ GPUhdni()</text>
<text text-anchor="start" x="108" y="-249.5" font-family="Helvetica,sans-Serif" font-size="10.00" fill="#000000">+ GPUhdni()</text>
<text text-anchor="start" x="108" y="-238.5" font-family="Helvetica,sans-Serif" font-size="10.00" fill="#000000">+ GPUhdni()</text>
<text text-anchor="start" x="108" y="-227.5" font-family="Helvetica,sans-Serif" font-size="10.00" fill="#000000">+ GPUhdni()</text>
<text text-anchor="start" x="108" y="-216.5" font-family="Helvetica,sans-Serif" font-size="10.00" fill="#000000">+ GPUhdni()</text>
<text text-anchor="start" x="108" y="-205.5" font-family="Helvetica,sans-Serif" font-size="10.00" fill="#000000">+ GPUhdni()</text>
<text text-anchor="start" x="108" y="-194.5" font-family="Helvetica,sans-Serif" font-size="10.00" fill="#000000">+ GPUhdni()</text>
<text text-anchor="start" x="108" y="-183.5" font-family="Helvetica,sans-Serif" font-size="10.00" fill="#000000">+ GPUhdni()</text>
<text text-anchor="start" x="108" y="-172.5" font-family="Helvetica,sans-Serif" font-size="10.00" fill="#000000">+ GPUhdni()</text>
<text text-anchor="start" x="108" y="-161.5" font-family="Helvetica,sans-Serif" font-size="10.00" fill="#000000">+ GPUhdni()</text>
<text text-anchor="start" x="108" y="-150.5" font-family="Helvetica,sans-Serif" font-size="10.00" fill="#000000">+ GPUhdni()</text>
<text text-anchor="start" x="108" y="-139.5" font-family="Helvetica,sans-Serif" font-size="10.00" fill="#000000">+ GPUhdni()</text>
<text text-anchor="start" x="108" y="-128.5" font-family="Helvetica,sans-Serif" font-size="10.00" fill="#000000">+ GPUhdni()</text>
<text text-anchor="start" x="108" y="-117.5" font-family="Helvetica,sans-Serif" font-size="10.00" fill="#000000">+ GPUdi()</text>
<text text-anchor="start" x="108" y="-106.5" font-family="Helvetica,sans-Serif" font-size="10.00" fill="#000000">+ GPUdi()</text>
<text text-anchor="start" x="108" y="-95.5" font-family="Helvetica,sans-Serif" font-size="10.00" fill="#000000">+ GPUdi()</text>
<text text-anchor="start" x="108" y="-84.5" font-family="Helvetica,sans-Serif" font-size="10.00" fill="#000000">+ GPUdi()</text>
<text text-anchor="start" x="108" y="-73.5" font-family="Helvetica,sans-Serif" font-size="10.00" fill="#000000">+ GPUdi()</text>
<text text-anchor="start" x="108" y="-62.5" font-family="Helvetica,sans-Serif" font-size="10.00" fill="#000000">+ GPUdi()</text>
<text text-anchor="start" x="108" y="-51.5" font-family="Helvetica,sans-Serif" font-size="10.00" fill="#000000">+ GPUdi()</text>
<text text-anchor="start" x="108" y="-40.5" font-family="Helvetica,sans-Serif" font-size="10.00" fill="#000000">+ GPUdi()</text>
<text text-anchor="start" x="108" y="-29.5" font-family="Helvetica,sans-Serif" font-size="10.00" fill="#000000">+ GPUd()</text>
<text text-anchor="start" x="108" y="-18.5" font-family="Helvetica,sans-Serif" font-size="10.00" fill="#000000">+ GPUd()</text>
<text text-anchor="start" x="108" y="-7.5" font-family="Helvetica,sans-Serif" font-size="10.00" fill="#000000">+ GPUd()</text>
</g>
<!-- Node2 -->
<g id="node2" class="node">
<title>Node2</title>
<polygon fill="none" stroke="#bfbfbf" points="0,-523.5 0,-580.5 50,-580.5 50,-523.5 0,-523.5"/>
<text text-anchor="middle" x="25" y="-568.5" font-family="Helvetica,sans-Serif" font-size="10.00" fill="#000000">double</text>
<polyline fill="none" stroke="#bfbfbf" points="0,-561.5 50,-561.5 "/>
<text text-anchor="middle" x="25" y="-549.5" font-family="Helvetica,sans-Serif" font-size="10.00" fill="#000000"> </text>
<polyline fill="none" stroke="#bfbfbf" points="0,-542.5 50,-542.5 "/>
<text text-anchor="middle" x="25" y="-530.5" font-family="Helvetica,sans-Serif" font-size="10.00" fill="#000000"> </text>
</g>
<!-- Node2&#45;&gt;Node1 -->
<g id="edge1" class="edge">
<title>Node2&#45;&gt;Node1</title>
<path fill="none" stroke="#404040" d="M37.3626,-523.3528C50.5979,-492.6835 72.7384,-441.3785 95.1761,-389.3851"/>
<polygon fill="none" stroke="#404040" points="95.2107,-389.3048 93.9154,-382.211 99.9654,-378.287 101.2607,-385.3808 95.2107,-389.3048"/>
<text text-anchor="middle" x="76.5" y="-480.5" font-family="Helvetica,sans-Serif" font-size="10.00" fill="#000000"> +s</text>
<text text-anchor="middle" x="76.5" y="-469.5" font-family="Helvetica,sans-Serif" font-size="10.00" fill="#000000">+c</text>
</g>
<!-- Node3 -->
<g id="node3" class="node">
<title>Node3</title>
<g id="a_node3"><a xlink:href="../../d4/dc3/classfloat.html" target="_top" xlink:title="{float\n||}">
<polygon fill="none" stroke="#000000" points="68,-523.5 68,-580.5 106,-580.5 106,-523.5 68,-523.5"/>
<text text-anchor="middle" x="87" y="-568.5" font-family="Helvetica,sans-Serif" font-size="10.00" fill="#000000">float</text>
<polyline fill="none" stroke="#000000" points="68,-561.5 106,-561.5 "/>
<text text-anchor="middle" x="87" y="-549.5" font-family="Helvetica,sans-Serif" font-size="10.00" fill="#000000"> </text>
<polyline fill="none" stroke="#000000" points="68,-542.5 106,-542.5 "/>
<text text-anchor="middle" x="87" y="-530.5" font-family="Helvetica,sans-Serif" font-size="10.00" fill="#000000"> </text>
</a>
</g>
</g>
<!-- Node3&#45;&gt;Node1 -->
<g id="edge2" class="edge">
<title>Node3&#45;&gt;Node1</title>
<path fill="none" stroke="#404040" d="M94.0765,-523.3528C98.9646,-503.565 105.9747,-475.1868 113.7833,-443.5759"/>
<polygon fill="none" stroke="#404040" points="113.816,-443.4433 111.3717,-436.6591 116.6939,-431.7935 119.1382,-438.5777 113.816,-443.4433"/>
<text text-anchor="middle" x="121" y="-497" font-family="Helvetica,sans-Serif" font-size="10.00" fill="#000000"> +b</text>
<text text-anchor="middle" x="121" y="-486" font-family="Helvetica,sans-Serif" font-size="10.00" fill="#000000">+s</text>
<text text-anchor="middle" x="121" y="-475" font-family="Helvetica,sans-Serif" font-size="10.00" fill="#000000">+c</text>
<text text-anchor="middle" x="121" y="-464" font-family="Helvetica,sans-Serif" font-size="10.00" fill="#000000">+x</text>
<text text-anchor="middle" x="121" y="-453" font-family="Helvetica,sans-Serif" font-size="10.00" fill="#000000">+y</text>
</g>
<!-- Node4 -->
<g id="node4" class="node">
<title>Node4</title>
<polygon fill="none" stroke="#bfbfbf" points="124.5,-523.5 124.5,-580.5 153.5,-580.5 153.5,-523.5 124.5,-523.5"/>
<text text-anchor="middle" x="139" y="-568.5" font-family="Helvetica,sans-Serif" font-size="10.00" fill="#000000">int</text>
<polyline fill="none" stroke="#bfbfbf" points="124.5,-561.5 153.5,-561.5 "/>
<text text-anchor="middle" x="139" y="-549.5" font-family="Helvetica,sans-Serif" font-size="10.00" fill="#000000"> </text>
<polyline fill="none" stroke="#bfbfbf" points="124.5,-542.5 153.5,-542.5 "/>
<text text-anchor="middle" x="139" y="-530.5" font-family="Helvetica,sans-Serif" font-size="10.00" fill="#000000"> </text>
</g>
<!-- Node4&#45;&gt;Node1 -->
<g id="edge3" class="edge">
<title>Node4&#45;&gt;Node1</title>
<path fill="none" stroke="#404040" d="M141.643,-523.3528C143.4607,-503.6518 146.064,-475.4356 148.9651,-443.9917"/>
<polygon fill="none" stroke="#404040" points="148.9879,-443.7427 145.5561,-437.4006 150.0905,-431.7935 153.5223,-438.1356 148.9879,-443.7427"/>
<text text-anchor="middle" x="157" y="-475" font-family="Helvetica,sans-Serif" font-size="10.00" fill="#000000"> +b</text>
</g>
<!-- Node5 -->
<g id="node5" class="node">
<title>Node5</title>
<polygon fill="none" stroke="#bfbfbf" points="171.5,-523.5 171.5,-580.5 232.5,-580.5 232.5,-523.5 171.5,-523.5"/>
<text text-anchor="middle" x="202" y="-568.5" font-family="Helvetica,sans-Serif" font-size="10.00" fill="#000000">unsigned</text>
<polyline fill="none" stroke="#bfbfbf" points="171.5,-561.5 232.5,-561.5 "/>
<text text-anchor="middle" x="202" y="-549.5" font-family="Helvetica,sans-Serif" font-size="10.00" fill="#000000"> </text>
<polyline fill="none" stroke="#bfbfbf" points="171.5,-542.5 232.5,-542.5 "/>
<text text-anchor="middle" x="202" y="-530.5" font-family="Helvetica,sans-Serif" font-size="10.00" fill="#000000"> </text>
</g>
<!-- Node5&#45;&gt;Node1 -->
<g id="edge4" class="edge">
<title>Node5&#45;&gt;Node1</title>
<path fill="none" stroke="#404040" d="M199.2717,-523.3528C197.3954,-503.6518 194.7082,-475.4356 191.7135,-443.9917"/>
<polygon fill="none" stroke="#404040" points="191.6896,-443.7394 187.1387,-438.1457 190.5518,-431.7935 195.1026,-437.3872 191.6896,-443.7394"/>
<text text-anchor="middle" x="210.5" y="-475" font-family="Helvetica,sans-Serif" font-size="10.00" fill="#000000"> +val</text>
</g>
<!-- Node6 -->
<g id="node6" class="node">
<title>Node6</title>
<polygon fill="none" stroke="#bfbfbf" points="250.5,-523.5 250.5,-580.5 293.5,-580.5 293.5,-523.5 250.5,-523.5"/>
<text text-anchor="middle" x="272" y="-568.5" font-family="Helvetica,sans-Serif" font-size="10.00" fill="#000000">const</text>
<polyline fill="none" stroke="#bfbfbf" points="250.5,-561.5 293.5,-561.5 "/>
<text text-anchor="middle" x="272" y="-549.5" font-family="Helvetica,sans-Serif" font-size="10.00" fill="#000000"> </text>
<polyline fill="none" stroke="#bfbfbf" points="250.5,-542.5 293.5,-542.5 "/>
<text text-anchor="middle" x="272" y="-530.5" font-family="Helvetica,sans-Serif" font-size="10.00" fill="#000000"> </text>
</g>
<!-- Node6&#45;&gt;Node1 -->
<g id="edge5" class="edge">
<title>Node6&#45;&gt;Node1</title>
<path fill="none" stroke="#404040" d="M263.3035,-523.3528C257.2965,-503.565 248.6817,-475.1868 239.0856,-443.5759"/>
<polygon fill="none" stroke="#404040" points="238.9946,-443.2761 233.4241,-438.6967 235.5087,-431.7935 241.0792,-436.3728 238.9946,-443.2761"/>
<text text-anchor="middle" x="266" y="-475" font-family="Helvetica,sans-Serif" font-size="10.00" fill="#000000"> +y</text>
</g>
<!-- Node7 -->
<g id="node7" class="node">
<title>Node7</title>
<polygon fill="none" stroke="#bfbfbf" points="311.5,-523.5 311.5,-580.5 340.5,-580.5 340.5,-523.5 311.5,-523.5"/>
<text text-anchor="middle" x="326" y="-568.5" font-family="Helvetica,sans-Serif" font-size="10.00" fill="#000000">T</text>
<polyline fill="none" stroke="#bfbfbf" points="311.5,-561.5 340.5,-561.5 "/>
<text text-anchor="middle" x="326" y="-549.5" font-family="Helvetica,sans-Serif" font-size="10.00" fill="#000000"> </text>
<polyline fill="none" stroke="#bfbfbf" points="311.5,-542.5 340.5,-542.5 "/>
<text text-anchor="middle" x="326" y="-530.5" font-family="Helvetica,sans-Serif" font-size="10.00" fill="#000000"> </text>
</g>
<!-- Node7&#45;&gt;Node1 -->
<g id="edge6" class="edge">
<title>Node7&#45;&gt;Node1</title>
<path fill="none" stroke="#404040" d="M312.8632,-523.4071C303.4555,-502.9513 290.4749,-474.768 279,-450 268.0948,-426.4617 256.5484,-401.6043 245.2083,-377.2278"/>
<polygon fill="none" stroke="#404040" points="245.0781,-376.948 238.9202,-373.1956 240.0155,-366.0681 246.1734,-369.8205 245.0781,-376.948"/>
<text text-anchor="middle" x="318.5" y="-491.5" font-family="Helvetica,sans-Serif" font-size="10.00" fill="#000000"> +refY</text>
<text text-anchor="middle" x="318.5" y="-480.5" font-family="Helvetica,sans-Serif" font-size="10.00" fill="#000000">+r</text>
<text text-anchor="middle" x="318.5" y="-469.5" font-family="Helvetica,sans-Serif" font-size="10.00" fill="#000000">+y</text>
<text text-anchor="middle" x="318.5" y="-458.5" font-family="Helvetica,sans-Serif" font-size="10.00" fill="#000000">+refX</text>
</g>
</g>
</svg>
        <g id="navigator" transform="translate(0 0)" fill="#404254">
                <rect fill="#f2f5e9" fill-opacity="0.5" stroke="#606060" stroke-width=".5" x="0" y="0" width="60" height="60"/>
                <use id="zoomplus" xlink:href="#zoomPlus" x="17" y="9" onmousedown="handleZoom(evt,'in')"/>
                <use id="zoomminus" xlink:href="#zoomMin" x="42" y="9" onmousedown="handleZoom(evt,'out')"/>
                <use id="reset" xlink:href="#resetDef" x="30" y="36" onmousedown="handleReset()"/>
                <g id="arrowUp" xlink:href="#dirArrow" transform="translate(30 24)" onmousedown="handlePan(0,-1)">
                  <use xlink:href="#rim" fill="#404040">
                        <set attributeName="fill" to="#808080" begin="arrowUp.mouseover" end="arrowUp.mouseout"/>
                  </use>
                  <path fill="none" stroke="white" stroke-width="1.5" d="M0,-3.0v7 M-2.5,-0.5L0,-3.0L2.5,-0.5"/>
                </g>
                <g id="arrowRight" xlink:href="#dirArrow" transform="rotate(90) translate(36 -43)" onmousedown="handlePan(1,0)">
                  <use xlink:href="#rim" fill="#404040">
                        <set attributeName="fill" to="#808080" begin="arrowRight.mouseover" end="arrowRight.mouseout"/>
                  </use>
                  <path fill="none" stroke="white" stroke-width="1.5" d="M0,-3.0v7 M-2.5,-0.5L0,-3.0L2.5,-0.5"/>
                </g>
                <g id="arrowDown" xlink:href="#dirArrow" transform="rotate(180) translate(-30 -48)" onmousedown="handlePan(0,1)">
                  <use xlink:href="#rim" fill="#404040">
                        <set attributeName="fill" to="#808080" begin="arrowDown.mouseover" end="arrowDown.mouseout"/>
                  </use>
                  <path fill="none" stroke="white" stroke-width="1.5" d="M0,-3.0v7 M-2.5,-0.5L0,-3.0L2.5,-0.5"/>
                </g>
                <g id="arrowLeft" xlink:href="#dirArrow" transform="rotate(270) translate(-36 17)" onmousedown="handlePan(-1,0)">
                  <use xlink:href="#rim" fill="#404040">
                        <set attributeName="fill" to="#808080" begin="arrowLeft.mouseover" end="arrowLeft.mouseout"/>
                  </use>
                  <path fill="none" stroke="white" stroke-width="1.5" d="M0,-3.0v7 M-2.5,-0.5L0,-3.0L2.5,-0.5"/>
                </g>
        </g>
        <svg viewBox="0 0 15 15" width="100%" height="30px" preserveAspectRatio="xMaxYMin meet">
         <g id="arrow_out" transform="scale(0.3 0.3)">
          <a xlink:href="classGPUCA__NAMESPACE_1_1gpu_1_1GPUCommonMath__coll__graph_org.svg" target="_base">
           <rect id="button" ry="5" rx="5" y="6" x="6" height="38" width="38"
                fill="#f2f5e9" fill-opacity="0.5" stroke="#606060" stroke-width="1.0"/>
           <path id="arrow"
             d="M 11.500037,31.436501 C 11.940474,20.09759 22.043105,11.32322 32.158766,21.979434 L 37.068811,17.246167 C 37.068811,17.246167 37.088388,32 37.088388,32 L 22.160133,31.978069 C 22.160133,31.978069 26.997745,27.140456 26.997745,27.140456 C 18.528582,18.264221 13.291696,25.230495 11.500037,31.436501 z"
             style="fill:#404040;"/>
          </a>
         </g>
        </svg>
</svg>
