<?xml version="1.0" encoding="UTF-8" standalone="no"?>
<!DOCTYPE svg PUBLIC "-//W3C//DTD SVG 1.1//EN"
 "http://www.w3.org/Graphics/SVG/1.1/DTD/svg11.dtd">
<!-- Generated by graphviz version 2.40.1 (20161225.0304)
 -->
<!-- Title: /home/travis/build/AliceO2Group/AliceO2/DataFormats/Detectors/TPC/test/testCompressedClusters.cxx Pages: 1 -->
<svg width="913pt" height="307pt"
 viewBox="0.00 0.00 912.50 307.00" xmlns="http://www.w3.org/2000/svg" xmlns:xlink="http://www.w3.org/1999/xlink">
<g id="graph0" class="graph" transform="scale(1 1) rotate(0) translate(4 303)">
<title>/home/travis/build/AliceO2Group/AliceO2/DataFormats/Detectors/TPC/test/testCompressedClusters.cxx</title>
<!-- Node0 -->
<g id="node1" class="node">
<title>Node0</title>
<polygon fill="#bfbfbf" stroke="#000000" points="475.5,-246.5 475.5,-298.5 678.5,-298.5 678.5,-246.5 475.5,-246.5"/>
<text text-anchor="start" x="483.5" y="-286.5" font-family="Helvetica,sans-Serif" font-size="10.00" fill="#000000">/home/travis/build</text>
<text text-anchor="start" x="483.5" y="-275.5" font-family="Helvetica,sans-Serif" font-size="10.00" fill="#000000">/AliceO2Group/AliceO2</text>
<text text-anchor="start" x="483.5" y="-264.5" font-family="Helvetica,sans-Serif" font-size="10.00" fill="#000000">/DataFormats/Detectors</text>
<text text-anchor="middle" x="577" y="-253.5" font-family="Helvetica,sans-Serif" font-size="10.00" fill="#000000">/TPC/test/testCompressedClusters.cxx</text>
</g>
<!-- Node1 -->
<g id="node2" class="node">
<title>Node1</title>
<g id="a_node2"><a xlink:href="../../d2/d7d/CompressedClusters_8h.html" target="_top" xlink:title="Container to store compressed TPC cluster data. ">
<polygon fill="none" stroke="#000000" points="0,-112.5 0,-142.5 146,-142.5 146,-112.5 0,-112.5"/>
<text text-anchor="start" x="8" y="-130.5" font-family="Helvetica,sans-Serif" font-size="10.00" fill="#000000">../include/DataFormatsTPC</text>
<text text-anchor="middle" x="73" y="-119.5" font-family="Helvetica,sans-Serif" font-size="10.00" fill="#000000">/CompressedClusters.h</text>
</a>
</g>
</g>
<!-- Node0&#45;&gt;Node1 -->
<g id="edge1" class="edge">
<title>Node0&#45;&gt;Node1</title>
<path fill="none" stroke="#191970" d="M475.0833,-262.8541C373.8481,-252.178 226.3793,-233.3529 174,-210 142.3759,-195.9007 112.4918,-169.2054 93.5543,-149.9948"/>
<polygon fill="#191970" stroke="#191970" points="95.8301,-147.3121 86.3743,-142.5332 90.7861,-152.1658 95.8301,-147.3121"/>
</g>
<!-- Node4 -->
<g id="node5" class="node">
<title>Node4</title>
<g id="a_node5"><a xlink:href="../../d3/d64/CompressedClustersHelpers_8h.html" target="_top" xlink:title="Helper for the CompressedClusters container. ">
<polygon fill="none" stroke="#000000" points="182.5,-179.5 182.5,-209.5 349.5,-209.5 349.5,-179.5 182.5,-179.5"/>
<text text-anchor="start" x="190.5" y="-197.5" font-family="Helvetica,sans-Serif" font-size="10.00" fill="#000000">../include/DataFormatsTPC</text>
<text text-anchor="middle" x="266" y="-186.5" font-family="Helvetica,sans-Serif" font-size="10.00" fill="#000000">/CompressedClustersHelpers.h</text>
</a>
</g>
</g>
<!-- Node0&#45;&gt;Node4 -->
<g id="edge4" class="edge">
<title>Node0&#45;&gt;Node4</title>
<path fill="none" stroke="#191970" d="M475.167,-246.9599C429.5069,-235.5082 376.8104,-222.2917 335.7334,-211.9894"/>
<polygon fill="#191970" stroke="#191970" points="336.3712,-208.541 325.8201,-209.5031 334.6682,-215.3307 336.3712,-208.541"/>
</g>
<!-- Node8 -->
<g id="node9" class="node">
<title>Node8</title>
<polygon fill="none" stroke="#bfbfbf" points="520.5,-118 520.5,-137 567.5,-137 567.5,-118 520.5,-118"/>
<text text-anchor="middle" x="544" y="-125" font-family="Helvetica,sans-Serif" font-size="10.00" fill="#000000">vector</text>
</g>
<!-- Node0&#45;&gt;Node8 -->
<g id="edge14" class="edge">
<title>Node0&#45;&gt;Node8</title>
<path fill="none" stroke="#191970" d="M475.413,-248.4965C439.9475,-237.9032 406.3701,-224.5518 396,-210 388.0041,-198.7798 387.828,-190.0926 396,-179 428.0178,-135.5392 461.7897,-162.8218 512,-143 513.3637,-142.4617 514.7497,-141.8898 516.1423,-141.2953"/>
<polygon fill="#191970" stroke="#191970" points="517.5989,-144.4778 525.2585,-137.1578 514.7059,-138.1036 517.5989,-144.4778"/>
</g>
<!-- Node10 -->
<g id="node11" class="node">
<title>Node10</title>
<polygon fill="none" stroke="#bfbfbf" points="405,-185 405,-204 537,-204 537,-185 405,-185"/>
<text text-anchor="middle" x="471" y="-192" font-family="Helvetica,sans-Serif" font-size="10.00" fill="#000000">boost/test/unit_test.hpp</text>
</g>
<!-- Node0&#45;&gt;Node10 -->
<g id="edge12" class="edge">
<title>Node0&#45;&gt;Node10</title>
<path fill="none" stroke="#191970" d="M541.4087,-246.3101C525.0718,-234.2887 506.2525,-220.4405 492.1827,-210.0873"/>
<polygon fill="#191970" stroke="#191970" points="494.2295,-207.2479 484.1007,-204.1401 490.0807,-212.886 494.2295,-207.2479"/>
</g>
<!-- Node11 -->
<g id="node12" class="node">
<title>Node11</title>
<polygon fill="none" stroke="#bfbfbf" points="555,-185 555,-204 599,-204 599,-185 555,-185"/>
<text text-anchor="middle" x="577" y="-192" font-family="Helvetica,sans-Serif" font-size="10.00" fill="#000000">string</text>
</g>
<!-- Node0&#45;&gt;Node11 -->
<g id="edge13" class="edge">
<title>Node0&#45;&gt;Node11</title>
<path fill="none" stroke="#191970" d="M577,-246.0928C577,-235.6735 577,-223.911 577,-214.2512"/>
<polygon fill="#191970" stroke="#191970" points="580.5001,-214.0838 577,-204.0839 573.5001,-214.0839 580.5001,-214.0838"/>
</g>
<!-- Node12 -->
<g id="node13" class="node">
<title>Node12</title>
<polygon fill="none" stroke="#bfbfbf" points="617,-185 617,-204 685,-204 685,-185 617,-185"/>
<text text-anchor="middle" x="651" y="-192" font-family="Helvetica,sans-Serif" font-size="10.00" fill="#000000">TSystem.h</text>
</g>
<!-- Node0&#45;&gt;Node12 -->
<g id="edge15" class="edge">
<title>Node0&#45;&gt;Node12</title>
<path fill="none" stroke="#191970" d="M602.053,-246.0928C612.9049,-234.6543 625.2928,-221.5968 634.8909,-211.4799"/>
<polygon fill="#191970" stroke="#191970" points="637.5641,-213.7475 641.9076,-204.0839 632.4858,-208.9296 637.5641,-213.7475"/>
</g>
<!-- Node13 -->
<g id="node14" class="node">
<title>Node13</title>
<polygon fill="none" stroke="#bfbfbf" points="703,-185 703,-204 751,-204 751,-185 703,-185"/>
<text text-anchor="middle" x="727" y="-192" font-family="Helvetica,sans-Serif" font-size="10.00" fill="#000000">TFile.h</text>
</g>
<!-- Node0&#45;&gt;Node13 -->
<g id="edge16" class="edge">
<title>Node0&#45;&gt;Node13</title>
<path fill="none" stroke="#191970" d="M627.3651,-246.3101C651.4647,-233.7784 679.3818,-219.2615 699.5231,-208.788"/>
<polygon fill="#191970" stroke="#191970" points="701.2039,-211.859 708.4613,-204.1401 697.9744,-205.6484 701.2039,-211.859"/>
</g>
<!-- Node14 -->
<g id="node15" class="node">
<title>Node14</title>
<polygon fill="none" stroke="#bfbfbf" points="769,-185 769,-204 821,-204 821,-185 769,-185"/>
<text text-anchor="middle" x="795" y="-192" font-family="Helvetica,sans-Serif" font-size="10.00" fill="#000000">TTree.h</text>
</g>
<!-- Node0&#45;&gt;Node14 -->
<g id="edge17" class="edge">
<title>Node0&#45;&gt;Node14</title>
<path fill="none" stroke="#191970" d="M658.1785,-246.4779C690.1388,-235.7907 727.0164,-222.9072 760,-210 761.5742,-209.384 763.1812,-208.7373 764.7988,-208.0722"/>
<polygon fill="#191970" stroke="#191970" points="766.1953,-211.2818 774.0268,-204.146 763.4547,-204.8405 766.1953,-211.2818"/>
</g>
<!-- Node15 -->
<g id="node16" class="node">
<title>Node15</title>
<polygon fill="none" stroke="#bfbfbf" points="839.5,-185 839.5,-204 904.5,-204 904.5,-185 839.5,-185"/>
<text text-anchor="middle" x="872" y="-192" font-family="Helvetica,sans-Serif" font-size="10.00" fill="#000000">TBranch.h</text>
</g>
<!-- Node0&#45;&gt;Node15 -->
<g id="edge18" class="edge">
<title>Node0&#45;&gt;Node15</title>
<path fill="none" stroke="#191970" d="M678.6591,-250.1156C725.1294,-239.1867 780.693,-225.1371 830,-210 832.5587,-209.2145 835.1891,-208.3598 837.8255,-207.4688"/>
<polygon fill="#191970" stroke="#191970" points="839.0107,-210.7622 847.2823,-204.1417 836.6875,-204.1589 839.0107,-210.7622"/>
</g>
<!-- Node2 -->
<g id="node3" class="node">
<title>Node2</title>
<g id="a_node3"><a xlink:href="../../d2/d45/GPUCommonRtypes_8h.html" target="_top" xlink:title="GPUCommonRtypes.h">
<polygon fill="none" stroke="#000000" points="10.5,-56.5 10.5,-75.5 135.5,-75.5 135.5,-56.5 10.5,-56.5"/>
<text text-anchor="middle" x="73" y="-63.5" font-family="Helvetica,sans-Serif" font-size="10.00" fill="#000000">GPUCommonRtypes.h</text>
</a>
</g>
</g>
<!-- Node1&#45;&gt;Node2 -->
<g id="edge2" class="edge">
<title>Node1&#45;&gt;Node2</title>
<path fill="none" stroke="#191970" d="M73,-112.2977C73,-104.3834 73,-94.6043 73,-86.0759"/>
<polygon fill="#191970" stroke="#191970" points="76.5001,-85.8469 73,-75.8469 69.5001,-85.847 76.5001,-85.8469"/>
</g>
<!-- Node3 -->
<g id="node4" class="node">
<title>Node3</title>
<polygon fill="none" stroke="#bfbfbf" points="43.5,-.5 43.5,-19.5 102.5,-19.5 102.5,-.5 43.5,-.5"/>
<text text-anchor="middle" x="73" y="-7.5" font-family="Helvetica,sans-Serif" font-size="10.00" fill="#000000">Rtypes.h</text>
</g>
<!-- Node2&#45;&gt;Node3 -->
<g id="edge3" class="edge">
<title>Node2&#45;&gt;Node3</title>
<path fill="none" stroke="#191970" d="M73,-56.2455C73,-48.9382 73,-38.6944 73,-29.7046"/>
<polygon fill="#191970" stroke="#191970" points="76.5001,-29.6426 73,-19.6427 69.5001,-29.6427 76.5001,-29.6426"/>
</g>
<!-- Node4&#45;&gt;Node1 -->
<g id="edge11" class="edge">
<title>Node4&#45;&gt;Node1</title>
<path fill="none" stroke="#191970" d="M222.687,-179.4639C194.1058,-169.5419 156.4722,-156.4774 126.0906,-145.9304"/>
<polygon fill="#191970" stroke="#191970" points="127.0967,-142.5748 116.5019,-142.6017 124.801,-149.1877 127.0967,-142.5748"/>
</g>
<!-- Node5 -->
<g id="node6" class="node">
<title>Node5</title>
<polygon fill="none" stroke="#bfbfbf" points="273.5,-56.5 273.5,-75.5 342.5,-75.5 342.5,-56.5 273.5,-56.5"/>
<text text-anchor="middle" x="308" y="-63.5" font-family="Helvetica,sans-Serif" font-size="10.00" fill="#000000">type_traits</text>
</g>
<!-- Node4&#45;&gt;Node5 -->
<g id="edge5" class="edge">
<title>Node4&#45;&gt;Node5</title>
<path fill="none" stroke="#191970" d="M231.8107,-179.4711C217.0442,-171.045 201.2794,-158.9734 193,-143 186.6597,-130.7678 185.2758,-123.4089 193,-112 208.6814,-88.8381 238.1179,-77.3377 263.2824,-71.628"/>
<polygon fill="#191970" stroke="#191970" points="264.286,-74.9959 273.3933,-69.5824 262.8978,-68.135 264.286,-74.9959"/>
</g>
<!-- Node6 -->
<g id="node7" class="node">
<title>Node6</title>
<polygon fill="none" stroke="#bfbfbf" points="202,-118 202,-137 254,-137 254,-118 202,-118"/>
<text text-anchor="middle" x="228" y="-125" font-family="Helvetica,sans-Serif" font-size="10.00" fill="#000000">cassert</text>
</g>
<!-- Node4&#45;&gt;Node6 -->
<g id="edge6" class="edge">
<title>Node4&#45;&gt;Node6</title>
<path fill="none" stroke="#191970" d="M257.3772,-179.2967C251.744,-169.3645 244.3553,-156.3371 238.3973,-145.8321"/>
<polygon fill="#191970" stroke="#191970" points="241.3971,-144.0266 233.4192,-137.055 235.3083,-147.4801 241.3971,-144.0266"/>
</g>
<!-- Node7 -->
<g id="node8" class="node">
<title>Node7</title>
<polygon fill="none" stroke="#bfbfbf" points="272.5,-118 272.5,-137 337.5,-137 337.5,-118 272.5,-118"/>
<text text-anchor="middle" x="305" y="-125" font-family="Helvetica,sans-Serif" font-size="10.00" fill="#000000">stdexcept</text>
</g>
<!-- Node4&#45;&gt;Node7 -->
<g id="edge7" class="edge">
<title>Node4&#45;&gt;Node7</title>
<path fill="none" stroke="#191970" d="M274.8497,-179.2967C280.6311,-169.3645 288.2142,-156.3371 294.3291,-145.8321"/>
<polygon fill="#191970" stroke="#191970" points="297.4323,-147.4582 299.4382,-137.055 291.3825,-143.9367 297.4323,-147.4582"/>
</g>
<!-- Node4&#45;&gt;Node8 -->
<g id="edge8" class="edge">
<title>Node4&#45;&gt;Node8</title>
<path fill="none" stroke="#191970" d="M348.3678,-179.4935C407.6312,-168.2738 482.1623,-153.1775 512,-143 513.6067,-142.452 515.2374,-141.8428 516.8685,-141.192"/>
<polygon fill="#191970" stroke="#191970" points="518.3111,-144.3811 526.0494,-137.1444 515.4872,-137.976 518.3111,-144.3811"/>
</g>
<!-- Node9 -->
<g id="node10" class="node">
<title>Node9</title>
<g id="a_node10"><a xlink:href="../../d4/d4a/FlattenRestore_8h.html" target="_top" xlink:title="Utilities to copy complex objects to flat buffer and restore. ">
<polygon fill="none" stroke="#000000" points="355.5,-118 355.5,-137 502.5,-137 502.5,-118 355.5,-118"/>
<text text-anchor="middle" x="429" y="-125" font-family="Helvetica,sans-Serif" font-size="10.00" fill="#000000">Algorithm/FlattenRestore.h</text>
</a>
</g>
</g>
<!-- Node4&#45;&gt;Node9 -->
<g id="edge9" class="edge">
<title>Node4&#45;&gt;Node9</title>
<path fill="none" stroke="#191970" d="M302.5804,-179.4639C330.6689,-167.9183 369.1094,-152.1176 396.2058,-140.9798"/>
<polygon fill="#191970" stroke="#191970" points="397.7167,-144.143 405.6352,-137.1039 395.0555,-137.6686 397.7167,-144.143"/>
</g>
<!-- Node9&#45;&gt;Node5 -->
<g id="edge10" class="edge">
<title>Node9&#45;&gt;Node5</title>
<path fill="none" stroke="#191970" d="M410.0938,-117.8906C390.2034,-107.7811 358.6877,-91.7628 335.9308,-80.1962"/>
<polygon fill="#191970" stroke="#191970" points="337.274,-76.9528 326.7735,-75.5419 334.1022,-83.193 337.274,-76.9528"/>
</g>
</g>
</svg>
