<?xml version="1.0" encoding="UTF-8" standalone="no"?>
<!DOCTYPE svg PUBLIC "-//W3C//DTD SVG 1.1//EN"
 "http://www.w3.org/Graphics/SVG/1.1/DTD/svg11.dtd">
<!-- Generated by graphviz version 2.40.1 (20161225.0304)
 -->
<!-- Title: /home/travis/build/AliceO2Group/AliceO2/Detectors/MUON/MCH Pages: 1 -->
<!--zoomable 447 -->
<svg id="main" version="1.1" xmlns="http://www.w3.org/2000/svg" xmlns:xlink="http://www.w3.org/1999/xlink" xml:space="preserve" onload="init(evt)">
<style type="text/css"><![CDATA[
.edge:hover path { stroke: red; }
.edge:hover polygon { stroke: red; fill: red; }
]]></style>
<script type="text/javascript"><![CDATA[
var edges = document.getElementsByTagName('g');
if (edges && edges.length) {
  for (var i=0;i<edges.length;i++) {
    if (edges[i].id.substr(0,4)=='edge') {
      edges[i].setAttribute('class','edge');
    }
  }
}
]]></script>
        <defs>
                <circle id="rim" cx="0" cy="0" r="7"/>
                <circle id="rim2" cx="0" cy="0" r="3.5"/>
                <g id="zoomPlus">
                        <use xlink:href="#rim" fill="#404040">
                                <set attributeName="fill" to="#808080" begin="zoomplus.mouseover" end="zoomplus.mouseout"/>
                        </use>
                        <path d="M-4,0h8M0,-4v8" fill="none" stroke="white" stroke-width="1.5" pointer-events="none"/>
                </g>
                <g id="zoomMin">
                        <use xlink:href="#rim" fill="#404040">
                                <set attributeName="fill" to="#808080" begin="zoomminus.mouseover" end="zoomminus.mouseout"/>
                        </use>
                        <path d="M-4,0h8" fill="none" stroke="white" stroke-width="1.5" pointer-events="none"/>
                </g>
                <g id="dirArrow">
                        <path fill="none" stroke="white" stroke-width="1.5" d="M0,-3.0v7 M-2.5,-0.5L0,-3.0L2.5,-0.5"/>
                </g>
               <g id="resetDef">
                       <use xlink:href="#rim2" fill="#404040">
                               <set attributeName="fill" to="#808080" begin="reset.mouseover" end="reset.mouseout"/>
                       </use>
               </g>
        </defs>

<script type="text/javascript">
var viewWidth = 645;
var viewHeight = 447;
var sectionId = 'dynsection-0';
</script>
<script xlink:href="svgpan.js"/>
<svg id="graph" class="graph">
<g id="viewport">
<title>/home/travis/build/AliceO2Group/AliceO2/Detectors/MUON/MCH</title>
<g id="clust1" class="cluster">
<title>clusterdir_1cc233fd3b1202b9dad36810b41b97af</title>
<g id="a_clust1"><a xlink:href="dir_1cc233fd3b1202b9dad36810b41b97af.html" target="_top" xlink:title="MUON">
<polygon fill="#ddddee" stroke="#000000" points="238.8805,-128 238.8805,-431 628.8805,-431 628.8805,-128 238.8805,-128"/>
<text text-anchor="middle" x="433.8805" y="-419" font-family="Helvetica,sans-Serif" font-size="10.00" fill="#000000">MUON</text>
</a>
</g>
</g>
<g id="clust2" class="cluster">
<title>clusterdir_061f7088060f41729027f6c2fce0273e</title>
<g id="a_clust2"><a xlink:href="dir_061f7088060f41729027f6c2fce0273e.html" target="_top">
<polygon fill="#eeeeff" stroke="#000000" points="246.8805,-136 246.8805,-404 620.8805,-404 620.8805,-136 246.8805,-136"/>
</a>
</g>
</g>
<!-- dir_061f7088060f41729027f6c2fce0273e -->
<g id="node1" class="node">
<title>dir_061f7088060f41729027f6c2fce0273e</title>
<text text-anchor="middle" x="577.8805" y="-375.5" font-family="Helvetica,sans-Serif" font-size="10.00" fill="#000000">MCH</text>
</g>
<!-- dir_1155c84989a046e7de4bf0156dc4b34c -->
<g id="node2" class="node">
<title>dir_1155c84989a046e7de4bf0156dc4b34c</title>
<g id="a_node2"><a xlink:href="dir_1155c84989a046e7de4bf0156dc4b34c.html" target="_top" xlink:title="Base">
<polygon fill="#ffffff" stroke="#ff0000" points="310.8805,-252 256.8805,-252 256.8805,-216 310.8805,-216 310.8805,-252"/>
<text text-anchor="middle" x="283.8805" y="-231.5" font-family="Helvetica,sans-Serif" font-size="10.00" fill="#000000">Base</text>
</a>
</g>
</g>
<!-- dir_f53aaea7b1f4a3d2e21e52645ea2576d -->
<g id="node3" class="node">
<title>dir_f53aaea7b1f4a3d2e21e52645ea2576d</title>
<g id="a_node3"><a xlink:href="dir_f53aaea7b1f4a3d2e21e52645ea2576d.html" target="_top" xlink:title="Contour">
<polygon fill="#ffffff" stroke="#ff0000" points="385.3805,-180 330.3805,-180 330.3805,-144 385.3805,-144 385.3805,-180"/>
<text text-anchor="middle" x="357.8805" y="-159.5" font-family="Helvetica,sans-Serif" font-size="10.00" fill="#000000">Contour</text>
</a>
</g>
</g>
<!-- dir_b098e3604916eca5f90f2bb1c75b7880 -->
<g id="node4" class="node">
<title>dir_b098e3604916eca5f90f2bb1c75b7880</title>
<g id="a_node4"><a xlink:href="dir_b098e3604916eca5f90f2bb1c75b7880.html" target="_top" xlink:title="Mapping">
<polygon fill="#ffffff" stroke="#ff0000" points="386.8805,-252 328.8805,-252 328.8805,-216 386.8805,-216 386.8805,-252"/>
<text text-anchor="middle" x="357.8805" y="-231.5" font-family="Helvetica,sans-Serif" font-size="10.00" fill="#000000">Mapping</text>
</a>
</g>
</g>
<!-- dir_b098e3604916eca5f90f2bb1c75b7880&#45;&gt;dir_f53aaea7b1f4a3d2e21e52645ea2576d -->
<g id="edge35" class="edge">
<title>dir_b098e3604916eca5f90f2bb1c75b7880&#45;&gt;dir_f53aaea7b1f4a3d2e21e52645ea2576d</title>
<path fill="none" stroke="#000000" d="M357.8805,-215.8314C357.8805,-208.131 357.8805,-198.9743 357.8805,-190.4166"/>
<polygon fill="#000000" stroke="#000000" points="361.3806,-190.4132 357.8805,-180.4133 354.3806,-190.4133 361.3806,-190.4132"/>
<g id="a_edge35&#45;headlabel"><a xlink:href="dir_000495_000261.html" target="_top" xlink:title="13">
<text text-anchor="middle" x="364.2198" y="-191.5079" font-family="Helvetica,sans-Serif" font-size="10.00" fill="#000000">13</text>
</a>
</g>
</g>
<!-- dir_6229e1f1a243f5ed3f0013dfa4f13deb -->
<g id="node5" class="node">
<title>dir_6229e1f1a243f5ed3f0013dfa4f13deb</title>
<g id="a_node5"><a xlink:href="dir_6229e1f1a243f5ed3f0013dfa4f13deb.html" target="_top" xlink:title="PreClustering">
<polygon fill="#ffffff" stroke="#ff0000" points="520.8805,-324 438.8805,-324 438.8805,-288 520.8805,-288 520.8805,-324"/>
<text text-anchor="middle" x="479.8805" y="-303.5" font-family="Helvetica,sans-Serif" font-size="10.00" fill="#000000">PreClustering</text>
</a>
</g>
</g>
<!-- dir_6229e1f1a243f5ed3f0013dfa4f13deb&#45;&gt;dir_1155c84989a046e7de4bf0156dc4b34c -->
<g id="edge1" class="edge">
<title>dir_6229e1f1a243f5ed3f0013dfa4f13deb&#45;&gt;dir_1155c84989a046e7de4bf0156dc4b34c</title>
<path fill="none" stroke="#000000" d="M438.7134,-291.0721C435.7277,-290.0225 432.7599,-288.9892 429.8805,-288 384.0815,-272.2656 369.1926,-271.5823 320.6714,-252.056"/>
<polygon fill="#000000" stroke="#000000" points="321.7857,-248.7303 311.205,-248.1828 319.1349,-255.209 321.7857,-248.7303"/>
<g id="a_edge1&#45;headlabel"><a xlink:href="dir_000514_000129.html" target="_top" xlink:title="2">
<text text-anchor="middle" x="326.1877" y="-244.9636" font-family="Helvetica,sans-Serif" font-size="10.00" fill="#000000">2</text>
</a>
</g>
</g>
<!-- dir_6229e1f1a243f5ed3f0013dfa4f13deb&#45;&gt;dir_b098e3604916eca5f90f2bb1c75b7880 -->
<g id="edge2" class="edge">
<title>dir_6229e1f1a243f5ed3f0013dfa4f13deb&#45;&gt;dir_b098e3604916eca5f90f2bb1c75b7880</title>
<path fill="none" stroke="#000000" d="M449.0947,-287.8314C432.8648,-278.253 412.8172,-266.4217 395.6536,-256.2923"/>
<polygon fill="#000000" stroke="#000000" points="397.3676,-253.2398 386.9766,-251.1715 393.8098,-259.2683 397.3676,-253.2398"/>
<g id="a_edge2&#45;headlabel"><a xlink:href="dir_000514_000495.html" target="_top" xlink:title="2">
<text text-anchor="middle" x="401.9063" y="-250.1215" font-family="Helvetica,sans-Serif" font-size="10.00" fill="#000000">2</text>
</a>
</g>
</g>
<!-- dir_f8de85f281636d081fd2e7e06b0134d2 -->
<g id="node6" class="node">
<title>dir_f8de85f281636d081fd2e7e06b0134d2</title>
<g id="a_node6"><a xlink:href="dir_f8de85f281636d081fd2e7e06b0134d2.html" target="_top" xlink:title="Raw">
<polygon fill="#ffffff" stroke="#ff0000" points="612.8805,-324 558.8805,-324 558.8805,-288 612.8805,-288 612.8805,-324"/>
<text text-anchor="middle" x="585.8805" y="-303.5" font-family="Helvetica,sans-Serif" font-size="10.00" fill="#000000">Raw</text>
</a>
</g>
</g>
<!-- dir_4ab6b4cc6a7edbff49100e9123df213f -->
<g id="node10" class="node">
<title>dir_4ab6b4cc6a7edbff49100e9123df213f</title>
<g id="a_node10"><a xlink:href="dir_4ab6b4cc6a7edbff49100e9123df213f.html" target="_top" xlink:title="Common">
<polygon fill="none" stroke="#ff0000" points="230.3805,-252 169.3805,-252 169.3805,-216 230.3805,-216 230.3805,-252"/>
<text text-anchor="middle" x="199.8805" y="-231.5" font-family="Helvetica,sans-Serif" font-size="10.00" fill="#000000">Common</text>
</a>
</g>
</g>
<!-- dir_f8de85f281636d081fd2e7e06b0134d2&#45;&gt;dir_4ab6b4cc6a7edbff49100e9123df213f -->
<g id="edge30" class="edge">
<title>dir_f8de85f281636d081fd2e7e06b0134d2&#45;&gt;dir_4ab6b4cc6a7edbff49100e9123df213f</title>
<path fill="none" stroke="#000000" d="M558.8162,-296.1788C549.7203,-293.1803 539.4523,-290.1193 529.8805,-288 404.365,-260.2101 367.0946,-285.1251 242.8805,-252 241.991,-251.7628 241.0957,-251.5111 240.1968,-251.2468"/>
<polygon fill="#000000" stroke="#000000" points="241.1264,-247.867 230.5324,-248.0079 238.902,-254.5042 241.1264,-247.867"/>
<g id="a_edge30&#45;headlabel"><a xlink:href="dir_000406_000027.html" target="_top" xlink:title="1">
<text text-anchor="middle" x="245.4368" y="-243.8171" font-family="Helvetica,sans-Serif" font-size="10.00" fill="#000000">1</text>
</a>
</g>
</g>
<!-- dir_2171f7ec022c5423887b07c69b2f5b48 -->
<g id="node14" class="node">
<title>dir_2171f7ec022c5423887b07c69b2f5b48</title>
<g id="a_node14"><a xlink:href="dir_2171f7ec022c5423887b07c69b2f5b48.html" target="_top" xlink:title="DataFormats">
<polygon fill="none" stroke="#ff0000" points="272.8805,-108 192.8805,-108 192.8805,-72 272.8805,-72 272.8805,-108"/>
<text text-anchor="middle" x="232.8805" y="-87.5" font-family="Helvetica,sans-Serif" font-size="10.00" fill="#000000">DataFormats</text>
</a>
</g>
</g>
<!-- dir_f8de85f281636d081fd2e7e06b0134d2&#45;&gt;dir_2171f7ec022c5423887b07c69b2f5b48 -->
<g id="edge31" class="edge">
<title>dir_f8de85f281636d081fd2e7e06b0134d2&#45;&gt;dir_2171f7ec022c5423887b07c69b2f5b48</title>
<path fill="none" stroke="#000000" d="M576.5004,-287.8148C556.4895,-251.0138 505.8359,-167.8367 437.8805,-128 412.265,-112.9837 335.2856,-101.6073 283.2981,-95.3727"/>
<polygon fill="#000000" stroke="#000000" points="283.5961,-91.8838 273.2564,-94.1948 282.7805,-98.8361 283.5961,-91.8838"/>
<g id="a_edge31&#45;headlabel"><a xlink:href="dir_000406_000076.html" target="_top" xlink:title="8">
<text text-anchor="middle" x="287.497" y="-86.9825" font-family="Helvetica,sans-Serif" font-size="10.00" fill="#000000">8</text>
</a>
</g>
</g>
<!-- dir_e4cb5181a3c884468a78a261ced84e7b -->
<g id="node7" class="node">
<title>dir_e4cb5181a3c884468a78a261ced84e7b</title>
<g id="a_node7"><a xlink:href="dir_e4cb5181a3c884468a78a261ced84e7b.html" target="_top" xlink:title="Simulation">
<polygon fill="#ffffff" stroke="#ff0000" points="420.3805,-324 351.3805,-324 351.3805,-288 420.3805,-288 420.3805,-324"/>
<text text-anchor="middle" x="385.8805" y="-303.5" font-family="Helvetica,sans-Serif" font-size="10.00" fill="#000000">Simulation</text>
</a>
</g>
</g>
<!-- dir_e4cb5181a3c884468a78a261ced84e7b&#45;&gt;dir_1155c84989a046e7de4bf0156dc4b34c -->
<g id="edge14" class="edge">
<title>dir_e4cb5181a3c884468a78a261ced84e7b&#45;&gt;dir_1155c84989a046e7de4bf0156dc4b34c</title>
<path fill="none" stroke="#000000" d="M360.1416,-287.8314C347.3368,-278.7927 331.6896,-267.7476 317.9086,-258.0198"/>
<polygon fill="#000000" stroke="#000000" points="319.7993,-255.0703 309.6112,-252.1628 315.7625,-260.7891 319.7993,-255.0703"/>
<g id="a_edge14&#45;headlabel"><a xlink:href="dir_000202_000129.html" target="_top" xlink:title="6">
<text text-anchor="middle" x="324.3733" y="-252.3236" font-family="Helvetica,sans-Serif" font-size="10.00" fill="#000000">6</text>
</a>
</g>
</g>
<!-- dir_e4cb5181a3c884468a78a261ced84e7b&#45;&gt;dir_b098e3604916eca5f90f2bb1c75b7880 -->
<g id="edge18" class="edge">
<title>dir_e4cb5181a3c884468a78a261ced84e7b&#45;&gt;dir_b098e3604916eca5f90f2bb1c75b7880</title>
<path fill="none" stroke="#000000" d="M378.8149,-287.8314C375.7545,-279.9617 372.1026,-270.5712 368.7123,-261.8533"/>
<polygon fill="#000000" stroke="#000000" points="371.9278,-260.4647 365.0412,-252.4133 365.4037,-263.0019 371.9278,-260.4647"/>
<g id="a_edge18&#45;headlabel"><a xlink:href="dir_000202_000495.html" target="_top" xlink:title="3">
<text text-anchor="middle" x="375.8768" y="-260.2859" font-family="Helvetica,sans-Serif" font-size="10.00" fill="#000000">3</text>
</a>
</g>
</g>
<!-- dir_e4cb5181a3c884468a78a261ced84e7b&#45;&gt;dir_4ab6b4cc6a7edbff49100e9123df213f -->
<g id="edge13" class="edge">
<title>dir_e4cb5181a3c884468a78a261ced84e7b&#45;&gt;dir_4ab6b4cc6a7edbff49100e9123df213f</title>
<path fill="none" stroke="#000000" d="M351.3646,-293.3554C322.319,-282.6218 279.7423,-266.6699 242.8805,-252 242.0252,-251.6596 241.161,-251.3139 240.2903,-250.9641"/>
<polygon fill="#000000" stroke="#000000" points="241.4114,-247.6415 230.8299,-247.1093 238.7699,-254.1241 241.4114,-247.6415"/>
<g id="a_edge13&#45;headlabel"><a xlink:href="dir_000202_000027.html" target="_top" xlink:title="2">
<text text-anchor="middle" x="245.8116" y="-243.8685" font-family="Helvetica,sans-Serif" font-size="10.00" fill="#000000">2</text>
</a>
</g>
</g>
<!-- dir_37c90836491b695b472bf98d1be8336b -->
<g id="node11" class="node">
<title>dir_37c90836491b695b472bf98d1be8336b</title>
<g id="a_node11"><a xlink:href="dir_37c90836491b695b472bf98d1be8336b.html" target="_top" xlink:title="Base">
<polygon fill="none" stroke="#ff0000" points="191.8805,-36 137.8805,-36 137.8805,0 191.8805,0 191.8805,-36"/>
<text text-anchor="middle" x="164.8805" y="-15.5" font-family="Helvetica,sans-Serif" font-size="10.00" fill="#000000">Base</text>
</a>
</g>
</g>
<!-- dir_e4cb5181a3c884468a78a261ced84e7b&#45;&gt;dir_37c90836491b695b472bf98d1be8336b -->
<g id="edge15" class="edge">
<title>dir_e4cb5181a3c884468a78a261ced84e7b&#45;&gt;dir_37c90836491b695b472bf98d1be8336b</title>
<path fill="none" stroke="#000000" d="M408.3036,-287.8906C418.3578,-278.3732 429.2114,-265.8205 434.8805,-252 455.8019,-200.997 468.7288,-173.688 437.8805,-128 384.4958,-48.9344 263.777,-26.6872 202.3305,-20.4365"/>
<polygon fill="#000000" stroke="#000000" points="202.5665,-16.9434 192.2858,-19.5043 201.9196,-23.9135 202.5665,-16.9434"/>
<g id="a_edge15&#45;headlabel"><a xlink:href="dir_000202_000273.html" target="_top" xlink:title="5">
<text text-anchor="middle" x="206.408" y="-11.9483" font-family="Helvetica,sans-Serif" font-size="10.00" fill="#000000">5</text>
</a>
</g>
</g>
<!-- dir_f01815b857f9009bea48e2cb39492245 -->
<g id="node12" class="node">
<title>dir_f01815b857f9009bea48e2cb39492245</title>
<g id="a_node12"><a xlink:href="dir_f01815b857f9009bea48e2cb39492245.html" target="_top" xlink:title="Passive">
<polygon fill="none" stroke="#ff0000" points="74.8805,-108 20.8805,-108 20.8805,-72 74.8805,-72 74.8805,-108"/>
<text text-anchor="middle" x="47.8805" y="-87.5" font-family="Helvetica,sans-Serif" font-size="10.00" fill="#000000">Passive</text>
</a>
</g>
</g>
<!-- dir_e4cb5181a3c884468a78a261ced84e7b&#45;&gt;dir_f01815b857f9009bea48e2cb39492245 -->
<g id="edge16" class="edge">
<title>dir_e4cb5181a3c884468a78a261ced84e7b&#45;&gt;dir_f01815b857f9009bea48e2cb39492245</title>
<path fill="none" stroke="#000000" d="M351.0977,-295.8388C341.6469,-293.1816 331.395,-290.3932 321.8805,-288 191.3216,-255.1605 105.4243,-297.0298 38.8805,-180 28.2056,-161.2263 31.5981,-136.6486 37.024,-117.9216"/>
<polygon fill="#000000" stroke="#000000" points="40.4231,-118.7854 40.1711,-108.1936 33.7629,-116.6307 40.4231,-118.7854"/>
<g id="a_edge16&#45;headlabel"><a xlink:href="dir_000202_000562.html" target="_top" xlink:title="6">
<text text-anchor="middle" x="42.0181" y="-120.5795" font-family="Helvetica,sans-Serif" font-size="10.00" fill="#000000">6</text>
</a>
</g>
</g>
<!-- dir_e4cb5181a3c884468a78a261ced84e7b&#45;&gt;dir_2171f7ec022c5423887b07c69b2f5b48 -->
<g id="edge17" class="edge">
<title>dir_e4cb5181a3c884468a78a261ced84e7b&#45;&gt;dir_2171f7ec022c5423887b07c69b2f5b48</title>
<path fill="none" stroke="#000000" d="M397.2155,-287.7624C417.4287,-252.6626 454.1532,-175.0365 415.8805,-128 399.3897,-107.7331 331.2259,-97.927 282.9283,-93.4408"/>
<polygon fill="#000000" stroke="#000000" points="283.2178,-89.9529 272.9494,-92.5624 282.604,-96.9259 283.2178,-89.9529"/>
<g id="a_edge17&#45;headlabel"><a xlink:href="dir_000202_000076.html" target="_top" xlink:title="10">
<text text-anchor="middle" x="287.0475" y="-84.9396" font-family="Helvetica,sans-Serif" font-size="10.00" fill="#000000">10</text>
</a>
</g>
</g>
<!-- dir_09445408fa345a18838fb91740d089d0 -->
<g id="node8" class="node">
<title>dir_09445408fa345a18838fb91740d089d0</title>
<g id="a_node8"><a xlink:href="dir_09445408fa345a18838fb91740d089d0.html" target="_top" xlink:title="Tracking">
<polygon fill="#ffffff" stroke="#ff0000" points="312.3805,-324 255.3805,-324 255.3805,-288 312.3805,-288 312.3805,-324"/>
<text text-anchor="middle" x="283.8805" y="-303.5" font-family="Helvetica,sans-Serif" font-size="10.00" fill="#000000">Tracking</text>
</a>
</g>
</g>
<!-- dir_09445408fa345a18838fb91740d089d0&#45;&gt;dir_1155c84989a046e7de4bf0156dc4b34c -->
<g id="edge9" class="edge">
<title>dir_09445408fa345a18838fb91740d089d0&#45;&gt;dir_1155c84989a046e7de4bf0156dc4b34c</title>
<path fill="none" stroke="#000000" d="M283.8805,-287.8314C283.8805,-280.131 283.8805,-270.9743 283.8805,-262.4166"/>
<polygon fill="#000000" stroke="#000000" points="287.3806,-262.4132 283.8805,-252.4133 280.3806,-262.4133 287.3806,-262.4132"/>
<g id="a_edge9&#45;headlabel"><a xlink:href="dir_000116_000129.html" target="_top" xlink:title="11">
<text text-anchor="middle" x="290.2198" y="-263.5079" font-family="Helvetica,sans-Serif" font-size="10.00" fill="#000000">11</text>
</a>
</g>
</g>
<!-- dir_09445408fa345a18838fb91740d089d0&#45;&gt;dir_4ab6b4cc6a7edbff49100e9123df213f -->
<g id="edge8" class="edge">
<title>dir_09445408fa345a18838fb91740d089d0&#45;&gt;dir_4ab6b4cc6a7edbff49100e9123df213f</title>
<path fill="none" stroke="#000000" d="M262.6837,-287.8314C252.437,-279.0485 239.9802,-268.3712 228.8708,-258.8489"/>
<polygon fill="#000000" stroke="#000000" points="230.9408,-256.0134 221.0705,-252.1628 226.3853,-261.3282 230.9408,-256.0134"/>
<g id="a_edge8&#45;headlabel"><a xlink:href="dir_000116_000027.html" target="_top" xlink:title="6">
<text text-anchor="middle" x="235.5178" y="-253.697" font-family="Helvetica,sans-Serif" font-size="10.00" fill="#000000">6</text>
</a>
</g>
</g>
<!-- dir_09445408fa345a18838fb91740d089d0&#45;&gt;dir_37c90836491b695b472bf98d1be8336b -->
<g id="edge10" class="edge">
<title>dir_09445408fa345a18838fb91740d089d0&#45;&gt;dir_37c90836491b695b472bf98d1be8336b</title>
<path fill="none" stroke="#000000" d="M255.1153,-302.1655C202.0162,-294.5867 91.3295,-276.2965 61.8805,-252 34.7279,-229.5981 40.3142,-213.2924 28.8805,-180 13.0975,-134.0437 -16.1843,-111.6668 11.8805,-72 25.5289,-52.7094 87.0072,-35.5094 127.7578,-25.9458"/>
<polygon fill="#000000" stroke="#000000" points="128.665,-29.3287 137.6299,-23.6823 127.1006,-22.5058 128.665,-29.3287"/>
<g id="a_edge10&#45;headlabel"><a xlink:href="dir_000116_000273.html" target="_top" xlink:title="1">
<text text-anchor="middle" x="125.7958" y="-30.3995" font-family="Helvetica,sans-Serif" font-size="10.00" fill="#000000">1</text>
</a>
</g>
</g>
<!-- dir_bcbb2cf9a3d3d83e5515c82071a07177 -->
<g id="node13" class="node">
<title>dir_bcbb2cf9a3d3d83e5515c82071a07177</title>
<g id="a_node13"><a xlink:href="dir_bcbb2cf9a3d3d83e5515c82071a07177.html" target="_top" xlink:title="Framework">
<polygon fill="none" stroke="#ff0000" points="136.3805,-180 65.3805,-180 65.3805,-144 136.3805,-144 136.3805,-180"/>
<text text-anchor="middle" x="100.8805" y="-159.5" font-family="Helvetica,sans-Serif" font-size="10.00" fill="#000000">Framework</text>
</a>
</g>
</g>
<!-- dir_09445408fa345a18838fb91740d089d0&#45;&gt;dir_bcbb2cf9a3d3d83e5515c82071a07177 -->
<g id="edge11" class="edge">
<title>dir_09445408fa345a18838fb91740d089d0&#45;&gt;dir_bcbb2cf9a3d3d83e5515c82071a07177</title>
<path fill="none" stroke="#000000" d="M255.2337,-298.6816C228.3147,-290.6919 188.0612,-275.7662 159.8805,-252 139.5061,-234.8172 123.5178,-208.8371 113.3541,-189.2"/>
<polygon fill="#000000" stroke="#000000" points="116.4306,-187.5262 108.8389,-180.1359 110.165,-190.6474 116.4306,-187.5262"/>
<g id="a_edge11&#45;headlabel"><a xlink:href="dir_000116_000013.html" target="_top" xlink:title="64">
<text text-anchor="middle" x="120.5747" y="-186.9777" font-family="Helvetica,sans-Serif" font-size="10.00" fill="#000000">64</text>
</a>
</g>
</g>
<!-- dir_09445408fa345a18838fb91740d089d0&#45;&gt;dir_2171f7ec022c5423887b07c69b2f5b48 -->
<g id="edge12" class="edge">
<title>dir_09445408fa345a18838fb91740d089d0&#45;&gt;dir_2171f7ec022c5423887b07c69b2f5b48</title>
<path fill="none" stroke="#000000" d="M312.4134,-296.1972C342.3541,-285.2642 386.3804,-267.1271 395.8805,-252 407.6242,-233.3004 422.0741,-161.9128 394.8805,-128 380.9815,-110.6667 325.2997,-100.4441 283.0633,-95.0449"/>
<polygon fill="#000000" stroke="#000000" points="283.2715,-91.5444 272.9209,-93.8064 282.423,-98.4928 283.2715,-91.5444"/>
<g id="a_edge12&#45;headlabel"><a xlink:href="dir_000116_000076.html" target="_top" xlink:title="1">
<text text-anchor="middle" x="287.1837" y="-86.6616" font-family="Helvetica,sans-Serif" font-size="10.00" fill="#000000">1</text>
</a>
</g>
</g>
<!-- dir_04ece05d7c7fe751e39bd0511b9068fc -->
<g id="node9" class="node">
<title>dir_04ece05d7c7fe751e39bd0511b9068fc</title>
<g id="a_node9"><a xlink:href="dir_04ece05d7c7fe751e39bd0511b9068fc.html" target="_top" xlink:title="Workflow">
<polygon fill="#ffffff" stroke="#ff0000" points="517.8805,-396 455.8805,-396 455.8805,-360 517.8805,-360 517.8805,-396"/>
<text text-anchor="middle" x="486.8805" y="-375.5" font-family="Helvetica,sans-Serif" font-size="10.00" fill="#000000">Workflow</text>
</a>
</g>
</g>
<!-- dir_04ece05d7c7fe751e39bd0511b9068fc&#45;&gt;dir_1155c84989a046e7de4bf0156dc4b34c -->
<g id="edge22" class="edge">
<title>dir_04ece05d7c7fe751e39bd0511b9068fc&#45;&gt;dir_1155c84989a046e7de4bf0156dc4b34c</title>
<path fill="none" stroke="#000000" d="M455.6819,-372.6611C424.2223,-365.9298 375.7381,-351.7175 342.8805,-324 328.722,-312.0564 331.8862,-303.5883 321.8805,-288 316.0288,-278.8834 309.3192,-269.1391 303.1825,-260.4728"/>
<polygon fill="#000000" stroke="#000000" points="305.9524,-258.329 297.2897,-252.229 300.2576,-262.3997 305.9524,-258.329"/>
<g id="a_edge22&#45;headlabel"><a xlink:href="dir_000540_000129.html" target="_top" xlink:title="8">
<text text-anchor="middle" x="310.3525" y="-257.1022" font-family="Helvetica,sans-Serif" font-size="10.00" fill="#000000">8</text>
</a>
</g>
</g>
<!-- dir_04ece05d7c7fe751e39bd0511b9068fc&#45;&gt;dir_b098e3604916eca5f90f2bb1c75b7880 -->
<g id="edge26" class="edge">
<title>dir_04ece05d7c7fe751e39bd0511b9068fc&#45;&gt;dir_b098e3604916eca5f90f2bb1c75b7880</title>
<path fill="none" stroke="#000000" d="M506.7307,-359.6546C524.8531,-340.6472 546.4825,-310.6132 529.8805,-288 514.0381,-266.4214 442.5684,-249.5695 396.887,-240.7625"/>
<polygon fill="#000000" stroke="#000000" points="397.4746,-237.3117 387,-238.9038 396.1812,-244.1912 397.4746,-237.3117"/>
<g id="a_edge26&#45;headlabel"><a xlink:href="dir_000540_000495.html" target="_top" xlink:title="4">
<text text-anchor="middle" x="401.5318" y="-232.6854" font-family="Helvetica,sans-Serif" font-size="10.00" fill="#000000">4</text>
</a>
</g>
</g>
<!-- dir_04ece05d7c7fe751e39bd0511b9068fc&#45;&gt;dir_6229e1f1a243f5ed3f0013dfa4f13deb -->
<g id="edge21" class="edge">
<title>dir_04ece05d7c7fe751e39bd0511b9068fc&#45;&gt;dir_6229e1f1a243f5ed3f0013dfa4f13deb</title>
<path fill="none" stroke="#000000" d="M485.1141,-359.8314C484.3655,-352.131 483.4752,-342.9743 482.6432,-334.4166"/>
<polygon fill="#000000" stroke="#000000" points="486.122,-334.0276 481.6707,-324.4133 479.1548,-334.7051 486.122,-334.0276"/>
<g id="a_edge21&#45;headlabel"><a xlink:href="dir_000540_000514.html" target="_top" xlink:title="1">
<text text-anchor="middle" x="489.2957" y="-334.8307" font-family="Helvetica,sans-Serif" font-size="10.00" fill="#000000">1</text>
</a>
</g>
</g>
<!-- dir_04ece05d7c7fe751e39bd0511b9068fc&#45;&gt;dir_f8de85f281636d081fd2e7e06b0134d2 -->
<g id="edge24" class="edge">
<title>dir_04ece05d7c7fe751e39bd0511b9068fc&#45;&gt;dir_f8de85f281636d081fd2e7e06b0134d2</title>
<path fill="none" stroke="#000000" d="M511.8624,-359.8314C524.1733,-350.8779 539.1912,-339.9558 552.4742,-330.2955"/>
<polygon fill="#000000" stroke="#000000" points="554.8778,-332.8752 560.9066,-324.1628 550.7606,-327.214 554.8778,-332.8752"/>
<g id="a_edge24&#45;headlabel"><a xlink:href="dir_000540_000406.html" target="_top" xlink:title="8">
<text text-anchor="middle" x="553.6407" y="-334.7856" font-family="Helvetica,sans-Serif" font-size="10.00" fill="#000000">8</text>
</a>
</g>
</g>
<!-- dir_04ece05d7c7fe751e39bd0511b9068fc&#45;&gt;dir_bcbb2cf9a3d3d83e5515c82071a07177 -->
<g id="edge23" class="edge">
<title>dir_04ece05d7c7fe751e39bd0511b9068fc&#45;&gt;dir_bcbb2cf9a3d3d83e5515c82071a07177</title>
<path fill="none" stroke="#000000" d="M455.6442,-374.1765C408.9341,-367.7544 318.6957,-352.604 246.8805,-324 188.7439,-300.8442 163.8759,-301.7232 125.8805,-252 112.3189,-234.2525 106.1135,-209.5498 103.2743,-190.5135"/>
<polygon fill="#000000" stroke="#000000" points="106.7137,-189.8119 101.9896,-180.3286 99.7687,-190.688 106.7137,-189.8119"/>
<g id="a_edge23&#45;headlabel"><a xlink:href="dir_000540_000013.html" target="_top" xlink:title="71">
<text text-anchor="middle" x="109.9804" y="-190.523" font-family="Helvetica,sans-Serif" font-size="10.00" fill="#000000">71</text>
</a>
</g>
</g>
<!-- dir_04ece05d7c7fe751e39bd0511b9068fc&#45;&gt;dir_2171f7ec022c5423887b07c69b2f5b48 -->
<g id="edge25" class="edge">
<title>dir_04ece05d7c7fe751e39bd0511b9068fc&#45;&gt;dir_2171f7ec022c5423887b07c69b2f5b48</title>
<path fill="none" stroke="#000000" d="M517.9927,-367.615C555.9154,-354.6472 615.7421,-333.0666 621.8805,-324 630.8506,-310.7509 627.4815,-302.9876 621.8805,-288 588.9051,-199.7622 565.403,-173.4237 482.8805,-128 449.4089,-109.5759 345.8799,-98.6385 283.0344,-93.5244"/>
<polygon fill="#000000" stroke="#000000" points="283.1812,-90.0252 272.9359,-92.7242 282.6282,-97.0033 283.1812,-90.0252"/>
<g id="a_edge25&#45;headlabel"><a xlink:href="dir_000540_000076.html" target="_top" xlink:title="2">
<text text-anchor="middle" x="286.9889" y="-84.9787" font-family="Helvetica,sans-Serif" font-size="10.00" fill="#000000">2</text>
</a>
</g>
</g>
<!-- dir_4ab6b4cc6a7edbff49100e9123df213f&#45;&gt;dir_bcbb2cf9a3d3d83e5515c82071a07177 -->
<g id="edge3" class="edge">
<title>dir_4ab6b4cc6a7edbff49100e9123df213f&#45;&gt;dir_bcbb2cf9a3d3d83e5515c82071a07177</title>
<path fill="none" stroke="#000000" d="M169.2198,-216.0171C155.9252,-206.9968 140.5657,-195.9432 127.7257,-186.1901"/>
<polygon fill="#000000" stroke="#000000" points="129.7558,-183.3359 119.6987,-180.0032 125.4824,-188.8801 129.7558,-183.3359"/>
<g id="a_edge3&#45;headlabel"><a xlink:href="dir_000027_000013.html" target="_top" xlink:title="2">
<text text-anchor="middle" x="134.3361" y="-180.7815" font-family="Helvetica,sans-Serif" font-size="10.00" fill="#000000">2</text>
</a>
</g>
</g>
<!-- dir_4ab6b4cc6a7edbff49100e9123df213f&#45;&gt;dir_2171f7ec022c5423887b07c69b2f5b48 -->
<g id="edge4" class="edge">
<title>dir_4ab6b4cc6a7edbff49100e9123df213f&#45;&gt;dir_2171f7ec022c5423887b07c69b2f5b48</title>
<path fill="none" stroke="#000000" d="M199.3868,-215.7623C202.5696,-191.0928 212.44,-146.8598 220.998,-117.9731"/>
<polygon fill="#000000" stroke="#000000" points="224.4442,-118.6781 224.0767,-108.0896 217.7609,-116.5962 224.4442,-118.6781"/>
<g id="a_edge4&#45;headlabel"><a xlink:href="dir_000027_000076.html" target="_top" xlink:title="2">
<text text-anchor="middle" x="226.086" y="-120.4544" font-family="Helvetica,sans-Serif" font-size="10.00" fill="#000000">2</text>
</a>
</g>
</g>
<!-- dir_37c90836491b695b472bf98d1be8336b&#45;&gt;dir_4ab6b4cc6a7edbff49100e9123df213f -->
<g id="edge5" class="edge">
<title>dir_37c90836491b695b472bf98d1be8336b&#45;&gt;dir_4ab6b4cc6a7edbff49100e9123df213f</title>
<path fill="none" stroke="#000000" d="M167.8207,-36.1451C173.9342,-73.8741 188.0531,-161.0083 195.3427,-205.9956"/>
<polygon fill="#000000" stroke="#000000" points="191.9021,-206.6441 196.9566,-215.9555 198.812,-205.5244 191.9021,-206.6441"/>
<g id="a_edge5&#45;headlabel"><a xlink:href="dir_000273_000027.html" target="_top" xlink:title="16">
<text text-anchor="middle" x="188.5245" y="-201.0499" font-family="Helvetica,sans-Serif" font-size="10.00" fill="#000000">16</text>
</a>
</g>
</g>
<!-- dir_37c90836491b695b472bf98d1be8336b&#45;&gt;dir_bcbb2cf9a3d3d83e5515c82071a07177 -->
<g id="edge6" class="edge">
<title>dir_37c90836491b695b472bf98d1be8336b&#45;&gt;dir_bcbb2cf9a3d3d83e5515c82071a07177</title>
<path fill="none" stroke="#000000" d="M156.8407,-36.0896C145.8155,-60.8962 125.9105,-105.6824 113.0533,-134.6113"/>
<polygon fill="#000000" stroke="#000000" points="109.8492,-133.2027 108.9861,-143.7623 116.2459,-136.0457 109.8492,-133.2027"/>
<g id="a_edge6&#45;headlabel"><a xlink:href="dir_000273_000013.html" target="_top" xlink:title="1">
<text text-anchor="middle" x="108.7145" y="-126.2648" font-family="Helvetica,sans-Serif" font-size="10.00" fill="#000000">1</text>
</a>
</g>
</g>
<!-- dir_37c90836491b695b472bf98d1be8336b&#45;&gt;dir_2171f7ec022c5423887b07c69b2f5b48 -->
<g id="edge7" class="edge">
<title>dir_37c90836491b695b472bf98d1be8336b&#45;&gt;dir_2171f7ec022c5423887b07c69b2f5b48</title>
<path fill="none" stroke="#000000" d="M187.9861,-36.1628C196.7811,-44.6038 206.5932,-54.7956 214.8651,-64.0303"/>
<polygon fill="#000000" stroke="#000000" points="212.4611,-66.5987 221.6736,-71.8314 217.735,-61.9958 212.4611,-66.5987"/>
<g id="a_edge7&#45;headlabel"><a xlink:href="dir_000273_000076.html" target="_top" xlink:title="10">
<text text-anchor="middle" x="207.9584" y="-63.2575" font-family="Helvetica,sans-Serif" font-size="10.00" fill="#000000">10</text>
</a>
</g>
</g>
<!-- dir_f01815b857f9009bea48e2cb39492245&#45;&gt;dir_4ab6b4cc6a7edbff49100e9123df213f -->
<g id="edge19" class="edge">
<title>dir_f01815b857f9009bea48e2cb39492245&#45;&gt;dir_4ab6b4cc6a7edbff49100e9123df213f</title>
<path fill="none" stroke="#000000" d="M44.254,-108.2229C41.416,-127.9671 40.2095,-159.4004 55.8805,-180 68.791,-196.9709 121.6488,-213.7861 159.5793,-224.0333"/>
<polygon fill="#000000" stroke="#000000" points="158.7885,-227.4445 169.3511,-226.6185 160.5788,-220.6773 158.7885,-227.4445"/>
<g id="a_edge19&#45;headlabel"><a xlink:href="dir_000562_000027.html" target="_top" xlink:title="5">
<text text-anchor="middle" x="154.5873" y="-226.7701" font-family="Helvetica,sans-Serif" font-size="10.00" fill="#000000">5</text>
</a>
</g>
</g>
<!-- dir_f01815b857f9009bea48e2cb39492245&#45;&gt;dir_37c90836491b695b472bf98d1be8336b -->
<g id="edge20" class="edge">
<title>dir_f01815b857f9009bea48e2cb39492245&#45;&gt;dir_37c90836491b695b472bf98d1be8336b</title>
<path fill="none" stroke="#000000" d="M75.0167,-73.3008C90.9977,-63.4663 111.4121,-50.9036 128.7437,-40.238"/>
<polygon fill="#000000" stroke="#000000" points="130.8039,-43.0799 137.4861,-34.8581 127.1352,-37.1183 130.8039,-43.0799"/>
<g id="a_edge20&#45;headlabel"><a xlink:href="dir_000562_000273.html" target="_top" xlink:title="19">
<text text-anchor="middle" x="129.2306" y="-44.8819" font-family="Helvetica,sans-Serif" font-size="10.00" fill="#000000">19</text>
</a>
</g>
</g>
<!-- dir_bcbb2cf9a3d3d83e5515c82071a07177&#45;&gt;dir_4ab6b4cc6a7edbff49100e9123df213f -->
<g id="edge27" class="edge">
<title>dir_bcbb2cf9a3d3d83e5515c82071a07177&#45;&gt;dir_4ab6b4cc6a7edbff49100e9123df213f</title>
<path fill="none" stroke="#000000" d="M131.8062,-180.1628C144.9889,-189.1154 160.1635,-200.0374 172.8883,-209.6982"/>
<polygon fill="#000000" stroke="#000000" points="170.7928,-212.5021 180.851,-215.8314 175.0643,-206.9564 170.7928,-212.5021"/>
<g id="a_edge27&#45;headlabel"><a xlink:href="dir_000013_000027.html" target="_top" xlink:title="8">
<text text-anchor="middle" x="166.2125" y="-210.058" font-family="Helvetica,sans-Serif" font-size="10.00" fill="#000000">8</text>
</a>
</g>
</g>
<!-- dir_bcbb2cf9a3d3d83e5515c82071a07177&#45;&gt;dir_f01815b857f9009bea48e2cb39492245 -->
<g id="edge28" class="edge">
<title>dir_bcbb2cf9a3d3d83e5515c82071a07177&#45;&gt;dir_f01815b857f9009bea48e2cb39492245</title>
<path fill="none" stroke="#000000" d="M87.5064,-143.8314C81.4643,-135.6232 74.2042,-125.7606 67.5584,-116.7323"/>
<polygon fill="#000000" stroke="#000000" points="70.1816,-114.3918 61.4347,-108.4133 64.5442,-118.5415 70.1816,-114.3918"/>
<g id="a_edge28&#45;headlabel"><a xlink:href="dir_000013_000562.html" target="_top" xlink:title="2">
<text text-anchor="middle" x="74.5991" y="-113.1035" font-family="Helvetica,sans-Serif" font-size="10.00" fill="#000000">2</text>
</a>
</g>
</g>
<!-- dir_bcbb2cf9a3d3d83e5515c82071a07177&#45;&gt;dir_2171f7ec022c5423887b07c69b2f5b48 -->
<g id="edge29" class="edge">
<title>dir_bcbb2cf9a3d3d83e5515c82071a07177&#45;&gt;dir_2171f7ec022c5423887b07c69b2f5b48</title>
<path fill="none" stroke="#000000" d="M128.2373,-143.8314C144.5195,-134.4516 165.5485,-122.9112 184.5149,-112.9244"/>
<polygon fill="#000000" stroke="#000000" points="186.3871,-115.8952 193.6302,-108.1628 183.1461,-109.6907 186.3871,-115.8952"/>
<g id="a_edge29&#45;headlabel"><a xlink:href="dir_000013_000076.html" target="_top" xlink:title="82">
<text text-anchor="middle" x="184.5156" y="-117.5761" font-family="Helvetica,sans-Serif" font-size="10.00" fill="#000000">82</text>
</a>
</g>
</g>
<!-- dir_2171f7ec022c5423887b07c69b2f5b48&#45;&gt;dir_4ab6b4cc6a7edbff49100e9123df213f -->
<g id="edge32" class="edge">
<title>dir_2171f7ec022c5423887b07c69b2f5b48&#45;&gt;dir_4ab6b4cc6a7edbff49100e9123df213f</title>
<path fill="none" stroke="#000000" d="M233.3933,-108.0896C230.2373,-132.6805 220.3777,-176.905 211.8145,-205.8531"/>
<polygon fill="#000000" stroke="#000000" points="208.3604,-205.174 208.7331,-215.7623 215.0447,-207.2526 208.3604,-205.174"/>
<g id="a_edge32&#45;headlabel"><a xlink:href="dir_000076_000027.html" target="_top" xlink:title="34">
<text text-anchor="middle" x="206.7165" y="-198.3985" font-family="Helvetica,sans-Serif" font-size="10.00" fill="#000000">34</text>
</a>
</g>
</g>
<!-- dir_2171f7ec022c5423887b07c69b2f5b48&#45;&gt;dir_37c90836491b695b472bf98d1be8336b -->
<g id="edge33" class="edge">
<title>dir_2171f7ec022c5423887b07c69b2f5b48&#45;&gt;dir_37c90836491b695b472bf98d1be8336b</title>
<path fill="none" stroke="#000000" d="M209.7688,-71.8314C201.0405,-63.454 191.3111,-53.3531 183.0799,-44.1749"/>
<polygon fill="#000000" stroke="#000000" points="185.5115,-41.6386 176.2948,-36.4133 180.2413,-46.2457 185.5115,-41.6386"/>
<g id="a_edge33&#45;headlabel"><a xlink:href="dir_000076_000273.html" target="_top" xlink:title="1">
<text text-anchor="middle" x="190.0149" y="-39.9762" font-family="Helvetica,sans-Serif" font-size="10.00" fill="#000000">1</text>
</a>
</g>
</g>
<!-- dir_2171f7ec022c5423887b07c69b2f5b48&#45;&gt;dir_bcbb2cf9a3d3d83e5515c82071a07177 -->
<g id="edge34" class="edge">
<title>dir_2171f7ec022c5423887b07c69b2f5b48&#45;&gt;dir_bcbb2cf9a3d3d83e5515c82071a07177</title>
<path fill="none" stroke="#000000" d="M205.7429,-108.0423C188.3646,-118.0591 165.5153,-130.5693 145.5398,-141.0211"/>
<polygon fill="#000000" stroke="#000000" points="143.8589,-137.9501 136.5942,-145.6621 147.0825,-144.1637 143.8589,-137.9501"/>
<g id="a_edge34&#45;headlabel"><a xlink:href="dir_000076_000013.html" target="_top" xlink:title="7">
<text text-anchor="middle" x="145.7422" y="-131.2745" font-family="Helvetica,sans-Serif" font-size="10.00" fill="#000000">7</text>
</a>
</g>
</g>
</g>
</svg>
        <g id="navigator" transform="translate(0 0)" fill="#404254">
                <rect fill="#f2f5e9" fill-opacity="0.5" stroke="#606060" stroke-width=".5" x="0" y="0" width="60" height="60"/>
                <use id="zoomplus" xlink:href="#zoomPlus" x="17" y="9" onmousedown="handleZoom(evt,'in')"/>
                <use id="zoomminus" xlink:href="#zoomMin" x="42" y="9" onmousedown="handleZoom(evt,'out')"/>
                <use id="reset" xlink:href="#resetDef" x="30" y="36" onmousedown="handleReset()"/>
                <g id="arrowUp" xlink:href="#dirArrow" transform="translate(30 24)" onmousedown="handlePan(0,-1)">
                  <use xlink:href="#rim" fill="#404040">
                        <set attributeName="fill" to="#808080" begin="arrowUp.mouseover" end="arrowUp.mouseout"/>
                  </use>
                  <path fill="none" stroke="white" stroke-width="1.5" d="M0,-3.0v7 M-2.5,-0.5L0,-3.0L2.5,-0.5"/>
                </g>
                <g id="arrowRight" xlink:href="#dirArrow" transform="rotate(90) translate(36 -43)" onmousedown="handlePan(1,0)">
                  <use xlink:href="#rim" fill="#404040">
                        <set attributeName="fill" to="#808080" begin="arrowRight.mouseover" end="arrowRight.mouseout"/>
                  </use>
                  <path fill="none" stroke="white" stroke-width="1.5" d="M0,-3.0v7 M-2.5,-0.5L0,-3.0L2.5,-0.5"/>
                </g>
                <g id="arrowDown" xlink:href="#dirArrow" transform="rotate(180) translate(-30 -48)" onmousedown="handlePan(0,1)">
                  <use xlink:href="#rim" fill="#404040">
                        <set attributeName="fill" to="#808080" begin="arrowDown.mouseover" end="arrowDown.mouseout"/>
                  </use>
                  <path fill="none" stroke="white" stroke-width="1.5" d="M0,-3.0v7 M-2.5,-0.5L0,-3.0L2.5,-0.5"/>
                </g>
                <g id="arrowLeft" xlink:href="#dirArrow" transform="rotate(270) translate(-36 17)" onmousedown="handlePan(-1,0)">
                  <use xlink:href="#rim" fill="#404040">
                        <set attributeName="fill" to="#808080" begin="arrowLeft.mouseover" end="arrowLeft.mouseout"/>
                  </use>
                  <path fill="none" stroke="white" stroke-width="1.5" d="M0,-3.0v7 M-2.5,-0.5L0,-3.0L2.5,-0.5"/>
                </g>
        </g>
        <svg viewBox="0 0 15 15" width="100%" height="30px" preserveAspectRatio="xMaxYMin meet">
         <g id="arrow_out" transform="scale(0.3 0.3)">
          <a xlink:href="dir_061f7088060f41729027f6c2fce0273e_dep_org.svg" target="_base">
           <rect id="button" ry="5" rx="5" y="6" x="6" height="38" width="38"
                fill="#f2f5e9" fill-opacity="0.5" stroke="#606060" stroke-width="1.0"/>
           <path id="arrow"
             d="M 11.500037,31.436501 C 11.940474,20.09759 22.043105,11.32322 32.158766,21.979434 L 37.068811,17.246167 C 37.068811,17.246167 37.088388,32 37.088388,32 L 22.160133,31.978069 C 22.160133,31.978069 26.997745,27.140456 26.997745,27.140456 C 18.528582,18.264221 13.291696,25.230495 11.500037,31.436501 z"
             style="fill:#404040;"/>
          </a>
         </g>
        </svg>
</svg>
