<?xml version="1.0" encoding="UTF-8" standalone="no"?>
<!DOCTYPE svg PUBLIC "-//W3C//DTD SVG 1.1//EN"
 "http://www.w3.org/Graphics/SVG/1.1/DTD/svg11.dtd">
<!-- Generated by graphviz version 2.40.1 (20161225.0304)
 -->
<!-- Title: /home/travis/build/AliceO2Group/AliceO2/Detectors/MUON/MCH/Workflow Pages: 1 -->
<svg width="405pt" height="303pt"
 viewBox="0.00 0.00 404.59 303.00" xmlns="http://www.w3.org/2000/svg" xmlns:xlink="http://www.w3.org/1999/xlink">
<g id="graph0" class="graph" transform="scale(1 1) rotate(0) translate(4 299)">
<title>/home/travis/build/AliceO2Group/AliceO2/Detectors/MUON/MCH/Workflow</title>
<g id="clust1" class="cluster">
<title>clusterdir_061f7088060f41729027f6c2fce0273e</title>
<g id="a_clust1"><a xlink:href="dir_061f7088060f41729027f6c2fce0273e.html" target="_top" xlink:title="MCH">
<polygon fill="#ddddee" stroke="#000000" points="8,-128 8,-287 174,-287 174,-128 8,-128"/>
<text text-anchor="middle" x="91" y="-275" font-family="Helvetica,sans-Serif" font-size="10.00" fill="#000000">MCH</text>
</a>
</g>
</g>
<g id="clust2" class="cluster">
<title>clusterdir_04ece05d7c7fe751e39bd0511b9068fc</title>
<g id="a_clust2"><a xlink:href="dir_04ece05d7c7fe751e39bd0511b9068fc.html" target="_top">
<polygon fill="#eeeeff" stroke="#000000" points="16,-136 16,-260 166,-260 166,-136 16,-136"/>
</a>
</g>
</g>
<!-- dir_04ece05d7c7fe751e39bd0511b9068fc -->
<g id="node1" class="node">
<title>dir_04ece05d7c7fe751e39bd0511b9068fc</title>
<text text-anchor="middle" x="127" y="-231.5" font-family="Helvetica,sans-Serif" font-size="10.00" fill="#000000">Workflow</text>
</g>
<!-- dir_ade19310a6abca7155cb213ca0a7e06d -->
<g id="node2" class="node">
<title>dir_ade19310a6abca7155cb213ca0a7e06d</title>
<g id="a_node2"><a xlink:href="dir_ade19310a6abca7155cb213ca0a7e06d.html" target="_top" xlink:title="include">
<polygon fill="#ffffff" stroke="#ff0000" points="80,-180 26,-180 26,-144 80,-144 80,-180"/>
<text text-anchor="middle" x="53" y="-159.5" font-family="Helvetica,sans-Serif" font-size="10.00" fill="#000000">include</text>
</a>
</g>
</g>
<!-- dir_bcbb2cf9a3d3d83e5515c82071a07177 -->
<g id="node6" class="node">
<title>dir_bcbb2cf9a3d3d83e5515c82071a07177</title>
<g id="a_node6"><a xlink:href="dir_bcbb2cf9a3d3d83e5515c82071a07177.html" target="_top" xlink:title="Framework">
<polygon fill="none" stroke="#ff0000" points="148.5,-108 77.5,-108 77.5,-72 148.5,-72 148.5,-108"/>
<text text-anchor="middle" x="113" y="-87.5" font-family="Helvetica,sans-Serif" font-size="10.00" fill="#000000">Framework</text>
</a>
</g>
</g>
<!-- dir_ade19310a6abca7155cb213ca0a7e06d&#45;&gt;dir_bcbb2cf9a3d3d83e5515c82071a07177 -->
<g id="edge10" class="edge">
<title>dir_ade19310a6abca7155cb213ca0a7e06d&#45;&gt;dir_bcbb2cf9a3d3d83e5515c82071a07177</title>
<path fill="none" stroke="#000000" d="M68.1405,-143.8314C75.1217,-135.454 83.5391,-125.3531 91.1876,-116.1749"/>
<polygon fill="#000000" stroke="#000000" points="93.9425,-118.3362 97.6556,-108.4133 88.5649,-113.8548 93.9425,-118.3362"/>
<g id="a_edge10&#45;headlabel"><a xlink:href="dir_000541_000013.html" target="_top" xlink:title="2">
<text text-anchor="middle" x="93.8225" y="-120.4152" font-family="Helvetica,sans-Serif" font-size="10.00" fill="#000000">2</text>
</a>
</g>
</g>
<!-- dir_e2a306cbeddc37280b8dde7d223d74dd -->
<g id="node3" class="node">
<title>dir_e2a306cbeddc37280b8dde7d223d74dd</title>
<g id="a_node3"><a xlink:href="dir_e2a306cbeddc37280b8dde7d223d74dd.html" target="_top" xlink:title="src">
<polygon fill="#ffffff" stroke="#000000" points="78,-252 24,-252 24,-216 78,-216 78,-252"/>
<text text-anchor="middle" x="51" y="-231.5" font-family="Helvetica,sans-Serif" font-size="10.00" fill="#000000">src</text>
</a>
</g>
</g>
<!-- dir_e2a306cbeddc37280b8dde7d223d74dd&#45;&gt;dir_ade19310a6abca7155cb213ca0a7e06d -->
<g id="edge5" class="edge">
<title>dir_e2a306cbeddc37280b8dde7d223d74dd&#45;&gt;dir_ade19310a6abca7155cb213ca0a7e06d</title>
<path fill="none" stroke="#000000" d="M51.5047,-215.8314C51.7186,-208.131 51.9729,-198.9743 52.2106,-190.4166"/>
<polygon fill="#000000" stroke="#000000" points="55.7094,-190.5066 52.4885,-180.4133 48.7121,-190.3122 55.7094,-190.5066"/>
<g id="a_edge5&#45;headlabel"><a xlink:href="dir_000543_000541.html" target="_top" xlink:title="4">
<text text-anchor="middle" x="58.4479" y="-191.6787" font-family="Helvetica,sans-Serif" font-size="10.00" fill="#000000">4</text>
</a>
</g>
</g>
<!-- dir_6229e1f1a243f5ed3f0013dfa4f13deb -->
<g id="node4" class="node">
<title>dir_6229e1f1a243f5ed3f0013dfa4f13deb</title>
<g id="a_node4"><a xlink:href="dir_6229e1f1a243f5ed3f0013dfa4f13deb.html" target="_top" xlink:title="PreClustering">
<polygon fill="none" stroke="#ff0000" points="264,-180 182,-180 182,-144 264,-144 264,-180"/>
<text text-anchor="middle" x="223" y="-159.5" font-family="Helvetica,sans-Serif" font-size="10.00" fill="#000000">PreClustering</text>
</a>
</g>
</g>
<!-- dir_e2a306cbeddc37280b8dde7d223d74dd&#45;&gt;dir_6229e1f1a243f5ed3f0013dfa4f13deb -->
<g id="edge3" class="edge">
<title>dir_e2a306cbeddc37280b8dde7d223d74dd&#45;&gt;dir_6229e1f1a243f5ed3f0013dfa4f13deb</title>
<path fill="none" stroke="#000000" d="M78.0078,-220.1854C81.0242,-218.7354 84.0661,-217.3131 87,-216 114.8604,-203.5313 146.5267,-190.8717 172.2894,-180.9469"/>
<polygon fill="#000000" stroke="#000000" points="173.7676,-184.1287 181.8539,-177.2831 171.2635,-177.5919 173.7676,-184.1287"/>
<g id="a_edge3&#45;headlabel"><a xlink:href="dir_000543_000514.html" target="_top" xlink:title="1">
<text text-anchor="middle" x="171.4264" y="-185.5659" font-family="Helvetica,sans-Serif" font-size="10.00" fill="#000000">1</text>
</a>
</g>
</g>
<!-- dir_1155c84989a046e7de4bf0156dc4b34c -->
<g id="node5" class="node">
<title>dir_1155c84989a046e7de4bf0156dc4b34c</title>
<g id="a_node5"><a xlink:href="dir_1155c84989a046e7de4bf0156dc4b34c.html" target="_top" xlink:title="Base">
<polygon fill="none" stroke="#ff0000" points="227,-108 173,-108 173,-72 227,-72 227,-108"/>
<text text-anchor="middle" x="200" y="-87.5" font-family="Helvetica,sans-Serif" font-size="10.00" fill="#000000">Base</text>
</a>
</g>
</g>
<!-- dir_e2a306cbeddc37280b8dde7d223d74dd&#45;&gt;dir_1155c84989a046e7de4bf0156dc4b34c -->
<g id="edge4" class="edge">
<title>dir_e2a306cbeddc37280b8dde7d223d74dd&#45;&gt;dir_1155c84989a046e7de4bf0156dc4b34c</title>
<path fill="none" stroke="#000000" d="M72.2275,-215.8714C84.1114,-205.5587 99.0902,-192.2853 112,-180 134.1627,-158.9093 158.4033,-133.9701 175.8208,-115.6993"/>
<polygon fill="#000000" stroke="#000000" points="178.4924,-117.9688 182.8418,-108.3079 173.4171,-113.1478 178.4924,-117.9688"/>
<g id="a_edge4&#45;headlabel"><a xlink:href="dir_000543_000129.html" target="_top" xlink:title="8">
<text text-anchor="middle" x="178.0754" y="-120.0304" font-family="Helvetica,sans-Serif" font-size="10.00" fill="#000000">8</text>
</a>
</g>
</g>
<!-- dir_e2a306cbeddc37280b8dde7d223d74dd&#45;&gt;dir_bcbb2cf9a3d3d83e5515c82071a07177 -->
<g id="edge6" class="edge">
<title>dir_e2a306cbeddc37280b8dde7d223d74dd&#45;&gt;dir_bcbb2cf9a3d3d83e5515c82071a07177</title>
<path fill="none" stroke="#000000" d="M66.4707,-215.5187C74.1745,-205.5299 83.0822,-192.6719 89,-180 98.2091,-160.2805 104.3686,-136.4202 108.1397,-118.2231"/>
<polygon fill="#000000" stroke="#000000" points="111.6081,-118.7229 110.0891,-108.2376 104.7378,-117.3816 111.6081,-118.7229"/>
<g id="a_edge6&#45;headlabel"><a xlink:href="dir_000543_000013.html" target="_top" xlink:title="69">
<text text-anchor="middle" x="113.7061" y="-120.2949" font-family="Helvetica,sans-Serif" font-size="10.00" fill="#000000">69</text>
</a>
</g>
</g>
<!-- dir_f8de85f281636d081fd2e7e06b0134d2 -->
<g id="node7" class="node">
<title>dir_f8de85f281636d081fd2e7e06b0134d2</title>
<g id="a_node7"><a xlink:href="dir_f8de85f281636d081fd2e7e06b0134d2.html" target="_top" xlink:title="Raw">
<polygon fill="none" stroke="#ff0000" points="374,-180 320,-180 320,-144 374,-144 374,-180"/>
<text text-anchor="middle" x="347" y="-159.5" font-family="Helvetica,sans-Serif" font-size="10.00" fill="#000000">Raw</text>
</a>
</g>
</g>
<!-- dir_e2a306cbeddc37280b8dde7d223d74dd&#45;&gt;dir_f8de85f281636d081fd2e7e06b0134d2 -->
<g id="edge7" class="edge">
<title>dir_e2a306cbeddc37280b8dde7d223d74dd&#45;&gt;dir_f8de85f281636d081fd2e7e06b0134d2</title>
<path fill="none" stroke="#000000" d="M78.1574,-219.3619C81.0921,-218.1011 84.0751,-216.9476 87,-216 180.8384,-185.6005 211.4316,-208.0462 306,-180 307.2577,-179.627 308.5277,-179.225 309.803,-178.7993"/>
<polygon fill="#000000" stroke="#000000" points="311.4143,-181.9342 319.5647,-175.165 308.9719,-175.3741 311.4143,-181.9342"/>
<g id="a_edge7&#45;headlabel"><a xlink:href="dir_000543_000406.html" target="_top" xlink:title="8">
<text text-anchor="middle" x="309.0363" y="-183.3492" font-family="Helvetica,sans-Serif" font-size="10.00" fill="#000000">8</text>
</a>
</g>
</g>
<!-- dir_2171f7ec022c5423887b07c69b2f5b48 -->
<g id="node8" class="node">
<title>dir_2171f7ec022c5423887b07c69b2f5b48</title>
<g id="a_node8"><a xlink:href="dir_2171f7ec022c5423887b07c69b2f5b48.html" target="_top" xlink:title="DataFormats">
<polygon fill="none" stroke="#ff0000" points="259,-36 179,-36 179,0 259,0 259,-36"/>
<text text-anchor="middle" x="219" y="-15.5" font-family="Helvetica,sans-Serif" font-size="10.00" fill="#000000">DataFormats</text>
</a>
</g>
</g>
<!-- dir_e2a306cbeddc37280b8dde7d223d74dd&#45;&gt;dir_2171f7ec022c5423887b07c69b2f5b48 -->
<g id="edge8" class="edge">
<title>dir_e2a306cbeddc37280b8dde7d223d74dd&#45;&gt;dir_2171f7ec022c5423887b07c69b2f5b48</title>
<path fill="none" stroke="#000000" d="M78.1179,-219.2354C81.0603,-217.9993 84.0559,-216.8861 87,-216 150.4512,-196.9037 339.0647,-229.6025 383,-180 417.4785,-141.074 379.0816,-103.8795 338,-72 317.2982,-55.9353 291.0533,-43.3744 268.4812,-34.4258"/>
<polygon fill="#000000" stroke="#000000" points="269.6493,-31.1253 259.0591,-30.8122 267.1426,-37.6611 269.6493,-31.1253"/>
<g id="a_edge8&#45;headlabel"><a xlink:href="dir_000543_000076.html" target="_top" xlink:title="2">
<text text-anchor="middle" x="274.0223" y="-27.2615" font-family="Helvetica,sans-Serif" font-size="10.00" fill="#000000">2</text>
</a>
</g>
</g>
<!-- dir_b098e3604916eca5f90f2bb1c75b7880 -->
<g id="node9" class="node">
<title>dir_b098e3604916eca5f90f2bb1c75b7880</title>
<g id="a_node9"><a xlink:href="dir_b098e3604916eca5f90f2bb1c75b7880.html" target="_top" xlink:title="Mapping">
<polygon fill="none" stroke="#ff0000" points="306,-108 248,-108 248,-72 306,-72 306,-108"/>
<text text-anchor="middle" x="277" y="-87.5" font-family="Helvetica,sans-Serif" font-size="10.00" fill="#000000">Mapping</text>
</a>
</g>
</g>
<!-- dir_e2a306cbeddc37280b8dde7d223d74dd&#45;&gt;dir_b098e3604916eca5f90f2bb1c75b7880 -->
<g id="edge9" class="edge">
<title>dir_e2a306cbeddc37280b8dde7d223d74dd&#45;&gt;dir_b098e3604916eca5f90f2bb1c75b7880</title>
<path fill="none" stroke="#000000" d="M78.1856,-219.4467C81.1147,-218.1694 84.0887,-216.9888 87,-216 166.7278,-188.9212 217.9866,-243.744 273,-180 287.379,-163.3391 287.1596,-137.803 284.0457,-118.1818"/>
<polygon fill="#000000" stroke="#000000" points="287.4653,-117.4292 282.1542,-108.2617 280.5892,-118.7403 287.4653,-117.4292"/>
<g id="a_edge9&#45;headlabel"><a xlink:href="dir_000543_000495.html" target="_top" xlink:title="4">
<text text-anchor="middle" x="290.9275" y="-117.9284" font-family="Helvetica,sans-Serif" font-size="10.00" fill="#000000">4</text>
</a>
</g>
</g>
<!-- dir_6229e1f1a243f5ed3f0013dfa4f13deb&#45;&gt;dir_1155c84989a046e7de4bf0156dc4b34c -->
<g id="edge1" class="edge">
<title>dir_6229e1f1a243f5ed3f0013dfa4f13deb&#45;&gt;dir_1155c84989a046e7de4bf0156dc4b34c</title>
<path fill="none" stroke="#000000" d="M217.1961,-143.8314C214.7092,-136.0463 211.7469,-126.7729 208.9875,-118.1347"/>
<polygon fill="#000000" stroke="#000000" points="212.2591,-116.874 205.882,-108.4133 205.591,-119.0041 212.2591,-116.874"/>
<g id="a_edge1&#45;headlabel"><a xlink:href="dir_000514_000129.html" target="_top" xlink:title="2">
<text text-anchor="middle" x="216.0574" y="-116.9342" font-family="Helvetica,sans-Serif" font-size="10.00" fill="#000000">2</text>
</a>
</g>
</g>
<!-- dir_6229e1f1a243f5ed3f0013dfa4f13deb&#45;&gt;dir_b098e3604916eca5f90f2bb1c75b7880 -->
<g id="edge2" class="edge">
<title>dir_6229e1f1a243f5ed3f0013dfa4f13deb&#45;&gt;dir_b098e3604916eca5f90f2bb1c75b7880</title>
<path fill="none" stroke="#000000" d="M236.6265,-143.8314C242.846,-135.5386 250.3322,-125.557 257.16,-116.4533"/>
<polygon fill="#000000" stroke="#000000" points="259.99,-118.5133 263.19,-108.4133 254.39,-114.3133 259.99,-118.5133"/>
<g id="a_edge2&#45;headlabel"><a xlink:href="dir_000514_000495.html" target="_top" xlink:title="2">
<text text-anchor="middle" x="260.1047" y="-120.5925" font-family="Helvetica,sans-Serif" font-size="10.00" fill="#000000">2</text>
</a>
</g>
</g>
<!-- dir_bcbb2cf9a3d3d83e5515c82071a07177&#45;&gt;dir_2171f7ec022c5423887b07c69b2f5b48 -->
<g id="edge11" class="edge">
<title>dir_bcbb2cf9a3d3d83e5515c82071a07177&#45;&gt;dir_2171f7ec022c5423887b07c69b2f5b48</title>
<path fill="none" stroke="#000000" d="M133.7959,-71.8314C146.3392,-62.7074 162.6358,-51.539 177.6527,-41.7449"/>
<polygon fill="#000000" stroke="#000000" points="179.8013,-44.5239 186.3085,-36.1628 176.0075,-38.6411 179.8013,-44.5239"/>
<g id="a_edge11&#45;headlabel"><a xlink:href="dir_000013_000076.html" target="_top" xlink:title="82">
<text text-anchor="middle" x="178.3192" y="-46.3582" font-family="Helvetica,sans-Serif" font-size="10.00" fill="#000000">82</text>
</a>
</g>
</g>
<!-- dir_f8de85f281636d081fd2e7e06b0134d2&#45;&gt;dir_2171f7ec022c5423887b07c69b2f5b48 -->
<g id="edge12" class="edge">
<title>dir_f8de85f281636d081fd2e7e06b0134d2&#45;&gt;dir_2171f7ec022c5423887b07c69b2f5b48</title>
<path fill="none" stroke="#000000" d="M344.4264,-143.9014C340.8256,-124.2661 332.6276,-92.9277 315,-72 302.6308,-57.3151 285.1966,-45.8425 268.5732,-37.3215"/>
<polygon fill="#000000" stroke="#000000" points="269.9825,-34.1149 259.4588,-32.8895 266.9214,-40.4102 269.9825,-34.1149"/>
<g id="a_edge12&#45;headlabel"><a xlink:href="dir_000406_000076.html" target="_top" xlink:title="8">
<text text-anchor="middle" x="274.4568" y="-30.6334" font-family="Helvetica,sans-Serif" font-size="10.00" fill="#000000">8</text>
</a>
</g>
</g>
<!-- dir_2171f7ec022c5423887b07c69b2f5b48&#45;&gt;dir_bcbb2cf9a3d3d83e5515c82071a07177 -->
<g id="edge13" class="edge">
<title>dir_2171f7ec022c5423887b07c69b2f5b48&#45;&gt;dir_bcbb2cf9a3d3d83e5515c82071a07177</title>
<path fill="none" stroke="#000000" d="M198.2121,-36.1628C185.6703,-45.2859 169.3743,-56.4541 154.3569,-66.2489"/>
<polygon fill="#000000" stroke="#000000" points="152.2077,-63.4702 145.7007,-71.8314 156.0016,-69.3529 152.2077,-63.4702"/>
<g id="a_edge13&#45;headlabel"><a xlink:href="dir_000076_000013.html" target="_top" xlink:title="7">
<text text-anchor="middle" x="153.6898" y="-56.6359" font-family="Helvetica,sans-Serif" font-size="10.00" fill="#000000">7</text>
</a>
</g>
</g>
</g>
</svg>
