<?xml version="1.0" encoding="UTF-8" standalone="no"?>
<!DOCTYPE svg PUBLIC "-//W3C//DTD SVG 1.1//EN"
 "http://www.w3.org/Graphics/SVG/1.1/DTD/svg11.dtd">
<!-- Generated by graphviz version 2.40.1 (20161225.0304)
 -->
<!-- Title: /home/travis/build/AliceO2Group/AliceO2/Detectors/ITSMFT/ITS/workflow/src Pages: 1 -->
<svg width="722pt" height="655pt"
 viewBox="0.00 0.00 722.06 655.00" xmlns="http://www.w3.org/2000/svg" xmlns:xlink="http://www.w3.org/1999/xlink">
<g id="graph0" class="graph" transform="scale(1 1) rotate(0) translate(4 651)">
<title>/home/travis/build/AliceO2Group/AliceO2/Detectors/ITSMFT/ITS/workflow/src</title>
<g id="clust1" class="cluster">
<title>clusterdir_1c10308a10e2a510f98c8482fd126054</title>
<g id="a_clust1"><a xlink:href="dir_1c10308a10e2a510f98c8482fd126054.html" target="_top" xlink:title="workflow">
<polygon fill="#ddddee" stroke="#000000" points="296,-568 296,-639 366,-639 366,-568 296,-568"/>
<text text-anchor="middle" x="331" y="-627" font-family="Helvetica,sans-Serif" font-size="10.00" fill="#000000">workflow</text>
</a>
</g>
</g>
<!-- dir_a305436795e321b46c84ff237f418620 -->
<g id="node1" class="node">
<title>dir_a305436795e321b46c84ff237f418620</title>
<g id="a_node1"><a xlink:href="dir_a305436795e321b46c84ff237f418620.html" target="_top" xlink:title="src">
<polygon fill="#eeeeff" stroke="#000000" points="358,-612 304,-612 304,-576 358,-576 358,-612"/>
<text text-anchor="middle" x="331" y="-591.5" font-family="Helvetica,sans-Serif" font-size="10.00" fill="#000000">src</text>
</a>
</g>
</g>
<!-- dir_eedff867f3c4e67d20b227cb6e0f96ab -->
<g id="node2" class="node">
<title>dir_eedff867f3c4e67d20b227cb6e0f96ab</title>
<g id="a_node2"><a xlink:href="dir_eedff867f3c4e67d20b227cb6e0f96ab.html" target="_top" xlink:title="base">
<polygon fill="none" stroke="#ff0000" points="667,-540 613,-540 613,-504 667,-504 667,-540"/>
<text text-anchor="middle" x="640" y="-519.5" font-family="Helvetica,sans-Serif" font-size="10.00" fill="#000000">base</text>
</a>
</g>
</g>
<!-- dir_a305436795e321b46c84ff237f418620&#45;&gt;dir_eedff867f3c4e67d20b227cb6e0f96ab -->
<g id="edge33" class="edge">
<title>dir_a305436795e321b46c84ff237f418620&#45;&gt;dir_eedff867f3c4e67d20b227cb6e0f96ab</title>
<path fill="none" stroke="#000000" d="M358.1509,-587.6736C413.5335,-574.7689 539.6142,-545.3909 602.6589,-530.7008"/>
<polygon fill="#000000" stroke="#000000" points="603.634,-534.0675 612.5788,-528.3894 602.0454,-527.2501 603.634,-534.0675"/>
<g id="a_edge33&#45;headlabel"><a xlink:href="dir_000404_000463.html" target="_top" xlink:title="3">
<text text-anchor="middle" x="600.7775" y="-535.1483" font-family="Helvetica,sans-Serif" font-size="10.00" fill="#000000">3</text>
</a>
</g>
</g>
<!-- dir_4ab6b4cc6a7edbff49100e9123df213f -->
<g id="node3" class="node">
<title>dir_4ab6b4cc6a7edbff49100e9123df213f</title>
<g id="a_node3"><a xlink:href="dir_4ab6b4cc6a7edbff49100e9123df213f.html" target="_top" xlink:title="Common">
<polygon fill="none" stroke="#ff0000" points="302.5,-468 241.5,-468 241.5,-432 302.5,-432 302.5,-468"/>
<text text-anchor="middle" x="272" y="-447.5" font-family="Helvetica,sans-Serif" font-size="10.00" fill="#000000">Common</text>
</a>
</g>
</g>
<!-- dir_a305436795e321b46c84ff237f418620&#45;&gt;dir_4ab6b4cc6a7edbff49100e9123df213f -->
<g id="edge34" class="edge">
<title>dir_a305436795e321b46c84ff237f418620&#45;&gt;dir_4ab6b4cc6a7edbff49100e9123df213f</title>
<path fill="none" stroke="#000000" d="M323.5276,-575.7623C313.3757,-550.9846 295.1376,-506.4714 283.3058,-477.5939"/>
<polygon fill="#000000" stroke="#000000" points="286.4418,-476.0161 279.4117,-468.0896 279.9644,-478.67 286.4418,-476.0161"/>
<g id="a_edge34&#45;headlabel"><a xlink:href="dir_000404_000027.html" target="_top" xlink:title="7">
<text text-anchor="middle" x="290.4319" y="-475.7659" font-family="Helvetica,sans-Serif" font-size="10.00" fill="#000000">7</text>
</a>
</g>
</g>
<!-- dir_37c90836491b695b472bf98d1be8336b -->
<g id="node4" class="node">
<title>dir_37c90836491b695b472bf98d1be8336b</title>
<g id="a_node4"><a xlink:href="dir_37c90836491b695b472bf98d1be8336b.html" target="_top" xlink:title="Base">
<polygon fill="none" stroke="#ff0000" points="308,-108 254,-108 254,-72 308,-72 308,-108"/>
<text text-anchor="middle" x="281" y="-87.5" font-family="Helvetica,sans-Serif" font-size="10.00" fill="#000000">Base</text>
</a>
</g>
</g>
<!-- dir_a305436795e321b46c84ff237f418620&#45;&gt;dir_37c90836491b695b472bf98d1be8336b -->
<g id="edge35" class="edge">
<title>dir_a305436795e321b46c84ff237f418620&#45;&gt;dir_37c90836491b695b472bf98d1be8336b</title>
<path fill="none" stroke="#000000" d="M303.9604,-586.928C231.4258,-567.1675 38,-508.9466 38,-450 38,-450 38,-450 38,-306 38,-197.0568 176.1262,-129.6073 244.1018,-103.0098"/>
<polygon fill="#000000" stroke="#000000" points="245.5049,-106.2206 253.5972,-99.382 243.0066,-99.6816 245.5049,-106.2206"/>
<g id="a_edge35&#45;headlabel"><a xlink:href="dir_000404_000273.html" target="_top" xlink:title="5">
<text text-anchor="middle" x="243.1604" y="-107.6557" font-family="Helvetica,sans-Serif" font-size="10.00" fill="#000000">5</text>
</a>
</g>
</g>
<!-- dir_85bf31a2e8d306e7598ffcb73f8df6bf -->
<g id="node5" class="node">
<title>dir_85bf31a2e8d306e7598ffcb73f8df6bf</title>
<g id="a_node5"><a xlink:href="dir_85bf31a2e8d306e7598ffcb73f8df6bf.html" target="_top" xlink:title="common">
<polygon fill="none" stroke="#ff0000" points="472.5,-180 413.5,-180 413.5,-144 472.5,-144 472.5,-180"/>
<text text-anchor="middle" x="443" y="-159.5" font-family="Helvetica,sans-Serif" font-size="10.00" fill="#000000">common</text>
</a>
</g>
</g>
<!-- dir_a305436795e321b46c84ff237f418620&#45;&gt;dir_85bf31a2e8d306e7598ffcb73f8df6bf -->
<g id="edge36" class="edge">
<title>dir_a305436795e321b46c84ff237f418620&#45;&gt;dir_85bf31a2e8d306e7598ffcb73f8df6bf</title>
<path fill="none" stroke="#000000" d="M358.1322,-591.7624C435.8872,-585.0779 655.2826,-564.2123 676,-540 777.9861,-420.8092 654.5927,-318.6809 536,-216 519.7735,-201.9507 499.3662,-189.6298 481.8051,-180.3183"/>
<polygon fill="#000000" stroke="#000000" points="483.4098,-177.2078 472.9185,-175.73 480.1984,-183.4277 483.4098,-177.2078"/>
<g id="a_edge36&#45;headlabel"><a xlink:href="dir_000404_000061.html" target="_top" xlink:title="4">
<text text-anchor="middle" x="487.9063" y="-173.834" font-family="Helvetica,sans-Serif" font-size="10.00" fill="#000000">4</text>
</a>
</g>
</g>
<!-- dir_beaad5fa58c175f2fa05fab7e2ac7ba4 -->
<g id="node6" class="node">
<title>dir_beaad5fa58c175f2fa05fab7e2ac7ba4</title>
<g id="a_node6"><a xlink:href="dir_beaad5fa58c175f2fa05fab7e2ac7ba4.html" target="_top" xlink:title="tracking">
<polygon fill="none" stroke="#ff0000" points="442,-324 386,-324 386,-288 442,-288 442,-324"/>
<text text-anchor="middle" x="414" y="-303.5" font-family="Helvetica,sans-Serif" font-size="10.00" fill="#000000">tracking</text>
</a>
</g>
</g>
<!-- dir_a305436795e321b46c84ff237f418620&#45;&gt;dir_beaad5fa58c175f2fa05fab7e2ac7ba4 -->
<g id="edge37" class="edge">
<title>dir_a305436795e321b46c84ff237f418620&#45;&gt;dir_beaad5fa58c175f2fa05fab7e2ac7ba4</title>
<path fill="none" stroke="#000000" d="M358.3047,-586.0514C379.8506,-578.1773 408.4557,-563.7867 422,-540 459.4921,-474.1557 438.1442,-380.1364 423.7656,-333.8818"/>
<polygon fill="#000000" stroke="#000000" points="427.0555,-332.6797 420.6513,-324.2395 420.3943,-334.8312 427.0555,-332.6797"/>
<g id="a_edge37&#45;headlabel"><a xlink:href="dir_000404_000045.html" target="_top" xlink:title="9">
<text text-anchor="middle" x="430.862" y="-332.7277" font-family="Helvetica,sans-Serif" font-size="10.00" fill="#000000">9</text>
</a>
</g>
</g>
<!-- dir_618fe6153adfd0aa136e98ba4badcb47 -->
<g id="node7" class="node">
<title>dir_618fe6153adfd0aa136e98ba4badcb47</title>
<g id="a_node7"><a xlink:href="dir_618fe6153adfd0aa136e98ba4badcb47.html" target="_top" xlink:title="include">
<polygon fill="none" stroke="#ff0000" points="413,-540 359,-540 359,-504 413,-504 413,-540"/>
<text text-anchor="middle" x="386" y="-519.5" font-family="Helvetica,sans-Serif" font-size="10.00" fill="#000000">include</text>
</a>
</g>
</g>
<!-- dir_a305436795e321b46c84ff237f418620&#45;&gt;dir_618fe6153adfd0aa136e98ba4badcb47 -->
<g id="edge38" class="edge">
<title>dir_a305436795e321b46c84ff237f418620&#45;&gt;dir_618fe6153adfd0aa136e98ba4badcb47</title>
<path fill="none" stroke="#000000" d="M344.8788,-575.8314C351.2136,-567.5386 358.8384,-557.557 365.7926,-548.4533"/>
<polygon fill="#000000" stroke="#000000" points="368.6452,-550.4847 371.9343,-540.4133 363.0825,-546.2353 368.6452,-550.4847"/>
<g id="a_edge38&#45;headlabel"><a xlink:href="dir_000404_000392.html" target="_top" xlink:title="16">
<text text-anchor="middle" x="368.7195" y="-552.5647" font-family="Helvetica,sans-Serif" font-size="10.00" fill="#000000">16</text>
</a>
</g>
</g>
<!-- dir_f511f1e9c03c071966ae594f00bbc5e0 -->
<g id="node8" class="node">
<title>dir_f511f1e9c03c071966ae594f00bbc5e0</title>
<g id="a_node8"><a xlink:href="dir_f511f1e9c03c071966ae594f00bbc5e0.html" target="_top" xlink:title="GPU">
<polygon fill="none" stroke="#ff0000" points="346,-396 292,-396 292,-360 346,-360 346,-396"/>
<text text-anchor="middle" x="319" y="-375.5" font-family="Helvetica,sans-Serif" font-size="10.00" fill="#000000">GPU</text>
</a>
</g>
</g>
<!-- dir_a305436795e321b46c84ff237f418620&#45;&gt;dir_f511f1e9c03c071966ae594f00bbc5e0 -->
<g id="edge39" class="edge">
<title>dir_a305436795e321b46c84ff237f418620&#45;&gt;dir_f511f1e9c03c071966ae594f00bbc5e0</title>
<path fill="none" stroke="#000000" d="M329.9975,-575.9555C327.9108,-538.3938 323.0863,-451.5541 320.5784,-406.4103"/>
<polygon fill="#000000" stroke="#000000" points="324.0575,-405.9355 320.0081,-396.1451 317.0682,-406.3238 324.0575,-405.9355"/>
<g id="a_edge39&#45;headlabel"><a xlink:href="dir_000404_000672.html" target="_top" xlink:title="3">
<text text-anchor="middle" x="327.0917" y="-406.8671" font-family="Helvetica,sans-Serif" font-size="10.00" fill="#000000">3</text>
</a>
</g>
</g>
<!-- dir_bcbb2cf9a3d3d83e5515c82071a07177 -->
<g id="node9" class="node">
<title>dir_bcbb2cf9a3d3d83e5515c82071a07177</title>
<g id="a_node9"><a xlink:href="dir_bcbb2cf9a3d3d83e5515c82071a07177.html" target="_top" xlink:title="Framework">
<polygon fill="none" stroke="#ff0000" points="214.5,-36 143.5,-36 143.5,0 214.5,0 214.5,-36"/>
<text text-anchor="middle" x="179" y="-15.5" font-family="Helvetica,sans-Serif" font-size="10.00" fill="#000000">Framework</text>
</a>
</g>
</g>
<!-- dir_a305436795e321b46c84ff237f418620&#45;&gt;dir_bcbb2cf9a3d3d83e5515c82071a07177 -->
<g id="edge40" class="edge">
<title>dir_a305436795e321b46c84ff237f418620&#45;&gt;dir_bcbb2cf9a3d3d83e5515c82071a07177</title>
<path fill="none" stroke="#000000" d="M303.6758,-590.126C247.5872,-581.8377 121.5738,-561.3914 84,-540 36.4505,-512.9293 0,-504.7154 0,-450 0,-450 0,-450 0,-162 0,-93.4765 80.6219,-52.0701 133.6518,-32.2463"/>
<polygon fill="#000000" stroke="#000000" points="134.9911,-35.4839 143.2069,-28.7942 132.6126,-28.9003 134.9911,-35.4839"/>
<g id="a_edge40&#45;headlabel"><a xlink:href="dir_000404_000013.html" target="_top" xlink:title="17">
<text text-anchor="middle" x="132.5751" y="-36.8755" font-family="Helvetica,sans-Serif" font-size="10.00" fill="#000000">17</text>
</a>
</g>
</g>
<!-- dir_2171f7ec022c5423887b07c69b2f5b48 -->
<g id="node10" class="node">
<title>dir_2171f7ec022c5423887b07c69b2f5b48</title>
<g id="a_node10"><a xlink:href="dir_2171f7ec022c5423887b07c69b2f5b48.html" target="_top" xlink:title="DataFormats">
<polygon fill="none" stroke="#ff0000" points="321,-252 241,-252 241,-216 321,-216 321,-252"/>
<text text-anchor="middle" x="281" y="-231.5" font-family="Helvetica,sans-Serif" font-size="10.00" fill="#000000">DataFormats</text>
</a>
</g>
</g>
<!-- dir_a305436795e321b46c84ff237f418620&#45;&gt;dir_2171f7ec022c5423887b07c69b2f5b48 -->
<g id="edge41" class="edge">
<title>dir_a305436795e321b46c84ff237f418620&#45;&gt;dir_2171f7ec022c5423887b07c69b2f5b48</title>
<path fill="none" stroke="#000000" d="M305.4049,-575.8338C276.9407,-553.9483 232.416,-514.2928 213,-468 181.9359,-393.9352 189.6328,-358.0057 229,-288 234.9209,-277.471 243.3835,-267.4787 251.7666,-259.0179"/>
<polygon fill="#000000" stroke="#000000" points="254.2752,-261.4612 259.0473,-252.0019 249.4179,-256.4207 254.2752,-261.4612"/>
<g id="a_edge41&#45;headlabel"><a xlink:href="dir_000404_000076.html" target="_top" xlink:title="36">
<text text-anchor="middle" x="253.657" y="-263.4999" font-family="Helvetica,sans-Serif" font-size="10.00" fill="#000000">36</text>
</a>
</g>
</g>
<!-- dir_eedff867f3c4e67d20b227cb6e0f96ab&#45;&gt;dir_4ab6b4cc6a7edbff49100e9123df213f -->
<g id="edge1" class="edge">
<title>dir_eedff867f3c4e67d20b227cb6e0f96ab&#45;&gt;dir_4ab6b4cc6a7edbff49100e9123df213f</title>
<path fill="none" stroke="#000000" d="M612.9401,-516.7057C549.0525,-504.2059 388.5447,-472.8022 312.7902,-457.9807"/>
<polygon fill="#000000" stroke="#000000" points="313.1682,-454.4884 302.6822,-456.003 311.8241,-461.3581 313.1682,-454.4884"/>
<g id="a_edge1&#45;headlabel"><a xlink:href="dir_000463_000027.html" target="_top" xlink:title="2">
<text text-anchor="middle" x="317.2411" y="-449.8921" font-family="Helvetica,sans-Serif" font-size="10.00" fill="#000000">2</text>
</a>
</g>
</g>
<!-- dir_eedff867f3c4e67d20b227cb6e0f96ab&#45;&gt;dir_37c90836491b695b472bf98d1be8336b -->
<g id="edge2" class="edge">
<title>dir_eedff867f3c4e67d20b227cb6e0f96ab&#45;&gt;dir_37c90836491b695b472bf98d1be8336b</title>
<path fill="none" stroke="#000000" d="M649.5908,-503.5602C654.3499,-493.373 659.5869,-480.3186 662,-468 665.0757,-452.2984 664.6612,-447.7771 662,-432 636.8947,-283.1587 607.5698,-227.763 482,-144 431.5984,-110.3789 360.9921,-97.6342 318.2707,-92.842"/>
<polygon fill="#000000" stroke="#000000" points="318.6058,-89.3581 308.299,-91.8116 317.8862,-96.321 318.6058,-89.3581"/>
<g id="a_edge2&#45;headlabel"><a xlink:href="dir_000463_000273.html" target="_top" xlink:title="2">
<text text-anchor="middle" x="322.4732" y="-84.4032" font-family="Helvetica,sans-Serif" font-size="10.00" fill="#000000">2</text>
</a>
</g>
</g>
<!-- dir_eedff867f3c4e67d20b227cb6e0f96ab&#45;&gt;dir_85bf31a2e8d306e7598ffcb73f8df6bf -->
<g id="edge3" class="edge">
<title>dir_eedff867f3c4e67d20b227cb6e0f96ab&#45;&gt;dir_85bf31a2e8d306e7598ffcb73f8df6bf</title>
<path fill="none" stroke="#000000" d="M635.4367,-503.9329C634.811,-485.4113 635.5782,-456.0023 628,-432 595.4578,-328.9298 506.7231,-232.1817 464.9365,-187.6546"/>
<polygon fill="#000000" stroke="#000000" points="467.3383,-185.0995 457.9397,-180.2089 462.2371,-189.8931 467.3383,-185.0995"/>
<g id="a_edge3&#45;headlabel"><a xlink:href="dir_000463_000061.html" target="_top" xlink:title="2">
<text text-anchor="middle" x="471.8689" y="-183.2747" font-family="Helvetica,sans-Serif" font-size="10.00" fill="#000000">2</text>
</a>
</g>
</g>
<!-- dir_eedff867f3c4e67d20b227cb6e0f96ab&#45;&gt;dir_2171f7ec022c5423887b07c69b2f5b48 -->
<g id="edge4" class="edge">
<title>dir_eedff867f3c4e67d20b227cb6e0f96ab&#45;&gt;dir_2171f7ec022c5423887b07c69b2f5b48</title>
<path fill="none" stroke="#000000" d="M638.3021,-503.8642C635.8284,-484.7594 629.899,-454.3964 616,-432 564.6759,-349.298 535.8968,-335.6058 451,-288 413.387,-266.9086 366.3922,-252.7847 331.3516,-244.2891"/>
<polygon fill="#000000" stroke="#000000" points="331.8804,-240.8181 321.3448,-241.9365 330.2783,-247.6323 331.8804,-240.8181"/>
<g id="a_edge4&#45;headlabel"><a xlink:href="dir_000463_000076.html" target="_top" xlink:title="1">
<text text-anchor="middle" x="336.0294" y="-236.3767" font-family="Helvetica,sans-Serif" font-size="10.00" fill="#000000">1</text>
</a>
</g>
</g>
<!-- dir_4ab6b4cc6a7edbff49100e9123df213f&#45;&gt;dir_f511f1e9c03c071966ae594f00bbc5e0 -->
<g id="edge5" class="edge">
<title>dir_4ab6b4cc6a7edbff49100e9123df213f&#45;&gt;dir_f511f1e9c03c071966ae594f00bbc5e0</title>
<path fill="none" stroke="#000000" d="M277.9077,-431.8314C282.4659,-423.6232 288.7058,-413.7606 295.0026,-404.7323"/>
<polygon fill="#000000" stroke="#000000" points="297.9919,-406.5709 301.0042,-396.4133 292.315,-402.4754 297.9919,-406.5709"/>
<g id="a_edge5&#45;headlabel"><a xlink:href="dir_000027_000672.html" target="_top" xlink:title="3">
<text text-anchor="middle" x="298.1915" y="-408.6472" font-family="Helvetica,sans-Serif" font-size="10.00" fill="#000000">3</text>
</a>
</g>
</g>
<!-- dir_4ab6b4cc6a7edbff49100e9123df213f&#45;&gt;dir_bcbb2cf9a3d3d83e5515c82071a07177 -->
<g id="edge6" class="edge">
<title>dir_4ab6b4cc6a7edbff49100e9123df213f&#45;&gt;dir_bcbb2cf9a3d3d83e5515c82071a07177</title>
<path fill="none" stroke="#000000" d="M241.4607,-436.2143C186.1759,-406.5684 76,-331.4657 76,-234 76,-234 76,-234 76,-162 76,-113.7654 113.4394,-69.0589 143.3242,-42.6387"/>
<polygon fill="#000000" stroke="#000000" points="145.7739,-45.1499 151.1228,-36.0044 141.2382,-39.8182 145.7739,-45.1499"/>
<g id="a_edge6&#45;headlabel"><a xlink:href="dir_000027_000013.html" target="_top" xlink:title="2">
<text text-anchor="middle" x="144.8757" y="-47.1416" font-family="Helvetica,sans-Serif" font-size="10.00" fill="#000000">2</text>
</a>
</g>
</g>
<!-- dir_4ab6b4cc6a7edbff49100e9123df213f&#45;&gt;dir_2171f7ec022c5423887b07c69b2f5b48 -->
<g id="edge7" class="edge">
<title>dir_4ab6b4cc6a7edbff49100e9123df213f&#45;&gt;dir_2171f7ec022c5423887b07c69b2f5b48</title>
<path fill="none" stroke="#000000" d="M268.8059,-431.9555C266.9159,-394.3144 270.2869,-307.1867 275.1043,-262.1246"/>
<polygon fill="#000000" stroke="#000000" points="278.5856,-262.4879 276.2888,-252.1451 271.6344,-261.6628 278.5856,-262.4879"/>
<g id="a_edge7&#45;headlabel"><a xlink:href="dir_000027_000076.html" target="_top" xlink:title="2">
<text text-anchor="middle" x="280.9815" y="-263.8921" font-family="Helvetica,sans-Serif" font-size="10.00" fill="#000000">2</text>
</a>
</g>
</g>
<!-- dir_37c90836491b695b472bf98d1be8336b&#45;&gt;dir_4ab6b4cc6a7edbff49100e9123df213f -->
<g id="edge8" class="edge">
<title>dir_37c90836491b695b472bf98d1be8336b&#45;&gt;dir_4ab6b4cc6a7edbff49100e9123df213f</title>
<path fill="none" stroke="#000000" d="M271.4562,-108.1462C259.4608,-132.077 239.5302,-175.8608 232,-216 218.0408,-290.409 244.7091,-378.5141 260.888,-422.3492"/>
<polygon fill="#000000" stroke="#000000" points="257.6374,-423.6484 264.4537,-431.7595 264.1833,-421.1681 257.6374,-423.6484"/>
<g id="a_edge8&#45;headlabel"><a xlink:href="dir_000273_000027.html" target="_top" xlink:title="16">
<text text-anchor="middle" x="253.7087" y="-418.793" font-family="Helvetica,sans-Serif" font-size="10.00" fill="#000000">16</text>
</a>
</g>
</g>
<!-- dir_37c90836491b695b472bf98d1be8336b&#45;&gt;dir_f511f1e9c03c071966ae594f00bbc5e0 -->
<g id="edge9" class="edge">
<title>dir_37c90836491b695b472bf98d1be8336b&#45;&gt;dir_f511f1e9c03c071966ae594f00bbc5e0</title>
<path fill="none" stroke="#000000" d="M290.6944,-108.1189C302.8527,-132.0202 322.9591,-175.7721 330,-216 338.1215,-262.4024 330.9529,-317.2543 324.9953,-349.752"/>
<polygon fill="#000000" stroke="#000000" points="321.5008,-349.3899 323.0452,-359.8715 328.3743,-350.7145 321.5008,-349.3899"/>
<g id="a_edge9&#45;headlabel"><a xlink:href="dir_000273_000672.html" target="_top" xlink:title="14">
<text text-anchor="middle" x="319.3929" y="-342.823" font-family="Helvetica,sans-Serif" font-size="10.00" fill="#000000">14</text>
</a>
</g>
</g>
<!-- dir_37c90836491b695b472bf98d1be8336b&#45;&gt;dir_bcbb2cf9a3d3d83e5515c82071a07177 -->
<g id="edge10" class="edge">
<title>dir_37c90836491b695b472bf98d1be8336b&#45;&gt;dir_bcbb2cf9a3d3d83e5515c82071a07177</title>
<path fill="none" stroke="#000000" d="M255.2611,-71.8314C242.4563,-62.7927 226.8091,-51.7476 213.0281,-42.0198"/>
<polygon fill="#000000" stroke="#000000" points="214.9188,-39.0703 204.7307,-36.1628 210.882,-44.7891 214.9188,-39.0703"/>
<g id="a_edge10&#45;headlabel"><a xlink:href="dir_000273_000013.html" target="_top" xlink:title="1">
<text text-anchor="middle" x="219.4928" y="-36.3236" font-family="Helvetica,sans-Serif" font-size="10.00" fill="#000000">1</text>
</a>
</g>
</g>
<!-- dir_37c90836491b695b472bf98d1be8336b&#45;&gt;dir_2171f7ec022c5423887b07c69b2f5b48 -->
<g id="edge11" class="edge">
<title>dir_37c90836491b695b472bf98d1be8336b&#45;&gt;dir_2171f7ec022c5423887b07c69b2f5b48</title>
<path fill="none" stroke="#000000" d="M285.6583,-108.0896C288.1269,-132.5727 288.4104,-176.5174 286.5089,-205.4713"/>
<polygon fill="#000000" stroke="#000000" points="282.9942,-205.5118 285.6732,-215.7623 289.9712,-206.0785 282.9942,-205.5118"/>
<g id="a_edge11&#45;headlabel"><a xlink:href="dir_000273_000076.html" target="_top" xlink:title="10">
<text text-anchor="middle" x="280.4551" y="-199.1992" font-family="Helvetica,sans-Serif" font-size="10.00" fill="#000000">10</text>
</a>
</g>
</g>
<!-- dir_85bf31a2e8d306e7598ffcb73f8df6bf&#45;&gt;dir_eedff867f3c4e67d20b227cb6e0f96ab -->
<g id="edge12" class="edge">
<title>dir_85bf31a2e8d306e7598ffcb73f8df6bf&#45;&gt;dir_eedff867f3c4e67d20b227cb6e0f96ab</title>
<path fill="none" stroke="#000000" d="M467.5483,-180.2089C513.865,-220.5867 611.5039,-322.7413 646,-432 652.3349,-452.0644 652.8381,-475.907 650.5828,-494.0096"/>
<polygon fill="#000000" stroke="#000000" points="647.1198,-493.499 648.9593,-503.9329 654.028,-494.6292 647.1198,-493.499"/>
<g id="a_edge12&#45;headlabel"><a xlink:href="dir_000061_000463.html" target="_top" xlink:title="1">
<text text-anchor="middle" x="644.8981" y="-486.9931" font-family="Helvetica,sans-Serif" font-size="10.00" fill="#000000">1</text>
</a>
</g>
</g>
<!-- dir_85bf31a2e8d306e7598ffcb73f8df6bf&#45;&gt;dir_4ab6b4cc6a7edbff49100e9123df213f -->
<g id="edge13" class="edge">
<title>dir_85bf31a2e8d306e7598ffcb73f8df6bf&#45;&gt;dir_4ab6b4cc6a7edbff49100e9123df213f</title>
<path fill="none" stroke="#000000" d="M448.6702,-180.298C457.2185,-211.1817 470.4544,-275.0677 451,-324 427.3242,-383.5501 357.1735,-419.3184 312.0465,-436.7972"/>
<polygon fill="#000000" stroke="#000000" points="310.685,-433.5695 302.5453,-440.3515 313.1377,-440.1258 310.685,-433.5695"/>
<g id="a_edge13&#45;headlabel"><a xlink:href="dir_000061_000027.html" target="_top" xlink:title="18">
<text text-anchor="middle" x="313.057" y="-427.1509" font-family="Helvetica,sans-Serif" font-size="10.00" fill="#000000">18</text>
</a>
</g>
</g>
<!-- dir_85bf31a2e8d306e7598ffcb73f8df6bf&#45;&gt;dir_37c90836491b695b472bf98d1be8336b -->
<g id="edge14" class="edge">
<title>dir_85bf31a2e8d306e7598ffcb73f8df6bf&#45;&gt;dir_37c90836491b695b472bf98d1be8336b</title>
<path fill="none" stroke="#000000" d="M413.2867,-148.7941C386.2868,-136.7941 346.3715,-119.054 317.4522,-106.201"/>
<polygon fill="#000000" stroke="#000000" points="318.6605,-102.9079 308.1009,-102.0448 315.8175,-109.3046 318.6605,-102.9079"/>
<g id="a_edge14&#45;headlabel"><a xlink:href="dir_000061_000273.html" target="_top" xlink:title="3">
<text text-anchor="middle" x="323.0984" y="-99.2732" font-family="Helvetica,sans-Serif" font-size="10.00" fill="#000000">3</text>
</a>
</g>
</g>
<!-- dir_85bf31a2e8d306e7598ffcb73f8df6bf&#45;&gt;dir_bcbb2cf9a3d3d83e5515c82071a07177 -->
<g id="edge15" class="edge">
<title>dir_85bf31a2e8d306e7598ffcb73f8df6bf&#45;&gt;dir_bcbb2cf9a3d3d83e5515c82071a07177</title>
<path fill="none" stroke="#000000" d="M421.3385,-143.9794C397.0678,-124.4125 355.9975,-93.1335 317,-72 287.3863,-55.9517 251.9692,-42.1947 224.4299,-32.5827"/>
<polygon fill="#000000" stroke="#000000" points="225.2603,-29.1674 214.6656,-29.2324 222.9884,-35.7885 225.2603,-29.1674"/>
<g id="a_edge15&#45;headlabel"><a xlink:href="dir_000061_000013.html" target="_top" xlink:title="18">
<text text-anchor="middle" x="229.5818" y="-25.1483" font-family="Helvetica,sans-Serif" font-size="10.00" fill="#000000">18</text>
</a>
</g>
</g>
<!-- dir_85bf31a2e8d306e7598ffcb73f8df6bf&#45;&gt;dir_2171f7ec022c5423887b07c69b2f5b48 -->
<g id="edge16" class="edge">
<title>dir_85bf31a2e8d306e7598ffcb73f8df6bf&#45;&gt;dir_2171f7ec022c5423887b07c69b2f5b48</title>
<path fill="none" stroke="#000000" d="M413.4293,-177.6687C390.3107,-188.5123 357.8021,-203.0174 330.7336,-214.5928"/>
<polygon fill="#000000" stroke="#000000" points="329.2453,-211.4223 321.4104,-218.5542 331.9828,-217.8648 329.2453,-211.4223"/>
<g id="a_edge16&#45;headlabel"><a xlink:href="dir_000061_000076.html" target="_top" xlink:title="56">
<text text-anchor="middle" x="331.4434" y="-204.9035" font-family="Helvetica,sans-Serif" font-size="10.00" fill="#000000">56</text>
</a>
</g>
</g>
<!-- dir_beaad5fa58c175f2fa05fab7e2ac7ba4&#45;&gt;dir_eedff867f3c4e67d20b227cb6e0f96ab -->
<g id="edge17" class="edge">
<title>dir_beaad5fa58c175f2fa05fab7e2ac7ba4&#45;&gt;dir_eedff867f3c4e67d20b227cb6e0f96ab</title>
<path fill="none" stroke="#000000" d="M442.0718,-320.2428C460.1476,-330.1103 483.6142,-344.2668 502,-360 550.7026,-401.6759 596.7757,-461.2698 621.4141,-495.3531"/>
<polygon fill="#000000" stroke="#000000" points="618.827,-497.7522 627.4924,-503.8482 624.5198,-493.6789 618.827,-497.7522"/>
<g id="a_edge17&#45;headlabel"><a xlink:href="dir_000045_000463.html" target="_top" xlink:title="1">
<text text-anchor="middle" x="614.4263" y="-493.981" font-family="Helvetica,sans-Serif" font-size="10.00" fill="#000000">1</text>
</a>
</g>
</g>
<!-- dir_beaad5fa58c175f2fa05fab7e2ac7ba4&#45;&gt;dir_4ab6b4cc6a7edbff49100e9123df213f -->
<g id="edge18" class="edge">
<title>dir_beaad5fa58c175f2fa05fab7e2ac7ba4&#45;&gt;dir_4ab6b4cc6a7edbff49100e9123df213f</title>
<path fill="none" stroke="#000000" d="M405.0263,-324.1362C394.8131,-343.5186 376.7036,-374.3716 355,-396 342.2941,-408.6619 326.1569,-419.9731 311.4964,-428.9311"/>
<polygon fill="#000000" stroke="#000000" points="309.4253,-426.0898 302.6029,-434.1957 312.9912,-432.1136 309.4253,-426.0898"/>
<g id="a_edge18&#45;headlabel"><a xlink:href="dir_000045_000027.html" target="_top" xlink:title="7">
<text text-anchor="middle" x="311.0723" y="-419.3155" font-family="Helvetica,sans-Serif" font-size="10.00" fill="#000000">7</text>
</a>
</g>
</g>
<!-- dir_beaad5fa58c175f2fa05fab7e2ac7ba4&#45;&gt;dir_85bf31a2e8d306e7598ffcb73f8df6bf -->
<g id="edge19" class="edge">
<title>dir_beaad5fa58c175f2fa05fab7e2ac7ba4&#45;&gt;dir_85bf31a2e8d306e7598ffcb73f8df6bf</title>
<path fill="none" stroke="#000000" d="M417.6729,-287.7623C422.641,-263.0928 431.5491,-218.8598 437.3665,-189.9731"/>
<polygon fill="#000000" stroke="#000000" points="440.8137,-190.5838 439.357,-180.0896 433.9515,-189.2018 440.8137,-190.5838"/>
<g id="a_edge19&#45;headlabel"><a xlink:href="dir_000045_000061.html" target="_top" xlink:title="1">
<text text-anchor="middle" x="442.8875" y="-192.1682" font-family="Helvetica,sans-Serif" font-size="10.00" fill="#000000">1</text>
</a>
</g>
</g>
<!-- dir_beaad5fa58c175f2fa05fab7e2ac7ba4&#45;&gt;dir_f511f1e9c03c071966ae594f00bbc5e0 -->
<g id="edge20" class="edge">
<title>dir_beaad5fa58c175f2fa05fab7e2ac7ba4&#45;&gt;dir_f511f1e9c03c071966ae594f00bbc5e0</title>
<path fill="none" stroke="#000000" d="M396.0269,-324.1301C384.2907,-333.7366 368.7282,-345.6176 354.6141,-355.7755"/>
<polygon fill="#000000" stroke="#000000" points="352.1926,-353.2019 346.0604,-361.8418 356.242,-358.9118 352.1926,-353.2019"/>
<g id="a_edge20&#45;headlabel"><a xlink:href="dir_000045_000672.html" target="_top" xlink:title="24">
<text text-anchor="middle" x="353.4822" y="-346.3066" font-family="Helvetica,sans-Serif" font-size="10.00" fill="#000000">24</text>
</a>
</g>
</g>
<!-- dir_beaad5fa58c175f2fa05fab7e2ac7ba4&#45;&gt;dir_2171f7ec022c5423887b07c69b2f5b48 -->
<g id="edge21" class="edge">
<title>dir_beaad5fa58c175f2fa05fab7e2ac7ba4&#45;&gt;dir_2171f7ec022c5423887b07c69b2f5b48</title>
<path fill="none" stroke="#000000" d="M385.7941,-290.7307C367.5944,-280.8781 343.5896,-267.8831 323.1472,-256.8165"/>
<polygon fill="#000000" stroke="#000000" points="324.7966,-253.7295 314.3363,-252.0467 321.4641,-259.8854 324.7966,-253.7295"/>
<g id="a_edge21&#45;headlabel"><a xlink:href="dir_000045_000076.html" target="_top" xlink:title="15">
<text text-anchor="middle" x="329.3094" y="-250.4439" font-family="Helvetica,sans-Serif" font-size="10.00" fill="#000000">15</text>
</a>
</g>
</g>
<!-- dir_618fe6153adfd0aa136e98ba4badcb47&#45;&gt;dir_4ab6b4cc6a7edbff49100e9123df213f -->
<g id="edge22" class="edge">
<title>dir_618fe6153adfd0aa136e98ba4badcb47&#45;&gt;dir_4ab6b4cc6a7edbff49100e9123df213f</title>
<path fill="none" stroke="#000000" d="M358.9836,-504.937C344.2061,-495.6038 325.6698,-483.8967 309.5097,-473.6904"/>
<polygon fill="#000000" stroke="#000000" points="311.1392,-470.5799 300.8153,-468.1992 307.4013,-476.4984 311.1392,-470.5799"/>
<g id="a_edge22&#45;headlabel"><a xlink:href="dir_000392_000027.html" target="_top" xlink:title="1">
<text text-anchor="middle" x="315.6946" y="-467.5988" font-family="Helvetica,sans-Serif" font-size="10.00" fill="#000000">1</text>
</a>
</g>
</g>
<!-- dir_618fe6153adfd0aa136e98ba4badcb47&#45;&gt;dir_85bf31a2e8d306e7598ffcb73f8df6bf -->
<g id="edge23" class="edge">
<title>dir_618fe6153adfd0aa136e98ba4badcb47&#45;&gt;dir_85bf31a2e8d306e7598ffcb73f8df6bf</title>
<path fill="none" stroke="#000000" d="M396.2482,-503.9059C414.8729,-469.9334 453.7542,-393.7307 469,-324 479.2564,-277.0896 483.7132,-262.568 472,-216 469.6614,-206.7024 465.377,-197.2609 460.8062,-188.9283"/>
<polygon fill="#000000" stroke="#000000" points="463.6857,-186.9192 455.6122,-180.0585 457.6451,-190.4564 463.6857,-186.9192"/>
<g id="a_edge23&#45;headlabel"><a xlink:href="dir_000392_000061.html" target="_top" xlink:title="1">
<text text-anchor="middle" x="467.9521" y="-186.0864" font-family="Helvetica,sans-Serif" font-size="10.00" fill="#000000">1</text>
</a>
</g>
</g>
<!-- dir_618fe6153adfd0aa136e98ba4badcb47&#45;&gt;dir_beaad5fa58c175f2fa05fab7e2ac7ba4 -->
<g id="edge24" class="edge">
<title>dir_618fe6153adfd0aa136e98ba4badcb47&#45;&gt;dir_beaad5fa58c175f2fa05fab7e2ac7ba4</title>
<path fill="none" stroke="#000000" d="M388.3391,-503.9555C393.2185,-466.3144 404.5128,-379.1867 410.3542,-334.1246"/>
<polygon fill="#000000" stroke="#000000" points="413.8332,-334.5121 411.6479,-324.1451 406.8913,-333.6121 413.8332,-334.5121"/>
<g id="a_edge24&#45;headlabel"><a xlink:href="dir_000392_000045.html" target="_top" xlink:title="4">
<text text-anchor="middle" x="416.1869" y="-335.9418" font-family="Helvetica,sans-Serif" font-size="10.00" fill="#000000">4</text>
</a>
</g>
</g>
<!-- dir_618fe6153adfd0aa136e98ba4badcb47&#45;&gt;dir_f511f1e9c03c071966ae594f00bbc5e0 -->
<g id="edge25" class="edge">
<title>dir_618fe6153adfd0aa136e98ba4badcb47&#45;&gt;dir_f511f1e9c03c071966ae594f00bbc5e0</title>
<path fill="none" stroke="#000000" d="M377.7898,-503.6761C369.5924,-485.4528 356.5811,-456.722 345,-432 340.9591,-423.374 336.4834,-414.0119 332.4006,-405.5431"/>
<polygon fill="#000000" stroke="#000000" points="335.5068,-403.9267 328.0021,-396.4481 329.2051,-406.9744 335.5068,-403.9267"/>
<g id="a_edge25&#45;headlabel"><a xlink:href="dir_000392_000672.html" target="_top" xlink:title="6">
<text text-anchor="middle" x="339.6278" y="-403.4266" font-family="Helvetica,sans-Serif" font-size="10.00" fill="#000000">6</text>
</a>
</g>
</g>
<!-- dir_618fe6153adfd0aa136e98ba4badcb47&#45;&gt;dir_bcbb2cf9a3d3d83e5515c82071a07177 -->
<g id="edge26" class="edge">
<title>dir_618fe6153adfd0aa136e98ba4badcb47&#45;&gt;dir_bcbb2cf9a3d3d83e5515c82071a07177</title>
<path fill="none" stroke="#000000" d="M406.315,-503.9907C416.5316,-494.131 428.5122,-481.2461 437,-468 515.4366,-345.5921 560.5537,-266.3328 482,-144 425.6362,-56.2239 294.8956,-29.5522 225.0059,-21.4797"/>
<polygon fill="#000000" stroke="#000000" points="225.0584,-17.9653 214.7419,-20.3778 224.3112,-24.9253 225.0584,-17.9653"/>
<g id="a_edge26&#45;headlabel"><a xlink:href="dir_000392_000013.html" target="_top" xlink:title="17">
<text text-anchor="middle" x="228.9355" y="-13.0259" font-family="Helvetica,sans-Serif" font-size="10.00" fill="#000000">17</text>
</a>
</g>
</g>
<!-- dir_618fe6153adfd0aa136e98ba4badcb47&#45;&gt;dir_2171f7ec022c5423887b07c69b2f5b48 -->
<g id="edge27" class="edge">
<title>dir_618fe6153adfd0aa136e98ba4badcb47&#45;&gt;dir_2171f7ec022c5423887b07c69b2f5b48</title>
<path fill="none" stroke="#000000" d="M358.9039,-516.4175C318.8514,-507.5536 246.9535,-489.0897 232,-468 186.6486,-404.0389 234.9096,-307.0562 263.3217,-260.6141"/>
<polygon fill="#000000" stroke="#000000" points="266.3603,-262.3563 268.7058,-252.0244 260.4292,-258.6386 266.3603,-262.3563"/>
<g id="a_edge27&#45;headlabel"><a xlink:href="dir_000392_000076.html" target="_top" xlink:title="12">
<text text-anchor="middle" x="266.857" y="-264.41" font-family="Helvetica,sans-Serif" font-size="10.00" fill="#000000">12</text>
</a>
</g>
</g>
<!-- dir_f511f1e9c03c071966ae594f00bbc5e0&#45;&gt;dir_4ab6b4cc6a7edbff49100e9123df213f -->
<g id="edge28" class="edge">
<title>dir_f511f1e9c03c071966ae594f00bbc5e0&#45;&gt;dir_4ab6b4cc6a7edbff49100e9123df213f</title>
<path fill="none" stroke="#000000" d="M312.9562,-396.4133C308.3649,-404.654 302.1079,-414.5245 295.8101,-423.536"/>
<polygon fill="#000000" stroke="#000000" points="292.8353,-421.6769 289.8125,-431.8314 298.5079,-425.7783 292.8353,-421.6769"/>
<g id="a_edge28&#45;headlabel"><a xlink:href="dir_000672_000027.html" target="_top" xlink:title="2">
<text text-anchor="middle" x="292.6405" y="-414.6004" font-family="Helvetica,sans-Serif" font-size="10.00" fill="#000000">2</text>
</a>
</g>
</g>
<!-- dir_f511f1e9c03c071966ae594f00bbc5e0&#45;&gt;dir_beaad5fa58c175f2fa05fab7e2ac7ba4 -->
<g id="edge29" class="edge">
<title>dir_f511f1e9c03c071966ae594f00bbc5e0&#45;&gt;dir_beaad5fa58c175f2fa05fab7e2ac7ba4</title>
<path fill="none" stroke="#000000" d="M337.0201,-359.8314C348.4869,-350.4477 363.5932,-338.9016 377.4323,-328.9119"/>
<polygon fill="#000000" stroke="#000000" points="379.7241,-331.5767 385.8414,-322.9263 375.6648,-325.8739 379.7241,-331.5767"/>
<g id="a_edge29&#45;headlabel"><a xlink:href="dir_000672_000045.html" target="_top" xlink:title="7">
<text text-anchor="middle" x="378.4421" y="-333.4743" font-family="Helvetica,sans-Serif" font-size="10.00" fill="#000000">7</text>
</a>
</g>
</g>
<!-- dir_f511f1e9c03c071966ae594f00bbc5e0&#45;&gt;dir_2171f7ec022c5423887b07c69b2f5b48 -->
<g id="edge30" class="edge">
<title>dir_f511f1e9c03c071966ae594f00bbc5e0&#45;&gt;dir_2171f7ec022c5423887b07c69b2f5b48</title>
<path fill="none" stroke="#000000" d="M309.5141,-359.7623C300.5335,-335.0928 288.5946,-290.8598 282.9097,-261.9731"/>
<polygon fill="#000000" stroke="#000000" points="286.3455,-261.3035 281.1154,-252.0896 279.4581,-262.554 286.3455,-261.3035"/>
<g id="a_edge30&#45;headlabel"><a xlink:href="dir_000672_000076.html" target="_top" xlink:title="12">
<text text-anchor="middle" x="289.7811" y="-261.8332" font-family="Helvetica,sans-Serif" font-size="10.00" fill="#000000">12</text>
</a>
</g>
</g>
<!-- dir_bcbb2cf9a3d3d83e5515c82071a07177&#45;&gt;dir_4ab6b4cc6a7edbff49100e9123df213f -->
<g id="edge31" class="edge">
<title>dir_bcbb2cf9a3d3d83e5515c82071a07177&#45;&gt;dir_4ab6b4cc6a7edbff49100e9123df213f</title>
<path fill="none" stroke="#000000" d="M163.2737,-36.0044C138.4297,-61.0969 94,-109.4551 94,-162 94,-234 94,-234 94,-234 94,-321.9156 183.6427,-391.6359 235.8096,-426.2122"/>
<polygon fill="#000000" stroke="#000000" points="234.1747,-429.3246 244.4625,-431.8569 237.9994,-423.4618 234.1747,-429.3246"/>
<g id="a_edge31&#45;headlabel"><a xlink:href="dir_000013_000027.html" target="_top" xlink:title="8">
<text text-anchor="middle" x="229.6128" y="-427.2386" font-family="Helvetica,sans-Serif" font-size="10.00" fill="#000000">8</text>
</a>
</g>
</g>
<!-- dir_bcbb2cf9a3d3d83e5515c82071a07177&#45;&gt;dir_2171f7ec022c5423887b07c69b2f5b48 -->
<g id="edge32" class="edge">
<title>dir_bcbb2cf9a3d3d83e5515c82071a07177&#45;&gt;dir_2171f7ec022c5423887b07c69b2f5b48</title>
<path fill="none" stroke="#000000" d="M191.5236,-36.1451C212.8826,-74.0333 254.543,-161.7445 272.7221,-206.5628"/>
<polygon fill="#000000" stroke="#000000" points="269.5012,-207.9359 276.4249,-215.9555 276.0134,-205.3686 269.5012,-207.9359"/>
<g id="a_edge32&#45;headlabel"><a xlink:href="dir_000013_000076.html" target="_top" xlink:title="82">
<text text-anchor="middle" x="265.5415" y="-203.1331" font-family="Helvetica,sans-Serif" font-size="10.00" fill="#000000">82</text>
</a>
</g>
</g>
<!-- dir_2171f7ec022c5423887b07c69b2f5b48&#45;&gt;dir_4ab6b4cc6a7edbff49100e9123df213f -->
<g id="edge42" class="edge">
<title>dir_2171f7ec022c5423887b07c69b2f5b48&#45;&gt;dir_4ab6b4cc6a7edbff49100e9123df213f</title>
<path fill="none" stroke="#000000" d="M284.1991,-252.1451C286.0798,-289.8741 282.7028,-377.0083 277.8829,-421.9956"/>
<polygon fill="#000000" stroke="#000000" points="274.4039,-421.612 276.6978,-431.9555 281.3549,-422.4391 274.4039,-421.612"/>
<g id="a_edge42&#45;headlabel"><a xlink:href="dir_000076_000027.html" target="_top" xlink:title="34">
<text text-anchor="middle" x="272.0091" y="-415.2071" font-family="Helvetica,sans-Serif" font-size="10.00" fill="#000000">34</text>
</a>
</g>
</g>
<!-- dir_2171f7ec022c5423887b07c69b2f5b48&#45;&gt;dir_37c90836491b695b472bf98d1be8336b -->
<g id="edge43" class="edge">
<title>dir_2171f7ec022c5423887b07c69b2f5b48&#45;&gt;dir_37c90836491b695b472bf98d1be8336b</title>
<path fill="none" stroke="#000000" d="M276.3268,-215.7623C273.867,-191.201 273.5923,-147.2474 275.5026,-118.3541"/>
<polygon fill="#000000" stroke="#000000" points="279.0152,-118.3416 276.3417,-108.0896 272.0385,-117.7712 279.0152,-118.3416"/>
<g id="a_edge43&#45;headlabel"><a xlink:href="dir_000076_000273.html" target="_top" xlink:title="1">
<text text-anchor="middle" x="281.5522" y="-119.6556" font-family="Helvetica,sans-Serif" font-size="10.00" fill="#000000">1</text>
</a>
</g>
</g>
<!-- dir_2171f7ec022c5423887b07c69b2f5b48&#45;&gt;dir_85bf31a2e8d306e7598ffcb73f8df6bf -->
<g id="edge44" class="edge">
<title>dir_2171f7ec022c5423887b07c69b2f5b48&#45;&gt;dir_85bf31a2e8d306e7598ffcb73f8df6bf</title>
<path fill="none" stroke="#000000" d="M315.927,-215.8314C341.8033,-203.8101 376.955,-188.24 403.7901,-176.9398"/>
<polygon fill="#000000" stroke="#000000" points="405.3874,-180.0658 413.2678,-172.9842 402.6912,-173.6059 405.3874,-180.0658"/>
<g id="a_edge44&#45;headlabel"><a xlink:href="dir_000076_000061.html" target="_top" xlink:title="1">
<text text-anchor="middle" x="403.1636" y="-181.5705" font-family="Helvetica,sans-Serif" font-size="10.00" fill="#000000">1</text>
</a>
</g>
</g>
<!-- dir_2171f7ec022c5423887b07c69b2f5b48&#45;&gt;dir_f511f1e9c03c071966ae594f00bbc5e0 -->
<g id="edge45" class="edge">
<title>dir_2171f7ec022c5423887b07c69b2f5b48&#45;&gt;dir_f511f1e9c03c071966ae594f00bbc5e0</title>
<path fill="none" stroke="#000000" d="M290.4319,-252.0896C299.4007,-276.6805 311.3462,-320.905 317.056,-349.8531"/>
<polygon fill="#000000" stroke="#000000" points="313.6255,-350.5511 318.8604,-359.7623 320.5122,-349.297 313.6255,-350.5511"/>
<g id="a_edge45&#45;headlabel"><a xlink:href="dir_000076_000672.html" target="_top" xlink:title="14">
<text text-anchor="middle" x="310.1883" y="-345.0233" font-family="Helvetica,sans-Serif" font-size="10.00" fill="#000000">14</text>
</a>
</g>
</g>
<!-- dir_2171f7ec022c5423887b07c69b2f5b48&#45;&gt;dir_bcbb2cf9a3d3d83e5515c82071a07177 -->
<g id="edge46" class="edge">
<title>dir_2171f7ec022c5423887b07c69b2f5b48&#45;&gt;dir_bcbb2cf9a3d3d83e5515c82071a07177</title>
<path fill="none" stroke="#000000" d="M268.5331,-215.9555C247.2101,-178.1556 205.547,-90.4506 187.3263,-45.5564"/>
<polygon fill="#000000" stroke="#000000" points="190.5391,-44.1629 183.6134,-36.1451 184.0275,-46.7318 190.5391,-44.1629"/>
<g id="a_edge46&#45;headlabel"><a xlink:href="dir_000076_000013.html" target="_top" xlink:title="7">
<text text-anchor="middle" x="194.4994" y="-43.9647" font-family="Helvetica,sans-Serif" font-size="10.00" fill="#000000">7</text>
</a>
</g>
</g>
</g>
</svg>
