<?xml version="1.0" encoding="UTF-8" standalone="no"?>
<!DOCTYPE svg PUBLIC "-//W3C//DTD SVG 1.1//EN"
 "http://www.w3.org/Graphics/SVG/1.1/DTD/svg11.dtd">
<!-- Generated by graphviz version 2.40.1 (20161225.0304)
 -->
<!-- Title: /home/travis/build/AliceO2Group/AliceO2/Detectors/ITSMFT/ITS/workflow Pages: 1 -->
<svg width="876pt" height="735pt"
 viewBox="0.00 0.00 876.00 735.00" xmlns="http://www.w3.org/2000/svg" xmlns:xlink="http://www.w3.org/1999/xlink">
<g id="graph0" class="graph" transform="scale(1 1) rotate(0) translate(4 731)">
<title>/home/travis/build/AliceO2Group/AliceO2/Detectors/ITSMFT/ITS/workflow</title>
<g id="clust1" class="cluster">
<title>clusterdir_871aad07cbf94d6cd423c3d8d5bdf4e9</title>
<g id="a_clust1"><a xlink:href="dir_871aad07cbf94d6cd423c3d8d5bdf4e9.html" target="_top" xlink:title="ITS">
<polygon fill="#ddddee" stroke="#000000" points="138,-560 138,-719 304,-719 304,-560 138,-560"/>
<text text-anchor="middle" x="221" y="-707" font-family="Helvetica,sans-Serif" font-size="10.00" fill="#000000">ITS</text>
</a>
</g>
</g>
<g id="clust2" class="cluster">
<title>clusterdir_1c10308a10e2a510f98c8482fd126054</title>
<g id="a_clust2"><a xlink:href="dir_1c10308a10e2a510f98c8482fd126054.html" target="_top">
<polygon fill="#eeeeff" stroke="#000000" points="146,-568 146,-692 296,-692 296,-568 146,-568"/>
</a>
</g>
</g>
<!-- dir_1c10308a10e2a510f98c8482fd126054 -->
<g id="node1" class="node">
<title>dir_1c10308a10e2a510f98c8482fd126054</title>
<text text-anchor="middle" x="257" y="-663.5" font-family="Helvetica,sans-Serif" font-size="10.00" fill="#000000">workflow</text>
</g>
<!-- dir_618fe6153adfd0aa136e98ba4badcb47 -->
<g id="node2" class="node">
<title>dir_618fe6153adfd0aa136e98ba4badcb47</title>
<g id="a_node2"><a xlink:href="dir_618fe6153adfd0aa136e98ba4badcb47.html" target="_top" xlink:title="include">
<polygon fill="#ffffff" stroke="#ff0000" points="208,-612 154,-612 154,-576 208,-576 208,-612"/>
<text text-anchor="middle" x="181" y="-591.5" font-family="Helvetica,sans-Serif" font-size="10.00" fill="#000000">include</text>
</a>
</g>
</g>
<!-- dir_4ab6b4cc6a7edbff49100e9123df213f -->
<g id="node5" class="node">
<title>dir_4ab6b4cc6a7edbff49100e9123df213f</title>
<g id="a_node5"><a xlink:href="dir_4ab6b4cc6a7edbff49100e9123df213f.html" target="_top" xlink:title="Common">
<polygon fill="none" stroke="#ff0000" points="453.5,-540 392.5,-540 392.5,-504 453.5,-504 453.5,-540"/>
<text text-anchor="middle" x="423" y="-519.5" font-family="Helvetica,sans-Serif" font-size="10.00" fill="#000000">Common</text>
</a>
</g>
</g>
<!-- dir_618fe6153adfd0aa136e98ba4badcb47&#45;&gt;dir_4ab6b4cc6a7edbff49100e9123df213f -->
<g id="edge27" class="edge">
<title>dir_618fe6153adfd0aa136e98ba4badcb47&#45;&gt;dir_4ab6b4cc6a7edbff49100e9123df213f</title>
<path fill="none" stroke="#000000" d="M208.2901,-585.8806C250.8472,-573.219 333.2535,-548.7014 382.6755,-533.9974"/>
<polygon fill="#000000" stroke="#000000" points="383.8099,-537.3116 392.3965,-531.1052 381.8136,-530.6022 383.8099,-537.3116"/>
<g id="a_edge27&#45;headlabel"><a xlink:href="dir_000392_000027.html" target="_top" xlink:title="1">
<text text-anchor="middle" x="381.1741" y="-538.558" font-family="Helvetica,sans-Serif" font-size="10.00" fill="#000000">1</text>
</a>
</g>
</g>
<!-- dir_85bf31a2e8d306e7598ffcb73f8df6bf -->
<g id="node7" class="node">
<title>dir_85bf31a2e8d306e7598ffcb73f8df6bf</title>
<g id="a_node7"><a xlink:href="dir_85bf31a2e8d306e7598ffcb73f8df6bf.html" target="_top" xlink:title="common">
<polygon fill="none" stroke="#ff0000" points="294.5,-252 235.5,-252 235.5,-216 294.5,-216 294.5,-252"/>
<text text-anchor="middle" x="265" y="-231.5" font-family="Helvetica,sans-Serif" font-size="10.00" fill="#000000">common</text>
</a>
</g>
</g>
<!-- dir_618fe6153adfd0aa136e98ba4badcb47&#45;&gt;dir_85bf31a2e8d306e7598ffcb73f8df6bf -->
<g id="edge28" class="edge">
<title>dir_618fe6153adfd0aa136e98ba4badcb47&#45;&gt;dir_85bf31a2e8d306e7598ffcb73f8df6bf</title>
<path fill="none" stroke="#000000" d="M155.8499,-575.9248C124.7866,-551.2843 76,-503.9908 76,-450 76,-450 76,-450 76,-378 76,-303.4385 170.219,-262.3801 225.6095,-244.6846"/>
<polygon fill="#000000" stroke="#000000" points="226.9411,-247.9369 235.4688,-241.6496 224.8816,-241.2467 226.9411,-247.9369"/>
<g id="a_edge28&#45;headlabel"><a xlink:href="dir_000392_000061.html" target="_top" xlink:title="1">
<text text-anchor="middle" x="224.3409" y="-249.208" font-family="Helvetica,sans-Serif" font-size="10.00" fill="#000000">1</text>
</a>
</g>
</g>
<!-- dir_5125ceb2b58f632ed0a3019fe2d5cbbc -->
<g id="node8" class="node">
<title>dir_5125ceb2b58f632ed0a3019fe2d5cbbc</title>
<g id="a_node8"><a xlink:href="dir_5125ceb2b58f632ed0a3019fe2d5cbbc.html" target="_top" xlink:title="reconstruction">
<polygon fill="none" stroke="#ff0000" points="622,-612 536,-612 536,-576 622,-576 622,-612"/>
<text text-anchor="middle" x="579" y="-591.5" font-family="Helvetica,sans-Serif" font-size="10.00" fill="#000000">reconstruction</text>
</a>
</g>
</g>
<!-- dir_618fe6153adfd0aa136e98ba4badcb47&#45;&gt;dir_5125ceb2b58f632ed0a3019fe2d5cbbc -->
<g id="edge29" class="edge">
<title>dir_618fe6153adfd0aa136e98ba4badcb47&#45;&gt;dir_5125ceb2b58f632ed0a3019fe2d5cbbc</title>
<path fill="none" stroke="#000000" d="M208.207,-594C314.0277,-594 419.8484,-594 525.6691,-594"/>
<polygon fill="#000000" stroke="#000000" points="525.9098,-597.5001 535.9098,-594 525.9098,-590.5001 525.9098,-597.5001"/>
<g id="a_edge29&#45;headlabel"><a xlink:href="dir_000392_000478.html" target="_top" xlink:title="1">
<text text-anchor="middle" x="522.3152" y="-597.8393" font-family="Helvetica,sans-Serif" font-size="10.00" fill="#000000">1</text>
</a>
</g>
</g>
<!-- dir_beaad5fa58c175f2fa05fab7e2ac7ba4 -->
<g id="node9" class="node">
<title>dir_beaad5fa58c175f2fa05fab7e2ac7ba4</title>
<g id="a_node9"><a xlink:href="dir_beaad5fa58c175f2fa05fab7e2ac7ba4.html" target="_top" xlink:title="tracking">
<polygon fill="none" stroke="#ff0000" points="330,-396 274,-396 274,-360 330,-360 330,-396"/>
<text text-anchor="middle" x="302" y="-375.5" font-family="Helvetica,sans-Serif" font-size="10.00" fill="#000000">tracking</text>
</a>
</g>
</g>
<!-- dir_618fe6153adfd0aa136e98ba4badcb47&#45;&gt;dir_beaad5fa58c175f2fa05fab7e2ac7ba4 -->
<g id="edge30" class="edge">
<title>dir_618fe6153adfd0aa136e98ba4badcb47&#45;&gt;dir_beaad5fa58c175f2fa05fab7e2ac7ba4</title>
<path fill="none" stroke="#000000" d="M174.221,-575.8963C163.4897,-543.8947 146.6466,-476.5156 176,-432 195.3372,-402.6744 234.2607,-389.214 263.7574,-383.0728"/>
<polygon fill="#000000" stroke="#000000" points="264.5702,-386.4813 273.7501,-381.1918 263.2752,-379.6021 264.5702,-386.4813"/>
<g id="a_edge30&#45;headlabel"><a xlink:href="dir_000392_000045.html" target="_top" xlink:title="4">
<text text-anchor="middle" x="261.5628" y="-387.4365" font-family="Helvetica,sans-Serif" font-size="10.00" fill="#000000">4</text>
</a>
</g>
</g>
<!-- dir_f511f1e9c03c071966ae594f00bbc5e0 -->
<g id="node10" class="node">
<title>dir_f511f1e9c03c071966ae594f00bbc5e0</title>
<g id="a_node10"><a xlink:href="dir_f511f1e9c03c071966ae594f00bbc5e0.html" target="_top" xlink:title="GPU">
<polygon fill="none" stroke="#ff0000" points="386,-468 332,-468 332,-432 386,-432 386,-468"/>
<text text-anchor="middle" x="359" y="-447.5" font-family="Helvetica,sans-Serif" font-size="10.00" fill="#000000">GPU</text>
</a>
</g>
</g>
<!-- dir_618fe6153adfd0aa136e98ba4badcb47&#45;&gt;dir_f511f1e9c03c071966ae594f00bbc5e0 -->
<g id="edge31" class="edge">
<title>dir_618fe6153adfd0aa136e98ba4badcb47&#45;&gt;dir_f511f1e9c03c071966ae594f00bbc5e0</title>
<path fill="none" stroke="#000000" d="M203.5438,-575.7623C235.2417,-550.119 293.0693,-503.3372 328.5593,-474.6262"/>
<polygon fill="#000000" stroke="#000000" points="331.066,-477.1002 336.6392,-468.0896 326.6634,-471.658 331.066,-477.1002"/>
<g id="a_edge31&#45;headlabel"><a xlink:href="dir_000392_000672.html" target="_top" xlink:title="6">
<text text-anchor="middle" x="330.0572" y="-479.0684" font-family="Helvetica,sans-Serif" font-size="10.00" fill="#000000">6</text>
</a>
</g>
</g>
<!-- dir_bcbb2cf9a3d3d83e5515c82071a07177 -->
<g id="node11" class="node">
<title>dir_bcbb2cf9a3d3d83e5515c82071a07177</title>
<g id="a_node11"><a xlink:href="dir_bcbb2cf9a3d3d83e5515c82071a07177.html" target="_top" xlink:title="Framework">
<polygon fill="none" stroke="#ff0000" points="484.5,-36 413.5,-36 413.5,0 484.5,0 484.5,-36"/>
<text text-anchor="middle" x="449" y="-15.5" font-family="Helvetica,sans-Serif" font-size="10.00" fill="#000000">Framework</text>
</a>
</g>
</g>
<!-- dir_618fe6153adfd0aa136e98ba4badcb47&#45;&gt;dir_bcbb2cf9a3d3d83e5515c82071a07177 -->
<g id="edge32" class="edge">
<title>dir_618fe6153adfd0aa136e98ba4badcb47&#45;&gt;dir_bcbb2cf9a3d3d83e5515c82071a07177</title>
<path fill="none" stroke="#000000" d="M153.7302,-584.2101C133.3689,-575.5636 106.3456,-561.033 90,-540 3.0121,-428.0665 0,-375.7604 0,-234 0,-234 0,-234 0,-162 0,-77.9522 288.8762,-36.0889 403.209,-22.8115"/>
<polygon fill="#000000" stroke="#000000" points="403.853,-26.2609 413.3924,-21.6512 403.0604,-19.3059 403.853,-26.2609"/>
<g id="a_edge32&#45;headlabel"><a xlink:href="dir_000392_000013.html" target="_top" xlink:title="17">
<text text-anchor="middle" x="400.6029" y="-26.9887" font-family="Helvetica,sans-Serif" font-size="10.00" fill="#000000">17</text>
</a>
</g>
</g>
<!-- dir_2171f7ec022c5423887b07c69b2f5b48 -->
<g id="node12" class="node">
<title>dir_2171f7ec022c5423887b07c69b2f5b48</title>
<g id="a_node12"><a xlink:href="dir_2171f7ec022c5423887b07c69b2f5b48.html" target="_top" xlink:title="DataFormats">
<polygon fill="none" stroke="#ff0000" points="431,-324 351,-324 351,-288 431,-288 431,-324"/>
<text text-anchor="middle" x="391" y="-303.5" font-family="Helvetica,sans-Serif" font-size="10.00" fill="#000000">DataFormats</text>
</a>
</g>
</g>
<!-- dir_618fe6153adfd0aa136e98ba4badcb47&#45;&gt;dir_2171f7ec022c5423887b07c69b2f5b48 -->
<g id="edge33" class="edge">
<title>dir_618fe6153adfd0aa136e98ba4badcb47&#45;&gt;dir_2171f7ec022c5423887b07c69b2f5b48</title>
<path fill="none" stroke="#000000" d="M170.112,-575.7133C164.7071,-565.5709 158.7555,-552.5105 156,-540 151.5386,-519.7443 154.7356,-439.6616 159,-432 196.4305,-364.7504 284.574,-331.5121 340.7979,-316.6008"/>
<polygon fill="#000000" stroke="#000000" points="341.7377,-319.9732 350.5621,-314.1097 340.0072,-313.1905 341.7377,-319.9732"/>
<g id="a_edge33&#45;headlabel"><a xlink:href="dir_000392_000076.html" target="_top" xlink:title="12">
<text text-anchor="middle" x="338.9565" y="-321.1129" font-family="Helvetica,sans-Serif" font-size="10.00" fill="#000000">12</text>
</a>
</g>
</g>
<!-- dir_a305436795e321b46c84ff237f418620 -->
<g id="node3" class="node">
<title>dir_a305436795e321b46c84ff237f418620</title>
<g id="a_node3"><a xlink:href="dir_a305436795e321b46c84ff237f418620.html" target="_top" xlink:title="src">
<polygon fill="#ffffff" stroke="#000000" points="208,-684 154,-684 154,-648 208,-648 208,-684"/>
<text text-anchor="middle" x="181" y="-663.5" font-family="Helvetica,sans-Serif" font-size="10.00" fill="#000000">src</text>
</a>
</g>
</g>
<!-- dir_a305436795e321b46c84ff237f418620&#45;&gt;dir_618fe6153adfd0aa136e98ba4badcb47 -->
<g id="edge44" class="edge">
<title>dir_a305436795e321b46c84ff237f418620&#45;&gt;dir_618fe6153adfd0aa136e98ba4badcb47</title>
<path fill="none" stroke="#000000" d="M181,-647.8314C181,-640.131 181,-630.9743 181,-622.4166"/>
<polygon fill="#000000" stroke="#000000" points="184.5001,-622.4132 181,-612.4133 177.5001,-622.4133 184.5001,-622.4132"/>
<g id="a_edge44&#45;headlabel"><a xlink:href="dir_000404_000392.html" target="_top" xlink:title="16">
<text text-anchor="middle" x="187.3393" y="-623.5079" font-family="Helvetica,sans-Serif" font-size="10.00" fill="#000000">16</text>
</a>
</g>
</g>
<!-- dir_eedff867f3c4e67d20b227cb6e0f96ab -->
<g id="node4" class="node">
<title>dir_eedff867f3c4e67d20b227cb6e0f96ab</title>
<g id="a_node4"><a xlink:href="dir_eedff867f3c4e67d20b227cb6e0f96ab.html" target="_top" xlink:title="base">
<polygon fill="none" stroke="#ff0000" points="555,-180 501,-180 501,-144 555,-144 555,-180"/>
<text text-anchor="middle" x="528" y="-159.5" font-family="Helvetica,sans-Serif" font-size="10.00" fill="#000000">base</text>
</a>
</g>
</g>
<!-- dir_a305436795e321b46c84ff237f418620&#45;&gt;dir_eedff867f3c4e67d20b227cb6e0f96ab -->
<g id="edge39" class="edge">
<title>dir_a305436795e321b46c84ff237f418620&#45;&gt;dir_eedff867f3c4e67d20b227cb6e0f96ab</title>
<path fill="none" stroke="#000000" d="M208.0876,-651.1313C211.0358,-649.9155 214.0411,-648.8355 217,-648 394.7448,-597.8125 454.4587,-666.2694 631,-612 709.3581,-587.9125 792,-603.9768 792,-522 792,-522 792,-522 792,-378 792,-262.0536 637.5779,-197.1155 564.9404,-172.9832"/>
<polygon fill="#000000" stroke="#000000" points="565.8502,-169.599 555.2583,-169.8478 563.6936,-176.2585 565.8502,-169.599"/>
<g id="a_edge39&#45;headlabel"><a xlink:href="dir_000404_000463.html" target="_top" xlink:title="3">
<text text-anchor="middle" x="570.1447" y="-165.5052" font-family="Helvetica,sans-Serif" font-size="10.00" fill="#000000">3</text>
</a>
</g>
</g>
<!-- dir_a305436795e321b46c84ff237f418620&#45;&gt;dir_4ab6b4cc6a7edbff49100e9123df213f -->
<g id="edge40" class="edge">
<title>dir_a305436795e321b46c84ff237f418620&#45;&gt;dir_4ab6b4cc6a7edbff49100e9123df213f</title>
<path fill="none" stroke="#000000" d="M208.2751,-651.6934C211.1868,-650.368 214.1323,-649.1087 217,-648 272.1202,-626.6902 295.1019,-643.6628 345,-612 370.397,-595.8843 392.1173,-569.0222 406.1384,-548.831"/>
<polygon fill="#000000" stroke="#000000" points="409.1595,-550.6109 411.8442,-540.3618 403.3541,-546.6997 409.1595,-550.6109"/>
<g id="a_edge40&#45;headlabel"><a xlink:href="dir_000404_000027.html" target="_top" xlink:title="7">
<text text-anchor="middle" x="409.5058" y="-552.6784" font-family="Helvetica,sans-Serif" font-size="10.00" fill="#000000">7</text>
</a>
</g>
</g>
<!-- dir_37c90836491b695b472bf98d1be8336b -->
<g id="node6" class="node">
<title>dir_37c90836491b695b472bf98d1be8336b</title>
<g id="a_node6"><a xlink:href="dir_37c90836491b695b472bf98d1be8336b.html" target="_top" xlink:title="Base">
<polygon fill="none" stroke="#ff0000" points="555,-108 501,-108 501,-72 555,-72 555,-108"/>
<text text-anchor="middle" x="528" y="-87.5" font-family="Helvetica,sans-Serif" font-size="10.00" fill="#000000">Base</text>
</a>
</g>
</g>
<!-- dir_a305436795e321b46c84ff237f418620&#45;&gt;dir_37c90836491b695b472bf98d1be8336b -->
<g id="edge41" class="edge">
<title>dir_a305436795e321b46c84ff237f418620&#45;&gt;dir_37c90836491b695b472bf98d1be8336b</title>
<path fill="none" stroke="#000000" d="M208.0746,-651.0847C211.0254,-649.878 214.0348,-648.8128 217,-648 433.1534,-588.748 511.7437,-694.8397 720,-612 778.6944,-588.6527 830,-585.1674 830,-522 830,-522 830,-522 830,-306 830,-176.9569 645.3272,-117.6493 564.804,-97.9228"/>
<polygon fill="#000000" stroke="#000000" points="565.6048,-94.5157 555.0663,-95.6066 563.9849,-101.3257 565.6048,-94.5157"/>
<g id="a_edge41&#45;headlabel"><a xlink:href="dir_000404_000273.html" target="_top" xlink:title="5">
<text text-anchor="middle" x="569.7588" y="-90.0852" font-family="Helvetica,sans-Serif" font-size="10.00" fill="#000000">5</text>
</a>
</g>
</g>
<!-- dir_a305436795e321b46c84ff237f418620&#45;&gt;dir_85bf31a2e8d306e7598ffcb73f8df6bf -->
<g id="edge42" class="edge">
<title>dir_a305436795e321b46c84ff237f418620&#45;&gt;dir_85bf31a2e8d306e7598ffcb73f8df6bf</title>
<path fill="none" stroke="#000000" d="M153.9025,-658.3357C103.4095,-642.2102 0,-599.7004 0,-522 0,-522 0,-522 0,-450 0,-367.1996 27.5353,-339.9634 92,-288 130.6249,-256.8654 187.2991,-243.5984 225.136,-238"/>
<polygon fill="#000000" stroke="#000000" points="225.8429,-241.4361 235.2778,-236.6159 224.8963,-234.5004 225.8429,-241.4361"/>
<g id="a_edge42&#45;headlabel"><a xlink:href="dir_000404_000061.html" target="_top" xlink:title="4">
<text text-anchor="middle" x="222.6652" y="-242.2353" font-family="Helvetica,sans-Serif" font-size="10.00" fill="#000000">4</text>
</a>
</g>
</g>
<!-- dir_a305436795e321b46c84ff237f418620&#45;&gt;dir_beaad5fa58c175f2fa05fab7e2ac7ba4 -->
<g id="edge43" class="edge">
<title>dir_a305436795e321b46c84ff237f418620&#45;&gt;dir_beaad5fa58c175f2fa05fab7e2ac7ba4</title>
<path fill="none" stroke="#000000" d="M194.8144,-647.6792C202.0514,-637.5269 210.6947,-624.4678 217,-612 252.9359,-540.9415 281.1704,-450.9698 294.1771,-406.1076"/>
<polygon fill="#000000" stroke="#000000" points="297.6201,-406.7978 297.0078,-396.2207 290.8904,-404.871 297.6201,-406.7978"/>
<g id="a_edge43&#45;headlabel"><a xlink:href="dir_000404_000045.html" target="_top" xlink:title="9">
<text text-anchor="middle" x="299.3603" y="-408.535" font-family="Helvetica,sans-Serif" font-size="10.00" fill="#000000">9</text>
</a>
</g>
</g>
<!-- dir_a305436795e321b46c84ff237f418620&#45;&gt;dir_f511f1e9c03c071966ae594f00bbc5e0 -->
<g id="edge45" class="edge">
<title>dir_a305436795e321b46c84ff237f418620&#45;&gt;dir_f511f1e9c03c071966ae594f00bbc5e0</title>
<path fill="none" stroke="#000000" d="M208.2009,-647.7856C221.6257,-638.0626 237.5641,-625.3623 250,-612 289.6863,-569.3576 325.2076,-510.9673 344.273,-477.1856"/>
<polygon fill="#000000" stroke="#000000" points="347.3901,-478.782 349.2038,-468.3435 341.2765,-475.3726 347.3901,-478.782"/>
<g id="a_edge45&#45;headlabel"><a xlink:href="dir_000404_000672.html" target="_top" xlink:title="3">
<text text-anchor="middle" x="348.1192" y="-480.8043" font-family="Helvetica,sans-Serif" font-size="10.00" fill="#000000">3</text>
</a>
</g>
</g>
<!-- dir_a305436795e321b46c84ff237f418620&#45;&gt;dir_bcbb2cf9a3d3d83e5515c82071a07177 -->
<g id="edge46" class="edge">
<title>dir_a305436795e321b46c84ff237f418620&#45;&gt;dir_bcbb2cf9a3d3d83e5515c82071a07177</title>
<path fill="none" stroke="#000000" d="M208.0679,-651.0602C211.02,-649.8582 214.0316,-648.8009 217,-648 338.8951,-615.1125 669.8599,-665.9634 784,-612 833.4657,-588.6135 868,-576.7154 868,-522 868,-522 868,-522 868,-162 868,-83.7588 603.3962,-38.9329 494.7381,-23.8238"/>
<polygon fill="#000000" stroke="#000000" points="495.1057,-20.3415 484.7237,-22.4542 494.1572,-27.277 495.1057,-20.3415"/>
<g id="a_edge46&#45;headlabel"><a xlink:href="dir_000404_000013.html" target="_top" xlink:title="17">
<text text-anchor="middle" x="499.0519" y="-15.5154" font-family="Helvetica,sans-Serif" font-size="10.00" fill="#000000">17</text>
</a>
</g>
</g>
<!-- dir_a305436795e321b46c84ff237f418620&#45;&gt;dir_2171f7ec022c5423887b07c69b2f5b48 -->
<g id="edge47" class="edge">
<title>dir_a305436795e321b46c84ff237f418620&#45;&gt;dir_2171f7ec022c5423887b07c69b2f5b48</title>
<path fill="none" stroke="#000000" d="M208.2061,-651.5062C211.1313,-650.2173 214.0987,-649.0177 217,-648 349.9917,-601.349 508,-662.9365 508,-522 508,-522 508,-522 508,-450 508,-398.6273 462.591,-355.3755 428.3513,-330.0645"/>
<polygon fill="#000000" stroke="#000000" points="430.0881,-327.0032 419.9214,-324.022 426.01,-332.6926 430.0881,-327.0032"/>
<g id="a_edge47&#45;headlabel"><a xlink:href="dir_000404_000076.html" target="_top" xlink:title="36">
<text text-anchor="middle" x="434.6638" y="-324.2897" font-family="Helvetica,sans-Serif" font-size="10.00" fill="#000000">36</text>
</a>
</g>
</g>
<!-- dir_eedff867f3c4e67d20b227cb6e0f96ab&#45;&gt;dir_4ab6b4cc6a7edbff49100e9123df213f -->
<g id="edge1" class="edge">
<title>dir_eedff867f3c4e67d20b227cb6e0f96ab&#45;&gt;dir_4ab6b4cc6a7edbff49100e9123df213f</title>
<path fill="none" stroke="#000000" d="M522.6595,-180.3104C505.5423,-238.9977 451.9605,-422.7068 431.2686,-493.6506"/>
<polygon fill="#000000" stroke="#000000" points="427.7914,-493.0726 428.3513,-503.6526 434.5114,-495.0326 427.7914,-493.0726"/>
<g id="a_edge1&#45;headlabel"><a xlink:href="dir_000463_000027.html" target="_top" xlink:title="2">
<text text-anchor="middle" x="426.0721" y="-486.3268" font-family="Helvetica,sans-Serif" font-size="10.00" fill="#000000">2</text>
</a>
</g>
</g>
<!-- dir_eedff867f3c4e67d20b227cb6e0f96ab&#45;&gt;dir_37c90836491b695b472bf98d1be8336b -->
<g id="edge2" class="edge">
<title>dir_eedff867f3c4e67d20b227cb6e0f96ab&#45;&gt;dir_37c90836491b695b472bf98d1be8336b</title>
<path fill="none" stroke="#000000" d="M528,-143.8314C528,-136.131 528,-126.9743 528,-118.4166"/>
<polygon fill="#000000" stroke="#000000" points="531.5001,-118.4132 528,-108.4133 524.5001,-118.4133 531.5001,-118.4132"/>
<g id="a_edge2&#45;headlabel"><a xlink:href="dir_000463_000273.html" target="_top" xlink:title="2">
<text text-anchor="middle" x="534.3393" y="-119.5079" font-family="Helvetica,sans-Serif" font-size="10.00" fill="#000000">2</text>
</a>
</g>
</g>
<!-- dir_eedff867f3c4e67d20b227cb6e0f96ab&#45;&gt;dir_85bf31a2e8d306e7598ffcb73f8df6bf -->
<g id="edge3" class="edge">
<title>dir_eedff867f3c4e67d20b227cb6e0f96ab&#45;&gt;dir_85bf31a2e8d306e7598ffcb73f8df6bf</title>
<path fill="none" stroke="#000000" d="M500.7514,-168.6509C460.2275,-177.6279 382.5982,-194.9482 318,-216 313.5271,-217.4577 308.8647,-219.1586 304.2196,-220.9222"/>
<polygon fill="#000000" stroke="#000000" points="302.8412,-217.7025 294.7754,-224.5723 305.3648,-224.2318 302.8412,-217.7025"/>
<g id="a_edge3&#45;headlabel"><a xlink:href="dir_000463_000061.html" target="_top" xlink:title="2">
<text text-anchor="middle" x="305.1705" y="-211.2583" font-family="Helvetica,sans-Serif" font-size="10.00" fill="#000000">2</text>
</a>
</g>
</g>
<!-- dir_eedff867f3c4e67d20b227cb6e0f96ab&#45;&gt;dir_2171f7ec022c5423887b07c69b2f5b48 -->
<g id="edge4" class="edge">
<title>dir_eedff867f3c4e67d20b227cb6e0f96ab&#45;&gt;dir_2171f7ec022c5423887b07c69b2f5b48</title>
<path fill="none" stroke="#000000" d="M515.7092,-180.2413C502.5388,-199.1637 480.4778,-229.1293 458,-252 447.7194,-262.4603 435.4707,-272.8391 424.2752,-281.6606"/>
<polygon fill="#000000" stroke="#000000" points="422.1218,-278.9014 416.3525,-287.7877 426.4041,-284.4387 422.1218,-278.9014"/>
<g id="a_edge4&#45;headlabel"><a xlink:href="dir_000463_000076.html" target="_top" xlink:title="1">
<text text-anchor="middle" x="423.2283" y="-271.9564" font-family="Helvetica,sans-Serif" font-size="10.00" fill="#000000">1</text>
</a>
</g>
</g>
<!-- dir_4ab6b4cc6a7edbff49100e9123df213f&#45;&gt;dir_f511f1e9c03c071966ae594f00bbc5e0 -->
<g id="edge5" class="edge">
<title>dir_4ab6b4cc6a7edbff49100e9123df213f&#45;&gt;dir_f511f1e9c03c071966ae594f00bbc5e0</title>
<path fill="none" stroke="#000000" d="M400.8977,-503.8314C392.6348,-495.454 383.4665,-485.3531 375.7452,-476.1749"/>
<polygon fill="#000000" stroke="#000000" points="378.4341,-473.9341 369.3913,-468.4133 373.0175,-478.3683 378.4341,-473.9341"/>
<g id="a_edge5&#45;headlabel"><a xlink:href="dir_000027_000672.html" target="_top" xlink:title="3">
<text text-anchor="middle" x="382.908" y="-472.4171" font-family="Helvetica,sans-Serif" font-size="10.00" fill="#000000">3</text>
</a>
</g>
</g>
<!-- dir_4ab6b4cc6a7edbff49100e9123df213f&#45;&gt;dir_bcbb2cf9a3d3d83e5515c82071a07177 -->
<g id="edge6" class="edge">
<title>dir_4ab6b4cc6a7edbff49100e9123df213f&#45;&gt;dir_bcbb2cf9a3d3d83e5515c82071a07177</title>
<path fill="none" stroke="#000000" d="M453.5276,-517.0962C488.7934,-510.7315 546.8883,-496.8244 589,-468 685.8686,-401.696 712.7763,-365.9438 741,-252 771.7936,-127.6808 584.075,-57.6091 494.4608,-30.8033"/>
<polygon fill="#000000" stroke="#000000" points="495.3939,-27.4296 484.8129,-27.9705 493.4218,-34.146 495.3939,-27.4296"/>
<g id="a_edge6&#45;headlabel"><a xlink:href="dir_000027_000013.html" target="_top" xlink:title="2">
<text text-anchor="middle" x="499.6428" y="-23.2179" font-family="Helvetica,sans-Serif" font-size="10.00" fill="#000000">2</text>
</a>
</g>
</g>
<!-- dir_4ab6b4cc6a7edbff49100e9123df213f&#45;&gt;dir_2171f7ec022c5423887b07c69b2f5b48 -->
<g id="edge7" class="edge">
<title>dir_4ab6b4cc6a7edbff49100e9123df213f&#45;&gt;dir_2171f7ec022c5423887b07c69b2f5b48</title>
<path fill="none" stroke="#000000" d="M416.3808,-503.9555C407.3459,-466.3144 394.1788,-379.1867 390.4427,-334.1246"/>
<polygon fill="#000000" stroke="#000000" points="393.9337,-333.8716 389.733,-324.1451 386.9513,-334.3682 393.9337,-333.8716"/>
<g id="a_edge7&#45;headlabel"><a xlink:href="dir_000027_000076.html" target="_top" xlink:title="2">
<text text-anchor="middle" x="397.0207" y="-334.7557" font-family="Helvetica,sans-Serif" font-size="10.00" fill="#000000">2</text>
</a>
</g>
</g>
<!-- dir_37c90836491b695b472bf98d1be8336b&#45;&gt;dir_4ab6b4cc6a7edbff49100e9123df213f -->
<g id="edge8" class="edge">
<title>dir_37c90836491b695b472bf98d1be8336b&#45;&gt;dir_4ab6b4cc6a7edbff49100e9123df213f</title>
<path fill="none" stroke="#000000" d="M549.8018,-108.0044C577.5703,-133.0969 622,-181.4551 622,-234 622,-378 622,-378 622,-378 622,-455.4421 521.8643,-495.4753 463.6578,-512.204"/>
<polygon fill="#000000" stroke="#000000" points="462.3637,-508.9304 453.6576,-514.9682 464.2287,-515.6774 462.3637,-508.9304"/>
<g id="a_edge8&#45;headlabel"><a xlink:href="dir_000273_000027.html" target="_top" xlink:title="16">
<text text-anchor="middle" x="465.0719" y="-502.7361" font-family="Helvetica,sans-Serif" font-size="10.00" fill="#000000">16</text>
</a>
</g>
</g>
<!-- dir_37c90836491b695b472bf98d1be8336b&#45;&gt;dir_f511f1e9c03c071966ae594f00bbc5e0 -->
<g id="edge9" class="edge">
<title>dir_37c90836491b695b472bf98d1be8336b&#45;&gt;dir_f511f1e9c03c071966ae594f00bbc5e0</title>
<path fill="none" stroke="#000000" d="M542.4697,-108.0156C549.8987,-118.0786 558.5163,-131.1496 564,-144 580.0825,-181.6877 584,-193.0242 584,-234 584,-306 584,-306 584,-306 584,-394.0834 460.156,-430.7286 396.2281,-443.777"/>
<polygon fill="#000000" stroke="#000000" points="395.2868,-440.3945 386.1403,-445.7417 396.6249,-447.2654 395.2868,-440.3945"/>
<g id="a_edge9&#45;headlabel"><a xlink:href="dir_000273_000672.html" target="_top" xlink:title="14">
<text text-anchor="middle" x="398.2723" y="-434.4205" font-family="Helvetica,sans-Serif" font-size="10.00" fill="#000000">14</text>
</a>
</g>
</g>
<!-- dir_37c90836491b695b472bf98d1be8336b&#45;&gt;dir_bcbb2cf9a3d3d83e5515c82071a07177 -->
<g id="edge10" class="edge">
<title>dir_37c90836491b695b472bf98d1be8336b&#45;&gt;dir_bcbb2cf9a3d3d83e5515c82071a07177</title>
<path fill="none" stroke="#000000" d="M508.065,-71.8314C498.5217,-63.1337 486.9401,-52.5783 476.5694,-43.1265"/>
<polygon fill="#000000" stroke="#000000" points="478.6772,-40.3121 468.9287,-36.1628 473.962,-45.4857 478.6772,-40.3121"/>
<g id="a_edge10&#45;headlabel"><a xlink:href="dir_000273_000013.html" target="_top" xlink:title="1">
<text text-anchor="middle" x="483.2465" y="-38.1349" font-family="Helvetica,sans-Serif" font-size="10.00" fill="#000000">1</text>
</a>
</g>
</g>
<!-- dir_37c90836491b695b472bf98d1be8336b&#45;&gt;dir_2171f7ec022c5423887b07c69b2f5b48 -->
<g id="edge11" class="edge">
<title>dir_37c90836491b695b472bf98d1be8336b&#45;&gt;dir_2171f7ec022c5423887b07c69b2f5b48</title>
<path fill="none" stroke="#000000" d="M523.4572,-108.4025C517.535,-118.8009 508.6939,-132.0687 501,-144 470.4622,-191.3565 435.9391,-247.2636 413.5569,-279.4769"/>
<polygon fill="#000000" stroke="#000000" points="410.5081,-277.7257 407.5793,-287.9076 416.2184,-281.7744 410.5081,-277.7257"/>
<g id="a_edge11&#45;headlabel"><a xlink:href="dir_000273_000076.html" target="_top" xlink:title="10">
<text text-anchor="middle" x="410.271" y="-270.6511" font-family="Helvetica,sans-Serif" font-size="10.00" fill="#000000">10</text>
</a>
</g>
</g>
<!-- dir_85bf31a2e8d306e7598ffcb73f8df6bf&#45;&gt;dir_eedff867f3c4e67d20b227cb6e0f96ab -->
<g id="edge12" class="edge">
<title>dir_85bf31a2e8d306e7598ffcb73f8df6bf&#45;&gt;dir_eedff867f3c4e67d20b227cb6e0f96ab</title>
<path fill="none" stroke="#000000" d="M294.7595,-217.7862C296.519,-217.1615 298.2736,-216.5626 300,-216 365.802,-194.5558 445.1254,-176.9837 490.9006,-168.1577"/>
<polygon fill="#000000" stroke="#000000" points="491.7881,-171.552 500.9647,-166.2567 490.4888,-164.6737 491.7881,-171.552"/>
<g id="a_edge12&#45;headlabel"><a xlink:href="dir_000061_000463.html" target="_top" xlink:title="1">
<text text-anchor="middle" x="488.7829" y="-172.5091" font-family="Helvetica,sans-Serif" font-size="10.00" fill="#000000">1</text>
</a>
</g>
</g>
<!-- dir_85bf31a2e8d306e7598ffcb73f8df6bf&#45;&gt;dir_4ab6b4cc6a7edbff49100e9123df213f -->
<g id="edge13" class="edge">
<title>dir_85bf31a2e8d306e7598ffcb73f8df6bf&#45;&gt;dir_4ab6b4cc6a7edbff49100e9123df213f</title>
<path fill="none" stroke="#000000" d="M261.5119,-252.278C254.2076,-296.6985 242.686,-410.8591 304,-468 326.1981,-488.6873 357.6826,-502.4979 382.6913,-510.9706"/>
<polygon fill="#000000" stroke="#000000" points="381.6795,-514.3218 392.2713,-514.0661 383.8318,-507.6609 381.6795,-514.3218"/>
<g id="a_edge13&#45;headlabel"><a xlink:href="dir_000061_000027.html" target="_top" xlink:title="18">
<text text-anchor="middle" x="377.3861" y="-513.4184" font-family="Helvetica,sans-Serif" font-size="10.00" fill="#000000">18</text>
</a>
</g>
</g>
<!-- dir_85bf31a2e8d306e7598ffcb73f8df6bf&#45;&gt;dir_37c90836491b695b472bf98d1be8336b -->
<g id="edge14" class="edge">
<title>dir_85bf31a2e8d306e7598ffcb73f8df6bf&#45;&gt;dir_37c90836491b695b472bf98d1be8336b</title>
<path fill="none" stroke="#000000" d="M294.6582,-217.7613C343.1955,-191.1857 439.4291,-138.4951 491.872,-109.7811"/>
<polygon fill="#000000" stroke="#000000" points="493.7344,-112.7517 500.8248,-104.8792 490.3726,-106.6118 493.7344,-112.7517"/>
<g id="a_edge14&#45;headlabel"><a xlink:href="dir_000061_000273.html" target="_top" xlink:title="3">
<text text-anchor="middle" x="491.945" y="-114.4684" font-family="Helvetica,sans-Serif" font-size="10.00" fill="#000000">3</text>
</a>
</g>
</g>
<!-- dir_85bf31a2e8d306e7598ffcb73f8df6bf&#45;&gt;dir_bcbb2cf9a3d3d83e5515c82071a07177 -->
<g id="edge15" class="edge">
<title>dir_85bf31a2e8d306e7598ffcb73f8df6bf&#45;&gt;dir_bcbb2cf9a3d3d83e5515c82071a07177</title>
<path fill="none" stroke="#000000" d="M270.1735,-215.7709C280.1948,-183.2728 305.0389,-114.7371 347,-72 362.9241,-55.7814 384.7636,-43.3332 404.1494,-34.4986"/>
<polygon fill="#000000" stroke="#000000" points="405.6645,-37.6562 413.4322,-30.4512 402.8668,-31.2396 405.6645,-37.6562"/>
<g id="a_edge15&#45;headlabel"><a xlink:href="dir_000061_000013.html" target="_top" xlink:title="18">
<text text-anchor="middle" x="403.5042" y="-39.1955" font-family="Helvetica,sans-Serif" font-size="10.00" fill="#000000">18</text>
</a>
</g>
</g>
<!-- dir_85bf31a2e8d306e7598ffcb73f8df6bf&#45;&gt;dir_2171f7ec022c5423887b07c69b2f5b48 -->
<g id="edge16" class="edge">
<title>dir_85bf31a2e8d306e7598ffcb73f8df6bf&#45;&gt;dir_2171f7ec022c5423887b07c69b2f5b48</title>
<path fill="none" stroke="#000000" d="M294.6818,-247.845C313.1949,-257.6629 336.977,-271.0777 356.3327,-282.5493"/>
<polygon fill="#000000" stroke="#000000" points="354.7793,-285.6986 365.1573,-287.8314 358.3745,-279.6923 354.7793,-285.6986"/>
<g id="a_edge16&#45;headlabel"><a xlink:href="dir_000061_000076.html" target="_top" xlink:title="56">
<text text-anchor="middle" x="350.2368" y="-283.7886" font-family="Helvetica,sans-Serif" font-size="10.00" fill="#000000">56</text>
</a>
</g>
</g>
<!-- dir_5125ceb2b58f632ed0a3019fe2d5cbbc&#45;&gt;dir_eedff867f3c4e67d20b227cb6e0f96ab -->
<g id="edge17" class="edge">
<title>dir_5125ceb2b58f632ed0a3019fe2d5cbbc&#45;&gt;dir_eedff867f3c4e67d20b227cb6e0f96ab</title>
<path fill="none" stroke="#000000" d="M597.3802,-575.8287C621.2785,-550.1728 660,-500.7701 660,-450 660,-450 660,-450 660,-306 660,-249.0142 603.1325,-204.798 564.0491,-181.1388"/>
<polygon fill="#000000" stroke="#000000" points="565.4272,-177.8894 555.0307,-175.8489 561.8855,-183.9274 565.4272,-177.8894"/>
<g id="a_edge17&#45;headlabel"><a xlink:href="dir_000478_000463.html" target="_top" xlink:title="4">
<text text-anchor="middle" x="569.9643" y="-174.759" font-family="Helvetica,sans-Serif" font-size="10.00" fill="#000000">4</text>
</a>
</g>
</g>
<!-- dir_5125ceb2b58f632ed0a3019fe2d5cbbc&#45;&gt;dir_4ab6b4cc6a7edbff49100e9123df213f -->
<g id="edge18" class="edge">
<title>dir_5125ceb2b58f632ed0a3019fe2d5cbbc&#45;&gt;dir_4ab6b4cc6a7edbff49100e9123df213f</title>
<path fill="none" stroke="#000000" d="M539.6346,-575.8314C516.2319,-565.0301 486.6215,-551.3638 463.092,-540.504"/>
<polygon fill="#000000" stroke="#000000" points="464.2912,-537.2027 453.7449,-536.19 461.3578,-543.5585 464.2912,-537.2027"/>
<g id="a_edge18&#45;headlabel"><a xlink:href="dir_000478_000027.html" target="_top" xlink:title="14">
<text text-anchor="middle" x="468.7448" y="-533.6311" font-family="Helvetica,sans-Serif" font-size="10.00" fill="#000000">14</text>
</a>
</g>
</g>
<!-- dir_5125ceb2b58f632ed0a3019fe2d5cbbc&#45;&gt;dir_37c90836491b695b472bf98d1be8336b -->
<g id="edge19" class="edge">
<title>dir_5125ceb2b58f632ed0a3019fe2d5cbbc&#45;&gt;dir_37c90836491b695b472bf98d1be8336b</title>
<path fill="none" stroke="#000000" d="M608.7218,-575.8898C643.9687,-551.8777 698,-505.9449 698,-450 698,-450 698,-450 698,-378 698,-266.8889 681.8627,-228.7434 610,-144 597.4664,-129.2199 579.8931,-116.9175 564.2282,-107.807"/>
<polygon fill="#000000" stroke="#000000" points="565.7166,-104.6297 555.2779,-102.8172 562.3079,-110.7437 565.7166,-104.6297"/>
<g id="a_edge19&#45;headlabel"><a xlink:href="dir_000478_000273.html" target="_top" xlink:title="1">
<text text-anchor="middle" x="570.2388" y="-101.4001" font-family="Helvetica,sans-Serif" font-size="10.00" fill="#000000">1</text>
</a>
</g>
</g>
<!-- dir_5125ceb2b58f632ed0a3019fe2d5cbbc&#45;&gt;dir_85bf31a2e8d306e7598ffcb73f8df6bf -->
<g id="edge20" class="edge">
<title>dir_5125ceb2b58f632ed0a3019fe2d5cbbc&#45;&gt;dir_85bf31a2e8d306e7598ffcb73f8df6bf</title>
<path fill="none" stroke="#000000" d="M535.765,-587.9139C494.7461,-580.8161 432.3606,-566.5128 384,-540 342.0548,-517.0043 333.5999,-505.5772 304,-468 281.4804,-439.4113 273.9407,-431.2776 265,-396 253.4536,-350.4409 256.9815,-295.3313 260.8236,-262.553"/>
<polygon fill="#000000" stroke="#000000" points="264.3329,-262.6996 262.1173,-252.339 257.3884,-261.8199 264.3329,-262.6996"/>
<g id="a_edge20&#45;headlabel"><a xlink:href="dir_000478_000061.html" target="_top" xlink:title="10">
<text text-anchor="middle" x="266.6981" y="-264.1224" font-family="Helvetica,sans-Serif" font-size="10.00" fill="#000000">10</text>
</a>
</g>
</g>
<!-- dir_5125ceb2b58f632ed0a3019fe2d5cbbc&#45;&gt;dir_2171f7ec022c5423887b07c69b2f5b48 -->
<g id="edge21" class="edge">
<title>dir_5125ceb2b58f632ed0a3019fe2d5cbbc&#45;&gt;dir_2171f7ec022c5423887b07c69b2f5b48</title>
<path fill="none" stroke="#000000" d="M579.805,-575.7119C580.6987,-532.7299 577.0149,-424.0874 522,-360 501.4504,-336.0616 468.6125,-322.5555 440.9561,-315.0371"/>
<polygon fill="#000000" stroke="#000000" points="441.5864,-311.5865 431.0336,-312.5299 439.8714,-318.3732 441.5864,-311.5865"/>
<g id="a_edge21&#45;headlabel"><a xlink:href="dir_000478_000076.html" target="_top" xlink:title="25">
<text text-anchor="middle" x="445.767" y="-307.2143" font-family="Helvetica,sans-Serif" font-size="10.00" fill="#000000">25</text>
</a>
</g>
</g>
<!-- dir_beaad5fa58c175f2fa05fab7e2ac7ba4&#45;&gt;dir_eedff867f3c4e67d20b227cb6e0f96ab -->
<g id="edge22" class="edge">
<title>dir_beaad5fa58c175f2fa05fab7e2ac7ba4&#45;&gt;dir_eedff867f3c4e67d20b227cb6e0f96ab</title>
<path fill="none" stroke="#000000" d="M306.8122,-359.816C312.649,-340.3929 324.0035,-309.5052 342,-288 383.9164,-237.9112 450.5813,-199.4383 491.6823,-178.8167"/>
<polygon fill="#000000" stroke="#000000" points="493.3743,-181.8849 500.7978,-174.3256 490.2806,-175.6056 493.3743,-181.8849"/>
<g id="a_edge22&#45;headlabel"><a xlink:href="dir_000045_000463.html" target="_top" xlink:title="1">
<text text-anchor="middle" x="491.4046" y="-183.5204" font-family="Helvetica,sans-Serif" font-size="10.00" fill="#000000">1</text>
</a>
</g>
</g>
<!-- dir_beaad5fa58c175f2fa05fab7e2ac7ba4&#45;&gt;dir_4ab6b4cc6a7edbff49100e9123df213f -->
<g id="edge23" class="edge">
<title>dir_beaad5fa58c175f2fa05fab7e2ac7ba4&#45;&gt;dir_4ab6b4cc6a7edbff49100e9123df213f</title>
<path fill="none" stroke="#000000" d="M301.9812,-396.0575C302.8492,-415.6568 306.9269,-446.9639 323,-468 337.8916,-487.4897 361.9009,-500.7845 382.6614,-509.3052"/>
<polygon fill="#000000" stroke="#000000" points="381.6419,-512.6633 392.2314,-512.9999 384.1631,-506.1331 381.6419,-512.6633"/>
<g id="a_edge23&#45;headlabel"><a xlink:href="dir_000045_000027.html" target="_top" xlink:title="7">
<text text-anchor="middle" x="377.266" y="-511.5175" font-family="Helvetica,sans-Serif" font-size="10.00" fill="#000000">7</text>
</a>
</g>
</g>
<!-- dir_beaad5fa58c175f2fa05fab7e2ac7ba4&#45;&gt;dir_85bf31a2e8d306e7598ffcb73f8df6bf -->
<g id="edge24" class="edge">
<title>dir_beaad5fa58c175f2fa05fab7e2ac7ba4&#45;&gt;dir_85bf31a2e8d306e7598ffcb73f8df6bf</title>
<path fill="none" stroke="#000000" d="M297.3139,-359.7623C290.9752,-335.0928 279.6098,-290.8598 272.1875,-261.9731"/>
<polygon fill="#000000" stroke="#000000" points="275.5266,-260.904 269.648,-252.0896 268.7468,-262.6461 275.5266,-260.904"/>
<g id="a_edge24&#45;headlabel"><a xlink:href="dir_000045_000061.html" target="_top" xlink:title="1">
<text text-anchor="middle" x="279.171" y="-261.1789" font-family="Helvetica,sans-Serif" font-size="10.00" fill="#000000">1</text>
</a>
</g>
</g>
<!-- dir_beaad5fa58c175f2fa05fab7e2ac7ba4&#45;&gt;dir_f511f1e9c03c071966ae594f00bbc5e0 -->
<g id="edge25" class="edge">
<title>dir_beaad5fa58c175f2fa05fab7e2ac7ba4&#45;&gt;dir_f511f1e9c03c071966ae594f00bbc5e0</title>
<path fill="none" stroke="#000000" d="M322.5532,-396.4133C329.865,-404.654 337.8655,-414.5245 344.5843,-423.536"/>
<polygon fill="#000000" stroke="#000000" points="341.8797,-425.7693 350.5689,-431.8314 347.5566,-421.6738 341.8797,-425.7693"/>
<g id="a_edge25&#45;headlabel"><a xlink:href="dir_000045_000672.html" target="_top" xlink:title="24">
<text text-anchor="middle" x="337.474" y="-422.0153" font-family="Helvetica,sans-Serif" font-size="10.00" fill="#000000">24</text>
</a>
</g>
</g>
<!-- dir_beaad5fa58c175f2fa05fab7e2ac7ba4&#45;&gt;dir_2171f7ec022c5423887b07c69b2f5b48 -->
<g id="edge26" class="edge">
<title>dir_beaad5fa58c175f2fa05fab7e2ac7ba4&#45;&gt;dir_2171f7ec022c5423887b07c69b2f5b48</title>
<path fill="none" stroke="#000000" d="M324.4585,-359.8314C335.4205,-350.9632 348.7699,-340.1637 360.6265,-330.5718"/>
<polygon fill="#000000" stroke="#000000" points="362.9755,-333.1734 368.5487,-324.1628 358.5729,-327.7313 362.9755,-333.1734"/>
<g id="a_edge26&#45;headlabel"><a xlink:href="dir_000045_000076.html" target="_top" xlink:title="15">
<text text-anchor="middle" x="361.9667" y="-335.1416" font-family="Helvetica,sans-Serif" font-size="10.00" fill="#000000">15</text>
</a>
</g>
</g>
<!-- dir_f511f1e9c03c071966ae594f00bbc5e0&#45;&gt;dir_4ab6b4cc6a7edbff49100e9123df213f -->
<g id="edge34" class="edge">
<title>dir_f511f1e9c03c071966ae594f00bbc5e0&#45;&gt;dir_4ab6b4cc6a7edbff49100e9123df213f</title>
<path fill="none" stroke="#000000" d="M381.3434,-468.4133C389.54,-476.7389 398.6014,-486.7282 406.2458,-495.8144"/>
<polygon fill="#000000" stroke="#000000" points="403.7623,-498.3063 412.8025,-503.8314 409.1809,-493.8747 403.7623,-498.3063"/>
<g id="a_edge34&#45;headlabel"><a xlink:href="dir_000672_000027.html" target="_top" xlink:title="2">
<text text-anchor="middle" x="399.2888" y="-494.8213" font-family="Helvetica,sans-Serif" font-size="10.00" fill="#000000">2</text>
</a>
</g>
</g>
<!-- dir_f511f1e9c03c071966ae594f00bbc5e0&#45;&gt;dir_beaad5fa58c175f2fa05fab7e2ac7ba4 -->
<g id="edge35" class="edge">
<title>dir_f511f1e9c03c071966ae594f00bbc5e0&#45;&gt;dir_beaad5fa58c175f2fa05fab7e2ac7ba4</title>
<path fill="none" stroke="#000000" d="M338.6641,-431.8314C331.3661,-423.6232 323.3599,-413.7606 316.6159,-404.7323"/>
<polygon fill="#000000" stroke="#000000" points="319.2966,-402.4663 310.6012,-396.4133 313.624,-406.5677 319.2966,-402.4663"/>
<g id="a_edge35&#45;headlabel"><a xlink:href="dir_000672_000045.html" target="_top" xlink:title="7">
<text text-anchor="middle" x="323.7036" y="-401.2157" font-family="Helvetica,sans-Serif" font-size="10.00" fill="#000000">7</text>
</a>
</g>
</g>
<!-- dir_f511f1e9c03c071966ae594f00bbc5e0&#45;&gt;dir_2171f7ec022c5423887b07c69b2f5b48 -->
<g id="edge36" class="edge">
<title>dir_f511f1e9c03c071966ae594f00bbc5e0&#45;&gt;dir_2171f7ec022c5423887b07c69b2f5b48</title>
<path fill="none" stroke="#000000" d="M358.3797,-431.7623C361.3911,-407.0928 370.9544,-362.8598 379.3117,-333.9731"/>
<polygon fill="#000000" stroke="#000000" points="382.7564,-334.6755 382.3218,-324.0896 376.0601,-332.6361 382.7564,-334.6755"/>
<g id="a_edge36&#45;headlabel"><a xlink:href="dir_000672_000076.html" target="_top" xlink:title="12">
<text text-anchor="middle" x="384.4253" y="-336.4414" font-family="Helvetica,sans-Serif" font-size="10.00" fill="#000000">12</text>
</a>
</g>
</g>
<!-- dir_bcbb2cf9a3d3d83e5515c82071a07177&#45;&gt;dir_4ab6b4cc6a7edbff49100e9123df213f -->
<g id="edge37" class="edge">
<title>dir_bcbb2cf9a3d3d83e5515c82071a07177&#45;&gt;dir_4ab6b4cc6a7edbff49100e9123df213f</title>
<path fill="none" stroke="#000000" d="M484.7605,-25.5793C573.2332,-47.58 792.062,-118.523 759,-252 730.7763,-365.9438 703.8686,-401.696 607,-468 563.7665,-497.5922 503.687,-511.4618 463.9588,-517.5889"/>
<polygon fill="#000000" stroke="#000000" points="463.2199,-514.1592 453.8223,-519.0517 464.2198,-521.0874 463.2199,-514.1592"/>
<g id="a_edge37&#45;headlabel"><a xlink:href="dir_000013_000027.html" target="_top" xlink:title="8">
<text text-anchor="middle" x="466.3721" y="-508.3357" font-family="Helvetica,sans-Serif" font-size="10.00" fill="#000000">8</text>
</a>
</g>
</g>
<!-- dir_bcbb2cf9a3d3d83e5515c82071a07177&#45;&gt;dir_2171f7ec022c5423887b07c69b2f5b48 -->
<g id="edge38" class="edge">
<title>dir_bcbb2cf9a3d3d83e5515c82071a07177&#45;&gt;dir_2171f7ec022c5423887b07c69b2f5b48</title>
<path fill="none" stroke="#000000" d="M448.8593,-36.0089C443.1401,-84.7922 416.1944,-219.747 400.7628,-278.2991"/>
<polygon fill="#000000" stroke="#000000" points="397.3761,-277.4153 398.1148,-287.9843 404.1282,-279.2614 397.3761,-277.4153"/>
<g id="a_edge38&#45;headlabel"><a xlink:href="dir_000013_000076.html" target="_top" xlink:title="82">
<text text-anchor="middle" x="395.5852" y="-270.6991" font-family="Helvetica,sans-Serif" font-size="10.00" fill="#000000">82</text>
</a>
</g>
</g>
<!-- dir_2171f7ec022c5423887b07c69b2f5b48&#45;&gt;dir_4ab6b4cc6a7edbff49100e9123df213f -->
<g id="edge48" class="edge">
<title>dir_2171f7ec022c5423887b07c69b2f5b48&#45;&gt;dir_4ab6b4cc6a7edbff49100e9123df213f</title>
<path fill="none" stroke="#000000" d="M397.6433,-324.1451C406.6665,-361.7945 419.7924,-448.6409 423.5435,-493.7103"/>
<polygon fill="#000000" stroke="#000000" points="420.0715,-494.2292 424.2726,-503.9555 427.0539,-493.7322 420.0715,-494.2292"/>
<g id="a_edge48&#45;headlabel"><a xlink:href="dir_000076_000027.html" target="_top" xlink:title="34">
<text text-anchor="middle" x="416.9843" y="-488.3452" font-family="Helvetica,sans-Serif" font-size="10.00" fill="#000000">34</text>
</a>
</g>
</g>
<!-- dir_2171f7ec022c5423887b07c69b2f5b48&#45;&gt;dir_37c90836491b695b472bf98d1be8336b -->
<g id="edge49" class="edge">
<title>dir_2171f7ec022c5423887b07c69b2f5b48&#45;&gt;dir_37c90836491b695b472bf98d1be8336b</title>
<path fill="none" stroke="#000000" d="M396.4831,-287.9076C411.4123,-257.8516 449.5911,-195.8088 483,-144 488.7704,-135.0515 495.1862,-125.3513 501.4372,-116.6736"/>
<polygon fill="#000000" stroke="#000000" points="504.4325,-118.5117 507.6034,-108.4025 498.8204,-114.3278 504.4325,-118.5117"/>
<g id="a_edge49&#45;headlabel"><a xlink:href="dir_000076_000273.html" target="_top" xlink:title="1">
<text text-anchor="middle" x="504.5603" y="-120.5906" font-family="Helvetica,sans-Serif" font-size="10.00" fill="#000000">1</text>
</a>
</g>
</g>
<!-- dir_2171f7ec022c5423887b07c69b2f5b48&#45;&gt;dir_85bf31a2e8d306e7598ffcb73f8df6bf -->
<g id="edge50" class="edge">
<title>dir_2171f7ec022c5423887b07c69b2f5b48&#45;&gt;dir_85bf31a2e8d306e7598ffcb73f8df6bf</title>
<path fill="none" stroke="#000000" d="M353.2525,-287.8314C336.2388,-278.6221 316.3377,-267.3301 299.7009,-257.4706"/>
<polygon fill="#000000" stroke="#000000" points="301.2111,-254.2955 290.8331,-252.1628 297.616,-260.3018 301.2111,-254.2955"/>
<g id="a_edge50&#45;headlabel"><a xlink:href="dir_000076_000061.html" target="_top" xlink:title="1">
<text text-anchor="middle" x="305.7536" y="-251.2054" font-family="Helvetica,sans-Serif" font-size="10.00" fill="#000000">1</text>
</a>
</g>
</g>
<!-- dir_2171f7ec022c5423887b07c69b2f5b48&#45;&gt;dir_f511f1e9c03c071966ae594f00bbc5e0 -->
<g id="edge51" class="edge">
<title>dir_2171f7ec022c5423887b07c69b2f5b48&#45;&gt;dir_f511f1e9c03c071966ae594f00bbc5e0</title>
<path fill="none" stroke="#000000" d="M391.6384,-324.0896C388.6532,-348.6805 379.1007,-392.905 370.7385,-421.8531"/>
<polygon fill="#000000" stroke="#000000" points="367.2861,-421.1766 367.726,-431.7623 373.9834,-423.2127 367.2861,-421.1766"/>
<g id="a_edge51&#45;headlabel"><a xlink:href="dir_000076_000672.html" target="_top" xlink:title="14">
<text text-anchor="middle" x="365.6151" y="-414.4116" font-family="Helvetica,sans-Serif" font-size="10.00" fill="#000000">14</text>
</a>
</g>
</g>
<!-- dir_2171f7ec022c5423887b07c69b2f5b48&#45;&gt;dir_bcbb2cf9a3d3d83e5515c82071a07177 -->
<g id="edge52" class="edge">
<title>dir_2171f7ec022c5423887b07c69b2f5b48&#45;&gt;dir_bcbb2cf9a3d3d83e5515c82071a07177</title>
<path fill="none" stroke="#000000" d="M391.1415,-287.9843C396.8627,-239.1929 423.8088,-104.2377 439.2394,-45.6927"/>
<polygon fill="#000000" stroke="#000000" points="442.6257,-46.5779 441.8871,-36.0089 435.8736,-44.7317 442.6257,-46.5779"/>
<g id="a_edge52&#45;headlabel"><a xlink:href="dir_000076_000013.html" target="_top" xlink:title="7">
<text text-anchor="middle" x="444.4165" y="-48.2941" font-family="Helvetica,sans-Serif" font-size="10.00" fill="#000000">7</text>
</a>
</g>
</g>
</g>
</svg>
