<?xml version="1.0" encoding="UTF-8" standalone="no"?>
<!DOCTYPE svg PUBLIC "-//W3C//DTD SVG 1.1//EN"
 "http://www.w3.org/Graphics/SVG/1.1/DTD/svg11.dtd">
<!-- Generated by graphviz version 2.40.1 (20161225.0304)
 -->
<!-- Title: /home/travis/build/AliceO2Group/AliceO2/Detectors/FIT/FT0/simulation/include Pages: 1 -->
<svg width="273pt" height="303pt"
 viewBox="0.00 0.00 273.00 303.00" xmlns="http://www.w3.org/2000/svg" xmlns:xlink="http://www.w3.org/1999/xlink">
<g id="graph0" class="graph" transform="scale(1 1) rotate(0) translate(4 299)">
<title>/home/travis/build/AliceO2Group/AliceO2/Detectors/FIT/FT0/simulation/include</title>
<g id="clust1" class="cluster">
<title>clusterdir_dde9e01e42e5df81e682067abb84b2d4</title>
<g id="a_clust1"><a xlink:href="dir_dde9e01e42e5df81e682067abb84b2d4.html" target="_top" xlink:title="simulation">
<polygon fill="#ddddee" stroke="#000000" points="67,-200 67,-287 257,-287 257,-200 67,-200"/>
<text text-anchor="middle" x="162" y="-275" font-family="Helvetica,sans-Serif" font-size="10.00" fill="#000000">simulation</text>
</a>
</g>
</g>
<g id="clust2" class="cluster">
<title>clusterdir_604320fddfc5f7c5f68b1318557d3be7</title>
<g id="a_clust2"><a xlink:href="dir_604320fddfc5f7c5f68b1318557d3be7.html" target="_top">
<polygon fill="#eeeeff" stroke="#000000" points="75,-208 75,-260 249,-260 249,-208 75,-208"/>
</a>
</g>
</g>
<!-- dir_604320fddfc5f7c5f68b1318557d3be7 -->
<g id="node1" class="node">
<title>dir_604320fddfc5f7c5f68b1318557d3be7</title>
<text text-anchor="middle" x="214" y="-231.5" font-family="Helvetica,sans-Serif" font-size="10.00" fill="#000000">include</text>
</g>
<!-- dir_1669e2ddd97e49af2e5de2c339ef539a -->
<g id="node2" class="node">
<title>dir_1669e2ddd97e49af2e5de2c339ef539a</title>
<g id="a_node2"><a xlink:href="dir_1669e2ddd97e49af2e5de2c339ef539a.html" target="_top" xlink:title="FT0Simulation">
<polygon fill="#ffffff" stroke="#000000" points="169,-252 83,-252 83,-216 169,-216 169,-252"/>
<text text-anchor="middle" x="126" y="-231.5" font-family="Helvetica,sans-Serif" font-size="10.00" fill="#000000">FT0Simulation</text>
</a>
</g>
</g>
<!-- dir_37c90836491b695b472bf98d1be8336b -->
<g id="node3" class="node">
<title>dir_37c90836491b695b472bf98d1be8336b</title>
<g id="a_node3"><a xlink:href="dir_37c90836491b695b472bf98d1be8336b.html" target="_top" xlink:title="Base">
<polygon fill="none" stroke="#ff0000" points="54,-180 0,-180 0,-144 54,-144 54,-180"/>
<text text-anchor="middle" x="27" y="-159.5" font-family="Helvetica,sans-Serif" font-size="10.00" fill="#000000">Base</text>
</a>
</g>
</g>
<!-- dir_1669e2ddd97e49af2e5de2c339ef539a&#45;&gt;dir_37c90836491b695b472bf98d1be8336b -->
<g id="edge1" class="edge">
<title>dir_1669e2ddd97e49af2e5de2c339ef539a&#45;&gt;dir_37c90836491b695b472bf98d1be8336b</title>
<path fill="none" stroke="#000000" d="M101.0181,-215.8314C88.7072,-206.8779 73.6893,-195.9558 60.4063,-186.2955"/>
<polygon fill="#000000" stroke="#000000" points="62.1199,-183.214 51.9739,-180.1628 58.0027,-188.8752 62.1199,-183.214"/>
<g id="a_edge1&#45;headlabel"><a xlink:href="dir_000288_000273.html" target="_top" xlink:title="1">
<text text-anchor="middle" x="66.6969" y="-180.532" font-family="Helvetica,sans-Serif" font-size="10.00" fill="#000000">1</text>
</a>
</g>
</g>
<!-- dir_63da1bf9cbb165deb85abc813a5acde9 -->
<g id="node4" class="node">
<title>dir_63da1bf9cbb165deb85abc813a5acde9</title>
<g id="a_node4"><a xlink:href="dir_63da1bf9cbb165deb85abc813a5acde9.html" target="_top" xlink:title="base">
<polygon fill="none" stroke="#ff0000" points="172,-36 118,-36 118,0 172,0 172,-36"/>
<text text-anchor="middle" x="145" y="-15.5" font-family="Helvetica,sans-Serif" font-size="10.00" fill="#000000">base</text>
</a>
</g>
</g>
<!-- dir_1669e2ddd97e49af2e5de2c339ef539a&#45;&gt;dir_63da1bf9cbb165deb85abc813a5acde9 -->
<g id="edge2" class="edge">
<title>dir_1669e2ddd97e49af2e5de2c339ef539a&#45;&gt;dir_63da1bf9cbb165deb85abc813a5acde9</title>
<path fill="none" stroke="#000000" d="M136.4559,-215.6605C141.6458,-205.5026 147.3591,-192.4443 150,-180 159.7613,-134.0025 154.6483,-79.0268 149.9206,-46.3944"/>
<polygon fill="#000000" stroke="#000000" points="153.3365,-45.5797 148.3541,-36.2295 146.4181,-46.646 153.3365,-45.5797"/>
<g id="a_edge2&#45;headlabel"><a xlink:href="dir_000288_000328.html" target="_top" xlink:title="2">
<text text-anchor="middle" x="156.69" y="-46.2" font-family="Helvetica,sans-Serif" font-size="10.00" fill="#000000">2</text>
</a>
</g>
</g>
<!-- dir_26637d1bd82229bc9ed97f7e706be743 -->
<g id="node5" class="node">
<title>dir_26637d1bd82229bc9ed97f7e706be743</title>
<g id="a_node5"><a xlink:href="dir_26637d1bd82229bc9ed97f7e706be743.html" target="_top" xlink:title="Raw">
<polygon fill="none" stroke="#ff0000" points="126,-180 72,-180 72,-144 126,-144 126,-180"/>
<text text-anchor="middle" x="99" y="-159.5" font-family="Helvetica,sans-Serif" font-size="10.00" fill="#000000">Raw</text>
</a>
</g>
</g>
<!-- dir_1669e2ddd97e49af2e5de2c339ef539a&#45;&gt;dir_26637d1bd82229bc9ed97f7e706be743 -->
<g id="edge3" class="edge">
<title>dir_1669e2ddd97e49af2e5de2c339ef539a&#45;&gt;dir_26637d1bd82229bc9ed97f7e706be743</title>
<path fill="none" stroke="#000000" d="M119.1868,-215.8314C116.2356,-207.9617 112.7142,-198.5712 109.445,-189.8533"/>
<polygon fill="#000000" stroke="#000000" points="112.6934,-188.5476 105.905,-180.4133 106.1391,-191.0055 112.6934,-188.5476"/>
<g id="a_edge3&#45;headlabel"><a xlink:href="dir_000288_000552.html" target="_top" xlink:title="2">
<text text-anchor="middle" x="116.614" y="-188.4164" font-family="Helvetica,sans-Serif" font-size="10.00" fill="#000000">2</text>
</a>
</g>
</g>
<!-- dir_2171f7ec022c5423887b07c69b2f5b48 -->
<g id="node6" class="node">
<title>dir_2171f7ec022c5423887b07c69b2f5b48</title>
<g id="a_node6"><a xlink:href="dir_2171f7ec022c5423887b07c69b2f5b48.html" target="_top" xlink:title="DataFormats">
<polygon fill="none" stroke="#ff0000" points="139,-108 59,-108 59,-72 139,-72 139,-108"/>
<text text-anchor="middle" x="99" y="-87.5" font-family="Helvetica,sans-Serif" font-size="10.00" fill="#000000">DataFormats</text>
</a>
</g>
</g>
<!-- dir_1669e2ddd97e49af2e5de2c339ef539a&#45;&gt;dir_2171f7ec022c5423887b07c69b2f5b48 -->
<g id="edge4" class="edge">
<title>dir_1669e2ddd97e49af2e5de2c339ef539a&#45;&gt;dir_2171f7ec022c5423887b07c69b2f5b48</title>
<path fill="none" stroke="#000000" d="M131.9192,-215.6681C136.9449,-197.1912 142.2807,-168.0466 135,-144 132.0436,-134.2355 126.6748,-124.6229 120.97,-116.2762"/>
<polygon fill="#000000" stroke="#000000" points="123.7129,-114.0973 114.9905,-108.0831 118.0586,-118.2239 123.7129,-114.0973"/>
<g id="a_edge4&#45;headlabel"><a xlink:href="dir_000288_000076.html" target="_top" xlink:title="18">
<text text-anchor="middle" x="128.1253" y="-112.827" font-family="Helvetica,sans-Serif" font-size="10.00" fill="#000000">18</text>
</a>
</g>
</g>
<!-- dir_37c90836491b695b472bf98d1be8336b&#45;&gt;dir_2171f7ec022c5423887b07c69b2f5b48 -->
<g id="edge5" class="edge">
<title>dir_37c90836491b695b472bf98d1be8336b&#45;&gt;dir_2171f7ec022c5423887b07c69b2f5b48</title>
<path fill="none" stroke="#000000" d="M39.2162,-143.8314C47.0663,-135.1337 57.4496,-124.5783 67.4049,-115.1265"/>
<polygon fill="#000000" stroke="#000000" points="69.9508,-117.5384 74.8853,-108.1628 65.1812,-112.4148 69.9508,-117.5384"/>
<g id="a_edge5&#45;headlabel"><a xlink:href="dir_000273_000076.html" target="_top" xlink:title="10">
<text text-anchor="middle" x="69.2544" y="-119.5658" font-family="Helvetica,sans-Serif" font-size="10.00" fill="#000000">10</text>
</a>
</g>
</g>
<!-- dir_26637d1bd82229bc9ed97f7e706be743&#45;&gt;dir_2171f7ec022c5423887b07c69b2f5b48 -->
<g id="edge6" class="edge">
<title>dir_26637d1bd82229bc9ed97f7e706be743&#45;&gt;dir_2171f7ec022c5423887b07c69b2f5b48</title>
<path fill="none" stroke="#000000" d="M99,-143.8314C99,-136.131 99,-126.9743 99,-118.4166"/>
<polygon fill="#000000" stroke="#000000" points="102.5001,-118.4132 99,-108.4133 95.5001,-118.4133 102.5001,-118.4132"/>
<g id="a_edge6&#45;headlabel"><a xlink:href="dir_000552_000076.html" target="_top" xlink:title="15">
<text text-anchor="middle" x="105.3393" y="-119.5079" font-family="Helvetica,sans-Serif" font-size="10.00" fill="#000000">15</text>
</a>
</g>
</g>
<!-- dir_2171f7ec022c5423887b07c69b2f5b48&#45;&gt;dir_37c90836491b695b472bf98d1be8336b -->
<g id="edge7" class="edge">
<title>dir_2171f7ec022c5423887b07c69b2f5b48&#45;&gt;dir_37c90836491b695b472bf98d1be8336b</title>
<path fill="none" stroke="#000000" d="M86.5627,-108.4133C78.7259,-117.0787 68.4215,-127.5464 58.5436,-136.9223"/>
<polygon fill="#000000" stroke="#000000" points="56.0561,-134.4561 51.121,-143.8314 60.8255,-139.5799 56.0561,-134.4561"/>
<g id="a_edge7&#45;headlabel"><a xlink:href="dir_000076_000273.html" target="_top" xlink:title="1">
<text text-anchor="middle" x="56.7528" y="-127.4287" font-family="Helvetica,sans-Serif" font-size="10.00" fill="#000000">1</text>
</a>
</g>
</g>
<!-- dir_2171f7ec022c5423887b07c69b2f5b48&#45;&gt;dir_63da1bf9cbb165deb85abc813a5acde9 -->
<g id="edge8" class="edge">
<title>dir_2171f7ec022c5423887b07c69b2f5b48&#45;&gt;dir_63da1bf9cbb165deb85abc813a5acde9</title>
<path fill="none" stroke="#000000" d="M110.6077,-71.8314C115.7978,-63.7079 122.0232,-53.9637 127.7425,-45.0118"/>
<polygon fill="#000000" stroke="#000000" points="130.8015,-46.7246 133.236,-36.4133 124.9026,-42.9559 130.8015,-46.7246"/>
<g id="a_edge8&#45;headlabel"><a xlink:href="dir_000076_000328.html" target="_top" xlink:title="1">
<text text-anchor="middle" x="131.2589" y="-48.7824" font-family="Helvetica,sans-Serif" font-size="10.00" fill="#000000">1</text>
</a>
</g>
</g>
</g>
</svg>
