<?xml version="1.0" encoding="UTF-8" standalone="no"?>
<!DOCTYPE svg PUBLIC "-//W3C//DTD SVG 1.1//EN"
 "http://www.w3.org/Graphics/SVG/1.1/DTD/svg11.dtd">
<!-- Generated by graphviz version 2.40.1 (20161225.0304)
 -->
<!-- Title: /home/travis/build/AliceO2Group/AliceO2/Detectors/FIT/FT0/simulation/src Pages: 1 -->
<svg width="323pt" height="511pt"
 viewBox="0.00 0.00 323.00 511.00" xmlns="http://www.w3.org/2000/svg" xmlns:xlink="http://www.w3.org/1999/xlink">
<g id="graph0" class="graph" transform="scale(1 1) rotate(0) translate(4 507)">
<title>/home/travis/build/AliceO2Group/AliceO2/Detectors/FIT/FT0/simulation/src</title>
<g id="clust1" class="cluster">
<title>clusterdir_dde9e01e42e5df81e682067abb84b2d4</title>
<g id="a_clust1"><a xlink:href="dir_dde9e01e42e5df81e682067abb84b2d4.html" target="_top" xlink:title="simulation">
<polygon fill="#ddddee" stroke="#000000" points="89,-424 89,-495 159,-495 159,-424 89,-424"/>
<text text-anchor="middle" x="124" y="-483" font-family="Helvetica,sans-Serif" font-size="10.00" fill="#000000">simulation</text>
</a>
</g>
</g>
<!-- dir_bf62c39606f8fafa0737609fac123a3e -->
<g id="node1" class="node">
<title>dir_bf62c39606f8fafa0737609fac123a3e</title>
<g id="a_node1"><a xlink:href="dir_bf62c39606f8fafa0737609fac123a3e.html" target="_top" xlink:title="src">
<polygon fill="#eeeeff" stroke="#000000" points="151,-468 97,-468 97,-432 151,-432 151,-468"/>
<text text-anchor="middle" x="124" y="-447.5" font-family="Helvetica,sans-Serif" font-size="10.00" fill="#000000">src</text>
</a>
</g>
</g>
<!-- dir_4ab6b4cc6a7edbff49100e9123df213f -->
<g id="node2" class="node">
<title>dir_4ab6b4cc6a7edbff49100e9123df213f</title>
<g id="a_node2"><a xlink:href="dir_4ab6b4cc6a7edbff49100e9123df213f.html" target="_top" xlink:title="Common">
<polygon fill="none" stroke="#ff0000" points="128.5,-252 67.5,-252 67.5,-216 128.5,-216 128.5,-252"/>
<text text-anchor="middle" x="98" y="-231.5" font-family="Helvetica,sans-Serif" font-size="10.00" fill="#000000">Common</text>
</a>
</g>
</g>
<!-- dir_bf62c39606f8fafa0737609fac123a3e&#45;&gt;dir_4ab6b4cc6a7edbff49100e9123df213f -->
<g id="edge6" class="edge">
<title>dir_bf62c39606f8fafa0737609fac123a3e&#45;&gt;dir_4ab6b4cc6a7edbff49100e9123df213f</title>
<path fill="none" stroke="#000000" d="M121.828,-431.9555C117.2971,-394.3144 106.8095,-307.1867 101.3854,-262.1246"/>
<polygon fill="#000000" stroke="#000000" points="104.8542,-261.6551 100.1841,-252.1451 97.9044,-262.4917 104.8542,-261.6551"/>
<g id="a_edge6&#45;headlabel"><a xlink:href="dir_000315_000027.html" target="_top" xlink:title="2">
<text text-anchor="middle" x="108.1026" y="-262.3847" font-family="Helvetica,sans-Serif" font-size="10.00" fill="#000000">2</text>
</a>
</g>
</g>
<!-- dir_63da1bf9cbb165deb85abc813a5acde9 -->
<g id="node3" class="node">
<title>dir_63da1bf9cbb165deb85abc813a5acde9</title>
<g id="a_node3"><a xlink:href="dir_63da1bf9cbb165deb85abc813a5acde9.html" target="_top" xlink:title="base">
<polygon fill="none" stroke="#ff0000" points="185,-36 131,-36 131,0 185,0 185,-36"/>
<text text-anchor="middle" x="158" y="-15.5" font-family="Helvetica,sans-Serif" font-size="10.00" fill="#000000">base</text>
</a>
</g>
</g>
<!-- dir_bf62c39606f8fafa0737609fac123a3e&#45;&gt;dir_63da1bf9cbb165deb85abc813a5acde9 -->
<g id="edge7" class="edge">
<title>dir_bf62c39606f8fafa0737609fac123a3e&#45;&gt;dir_63da1bf9cbb165deb85abc813a5acde9</title>
<path fill="none" stroke="#000000" d="M96.7877,-434.5901C60.2862,-411.6659 0,-364.89 0,-306 0,-306 0,-306 0,-162 0,-96.5496 74.9775,-52.9388 121.6331,-32.1373"/>
<polygon fill="#000000" stroke="#000000" points="123.0451,-35.34 130.8388,-28.1631 120.2706,-28.9133 123.0451,-35.34"/>
<g id="a_edge7&#45;headlabel"><a xlink:href="dir_000315_000328.html" target="_top" xlink:title="1">
<text text-anchor="middle" x="120.8702" y="-36.8714" font-family="Helvetica,sans-Serif" font-size="10.00" fill="#000000">1</text>
</a>
</g>
</g>
<!-- dir_604320fddfc5f7c5f68b1318557d3be7 -->
<g id="node4" class="node">
<title>dir_604320fddfc5f7c5f68b1318557d3be7</title>
<g id="a_node4"><a xlink:href="dir_604320fddfc5f7c5f68b1318557d3be7.html" target="_top" xlink:title="include">
<polygon fill="none" stroke="#ff0000" points="315,-396 261,-396 261,-360 315,-360 315,-396"/>
<text text-anchor="middle" x="288" y="-375.5" font-family="Helvetica,sans-Serif" font-size="10.00" fill="#000000">include</text>
</a>
</g>
</g>
<!-- dir_bf62c39606f8fafa0737609fac123a3e&#45;&gt;dir_604320fddfc5f7c5f68b1318557d3be7 -->
<g id="edge8" class="edge">
<title>dir_bf62c39606f8fafa0737609fac123a3e&#45;&gt;dir_604320fddfc5f7c5f68b1318557d3be7</title>
<path fill="none" stroke="#000000" d="M151.0813,-438.1107C178.5004,-426.073 221.0813,-407.3789 251.4738,-394.0359"/>
<polygon fill="#000000" stroke="#000000" points="253.129,-397.1317 260.8785,-389.907 250.3151,-390.7222 253.129,-397.1317"/>
<g id="a_edge8&#45;headlabel"><a xlink:href="dir_000315_000287.html" target="_top" xlink:title="4">
<text text-anchor="middle" x="250.979" y="-398.6764" font-family="Helvetica,sans-Serif" font-size="10.00" fill="#000000">4</text>
</a>
</g>
</g>
<!-- dir_bcbb2cf9a3d3d83e5515c82071a07177 -->
<g id="node5" class="node">
<title>dir_bcbb2cf9a3d3d83e5515c82071a07177</title>
<g id="a_node5"><a xlink:href="dir_bcbb2cf9a3d3d83e5515c82071a07177.html" target="_top" xlink:title="Framework">
<polygon fill="none" stroke="#ff0000" points="193.5,-180 122.5,-180 122.5,-144 193.5,-144 193.5,-180"/>
<text text-anchor="middle" x="158" y="-159.5" font-family="Helvetica,sans-Serif" font-size="10.00" fill="#000000">Framework</text>
</a>
</g>
</g>
<!-- dir_bf62c39606f8fafa0737609fac123a3e&#45;&gt;dir_bcbb2cf9a3d3d83e5515c82071a07177 -->
<g id="edge9" class="edge">
<title>dir_bf62c39606f8fafa0737609fac123a3e&#45;&gt;dir_bcbb2cf9a3d3d83e5515c82071a07177</title>
<path fill="none" stroke="#000000" d="M138.0803,-431.6542C155.0838,-408.2039 182.6861,-365.6389 193,-324 204.6614,-276.9207 185.7917,-221.6043 171.5412,-189.3096"/>
<polygon fill="#000000" stroke="#000000" points="174.6517,-187.6956 167.3058,-180.0608 168.2872,-190.6101 174.6517,-187.6956"/>
<g id="a_edge9&#45;headlabel"><a xlink:href="dir_000315_000013.html" target="_top" xlink:title="1">
<text text-anchor="middle" x="178.7297" y="-187.2817" font-family="Helvetica,sans-Serif" font-size="10.00" fill="#000000">1</text>
</a>
</g>
</g>
<!-- dir_26637d1bd82229bc9ed97f7e706be743 -->
<g id="node6" class="node">
<title>dir_26637d1bd82229bc9ed97f7e706be743</title>
<g id="a_node6"><a xlink:href="dir_26637d1bd82229bc9ed97f7e706be743.html" target="_top" xlink:title="Raw">
<polygon fill="none" stroke="#ff0000" points="184,-324 130,-324 130,-288 184,-288 184,-324"/>
<text text-anchor="middle" x="157" y="-303.5" font-family="Helvetica,sans-Serif" font-size="10.00" fill="#000000">Raw</text>
</a>
</g>
</g>
<!-- dir_bf62c39606f8fafa0737609fac123a3e&#45;&gt;dir_26637d1bd82229bc9ed97f7e706be743 -->
<g id="edge10" class="edge">
<title>dir_bf62c39606f8fafa0737609fac123a3e&#45;&gt;dir_26637d1bd82229bc9ed97f7e706be743</title>
<path fill="none" stroke="#000000" d="M128.1795,-431.7623C133.8329,-407.0928 143.9696,-362.8598 150.5895,-333.9731"/>
<polygon fill="#000000" stroke="#000000" points="154.0322,-334.6188 152.8545,-324.0896 147.2091,-333.0551 154.0322,-334.6188"/>
<g id="a_edge10&#45;headlabel"><a xlink:href="dir_000315_000552.html" target="_top" xlink:title="2">
<text text-anchor="middle" x="155.9968" y="-336.2568" font-family="Helvetica,sans-Serif" font-size="10.00" fill="#000000">2</text>
</a>
</g>
</g>
<!-- dir_2171f7ec022c5423887b07c69b2f5b48 -->
<g id="node7" class="node">
<title>dir_2171f7ec022c5423887b07c69b2f5b48</title>
<g id="a_node7"><a xlink:href="dir_2171f7ec022c5423887b07c69b2f5b48.html" target="_top" xlink:title="DataFormats">
<polygon fill="none" stroke="#ff0000" points="198,-108 118,-108 118,-72 198,-72 198,-108"/>
<text text-anchor="middle" x="158" y="-87.5" font-family="Helvetica,sans-Serif" font-size="10.00" fill="#000000">DataFormats</text>
</a>
</g>
</g>
<!-- dir_bf62c39606f8fafa0737609fac123a3e&#45;&gt;dir_2171f7ec022c5423887b07c69b2f5b48 -->
<g id="edge11" class="edge">
<title>dir_bf62c39606f8fafa0737609fac123a3e&#45;&gt;dir_2171f7ec022c5423887b07c69b2f5b48</title>
<path fill="none" stroke="#000000" d="M104.0537,-431.6161C78.6484,-406.0935 38,-357.2496 38,-306 38,-306 38,-306 38,-234 38,-182.2495 84.3045,-139.2268 119.3862,-114.0578"/>
<polygon fill="#000000" stroke="#000000" points="121.8159,-116.6314 128.0285,-108.0492 117.8199,-110.884 121.8159,-116.6314"/>
<g id="a_edge11&#45;headlabel"><a xlink:href="dir_000315_000076.html" target="_top" xlink:title="6">
<text text-anchor="middle" x="120.4854" y="-118.5146" font-family="Helvetica,sans-Serif" font-size="10.00" fill="#000000">6</text>
</a>
</g>
</g>
<!-- dir_4ab6b4cc6a7edbff49100e9123df213f&#45;&gt;dir_bcbb2cf9a3d3d83e5515c82071a07177 -->
<g id="edge1" class="edge">
<title>dir_4ab6b4cc6a7edbff49100e9123df213f&#45;&gt;dir_bcbb2cf9a3d3d83e5515c82071a07177</title>
<path fill="none" stroke="#000000" d="M107.1881,-215.8314C113.4151,-207.3694 121.747,-197.1489 129.9111,-187.8971"/>
<polygon fill="#000000" stroke="#000000" points="132.5677,-190.1776 136.6796,-180.4133 127.376,-185.4822 132.5677,-190.1776"/>
<g id="a_edge1&#45;headlabel"><a xlink:href="dir_000027_000013.html" target="_top" xlink:title="2">
<text text-anchor="middle" x="132.2623" y="-192.2481" font-family="Helvetica,sans-Serif" font-size="10.00" fill="#000000">2</text>
</a>
</g>
</g>
<!-- dir_4ab6b4cc6a7edbff49100e9123df213f&#45;&gt;dir_2171f7ec022c5423887b07c69b2f5b48 -->
<g id="edge2" class="edge">
<title>dir_4ab6b4cc6a7edbff49100e9123df213f&#45;&gt;dir_2171f7ec022c5423887b07c69b2f5b48</title>
<path fill="none" stroke="#000000" d="M91.5363,-215.943C90.1381,-197.1708 93.3037,-167.3262 104,-144 108.7123,-133.7235 115.9071,-123.8131 123.597,-115.3496"/>
<polygon fill="#000000" stroke="#000000" points="126.2711,-117.6203 130.7413,-108.0147 121.2566,-112.7361 126.2711,-117.6203"/>
<g id="a_edge2&#45;headlabel"><a xlink:href="dir_000027_000076.html" target="_top" xlink:title="2">
<text text-anchor="middle" x="125.7969" y="-119.6764" font-family="Helvetica,sans-Serif" font-size="10.00" fill="#000000">2</text>
</a>
</g>
</g>
<!-- dir_604320fddfc5f7c5f68b1318557d3be7&#45;&gt;dir_63da1bf9cbb165deb85abc813a5acde9 -->
<g id="edge3" class="edge">
<title>dir_604320fddfc5f7c5f68b1318557d3be7&#45;&gt;dir_63da1bf9cbb165deb85abc813a5acde9</title>
<path fill="none" stroke="#000000" d="M292.3512,-359.9379C298.5022,-332.7787 309,-279.7286 309,-234 309,-234 309,-234 309,-162 309,-98.927 239.1493,-55.0381 194.4641,-33.4144"/>
<polygon fill="#000000" stroke="#000000" points="195.885,-30.215 185.345,-29.1392 192.9136,-36.5531 195.885,-30.215"/>
<g id="a_edge3&#45;headlabel"><a xlink:href="dir_000287_000328.html" target="_top" xlink:title="2">
<text text-anchor="middle" x="200.3449" y="-26.67" font-family="Helvetica,sans-Serif" font-size="10.00" fill="#000000">2</text>
</a>
</g>
</g>
<!-- dir_604320fddfc5f7c5f68b1318557d3be7&#45;&gt;dir_26637d1bd82229bc9ed97f7e706be743 -->
<g id="edge4" class="edge">
<title>dir_604320fddfc5f7c5f68b1318557d3be7&#45;&gt;dir_26637d1bd82229bc9ed97f7e706be743</title>
<path fill="none" stroke="#000000" d="M260.8567,-363.0816C241.1842,-352.2692 214.3843,-337.5395 192.9364,-325.7513"/>
<polygon fill="#000000" stroke="#000000" points="194.5579,-322.6488 184.1085,-320.8993 191.1863,-328.7833 194.5579,-322.6488"/>
<g id="a_edge4&#45;headlabel"><a xlink:href="dir_000287_000552.html" target="_top" xlink:title="2">
<text text-anchor="middle" x="199.0756" y="-319.3919" font-family="Helvetica,sans-Serif" font-size="10.00" fill="#000000">2</text>
</a>
</g>
</g>
<!-- dir_604320fddfc5f7c5f68b1318557d3be7&#45;&gt;dir_2171f7ec022c5423887b07c69b2f5b48 -->
<g id="edge5" class="edge">
<title>dir_604320fddfc5f7c5f68b1318557d3be7&#45;&gt;dir_2171f7ec022c5423887b07c69b2f5b48</title>
<path fill="none" stroke="#000000" d="M286.1029,-359.8778C281.0853,-318.6069 264.5731,-215.656 219,-144 211.9926,-132.9821 202.1062,-122.8881 192.3286,-114.4845"/>
<polygon fill="#000000" stroke="#000000" points="194.52,-111.7552 184.5675,-108.1221 190.0821,-117.1687 194.52,-111.7552"/>
<g id="a_edge5&#45;headlabel"><a xlink:href="dir_000287_000076.html" target="_top" xlink:title="18">
<text text-anchor="middle" x="199.0999" y="-109.3384" font-family="Helvetica,sans-Serif" font-size="10.00" fill="#000000">18</text>
</a>
</g>
</g>
<!-- dir_bcbb2cf9a3d3d83e5515c82071a07177&#45;&gt;dir_4ab6b4cc6a7edbff49100e9123df213f -->
<g id="edge12" class="edge">
<title>dir_bcbb2cf9a3d3d83e5515c82071a07177&#45;&gt;dir_4ab6b4cc6a7edbff49100e9123df213f</title>
<path fill="none" stroke="#000000" d="M148.6316,-180.4133C142.3643,-188.9088 134.0141,-199.1366 125.8534,-208.3696"/>
<polygon fill="#000000" stroke="#000000" points="123.2134,-206.0706 119.0929,-215.8314 128.401,-210.7706 123.2134,-206.0706"/>
<g id="a_edge12&#45;headlabel"><a xlink:href="dir_000013_000027.html" target="_top" xlink:title="8">
<text text-anchor="middle" x="123.5228" y="-199.0004" font-family="Helvetica,sans-Serif" font-size="10.00" fill="#000000">8</text>
</a>
</g>
</g>
<!-- dir_bcbb2cf9a3d3d83e5515c82071a07177&#45;&gt;dir_2171f7ec022c5423887b07c69b2f5b48 -->
<g id="edge13" class="edge">
<title>dir_bcbb2cf9a3d3d83e5515c82071a07177&#45;&gt;dir_2171f7ec022c5423887b07c69b2f5b48</title>
<path fill="none" stroke="#000000" d="M152.0476,-143.8314C151.2972,-136.131 151.0763,-126.9743 151.3849,-118.4166"/>
<polygon fill="#000000" stroke="#000000" points="154.8792,-118.6161 152.024,-108.4133 147.8935,-118.1697 154.8792,-118.6161"/>
<g id="a_edge13&#45;headlabel"><a xlink:href="dir_000013_000076.html" target="_top" xlink:title="82">
<text text-anchor="middle" x="157.4836" y="-119.8844" font-family="Helvetica,sans-Serif" font-size="10.00" fill="#000000">82</text>
</a>
</g>
</g>
<!-- dir_26637d1bd82229bc9ed97f7e706be743&#45;&gt;dir_4ab6b4cc6a7edbff49100e9123df213f -->
<g id="edge14" class="edge">
<title>dir_26637d1bd82229bc9ed97f7e706be743&#45;&gt;dir_4ab6b4cc6a7edbff49100e9123df213f</title>
<path fill="none" stroke="#000000" d="M142.1118,-287.8314C135.247,-279.454 126.9699,-269.3531 119.4489,-260.1749"/>
<polygon fill="#000000" stroke="#000000" points="122.1341,-257.9297 113.0886,-252.4133 116.7197,-262.3665 122.1341,-257.9297"/>
<g id="a_edge14&#45;headlabel"><a xlink:href="dir_000552_000027.html" target="_top" xlink:title="9">
<text text-anchor="middle" x="126.6085" y="-256.4104" font-family="Helvetica,sans-Serif" font-size="10.00" fill="#000000">9</text>
</a>
</g>
</g>
<!-- dir_26637d1bd82229bc9ed97f7e706be743&#45;&gt;dir_bcbb2cf9a3d3d83e5515c82071a07177 -->
<g id="edge15" class="edge">
<title>dir_26637d1bd82229bc9ed97f7e706be743&#45;&gt;dir_bcbb2cf9a3d3d83e5515c82071a07177</title>
<path fill="none" stroke="#000000" d="M157.1267,-287.7623C157.2972,-263.201 157.6024,-219.2474 157.8031,-190.3541"/>
<polygon fill="#000000" stroke="#000000" points="161.3048,-190.1137 157.8744,-180.0896 154.3049,-190.065 161.3048,-190.1137"/>
<g id="a_edge15&#45;headlabel"><a xlink:href="dir_000552_000013.html" target="_top" xlink:title="25">
<text text-anchor="middle" x="164.1191" y="-191.2279" font-family="Helvetica,sans-Serif" font-size="10.00" fill="#000000">25</text>
</a>
</g>
</g>
<!-- dir_26637d1bd82229bc9ed97f7e706be743&#45;&gt;dir_2171f7ec022c5423887b07c69b2f5b48 -->
<g id="edge16" class="edge">
<title>dir_26637d1bd82229bc9ed97f7e706be743&#45;&gt;dir_2171f7ec022c5423887b07c69b2f5b48</title>
<path fill="none" stroke="#000000" d="M169.3363,-287.7602C188.1985,-257.4922 220.201,-195.1515 202,-144 198.4122,-133.9169 192.0465,-124.3517 185.2524,-116.1515"/>
<polygon fill="#000000" stroke="#000000" points="187.6596,-113.591 178.4026,-108.4375 182.4253,-118.2389 187.6596,-113.591"/>
<g id="a_edge16&#45;headlabel"><a xlink:href="dir_000552_000076.html" target="_top" xlink:title="15">
<text text-anchor="middle" x="192.1694" y="-111.8936" font-family="Helvetica,sans-Serif" font-size="10.00" fill="#000000">15</text>
</a>
</g>
</g>
<!-- dir_2171f7ec022c5423887b07c69b2f5b48&#45;&gt;dir_4ab6b4cc6a7edbff49100e9123df213f -->
<g id="edge17" class="edge">
<title>dir_2171f7ec022c5423887b07c69b2f5b48&#45;&gt;dir_4ab6b4cc6a7edbff49100e9123df213f</title>
<path fill="none" stroke="#000000" d="M146.6345,-108.2574C138.3732,-117.9914 128.104,-130.6886 122,-144 113.0586,-163.4992 109.3796,-187.5535 106.5652,-205.8871"/>
<polygon fill="#000000" stroke="#000000" points="103.08,-205.519 104.9749,-215.943 109.9941,-206.6125 103.08,-205.519"/>
<g id="a_edge17&#45;headlabel"><a xlink:href="dir_000076_000027.html" target="_top" xlink:title="34">
<text text-anchor="middle" x="100.837" y="-199.025" font-family="Helvetica,sans-Serif" font-size="10.00" fill="#000000">34</text>
</a>
</g>
</g>
<!-- dir_2171f7ec022c5423887b07c69b2f5b48&#45;&gt;dir_63da1bf9cbb165deb85abc813a5acde9 -->
<g id="edge18" class="edge">
<title>dir_2171f7ec022c5423887b07c69b2f5b48&#45;&gt;dir_63da1bf9cbb165deb85abc813a5acde9</title>
<path fill="none" stroke="#000000" d="M158,-71.8314C158,-64.131 158,-54.9743 158,-46.4166"/>
<polygon fill="#000000" stroke="#000000" points="161.5001,-46.4132 158,-36.4133 154.5001,-46.4133 161.5001,-46.4132"/>
<g id="a_edge18&#45;headlabel"><a xlink:href="dir_000076_000328.html" target="_top" xlink:title="1">
<text text-anchor="middle" x="164.3393" y="-47.5079" font-family="Helvetica,sans-Serif" font-size="10.00" fill="#000000">1</text>
</a>
</g>
</g>
<!-- dir_2171f7ec022c5423887b07c69b2f5b48&#45;&gt;dir_bcbb2cf9a3d3d83e5515c82071a07177 -->
<g id="edge19" class="edge">
<title>dir_2171f7ec022c5423887b07c69b2f5b48&#45;&gt;dir_bcbb2cf9a3d3d83e5515c82071a07177</title>
<path fill="none" stroke="#000000" d="M163.976,-108.4133C164.7071,-116.0593 164.9203,-125.1084 164.6155,-133.5726"/>
<polygon fill="#000000" stroke="#000000" points="161.1048,-133.6264 163.9524,-143.8314 168.0902,-134.078 161.1048,-133.6264"/>
<g id="a_edge19&#45;headlabel"><a xlink:href="dir_000076_000013.html" target="_top" xlink:title="7">
<text text-anchor="middle" x="158.5032" y="-127.3562" font-family="Helvetica,sans-Serif" font-size="10.00" fill="#000000">7</text>
</a>
</g>
</g>
</g>
</svg>
