<?xml version="1.0" encoding="UTF-8" standalone="no"?>
<!DOCTYPE svg PUBLIC "-//W3C//DTD SVG 1.1//EN"
 "http://www.w3.org/Graphics/SVG/1.1/DTD/svg11.dtd">
<!-- Generated by graphviz version 2.40.1 (20161225.0304)
 -->
<!-- Title: /home/travis/build/AliceO2Group/AliceO2/Detectors/ITSMFT/ITS/workflow/include/ITSWorkflow Pages: 1 -->
<!--zoomable 583 -->
<svg id="main" version="1.1" xmlns="http://www.w3.org/2000/svg" xmlns:xlink="http://www.w3.org/1999/xlink" xml:space="preserve" onload="init(evt)">
<style type="text/css"><![CDATA[
.edge:hover path { stroke: red; }
.edge:hover polygon { stroke: red; fill: red; }
]]></style>
<script type="text/javascript"><![CDATA[
var edges = document.getElementsByTagName('g');
if (edges && edges.length) {
  for (var i=0;i<edges.length;i++) {
    if (edges[i].id.substr(0,4)=='edge') {
      edges[i].setAttribute('class','edge');
    }
  }
}
]]></script>
        <defs>
                <circle id="rim" cx="0" cy="0" r="7"/>
                <circle id="rim2" cx="0" cy="0" r="3.5"/>
                <g id="zoomPlus">
                        <use xlink:href="#rim" fill="#404040">
                                <set attributeName="fill" to="#808080" begin="zoomplus.mouseover" end="zoomplus.mouseout"/>
                        </use>
                        <path d="M-4,0h8M0,-4v8" fill="none" stroke="white" stroke-width="1.5" pointer-events="none"/>
                </g>
                <g id="zoomMin">
                        <use xlink:href="#rim" fill="#404040">
                                <set attributeName="fill" to="#808080" begin="zoomminus.mouseover" end="zoomminus.mouseout"/>
                        </use>
                        <path d="M-4,0h8" fill="none" stroke="white" stroke-width="1.5" pointer-events="none"/>
                </g>
                <g id="dirArrow">
                        <path fill="none" stroke="white" stroke-width="1.5" d="M0,-3.0v7 M-2.5,-0.5L0,-3.0L2.5,-0.5"/>
                </g>
               <g id="resetDef">
                       <use xlink:href="#rim2" fill="#404040">
                               <set attributeName="fill" to="#808080" begin="reset.mouseover" end="reset.mouseout"/>
                       </use>
               </g>
        </defs>

<script type="text/javascript">
var viewWidth = 458;
var viewHeight = 583;
var sectionId = 'dynsection-0';
</script>
<script xlink:href="svgpan.js"/>
<svg id="graph" class="graph">
<g id="viewport">
<title>/home/travis/build/AliceO2Group/AliceO2/Detectors/ITSMFT/ITS/workflow/include/ITSWorkflow</title>
<g id="clust1" class="cluster">
<title>clusterdir_618fe6153adfd0aa136e98ba4badcb47</title>
<g id="a_clust1"><a xlink:href="dir_618fe6153adfd0aa136e98ba4badcb47.html" target="_top" xlink:title="include">
<polygon fill="#ddddee" stroke="#000000" points="217,-496 217,-567 311,-567 311,-496 217,-496"/>
<text text-anchor="middle" x="264" y="-555" font-family="Helvetica,sans-Serif" font-size="10.00" fill="#000000">include</text>
</a>
</g>
</g>
<!-- dir_2c40afba594fde3eef37ddd5abe3c060 -->
<g id="node1" class="node">
<title>dir_2c40afba594fde3eef37ddd5abe3c060</title>
<g id="a_node1"><a xlink:href="dir_2c40afba594fde3eef37ddd5abe3c060.html" target="_top" xlink:title="ITSWorkflow">
<polygon fill="#eeeeff" stroke="#000000" points="302.5,-540 225.5,-540 225.5,-504 302.5,-504 302.5,-540"/>
<text text-anchor="middle" x="264" y="-519.5" font-family="Helvetica,sans-Serif" font-size="10.00" fill="#000000">ITSWorkflow</text>
</a>
</g>
</g>
<!-- dir_4ab6b4cc6a7edbff49100e9123df213f -->
<g id="node2" class="node">
<title>dir_4ab6b4cc6a7edbff49100e9123df213f</title>
<g id="a_node2"><a xlink:href="dir_4ab6b4cc6a7edbff49100e9123df213f.html" target="_top" xlink:title="Common">
<polygon fill="none" stroke="#ff0000" points="209.5,-396 148.5,-396 148.5,-360 209.5,-360 209.5,-396"/>
<text text-anchor="middle" x="179" y="-375.5" font-family="Helvetica,sans-Serif" font-size="10.00" fill="#000000">Common</text>
</a>
</g>
</g>
<!-- dir_2c40afba594fde3eef37ddd5abe3c060&#45;&gt;dir_4ab6b4cc6a7edbff49100e9123df213f -->
<g id="edge1" class="edge">
<title>dir_2c40afba594fde3eef37ddd5abe3c060&#45;&gt;dir_4ab6b4cc6a7edbff49100e9123df213f</title>
<path fill="none" stroke="#000000" d="M225.4048,-516.3823C196.7511,-509.9699 159.5549,-496.4103 141,-468 127.9123,-447.9608 140.8004,-422.6666 155.0034,-404.0001"/>
<polygon fill="#000000" stroke="#000000" points="157.7536,-406.1653 161.3152,-396.1871 152.3084,-401.7664 157.7536,-406.1653"/>
<g id="a_edge1&#45;headlabel"><a xlink:href="dir_000393_000027.html" target="_top" xlink:title="1">
<text text-anchor="middle" x="157.7033" y="-408.2457" font-family="Helvetica,sans-Serif" font-size="10.00" fill="#000000">1</text>
</a>
</g>
</g>
<!-- dir_85bf31a2e8d306e7598ffcb73f8df6bf -->
<g id="node3" class="node">
<title>dir_85bf31a2e8d306e7598ffcb73f8df6bf</title>
<g id="a_node3"><a xlink:href="dir_85bf31a2e8d306e7598ffcb73f8df6bf.html" target="_top" xlink:title="common">
<polygon fill="none" stroke="#ff0000" points="204.5,-108 145.5,-108 145.5,-72 204.5,-72 204.5,-108"/>
<text text-anchor="middle" x="175" y="-87.5" font-family="Helvetica,sans-Serif" font-size="10.00" fill="#000000">common</text>
</a>
</g>
</g>
<!-- dir_2c40afba594fde3eef37ddd5abe3c060&#45;&gt;dir_85bf31a2e8d306e7598ffcb73f8df6bf -->
<g id="edge2" class="edge">
<title>dir_2c40afba594fde3eef37ddd5abe3c060&#45;&gt;dir_85bf31a2e8d306e7598ffcb73f8df6bf</title>
<path fill="none" stroke="#000000" d="M225.3294,-518.6086C152.0009,-509.8341 0,-479.4144 0,-378 0,-378 0,-378 0,-306 0,-219.7714 85.2379,-148.694 136.7375,-113.6191"/>
<polygon fill="#000000" stroke="#000000" points="138.9376,-116.3588 145.3136,-107.8973 135.0526,-110.5358 138.9376,-116.3588"/>
<g id="a_edge2&#45;headlabel"><a xlink:href="dir_000393_000061.html" target="_top" xlink:title="1">
<text text-anchor="middle" x="137.5232" y="-118.2156" font-family="Helvetica,sans-Serif" font-size="10.00" fill="#000000">1</text>
</a>
</g>
</g>
<!-- dir_5125ceb2b58f632ed0a3019fe2d5cbbc -->
<g id="node4" class="node">
<title>dir_5125ceb2b58f632ed0a3019fe2d5cbbc</title>
<g id="a_node4"><a xlink:href="dir_5125ceb2b58f632ed0a3019fe2d5cbbc.html" target="_top" xlink:title="reconstruction">
<polygon fill="none" stroke="#ff0000" points="236,-468 150,-468 150,-432 236,-432 236,-468"/>
<text text-anchor="middle" x="193" y="-447.5" font-family="Helvetica,sans-Serif" font-size="10.00" fill="#000000">reconstruction</text>
</a>
</g>
</g>
<!-- dir_2c40afba594fde3eef37ddd5abe3c060&#45;&gt;dir_5125ceb2b58f632ed0a3019fe2d5cbbc -->
<g id="edge3" class="edge">
<title>dir_2c40afba594fde3eef37ddd5abe3c060&#45;&gt;dir_5125ceb2b58f632ed0a3019fe2d5cbbc</title>
<path fill="none" stroke="#000000" d="M246.0837,-503.8314C237.6558,-495.2848 227.459,-484.9443 218.264,-475.6198"/>
<polygon fill="#000000" stroke="#000000" points="220.6711,-473.0761 211.1575,-468.4133 215.6869,-477.9912 220.6711,-473.0761"/>
<g id="a_edge3&#45;headlabel"><a xlink:href="dir_000393_000478.html" target="_top" xlink:title="1">
<text text-anchor="middle" x="225.2167" y="-471.142" font-family="Helvetica,sans-Serif" font-size="10.00" fill="#000000">1</text>
</a>
</g>
</g>
<!-- dir_beaad5fa58c175f2fa05fab7e2ac7ba4 -->
<g id="node5" class="node">
<title>dir_beaad5fa58c175f2fa05fab7e2ac7ba4</title>
<g id="a_node5"><a xlink:href="dir_beaad5fa58c175f2fa05fab7e2ac7ba4.html" target="_top" xlink:title="tracking">
<polygon fill="none" stroke="#ff0000" points="277,-252 221,-252 221,-216 277,-216 277,-252"/>
<text text-anchor="middle" x="249" y="-231.5" font-family="Helvetica,sans-Serif" font-size="10.00" fill="#000000">tracking</text>
</a>
</g>
</g>
<!-- dir_2c40afba594fde3eef37ddd5abe3c060&#45;&gt;dir_beaad5fa58c175f2fa05fab7e2ac7ba4 -->
<g id="edge4" class="edge">
<title>dir_2c40afba594fde3eef37ddd5abe3c060&#45;&gt;dir_beaad5fa58c175f2fa05fab7e2ac7ba4</title>
<path fill="none" stroke="#000000" d="M263.0617,-503.9843C260.5257,-455.2939 253.5206,-320.7961 250.4613,-262.0573"/>
<polygon fill="#000000" stroke="#000000" points="253.9534,-261.8133 249.938,-252.0089 246.9629,-262.1774 253.9534,-261.8133"/>
<g id="a_edge4&#45;headlabel"><a xlink:href="dir_000393_000045.html" target="_top" xlink:title="4">
<text text-anchor="middle" x="256.9758" y="-262.7554" font-family="Helvetica,sans-Serif" font-size="10.00" fill="#000000">4</text>
</a>
</g>
</g>
<!-- dir_f511f1e9c03c071966ae594f00bbc5e0 -->
<g id="node6" class="node">
<title>dir_f511f1e9c03c071966ae594f00bbc5e0</title>
<g id="a_node6"><a xlink:href="dir_f511f1e9c03c071966ae594f00bbc5e0.html" target="_top" xlink:title="GPU">
<polygon fill="none" stroke="#ff0000" points="346,-324 292,-324 292,-288 346,-288 346,-324"/>
<text text-anchor="middle" x="319" y="-303.5" font-family="Helvetica,sans-Serif" font-size="10.00" fill="#000000">GPU</text>
</a>
</g>
</g>
<!-- dir_2c40afba594fde3eef37ddd5abe3c060&#45;&gt;dir_f511f1e9c03c071966ae594f00bbc5e0 -->
<g id="edge5" class="edge">
<title>dir_2c40afba594fde3eef37ddd5abe3c060&#45;&gt;dir_f511f1e9c03c071966ae594f00bbc5e0</title>
<path fill="none" stroke="#000000" d="M268.8213,-503.5125C271.5329,-493.0874 274.9717,-479.8213 278,-468 289.9663,-421.2876 303.6773,-366.9428 311.8231,-334.5676"/>
<polygon fill="#000000" stroke="#000000" points="315.317,-335.0248 314.3617,-324.4732 308.5284,-333.3175 315.317,-335.0248"/>
<g id="a_edge5&#45;headlabel"><a xlink:href="dir_000393_000672.html" target="_top" xlink:title="6">
<text text-anchor="middle" x="317.1939" y="-336.7033" font-family="Helvetica,sans-Serif" font-size="10.00" fill="#000000">6</text>
</a>
</g>
</g>
<!-- dir_bcbb2cf9a3d3d83e5515c82071a07177 -->
<g id="node7" class="node">
<title>dir_bcbb2cf9a3d3d83e5515c82071a07177</title>
<g id="a_node7"><a xlink:href="dir_bcbb2cf9a3d3d83e5515c82071a07177.html" target="_top" xlink:title="Framework">
<polygon fill="none" stroke="#ff0000" points="244.5,-36 173.5,-36 173.5,0 244.5,0 244.5,-36"/>
<text text-anchor="middle" x="209" y="-15.5" font-family="Helvetica,sans-Serif" font-size="10.00" fill="#000000">Framework</text>
</a>
</g>
</g>
<!-- dir_2c40afba594fde3eef37ddd5abe3c060&#45;&gt;dir_bcbb2cf9a3d3d83e5515c82071a07177 -->
<g id="edge6" class="edge">
<title>dir_2c40afba594fde3eef37ddd5abe3c060&#45;&gt;dir_bcbb2cf9a3d3d83e5515c82071a07177</title>
<path fill="none" stroke="#000000" d="M302.5393,-511.1961C357.0199,-493.2954 450,-451.917 450,-378 450,-378 450,-378 450,-162 450,-71.8763 324.2696,-36.8183 254.4364,-24.297"/>
<polygon fill="#000000" stroke="#000000" points="255.0071,-20.8438 244.5604,-22.6092 253.8279,-27.7438 255.0071,-20.8438"/>
<g id="a_edge6&#45;headlabel"><a xlink:href="dir_000393_000013.html" target="_top" xlink:title="17">
<text text-anchor="middle" x="259.0286" y="-16.1505" font-family="Helvetica,sans-Serif" font-size="10.00" fill="#000000">17</text>
</a>
</g>
</g>
<!-- dir_2171f7ec022c5423887b07c69b2f5b48 -->
<g id="node8" class="node">
<title>dir_2171f7ec022c5423887b07c69b2f5b48</title>
<g id="a_node8"><a xlink:href="dir_2171f7ec022c5423887b07c69b2f5b48.html" target="_top" xlink:title="DataFormats">
<polygon fill="none" stroke="#ff0000" points="283,-180 203,-180 203,-144 283,-144 283,-180"/>
<text text-anchor="middle" x="243" y="-159.5" font-family="Helvetica,sans-Serif" font-size="10.00" fill="#000000">DataFormats</text>
</a>
</g>
</g>
<!-- dir_2c40afba594fde3eef37ddd5abe3c060&#45;&gt;dir_2171f7ec022c5423887b07c69b2f5b48 -->
<g id="edge7" class="edge">
<title>dir_2c40afba594fde3eef37ddd5abe3c060&#45;&gt;dir_2171f7ec022c5423887b07c69b2f5b48</title>
<path fill="none" stroke="#000000" d="M302.8853,-504.7992C346.7351,-482.4481 412,-438.9446 412,-378 412,-378 412,-378 412,-306 412,-242.6275 342.2999,-201.2618 292.4232,-179.7736"/>
<polygon fill="#000000" stroke="#000000" points="293.6275,-176.4838 283.0506,-175.8661 290.9338,-182.9447 293.6275,-176.4838"/>
<g id="a_edge7&#45;headlabel"><a xlink:href="dir_000393_000076.html" target="_top" xlink:title="12">
<text text-anchor="middle" x="298.0378" y="-172.7463" font-family="Helvetica,sans-Serif" font-size="10.00" fill="#000000">12</text>
</a>
</g>
</g>
<!-- dir_4ab6b4cc6a7edbff49100e9123df213f&#45;&gt;dir_f511f1e9c03c071966ae594f00bbc5e0 -->
<g id="edge8" class="edge">
<title>dir_4ab6b4cc6a7edbff49100e9123df213f&#45;&gt;dir_f511f1e9c03c071966ae594f00bbc5e0</title>
<path fill="none" stroke="#000000" d="M208.3755,-359.8314C230.016,-348.1148 259.4376,-333.0269 282.5642,-321.807"/>
<polygon fill="#000000" stroke="#000000" points="284.227,-324.8912 291.7278,-317.4086 281.198,-318.5805 284.227,-324.8912"/>
<g id="a_edge8&#45;headlabel"><a xlink:href="dir_000027_000672.html" target="_top" xlink:title="3">
<text text-anchor="middle" x="282.215" y="-326.5063" font-family="Helvetica,sans-Serif" font-size="10.00" fill="#000000">3</text>
</a>
</g>
</g>
<!-- dir_4ab6b4cc6a7edbff49100e9123df213f&#45;&gt;dir_bcbb2cf9a3d3d83e5515c82071a07177 -->
<g id="edge9" class="edge">
<title>dir_4ab6b4cc6a7edbff49100e9123df213f&#45;&gt;dir_bcbb2cf9a3d3d83e5515c82071a07177</title>
<path fill="none" stroke="#000000" d="M165.3515,-359.9154C136.2629,-310.7012 76.8886,-171.4003 127,-72 131.2302,-63.609 147.3523,-51.3221 164.2817,-40.5878"/>
<polygon fill="#000000" stroke="#000000" points="166.4579,-43.3588 173.1496,-35.1448 162.7961,-37.393 166.4579,-43.3588"/>
<g id="a_edge9&#45;headlabel"><a xlink:href="dir_000027_000013.html" target="_top" xlink:title="2">
<text text-anchor="middle" x="164.8795" y="-45.159" font-family="Helvetica,sans-Serif" font-size="10.00" fill="#000000">2</text>
</a>
</g>
</g>
<!-- dir_4ab6b4cc6a7edbff49100e9123df213f&#45;&gt;dir_2171f7ec022c5423887b07c69b2f5b48 -->
<g id="edge10" class="edge">
<title>dir_4ab6b4cc6a7edbff49100e9123df213f&#45;&gt;dir_2171f7ec022c5423887b07c69b2f5b48</title>
<path fill="none" stroke="#000000" d="M175.2754,-359.9812C175.1708,-329.5089 184.0395,-266.2134 203,-216 206.5144,-206.6928 211.5083,-197.0986 216.882,-188.6266"/>
<polygon fill="#000000" stroke="#000000" points="219.8409,-190.4995 222.5733,-180.2631 214.0537,-186.5614 219.8409,-190.4995"/>
<g id="a_edge10&#45;headlabel"><a xlink:href="dir_000027_000076.html" target="_top" xlink:title="2">
<text text-anchor="middle" x="220.166" y="-192.5686" font-family="Helvetica,sans-Serif" font-size="10.00" fill="#000000">2</text>
</a>
</g>
</g>
<!-- dir_85bf31a2e8d306e7598ffcb73f8df6bf&#45;&gt;dir_4ab6b4cc6a7edbff49100e9123df213f -->
<g id="edge11" class="edge">
<title>dir_85bf31a2e8d306e7598ffcb73f8df6bf&#45;&gt;dir_4ab6b4cc6a7edbff49100e9123df213f</title>
<path fill="none" stroke="#000000" d="M175.2501,-108.0089C175.9263,-156.6912 177.7943,-291.1886 178.6102,-349.9345"/>
<polygon fill="#000000" stroke="#000000" points="175.1111,-350.0339 178.7498,-359.9843 182.1105,-349.9366 175.1111,-350.0339"/>
<g id="a_edge11&#45;headlabel"><a xlink:href="dir_000061_000027.html" target="_top" xlink:title="18">
<text text-anchor="middle" x="172.2223" y="-343.979" font-family="Helvetica,sans-Serif" font-size="10.00" fill="#000000">18</text>
</a>
</g>
</g>
<!-- dir_85bf31a2e8d306e7598ffcb73f8df6bf&#45;&gt;dir_bcbb2cf9a3d3d83e5515c82071a07177 -->
<g id="edge12" class="edge">
<title>dir_85bf31a2e8d306e7598ffcb73f8df6bf&#45;&gt;dir_bcbb2cf9a3d3d83e5515c82071a07177</title>
<path fill="none" stroke="#000000" d="M183.5796,-71.8314C187.3358,-63.8771 191.8257,-54.369 195.9798,-45.5723"/>
<polygon fill="#000000" stroke="#000000" points="199.1996,-46.9503 200.3048,-36.4133 192.8699,-43.9612 199.1996,-46.9503"/>
<g id="a_edge12&#45;headlabel"><a xlink:href="dir_000061_000013.html" target="_top" xlink:title="18">
<text text-anchor="middle" x="200.2321" y="-48.9131" font-family="Helvetica,sans-Serif" font-size="10.00" fill="#000000">18</text>
</a>
</g>
</g>
<!-- dir_85bf31a2e8d306e7598ffcb73f8df6bf&#45;&gt;dir_2171f7ec022c5423887b07c69b2f5b48 -->
<g id="edge13" class="edge">
<title>dir_85bf31a2e8d306e7598ffcb73f8df6bf&#45;&gt;dir_2171f7ec022c5423887b07c69b2f5b48</title>
<path fill="none" stroke="#000000" d="M198.1056,-108.1628C206.9006,-116.6038 216.7127,-126.7956 224.9846,-136.0303"/>
<polygon fill="#000000" stroke="#000000" points="222.5806,-138.5987 231.7931,-143.8314 227.8545,-133.9958 222.5806,-138.5987"/>
<g id="a_edge13&#45;headlabel"><a xlink:href="dir_000061_000076.html" target="_top" xlink:title="56">
<text text-anchor="middle" x="218.0779" y="-135.2575" font-family="Helvetica,sans-Serif" font-size="10.00" fill="#000000">56</text>
</a>
</g>
</g>
<!-- dir_5125ceb2b58f632ed0a3019fe2d5cbbc&#45;&gt;dir_4ab6b4cc6a7edbff49100e9123df213f -->
<g id="edge14" class="edge">
<title>dir_5125ceb2b58f632ed0a3019fe2d5cbbc&#45;&gt;dir_4ab6b4cc6a7edbff49100e9123df213f</title>
<path fill="none" stroke="#000000" d="M189.4672,-431.8314C187.9699,-424.131 186.1895,-414.9743 184.5255,-406.4166"/>
<polygon fill="#000000" stroke="#000000" points="187.9248,-405.5614 182.5804,-396.4133 181.0535,-406.8975 187.9248,-405.5614"/>
<g id="a_edge14&#45;headlabel"><a xlink:href="dir_000478_000027.html" target="_top" xlink:title="14">
<text text-anchor="middle" x="191.3979" y="-406.048" font-family="Helvetica,sans-Serif" font-size="10.00" fill="#000000">14</text>
</a>
</g>
</g>
<!-- dir_5125ceb2b58f632ed0a3019fe2d5cbbc&#45;&gt;dir_85bf31a2e8d306e7598ffcb73f8df6bf -->
<g id="edge15" class="edge">
<title>dir_5125ceb2b58f632ed0a3019fe2d5cbbc&#45;&gt;dir_85bf31a2e8d306e7598ffcb73f8df6bf</title>
<path fill="none" stroke="#000000" d="M167.4948,-431.9627C156.5247,-422.6284 144.8855,-410.2089 139,-396 99.1094,-299.6955 140.8096,-172.6966 162.9988,-117.5369"/>
<polygon fill="#000000" stroke="#000000" points="166.3149,-118.6762 166.8909,-108.097 159.8434,-116.0079 166.3149,-118.6762"/>
<g id="a_edge15&#45;headlabel"><a xlink:href="dir_000478_000061.html" target="_top" xlink:title="10">
<text text-anchor="middle" x="167.5697" y="-120.5817" font-family="Helvetica,sans-Serif" font-size="10.00" fill="#000000">10</text>
</a>
</g>
</g>
<!-- dir_5125ceb2b58f632ed0a3019fe2d5cbbc&#45;&gt;dir_2171f7ec022c5423887b07c69b2f5b48 -->
<g id="edge16" class="edge">
<title>dir_5125ceb2b58f632ed0a3019fe2d5cbbc&#45;&gt;dir_2171f7ec022c5423887b07c69b2f5b48</title>
<path fill="none" stroke="#000000" d="M233.3238,-431.9259C272.5769,-411.8551 329.8748,-375.3719 355,-324 377.2921,-278.4206 351.1015,-254.454 318,-216 308.1345,-204.5392 295.3673,-194.1979 283.1724,-185.7052"/>
<polygon fill="#000000" stroke="#000000" points="285.1178,-182.7957 274.8638,-180.13 281.2174,-188.6084 285.1178,-182.7957"/>
<g id="a_edge16&#45;headlabel"><a xlink:href="dir_000478_000076.html" target="_top" xlink:title="25">
<text text-anchor="middle" x="289.6847" y="-179.9409" font-family="Helvetica,sans-Serif" font-size="10.00" fill="#000000">25</text>
</a>
</g>
</g>
<!-- dir_beaad5fa58c175f2fa05fab7e2ac7ba4&#45;&gt;dir_4ab6b4cc6a7edbff49100e9123df213f -->
<g id="edge17" class="edge">
<title>dir_beaad5fa58c175f2fa05fab7e2ac7ba4&#45;&gt;dir_4ab6b4cc6a7edbff49100e9123df213f</title>
<path fill="none" stroke="#000000" d="M240.2064,-252.0896C228.1477,-276.8962 206.3766,-321.6824 192.314,-350.6113"/>
<polygon fill="#000000" stroke="#000000" points="189.0897,-349.2384 187.8655,-359.7623 195.3853,-352.2988 189.0897,-349.2384"/>
<g id="a_edge17&#45;headlabel"><a xlink:href="dir_000045_000027.html" target="_top" xlink:title="7">
<text text-anchor="middle" x="188.1077" y="-342.2643" font-family="Helvetica,sans-Serif" font-size="10.00" fill="#000000">7</text>
</a>
</g>
</g>
<!-- dir_beaad5fa58c175f2fa05fab7e2ac7ba4&#45;&gt;dir_85bf31a2e8d306e7598ffcb73f8df6bf -->
<g id="edge18" class="edge">
<title>dir_beaad5fa58c175f2fa05fab7e2ac7ba4&#45;&gt;dir_85bf31a2e8d306e7598ffcb73f8df6bf</title>
<path fill="none" stroke="#000000" d="M224.8993,-215.914C213.8668,-206.4021 201.5885,-193.8473 194,-180 183.607,-161.035 178.8928,-136.9498 176.7576,-118.4684"/>
<polygon fill="#000000" stroke="#000000" points="180.2221,-117.9318 175.7751,-108.3155 173.2547,-118.6062 180.2221,-117.9318"/>
<g id="a_edge18&#45;headlabel"><a xlink:href="dir_000045_000061.html" target="_top" xlink:title="1">
<text text-anchor="middle" x="183.3944" y="-118.7363" font-family="Helvetica,sans-Serif" font-size="10.00" fill="#000000">1</text>
</a>
</g>
</g>
<!-- dir_beaad5fa58c175f2fa05fab7e2ac7ba4&#45;&gt;dir_f511f1e9c03c071966ae594f00bbc5e0 -->
<g id="edge19" class="edge">
<title>dir_beaad5fa58c175f2fa05fab7e2ac7ba4&#45;&gt;dir_f511f1e9c03c071966ae594f00bbc5e0</title>
<path fill="none" stroke="#000000" d="M272.6101,-252.1628C281.7308,-260.6891 291.9389,-271.0016 300.5212,-280.3099"/>
<polygon fill="#000000" stroke="#000000" points="297.998,-282.7384 307.2884,-287.8314 303.2018,-278.0564 297.998,-282.7384"/>
<g id="a_edge19&#45;headlabel"><a xlink:href="dir_000045_000672.html" target="_top" xlink:title="24">
<text text-anchor="middle" x="293.4831" y="-279.4652" font-family="Helvetica,sans-Serif" font-size="10.00" fill="#000000">24</text>
</a>
</g>
</g>
<!-- dir_beaad5fa58c175f2fa05fab7e2ac7ba4&#45;&gt;dir_2171f7ec022c5423887b07c69b2f5b48 -->
<g id="edge20" class="edge">
<title>dir_beaad5fa58c175f2fa05fab7e2ac7ba4&#45;&gt;dir_2171f7ec022c5423887b07c69b2f5b48</title>
<path fill="none" stroke="#000000" d="M247.4859,-215.8314C246.8442,-208.131 246.0812,-198.9743 245.3681,-190.4166"/>
<polygon fill="#000000" stroke="#000000" points="248.8529,-190.088 244.5344,-180.4133 241.8771,-190.6694 248.8529,-190.088"/>
<g id="a_edge20&#45;headlabel"><a xlink:href="dir_000045_000076.html" target="_top" xlink:title="15">
<text text-anchor="middle" x="251.9808" y="-190.9345" font-family="Helvetica,sans-Serif" font-size="10.00" fill="#000000">15</text>
</a>
</g>
</g>
<!-- dir_f511f1e9c03c071966ae594f00bbc5e0&#45;&gt;dir_4ab6b4cc6a7edbff49100e9123df213f -->
<g id="edge21" class="edge">
<title>dir_f511f1e9c03c071966ae594f00bbc5e0&#45;&gt;dir_4ab6b4cc6a7edbff49100e9123df213f</title>
<path fill="none" stroke="#000000" d="M291.7522,-323.0138C271.0099,-334.2995 242.303,-349.0724 218.9879,-360.4635"/>
<polygon fill="#000000" stroke="#000000" points="217.17,-357.4549 209.693,-364.9613 220.2191,-363.756 217.17,-357.4549"/>
<g id="a_edge21&#45;headlabel"><a xlink:href="dir_000672_000027.html" target="_top" xlink:title="2">
<text text-anchor="middle" x="219.1689" y="-350.8335" font-family="Helvetica,sans-Serif" font-size="10.00" fill="#000000">2</text>
</a>
</g>
</g>
<!-- dir_f511f1e9c03c071966ae594f00bbc5e0&#45;&gt;dir_beaad5fa58c175f2fa05fab7e2ac7ba4 -->
<g id="edge22" class="edge">
<title>dir_f511f1e9c03c071966ae594f00bbc5e0&#45;&gt;dir_beaad5fa58c175f2fa05fab7e2ac7ba4</title>
<path fill="none" stroke="#000000" d="M295.3837,-287.8314C286.3321,-279.3694 276.2103,-269.1489 267.6698,-259.8971"/>
<polygon fill="#000000" stroke="#000000" points="270.2202,-257.499 260.9258,-252.4133 265.0201,-262.185 270.2202,-257.499"/>
<g id="a_edge22&#45;headlabel"><a xlink:href="dir_000672_000045.html" target="_top" xlink:title="7">
<text text-anchor="middle" x="274.7357" y="-255.7686" font-family="Helvetica,sans-Serif" font-size="10.00" fill="#000000">7</text>
</a>
</g>
</g>
<!-- dir_f511f1e9c03c071966ae594f00bbc5e0&#45;&gt;dir_2171f7ec022c5423887b07c69b2f5b48 -->
<g id="edge23" class="edge">
<title>dir_f511f1e9c03c071966ae594f00bbc5e0&#45;&gt;dir_2171f7ec022c5423887b07c69b2f5b48</title>
<path fill="none" stroke="#000000" d="M307.401,-287.667C299.7943,-268.9335 290.1261,-239.3586 277,-216 271.6281,-206.4404 264.603,-196.8159 258.2037,-188.3941"/>
<polygon fill="#000000" stroke="#000000" points="260.9562,-186.2317 252.0974,-180.4202 255.3985,-190.4877 260.9562,-186.2317"/>
<g id="a_edge23&#45;headlabel"><a xlink:href="dir_000672_000076.html" target="_top" xlink:title="12">
<text text-anchor="middle" x="265.3958" y="-184.8594" font-family="Helvetica,sans-Serif" font-size="10.00" fill="#000000">12</text>
</a>
</g>
</g>
<!-- dir_bcbb2cf9a3d3d83e5515c82071a07177&#45;&gt;dir_4ab6b4cc6a7edbff49100e9123df213f -->
<g id="edge24" class="edge">
<title>dir_bcbb2cf9a3d3d83e5515c82071a07177&#45;&gt;dir_4ab6b4cc6a7edbff49100e9123df213f</title>
<path fill="none" stroke="#000000" d="M186.749,-36.1623C170.1266,-47.7859 149.8256,-62.4279 145,-72 97.8249,-165.5761 147.6809,-294.5139 169.9572,-350.3628"/>
<polygon fill="#000000" stroke="#000000" points="166.8113,-351.9229 173.7661,-359.9154 173.3134,-349.3303 166.8113,-351.9229"/>
<g id="a_edge24&#45;headlabel"><a xlink:href="dir_000013_000027.html" target="_top" xlink:title="8">
<text text-anchor="middle" x="162.8426" y="-347.1355" font-family="Helvetica,sans-Serif" font-size="10.00" fill="#000000">8</text>
</a>
</g>
</g>
<!-- dir_bcbb2cf9a3d3d83e5515c82071a07177&#45;&gt;dir_2171f7ec022c5423887b07c69b2f5b48 -->
<g id="edge25" class="edge">
<title>dir_bcbb2cf9a3d3d83e5515c82071a07177&#45;&gt;dir_2171f7ec022c5423887b07c69b2f5b48</title>
<path fill="none" stroke="#000000" d="M217.9295,-36.0896C226.2151,-60.6805 236.9321,-104.905 241.8379,-133.8531"/>
<polygon fill="#000000" stroke="#000000" points="238.3828,-134.4131 243.367,-143.7623 245.3009,-133.3455 238.3828,-134.4131"/>
<g id="a_edge25&#45;headlabel"><a xlink:href="dir_000013_000076.html" target="_top" xlink:title="82">
<text text-anchor="middle" x="235.0286" y="-128.7935" font-family="Helvetica,sans-Serif" font-size="10.00" fill="#000000">82</text>
</a>
</g>
</g>
<!-- dir_2171f7ec022c5423887b07c69b2f5b48&#45;&gt;dir_4ab6b4cc6a7edbff49100e9123df213f -->
<g id="edge26" class="edge">
<title>dir_2171f7ec022c5423887b07c69b2f5b48&#45;&gt;dir_4ab6b4cc6a7edbff49100e9123df213f</title>
<path fill="none" stroke="#000000" d="M238.5277,-180.2631C233.1563,-190.3985 225.7351,-203.4598 221,-216 203.8911,-261.3097 194.9992,-317.2712 188.3479,-350.1574"/>
<polygon fill="#000000" stroke="#000000" points="184.9155,-349.472 186.2596,-359.9812 191.7625,-350.9276 184.9155,-349.472"/>
<g id="a_edge26&#45;headlabel"><a xlink:href="dir_000076_000027.html" target="_top" xlink:title="34">
<text text-anchor="middle" x="182.8857" y="-342.8656" font-family="Helvetica,sans-Serif" font-size="10.00" fill="#000000">34</text>
</a>
</g>
</g>
<!-- dir_2171f7ec022c5423887b07c69b2f5b48&#45;&gt;dir_85bf31a2e8d306e7598ffcb73f8df6bf -->
<g id="edge27" class="edge">
<title>dir_2171f7ec022c5423887b07c69b2f5b48&#45;&gt;dir_85bf31a2e8d306e7598ffcb73f8df6bf</title>
<path fill="none" stroke="#000000" d="M219.8883,-143.8314C211.16,-135.454 201.4306,-125.3531 193.1994,-116.1749"/>
<polygon fill="#000000" stroke="#000000" points="195.631,-113.6386 186.4143,-108.4133 190.3608,-118.2457 195.631,-113.6386"/>
<g id="a_edge27&#45;headlabel"><a xlink:href="dir_000076_000061.html" target="_top" xlink:title="1">
<text text-anchor="middle" x="200.1344" y="-111.9762" font-family="Helvetica,sans-Serif" font-size="10.00" fill="#000000">1</text>
</a>
</g>
</g>
<!-- dir_2171f7ec022c5423887b07c69b2f5b48&#45;&gt;dir_f511f1e9c03c071966ae594f00bbc5e0 -->
<g id="edge28" class="edge">
<title>dir_2171f7ec022c5423887b07c69b2f5b48&#45;&gt;dir_f511f1e9c03c071966ae594f00bbc5e0</title>
<path fill="none" stroke="#000000" d="M268.1492,-180.4202C277.7359,-190.3924 287.8375,-203.2539 295,-216 305.9726,-235.5263 314.5288,-259.3966 318.869,-277.6465"/>
<polygon fill="#000000" stroke="#000000" points="315.4862,-278.5738 320.9236,-287.667 322.3435,-277.1677 315.4862,-278.5738"/>
<g id="a_edge28&#45;headlabel"><a xlink:href="dir_000076_000672.html" target="_top" xlink:title="14">
<text text-anchor="middle" x="311.9828" y="-273.1227" font-family="Helvetica,sans-Serif" font-size="10.00" fill="#000000">14</text>
</a>
</g>
</g>
<!-- dir_2171f7ec022c5423887b07c69b2f5b48&#45;&gt;dir_bcbb2cf9a3d3d83e5515c82071a07177 -->
<g id="edge29" class="edge">
<title>dir_2171f7ec022c5423887b07c69b2f5b48&#45;&gt;dir_bcbb2cf9a3d3d83e5515c82071a07177</title>
<path fill="none" stroke="#000000" d="M234.0207,-143.7623C225.7617,-119.201 215.109,-75.2474 210.1973,-46.3541"/>
<polygon fill="#000000" stroke="#000000" points="213.5975,-45.4386 208.6129,-36.0896 206.6794,-46.5065 213.5975,-45.4386"/>
<g id="a_edge29&#45;headlabel"><a xlink:href="dir_000076_000013.html" target="_top" xlink:title="7">
<text text-anchor="middle" x="216.9518" y="-46.058" font-family="Helvetica,sans-Serif" font-size="10.00" fill="#000000">7</text>
</a>
</g>
</g>
</g>
</svg>
        <g id="navigator" transform="translate(0 0)" fill="#404254">
                <rect fill="#f2f5e9" fill-opacity="0.5" stroke="#606060" stroke-width=".5" x="0" y="0" width="60" height="60"/>
                <use id="zoomplus" xlink:href="#zoomPlus" x="17" y="9" onmousedown="handleZoom(evt,'in')"/>
                <use id="zoomminus" xlink:href="#zoomMin" x="42" y="9" onmousedown="handleZoom(evt,'out')"/>
                <use id="reset" xlink:href="#resetDef" x="30" y="36" onmousedown="handleReset()"/>
                <g id="arrowUp" xlink:href="#dirArrow" transform="translate(30 24)" onmousedown="handlePan(0,-1)">
                  <use xlink:href="#rim" fill="#404040">
                        <set attributeName="fill" to="#808080" begin="arrowUp.mouseover" end="arrowUp.mouseout"/>
                  </use>
                  <path fill="none" stroke="white" stroke-width="1.5" d="M0,-3.0v7 M-2.5,-0.5L0,-3.0L2.5,-0.5"/>
                </g>
                <g id="arrowRight" xlink:href="#dirArrow" transform="rotate(90) translate(36 -43)" onmousedown="handlePan(1,0)">
                  <use xlink:href="#rim" fill="#404040">
                        <set attributeName="fill" to="#808080" begin="arrowRight.mouseover" end="arrowRight.mouseout"/>
                  </use>
                  <path fill="none" stroke="white" stroke-width="1.5" d="M0,-3.0v7 M-2.5,-0.5L0,-3.0L2.5,-0.5"/>
                </g>
                <g id="arrowDown" xlink:href="#dirArrow" transform="rotate(180) translate(-30 -48)" onmousedown="handlePan(0,1)">
                  <use xlink:href="#rim" fill="#404040">
                        <set attributeName="fill" to="#808080" begin="arrowDown.mouseover" end="arrowDown.mouseout"/>
                  </use>
                  <path fill="none" stroke="white" stroke-width="1.5" d="M0,-3.0v7 M-2.5,-0.5L0,-3.0L2.5,-0.5"/>
                </g>
                <g id="arrowLeft" xlink:href="#dirArrow" transform="rotate(270) translate(-36 17)" onmousedown="handlePan(-1,0)">
                  <use xlink:href="#rim" fill="#404040">
                        <set attributeName="fill" to="#808080" begin="arrowLeft.mouseover" end="arrowLeft.mouseout"/>
                  </use>
                  <path fill="none" stroke="white" stroke-width="1.5" d="M0,-3.0v7 M-2.5,-0.5L0,-3.0L2.5,-0.5"/>
                </g>
        </g>
        <svg viewBox="0 0 15 15" width="100%" height="30px" preserveAspectRatio="xMaxYMin meet">
         <g id="arrow_out" transform="scale(0.3 0.3)">
          <a xlink:href="dir_2c40afba594fde3eef37ddd5abe3c060_dep_org.svg" target="_base">
           <rect id="button" ry="5" rx="5" y="6" x="6" height="38" width="38"
                fill="#f2f5e9" fill-opacity="0.5" stroke="#606060" stroke-width="1.0"/>
           <path id="arrow"
             d="M 11.500037,31.436501 C 11.940474,20.09759 22.043105,11.32322 32.158766,21.979434 L 37.068811,17.246167 C 37.068811,17.246167 37.088388,32 37.088388,32 L 22.160133,31.978069 C 22.160133,31.978069 26.997745,27.140456 26.997745,27.140456 C 18.528582,18.264221 13.291696,25.230495 11.500037,31.436501 z"
             style="fill:#404040;"/>
          </a>
         </g>
        </svg>
</svg>
