<?xml version="1.0" encoding="UTF-8" standalone="no"?>
<!DOCTYPE svg PUBLIC "-//W3C//DTD SVG 1.1//EN"
 "http://www.w3.org/Graphics/SVG/1.1/DTD/svg11.dtd">
<!-- Generated by graphviz version 2.40.1 (20161225.0304)
 -->
<!-- Title: /home/travis/build/AliceO2Group/AliceO2/Detectors/ITSMFT/ITS/tracking Pages: 1 -->
<svg width="448pt" height="447pt"
 viewBox="0.00 0.00 448.00 447.00" xmlns="http://www.w3.org/2000/svg" xmlns:xlink="http://www.w3.org/1999/xlink">
<g id="graph0" class="graph" transform="scale(1 1) rotate(0) translate(4 443)">
<title>/home/travis/build/AliceO2Group/AliceO2/Detectors/ITSMFT/ITS/tracking</title>
<g id="clust1" class="cluster">
<title>clusterdir_871aad07cbf94d6cd423c3d8d5bdf4e9</title>
<g id="a_clust1"><a xlink:href="dir_871aad07cbf94d6cd423c3d8d5bdf4e9.html" target="_top" xlink:title="ITS">
<polygon fill="#ddddee" stroke="#000000" points="8,-272 8,-431 312,-431 312,-272 8,-272"/>
<text text-anchor="middle" x="160" y="-419" font-family="Helvetica,sans-Serif" font-size="10.00" fill="#000000">ITS</text>
</a>
</g>
</g>
<g id="clust2" class="cluster">
<title>clusterdir_beaad5fa58c175f2fa05fab7e2ac7ba4</title>
<g id="a_clust2"><a xlink:href="dir_beaad5fa58c175f2fa05fab7e2ac7ba4.html" target="_top">
<polygon fill="#eeeeff" stroke="#000000" points="16,-280 16,-404 304,-404 304,-280 16,-280"/>
</a>
</g>
</g>
<!-- dir_beaad5fa58c175f2fa05fab7e2ac7ba4 -->
<g id="node1" class="node">
<title>dir_beaad5fa58c175f2fa05fab7e2ac7ba4</title>
<text text-anchor="middle" x="268" y="-375.5" font-family="Helvetica,sans-Serif" font-size="10.00" fill="#000000">tracking</text>
</g>
<!-- dir_137c8287a1d8b04d8ba0df0480706c08 -->
<g id="node2" class="node">
<title>dir_137c8287a1d8b04d8ba0df0480706c08</title>
<g id="a_node2"><a xlink:href="dir_137c8287a1d8b04d8ba0df0480706c08.html" target="_top" xlink:title="cuda">
<polygon fill="#ffffff" stroke="#ff0000" points="150,-396 96,-396 96,-360 150,-360 150,-396"/>
<text text-anchor="middle" x="123" y="-375.5" font-family="Helvetica,sans-Serif" font-size="10.00" fill="#000000">cuda</text>
</a>
</g>
</g>
<!-- dir_6ff49626c189e19df9a205eb87521670 -->
<g id="node4" class="node">
<title>dir_6ff49626c189e19df9a205eb87521670</title>
<g id="a_node4"><a xlink:href="dir_6ff49626c189e19df9a205eb87521670.html" target="_top" xlink:title="include">
<polygon fill="#ffffff" stroke="#ff0000" points="222,-324 168,-324 168,-288 222,-288 222,-324"/>
<text text-anchor="middle" x="195" y="-303.5" font-family="Helvetica,sans-Serif" font-size="10.00" fill="#000000">include</text>
</a>
</g>
</g>
<!-- dir_137c8287a1d8b04d8ba0df0480706c08&#45;&gt;dir_6ff49626c189e19df9a205eb87521670 -->
<g id="edge11" class="edge">
<title>dir_137c8287a1d8b04d8ba0df0480706c08&#45;&gt;dir_6ff49626c189e19df9a205eb87521670</title>
<path fill="none" stroke="#000000" d="M141.1686,-359.8314C149.7152,-351.2848 160.0557,-340.9443 169.3802,-331.6198"/>
<polygon fill="#000000" stroke="#000000" points="171.9905,-333.9592 176.5867,-324.4133 167.0408,-329.0095 171.9905,-333.9592"/>
<g id="a_edge11&#45;headlabel"><a xlink:href="dir_000046_000108.html" target="_top" xlink:title="30">
<text text-anchor="middle" x="171.4564" y="-336.0087" font-family="Helvetica,sans-Serif" font-size="10.00" fill="#000000">30</text>
</a>
</g>
</g>
<!-- dir_f511f1e9c03c071966ae594f00bbc5e0 -->
<g id="node9" class="node">
<title>dir_f511f1e9c03c071966ae594f00bbc5e0</title>
<g id="a_node9"><a xlink:href="dir_f511f1e9c03c071966ae594f00bbc5e0.html" target="_top" xlink:title="GPU">
<polygon fill="none" stroke="#ff0000" points="374,-324 320,-324 320,-288 374,-288 374,-324"/>
<text text-anchor="middle" x="347" y="-303.5" font-family="Helvetica,sans-Serif" font-size="10.00" fill="#000000">GPU</text>
</a>
</g>
</g>
<!-- dir_137c8287a1d8b04d8ba0df0480706c08&#45;&gt;dir_f511f1e9c03c071966ae594f00bbc5e0 -->
<g id="edge12" class="edge">
<title>dir_137c8287a1d8b04d8ba0df0480706c08&#45;&gt;dir_f511f1e9c03c071966ae594f00bbc5e0</title>
<path fill="none" stroke="#000000" d="M150.2338,-363.5836C153.1536,-362.2796 156.1122,-361.0553 159,-360 222.9889,-336.6163 243.6536,-346.3814 308,-324 308.7131,-323.752 309.4309,-323.4954 310.1517,-323.2313"/>
<polygon fill="#000000" stroke="#000000" points="311.591,-326.4253 319.578,-319.4641 308.9932,-319.9252 311.591,-326.4253"/>
<g id="a_edge12&#45;headlabel"><a xlink:href="dir_000046_000672.html" target="_top" xlink:title="3">
<text text-anchor="middle" x="309.3067" y="-327.8958" font-family="Helvetica,sans-Serif" font-size="10.00" fill="#000000">3</text>
</a>
</g>
</g>
<!-- dir_c6c9dd9e431447af5b29845bcb152c05 -->
<g id="node3" class="node">
<title>dir_c6c9dd9e431447af5b29845bcb152c05</title>
<g id="a_node3"><a xlink:href="dir_c6c9dd9e431447af5b29845bcb152c05.html" target="_top" xlink:title="hip">
<polygon fill="#ffffff" stroke="#ff0000" points="78,-396 24,-396 24,-360 78,-360 78,-396"/>
<text text-anchor="middle" x="51" y="-375.5" font-family="Helvetica,sans-Serif" font-size="10.00" fill="#000000">hip</text>
</a>
</g>
</g>
<!-- dir_c6c9dd9e431447af5b29845bcb152c05&#45;&gt;dir_6ff49626c189e19df9a205eb87521670 -->
<g id="edge6" class="edge">
<title>dir_c6c9dd9e431447af5b29845bcb152c05&#45;&gt;dir_6ff49626c189e19df9a205eb87521670</title>
<path fill="none" stroke="#000000" d="M78.0853,-364.4574C100.7693,-353.1153 133.3567,-336.8217 158.3681,-324.316"/>
<polygon fill="#000000" stroke="#000000" points="160.1675,-327.3294 167.5466,-319.7267 157.037,-321.0684 160.1675,-327.3294"/>
<g id="a_edge6&#45;headlabel"><a xlink:href="dir_000487_000108.html" target="_top" xlink:title="15">
<text text-anchor="middle" x="158.2222" y="-328.9764" font-family="Helvetica,sans-Serif" font-size="10.00" fill="#000000">15</text>
</a>
</g>
</g>
<!-- dir_c6c9dd9e431447af5b29845bcb152c05&#45;&gt;dir_f511f1e9c03c071966ae594f00bbc5e0 -->
<g id="edge7" class="edge">
<title>dir_c6c9dd9e431447af5b29845bcb152c05&#45;&gt;dir_f511f1e9c03c071966ae594f00bbc5e0</title>
<path fill="none" stroke="#000000" d="M78.156,-363.3575C81.091,-362.0976 84.0744,-360.9454 87,-360 181.6951,-329.3988 212.8384,-353.1184 308,-324 308.722,-323.7791 309.4479,-323.5475 310.1762,-323.3064"/>
<polygon fill="#000000" stroke="#000000" points="311.5402,-326.5328 319.6663,-319.7343 309.0743,-319.9815 311.5402,-326.5328"/>
<g id="a_edge7&#45;headlabel"><a xlink:href="dir_000487_000672.html" target="_top" xlink:title="7">
<text text-anchor="middle" x="309.1762" y="-327.9562" font-family="Helvetica,sans-Serif" font-size="10.00" fill="#000000">7</text>
</a>
</g>
</g>
<!-- dir_4ab6b4cc6a7edbff49100e9123df213f -->
<g id="node7" class="node">
<title>dir_4ab6b4cc6a7edbff49100e9123df213f</title>
<g id="a_node7"><a xlink:href="dir_4ab6b4cc6a7edbff49100e9123df213f.html" target="_top" xlink:title="Common">
<polygon fill="none" stroke="#ff0000" points="313.5,-252 252.5,-252 252.5,-216 313.5,-216 313.5,-252"/>
<text text-anchor="middle" x="283" y="-231.5" font-family="Helvetica,sans-Serif" font-size="10.00" fill="#000000">Common</text>
</a>
</g>
</g>
<!-- dir_6ff49626c189e19df9a205eb87521670&#45;&gt;dir_4ab6b4cc6a7edbff49100e9123df213f -->
<g id="edge13" class="edge">
<title>dir_6ff49626c189e19df9a205eb87521670&#45;&gt;dir_4ab6b4cc6a7edbff49100e9123df213f</title>
<path fill="none" stroke="#000000" d="M217.2061,-287.8314C228.045,-278.9632 241.2444,-268.1637 252.9678,-258.5718"/>
<polygon fill="#000000" stroke="#000000" points="255.2777,-261.2041 260.801,-252.1628 250.845,-255.7864 255.2777,-261.2041"/>
<g id="a_edge13&#45;headlabel"><a xlink:href="dir_000108_000027.html" target="_top" xlink:title="3">
<text text-anchor="middle" x="254.2936" y="-263.1778" font-family="Helvetica,sans-Serif" font-size="10.00" fill="#000000">3</text>
</a>
</g>
</g>
<!-- dir_85bf31a2e8d306e7598ffcb73f8df6bf -->
<g id="node8" class="node">
<title>dir_85bf31a2e8d306e7598ffcb73f8df6bf</title>
<g id="a_node8"><a xlink:href="dir_85bf31a2e8d306e7598ffcb73f8df6bf.html" target="_top" xlink:title="common">
<polygon fill="none" stroke="#ff0000" points="293.5,-108 234.5,-108 234.5,-72 293.5,-72 293.5,-108"/>
<text text-anchor="middle" x="264" y="-87.5" font-family="Helvetica,sans-Serif" font-size="10.00" fill="#000000">common</text>
</a>
</g>
</g>
<!-- dir_6ff49626c189e19df9a205eb87521670&#45;&gt;dir_85bf31a2e8d306e7598ffcb73f8df6bf -->
<g id="edge14" class="edge">
<title>dir_6ff49626c189e19df9a205eb87521670&#45;&gt;dir_85bf31a2e8d306e7598ffcb73f8df6bf</title>
<path fill="none" stroke="#000000" d="M198.1892,-287.8616C201.6072,-269.5351 207.5596,-240.5052 215,-216 225.5348,-181.3033 241.1999,-142.596 251.9665,-117.3551"/>
<polygon fill="#000000" stroke="#000000" points="255.2303,-118.6251 255.9717,-108.0562 248.8013,-115.856 255.2303,-118.6251"/>
<g id="a_edge14&#45;headlabel"><a xlink:href="dir_000108_000061.html" target="_top" xlink:title="1">
<text text-anchor="middle" x="256.4161" y="-120.5496" font-family="Helvetica,sans-Serif" font-size="10.00" fill="#000000">1</text>
</a>
</g>
</g>
<!-- dir_6ff49626c189e19df9a205eb87521670&#45;&gt;dir_f511f1e9c03c071966ae594f00bbc5e0 -->
<g id="edge15" class="edge">
<title>dir_6ff49626c189e19df9a205eb87521670&#45;&gt;dir_f511f1e9c03c071966ae594f00bbc5e0</title>
<path fill="none" stroke="#000000" d="M222.0156,-306C251.1308,-306 280.2461,-306 309.3613,-306"/>
<polygon fill="#000000" stroke="#000000" points="309.6597,-309.5001 319.6597,-306 309.6596,-302.5001 309.6597,-309.5001"/>
<g id="a_edge15&#45;headlabel"><a xlink:href="dir_000108_000672.html" target="_top" xlink:title="12">
<text text-anchor="middle" x="306.0651" y="-309.8393" font-family="Helvetica,sans-Serif" font-size="10.00" fill="#000000">12</text>
</a>
</g>
</g>
<!-- dir_2171f7ec022c5423887b07c69b2f5b48 -->
<g id="node10" class="node">
<title>dir_2171f7ec022c5423887b07c69b2f5b48</title>
<g id="a_node10"><a xlink:href="dir_2171f7ec022c5423887b07c69b2f5b48.html" target="_top" xlink:title="DataFormats">
<polygon fill="none" stroke="#ff0000" points="362,-180 282,-180 282,-144 362,-144 362,-180"/>
<text text-anchor="middle" x="322" y="-159.5" font-family="Helvetica,sans-Serif" font-size="10.00" fill="#000000">DataFormats</text>
</a>
</g>
</g>
<!-- dir_6ff49626c189e19df9a205eb87521670&#45;&gt;dir_2171f7ec022c5423887b07c69b2f5b48 -->
<g id="edge16" class="edge">
<title>dir_6ff49626c189e19df9a205eb87521670&#45;&gt;dir_2171f7ec022c5423887b07c69b2f5b48</title>
<path fill="none" stroke="#000000" d="M201.8819,-287.8933C209.8758,-268.5362 224.5014,-237.7046 244,-216 254.374,-204.4523 267.6818,-194.0881 280.3571,-185.6012"/>
<polygon fill="#000000" stroke="#000000" points="282.4813,-188.396 288.9874,-180.034 278.6867,-182.5136 282.4813,-188.396"/>
<g id="a_edge16&#45;headlabel"><a xlink:href="dir_000108_000076.html" target="_top" xlink:title="8">
<text text-anchor="middle" x="280.9997" y="-190.2304" font-family="Helvetica,sans-Serif" font-size="10.00" fill="#000000">8</text>
</a>
</g>
</g>
<!-- dir_3015947259d5079adc65548fafc3ce3c -->
<g id="node5" class="node">
<title>dir_3015947259d5079adc65548fafc3ce3c</title>
<g id="a_node5"><a xlink:href="dir_3015947259d5079adc65548fafc3ce3c.html" target="_top" xlink:title="src">
<polygon fill="#ffffff" stroke="#000000" points="222,-396 168,-396 168,-360 222,-360 222,-396"/>
<text text-anchor="middle" x="195" y="-375.5" font-family="Helvetica,sans-Serif" font-size="10.00" fill="#000000">src</text>
</a>
</g>
</g>
<!-- dir_3015947259d5079adc65548fafc3ce3c&#45;&gt;dir_6ff49626c189e19df9a205eb87521670 -->
<g id="edge22" class="edge">
<title>dir_3015947259d5079adc65548fafc3ce3c&#45;&gt;dir_6ff49626c189e19df9a205eb87521670</title>
<path fill="none" stroke="#000000" d="M195,-359.8314C195,-352.131 195,-342.9743 195,-334.4166"/>
<polygon fill="#000000" stroke="#000000" points="198.5001,-334.4132 195,-324.4133 191.5001,-334.4133 198.5001,-334.4132"/>
<g id="a_edge22&#45;headlabel"><a xlink:href="dir_000148_000108.html" target="_top" xlink:title="45">
<text text-anchor="middle" x="201.3393" y="-335.5079" font-family="Helvetica,sans-Serif" font-size="10.00" fill="#000000">45</text>
</a>
</g>
</g>
<!-- dir_eedff867f3c4e67d20b227cb6e0f96ab -->
<g id="node6" class="node">
<title>dir_eedff867f3c4e67d20b227cb6e0f96ab</title>
<g id="a_node6"><a xlink:href="dir_eedff867f3c4e67d20b227cb6e0f96ab.html" target="_top" xlink:title="base">
<polygon fill="none" stroke="#ff0000" points="291,-36 237,-36 237,0 291,0 291,-36"/>
<text text-anchor="middle" x="264" y="-15.5" font-family="Helvetica,sans-Serif" font-size="10.00" fill="#000000">base</text>
</a>
</g>
</g>
<!-- dir_3015947259d5079adc65548fafc3ce3c&#45;&gt;dir_eedff867f3c4e67d20b227cb6e0f96ab -->
<g id="edge20" class="edge">
<title>dir_3015947259d5079adc65548fafc3ce3c&#45;&gt;dir_eedff867f3c4e67d20b227cb6e0f96ab</title>
<path fill="none" stroke="#000000" d="M222.2012,-363.492C225.1273,-362.2059 228.0963,-361.0108 231,-360 304.7597,-334.3239 342.9411,-373.9268 403,-324 436.2576,-296.353 440,-277.2483 440,-234 440,-234 440,-234 440,-162 440,-90.6032 352.1697,-48.2181 300.6001,-29.4852"/>
<polygon fill="#000000" stroke="#000000" points="301.7091,-26.1652 291.1143,-26.1565 299.3913,-32.7703 301.7091,-26.1652"/>
<g id="a_edge20&#45;headlabel"><a xlink:href="dir_000148_000463.html" target="_top" xlink:title="1">
<text text-anchor="middle" x="306.0411" y="-22.1762" font-family="Helvetica,sans-Serif" font-size="10.00" fill="#000000">1</text>
</a>
</g>
</g>
<!-- dir_3015947259d5079adc65548fafc3ce3c&#45;&gt;dir_4ab6b4cc6a7edbff49100e9123df213f -->
<g id="edge21" class="edge">
<title>dir_3015947259d5079adc65548fafc3ce3c&#45;&gt;dir_4ab6b4cc6a7edbff49100e9123df213f</title>
<path fill="none" stroke="#000000" d="M207.6255,-359.6961C214.6695,-349.3286 223.5075,-336.0587 231,-324 243.9761,-303.1159 257.8695,-278.9681 268.0281,-260.9464"/>
<polygon fill="#000000" stroke="#000000" points="271.1338,-262.5639 272.9754,-252.1303 265.0293,-259.1382 271.1338,-262.5639"/>
<g id="a_edge21&#45;headlabel"><a xlink:href="dir_000148_000027.html" target="_top" xlink:title="4">
<text text-anchor="middle" x="271.8508" y="-264.5881" font-family="Helvetica,sans-Serif" font-size="10.00" fill="#000000">4</text>
</a>
</g>
</g>
<!-- dir_3015947259d5079adc65548fafc3ce3c&#45;&gt;dir_f511f1e9c03c071966ae594f00bbc5e0 -->
<g id="edge23" class="edge">
<title>dir_3015947259d5079adc65548fafc3ce3c&#45;&gt;dir_f511f1e9c03c071966ae594f00bbc5e0</title>
<path fill="none" stroke="#000000" d="M222.0868,-364.3552C225.0883,-362.8734 228.1052,-361.3972 231,-360 245.8735,-352.8214 282.6028,-335.7645 310.7813,-322.7262"/>
<polygon fill="#000000" stroke="#000000" points="312.3586,-325.853 319.9658,-318.4786 309.4202,-319.4995 312.3586,-325.853"/>
<g id="a_edge23&#45;headlabel"><a xlink:href="dir_000148_000672.html" target="_top" xlink:title="2">
<text text-anchor="middle" x="310.2878" y="-327.4388" font-family="Helvetica,sans-Serif" font-size="10.00" fill="#000000">2</text>
</a>
</g>
</g>
<!-- dir_3015947259d5079adc65548fafc3ce3c&#45;&gt;dir_2171f7ec022c5423887b07c69b2f5b48 -->
<g id="edge24" class="edge">
<title>dir_3015947259d5079adc65548fafc3ce3c&#45;&gt;dir_2171f7ec022c5423887b07c69b2f5b48</title>
<path fill="none" stroke="#000000" d="M222.229,-363.5702C225.1497,-362.2688 228.1098,-361.0488 231,-360 296.2605,-336.3183 339.9363,-378.4543 383,-324 415.704,-282.6456 374.9368,-221.8912 346.0386,-187.7474"/>
<polygon fill="#000000" stroke="#000000" points="348.5655,-185.3195 339.3612,-180.0725 343.2844,-189.9142 348.5655,-185.3195"/>
<g id="a_edge24&#45;headlabel"><a xlink:href="dir_000148_000076.html" target="_top" xlink:title="7">
<text text-anchor="middle" x="353.0669" y="-183.6678" font-family="Helvetica,sans-Serif" font-size="10.00" fill="#000000">7</text>
</a>
</g>
</g>
<!-- dir_eedff867f3c4e67d20b227cb6e0f96ab&#45;&gt;dir_4ab6b4cc6a7edbff49100e9123df213f -->
<g id="edge1" class="edge">
<title>dir_eedff867f3c4e67d20b227cb6e0f96ab&#45;&gt;dir_4ab6b4cc6a7edbff49100e9123df213f</title>
<path fill="none" stroke="#000000" d="M246.7365,-36.4239C238.7611,-46.2003 230.152,-58.8852 226,-72 221.1708,-87.2538 222.6268,-92.3596 226,-108 233.7647,-144.0029 252.691,-182.1013 266.6141,-206.8561"/>
<polygon fill="#000000" stroke="#000000" points="263.6548,-208.7311 271.6716,-215.658 269.7242,-205.2437 263.6548,-208.7311"/>
<g id="a_edge1&#45;headlabel"><a xlink:href="dir_000463_000027.html" target="_top" xlink:title="2">
<text text-anchor="middle" x="259.4022" y="-204.5289" font-family="Helvetica,sans-Serif" font-size="10.00" fill="#000000">2</text>
</a>
</g>
</g>
<!-- dir_eedff867f3c4e67d20b227cb6e0f96ab&#45;&gt;dir_85bf31a2e8d306e7598ffcb73f8df6bf -->
<g id="edge2" class="edge">
<title>dir_eedff867f3c4e67d20b227cb6e0f96ab&#45;&gt;dir_85bf31a2e8d306e7598ffcb73f8df6bf</title>
<path fill="none" stroke="#000000" d="M269.976,-36.4133C270.7071,-44.0593 270.9203,-53.1084 270.6155,-61.5726"/>
<polygon fill="#000000" stroke="#000000" points="267.1048,-61.6264 269.9524,-71.8314 274.0902,-62.078 267.1048,-61.6264"/>
<g id="a_edge2&#45;headlabel"><a xlink:href="dir_000463_000061.html" target="_top" xlink:title="2">
<text text-anchor="middle" x="264.5032" y="-55.3562" font-family="Helvetica,sans-Serif" font-size="10.00" fill="#000000">2</text>
</a>
</g>
</g>
<!-- dir_eedff867f3c4e67d20b227cb6e0f96ab&#45;&gt;dir_2171f7ec022c5423887b07c69b2f5b48 -->
<g id="edge3" class="edge">
<title>dir_eedff867f3c4e67d20b227cb6e0f96ab&#45;&gt;dir_2171f7ec022c5423887b07c69b2f5b48</title>
<path fill="none" stroke="#000000" d="M280.1756,-36.293C288.1637,-46.2304 297.2887,-59.0991 303,-72 311.7004,-91.6528 316.5041,-115.5166 319.1036,-133.7318"/>
<polygon fill="#000000" stroke="#000000" points="315.6425,-134.259 320.3923,-143.7295 322.5851,-133.3641 315.6425,-134.259"/>
<g id="a_edge3&#45;headlabel"><a xlink:href="dir_000463_000076.html" target="_top" xlink:title="1">
<text text-anchor="middle" x="312.3671" y="-128.5568" font-family="Helvetica,sans-Serif" font-size="10.00" fill="#000000">1</text>
</a>
</g>
</g>
<!-- dir_4ab6b4cc6a7edbff49100e9123df213f&#45;&gt;dir_f511f1e9c03c071966ae594f00bbc5e0 -->
<g id="edge4" class="edge">
<title>dir_4ab6b4cc6a7edbff49100e9123df213f&#45;&gt;dir_f511f1e9c03c071966ae594f00bbc5e0</title>
<path fill="none" stroke="#000000" d="M305.3434,-252.4133C313.54,-260.7389 322.6014,-270.7282 330.2458,-279.8144"/>
<polygon fill="#000000" stroke="#000000" points="327.7623,-282.3063 336.8025,-287.8314 333.1809,-277.8747 327.7623,-282.3063"/>
<g id="a_edge4&#45;headlabel"><a xlink:href="dir_000027_000672.html" target="_top" xlink:title="3">
<text text-anchor="middle" x="323.2888" y="-278.8213" font-family="Helvetica,sans-Serif" font-size="10.00" fill="#000000">3</text>
</a>
</g>
</g>
<!-- dir_4ab6b4cc6a7edbff49100e9123df213f&#45;&gt;dir_2171f7ec022c5423887b07c69b2f5b48 -->
<g id="edge5" class="edge">
<title>dir_4ab6b4cc6a7edbff49100e9123df213f&#45;&gt;dir_2171f7ec022c5423887b07c69b2f5b48</title>
<path fill="none" stroke="#000000" d="M286.889,-215.8314C290.4975,-207.7079 295.5733,-197.9637 300.8092,-189.0118"/>
<polygon fill="#000000" stroke="#000000" points="303.8341,-190.7738 306.0501,-180.4133 297.8569,-187.1305 303.8341,-190.7738"/>
<g id="a_edge5&#45;headlabel"><a xlink:href="dir_000027_000076.html" target="_top" xlink:title="2">
<text text-anchor="middle" x="304.3877" y="-192.8209" font-family="Helvetica,sans-Serif" font-size="10.00" fill="#000000">2</text>
</a>
</g>
</g>
<!-- dir_85bf31a2e8d306e7598ffcb73f8df6bf&#45;&gt;dir_eedff867f3c4e67d20b227cb6e0f96ab -->
<g id="edge8" class="edge">
<title>dir_85bf31a2e8d306e7598ffcb73f8df6bf&#45;&gt;dir_eedff867f3c4e67d20b227cb6e0f96ab</title>
<path fill="none" stroke="#000000" d="M258.0476,-71.8314C257.2972,-64.131 257.0763,-54.9743 257.3849,-46.4166"/>
<polygon fill="#000000" stroke="#000000" points="260.8792,-46.6161 258.024,-36.4133 253.8935,-46.1697 260.8792,-46.6161"/>
<g id="a_edge8&#45;headlabel"><a xlink:href="dir_000061_000463.html" target="_top" xlink:title="1">
<text text-anchor="middle" x="263.4836" y="-47.8844" font-family="Helvetica,sans-Serif" font-size="10.00" fill="#000000">1</text>
</a>
</g>
</g>
<!-- dir_85bf31a2e8d306e7598ffcb73f8df6bf&#45;&gt;dir_4ab6b4cc6a7edbff49100e9123df213f -->
<g id="edge9" class="edge">
<title>dir_85bf31a2e8d306e7598ffcb73f8df6bf&#45;&gt;dir_4ab6b4cc6a7edbff49100e9123df213f</title>
<path fill="none" stroke="#000000" d="M265.3818,-108.3255C266.8619,-126.5498 269.4816,-155.2815 273,-180 274.1903,-188.3626 275.7544,-197.4044 277.291,-205.6537"/>
<polygon fill="#000000" stroke="#000000" points="273.8715,-206.4065 279.1925,-215.5683 280.7462,-205.088 273.8715,-206.4065"/>
<g id="a_edge9&#45;headlabel"><a xlink:href="dir_000061_000027.html" target="_top" xlink:title="18">
<text text-anchor="middle" x="270.4061" y="-200.911" font-family="Helvetica,sans-Serif" font-size="10.00" fill="#000000">18</text>
</a>
</g>
</g>
<!-- dir_85bf31a2e8d306e7598ffcb73f8df6bf&#45;&gt;dir_2171f7ec022c5423887b07c69b2f5b48 -->
<g id="edge10" class="edge">
<title>dir_85bf31a2e8d306e7598ffcb73f8df6bf&#45;&gt;dir_2171f7ec022c5423887b07c69b2f5b48</title>
<path fill="none" stroke="#000000" d="M284.8089,-108.4133C292.2352,-116.654 300.3728,-126.5245 307.2167,-135.536"/>
<polygon fill="#000000" stroke="#000000" points="304.5727,-137.8484 313.3165,-143.8314 310.2122,-133.7015 304.5727,-137.8484"/>
<g id="a_edge10&#45;headlabel"><a xlink:href="dir_000061_000076.html" target="_top" xlink:title="56">
<text text-anchor="middle" x="300.1558" y="-134.1345" font-family="Helvetica,sans-Serif" font-size="10.00" fill="#000000">56</text>
</a>
</g>
</g>
<!-- dir_f511f1e9c03c071966ae594f00bbc5e0&#45;&gt;dir_6ff49626c189e19df9a205eb87521670 -->
<g id="edge18" class="edge">
<title>dir_f511f1e9c03c071966ae594f00bbc5e0&#45;&gt;dir_6ff49626c189e19df9a205eb87521670</title>
<path fill="none" stroke="#000000" d="M319.6597,-306C290.5445,-306 261.4292,-306 232.314,-306"/>
<polygon fill="#000000" stroke="#000000" points="232.0157,-302.5001 222.0156,-306 232.0156,-309.5001 232.0157,-302.5001"/>
<g id="a_edge18&#45;headlabel"><a xlink:href="dir_000672_000108.html" target="_top" xlink:title="7">
<text text-anchor="middle" x="235.6102" y="-297.1607" font-family="Helvetica,sans-Serif" font-size="10.00" fill="#000000">7</text>
</a>
</g>
</g>
<!-- dir_f511f1e9c03c071966ae594f00bbc5e0&#45;&gt;dir_4ab6b4cc6a7edbff49100e9123df213f -->
<g id="edge17" class="edge">
<title>dir_f511f1e9c03c071966ae594f00bbc5e0&#45;&gt;dir_4ab6b4cc6a7edbff49100e9123df213f</title>
<path fill="none" stroke="#000000" d="M324.8977,-287.8314C316.6348,-279.454 307.4665,-269.3531 299.7452,-260.1749"/>
<polygon fill="#000000" stroke="#000000" points="302.4341,-257.9341 293.3913,-252.4133 297.0175,-262.3683 302.4341,-257.9341"/>
<g id="a_edge17&#45;headlabel"><a xlink:href="dir_000672_000027.html" target="_top" xlink:title="2">
<text text-anchor="middle" x="306.908" y="-256.4171" font-family="Helvetica,sans-Serif" font-size="10.00" fill="#000000">2</text>
</a>
</g>
</g>
<!-- dir_f511f1e9c03c071966ae594f00bbc5e0&#45;&gt;dir_2171f7ec022c5423887b07c69b2f5b48 -->
<g id="edge19" class="edge">
<title>dir_f511f1e9c03c071966ae594f00bbc5e0&#45;&gt;dir_2171f7ec022c5423887b07c69b2f5b48</title>
<path fill="none" stroke="#000000" d="M339.1606,-287.7623C332.4366,-263.201 324.5311,-219.2474 321.4252,-190.3541"/>
<polygon fill="#000000" stroke="#000000" points="324.8824,-189.7275 320.4823,-180.0896 317.9118,-190.3679 324.8824,-189.7275"/>
<g id="a_edge19&#45;headlabel"><a xlink:href="dir_000672_000076.html" target="_top" xlink:title="12">
<text text-anchor="middle" x="328.0385" y="-190.5474" font-family="Helvetica,sans-Serif" font-size="10.00" fill="#000000">12</text>
</a>
</g>
</g>
<!-- dir_2171f7ec022c5423887b07c69b2f5b48&#45;&gt;dir_4ab6b4cc6a7edbff49100e9123df213f -->
<g id="edge25" class="edge">
<title>dir_2171f7ec022c5423887b07c69b2f5b48&#45;&gt;dir_4ab6b4cc6a7edbff49100e9123df213f</title>
<path fill="none" stroke="#000000" d="M318.0022,-180.4133C314.3643,-188.569 309.2724,-198.3212 304.0334,-207.257"/>
<polygon fill="#000000" stroke="#000000" points="301.0216,-205.4734 298.7937,-215.8314 306.9947,-209.1235 301.0216,-205.4734"/>
<g id="a_edge25&#45;headlabel"><a xlink:href="dir_000076_000027.html" target="_top" xlink:title="34">
<text text-anchor="middle" x="300.4732" y="-198.4257" font-family="Helvetica,sans-Serif" font-size="10.00" fill="#000000">34</text>
</a>
</g>
</g>
<!-- dir_2171f7ec022c5423887b07c69b2f5b48&#45;&gt;dir_85bf31a2e8d306e7598ffcb73f8df6bf -->
<g id="edge26" class="edge">
<title>dir_2171f7ec022c5423887b07c69b2f5b48&#45;&gt;dir_85bf31a2e8d306e7598ffcb73f8df6bf</title>
<path fill="none" stroke="#000000" d="M301.4118,-143.8314C293.9998,-135.6232 285.8566,-125.7606 278.9872,-116.7323"/>
<polygon fill="#000000" stroke="#000000" points="281.6069,-114.3873 272.8569,-108.4133 275.9716,-118.5399 281.6069,-114.3873"/>
<g id="a_edge26&#45;headlabel"><a xlink:href="dir_000076_000061.html" target="_top" xlink:title="1">
<text text-anchor="middle" x="286.025" y="-113.0967" font-family="Helvetica,sans-Serif" font-size="10.00" fill="#000000">1</text>
</a>
</g>
</g>
<!-- dir_2171f7ec022c5423887b07c69b2f5b48&#45;&gt;dir_f511f1e9c03c071966ae594f00bbc5e0 -->
<g id="edge27" class="edge">
<title>dir_2171f7ec022c5423887b07c69b2f5b48&#45;&gt;dir_f511f1e9c03c071966ae594f00bbc5e0</title>
<path fill="none" stroke="#000000" d="M329.7988,-180.0896C336.518,-204.5727 344.4308,-248.5174 347.556,-277.4713"/>
<polygon fill="#000000" stroke="#000000" points="344.1016,-278.1268 348.5069,-287.7623 351.0719,-277.4827 344.1016,-278.1268"/>
<g id="a_edge27&#45;headlabel"><a xlink:href="dir_000076_000672.html" target="_top" xlink:title="14">
<text text-anchor="middle" x="340.9437" y="-272.3086" font-family="Helvetica,sans-Serif" font-size="10.00" fill="#000000">14</text>
</a>
</g>
</g>
</g>
</svg>
