<?xml version="1.0" encoding="UTF-8" standalone="no"?>
<!DOCTYPE svg PUBLIC "-//W3C//DTD SVG 1.1//EN"
 "http://www.w3.org/Graphics/SVG/1.1/DTD/svg11.dtd">
<!-- Generated by graphviz version 2.40.1 (20161225.0304)
 -->
<!-- Title: /home/travis/build/AliceO2Group/AliceO2/Detectors/MUON/MCH/Workflow/src Pages: 1 -->
<svg width="369pt" height="295pt"
 viewBox="0.00 0.00 368.63 295.00" xmlns="http://www.w3.org/2000/svg" xmlns:xlink="http://www.w3.org/1999/xlink">
<g id="graph0" class="graph" transform="scale(1 1) rotate(0) translate(4 291)">
<title>/home/travis/build/AliceO2Group/AliceO2/Detectors/MUON/MCH/Workflow/src</title>
<g id="clust1" class="cluster">
<title>clusterdir_04ece05d7c7fe751e39bd0511b9068fc</title>
<g id="a_clust1"><a xlink:href="dir_04ece05d7c7fe751e39bd0511b9068fc.html" target="_top" xlink:title="Workflow">
<polygon fill="#ddddee" stroke="#000000" points="169,-208 169,-279 239,-279 239,-208 169,-208"/>
<text text-anchor="middle" x="204" y="-267" font-family="Helvetica,sans-Serif" font-size="10.00" fill="#000000">Workflow</text>
</a>
</g>
</g>
<!-- dir_e2a306cbeddc37280b8dde7d223d74dd -->
<g id="node1" class="node">
<title>dir_e2a306cbeddc37280b8dde7d223d74dd</title>
<g id="a_node1"><a xlink:href="dir_e2a306cbeddc37280b8dde7d223d74dd.html" target="_top" xlink:title="src">
<polygon fill="#eeeeff" stroke="#000000" points="231,-252 177,-252 177,-216 231,-216 231,-252"/>
<text text-anchor="middle" x="204" y="-231.5" font-family="Helvetica,sans-Serif" font-size="10.00" fill="#000000">src</text>
</a>
</g>
</g>
<!-- dir_6229e1f1a243f5ed3f0013dfa4f13deb -->
<g id="node2" class="node">
<title>dir_6229e1f1a243f5ed3f0013dfa4f13deb</title>
<g id="a_node2"><a xlink:href="dir_6229e1f1a243f5ed3f0013dfa4f13deb.html" target="_top" xlink:title="PreClustering">
<polygon fill="none" stroke="#ff0000" points="121,-180 39,-180 39,-144 121,-144 121,-180"/>
<text text-anchor="middle" x="80" y="-159.5" font-family="Helvetica,sans-Serif" font-size="10.00" fill="#000000">PreClustering</text>
</a>
</g>
</g>
<!-- dir_e2a306cbeddc37280b8dde7d223d74dd&#45;&gt;dir_6229e1f1a243f5ed3f0013dfa4f13deb -->
<g id="edge3" class="edge">
<title>dir_e2a306cbeddc37280b8dde7d223d74dd&#45;&gt;dir_6229e1f1a243f5ed3f0013dfa4f13deb</title>
<path fill="none" stroke="#000000" d="M176.7877,-218.1993C160.1232,-208.5231 138.5012,-195.9685 119.9218,-185.1804"/>
<polygon fill="#000000" stroke="#000000" points="121.4858,-182.0413 111.0804,-180.0467 117.9708,-188.0949 121.4858,-182.0413"/>
<g id="a_edge3&#45;headlabel"><a xlink:href="dir_000543_000514.html" target="_top" xlink:title="1">
<text text-anchor="middle" x="126.0201" y="-178.8909" font-family="Helvetica,sans-Serif" font-size="10.00" fill="#000000">1</text>
</a>
</g>
</g>
<!-- dir_1155c84989a046e7de4bf0156dc4b34c -->
<g id="node3" class="node">
<title>dir_1155c84989a046e7de4bf0156dc4b34c</title>
<g id="a_node3"><a xlink:href="dir_1155c84989a046e7de4bf0156dc4b34c.html" target="_top" xlink:title="Base">
<polygon fill="none" stroke="#ff0000" points="54,-108 0,-108 0,-72 54,-72 54,-108"/>
<text text-anchor="middle" x="27" y="-87.5" font-family="Helvetica,sans-Serif" font-size="10.00" fill="#000000">Base</text>
</a>
</g>
</g>
<!-- dir_e2a306cbeddc37280b8dde7d223d74dd&#45;&gt;dir_1155c84989a046e7de4bf0156dc4b34c -->
<g id="edge4" class="edge">
<title>dir_e2a306cbeddc37280b8dde7d223d74dd&#45;&gt;dir_1155c84989a046e7de4bf0156dc4b34c</title>
<path fill="none" stroke="#000000" d="M176.8011,-229.4707C132.5119,-221.4894 47.9352,-203.5145 30,-180 16.8004,-162.6943 17.0701,-137.5942 20.0629,-118.2952"/>
<polygon fill="#000000" stroke="#000000" points="23.5423,-118.7293 21.9375,-108.2567 16.6612,-117.4443 23.5423,-118.7293"/>
<g id="a_edge4&#45;headlabel"><a xlink:href="dir_000543_000129.html" target="_top" xlink:title="8">
<text text-anchor="middle" x="25.6735" y="-120.284" font-family="Helvetica,sans-Serif" font-size="10.00" fill="#000000">8</text>
</a>
</g>
</g>
<!-- dir_ade19310a6abca7155cb213ca0a7e06d -->
<g id="node4" class="node">
<title>dir_ade19310a6abca7155cb213ca0a7e06d</title>
<g id="a_node4"><a xlink:href="dir_ade19310a6abca7155cb213ca0a7e06d.html" target="_top" xlink:title="include">
<polygon fill="none" stroke="#ff0000" points="231,-180 177,-180 177,-144 231,-144 231,-180"/>
<text text-anchor="middle" x="204" y="-159.5" font-family="Helvetica,sans-Serif" font-size="10.00" fill="#000000">include</text>
</a>
</g>
</g>
<!-- dir_e2a306cbeddc37280b8dde7d223d74dd&#45;&gt;dir_ade19310a6abca7155cb213ca0a7e06d -->
<g id="edge5" class="edge">
<title>dir_e2a306cbeddc37280b8dde7d223d74dd&#45;&gt;dir_ade19310a6abca7155cb213ca0a7e06d</title>
<path fill="none" stroke="#000000" d="M204,-215.8314C204,-208.131 204,-198.9743 204,-190.4166"/>
<polygon fill="#000000" stroke="#000000" points="207.5001,-190.4132 204,-180.4133 200.5001,-190.4133 207.5001,-190.4132"/>
<g id="a_edge5&#45;headlabel"><a xlink:href="dir_000543_000541.html" target="_top" xlink:title="4">
<text text-anchor="middle" x="210.3393" y="-191.5079" font-family="Helvetica,sans-Serif" font-size="10.00" fill="#000000">4</text>
</a>
</g>
</g>
<!-- dir_bcbb2cf9a3d3d83e5515c82071a07177 -->
<g id="node5" class="node">
<title>dir_bcbb2cf9a3d3d83e5515c82071a07177</title>
<g id="a_node5"><a xlink:href="dir_bcbb2cf9a3d3d83e5515c82071a07177.html" target="_top" xlink:title="Framework">
<polygon fill="none" stroke="#ff0000" points="289.5,-108 218.5,-108 218.5,-72 289.5,-72 289.5,-108"/>
<text text-anchor="middle" x="254" y="-87.5" font-family="Helvetica,sans-Serif" font-size="10.00" fill="#000000">Framework</text>
</a>
</g>
</g>
<!-- dir_e2a306cbeddc37280b8dde7d223d74dd&#45;&gt;dir_bcbb2cf9a3d3d83e5515c82071a07177 -->
<g id="edge6" class="edge">
<title>dir_e2a306cbeddc37280b8dde7d223d74dd&#45;&gt;dir_bcbb2cf9a3d3d83e5515c82071a07177</title>
<path fill="none" stroke="#000000" d="M219.1667,-215.6324C226.6046,-205.6747 235.0143,-192.8101 240,-180 247.6828,-160.2599 251.1586,-136.5356 252.7266,-118.4017"/>
<polygon fill="#000000" stroke="#000000" points="256.2352,-118.407 253.4618,-108.1816 249.2532,-117.9046 256.2352,-118.407"/>
<g id="a_edge6&#45;headlabel"><a xlink:href="dir_000543_000013.html" target="_top" xlink:title="69">
<text text-anchor="middle" x="258.8093" y="-119.696" font-family="Helvetica,sans-Serif" font-size="10.00" fill="#000000">69</text>
</a>
</g>
</g>
<!-- dir_f8de85f281636d081fd2e7e06b0134d2 -->
<g id="node6" class="node">
<title>dir_f8de85f281636d081fd2e7e06b0134d2</title>
<g id="a_node6"><a xlink:href="dir_f8de85f281636d081fd2e7e06b0134d2.html" target="_top" xlink:title="Raw">
<polygon fill="none" stroke="#ff0000" points="341,-180 287,-180 287,-144 341,-144 341,-180"/>
<text text-anchor="middle" x="314" y="-159.5" font-family="Helvetica,sans-Serif" font-size="10.00" fill="#000000">Raw</text>
</a>
</g>
</g>
<!-- dir_e2a306cbeddc37280b8dde7d223d74dd&#45;&gt;dir_f8de85f281636d081fd2e7e06b0134d2 -->
<g id="edge7" class="edge">
<title>dir_e2a306cbeddc37280b8dde7d223d74dd&#45;&gt;dir_f8de85f281636d081fd2e7e06b0134d2</title>
<path fill="none" stroke="#000000" d="M231.191,-216.2022C245.3378,-206.9425 262.8157,-195.5025 278.063,-185.5224"/>
<polygon fill="#000000" stroke="#000000" points="280.2903,-188.2476 286.7406,-179.8425 276.4567,-182.3907 280.2903,-188.2476"/>
<g id="a_edge7&#45;headlabel"><a xlink:href="dir_000543_000406.html" target="_top" xlink:title="8">
<text text-anchor="middle" x="278.8377" y="-190.0918" font-family="Helvetica,sans-Serif" font-size="10.00" fill="#000000">8</text>
</a>
</g>
</g>
<!-- dir_2171f7ec022c5423887b07c69b2f5b48 -->
<g id="node7" class="node">
<title>dir_2171f7ec022c5423887b07c69b2f5b48</title>
<g id="a_node7"><a xlink:href="dir_2171f7ec022c5423887b07c69b2f5b48.html" target="_top" xlink:title="DataFormats">
<polygon fill="none" stroke="#ff0000" points="326,-36 246,-36 246,0 326,0 326,-36"/>
<text text-anchor="middle" x="286" y="-15.5" font-family="Helvetica,sans-Serif" font-size="10.00" fill="#000000">DataFormats</text>
</a>
</g>
</g>
<!-- dir_e2a306cbeddc37280b8dde7d223d74dd&#45;&gt;dir_2171f7ec022c5423887b07c69b2f5b48 -->
<g id="edge8" class="edge">
<title>dir_e2a306cbeddc37280b8dde7d223d74dd&#45;&gt;dir_2171f7ec022c5423887b07c69b2f5b48</title>
<path fill="none" stroke="#000000" d="M231.2878,-227.8256C269.5672,-218.5482 336.1008,-199.9603 350,-180 380.0765,-136.808 339.6744,-77.4656 310.7243,-43.8976"/>
<polygon fill="#000000" stroke="#000000" points="313.2783,-41.5024 304.0246,-36.3429 308.041,-46.1469 313.2783,-41.5024"/>
<g id="a_edge8&#45;headlabel"><a xlink:href="dir_000543_000076.html" target="_top" xlink:title="2">
<text text-anchor="middle" x="317.7875" y="-39.808" font-family="Helvetica,sans-Serif" font-size="10.00" fill="#000000">2</text>
</a>
</g>
</g>
<!-- dir_b098e3604916eca5f90f2bb1c75b7880 -->
<g id="node8" class="node">
<title>dir_b098e3604916eca5f90f2bb1c75b7880</title>
<g id="a_node8"><a xlink:href="dir_b098e3604916eca5f90f2bb1c75b7880.html" target="_top" xlink:title="Mapping">
<polygon fill="none" stroke="#ff0000" points="162,-108 104,-108 104,-72 162,-72 162,-108"/>
<text text-anchor="middle" x="133" y="-87.5" font-family="Helvetica,sans-Serif" font-size="10.00" fill="#000000">Mapping</text>
</a>
</g>
</g>
<!-- dir_e2a306cbeddc37280b8dde7d223d74dd&#45;&gt;dir_b098e3604916eca5f90f2bb1c75b7880 -->
<g id="edge9" class="edge">
<title>dir_e2a306cbeddc37280b8dde7d223d74dd&#45;&gt;dir_b098e3604916eca5f90f2bb1c75b7880</title>
<path fill="none" stroke="#000000" d="M190.297,-215.6221C183.0926,-205.453 174.4449,-192.3962 168,-180 157.5432,-159.8872 148.3684,-135.9129 142.0386,-117.7673"/>
<polygon fill="#000000" stroke="#000000" points="145.2787,-116.4247 138.7385,-108.0894 138.6533,-118.6839 145.2787,-116.4247"/>
<g id="a_edge9&#45;headlabel"><a xlink:href="dir_000543_000495.html" target="_top" xlink:title="4">
<text text-anchor="middle" x="149.1261" y="-116.4106" font-family="Helvetica,sans-Serif" font-size="10.00" fill="#000000">4</text>
</a>
</g>
</g>
<!-- dir_6229e1f1a243f5ed3f0013dfa4f13deb&#45;&gt;dir_1155c84989a046e7de4bf0156dc4b34c -->
<g id="edge1" class="edge">
<title>dir_6229e1f1a243f5ed3f0013dfa4f13deb&#45;&gt;dir_1155c84989a046e7de4bf0156dc4b34c</title>
<path fill="none" stroke="#000000" d="M66.6259,-143.8314C60.5838,-135.6232 53.3237,-125.7606 46.6779,-116.7323"/>
<polygon fill="#000000" stroke="#000000" points="49.3011,-114.3918 40.5542,-108.4133 43.6637,-118.5415 49.3011,-114.3918"/>
<g id="a_edge1&#45;headlabel"><a xlink:href="dir_000514_000129.html" target="_top" xlink:title="2">
<text text-anchor="middle" x="53.7186" y="-113.1035" font-family="Helvetica,sans-Serif" font-size="10.00" fill="#000000">2</text>
</a>
</g>
</g>
<!-- dir_6229e1f1a243f5ed3f0013dfa4f13deb&#45;&gt;dir_b098e3604916eca5f90f2bb1c75b7880 -->
<g id="edge2" class="edge">
<title>dir_6229e1f1a243f5ed3f0013dfa4f13deb&#45;&gt;dir_b098e3604916eca5f90f2bb1c75b7880</title>
<path fill="none" stroke="#000000" d="M93.3741,-143.8314C99.4162,-135.6232 106.6763,-125.7606 113.3221,-116.7323"/>
<polygon fill="#000000" stroke="#000000" points="116.3363,-118.5415 119.4458,-108.4133 110.6989,-114.3918 116.3363,-118.5415"/>
<g id="a_edge2&#45;headlabel"><a xlink:href="dir_000514_000495.html" target="_top" xlink:title="2">
<text text-anchor="middle" x="116.4919" y="-120.6195" font-family="Helvetica,sans-Serif" font-size="10.00" fill="#000000">2</text>
</a>
</g>
</g>
<!-- dir_ade19310a6abca7155cb213ca0a7e06d&#45;&gt;dir_bcbb2cf9a3d3d83e5515c82071a07177 -->
<g id="edge10" class="edge">
<title>dir_ade19310a6abca7155cb213ca0a7e06d&#45;&gt;dir_bcbb2cf9a3d3d83e5515c82071a07177</title>
<path fill="none" stroke="#000000" d="M216.6171,-143.8314C222.3172,-135.6232 229.1663,-125.7606 235.4359,-116.7323"/>
<polygon fill="#000000" stroke="#000000" points="238.3838,-118.6234 241.213,-108.4133 232.6342,-114.6306 238.3838,-118.6234"/>
<g id="a_edge10&#45;headlabel"><a xlink:href="dir_000541_000013.html" target="_top" xlink:title="2">
<text text-anchor="middle" x="238.6656" y="-120.6954" font-family="Helvetica,sans-Serif" font-size="10.00" fill="#000000">2</text>
</a>
</g>
</g>
<!-- dir_bcbb2cf9a3d3d83e5515c82071a07177&#45;&gt;dir_2171f7ec022c5423887b07c69b2f5b48 -->
<g id="edge11" class="edge">
<title>dir_bcbb2cf9a3d3d83e5515c82071a07177&#45;&gt;dir_2171f7ec022c5423887b07c69b2f5b48</title>
<path fill="none" stroke="#000000" d="M256.1226,-71.8314C258.8826,-63.8771 262.8983,-54.369 267.1628,-45.5723"/>
<polygon fill="#000000" stroke="#000000" points="270.4091,-46.911 271.8403,-36.4133 264.175,-43.7272 270.4091,-46.911"/>
<g id="a_edge11&#45;headlabel"><a xlink:href="dir_000013_000076.html" target="_top" xlink:title="82">
<text text-anchor="middle" x="271.3029" y="-48.9036" font-family="Helvetica,sans-Serif" font-size="10.00" fill="#000000">82</text>
</a>
</g>
</g>
<!-- dir_f8de85f281636d081fd2e7e06b0134d2&#45;&gt;dir_2171f7ec022c5423887b07c69b2f5b48 -->
<g id="edge12" class="edge">
<title>dir_f8de85f281636d081fd2e7e06b0134d2&#45;&gt;dir_2171f7ec022c5423887b07c69b2f5b48</title>
<path fill="none" stroke="#000000" d="M310.9799,-143.6854C307.9206,-125.4693 302.9464,-96.7437 298,-72 296.3322,-63.6568 294.3815,-54.621 292.5436,-46.3712"/>
<polygon fill="#000000" stroke="#000000" points="295.9209,-45.4374 290.3055,-36.4531 289.0926,-46.9782 295.9209,-45.4374"/>
<g id="a_edge12&#45;headlabel"><a xlink:href="dir_000406_000076.html" target="_top" xlink:title="8">
<text text-anchor="middle" x="299.4817" y="-45.8189" font-family="Helvetica,sans-Serif" font-size="10.00" fill="#000000">8</text>
</a>
</g>
</g>
<!-- dir_2171f7ec022c5423887b07c69b2f5b48&#45;&gt;dir_bcbb2cf9a3d3d83e5515c82071a07177 -->
<g id="edge13" class="edge">
<title>dir_2171f7ec022c5423887b07c69b2f5b48&#45;&gt;dir_bcbb2cf9a3d3d83e5515c82071a07177</title>
<path fill="none" stroke="#000000" d="M283.7923,-36.4133C281.0067,-44.3991 276.9757,-53.9155 272.7062,-62.6975"/>
<polygon fill="#000000" stroke="#000000" points="269.4715,-61.3354 268.0273,-71.8314 275.7017,-64.5269 269.4715,-61.3354"/>
<g id="a_edge13&#45;headlabel"><a xlink:href="dir_000076_000013.html" target="_top" xlink:title="7">
<text text-anchor="middle" x="268.5833" y="-54.3417" font-family="Helvetica,sans-Serif" font-size="10.00" fill="#000000">7</text>
</a>
</g>
</g>
</g>
</svg>
