<?xml version="1.0" encoding="UTF-8" standalone="no"?>
<!DOCTYPE svg PUBLIC "-//W3C//DTD SVG 1.1//EN"
 "http://www.w3.org/Graphics/SVG/1.1/DTD/svg11.dtd">
<!-- Generated by graphviz version 2.40.1 (20161225.0304)
 -->
<!-- Title: /home/travis/build/AliceO2Group/AliceO2/Detectors/MUON Pages: 1 -->
<svg width="385pt" height="447pt"
 viewBox="0.00 0.00 385.40 447.00" xmlns="http://www.w3.org/2000/svg" xmlns:xlink="http://www.w3.org/1999/xlink">
<g id="graph0" class="graph" transform="scale(1 1) rotate(0) translate(4 443)">
<title>/home/travis/build/AliceO2Group/AliceO2/Detectors/MUON</title>
<g id="clust1" class="cluster">
<title>clusterdir_051dca18e802f8e9474f2e30d29c04e0</title>
<g id="a_clust1"><a xlink:href="dir_051dca18e802f8e9474f2e30d29c04e0.html" target="_top" xlink:title="Detectors">
<polygon fill="#ddddee" stroke="#000000" points="111,-344 111,-431 341,-431 341,-344 111,-344"/>
<text text-anchor="middle" x="226" y="-419" font-family="Helvetica,sans-Serif" font-size="10.00" fill="#000000">Detectors</text>
</a>
</g>
</g>
<g id="clust2" class="cluster">
<title>clusterdir_1cc233fd3b1202b9dad36810b41b97af</title>
<g id="a_clust2"><a xlink:href="dir_1cc233fd3b1202b9dad36810b41b97af.html" target="_top">
<polygon fill="#eeeeff" stroke="#000000" points="119,-352 119,-404 333,-404 333,-352 119,-352"/>
</a>
</g>
</g>
<!-- dir_1cc233fd3b1202b9dad36810b41b97af -->
<g id="node1" class="node">
<title>dir_1cc233fd3b1202b9dad36810b41b97af</title>
<text text-anchor="middle" x="298" y="-375.5" font-family="Helvetica,sans-Serif" font-size="10.00" fill="#000000">MUON</text>
</g>
<!-- dir_061f7088060f41729027f6c2fce0273e -->
<g id="node2" class="node">
<title>dir_061f7088060f41729027f6c2fce0273e</title>
<g id="a_node2"><a xlink:href="dir_061f7088060f41729027f6c2fce0273e.html" target="_top" xlink:title="MCH">
<polygon fill="#ffffff" stroke="#ff0000" points="181,-396 127,-396 127,-360 181,-360 181,-396"/>
<text text-anchor="middle" x="154" y="-375.5" font-family="Helvetica,sans-Serif" font-size="10.00" fill="#000000">MCH</text>
</a>
</g>
</g>
<!-- dir_4ab6b4cc6a7edbff49100e9123df213f -->
<g id="node4" class="node">
<title>dir_4ab6b4cc6a7edbff49100e9123df213f</title>
<g id="a_node4"><a xlink:href="dir_4ab6b4cc6a7edbff49100e9123df213f.html" target="_top" xlink:title="Common">
<polygon fill="none" stroke="#ff0000" points="223.5,-252 162.5,-252 162.5,-216 223.5,-216 223.5,-252"/>
<text text-anchor="middle" x="193" y="-231.5" font-family="Helvetica,sans-Serif" font-size="10.00" fill="#000000">Common</text>
</a>
</g>
</g>
<!-- dir_061f7088060f41729027f6c2fce0273e&#45;&gt;dir_4ab6b4cc6a7edbff49100e9123df213f -->
<g id="edge11" class="edge">
<title>dir_061f7088060f41729027f6c2fce0273e&#45;&gt;dir_4ab6b4cc6a7edbff49100e9123df213f</title>
<path fill="none" stroke="#000000" d="M158.0402,-359.9806C162.2138,-341.7468 169.0767,-312.7874 176,-288 178.3685,-279.5203 181.1609,-270.3631 183.7906,-262.0409"/>
<polygon fill="#000000" stroke="#000000" points="187.1596,-262.9965 186.8781,-252.4054 180.4935,-260.8604 187.1596,-262.9965"/>
<g id="a_edge11&#45;headlabel"><a xlink:href="dir_000115_000027.html" target="_top" xlink:title="9">
<text text-anchor="middle" x="188.7667" y="-264.786" font-family="Helvetica,sans-Serif" font-size="10.00" fill="#000000">9</text>
</a>
</g>
</g>
<!-- dir_37c90836491b695b472bf98d1be8336b -->
<g id="node5" class="node">
<title>dir_37c90836491b695b472bf98d1be8336b</title>
<g id="a_node5"><a xlink:href="dir_37c90836491b695b472bf98d1be8336b.html" target="_top" xlink:title="Base">
<polygon fill="none" stroke="#ff0000" points="217,-36 163,-36 163,0 217,0 217,-36"/>
<text text-anchor="middle" x="190" y="-15.5" font-family="Helvetica,sans-Serif" font-size="10.00" fill="#000000">Base</text>
</a>
</g>
</g>
<!-- dir_061f7088060f41729027f6c2fce0273e&#45;&gt;dir_37c90836491b695b472bf98d1be8336b -->
<g id="edge12" class="edge">
<title>dir_061f7088060f41729027f6c2fce0273e&#45;&gt;dir_37c90836491b695b472bf98d1be8336b</title>
<path fill="none" stroke="#000000" d="M126.8224,-367.3288C82.612,-347.9763 0,-302.6317 0,-234 0,-234 0,-234 0,-162 0,-86.0197 97.7006,-44.9616 152.9821,-27.8113"/>
<polygon fill="#000000" stroke="#000000" points="154.1984,-31.1008 162.7776,-24.8842 152.1941,-24.3939 154.1984,-31.1008"/>
<g id="a_edge12&#45;headlabel"><a xlink:href="dir_000115_000273.html" target="_top" xlink:title="6">
<text text-anchor="middle" x="151.5672" y="-32.3504" font-family="Helvetica,sans-Serif" font-size="10.00" fill="#000000">6</text>
</a>
</g>
</g>
<!-- dir_f01815b857f9009bea48e2cb39492245 -->
<g id="node6" class="node">
<title>dir_f01815b857f9009bea48e2cb39492245</title>
<g id="a_node6"><a xlink:href="dir_f01815b857f9009bea48e2cb39492245.html" target="_top" xlink:title="Passive">
<polygon fill="none" stroke="#ff0000" points="162,-108 108,-108 108,-72 162,-72 162,-108"/>
<text text-anchor="middle" x="135" y="-87.5" font-family="Helvetica,sans-Serif" font-size="10.00" fill="#000000">Passive</text>
</a>
</g>
</g>
<!-- dir_061f7088060f41729027f6c2fce0273e&#45;&gt;dir_f01815b857f9009bea48e2cb39492245 -->
<g id="edge13" class="edge">
<title>dir_061f7088060f41729027f6c2fce0273e&#45;&gt;dir_f01815b857f9009bea48e2cb39492245</title>
<path fill="none" stroke="#000000" d="M128.4948,-359.9627C117.5247,-350.6284 105.8855,-338.2089 100,-324 69.3853,-250.0896 77.3128,-220.7156 100,-144 102.8688,-134.2994 108.0868,-124.7055 113.6333,-116.3563"/>
<polygon fill="#000000" stroke="#000000" points="116.5199,-118.3362 119.4475,-108.1538 110.8091,-114.2881 116.5199,-118.3362"/>
<g id="a_edge13&#45;headlabel"><a xlink:href="dir_000115_000562.html" target="_top" xlink:title="6">
<text text-anchor="middle" x="116.7576" y="-120.4107" font-family="Helvetica,sans-Serif" font-size="10.00" fill="#000000">6</text>
</a>
</g>
</g>
<!-- dir_bcbb2cf9a3d3d83e5515c82071a07177 -->
<g id="node7" class="node">
<title>dir_bcbb2cf9a3d3d83e5515c82071a07177</title>
<g id="a_node7"><a xlink:href="dir_bcbb2cf9a3d3d83e5515c82071a07177.html" target="_top" xlink:title="Framework">
<polygon fill="none" stroke="#ff0000" points="345.5,-180 274.5,-180 274.5,-144 345.5,-144 345.5,-180"/>
<text text-anchor="middle" x="310" y="-159.5" font-family="Helvetica,sans-Serif" font-size="10.00" fill="#000000">Framework</text>
</a>
</g>
</g>
<!-- dir_061f7088060f41729027f6c2fce0273e&#45;&gt;dir_bcbb2cf9a3d3d83e5515c82071a07177 -->
<g id="edge14" class="edge">
<title>dir_061f7088060f41729027f6c2fce0273e&#45;&gt;dir_bcbb2cf9a3d3d83e5515c82071a07177</title>
<path fill="none" stroke="#000000" d="M167.0322,-359.9555C194.5615,-321.8379 258.7417,-232.973 290.909,-188.4337"/>
<polygon fill="#000000" stroke="#000000" points="293.8777,-190.3011 296.8952,-180.1451 288.2029,-186.2026 293.8777,-190.3011"/>
<g id="a_edge14&#45;headlabel"><a xlink:href="dir_000115_000013.html" target="_top" xlink:title="135">
<text text-anchor="middle" x="294.0748" y="-192.3775" font-family="Helvetica,sans-Serif" font-size="10.00" fill="#000000">135</text>
</a>
</g>
</g>
<!-- dir_2171f7ec022c5423887b07c69b2f5b48 -->
<g id="node9" class="node">
<title>dir_2171f7ec022c5423887b07c69b2f5b48</title>
<g id="a_node9"><a xlink:href="dir_2171f7ec022c5423887b07c69b2f5b48.html" target="_top" xlink:title="DataFormats">
<polygon fill="none" stroke="#ff0000" points="298,-108 218,-108 218,-72 298,-72 298,-108"/>
<text text-anchor="middle" x="258" y="-87.5" font-family="Helvetica,sans-Serif" font-size="10.00" fill="#000000">DataFormats</text>
</a>
</g>
</g>
<!-- dir_061f7088060f41729027f6c2fce0273e&#45;&gt;dir_2171f7ec022c5423887b07c69b2f5b48 -->
<g id="edge15" class="edge">
<title>dir_061f7088060f41729027f6c2fce0273e&#45;&gt;dir_2171f7ec022c5423887b07c69b2f5b48</title>
<path fill="none" stroke="#000000" d="M149.9191,-359.8156C143.8819,-329.0992 135.0954,-265.4534 153,-216 167.8463,-174.9938 202.5104,-137.9546 227.9658,-114.8128"/>
<polygon fill="#000000" stroke="#000000" points="230.3851,-117.3453 235.538,-108.088 225.7368,-112.1114 230.3851,-117.3453"/>
<g id="a_edge15&#45;headlabel"><a xlink:href="dir_000115_000076.html" target="_top" xlink:title="21">
<text text-anchor="middle" x="229.5827" y="-119.3552" font-family="Helvetica,sans-Serif" font-size="10.00" fill="#000000">21</text>
</a>
</g>
</g>
<!-- dir_9e24c537087392bd208449d0b48c466c -->
<g id="node3" class="node">
<title>dir_9e24c537087392bd208449d0b48c466c</title>
<g id="a_node3"><a xlink:href="dir_9e24c537087392bd208449d0b48c466c.html" target="_top" xlink:title="MID">
<polygon fill="#ffffff" stroke="#ff0000" points="253,-396 199,-396 199,-360 253,-360 253,-396"/>
<text text-anchor="middle" x="226" y="-375.5" font-family="Helvetica,sans-Serif" font-size="10.00" fill="#000000">MID</text>
</a>
</g>
</g>
<!-- dir_9e24c537087392bd208449d0b48c466c&#45;&gt;dir_4ab6b4cc6a7edbff49100e9123df213f -->
<g id="edge1" class="edge">
<title>dir_9e24c537087392bd208449d0b48c466c&#45;&gt;dir_4ab6b4cc6a7edbff49100e9123df213f</title>
<path fill="none" stroke="#000000" d="M221.8205,-359.7623C216.1671,-335.0928 206.0304,-290.8598 199.4105,-261.9731"/>
<polygon fill="#000000" stroke="#000000" points="202.7909,-261.0551 197.1455,-252.0896 195.9678,-262.6188 202.7909,-261.0551"/>
<g id="a_edge1&#45;headlabel"><a xlink:href="dir_000177_000027.html" target="_top" xlink:title="11">
<text text-anchor="middle" x="206.3613" y="-261.4247" font-family="Helvetica,sans-Serif" font-size="10.00" fill="#000000">11</text>
</a>
</g>
</g>
<!-- dir_9e24c537087392bd208449d0b48c466c&#45;&gt;dir_37c90836491b695b472bf98d1be8336b -->
<g id="edge2" class="edge">
<title>dir_9e24c537087392bd208449d0b48c466c&#45;&gt;dir_37c90836491b695b472bf98d1be8336b</title>
<path fill="none" stroke="#000000" d="M213.2938,-359.8415C184.9379,-317.9313 117.5316,-210.1956 99,-108 96.1452,-92.2567 91.083,-85.904 99,-72 110.6396,-51.5583 133.402,-38.0559 153.2483,-29.6651"/>
<polygon fill="#000000" stroke="#000000" points="154.6708,-32.8667 162.6953,-25.9486 152.1081,-26.3526 154.6708,-32.8667"/>
<g id="a_edge2&#45;headlabel"><a xlink:href="dir_000177_000273.html" target="_top" xlink:title="5">
<text text-anchor="middle" x="152.3652" y="-34.3247" font-family="Helvetica,sans-Serif" font-size="10.00" fill="#000000">5</text>
</a>
</g>
</g>
<!-- dir_9e24c537087392bd208449d0b48c466c&#45;&gt;dir_bcbb2cf9a3d3d83e5515c82071a07177 -->
<g id="edge3" class="edge">
<title>dir_9e24c537087392bd208449d0b48c466c&#45;&gt;dir_bcbb2cf9a3d3d83e5515c82071a07177</title>
<path fill="none" stroke="#000000" d="M242.3499,-359.7894C248.1273,-354.1483 254.9519,-348.2936 262,-344 284.9281,-330.0325 303.4735,-345.9025 319,-324 347.1709,-284.2608 333.1758,-224.2877 321.1268,-189.5503"/>
<polygon fill="#000000" stroke="#000000" points="324.3741,-188.2389 317.658,-180.0447 317.7983,-190.6386 324.3741,-188.2389"/>
<g id="a_edge3&#45;headlabel"><a xlink:href="dir_000177_000013.html" target="_top" xlink:title="74">
<text text-anchor="middle" x="328.2735" y="-188.1424" font-family="Helvetica,sans-Serif" font-size="10.00" fill="#000000">74</text>
</a>
</g>
</g>
<!-- dir_26637d1bd82229bc9ed97f7e706be743 -->
<g id="node8" class="node">
<title>dir_26637d1bd82229bc9ed97f7e706be743</title>
<g id="a_node8"><a xlink:href="dir_26637d1bd82229bc9ed97f7e706be743.html" target="_top" xlink:title="Raw">
<polygon fill="none" stroke="#ff0000" points="310,-324 256,-324 256,-288 310,-288 310,-324"/>
<text text-anchor="middle" x="283" y="-303.5" font-family="Helvetica,sans-Serif" font-size="10.00" fill="#000000">Raw</text>
</a>
</g>
</g>
<!-- dir_9e24c537087392bd208449d0b48c466c&#45;&gt;dir_26637d1bd82229bc9ed97f7e706be743 -->
<g id="edge4" class="edge">
<title>dir_9e24c537087392bd208449d0b48c466c&#45;&gt;dir_26637d1bd82229bc9ed97f7e706be743</title>
<path fill="none" stroke="#000000" d="M240.3835,-359.8314C246.9486,-351.5386 254.8507,-341.557 262.0578,-332.4533"/>
<polygon fill="#000000" stroke="#000000" points="264.9599,-334.4262 268.4228,-324.4133 259.4716,-330.0813 264.9599,-334.4262"/>
<g id="a_edge4&#45;headlabel"><a xlink:href="dir_000177_000552.html" target="_top" xlink:title="6">
<text text-anchor="middle" x="264.9549" y="-336.5069" font-family="Helvetica,sans-Serif" font-size="10.00" fill="#000000">6</text>
</a>
</g>
</g>
<!-- dir_9e24c537087392bd208449d0b48c466c&#45;&gt;dir_2171f7ec022c5423887b07c69b2f5b48 -->
<g id="edge5" class="edge">
<title>dir_9e24c537087392bd208449d0b48c466c&#45;&gt;dir_2171f7ec022c5423887b07c69b2f5b48</title>
<path fill="none" stroke="#000000" d="M241.7814,-359.7817C247.6176,-354.004 254.6224,-348.068 262,-344 293.3396,-326.7193 314.9373,-349.547 340,-324 385.9816,-277.1299 365.8355,-245.267 373,-180 374.7459,-164.0955 381.5788,-157.5057 373,-144 358.6041,-121.3362 331.897,-108.0162 307.8417,-100.2784"/>
<polygon fill="#000000" stroke="#000000" points="308.6713,-96.8739 298.0889,-97.3882 306.6823,-103.5854 308.6713,-96.8739"/>
<g id="a_edge5&#45;headlabel"><a xlink:href="dir_000177_000076.html" target="_top" xlink:title="84">
<text text-anchor="middle" x="312.9244" y="-92.6729" font-family="Helvetica,sans-Serif" font-size="10.00" fill="#000000">84</text>
</a>
</g>
</g>
<!-- dir_4ab6b4cc6a7edbff49100e9123df213f&#45;&gt;dir_bcbb2cf9a3d3d83e5515c82071a07177 -->
<g id="edge6" class="edge">
<title>dir_4ab6b4cc6a7edbff49100e9123df213f&#45;&gt;dir_bcbb2cf9a3d3d83e5515c82071a07177</title>
<path fill="none" stroke="#000000" d="M216.5716,-215.8314C230.6392,-206.6221 248.8486,-195.3301 265.4876,-185.4706"/>
<polygon fill="#000000" stroke="#000000" points="267.6799,-188.2423 274.5336,-180.1628 264.1374,-182.2049 267.6799,-188.2423"/>
<g id="a_edge6&#45;headlabel"><a xlink:href="dir_000027_000013.html" target="_top" xlink:title="2">
<text text-anchor="middle" x="266.0165" y="-190.0102" font-family="Helvetica,sans-Serif" font-size="10.00" fill="#000000">2</text>
</a>
</g>
</g>
<!-- dir_4ab6b4cc6a7edbff49100e9123df213f&#45;&gt;dir_2171f7ec022c5423887b07c69b2f5b48 -->
<g id="edge7" class="edge">
<title>dir_4ab6b4cc6a7edbff49100e9123df213f&#45;&gt;dir_2171f7ec022c5423887b07c69b2f5b48</title>
<path fill="none" stroke="#000000" d="M196.5591,-215.7623C205.3,-190.8764 225.2705,-146.0822 240.2942,-117.2165"/>
<polygon fill="#000000" stroke="#000000" points="243.5458,-118.5582 245.1763,-108.0896 237.3733,-115.2565 243.5458,-118.5582"/>
<g id="a_edge7&#45;headlabel"><a xlink:href="dir_000027_000076.html" target="_top" xlink:title="2">
<text text-anchor="middle" x="244.3539" y="-120.5671" font-family="Helvetica,sans-Serif" font-size="10.00" fill="#000000">2</text>
</a>
</g>
</g>
<!-- dir_37c90836491b695b472bf98d1be8336b&#45;&gt;dir_4ab6b4cc6a7edbff49100e9123df213f -->
<g id="edge8" class="edge">
<title>dir_37c90836491b695b472bf98d1be8336b&#45;&gt;dir_4ab6b4cc6a7edbff49100e9123df213f</title>
<path fill="none" stroke="#000000" d="M190.252,-36.1451C190.7749,-73.7945 191.9811,-160.6409 192.6071,-205.7103"/>
<polygon fill="#000000" stroke="#000000" points="189.1107,-206.0051 192.7494,-215.9555 196.1101,-205.9078 189.1107,-206.0051"/>
<g id="a_edge8&#45;headlabel"><a xlink:href="dir_000273_000027.html" target="_top" xlink:title="16">
<text text-anchor="middle" x="186.2219" y="-199.9502" font-family="Helvetica,sans-Serif" font-size="10.00" fill="#000000">16</text>
</a>
</g>
</g>
<!-- dir_37c90836491b695b472bf98d1be8336b&#45;&gt;dir_bcbb2cf9a3d3d83e5515c82071a07177 -->
<g id="edge9" class="edge">
<title>dir_37c90836491b695b472bf98d1be8336b&#45;&gt;dir_bcbb2cf9a3d3d83e5515c82071a07177</title>
<path fill="none" stroke="#000000" d="M217.1212,-22.1719C244.9178,-28.0315 286.8377,-41.6153 307,-72 318.9612,-90.0256 318.8682,-114.8598 316.2575,-133.8756"/>
<polygon fill="#000000" stroke="#000000" points="312.8017,-133.3216 314.6087,-143.7612 319.7063,-134.4733 312.8017,-133.3216"/>
<g id="a_edge9&#45;headlabel"><a xlink:href="dir_000273_000013.html" target="_top" xlink:title="1">
<text text-anchor="middle" x="310.5924" y="-126.8089" font-family="Helvetica,sans-Serif" font-size="10.00" fill="#000000">1</text>
</a>
</g>
</g>
<!-- dir_37c90836491b695b472bf98d1be8336b&#45;&gt;dir_2171f7ec022c5423887b07c69b2f5b48 -->
<g id="edge10" class="edge">
<title>dir_37c90836491b695b472bf98d1be8336b&#45;&gt;dir_2171f7ec022c5423887b07c69b2f5b48</title>
<path fill="none" stroke="#000000" d="M213.1056,-36.1628C221.9006,-44.6038 231.7127,-54.7956 239.9846,-64.0303"/>
<polygon fill="#000000" stroke="#000000" points="237.5806,-66.5987 246.7931,-71.8314 242.8545,-61.9958 237.5806,-66.5987"/>
<g id="a_edge10&#45;headlabel"><a xlink:href="dir_000273_000076.html" target="_top" xlink:title="10">
<text text-anchor="middle" x="233.0779" y="-63.2575" font-family="Helvetica,sans-Serif" font-size="10.00" fill="#000000">10</text>
</a>
</g>
</g>
<!-- dir_f01815b857f9009bea48e2cb39492245&#45;&gt;dir_4ab6b4cc6a7edbff49100e9123df213f -->
<g id="edge16" class="edge">
<title>dir_f01815b857f9009bea48e2cb39492245&#45;&gt;dir_4ab6b4cc6a7edbff49100e9123df213f</title>
<path fill="none" stroke="#000000" d="M142.2861,-108.0896C152.2342,-132.7884 170.1598,-177.2933 181.8161,-206.2331"/>
<polygon fill="#000000" stroke="#000000" points="178.6715,-207.7941 185.6543,-215.7623 185.1646,-205.1788 178.6715,-207.7941"/>
<g id="a_edge16&#45;headlabel"><a xlink:href="dir_000562_000027.html" target="_top" xlink:title="5">
<text text-anchor="middle" x="174.6949" y="-203.0206" font-family="Helvetica,sans-Serif" font-size="10.00" fill="#000000">5</text>
</a>
</g>
</g>
<!-- dir_f01815b857f9009bea48e2cb39492245&#45;&gt;dir_37c90836491b695b472bf98d1be8336b -->
<g id="edge17" class="edge">
<title>dir_f01815b857f9009bea48e2cb39492245&#45;&gt;dir_37c90836491b695b472bf98d1be8336b</title>
<path fill="none" stroke="#000000" d="M148.8788,-71.8314C155.2136,-63.5386 162.8384,-53.557 169.7926,-44.4533"/>
<polygon fill="#000000" stroke="#000000" points="172.6452,-46.4847 175.9343,-36.4133 167.0825,-42.2353 172.6452,-46.4847"/>
<g id="a_edge17&#45;headlabel"><a xlink:href="dir_000562_000273.html" target="_top" xlink:title="19">
<text text-anchor="middle" x="172.7195" y="-48.5647" font-family="Helvetica,sans-Serif" font-size="10.00" fill="#000000">19</text>
</a>
</g>
</g>
<!-- dir_bcbb2cf9a3d3d83e5515c82071a07177&#45;&gt;dir_4ab6b4cc6a7edbff49100e9123df213f -->
<g id="edge18" class="edge">
<title>dir_bcbb2cf9a3d3d83e5515c82071a07177&#45;&gt;dir_4ab6b4cc6a7edbff49100e9123df213f</title>
<path fill="none" stroke="#000000" d="M286.3484,-180.221C270.9488,-190.2996 250.6099,-202.8606 232.8,-213.3079"/>
<polygon fill="#000000" stroke="#000000" points="230.6503,-210.5087 223.7567,-218.5542 234.1629,-216.5636 230.6503,-210.5087"/>
<g id="a_edge18&#45;headlabel"><a xlink:href="dir_000013_000027.html" target="_top" xlink:title="8">
<text text-anchor="middle" x="232.3348" y="-203.749" font-family="Helvetica,sans-Serif" font-size="10.00" fill="#000000">8</text>
</a>
</g>
</g>
<!-- dir_bcbb2cf9a3d3d83e5515c82071a07177&#45;&gt;dir_f01815b857f9009bea48e2cb39492245 -->
<g id="edge19" class="edge">
<title>dir_bcbb2cf9a3d3d83e5515c82071a07177&#45;&gt;dir_f01815b857f9009bea48e2cb39492245</title>
<path fill="none" stroke="#000000" d="M274.1638,-147.256C244.2069,-134.9308 201.6625,-117.4269 171.5169,-105.0241"/>
<polygon fill="#000000" stroke="#000000" points="172.7763,-101.7576 162.1967,-101.1895 170.1129,-108.2312 172.7763,-101.7576"/>
<g id="a_edge19&#45;headlabel"><a xlink:href="dir_000013_000562.html" target="_top" xlink:title="2">
<text text-anchor="middle" x="177.1808" y="-97.9996" font-family="Helvetica,sans-Serif" font-size="10.00" fill="#000000">2</text>
</a>
</g>
</g>
<!-- dir_bcbb2cf9a3d3d83e5515c82071a07177&#45;&gt;dir_2171f7ec022c5423887b07c69b2f5b48 -->
<g id="edge20" class="edge">
<title>dir_bcbb2cf9a3d3d83e5515c82071a07177&#45;&gt;dir_2171f7ec022c5423887b07c69b2f5b48</title>
<path fill="none" stroke="#000000" d="M290.9258,-143.8314C284.2672,-135.7079 277.0274,-125.9637 270.9491,-117.0118"/>
<polygon fill="#000000" stroke="#000000" points="273.7268,-114.8645 265.3225,-108.4133 267.8694,-118.6974 273.7268,-114.8645"/>
<g id="a_edge20&#45;headlabel"><a xlink:href="dir_000013_000076.html" target="_top" xlink:title="82">
<text text-anchor="middle" x="278.0708" y="-113.8177" font-family="Helvetica,sans-Serif" font-size="10.00" fill="#000000">82</text>
</a>
</g>
</g>
<!-- dir_26637d1bd82229bc9ed97f7e706be743&#45;&gt;dir_4ab6b4cc6a7edbff49100e9123df213f -->
<g id="edge21" class="edge">
<title>dir_26637d1bd82229bc9ed97f7e706be743&#45;&gt;dir_4ab6b4cc6a7edbff49100e9123df213f</title>
<path fill="none" stroke="#000000" d="M260.2892,-287.8314C249.204,-278.9632 235.7046,-268.1637 223.7148,-258.5718"/>
<polygon fill="#000000" stroke="#000000" points="225.6987,-255.6768 215.7035,-252.1628 221.3258,-261.1429 225.6987,-255.6768"/>
<g id="a_edge21&#45;headlabel"><a xlink:href="dir_000552_000027.html" target="_top" xlink:title="9">
<text text-anchor="middle" x="230.2793" y="-253.2052" font-family="Helvetica,sans-Serif" font-size="10.00" fill="#000000">9</text>
</a>
</g>
</g>
<!-- dir_26637d1bd82229bc9ed97f7e706be743&#45;&gt;dir_bcbb2cf9a3d3d83e5515c82071a07177 -->
<g id="edge22" class="edge">
<title>dir_26637d1bd82229bc9ed97f7e706be743&#45;&gt;dir_bcbb2cf9a3d3d83e5515c82071a07177</title>
<path fill="none" stroke="#000000" d="M286.4196,-287.7623C291.0451,-263.0928 299.3388,-218.8598 304.755,-189.9731"/>
<polygon fill="#000000" stroke="#000000" points="308.2053,-190.5634 306.6082,-180.0896 301.3252,-189.2733 308.2053,-190.5634"/>
<g id="a_edge22&#45;headlabel"><a xlink:href="dir_000552_000013.html" target="_top" xlink:title="25">
<text text-anchor="middle" x="310.3336" y="-192.1196" font-family="Helvetica,sans-Serif" font-size="10.00" fill="#000000">25</text>
</a>
</g>
</g>
<!-- dir_26637d1bd82229bc9ed97f7e706be743&#45;&gt;dir_2171f7ec022c5423887b07c69b2f5b48 -->
<g id="edge23" class="edge">
<title>dir_26637d1bd82229bc9ed97f7e706be743&#45;&gt;dir_2171f7ec022c5423887b07c69b2f5b48</title>
<path fill="none" stroke="#000000" d="M302.2286,-287.8513C332.304,-257.1874 384.1657,-193.6171 355,-144 344.5202,-126.1716 325.7853,-113.8019 307.5562,-105.447"/>
<polygon fill="#000000" stroke="#000000" points="308.6884,-102.1253 298.116,-101.4362 305.9512,-108.5679 308.6884,-102.1253"/>
<g id="a_edge23&#45;headlabel"><a xlink:href="dir_000552_000076.html" target="_top" xlink:title="15">
<text text-anchor="middle" x="313.1071" y="-98.4176" font-family="Helvetica,sans-Serif" font-size="10.00" fill="#000000">15</text>
</a>
</g>
</g>
<!-- dir_2171f7ec022c5423887b07c69b2f5b48&#45;&gt;dir_4ab6b4cc6a7edbff49100e9123df213f -->
<g id="edge24" class="edge">
<title>dir_2171f7ec022c5423887b07c69b2f5b48&#45;&gt;dir_4ab6b4cc6a7edbff49100e9123df213f</title>
<path fill="none" stroke="#000000" d="M254.4928,-108.0896C245.7966,-132.8962 225.8387,-177.6824 210.7953,-206.6113"/>
<polygon fill="#000000" stroke="#000000" points="207.5315,-205.293 205.9055,-215.7623 213.7053,-208.592 207.5315,-205.293"/>
<g id="a_edge24&#45;headlabel"><a xlink:href="dir_000076_000027.html" target="_top" xlink:title="34">
<text text-anchor="middle" x="206.7214" y="-198.2845" font-family="Helvetica,sans-Serif" font-size="10.00" fill="#000000">34</text>
</a>
</g>
</g>
<!-- dir_2171f7ec022c5423887b07c69b2f5b48&#45;&gt;dir_37c90836491b695b472bf98d1be8336b -->
<g id="edge25" class="edge">
<title>dir_2171f7ec022c5423887b07c69b2f5b48&#45;&gt;dir_37c90836491b695b472bf98d1be8336b</title>
<path fill="none" stroke="#000000" d="M234.8883,-71.8314C226.16,-63.454 216.4306,-53.3531 208.1994,-44.1749"/>
<polygon fill="#000000" stroke="#000000" points="210.631,-41.6386 201.4143,-36.4133 205.3608,-46.2457 210.631,-41.6386"/>
<g id="a_edge25&#45;headlabel"><a xlink:href="dir_000076_000273.html" target="_top" xlink:title="1">
<text text-anchor="middle" x="215.1344" y="-39.9762" font-family="Helvetica,sans-Serif" font-size="10.00" fill="#000000">1</text>
</a>
</g>
</g>
<!-- dir_2171f7ec022c5423887b07c69b2f5b48&#45;&gt;dir_bcbb2cf9a3d3d83e5515c82071a07177 -->
<g id="edge26" class="edge">
<title>dir_2171f7ec022c5423887b07c69b2f5b48&#45;&gt;dir_bcbb2cf9a3d3d83e5515c82071a07177</title>
<path fill="none" stroke="#000000" d="M277.2745,-108.4133C283.9446,-116.569 291.1784,-126.3212 297.2332,-135.257"/>
<polygon fill="#000000" stroke="#000000" points="294.4334,-137.3709 302.8306,-143.8314 300.295,-133.5444 294.4334,-137.3709"/>
<g id="a_edge26&#45;headlabel"><a xlink:href="dir_000076_000013.html" target="_top" xlink:title="7">
<text text-anchor="middle" x="290.091" y="-133.4129" font-family="Helvetica,sans-Serif" font-size="10.00" fill="#000000">7</text>
</a>
</g>
</g>
</g>
</svg>
