<?xml version="1.0" encoding="UTF-8" standalone="no"?>
<!DOCTYPE svg PUBLIC "-//W3C//DTD SVG 1.1//EN"
 "http://www.w3.org/Graphics/SVG/1.1/DTD/svg11.dtd">
<!-- Generated by graphviz version 2.40.1 (20161225.0304)
 -->
<!-- Title: /home/travis/build/AliceO2Group/AliceO2/Detectors/FIT/FT0/simulation Pages: 1 -->
<!--zoomable 519 -->
<svg id="main" version="1.1" xmlns="http://www.w3.org/2000/svg" xmlns:xlink="http://www.w3.org/1999/xlink" xml:space="preserve" onload="init(evt)">
<style type="text/css"><![CDATA[
.edge:hover path { stroke: red; }
.edge:hover polygon { stroke: red; fill: red; }
]]></style>
<script type="text/javascript"><![CDATA[
var edges = document.getElementsByTagName('g');
if (edges && edges.length) {
  for (var i=0;i<edges.length;i++) {
    if (edges[i].id.substr(0,4)=='edge') {
      edges[i].setAttribute('class','edge');
    }
  }
}
]]></script>
        <defs>
                <circle id="rim" cx="0" cy="0" r="7"/>
                <circle id="rim2" cx="0" cy="0" r="3.5"/>
                <g id="zoomPlus">
                        <use xlink:href="#rim" fill="#404040">
                                <set attributeName="fill" to="#808080" begin="zoomplus.mouseover" end="zoomplus.mouseout"/>
                        </use>
                        <path d="M-4,0h8M0,-4v8" fill="none" stroke="white" stroke-width="1.5" pointer-events="none"/>
                </g>
                <g id="zoomMin">
                        <use xlink:href="#rim" fill="#404040">
                                <set attributeName="fill" to="#808080" begin="zoomminus.mouseover" end="zoomminus.mouseout"/>
                        </use>
                        <path d="M-4,0h8" fill="none" stroke="white" stroke-width="1.5" pointer-events="none"/>
                </g>
                <g id="dirArrow">
                        <path fill="none" stroke="white" stroke-width="1.5" d="M0,-3.0v7 M-2.5,-0.5L0,-3.0L2.5,-0.5"/>
                </g>
               <g id="resetDef">
                       <use xlink:href="#rim2" fill="#404040">
                               <set attributeName="fill" to="#808080" begin="reset.mouseover" end="reset.mouseout"/>
                       </use>
               </g>
        </defs>

<script type="text/javascript">
var viewWidth = 410;
var viewHeight = 519;
var sectionId = 'dynsection-0';
</script>
<script xlink:href="svgpan.js"/>
<svg id="graph" class="graph">
<g id="viewport">
<title>/home/travis/build/AliceO2Group/AliceO2/Detectors/FIT/FT0/simulation</title>
<g id="clust1" class="cluster">
<title>clusterdir_732f729910dd598014f768fa2866f334</title>
<g id="a_clust1"><a xlink:href="dir_732f729910dd598014f768fa2866f334.html" target="_top" xlink:title="FT0">
<polygon fill="#ddddee" stroke="#000000" points="135,-344 135,-503 307,-503 307,-344 135,-344"/>
<text text-anchor="middle" x="221" y="-491" font-family="Helvetica,sans-Serif" font-size="10.00" fill="#000000">FT0</text>
</a>
</g>
</g>
<g id="clust2" class="cluster">
<title>clusterdir_dde9e01e42e5df81e682067abb84b2d4</title>
<g id="a_clust2"><a xlink:href="dir_dde9e01e42e5df81e682067abb84b2d4.html" target="_top">
<polygon fill="#eeeeff" stroke="#000000" points="143,-352 143,-476 299,-476 299,-352 143,-352"/>
</a>
</g>
</g>
<!-- dir_dde9e01e42e5df81e682067abb84b2d4 -->
<g id="node1" class="node">
<title>dir_dde9e01e42e5df81e682067abb84b2d4</title>
<text text-anchor="middle" x="257" y="-447.5" font-family="Helvetica,sans-Serif" font-size="10.00" fill="#000000">simulation</text>
</g>
<!-- dir_604320fddfc5f7c5f68b1318557d3be7 -->
<g id="node2" class="node">
<title>dir_604320fddfc5f7c5f68b1318557d3be7</title>
<g id="a_node2"><a xlink:href="dir_604320fddfc5f7c5f68b1318557d3be7.html" target="_top" xlink:title="include">
<polygon fill="#ffffff" stroke="#ff0000" points="291,-396 237,-396 237,-360 291,-360 291,-396"/>
<text text-anchor="middle" x="264" y="-375.5" font-family="Helvetica,sans-Serif" font-size="10.00" fill="#000000">include</text>
</a>
</g>
</g>
<!-- dir_37c90836491b695b472bf98d1be8336b -->
<g id="node5" class="node">
<title>dir_37c90836491b695b472bf98d1be8336b</title>
<g id="a_node5"><a xlink:href="dir_37c90836491b695b472bf98d1be8336b.html" target="_top" xlink:title="Base">
<polygon fill="none" stroke="#ff0000" points="297,-324 243,-324 243,-288 297,-288 297,-324"/>
<text text-anchor="middle" x="270" y="-303.5" font-family="Helvetica,sans-Serif" font-size="10.00" fill="#000000">Base</text>
</a>
</g>
</g>
<!-- dir_604320fddfc5f7c5f68b1318557d3be7&#45;&gt;dir_37c90836491b695b472bf98d1be8336b -->
<g id="edge6" class="edge">
<title>dir_604320fddfc5f7c5f68b1318557d3be7&#45;&gt;dir_37c90836491b695b472bf98d1be8336b</title>
<path fill="none" stroke="#000000" d="M265.5141,-359.8314C266.1558,-352.131 266.9188,-342.9743 267.6319,-334.4166"/>
<polygon fill="#000000" stroke="#000000" points="271.1229,-334.6694 268.4656,-324.4133 264.1471,-334.088 271.1229,-334.6694"/>
<g id="a_edge6&#45;headlabel"><a xlink:href="dir_000287_000273.html" target="_top" xlink:title="1">
<text text-anchor="middle" x="273.654" y="-335.9874" font-family="Helvetica,sans-Serif" font-size="10.00" fill="#000000">1</text>
</a>
</g>
</g>
<!-- dir_63da1bf9cbb165deb85abc813a5acde9 -->
<g id="node6" class="node">
<title>dir_63da1bf9cbb165deb85abc813a5acde9</title>
<g id="a_node6"><a xlink:href="dir_63da1bf9cbb165deb85abc813a5acde9.html" target="_top" xlink:title="base">
<polygon fill="none" stroke="#ff0000" points="283,-36 229,-36 229,0 283,0 283,-36"/>
<text text-anchor="middle" x="256" y="-15.5" font-family="Helvetica,sans-Serif" font-size="10.00" fill="#000000">base</text>
</a>
</g>
</g>
<!-- dir_604320fddfc5f7c5f68b1318557d3be7&#45;&gt;dir_63da1bf9cbb165deb85abc813a5acde9 -->
<g id="edge7" class="edge">
<title>dir_604320fddfc5f7c5f68b1318557d3be7&#45;&gt;dir_63da1bf9cbb165deb85abc813a5acde9</title>
<path fill="none" stroke="#000000" d="M291.2644,-365.008C331.4818,-343.723 402,-297.3667 402,-234 402,-234 402,-234 402,-162 402,-100.4734 335.4639,-56.3923 292.2254,-34.242"/>
<polygon fill="#000000" stroke="#000000" points="293.6327,-31.0331 283.1193,-29.7221 290.5205,-37.3032 293.6327,-31.0331"/>
<g id="a_edge7&#45;headlabel"><a xlink:href="dir_000287_000328.html" target="_top" xlink:title="2">
<text text-anchor="middle" x="298.1149" y="-27.588" font-family="Helvetica,sans-Serif" font-size="10.00" fill="#000000">2</text>
</a>
</g>
</g>
<!-- dir_26637d1bd82229bc9ed97f7e706be743 -->
<g id="node8" class="node">
<title>dir_26637d1bd82229bc9ed97f7e706be743</title>
<g id="a_node8"><a xlink:href="dir_26637d1bd82229bc9ed97f7e706be743.html" target="_top" xlink:title="Raw">
<polygon fill="none" stroke="#ff0000" points="181,-324 127,-324 127,-288 181,-288 181,-324"/>
<text text-anchor="middle" x="154" y="-303.5" font-family="Helvetica,sans-Serif" font-size="10.00" fill="#000000">Raw</text>
</a>
</g>
</g>
<!-- dir_604320fddfc5f7c5f68b1318557d3be7&#45;&gt;dir_26637d1bd82229bc9ed97f7e706be743 -->
<g id="edge8" class="edge">
<title>dir_604320fddfc5f7c5f68b1318557d3be7&#45;&gt;dir_26637d1bd82229bc9ed97f7e706be743</title>
<path fill="none" stroke="#000000" d="M236.809,-360.2022C222.6622,-350.9425 205.1843,-339.5025 189.937,-329.5224"/>
<polygon fill="#000000" stroke="#000000" points="191.5433,-326.3907 181.2594,-323.8425 187.7097,-332.2476 191.5433,-326.3907"/>
<g id="a_edge8&#45;headlabel"><a xlink:href="dir_000287_000552.html" target="_top" xlink:title="2">
<text text-anchor="middle" x="196.1058" y="-323.4837" font-family="Helvetica,sans-Serif" font-size="10.00" fill="#000000">2</text>
</a>
</g>
</g>
<!-- dir_2171f7ec022c5423887b07c69b2f5b48 -->
<g id="node9" class="node">
<title>dir_2171f7ec022c5423887b07c69b2f5b48</title>
<g id="a_node9"><a xlink:href="dir_2171f7ec022c5423887b07c69b2f5b48.html" target="_top" xlink:title="DataFormats">
<polygon fill="none" stroke="#ff0000" points="296,-108 216,-108 216,-72 296,-72 296,-108"/>
<text text-anchor="middle" x="256" y="-87.5" font-family="Helvetica,sans-Serif" font-size="10.00" fill="#000000">DataFormats</text>
</a>
</g>
</g>
<!-- dir_604320fddfc5f7c5f68b1318557d3be7&#45;&gt;dir_2171f7ec022c5423887b07c69b2f5b48 -->
<g id="edge9" class="edge">
<title>dir_604320fddfc5f7c5f68b1318557d3be7&#45;&gt;dir_2171f7ec022c5423887b07c69b2f5b48</title>
<path fill="none" stroke="#000000" d="M283.05,-359.8859C291.857,-350.1885 301.3746,-337.4808 306,-324 319.6656,-284.1711 317.1032,-229.0624 288,-144 284.7876,-134.6108 279.8116,-125.0687 274.7331,-116.6703"/>
<polygon fill="#000000" stroke="#000000" points="277.5812,-114.6266 269.2608,-108.0676 271.6749,-118.3837 277.5812,-114.6266"/>
<g id="a_edge9&#45;headlabel"><a xlink:href="dir_000287_000076.html" target="_top" xlink:title="18">
<text text-anchor="middle" x="281.9061" y="-113.6357" font-family="Helvetica,sans-Serif" font-size="10.00" fill="#000000">18</text>
</a>
</g>
</g>
<!-- dir_bf62c39606f8fafa0737609fac123a3e -->
<g id="node3" class="node">
<title>dir_bf62c39606f8fafa0737609fac123a3e</title>
<g id="a_node3"><a xlink:href="dir_bf62c39606f8fafa0737609fac123a3e.html" target="_top" xlink:title="src">
<polygon fill="#ffffff" stroke="#000000" points="205,-468 151,-468 151,-432 205,-432 205,-468"/>
<text text-anchor="middle" x="178" y="-447.5" font-family="Helvetica,sans-Serif" font-size="10.00" fill="#000000">src</text>
</a>
</g>
</g>
<!-- dir_bf62c39606f8fafa0737609fac123a3e&#45;&gt;dir_604320fddfc5f7c5f68b1318557d3be7 -->
<g id="edge12" class="edge">
<title>dir_bf62c39606f8fafa0737609fac123a3e&#45;&gt;dir_604320fddfc5f7c5f68b1318557d3be7</title>
<path fill="none" stroke="#000000" d="M199.7014,-431.8314C210.1921,-423.0485 222.9455,-412.3712 234.3194,-402.8489"/>
<polygon fill="#000000" stroke="#000000" points="236.8847,-405.2659 242.3055,-396.1628 232.3911,-399.8986 236.8847,-405.2659"/>
<g id="a_edge12&#45;headlabel"><a xlink:href="dir_000315_000287.html" target="_top" xlink:title="4">
<text text-anchor="middle" x="235.9511" y="-407.2504" font-family="Helvetica,sans-Serif" font-size="10.00" fill="#000000">4</text>
</a>
</g>
</g>
<!-- dir_4ab6b4cc6a7edbff49100e9123df213f -->
<g id="node4" class="node">
<title>dir_4ab6b4cc6a7edbff49100e9123df213f</title>
<g id="a_node4"><a xlink:href="dir_4ab6b4cc6a7edbff49100e9123df213f.html" target="_top" xlink:title="Common">
<polygon fill="none" stroke="#ff0000" points="241.5,-252 180.5,-252 180.5,-216 241.5,-216 241.5,-252"/>
<text text-anchor="middle" x="211" y="-231.5" font-family="Helvetica,sans-Serif" font-size="10.00" fill="#000000">Common</text>
</a>
</g>
</g>
<!-- dir_bf62c39606f8fafa0737609fac123a3e&#45;&gt;dir_4ab6b4cc6a7edbff49100e9123df213f -->
<g id="edge10" class="edge">
<title>dir_bf62c39606f8fafa0737609fac123a3e&#45;&gt;dir_4ab6b4cc6a7edbff49100e9123df213f</title>
<path fill="none" stroke="#000000" d="M180.7568,-431.9555C186.5075,-394.3144 199.8187,-307.1867 206.7032,-262.1246"/>
<polygon fill="#000000" stroke="#000000" points="210.1774,-262.559 208.2278,-252.1451 203.2576,-261.5017 210.1774,-262.559"/>
<g id="a_edge10&#45;headlabel"><a xlink:href="dir_000315_000027.html" target="_top" xlink:title="2">
<text text-anchor="middle" x="212.4413" y="-264.0411" font-family="Helvetica,sans-Serif" font-size="10.00" fill="#000000">2</text>
</a>
</g>
</g>
<!-- dir_bf62c39606f8fafa0737609fac123a3e&#45;&gt;dir_63da1bf9cbb165deb85abc813a5acde9 -->
<g id="edge11" class="edge">
<title>dir_bf62c39606f8fafa0737609fac123a3e&#45;&gt;dir_63da1bf9cbb165deb85abc813a5acde9</title>
<path fill="none" stroke="#000000" d="M150.745,-445.2343C120.9782,-438.7633 73.4881,-424.5622 43,-396 10.6481,-365.6917 0,-350.331 0,-306 0,-306 0,-306 0,-162 0,-63.0532 147.0748,-31.3733 218.2693,-21.8343"/>
<polygon fill="#000000" stroke="#000000" points="219.1186,-25.2552 228.6035,-20.5342 218.2448,-18.3099 219.1186,-25.2552"/>
<g id="a_edge11&#45;headlabel"><a xlink:href="dir_000315_000328.html" target="_top" xlink:title="1">
<text text-anchor="middle" x="215.9065" y="-26.0208" font-family="Helvetica,sans-Serif" font-size="10.00" fill="#000000">1</text>
</a>
</g>
</g>
<!-- dir_bcbb2cf9a3d3d83e5515c82071a07177 -->
<g id="node7" class="node">
<title>dir_bcbb2cf9a3d3d83e5515c82071a07177</title>
<g id="a_node7"><a xlink:href="dir_bcbb2cf9a3d3d83e5515c82071a07177.html" target="_top" xlink:title="Framework">
<polygon fill="none" stroke="#ff0000" points="218.5,-180 147.5,-180 147.5,-144 218.5,-144 218.5,-180"/>
<text text-anchor="middle" x="183" y="-159.5" font-family="Helvetica,sans-Serif" font-size="10.00" fill="#000000">Framework</text>
</a>
</g>
</g>
<!-- dir_bf62c39606f8fafa0737609fac123a3e&#45;&gt;dir_bcbb2cf9a3d3d83e5515c82071a07177 -->
<g id="edge13" class="edge">
<title>dir_bf62c39606f8fafa0737609fac123a3e&#45;&gt;dir_bcbb2cf9a3d3d83e5515c82071a07177</title>
<path fill="none" stroke="#000000" d="M163.6942,-431.9714C142.074,-402.5101 104.9117,-341.9195 118,-288 126.9461,-251.1451 148.6694,-213.0109 164.5488,-188.4879"/>
<polygon fill="#000000" stroke="#000000" points="167.5017,-190.3677 170.1002,-180.0965 161.6636,-186.5054 167.5017,-190.3677"/>
<g id="a_edge13&#45;headlabel"><a xlink:href="dir_000315_000013.html" target="_top" xlink:title="1">
<text text-anchor="middle" x="167.8864" y="-192.4322" font-family="Helvetica,sans-Serif" font-size="10.00" fill="#000000">1</text>
</a>
</g>
</g>
<!-- dir_bf62c39606f8fafa0737609fac123a3e&#45;&gt;dir_26637d1bd82229bc9ed97f7e706be743 -->
<g id="edge14" class="edge">
<title>dir_bf62c39606f8fafa0737609fac123a3e&#45;&gt;dir_26637d1bd82229bc9ed97f7e706be743</title>
<path fill="none" stroke="#000000" d="M174.9604,-431.7623C170.8488,-407.0928 163.4766,-362.8598 158.6622,-333.9731"/>
<polygon fill="#000000" stroke="#000000" points="162.1114,-333.3781 157.0149,-324.0896 155.2066,-334.529 162.1114,-333.3781"/>
<g id="a_edge14&#45;headlabel"><a xlink:href="dir_000315_000552.html" target="_top" xlink:title="2">
<text text-anchor="middle" x="165.5029" y="-333.9571" font-family="Helvetica,sans-Serif" font-size="10.00" fill="#000000">2</text>
</a>
</g>
</g>
<!-- dir_bf62c39606f8fafa0737609fac123a3e&#45;&gt;dir_2171f7ec022c5423887b07c69b2f5b48 -->
<g id="edge15" class="edge">
<title>dir_bf62c39606f8fafa0737609fac123a3e&#45;&gt;dir_2171f7ec022c5423887b07c69b2f5b48</title>
<path fill="none" stroke="#000000" d="M150.6742,-437.2884C109.9317,-416.2269 38,-369.9823 38,-306 38,-306 38,-306 38,-234 38,-154.0247 141.411,-115.9056 205.7865,-99.9238"/>
<polygon fill="#000000" stroke="#000000" points="206.8456,-103.2695 215.7614,-97.5459 205.2223,-96.4603 206.8456,-103.2695"/>
<g id="a_edge15&#45;headlabel"><a xlink:href="dir_000315_000076.html" target="_top" xlink:title="6">
<text text-anchor="middle" x="204.0074" y="-104.3649" font-family="Helvetica,sans-Serif" font-size="10.00" fill="#000000">6</text>
</a>
</g>
</g>
<!-- dir_4ab6b4cc6a7edbff49100e9123df213f&#45;&gt;dir_bcbb2cf9a3d3d83e5515c82071a07177 -->
<g id="edge1" class="edge">
<title>dir_4ab6b4cc6a7edbff49100e9123df213f&#45;&gt;dir_bcbb2cf9a3d3d83e5515c82071a07177</title>
<path fill="none" stroke="#000000" d="M197.982,-215.8314C194.1958,-208.0463 190.3721,-198.7729 187.3366,-190.1347"/>
<polygon fill="#000000" stroke="#000000" points="190.5983,-188.8463 184.1847,-180.4133 183.9395,-191.0053 190.5983,-188.8463"/>
<g id="a_edge1&#45;headlabel"><a xlink:href="dir_000027_000013.html" target="_top" xlink:title="2">
<text text-anchor="middle" x="194.4077" y="-188.8901" font-family="Helvetica,sans-Serif" font-size="10.00" fill="#000000">2</text>
</a>
</g>
</g>
<!-- dir_4ab6b4cc6a7edbff49100e9123df213f&#45;&gt;dir_2171f7ec022c5423887b07c69b2f5b48 -->
<g id="edge2" class="edge">
<title>dir_4ab6b4cc6a7edbff49100e9123df213f&#45;&gt;dir_2171f7ec022c5423887b07c69b2f5b48</title>
<path fill="none" stroke="#000000" d="M208.9108,-215.5105C211.1252,-205.0848 215.3012,-191.8188 219,-180 225.4961,-159.2431 232.7945,-135.7792 239.5706,-118.0146"/>
<polygon fill="#000000" stroke="#000000" points="243.0028,-118.8608 243.4899,-108.2771 236.5091,-116.247 243.0028,-118.8608"/>
<g id="a_edge2&#45;headlabel"><a xlink:href="dir_000027_000076.html" target="_top" xlink:title="2">
<text text-anchor="middle" x="244.2946" y="-120.7555" font-family="Helvetica,sans-Serif" font-size="10.00" fill="#000000">2</text>
</a>
</g>
</g>
<!-- dir_37c90836491b695b472bf98d1be8336b&#45;&gt;dir_4ab6b4cc6a7edbff49100e9123df213f -->
<g id="edge3" class="edge">
<title>dir_37c90836491b695b472bf98d1be8336b&#45;&gt;dir_4ab6b4cc6a7edbff49100e9123df213f</title>
<path fill="none" stroke="#000000" d="M255.1118,-287.8314C248.247,-279.454 239.9699,-269.3531 232.4489,-260.1749"/>
<polygon fill="#000000" stroke="#000000" points="235.1341,-257.9297 226.0886,-252.4133 229.7197,-262.3665 235.1341,-257.9297"/>
<g id="a_edge3&#45;headlabel"><a xlink:href="dir_000273_000027.html" target="_top" xlink:title="16">
<text text-anchor="middle" x="239.6085" y="-256.4104" font-family="Helvetica,sans-Serif" font-size="10.00" fill="#000000">16</text>
</a>
</g>
</g>
<!-- dir_37c90836491b695b472bf98d1be8336b&#45;&gt;dir_bcbb2cf9a3d3d83e5515c82071a07177 -->
<g id="edge4" class="edge">
<title>dir_37c90836491b695b472bf98d1be8336b&#45;&gt;dir_bcbb2cf9a3d3d83e5515c82071a07177</title>
<path fill="none" stroke="#000000" d="M269.7199,-287.7622C268.6502,-268.5721 264.691,-238.1387 251,-216 243.8601,-204.4546 233.3298,-194.3502 222.6775,-186.1014"/>
<polygon fill="#000000" stroke="#000000" points="224.6989,-183.2436 214.562,-180.1621 220.5648,-188.8924 224.6989,-183.2436"/>
<g id="a_edge4&#45;headlabel"><a xlink:href="dir_000273_000013.html" target="_top" xlink:title="1">
<text text-anchor="middle" x="229.2764" y="-180.5752" font-family="Helvetica,sans-Serif" font-size="10.00" fill="#000000">1</text>
</a>
</g>
</g>
<!-- dir_37c90836491b695b472bf98d1be8336b&#45;&gt;dir_2171f7ec022c5423887b07c69b2f5b48 -->
<g id="edge5" class="edge">
<title>dir_37c90836491b695b472bf98d1be8336b&#45;&gt;dir_2171f7ec022c5423887b07c69b2f5b48</title>
<path fill="none" stroke="#000000" d="M262.5002,-287.5068C261.6467,-277.08 261.8906,-263.814 262,-252 262.1481,-236.0007 262.9474,-231.9719 262,-216 260.0027,-182.3266 255.0281,-143.8564 253.2785,-118.3754"/>
<polygon fill="#000000" stroke="#000000" points="256.769,-118.1026 252.7442,-108.302 249.7789,-118.4734 256.769,-118.1026"/>
<g id="a_edge5&#45;headlabel"><a xlink:href="dir_000273_000076.html" target="_top" xlink:title="10">
<text text-anchor="middle" x="259.7946" y="-119.0418" font-family="Helvetica,sans-Serif" font-size="10.00" fill="#000000">10</text>
</a>
</g>
</g>
<!-- dir_bcbb2cf9a3d3d83e5515c82071a07177&#45;&gt;dir_4ab6b4cc6a7edbff49100e9123df213f -->
<g id="edge16" class="edge">
<title>dir_bcbb2cf9a3d3d83e5515c82071a07177&#45;&gt;dir_4ab6b4cc6a7edbff49100e9123df213f</title>
<path fill="none" stroke="#000000" d="M196.1367,-180.4133C199.9236,-188.2292 203.7394,-197.5113 206.7584,-206.136"/>
<polygon fill="#000000" stroke="#000000" points="203.485,-207.3893 209.8868,-215.8314 210.1468,-205.2397 203.485,-207.3893"/>
<g id="a_edge16&#45;headlabel"><a xlink:href="dir_000013_000027.html" target="_top" xlink:title="8">
<text text-anchor="middle" x="199.6792" y="-202.3403" font-family="Helvetica,sans-Serif" font-size="10.00" fill="#000000">8</text>
</a>
</g>
</g>
<!-- dir_bcbb2cf9a3d3d83e5515c82071a07177&#45;&gt;dir_2171f7ec022c5423887b07c69b2f5b48 -->
<g id="edge17" class="edge">
<title>dir_bcbb2cf9a3d3d83e5515c82071a07177&#45;&gt;dir_2171f7ec022c5423887b07c69b2f5b48</title>
<path fill="none" stroke="#000000" d="M195.4686,-143.8314C203.4394,-135.1337 213.9694,-124.5783 224.056,-115.1265"/>
<polygon fill="#000000" stroke="#000000" points="226.6386,-117.5066 231.6331,-108.1628 221.9019,-112.3526 226.6386,-117.5066"/>
<g id="a_edge17&#45;headlabel"><a xlink:href="dir_000013_000076.html" target="_top" xlink:title="82">
<text text-anchor="middle" x="225.9132" y="-119.5294" font-family="Helvetica,sans-Serif" font-size="10.00" fill="#000000">82</text>
</a>
</g>
</g>
<!-- dir_26637d1bd82229bc9ed97f7e706be743&#45;&gt;dir_4ab6b4cc6a7edbff49100e9123df213f -->
<g id="edge18" class="edge">
<title>dir_26637d1bd82229bc9ed97f7e706be743&#45;&gt;dir_4ab6b4cc6a7edbff49100e9123df213f</title>
<path fill="none" stroke="#000000" d="M168.3835,-287.8314C174.9486,-279.5386 182.8507,-269.557 190.0578,-260.4533"/>
<polygon fill="#000000" stroke="#000000" points="192.9599,-262.4262 196.4228,-252.4133 187.4716,-258.0813 192.9599,-262.4262"/>
<g id="a_edge18&#45;headlabel"><a xlink:href="dir_000552_000027.html" target="_top" xlink:title="9">
<text text-anchor="middle" x="192.9549" y="-264.5069" font-family="Helvetica,sans-Serif" font-size="10.00" fill="#000000">9</text>
</a>
</g>
</g>
<!-- dir_26637d1bd82229bc9ed97f7e706be743&#45;&gt;dir_bcbb2cf9a3d3d83e5515c82071a07177 -->
<g id="edge19" class="edge">
<title>dir_26637d1bd82229bc9ed97f7e706be743&#45;&gt;dir_bcbb2cf9a3d3d83e5515c82071a07177</title>
<path fill="none" stroke="#000000" d="M157.6353,-287.7247C161.2575,-269.5383 166.9871,-240.8349 172,-216 173.6771,-207.6913 175.5108,-198.6662 177.1919,-190.4155"/>
<polygon fill="#000000" stroke="#000000" points="180.647,-190.9889 179.2164,-180.4911 173.7882,-189.5897 180.647,-190.9889"/>
<g id="a_edge19&#45;headlabel"><a xlink:href="dir_000552_000013.html" target="_top" xlink:title="25">
<text text-anchor="middle" x="182.7106" y="-192.5784" font-family="Helvetica,sans-Serif" font-size="10.00" fill="#000000">25</text>
</a>
</g>
</g>
<!-- dir_26637d1bd82229bc9ed97f7e706be743&#45;&gt;dir_2171f7ec022c5423887b07c69b2f5b48 -->
<g id="edge20" class="edge">
<title>dir_26637d1bd82229bc9ed97f7e706be743&#45;&gt;dir_2171f7ec022c5423887b07c69b2f5b48</title>
<path fill="none" stroke="#000000" d="M145.5432,-287.7592C132.1159,-255.837 110.2287,-188.9669 139,-144 153.8488,-120.7927 181.4876,-107.417 206.1744,-99.7843"/>
<polygon fill="#000000" stroke="#000000" points="207.154,-103.1445 215.8126,-97.0387 205.2363,-96.4123 207.154,-103.1445"/>
<g id="a_edge20&#45;headlabel"><a xlink:href="dir_000552_000076.html" target="_top" xlink:title="15">
<text text-anchor="middle" x="204.4748" y="-104.3599" font-family="Helvetica,sans-Serif" font-size="10.00" fill="#000000">15</text>
</a>
</g>
</g>
<!-- dir_2171f7ec022c5423887b07c69b2f5b48&#45;&gt;dir_4ab6b4cc6a7edbff49100e9123df213f -->
<g id="edge21" class="edge">
<title>dir_2171f7ec022c5423887b07c69b2f5b48&#45;&gt;dir_4ab6b4cc6a7edbff49100e9123df213f</title>
<path fill="none" stroke="#000000" d="M257.1772,-108.2771C253.6902,-126.4648 244.7711,-155.1693 237,-180 234.3415,-188.4947 231.4364,-197.7372 228.3935,-206.1352"/>
<polygon fill="#000000" stroke="#000000" points="225.1104,-204.9213 224.7646,-215.5105 231.6384,-207.4481 225.1104,-204.9213"/>
<g id="a_edge21&#45;headlabel"><a xlink:href="dir_000076_000027.html" target="_top" xlink:title="34">
<text text-anchor="middle" x="223.7601" y="-198.0441" font-family="Helvetica,sans-Serif" font-size="10.00" fill="#000000">34</text>
</a>
</g>
</g>
<!-- dir_2171f7ec022c5423887b07c69b2f5b48&#45;&gt;dir_37c90836491b695b472bf98d1be8336b -->
<g id="edge22" class="edge">
<title>dir_2171f7ec022c5423887b07c69b2f5b48&#45;&gt;dir_37c90836491b695b472bf98d1be8336b</title>
<path fill="none" stroke="#000000" d="M264.9942,-108.302C271.546,-132.767 277.7173,-177.5161 280,-216 280.9474,-231.9719 280.1481,-236.0007 280,-252 279.9239,-260.2144 279.7828,-269.1309 279.2694,-277.3067"/>
<polygon fill="#000000" stroke="#000000" points="275.7619,-277.234 278.354,-287.5068 282.7339,-277.8597 275.7619,-277.234"/>
<g id="a_edge22&#45;headlabel"><a xlink:href="dir_000076_000273.html" target="_top" xlink:title="1">
<text text-anchor="middle" x="273.2552" y="-270.9" font-family="Helvetica,sans-Serif" font-size="10.00" fill="#000000">1</text>
</a>
</g>
</g>
<!-- dir_2171f7ec022c5423887b07c69b2f5b48&#45;&gt;dir_63da1bf9cbb165deb85abc813a5acde9 -->
<g id="edge23" class="edge">
<title>dir_2171f7ec022c5423887b07c69b2f5b48&#45;&gt;dir_63da1bf9cbb165deb85abc813a5acde9</title>
<path fill="none" stroke="#000000" d="M256,-71.8314C256,-64.131 256,-54.9743 256,-46.4166"/>
<polygon fill="#000000" stroke="#000000" points="259.5001,-46.4132 256,-36.4133 252.5001,-46.4133 259.5001,-46.4132"/>
<g id="a_edge23&#45;headlabel"><a xlink:href="dir_000076_000328.html" target="_top" xlink:title="1">
<text text-anchor="middle" x="262.3393" y="-47.5079" font-family="Helvetica,sans-Serif" font-size="10.00" fill="#000000">1</text>
</a>
</g>
</g>
<!-- dir_2171f7ec022c5423887b07c69b2f5b48&#45;&gt;dir_bcbb2cf9a3d3d83e5515c82071a07177 -->
<g id="edge24" class="edge">
<title>dir_2171f7ec022c5423887b07c69b2f5b48&#45;&gt;dir_bcbb2cf9a3d3d83e5515c82071a07177</title>
<path fill="none" stroke="#000000" d="M243.307,-108.4133C235.3498,-117.0787 224.9,-127.5464 214.8919,-136.9223"/>
<polygon fill="#000000" stroke="#000000" points="212.3684,-134.4879 207.3734,-143.8314 217.1048,-139.6422 212.3684,-134.4879"/>
<g id="a_edge24&#45;headlabel"><a xlink:href="dir_000076_000013.html" target="_top" xlink:title="7">
<text text-anchor="middle" x="213.094" y="-127.4651" font-family="Helvetica,sans-Serif" font-size="10.00" fill="#000000">7</text>
</a>
</g>
</g>
</g>
</svg>
        <g id="navigator" transform="translate(0 0)" fill="#404254">
                <rect fill="#f2f5e9" fill-opacity="0.5" stroke="#606060" stroke-width=".5" x="0" y="0" width="60" height="60"/>
                <use id="zoomplus" xlink:href="#zoomPlus" x="17" y="9" onmousedown="handleZoom(evt,'in')"/>
                <use id="zoomminus" xlink:href="#zoomMin" x="42" y="9" onmousedown="handleZoom(evt,'out')"/>
                <use id="reset" xlink:href="#resetDef" x="30" y="36" onmousedown="handleReset()"/>
                <g id="arrowUp" xlink:href="#dirArrow" transform="translate(30 24)" onmousedown="handlePan(0,-1)">
                  <use xlink:href="#rim" fill="#404040">
                        <set attributeName="fill" to="#808080" begin="arrowUp.mouseover" end="arrowUp.mouseout"/>
                  </use>
                  <path fill="none" stroke="white" stroke-width="1.5" d="M0,-3.0v7 M-2.5,-0.5L0,-3.0L2.5,-0.5"/>
                </g>
                <g id="arrowRight" xlink:href="#dirArrow" transform="rotate(90) translate(36 -43)" onmousedown="handlePan(1,0)">
                  <use xlink:href="#rim" fill="#404040">
                        <set attributeName="fill" to="#808080" begin="arrowRight.mouseover" end="arrowRight.mouseout"/>
                  </use>
                  <path fill="none" stroke="white" stroke-width="1.5" d="M0,-3.0v7 M-2.5,-0.5L0,-3.0L2.5,-0.5"/>
                </g>
                <g id="arrowDown" xlink:href="#dirArrow" transform="rotate(180) translate(-30 -48)" onmousedown="handlePan(0,1)">
                  <use xlink:href="#rim" fill="#404040">
                        <set attributeName="fill" to="#808080" begin="arrowDown.mouseover" end="arrowDown.mouseout"/>
                  </use>
                  <path fill="none" stroke="white" stroke-width="1.5" d="M0,-3.0v7 M-2.5,-0.5L0,-3.0L2.5,-0.5"/>
                </g>
                <g id="arrowLeft" xlink:href="#dirArrow" transform="rotate(270) translate(-36 17)" onmousedown="handlePan(-1,0)">
                  <use xlink:href="#rim" fill="#404040">
                        <set attributeName="fill" to="#808080" begin="arrowLeft.mouseover" end="arrowLeft.mouseout"/>
                  </use>
                  <path fill="none" stroke="white" stroke-width="1.5" d="M0,-3.0v7 M-2.5,-0.5L0,-3.0L2.5,-0.5"/>
                </g>
        </g>
        <svg viewBox="0 0 15 15" width="100%" height="30px" preserveAspectRatio="xMaxYMin meet">
         <g id="arrow_out" transform="scale(0.3 0.3)">
          <a xlink:href="dir_dde9e01e42e5df81e682067abb84b2d4_dep_org.svg" target="_base">
           <rect id="button" ry="5" rx="5" y="6" x="6" height="38" width="38"
                fill="#f2f5e9" fill-opacity="0.5" stroke="#606060" stroke-width="1.0"/>
           <path id="arrow"
             d="M 11.500037,31.436501 C 11.940474,20.09759 22.043105,11.32322 32.158766,21.979434 L 37.068811,17.246167 C 37.068811,17.246167 37.088388,32 37.088388,32 L 22.160133,31.978069 C 22.160133,31.978069 26.997745,27.140456 26.997745,27.140456 C 18.528582,18.264221 13.291696,25.230495 11.500037,31.436501 z"
             style="fill:#404040;"/>
          </a>
         </g>
        </svg>
</svg>
