<?xml version="1.0" encoding="UTF-8" standalone="no"?>
<!DOCTYPE svg PUBLIC "-//W3C//DTD SVG 1.1//EN"
 "http://www.w3.org/Graphics/SVG/1.1/DTD/svg11.dtd">
<!-- Generated by graphviz version 2.40.1 (20161225.0304)
 -->
<!-- Title: Graphical Class Hierarchy Pages: 1 -->
<svg width="229pt" height="78pt"
 viewBox="0.00 0.00 229.00 77.50" xmlns="http://www.w3.org/2000/svg" xmlns:xlink="http://www.w3.org/1999/xlink">
<g id="graph0" class="graph" transform="scale(1 1) rotate(0) translate(4 73.5)">
<title>Graphical Class Hierarchy</title>
<!-- Node2596 -->
<g id="node1" class="node">
<title>Node2596</title>
<polygon fill="none" stroke="#bfbfbf" points="0,-28 0,-47 29,-47 29,-28 0,-28"/>
<text text-anchor="middle" x="14.5" y="-35" font-family="Helvetica,sans-Serif" font-size="10.00" fill="#000000">T</text>
</g>
<!-- Node0 -->
<g id="node2" class="node">
<title>Node0</title>
<g id="a_node2"><a xlink:href="dd/ddc/classo2_1_1soa_1_1Filtered.html" target="_top" xlink:title="o2::soa::Filtered\&lt; T \&gt;">
<polygon fill="none" stroke="#000000" points="82,-50 82,-69 204,-69 204,-50 82,-50"/>
<text text-anchor="middle" x="143" y="-57" font-family="Helvetica,sans-Serif" font-size="10.00" fill="#000000">o2::soa::Filtered&lt; T &gt;</text>
</a>
</g>
</g>
<!-- Node2596&#45;&gt;Node0 -->
<g id="edge1" class="edge">
<title>Node2596&#45;&gt;Node0</title>
<path fill="none" stroke="#191970" d="M39.3121,-41.748C53.0282,-44.0963 70.655,-47.1141 87.47,-49.9929"/>
<polygon fill="#191970" stroke="#191970" points="39.6878,-38.2615 29.2406,-40.0237 38.5065,-45.1611 39.6878,-38.2615"/>
</g>
<!-- Node2598 -->
<g id="node3" class="node">
<title>Node2598</title>
<g id="a_node3"><a xlink:href="d5/d8c/structo2_1_1tpc_1_1CompressedClustersPtrs__helper.html" target="_top" xlink:title="o2::tpc::CompressedClusters\lPtrs_helper\&lt; T \&gt;">
<polygon fill="none" stroke="#000000" points="65,-.5 65,-30.5 221,-30.5 221,-.5 65,-.5"/>
<text text-anchor="start" x="73" y="-18.5" font-family="Helvetica,sans-Serif" font-size="10.00" fill="#000000">o2::tpc::CompressedClusters</text>
<text text-anchor="middle" x="143" y="-7.5" font-family="Helvetica,sans-Serif" font-size="10.00" fill="#000000">Ptrs_helper&lt; T &gt;</text>
</a>
</g>
</g>
<!-- Node2596&#45;&gt;Node2598 -->
<g id="edge2" class="edge">
<title>Node2596&#45;&gt;Node2598</title>
<path fill="none" stroke="#191970" d="M39.3515,-33.2453C46.8905,-31.9545 55.6083,-30.462 64.722,-28.9017"/>
<polygon fill="#191970" stroke="#191970" points="38.5065,-29.8389 29.2406,-34.9763 39.6878,-36.7385 38.5065,-29.8389"/>
</g>
</g>
</svg>
