<?xml version="1.0" encoding="UTF-8" standalone="no"?>
<!DOCTYPE svg PUBLIC "-//W3C//DTD SVG 1.1//EN"
 "http://www.w3.org/Graphics/SVG/1.1/DTD/svg11.dtd">
<!-- Generated by graphviz version 2.40.1 (20161225.0304)
 -->
<!-- Title: Graphical Class Hierarchy Pages: 1 -->
<svg width="547pt" height="345pt"
 viewBox="0.00 0.00 547.00 345.00" xmlns="http://www.w3.org/2000/svg" xmlns:xlink="http://www.w3.org/1999/xlink">
<g id="graph0" class="graph" transform="scale(1 1) rotate(0) translate(4 341)">
<title>Graphical Class Hierarchy</title>
<!-- Node0 -->
<g id="node1" class="node">
<title>Node0</title>
<g id="a_node1"><a xlink:href="dc/d5e/classGPUCA__NAMESPACE_1_1gpu_1_1FlatObject.html" target="_top" xlink:title="GPUCA_GPUCODE. ">
<polygon fill="none" stroke="#000000" points="0,-159.5 0,-189.5 140,-189.5 140,-159.5 0,-159.5"/>
<text text-anchor="start" x="8" y="-177.5" font-family="Helvetica,sans-Serif" font-size="10.00" fill="#000000">GPUCA_NAMESPACE::gpu</text>
<text text-anchor="middle" x="70" y="-166.5" font-family="Helvetica,sans-Serif" font-size="10.00" fill="#000000">::FlatObject</text>
</a>
</g>
</g>
<!-- Node1 -->
<g id="node2" class="node">
<title>Node1</title>
<g id="a_node2"><a xlink:href="de/d7d/classGPUCA__NAMESPACE_1_1gpu_1_1IrregularSpline1D.html" target="_top" xlink:title="GPUCA_NAMESPACE::gpu\l::IrregularSpline1D">
<polygon fill="none" stroke="#000000" points="193.5,-306.5 193.5,-336.5 333.5,-336.5 333.5,-306.5 193.5,-306.5"/>
<text text-anchor="start" x="201.5" y="-324.5" font-family="Helvetica,sans-Serif" font-size="10.00" fill="#000000">GPUCA_NAMESPACE::gpu</text>
<text text-anchor="middle" x="263.5" y="-313.5" font-family="Helvetica,sans-Serif" font-size="10.00" fill="#000000">::IrregularSpline1D</text>
</a>
</g>
</g>
<!-- Node0&#45;&gt;Node1 -->
<g id="edge1" class="edge">
<title>Node0&#45;&gt;Node1</title>
<path fill="none" stroke="#191970" d="M84.1966,-198.2453C102.1149,-226.1637 135.5358,-271.9276 176,-297.5 181.4595,-300.9503 187.4146,-303.911 193.5665,-306.4504"/>
<polygon fill="#191970" stroke="#191970" points="87.0025,-196.1314 78.7265,-189.5164 81.0709,-199.8486 87.0025,-196.1314"/>
</g>
<!-- Node2 -->
<g id="node3" class="node">
<title>Node2</title>
<g id="a_node3"><a xlink:href="d5/d77/classGPUCA__NAMESPACE_1_1gpu_1_1IrregularSpline2D3D.html" target="_top" xlink:title="GPUCA_NAMESPACE::gpu\l::IrregularSpline2D3D">
<polygon fill="none" stroke="#000000" points="193.5,-257.5 193.5,-287.5 333.5,-287.5 333.5,-257.5 193.5,-257.5"/>
<text text-anchor="start" x="201.5" y="-275.5" font-family="Helvetica,sans-Serif" font-size="10.00" fill="#000000">GPUCA_NAMESPACE::gpu</text>
<text text-anchor="middle" x="263.5" y="-264.5" font-family="Helvetica,sans-Serif" font-size="10.00" fill="#000000">::IrregularSpline2D3D</text>
</a>
</g>
</g>
<!-- Node0&#45;&gt;Node2 -->
<g id="edge2" class="edge">
<title>Node0&#45;&gt;Node2</title>
<path fill="none" stroke="#191970" d="M95.5049,-196.0737C116.0705,-212.5037 146.3543,-234.5948 176,-248.5 183.1306,-251.8446 190.8137,-254.7982 198.5614,-257.386"/>
<polygon fill="#191970" stroke="#191970" points="97.554,-193.2289 87.585,-189.6412 93.1408,-198.6625 97.554,-193.2289"/>
</g>
<!-- Node3 -->
<g id="node4" class="node">
<title>Node3</title>
<g id="a_node4"><a xlink:href="d2/def/classGPUCA__NAMESPACE_1_1gpu_1_1SemiregularSpline2D3D.html" target="_top" xlink:title="GPUCA_NAMESPACE::gpu\l::SemiregularSpline2D3D">
<polygon fill="none" stroke="#000000" points="193.5,-208.5 193.5,-238.5 333.5,-238.5 333.5,-208.5 193.5,-208.5"/>
<text text-anchor="start" x="201.5" y="-226.5" font-family="Helvetica,sans-Serif" font-size="10.00" fill="#000000">GPUCA_NAMESPACE::gpu</text>
<text text-anchor="middle" x="263.5" y="-215.5" font-family="Helvetica,sans-Serif" font-size="10.00" fill="#000000">::SemiregularSpline2D3D</text>
</a>
</g>
</g>
<!-- Node0&#45;&gt;Node3 -->
<g id="edge3" class="edge">
<title>Node0&#45;&gt;Node3</title>
<path fill="none" stroke="#191970" d="M139.3038,-192.0498C160.5525,-197.4306 183.7268,-203.299 204.2409,-208.4938"/>
<polygon fill="#191970" stroke="#191970" points="139.9246,-188.5966 129.3714,-189.5346 138.2062,-195.3824 139.9246,-188.5966"/>
</g>
<!-- Node4 -->
<g id="node5" class="node">
<title>Node4</title>
<g id="a_node5"><a xlink:href="d0/d36/classGPUCA__NAMESPACE_1_1gpu_1_1Spline1D.html" target="_top" xlink:title="GPUCA_NAMESPACE::gpu\l::Spline1D\&lt; DataT \&gt;">
<polygon fill="none" stroke="#000000" points="193.5,-159.5 193.5,-189.5 333.5,-189.5 333.5,-159.5 193.5,-159.5"/>
<text text-anchor="start" x="201.5" y="-177.5" font-family="Helvetica,sans-Serif" font-size="10.00" fill="#000000">GPUCA_NAMESPACE::gpu</text>
<text text-anchor="middle" x="263.5" y="-166.5" font-family="Helvetica,sans-Serif" font-size="10.00" fill="#000000">::Spline1D&lt; DataT &gt;</text>
</a>
</g>
</g>
<!-- Node0&#45;&gt;Node4 -->
<g id="edge4" class="edge">
<title>Node0&#45;&gt;Node4</title>
<path fill="none" stroke="#191970" d="M150.3939,-174.5C164.6309,-174.5 179.3545,-174.5 193.2829,-174.5"/>
<polygon fill="#191970" stroke="#191970" points="150.1316,-171.0001 140.1315,-174.5 150.1315,-178.0001 150.1316,-171.0001"/>
</g>
<!-- Node5 -->
<g id="node6" class="node">
<title>Node5</title>
<g id="a_node6"><a xlink:href="df/d20/classGPUCA__NAMESPACE_1_1gpu_1_1Spline2DBase.html" target="_top" xlink:title="Base class to store data members and non&#45;inline methods. ">
<polygon fill="none" stroke="#000000" points="193.5,-99 193.5,-140 333.5,-140 333.5,-99 193.5,-99"/>
<text text-anchor="start" x="201.5" y="-128" font-family="Helvetica,sans-Serif" font-size="10.00" fill="#000000">GPUCA_NAMESPACE::gpu</text>
<text text-anchor="start" x="201.5" y="-117" font-family="Helvetica,sans-Serif" font-size="10.00" fill="#000000">::Spline2DBase&lt; DataT,</text>
<text text-anchor="middle" x="263.5" y="-106" font-family="Helvetica,sans-Serif" font-size="10.00" fill="#000000"> isConsistentT &gt;</text>
</a>
</g>
</g>
<!-- Node0&#45;&gt;Node5 -->
<g id="edge5" class="edge">
<title>Node0&#45;&gt;Node5</title>
<path fill="none" stroke="#191970" d="M132.5036,-156.7341C151.8925,-151.2231 173.3883,-145.1132 193.2658,-139.4632"/>
<polygon fill="#191970" stroke="#191970" points="131.5368,-153.3702 122.8747,-159.471 133.4507,-160.1035 131.5368,-153.3702"/>
</g>
<!-- Node7 -->
<g id="node8" class="node">
<title>Node7</title>
<g id="a_node8"><a xlink:href="d6/d2c/classGPUCA__NAMESPACE_1_1gpu_1_1TPCFastSpaceChargeCorrection.html" target="_top" xlink:title="GPUCA_NAMESPACE::gpu\l::TPCFastSpaceChargeCorrection">
<polygon fill="none" stroke="#000000" points="176,-49.5 176,-79.5 351,-79.5 351,-49.5 176,-49.5"/>
<text text-anchor="start" x="184" y="-67.5" font-family="Helvetica,sans-Serif" font-size="10.00" fill="#000000">GPUCA_NAMESPACE::gpu</text>
<text text-anchor="middle" x="263.5" y="-56.5" font-family="Helvetica,sans-Serif" font-size="10.00" fill="#000000">::TPCFastSpaceChargeCorrection</text>
</a>
</g>
</g>
<!-- Node0&#45;&gt;Node7 -->
<g id="edge7" class="edge">
<title>Node0&#45;&gt;Node7</title>
<path fill="none" stroke="#191970" d="M92.2087,-152.2386C112.4517,-133.1005 143.9967,-106.0433 176,-89.5 183.298,-85.7275 191.2414,-82.4561 199.267,-79.6378"/>
<polygon fill="#191970" stroke="#191970" points="89.5479,-149.9418 84.7702,-159.3983 94.4022,-154.9852 89.5479,-149.9418"/>
</g>
<!-- Node8 -->
<g id="node9" class="node">
<title>Node8</title>
<g id="a_node9"><a xlink:href="d2/d47/classGPUCA__NAMESPACE_1_1gpu_1_1TPCFastTransform.html" target="_top" xlink:title="GPUCA_NAMESPACE::gpu\l::TPCFastTransform">
<polygon fill="none" stroke="#000000" points="193.5,-.5 193.5,-30.5 333.5,-30.5 333.5,-.5 193.5,-.5"/>
<text text-anchor="start" x="201.5" y="-18.5" font-family="Helvetica,sans-Serif" font-size="10.00" fill="#000000">GPUCA_NAMESPACE::gpu</text>
<text text-anchor="middle" x="263.5" y="-7.5" font-family="Helvetica,sans-Serif" font-size="10.00" fill="#000000">::TPCFastTransform</text>
</a>
</g>
</g>
<!-- Node0&#45;&gt;Node8 -->
<g id="edge8" class="edge">
<title>Node0&#45;&gt;Node8</title>
<path fill="none" stroke="#191970" d="M82.9497,-150.0366C100.1926,-119.8206 133.5177,-68.9393 176,-40.5 181.7766,-36.6329 188.1523,-33.3566 194.7506,-30.5823"/>
<polygon fill="#191970" stroke="#191970" points="79.7292,-148.626 77.9252,-159.0662 85.846,-152.0297 79.7292,-148.626"/>
</g>
<!-- Node6 -->
<g id="node7" class="node">
<title>Node6</title>
<g id="a_node7"><a xlink:href="d3/dc3/classGPUCA__NAMESPACE_1_1gpu_1_1Spline2D.html" target="_top" xlink:title="GPUCA_NAMESPACE::gpu\l::Spline2D\&lt; DataT, nFdimT,\l isConsistentT \&gt;">
<polygon fill="none" stroke="#000000" points="387,-99 387,-140 539,-140 539,-99 387,-99"/>
<text text-anchor="start" x="395" y="-128" font-family="Helvetica,sans-Serif" font-size="10.00" fill="#000000">GPUCA_NAMESPACE::gpu</text>
<text text-anchor="start" x="395" y="-117" font-family="Helvetica,sans-Serif" font-size="10.00" fill="#000000">::Spline2D&lt; DataT, nFdimT,</text>
<text text-anchor="middle" x="463" y="-106" font-family="Helvetica,sans-Serif" font-size="10.00" fill="#000000"> isConsistentT &gt;</text>
</a>
</g>
</g>
<!-- Node5&#45;&gt;Node6 -->
<g id="edge6" class="edge">
<title>Node5&#45;&gt;Node6</title>
<path fill="none" stroke="#191970" d="M343.7516,-119.5C357.9099,-119.5 372.6136,-119.5 386.6608,-119.5"/>
<polygon fill="#191970" stroke="#191970" points="343.5557,-116.0001 333.5557,-119.5 343.5557,-123.0001 343.5557,-116.0001"/>
</g>
</g>
</svg>
