<?xml version="1.0" encoding="UTF-8" standalone="no"?>
<!DOCTYPE svg PUBLIC "-//W3C//DTD SVG 1.1//EN"
 "http://www.w3.org/Graphics/SVG/1.1/DTD/svg11.dtd">
<!-- Generated by graphviz version 2.40.1 (20161225.0304)
 -->
<!-- Title: /home/travis/build/AliceO2Group/AliceO2/Detectors/MUON/MCH/Raw/Tools/rawdump.cxx Pages: 1 -->
<!--zoomable 296 -->
<svg id="main" version="1.1" xmlns="http://www.w3.org/2000/svg" xmlns:xlink="http://www.w3.org/1999/xlink" xml:space="preserve" onload="init(evt)">
<style type="text/css"><![CDATA[
.edge:hover path { stroke: red; }
.edge:hover polygon { stroke: red; fill: red; }
]]></style>
<script type="text/javascript"><![CDATA[
var edges = document.getElementsByTagName('g');
if (edges && edges.length) {
  for (var i=0;i<edges.length;i++) {
    if (edges[i].id.substr(0,4)=='edge') {
      edges[i].setAttribute('class','edge');
    }
  }
}
]]></script>
        <defs>
                <circle id="rim" cx="0" cy="0" r="7"/>
                <circle id="rim2" cx="0" cy="0" r="3.5"/>
                <g id="zoomPlus">
                        <use xlink:href="#rim" fill="#404040">
                                <set attributeName="fill" to="#808080" begin="zoomplus.mouseover" end="zoomplus.mouseout"/>
                        </use>
                        <path d="M-4,0h8M0,-4v8" fill="none" stroke="white" stroke-width="1.5" pointer-events="none"/>
                </g>
                <g id="zoomMin">
                        <use xlink:href="#rim" fill="#404040">
                                <set attributeName="fill" to="#808080" begin="zoomminus.mouseover" end="zoomminus.mouseout"/>
                        </use>
                        <path d="M-4,0h8" fill="none" stroke="white" stroke-width="1.5" pointer-events="none"/>
                </g>
                <g id="dirArrow">
                        <path fill="none" stroke="white" stroke-width="1.5" d="M0,-3.0v7 M-2.5,-0.5L0,-3.0L2.5,-0.5"/>
                </g>
               <g id="resetDef">
                       <use xlink:href="#rim2" fill="#404040">
                               <set attributeName="fill" to="#808080" begin="reset.mouseover" end="reset.mouseout"/>
                       </use>
               </g>
        </defs>

<script type="text/javascript">
var viewWidth = 2318;
var viewHeight = 296;
var sectionId = 'dynsection-0';
</script>
<script xlink:href="../../svgpan.js"/>
<svg id="graph" class="graph">
<g id="viewport">
<title>/home/travis/build/AliceO2Group/AliceO2/Detectors/MUON/MCH/Raw/Tools/rawdump.cxx</title>
<!-- Node0 -->
<g id="node1" class="node">
<title>Node0</title>
<polygon fill="#bfbfbf" stroke="#000000" points="1454.916,-235.5 1454.916,-287.5 1604.916,-287.5 1604.916,-235.5 1454.916,-235.5"/>
<text text-anchor="start" x="1462.916" y="-275.5" font-family="Helvetica,sans-Serif" font-size="10.00" fill="#000000">/home/travis/build</text>
<text text-anchor="start" x="1462.916" y="-264.5" font-family="Helvetica,sans-Serif" font-size="10.00" fill="#000000">/AliceO2Group/AliceO2</text>
<text text-anchor="start" x="1462.916" y="-253.5" font-family="Helvetica,sans-Serif" font-size="10.00" fill="#000000">/Detectors/MUON/MCH/Raw</text>
<text text-anchor="middle" x="1529.916" y="-242.5" font-family="Helvetica,sans-Serif" font-size="10.00" fill="#000000">/Tools/rawdump.cxx</text>
</g>
<!-- Node1 -->
<g id="node2" class="node">
<title>Node1</title>
<g id="a_node2"><a xlink:href="../../d1/d53/DumpBuffer_8h.html" target="_top" xlink:title="DumpBuffer.h">
<polygon fill="none" stroke="#000000" points="656.416,-179.5 656.416,-198.5 739.416,-198.5 739.416,-179.5 656.416,-179.5"/>
<text text-anchor="middle" x="697.916" y="-186.5" font-family="Helvetica,sans-Serif" font-size="10.00" fill="#000000">DumpBuffer.h</text>
</a>
</g>
</g>
<!-- Node0&#45;&gt;Node1 -->
<g id="edge1" class="edge">
<title>Node0&#45;&gt;Node1</title>
<path fill="none" stroke="#191970" d="M1454.6141,-254.9382C1287.9805,-240.4179 891.5796,-205.8757 749.6081,-193.5044"/>
<polygon fill="#191970" stroke="#191970" points="749.7013,-189.9994 739.4352,-192.618 749.0936,-196.9729 749.7013,-189.9994"/>
</g>
<!-- Node2 -->
<g id="node3" class="node">
<title>Node2</title>
<polygon fill="none" stroke="#bfbfbf" points="1065.416,-56.5 1065.416,-75.5 1122.416,-75.5 1122.416,-56.5 1065.416,-56.5"/>
<text text-anchor="middle" x="1093.916" y="-63.5" font-family="Helvetica,sans-Serif" font-size="10.00" fill="#000000">gsl/span</text>
</g>
<!-- Node0&#45;&gt;Node2 -->
<g id="edge60" class="edge">
<title>Node0&#45;&gt;Node2</title>
<path fill="none" stroke="#191970" d="M1454.7072,-253.6047C1335.5555,-239.3446 1112.1147,-204.8724 1065.916,-143 1052.5813,-125.1412 1066.0592,-100.2981 1078.5232,-83.7106"/>
<polygon fill="#191970" stroke="#191970" points="1081.2832,-85.8634 1084.8013,-75.8697 1075.819,-81.4882 1081.2832,-85.8634"/>
</g>
<!-- Node3 -->
<g id="node4" class="node">
<title>Node3</title>
<polygon fill="none" stroke="#bfbfbf" points="147.916,-.5 147.916,-19.5 207.916,-19.5 207.916,-.5 147.916,-.5"/>
<text text-anchor="middle" x="177.916" y="-7.5" font-family="Helvetica,sans-Serif" font-size="10.00" fill="#000000">iostream</text>
</g>
<!-- Node0&#45;&gt;Node3 -->
<g id="edge61" class="edge">
<title>Node0&#45;&gt;Node3</title>
<path fill="none" stroke="#191970" d="M1454.6856,-260.1637C1280.0722,-256.3917 833.9497,-242.8977 463.916,-199 324.0144,-182.4032 286.45,-184.815 151.916,-143 82.9656,-121.5693 43.0527,-136.6775 3.916,-76 -.902,-68.5301 -1.507,-63.043 3.916,-56 20.1321,-34.9398 91.6447,-21.5553 137.7935,-14.9458"/>
<polygon fill="#191970" stroke="#191970" points="138.3683,-18.3998 147.7942,-13.5621 137.4088,-11.4658 138.3683,-18.3998"/>
</g>
<!-- Node4 -->
<g id="node5" class="node">
<title>Node4</title>
<polygon fill="none" stroke="#bfbfbf" points="867.416,-.5 867.416,-19.5 946.416,-19.5 946.416,-.5 867.416,-.5"/>
<text text-anchor="middle" x="906.916" y="-7.5" font-family="Helvetica,sans-Serif" font-size="10.00" fill="#000000">fmt/format.h</text>
</g>
<!-- Node0&#45;&gt;Node4 -->
<g id="edge58" class="edge">
<title>Node0&#45;&gt;Node4</title>
<path fill="none" stroke="#191970" d="M1454.6935,-255.716C1351.5562,-246.8535 1172.3659,-227.8491 1113.916,-199 1081.7844,-183.1408 1076.3659,-172.4236 1055.916,-143 1031.8353,-108.3523 1048.0329,-85.5519 1017.916,-56 1001.0777,-39.4776 977.4547,-28.5761 956.3274,-21.5537"/>
<polygon fill="#191970" stroke="#191970" points="957.1024,-18.1294 946.5141,-18.5022 955.0238,-24.8137 957.1024,-18.1294"/>
</g>
<!-- Node10 -->
<g id="node11" class="node">
<title>Node10</title>
<polygon fill="none" stroke="#bfbfbf" points="1285.916,-.5 1285.916,-19.5 1335.916,-19.5 1335.916,-.5 1285.916,-.5"/>
<text text-anchor="middle" x="1310.916" y="-7.5" font-family="Helvetica,sans-Serif" font-size="10.00" fill="#000000">cstdint</text>
</g>
<!-- Node0&#45;&gt;Node10 -->
<g id="edge66" class="edge">
<title>Node0&#45;&gt;Node10</title>
<path fill="none" stroke="#191970" d="M1546.3188,-235.2429C1564.4348,-202.5312 1587.3974,-146.7233 1557.916,-112 1494.0742,-36.8069 1416.4612,-136.9632 1338.916,-76 1324.5855,-64.7339 1317.4877,-44.7577 1314.0372,-29.7243"/>
<polygon fill="#191970" stroke="#191970" points="1317.4611,-28.9954 1312.1181,-19.8465 1310.5896,-30.3305 1317.4611,-28.9954"/>
</g>
<!-- Node12 -->
<g id="node13" class="node">
<title>Node12</title>
<polygon fill="none" stroke="#bfbfbf" points="22.916,-56.5 22.916,-75.5 66.916,-75.5 66.916,-56.5 22.916,-56.5"/>
<text text-anchor="middle" x="44.916" y="-63.5" font-family="Helvetica,sans-Serif" font-size="10.00" fill="#000000">string</text>
</g>
<!-- Node0&#45;&gt;Node12 -->
<g id="edge68" class="edge">
<title>Node0&#45;&gt;Node12</title>
<path fill="none" stroke="#191970" d="M1454.82,-257.6703C1216.5852,-245.0326 479.9045,-202.0676 248.916,-143 185.1838,-126.7026 113.9771,-97.0511 74.8094,-79.6845"/>
<polygon fill="#191970" stroke="#191970" points="76.1234,-76.4381 65.5658,-75.5496 73.2649,-82.8279 76.1234,-76.4381"/>
</g>
<!-- Node16 -->
<g id="node17" class="node">
<title>Node16</title>
<g id="a_node17"><a xlink:href="../../d4/d78/DataFormats_2Headers_2include_2Headers_2RAWDataHeader_8h.html" target="_top" xlink:title="Headers/RAWDataHeader.h">
<polygon fill="none" stroke="#000000" points="1074.416,-118 1074.416,-137 1223.416,-137 1223.416,-118 1074.416,-118"/>
<text text-anchor="middle" x="1148.916" y="-125" font-family="Helvetica,sans-Serif" font-size="10.00" fill="#000000">Headers/RAWDataHeader.h</text>
</a>
</g>
</g>
<!-- Node0&#45;&gt;Node16 -->
<g id="edge24" class="edge">
<title>Node0&#45;&gt;Node16</title>
<path fill="none" stroke="#191970" d="M1454.7888,-243.3107C1411.3693,-232.0661 1355.992,-216.468 1307.916,-199 1260.7381,-181.8583 1207.9573,-156.9192 1176.6327,-141.4795"/>
<polygon fill="#191970" stroke="#191970" points="1178.1436,-138.322 1167.63,-137.0119 1175.0319,-144.5924 1178.1436,-138.322"/>
</g>
<!-- Node17 -->
<g id="node18" class="node">
<title>Node17</title>
<g id="a_node18"><a xlink:href="../../d0/d64/DataFormats_8h.html" target="_top" xlink:title="MCHRawCommon/DataFormats.h">
<polygon fill="none" stroke="#000000" points="801.416,-118 801.416,-137 980.416,-137 980.416,-118 801.416,-118"/>
<text text-anchor="middle" x="890.916" y="-125" font-family="Helvetica,sans-Serif" font-size="10.00" fill="#000000">MCHRawCommon/DataFormats.h</text>
</a>
</g>
</g>
<!-- Node0&#45;&gt;Node17 -->
<g id="edge25" class="edge">
<title>Node0&#45;&gt;Node17</title>
<path fill="none" stroke="#191970" d="M1454.9028,-257.2034C1328.1594,-249.2029 1077.37,-229.9692 994.916,-199 961.3535,-186.3941 928.2079,-160.693 908.6575,-143.7864"/>
<polygon fill="#191970" stroke="#191970" points="910.958,-141.1485 901.1495,-137.1429 906.3193,-146.3909 910.958,-141.1485"/>
</g>
<!-- Node18 -->
<g id="node19" class="node">
<title>Node18</title>
<g id="a_node19"><a xlink:href="../../dc/d36/PageDecoder_8h.html" target="_top" xlink:title="MCHRawDecoder/PageDecoder.h">
<polygon fill="none" stroke="#000000" points="1316.916,-179.5 1316.916,-198.5 1492.916,-198.5 1492.916,-179.5 1316.916,-179.5"/>
<text text-anchor="middle" x="1404.916" y="-186.5" font-family="Helvetica,sans-Serif" font-size="10.00" fill="#000000">MCHRawDecoder/PageDecoder.h</text>
</a>
</g>
</g>
<!-- Node0&#45;&gt;Node18 -->
<g id="edge26" class="edge">
<title>Node0&#45;&gt;Node18</title>
<path fill="none" stroke="#191970" d="M1484.7881,-235.3258C1466.488,-224.7118 1446.0295,-212.8458 1430.3994,-203.7804"/>
<polygon fill="#191970" stroke="#191970" points="1431.7603,-200.5236 1421.3539,-198.534 1428.2482,-206.5788 1431.7603,-200.5236"/>
</g>
<!-- Node19 -->
<g id="node20" class="node">
<title>Node19</title>
<polygon fill="none" stroke="#bfbfbf" points="1510.916,-118 1510.916,-137 1548.916,-137 1548.916,-118 1510.916,-118"/>
<text text-anchor="middle" x="1529.916" y="-125" font-family="Helvetica,sans-Serif" font-size="10.00" fill="#000000">map</text>
</g>
<!-- Node0&#45;&gt;Node19 -->
<g id="edge67" class="edge">
<title>Node0&#45;&gt;Node19</title>
<path fill="none" stroke="#191970" d="M1529.916,-235.3453C1529.916,-209.5564 1529.916,-170.7118 1529.916,-147.3578"/>
<polygon fill="#191970" stroke="#191970" points="1533.4161,-147.2626 1529.916,-137.2626 1526.4161,-147.2627 1533.4161,-147.2626"/>
</g>
<!-- Node24 -->
<g id="node25" class="node">
<title>Node24</title>
<polygon fill="none" stroke="#bfbfbf" points="2011.916,-.5 2011.916,-19.5 2067.916,-19.5 2067.916,-.5 2011.916,-.5"/>
<text text-anchor="middle" x="2039.916" y="-7.5" font-family="Helvetica,sans-Serif" font-size="10.00" fill="#000000">optional</text>
</g>
<!-- Node0&#45;&gt;Node24 -->
<g id="edge65" class="edge">
<title>Node0&#45;&gt;Node24</title>
<path fill="none" stroke="#191970" d="M1567.503,-235.4584C1595.2491,-217.3033 1634.5291,-193.7768 1671.916,-179 1861.5166,-104.0622 1991.9687,-235.5257 2118.916,-76 2135.763,-54.8296 2105.0586,-35.6174 2077.1509,-23.4508"/>
<polygon fill="#191970" stroke="#191970" points="2078.4445,-20.1983 2067.8664,-19.6021 2075.7639,-26.6647 2078.4445,-20.1983"/>
</g>
<!-- Node25 -->
<g id="node26" class="node">
<title>Node25</title>
<g id="a_node26"><a xlink:href="../../d2/d71/MUON_2MCH_2Raw_2ElecMap_2include_2MCHRawElecMap_2Mapper_8h.html" target="_top" xlink:title="MCHRawElecMap/Mapper.h">
<polygon fill="none" stroke="#000000" points="1604.916,-118 1604.916,-137 1752.916,-137 1752.916,-118 1604.916,-118"/>
<text text-anchor="middle" x="1678.916" y="-125" font-family="Helvetica,sans-Serif" font-size="10.00" fill="#000000">MCHRawElecMap/Mapper.h</text>
</a>
</g>
</g>
<!-- Node0&#45;&gt;Node25 -->
<g id="edge41" class="edge">
<title>Node0&#45;&gt;Node25</title>
<path fill="none" stroke="#191970" d="M1558.9984,-235.3453C1589.108,-208.2669 1635.2227,-166.7947 1660.5973,-143.9745"/>
<polygon fill="#191970" stroke="#191970" points="1662.9655,-146.552 1668.0605,-137.2626 1658.2847,-141.3472 1662.9655,-146.552"/>
</g>
<!-- Node31 -->
<g id="node32" class="node">
<title>Node31</title>
<polygon fill="none" stroke="#bfbfbf" points="1680.916,-179.5 1680.916,-198.5 1830.916,-198.5 1830.916,-179.5 1680.916,-179.5"/>
<text text-anchor="middle" x="1755.916" y="-186.5" font-family="Helvetica,sans-Serif" font-size="10.00" fill="#000000">boost/program_options.hpp</text>
</g>
<!-- Node0&#45;&gt;Node31 -->
<g id="edge57" class="edge">
<title>Node0&#45;&gt;Node31</title>
<path fill="none" stroke="#191970" d="M1605.1707,-237.3585C1642.318,-225.4418 1685.6137,-211.5527 1716.2499,-201.7247"/>
<polygon fill="#191970" stroke="#191970" points="1717.6742,-204.9436 1726.1271,-198.5562 1715.536,-198.2781 1717.6742,-204.9436"/>
</g>
<!-- Node32 -->
<g id="node33" class="node">
<title>Node32</title>
<polygon fill="none" stroke="#bfbfbf" points="1848.416,-179.5 1848.416,-198.5 1903.416,-198.5 1903.416,-179.5 1848.416,-179.5"/>
<text text-anchor="middle" x="1875.916" y="-186.5" font-family="Helvetica,sans-Serif" font-size="10.00" fill="#000000">fstream</text>
</g>
<!-- Node0&#45;&gt;Node32 -->
<g id="edge59" class="edge">
<title>Node0&#45;&gt;Node32</title>
<path fill="none" stroke="#191970" d="M1605.1016,-247.9111C1665.7495,-236.5885 1753.4272,-219.4082 1838.265,-199.2902"/>
<polygon fill="#191970" stroke="#191970" points="1839.1459,-202.6783 1848.0595,-196.9513 1837.52,-195.8698 1839.1459,-202.6783"/>
</g>
<!-- Node33 -->
<g id="node34" class="node">
<title>Node33</title>
<polygon fill="none" stroke="#bfbfbf" points="1921.916,-179.5 1921.916,-198.5 2043.916,-198.5 2043.916,-179.5 1921.916,-179.5"/>
<text text-anchor="middle" x="1982.916" y="-186.5" font-family="Helvetica,sans-Serif" font-size="10.00" fill="#000000">rapidjson/document.h</text>
</g>
<!-- Node0&#45;&gt;Node33 -->
<g id="edge62" class="edge">
<title>Node0&#45;&gt;Node33</title>
<path fill="none" stroke="#191970" d="M1604.9738,-249.4874C1690.7493,-235.7596 1830.0017,-213.473 1913.3926,-200.1268"/>
<polygon fill="#191970" stroke="#191970" points="1913.9568,-203.5811 1923.278,-198.5447 1912.8505,-196.6691 1913.9568,-203.5811"/>
</g>
<!-- Node34 -->
<g id="node35" class="node">
<title>Node34</title>
<polygon fill="none" stroke="#bfbfbf" points="2062.416,-179.5 2062.416,-198.5 2191.416,-198.5 2191.416,-179.5 2062.416,-179.5"/>
<text text-anchor="middle" x="2126.916" y="-186.5" font-family="Helvetica,sans-Serif" font-size="10.00" fill="#000000">rapidjson/stringbuffer.h</text>
</g>
<!-- Node0&#45;&gt;Node34 -->
<g id="edge63" class="edge">
<title>Node0&#45;&gt;Node34</title>
<path fill="none" stroke="#191970" d="M1605.3107,-252.8589C1704.9118,-241.3608 1886.093,-220.16 2051.9529,-199.1068"/>
<polygon fill="#191970" stroke="#191970" points="2052.8713,-202.5183 2062.3498,-197.7847 2051.9882,-195.5742 2052.8713,-202.5183"/>
</g>
<!-- Node35 -->
<g id="node36" class="node">
<title>Node35</title>
<polygon fill="none" stroke="#bfbfbf" points="2209.416,-179.5 2209.416,-198.5 2310.416,-198.5 2310.416,-179.5 2209.416,-179.5"/>
<text text-anchor="middle" x="2259.916" y="-186.5" font-family="Helvetica,sans-Serif" font-size="10.00" fill="#000000">rapidjson/writer.h</text>
</g>
<!-- Node0&#45;&gt;Node35 -->
<g id="edge64" class="edge">
<title>Node0&#45;&gt;Node35</title>
<path fill="none" stroke="#191970" d="M1605.0913,-256.3469C1727.5095,-247.5474 1977.717,-227.8633 2198.9253,-199.1895"/>
<polygon fill="#191970" stroke="#191970" points="2199.6408,-202.6259 2209.1037,-197.8611 2198.7348,-195.6848 2199.6408,-202.6259"/>
</g>
<!-- Node1&#45;&gt;Node2 -->
<g id="edge2" class="edge">
<title>Node1&#45;&gt;Node2</title>
<path fill="none" stroke="#191970" d="M709.5887,-179.4067C734.4356,-159.0039 790.5011,-113.068 792.916,-112 804.8304,-106.7309 976.9084,-82.2961 1055.3963,-71.34"/>
<polygon fill="#191970" stroke="#191970" points="1055.9581,-74.7956 1065.3792,-69.9488 1054.9918,-67.8626 1055.9581,-74.7956"/>
</g>
<!-- Node1&#45;&gt;Node3 -->
<g id="edge3" class="edge">
<title>Node1&#45;&gt;Node3</title>
<path fill="none" stroke="#191970" d="M656.3962,-187.185C576.7475,-183.1666 397.2381,-171.5123 248.916,-143 142.2623,-122.4977 79.3427,-162.6874 13.916,-76 -20.0084,-31.0517 78.9442,-16.6306 137.7265,-12.0673"/>
<polygon fill="#191970" stroke="#191970" points="138.1164,-15.5485 147.8427,-11.3475 137.6195,-8.5661 138.1164,-15.5485"/>
</g>
<!-- Node1&#45;&gt;Node4 -->
<g id="edge4" class="edge">
<title>Node1&#45;&gt;Node4</title>
<path fill="none" stroke="#191970" d="M693.6298,-179.1019C687.5979,-163.5075 678.729,-132.8519 691.916,-112 697.2521,-103.5624 817.1307,-49.7035 875.5172,-23.8339"/>
<polygon fill="#191970" stroke="#191970" points="877.2698,-26.8858 884.9989,-19.6393 874.4378,-20.4842 877.2698,-26.8858"/>
</g>
<!-- Node5 -->
<g id="node6" class="node">
<title>Node5</title>
<polygon fill="none" stroke="#bfbfbf" points="350.416,-.5 350.416,-19.5 397.416,-19.5 397.416,-.5 350.416,-.5"/>
<text text-anchor="middle" x="373.916" y="-7.5" font-family="Helvetica,sans-Serif" font-size="10.00" fill="#000000">vector</text>
</g>
<!-- Node1&#45;&gt;Node5 -->
<g id="edge5" class="edge">
<title>Node1&#45;&gt;Node5</title>
<path fill="none" stroke="#191970" d="M656.2876,-184.2749C594.945,-176.8212 483.6711,-161.2855 447.916,-143 409.5739,-123.3914 396.0217,-115.0743 377.916,-76 371.28,-61.6786 370.6186,-43.7014 371.4281,-30.1271"/>
<polygon fill="#191970" stroke="#191970" points="374.9346,-30.2131 372.3552,-19.9371 367.9634,-29.5788 374.9346,-30.2131"/>
</g>
<!-- Node6 -->
<g id="node7" class="node">
<title>Node6</title>
<g id="a_node7"><a xlink:href="../../d5/d49/SampaHeader_8h.html" target="_top" xlink:title="MCHRawCommon/SampaHeader.h">
<polygon fill="none" stroke="#000000" points="85.416,-56.5 85.416,-75.5 270.416,-75.5 270.416,-56.5 85.416,-56.5"/>
<text text-anchor="middle" x="177.916" y="-63.5" font-family="Helvetica,sans-Serif" font-size="10.00" fill="#000000">MCHRawCommon/SampaHeader.h</text>
</a>
</g>
</g>
<!-- Node1&#45;&gt;Node6 -->
<g id="edge6" class="edge">
<title>Node1&#45;&gt;Node6</title>
<path fill="none" stroke="#191970" d="M656.4068,-185.8586C572.0827,-179.1612 383.5205,-162.4885 321.916,-143 276.0188,-128.4805 227.6536,-99.3451 200.2877,-81.3714"/>
<polygon fill="#191970" stroke="#191970" points="202.1075,-78.3781 191.8461,-75.7411 198.2234,-84.2017 202.1075,-78.3781"/>
</g>
<!-- Node8 -->
<g id="node9" class="node">
<title>Node8</title>
<polygon fill="none" stroke="#bfbfbf" points="700.916,-118 700.916,-137 744.916,-137 744.916,-118 700.916,-118"/>
<text text-anchor="middle" x="722.916" y="-125" font-family="Helvetica,sans-Serif" font-size="10.00" fill="#000000">limits</text>
</g>
<!-- Node1&#45;&gt;Node8 -->
<g id="edge9" class="edge">
<title>Node1&#45;&gt;Node8</title>
<path fill="none" stroke="#191970" d="M701.8223,-179.3906C705.3606,-170.6862 710.6796,-157.6015 715.091,-146.7494"/>
<polygon fill="#191970" stroke="#191970" points="718.4312,-147.8268 718.9547,-137.2449 711.9465,-145.1907 718.4312,-147.8268"/>
</g>
<!-- Node9 -->
<g id="node10" class="node">
<title>Node9</title>
<g id="a_node10"><a xlink:href="../../dc/d3a/RDHManip_8h.html" target="_top" xlink:title="MCHRawCommon/RDHManip.h">
<polygon fill="none" stroke="#000000" points="457.416,-118 457.416,-137 624.416,-137 624.416,-118 457.416,-118"/>
<text text-anchor="middle" x="540.916" y="-125" font-family="Helvetica,sans-Serif" font-size="10.00" fill="#000000">MCHRawCommon/RDHManip.h</text>
</a>
</g>
</g>
<!-- Node1&#45;&gt;Node9 -->
<g id="edge10" class="edge">
<title>Node1&#45;&gt;Node9</title>
<path fill="none" stroke="#191970" d="M673.3848,-179.3906C646.8853,-169.0103 604.4829,-152.4004 574.809,-140.7766"/>
<polygon fill="#191970" stroke="#191970" points="575.8627,-137.4304 565.275,-137.0419 573.3095,-143.9482 575.8627,-137.4304"/>
</g>
<!-- Node1&#45;&gt;Node16 -->
<g id="edge21" class="edge">
<title>Node1&#45;&gt;Node16</title>
<path fill="none" stroke="#191970" d="M739.5366,-183.3245C814.3035,-173.129 972.5178,-151.5543 1068.8877,-138.4129"/>
<polygon fill="#191970" stroke="#191970" points="1069.4449,-141.8694 1078.8803,-137.0503 1068.4991,-134.9336 1069.4449,-141.8694"/>
</g>
<!-- Node1&#45;&gt;Node17 -->
<g id="edge23" class="edge">
<title>Node1&#45;&gt;Node17</title>
<path fill="none" stroke="#191970" d="M728.0723,-179.3906C761.2145,-168.8298 814.5922,-151.8208 851.1402,-140.1747"/>
<polygon fill="#191970" stroke="#191970" points="852.5062,-143.4129 860.9715,-137.0419 850.3809,-136.7433 852.5062,-143.4129"/>
</g>
<!-- Node6&#45;&gt;Node3 -->
<g id="edge8" class="edge">
<title>Node6&#45;&gt;Node3</title>
<path fill="none" stroke="#191970" d="M177.916,-56.2455C177.916,-48.9382 177.916,-38.6944 177.916,-29.7046"/>
<polygon fill="#191970" stroke="#191970" points="181.4161,-29.6426 177.916,-19.6427 174.4161,-29.6427 181.4161,-29.6426"/>
</g>
<!-- Node7 -->
<g id="node8" class="node">
<title>Node7</title>
<polygon fill="none" stroke="#bfbfbf" points="255.416,-.5 255.416,-19.5 304.416,-19.5 304.416,-.5 255.416,-.5"/>
<text text-anchor="middle" x="279.916" y="-7.5" font-family="Helvetica,sans-Serif" font-size="10.00" fill="#000000">cstdlib</text>
</g>
<!-- Node6&#45;&gt;Node7 -->
<g id="edge7" class="edge">
<title>Node6&#45;&gt;Node7</title>
<path fill="none" stroke="#191970" d="M195.683,-56.2455C211.6255,-47.4928 235.2419,-34.527 253.4149,-24.5496"/>
<polygon fill="#191970" stroke="#191970" points="255.2712,-27.5233 262.3526,-19.6427 251.9023,-21.3873 255.2712,-27.5233"/>
</g>
<!-- Node9&#45;&gt;Node2 -->
<g id="edge13" class="edge">
<title>Node9&#45;&gt;Node2</title>
<path fill="none" stroke="#191970" d="M624.8145,-118.6798C740.7491,-106.4507 944.0003,-84.8519 1017.916,-76 1029.9756,-74.5558 1043.0959,-72.8703 1054.9879,-71.2992"/>
<polygon fill="#191970" stroke="#191970" points="1055.6144,-74.7468 1065.0647,-69.9569 1054.6901,-67.8081 1055.6144,-74.7468"/>
</g>
<!-- Node9&#45;&gt;Node3 -->
<g id="edge14" class="edge">
<title>Node9&#45;&gt;Node3</title>
<path fill="none" stroke="#191970" d="M510.236,-117.9344C477.4439,-107.6804 423.9491,-90.8669 377.916,-76 321.4621,-57.7676 256.2302,-36.1347 216.024,-22.7355"/>
<polygon fill="#191970" stroke="#191970" points="216.9555,-19.3567 206.3619,-19.5134 214.741,-25.9972 216.9555,-19.3567"/>
</g>
<!-- Node9&#45;&gt;Node5 -->
<g id="edge17" class="edge">
<title>Node9&#45;&gt;Node5</title>
<path fill="none" stroke="#191970" d="M472.9994,-117.949C444.8128,-110.7486 413.866,-98.1255 392.916,-76 381.1568,-63.5809 376.6101,-44.3587 374.8853,-29.8559"/>
<polygon fill="#191970" stroke="#191970" points="378.3718,-29.5467 374.0437,-19.8762 371.3965,-30.135 378.3718,-29.5467"/>
</g>
<!-- Node9&#45;&gt;Node10 -->
<g id="edge11" class="edge">
<title>Node9&#45;&gt;Node10</title>
<path fill="none" stroke="#191970" d="M582.5894,-117.9267C626.3308,-107.8042 697.0653,-91.225 757.916,-76 791.7993,-67.5223 799.5323,-62.1407 833.916,-56 997.3992,-26.8028 1195.9436,-15.1704 1275.4777,-11.4625"/>
<polygon fill="#191970" stroke="#191970" points="1276.063,-14.9397 1285.8944,-10.9909 1275.7463,-7.9469 1276.063,-14.9397"/>
</g>
<!-- Node11 -->
<g id="node12" class="node">
<title>Node11</title>
<polygon fill="none" stroke="#bfbfbf" points="1179.416,-56.5 1179.416,-75.5 1244.416,-75.5 1244.416,-56.5 1179.416,-56.5"/>
<text text-anchor="middle" x="1211.916" y="-63.5" font-family="Helvetica,sans-Serif" font-size="10.00" fill="#000000">functional</text>
</g>
<!-- Node9&#45;&gt;Node11 -->
<g id="edge12" class="edge">
<title>Node9&#45;&gt;Node11</title>
<path fill="none" stroke="#191970" d="M624.7499,-118.5834C646.6054,-116.3442 670.1354,-114.0087 691.916,-112 887.2959,-93.9813 936.7468,-96.173 1131.916,-76 1143.9766,-74.7534 1157.0352,-73.2054 1169.0353,-71.7028"/>
<polygon fill="#191970" stroke="#191970" points="1169.7783,-75.1366 1179.2567,-70.4027 1168.895,-68.1925 1169.7783,-75.1366"/>
</g>
<!-- Node9&#45;&gt;Node12 -->
<g id="edge15" class="edge">
<title>Node9&#45;&gt;Node12</title>
<path fill="none" stroke="#191970" d="M457.3687,-123.3325C365.8567,-117.6225 214.8354,-104.8365 77.0198,-75.8693"/>
<polygon fill="#191970" stroke="#191970" points="77.6314,-72.4211 67.1209,-73.7556 76.1696,-79.2668 77.6314,-72.4211"/>
</g>
<!-- Node13 -->
<g id="node14" class="node">
<title>Node13</title>
<polygon fill="none" stroke="#bfbfbf" points="402.416,-56.5 402.416,-75.5 475.416,-75.5 475.416,-56.5 402.416,-56.5"/>
<text text-anchor="middle" x="438.916" y="-63.5" font-family="Helvetica,sans-Serif" font-size="10.00" fill="#000000">string_view</text>
</g>
<!-- Node9&#45;&gt;Node13 -->
<g id="edge16" class="edge">
<title>Node9&#45;&gt;Node13</title>
<path fill="none" stroke="#191970" d="M524.9785,-117.8906C508.5109,-107.9616 482.5902,-92.333 463.4956,-80.8201"/>
<polygon fill="#191970" stroke="#191970" points="465.1126,-77.7081 454.7416,-75.5419 461.4982,-83.7027 465.1126,-77.7081"/>
</g>
<!-- Node14 -->
<g id="node15" class="node">
<title>Node14</title>
<g id="a_node15"><a xlink:href="../../dd/d9a/RDHFields_8h.html" target="_top" xlink:title="MCHRawCommon/RDHFields.h">
<polygon fill="none" stroke="#000000" points="842.916,-56.5 842.916,-75.5 1008.916,-75.5 1008.916,-56.5 842.916,-56.5"/>
<text text-anchor="middle" x="925.916" y="-63.5" font-family="Helvetica,sans-Serif" font-size="10.00" fill="#000000">MCHRawCommon/RDHFields.h</text>
</a>
</g>
</g>
<!-- Node9&#45;&gt;Node14 -->
<g id="edge18" class="edge">
<title>Node9&#45;&gt;Node14</title>
<path fill="none" stroke="#191970" d="M600.6498,-117.9581C669.7395,-106.9217 783.3165,-88.7789 856.3338,-77.1151"/>
<polygon fill="#191970" stroke="#191970" points="857.0361,-80.5473 866.3588,-75.5137 855.9319,-73.635 857.0361,-80.5473"/>
</g>
<!-- Node15 -->
<g id="node16" class="node">
<title>Node15</title>
<polygon fill="none" stroke="#bfbfbf" points="493.416,-56.5 493.416,-75.5 546.416,-75.5 546.416,-56.5 493.416,-56.5"/>
<text text-anchor="middle" x="519.916" y="-63.5" font-family="Helvetica,sans-Serif" font-size="10.00" fill="#000000">cstddef</text>
</g>
<!-- Node9&#45;&gt;Node15 -->
<g id="edge20" class="edge">
<title>Node9&#45;&gt;Node15</title>
<path fill="none" stroke="#191970" d="M537.6348,-117.8906C534.6625,-109.1862 530.1946,-96.1015 526.489,-85.2494"/>
<polygon fill="#191970" stroke="#191970" points="529.7873,-84.0773 523.2435,-75.7449 523.1628,-86.3394 529.7873,-84.0773"/>
</g>
<!-- Node14&#45;&gt;Node10 -->
<g id="edge19" class="edge">
<title>Node14&#45;&gt;Node10</title>
<path fill="none" stroke="#191970" d="M991.6624,-56.4369C1073.8526,-44.4819 1211.5383,-24.4549 1275.8407,-15.1019"/>
<polygon fill="#191970" stroke="#191970" points="1276.4833,-18.5453 1285.8754,-13.6423 1275.4757,-11.6182 1276.4833,-18.5453"/>
</g>
<!-- Node16&#45;&gt;Node10 -->
<g id="edge22" class="edge">
<title>Node16&#45;&gt;Node10</title>
<path fill="none" stroke="#191970" d="M1149.1861,-117.7618C1150.1363,-102.5317 1154.1792,-73.0572 1170.916,-56 1185.6975,-40.9355 1239.5767,-26.1821 1276.0181,-17.596"/>
<polygon fill="#191970" stroke="#191970" points="1276.8296,-21.0008 1285.7871,-15.3427 1275.2563,-14.1799 1276.8296,-21.0008"/>
</g>
<!-- Node18&#45;&gt;Node2 -->
<g id="edge28" class="edge">
<title>Node18&#45;&gt;Node2</title>
<path fill="none" stroke="#191970" d="M1358.8634,-179.4517C1330.4144,-172.2365 1293.9302,-160.53 1264.916,-143 1247.9678,-132.7601 1249.8533,-122.258 1232.916,-112 1201.6028,-93.0354 1161.5293,-80.8502 1132.4626,-73.8187"/>
<polygon fill="#191970" stroke="#191970" points="1133.2055,-70.3982 1122.6728,-71.5439 1131.6211,-77.2165 1133.2055,-70.3982"/>
</g>
<!-- Node18&#45;&gt;Node11 -->
<g id="edge27" class="edge">
<title>Node18&#45;&gt;Node11</title>
<path fill="none" stroke="#191970" d="M1380.5803,-179.3332C1360.4515,-170.9026 1331.4534,-157.7375 1307.916,-143 1292.3525,-133.2552 1254.4083,-101.8818 1231.155,-82.3181"/>
<polygon fill="#191970" stroke="#191970" points="1233.2209,-79.4817 1223.3214,-75.7067 1228.7061,-84.8312 1233.2209,-79.4817"/>
</g>
<!-- Node18&#45;&gt;Node19 -->
<g id="edge29" class="edge">
<title>Node18&#45;&gt;Node19</title>
<path fill="none" stroke="#191970" d="M1426.5756,-179.4513C1446.6005,-170.4782 1477.0759,-156.4526 1502.916,-143 1503.5812,-142.6537 1504.2536,-142.2994 1504.9305,-141.939"/>
<polygon fill="#191970" stroke="#191970" points="1506.6978,-144.9613 1513.7592,-137.0628 1503.3135,-138.8338 1506.6978,-144.9613"/>
</g>
<!-- Node20 -->
<g id="node21" class="node">
<title>Node20</title>
<g id="a_node21"><a xlink:href="../../dd/d58/SampaChannelHandler_8h.html" target="_top" xlink:title="MCHRawDecoder/SampaChannel\lHandler.h">
<polygon fill="none" stroke="#000000" points="1316.416,-112.5 1316.416,-142.5 1493.416,-142.5 1493.416,-112.5 1316.416,-112.5"/>
<text text-anchor="start" x="1324.416" y="-130.5" font-family="Helvetica,sans-Serif" font-size="10.00" fill="#000000">MCHRawDecoder/SampaChannel</text>
<text text-anchor="middle" x="1404.916" y="-119.5" font-family="Helvetica,sans-Serif" font-size="10.00" fill="#000000">Handler.h</text>
</a>
</g>
</g>
<!-- Node18&#45;&gt;Node20 -->
<g id="edge30" class="edge">
<title>Node18&#45;&gt;Node20</title>
<path fill="none" stroke="#191970" d="M1404.916,-179.3906C1404.916,-172.2234 1404.916,-162.0862 1404.916,-152.671"/>
<polygon fill="#191970" stroke="#191970" points="1408.4161,-152.5446 1404.916,-142.5446 1401.4161,-152.5446 1408.4161,-152.5446"/>
</g>
<!-- Node20&#45;&gt;Node11 -->
<g id="edge31" class="edge">
<title>Node20&#45;&gt;Node11</title>
<path fill="none" stroke="#191970" d="M1357.7029,-112.4554C1325.0766,-102.059 1282.1756,-88.3884 1251.3719,-78.5727"/>
<polygon fill="#191970" stroke="#191970" points="1252.4148,-75.2317 1241.8242,-75.5303 1250.2895,-81.9013 1252.4148,-75.2317"/>
</g>
<!-- Node21 -->
<g id="node22" class="node">
<title>Node21</title>
<g id="a_node22"><a xlink:href="../../d0/d5b/SampaCluster_8h.html" target="_top" xlink:title="MCHRawCommon/SampaCluster.h">
<polygon fill="none" stroke="#000000" points="564.916,-56.5 564.916,-75.5 748.916,-75.5 748.916,-56.5 564.916,-56.5"/>
<text text-anchor="middle" x="656.916" y="-63.5" font-family="Helvetica,sans-Serif" font-size="10.00" fill="#000000">MCHRawCommon/SampaCluster.h</text>
</a>
</g>
</g>
<!-- Node20&#45;&gt;Node21 -->
<g id="edge32" class="edge">
<title>Node20&#45;&gt;Node21</title>
<path fill="none" stroke="#191970" d="M1316.1032,-119.3226C1289.3686,-116.908 1259.9524,-114.2977 1232.916,-112 1067.1167,-97.9093 874.3595,-82.7669 759.1817,-73.851"/>
<polygon fill="#191970" stroke="#191970" points="759.2081,-70.3427 748.9679,-73.061 758.6682,-77.3219 759.2081,-70.3427"/>
</g>
<!-- Node22 -->
<g id="node23" class="node">
<title>Node22</title>
<g id="a_node23"><a xlink:href="../../d4/d09/DsElecId_8h.html" target="_top" xlink:title="MCHRawElecMap/DsElecId.h">
<polygon fill="none" stroke="#000000" points="1773.416,-56.5 1773.416,-75.5 1928.416,-75.5 1928.416,-56.5 1773.416,-56.5"/>
<text text-anchor="middle" x="1850.916" y="-63.5" font-family="Helvetica,sans-Serif" font-size="10.00" fill="#000000">MCHRawElecMap/DsElecId.h</text>
</a>
</g>
</g>
<!-- Node20&#45;&gt;Node22 -->
<g id="edge37" class="edge">
<title>Node20&#45;&gt;Node22</title>
<path fill="none" stroke="#191970" d="M1493.4478,-113.2506C1496.303,-112.8239 1499.1315,-112.4059 1501.916,-112 1590.9704,-99.0184 1693.0508,-85.7508 1763.7047,-76.8217"/>
<polygon fill="#191970" stroke="#191970" points="1764.4123,-80.2602 1773.8957,-75.5363 1763.5363,-73.3152 1764.4123,-80.2602"/>
</g>
<!-- Node21&#45;&gt;Node3 -->
<g id="edge35" class="edge">
<title>Node21&#45;&gt;Node3</title>
<path fill="none" stroke="#191970" d="M564.5795,-56.587C481.2092,-47.8688 355.2165,-34.1491 245.916,-20 236.8881,-18.8313 227.2021,-17.4711 218.0519,-16.1373"/>
<polygon fill="#191970" stroke="#191970" points="218.4165,-12.6533 208.0124,-14.6543 217.3935,-19.5782 218.4165,-12.6533"/>
</g>
<!-- Node21&#45;&gt;Node4 -->
<g id="edge36" class="edge">
<title>Node21&#45;&gt;Node4</title>
<path fill="none" stroke="#191970" d="M699.6085,-56.4369C743.3934,-46.6291 811.4325,-31.3883 857.5159,-21.0656"/>
<polygon fill="#191970" stroke="#191970" points="858.294,-24.4781 867.2871,-18.8769 856.7639,-17.6474 858.294,-24.4781"/>
</g>
<!-- Node21&#45;&gt;Node5 -->
<g id="edge34" class="edge">
<title>Node21&#45;&gt;Node5</title>
<path fill="none" stroke="#191970" d="M608.5881,-56.4369C551.4031,-45.1211 457.6707,-26.5734 407.7281,-16.6907"/>
<polygon fill="#191970" stroke="#191970" points="408.2536,-13.2269 397.7644,-14.7191 406.8948,-20.0938 408.2536,-13.2269"/>
</g>
<!-- Node21&#45;&gt;Node7 -->
<g id="edge33" class="edge">
<title>Node21&#45;&gt;Node7</title>
<path fill="none" stroke="#191970" d="M589.057,-56.4806C525.0308,-47.4138 426.3842,-33.2253 340.916,-20 332.396,-18.6816 323.2163,-17.2059 314.6298,-15.8014"/>
<polygon fill="#191970" stroke="#191970" points="314.9705,-12.3105 304.5347,-14.139 313.833,-19.2175 314.9705,-12.3105"/>
</g>
<!-- Node22&#45;&gt;Node10 -->
<g id="edge38" class="edge">
<title>Node22&#45;&gt;Node10</title>
<path fill="none" stroke="#191970" d="M1773.1335,-57.0078C1770.0208,-56.6643 1766.9391,-56.3272 1763.916,-56 1608.1649,-39.1416 1422.0822,-20.8174 1345.9689,-13.3999"/>
<polygon fill="#191970" stroke="#191970" points="1346.2655,-9.9123 1335.9734,-12.4269 1345.5873,-16.8794 1346.2655,-9.9123"/>
</g>
<!-- Node23 -->
<g id="node24" class="node">
<title>Node23</title>
<polygon fill="none" stroke="#bfbfbf" points="1654.416,-.5 1654.416,-19.5 1703.416,-19.5 1703.416,-.5 1654.416,-.5"/>
<text text-anchor="middle" x="1678.916" y="-7.5" font-family="Helvetica,sans-Serif" font-size="10.00" fill="#000000">iosfwd</text>
</g>
<!-- Node22&#45;&gt;Node23 -->
<g id="edge39" class="edge">
<title>Node22&#45;&gt;Node23</title>
<path fill="none" stroke="#191970" d="M1821.3482,-56.3733C1791.3604,-46.6098 1744.983,-31.5102 1713.3549,-21.2127"/>
<polygon fill="#191970" stroke="#191970" points="1714.2361,-17.8188 1703.6438,-18.0509 1712.0689,-24.4749 1714.2361,-17.8188"/>
</g>
<!-- Node22&#45;&gt;Node24 -->
<g id="edge40" class="edge">
<title>Node22&#45;&gt;Node24</title>
<path fill="none" stroke="#191970" d="M1883.4063,-56.3733C1916.355,-46.6107 1967.3102,-31.5128 2002.0641,-21.2154"/>
<polygon fill="#191970" stroke="#191970" points="2003.2559,-24.5127 2011.8496,-18.316 2001.2672,-17.8011 2003.2559,-24.5127"/>
</g>
<!-- Node25&#45;&gt;Node2 -->
<g id="edge56" class="edge">
<title>Node25&#45;&gt;Node2</title>
<path fill="none" stroke="#191970" d="M1607.945,-117.9909C1591.5298,-115.9076 1574.1248,-113.7915 1557.916,-112 1386.219,-93.0227 1342.5964,-95.1268 1170.916,-76 1158.5851,-74.6262 1145.1678,-72.9477 1133.0392,-71.3611"/>
<polygon fill="#191970" stroke="#191970" points="1133.1452,-67.8446 1122.7721,-70.0004 1132.2255,-74.7839 1133.1452,-67.8446"/>
</g>
<!-- Node25&#45;&gt;Node4 -->
<g id="edge54" class="edge">
<title>Node25&#45;&gt;Node4</title>
<path fill="none" stroke="#191970" d="M1604.6692,-118.0123C1535.5911,-108.7693 1429.9215,-93.5691 1338.916,-76 1300.8102,-68.6435 1292.0884,-63.0031 1253.916,-56 1148.7362,-36.7036 1024.2015,-22.2008 956.615,-15.0187"/>
<polygon fill="#191970" stroke="#191970" points="956.9786,-11.5377 946.667,-13.9709 956.2453,-18.4992 956.9786,-11.5377"/>
</g>
<!-- Node25&#45;&gt;Node10 -->
<g id="edge46" class="edge">
<title>Node25&#45;&gt;Node10</title>
<path fill="none" stroke="#191970" d="M1625.4203,-117.9515C1614.0363,-115.9548 1602.0825,-113.8847 1590.916,-112 1491.9218,-95.2921 1455.5715,-124.9442 1367.916,-76 1347.7736,-64.7531 1331.4153,-43.5123 1321.4725,-28.1592"/>
<polygon fill="#191970" stroke="#191970" points="1324.3623,-26.1772 1316.1342,-19.5026 1318.4041,-29.8514 1324.3623,-26.1772"/>
</g>
<!-- Node25&#45;&gt;Node11 -->
<g id="edge42" class="edge">
<title>Node25&#45;&gt;Node11</title>
<path fill="none" stroke="#191970" d="M1606.7153,-117.9918C1508.2158,-105.0202 1334.8293,-82.1867 1254.7147,-71.6362"/>
<polygon fill="#191970" stroke="#191970" points="1254.8745,-68.1271 1244.5031,-70.2914 1253.9605,-75.0672 1254.8745,-68.1271"/>
</g>
<!-- Node25&#45;&gt;Node22 -->
<g id="edge50" class="edge">
<title>Node25&#45;&gt;Node22</title>
<path fill="none" stroke="#191970" d="M1705.791,-117.8906C1735.0747,-107.42 1782.0851,-90.6111 1814.6297,-78.9745"/>
<polygon fill="#191970" stroke="#191970" points="1815.992,-82.2045 1824.2297,-75.5419 1813.6351,-75.6131 1815.992,-82.2045"/>
</g>
<!-- Node25&#45;&gt;Node24 -->
<g id="edge43" class="edge">
<title>Node25&#45;&gt;Node24</title>
<path fill="none" stroke="#191970" d="M1753.0631,-125.4849C1841.4642,-121.5587 1982.1498,-109.9991 2020.916,-76 2033.9173,-64.5975 2038.2855,-44.9317 2039.6296,-30.025"/>
<polygon fill="#191970" stroke="#191970" points="2043.1388,-29.9369 2040.1609,-19.7692 2036.1481,-29.5747 2043.1388,-29.9369"/>
</g>
<!-- Node26 -->
<g id="node27" class="node">
<title>Node26</title>
<polygon fill="none" stroke="#bfbfbf" points="1552.916,-56.5 1552.916,-75.5 1584.916,-75.5 1584.916,-56.5 1552.916,-56.5"/>
<text text-anchor="middle" x="1568.916" y="-63.5" font-family="Helvetica,sans-Serif" font-size="10.00" fill="#000000">set</text>
</g>
<!-- Node25&#45;&gt;Node26 -->
<g id="edge44" class="edge">
<title>Node25&#45;&gt;Node26</title>
<path fill="none" stroke="#191970" d="M1661.7285,-117.8906C1643.5982,-107.7542 1614.8431,-91.6774 1594.1425,-80.1039"/>
<polygon fill="#191970" stroke="#191970" points="1595.7018,-76.9658 1585.2653,-75.1408 1592.2858,-83.0758 1595.7018,-76.9658"/>
</g>
<!-- Node27 -->
<g id="node28" class="node">
<title>Node27</title>
<polygon fill="none" stroke="#bfbfbf" points="1946.416,-56.5 1946.416,-75.5 2011.416,-75.5 2011.416,-56.5 1946.416,-56.5"/>
<text text-anchor="middle" x="1978.916" y="-63.5" font-family="Helvetica,sans-Serif" font-size="10.00" fill="#000000">stdexcept</text>
</g>
<!-- Node25&#45;&gt;Node27 -->
<g id="edge45" class="edge">
<title>Node25&#45;&gt;Node27</title>
<path fill="none" stroke="#191970" d="M1730.1601,-117.9831C1780.361,-108.5087 1859.2692,-93.2155 1936.3888,-76.2778"/>
<polygon fill="#191970" stroke="#191970" points="1937.2615,-79.6695 1946.2718,-74.0959 1935.7523,-72.8341 1937.2615,-79.6695"/>
</g>
<!-- Node28 -->
<g id="node29" class="node">
<title>Node28</title>
<g id="a_node29"><a xlink:href="../../d5/dcd/DsDetId_8h.html" target="_top" xlink:title="MCHRawElecMap/DsDetId.h">
<polygon fill="none" stroke="#000000" points="1602.916,-56.5 1602.916,-75.5 1754.916,-75.5 1754.916,-56.5 1602.916,-56.5"/>
<text text-anchor="middle" x="1678.916" y="-63.5" font-family="Helvetica,sans-Serif" font-size="10.00" fill="#000000">MCHRawElecMap/DsDetId.h</text>
</a>
</g>
</g>
<!-- Node25&#45;&gt;Node28 -->
<g id="edge47" class="edge">
<title>Node25&#45;&gt;Node28</title>
<path fill="none" stroke="#191970" d="M1678.916,-117.8906C1678.916,-109.3657 1678.916,-96.6392 1678.916,-85.9235"/>
<polygon fill="#191970" stroke="#191970" points="1682.4161,-85.7448 1678.916,-75.7449 1675.4161,-85.7449 1682.4161,-85.7448"/>
</g>
<!-- Node29 -->
<g id="node30" class="node">
<title>Node29</title>
<g id="a_node30"><a xlink:href="../../d8/d97/FeeLinkId_8h.html" target="_top" xlink:title="MCHRawElecMap/FeeLinkId.h">
<polygon fill="none" stroke="#000000" points="1376.916,-56.5 1376.916,-75.5 1534.916,-75.5 1534.916,-56.5 1376.916,-56.5"/>
<text text-anchor="middle" x="1455.916" y="-63.5" font-family="Helvetica,sans-Serif" font-size="10.00" fill="#000000">MCHRawElecMap/FeeLinkId.h</text>
</a>
</g>
</g>
<!-- Node25&#45;&gt;Node29 -->
<g id="edge51" class="edge">
<title>Node25&#45;&gt;Node29</title>
<path fill="none" stroke="#191970" d="M1644.0723,-117.8906C1605.2874,-107.1944 1542.5183,-89.8836 1500.2601,-78.2294"/>
<polygon fill="#191970" stroke="#191970" points="1501.0857,-74.8265 1490.5151,-75.5419 1499.2247,-81.5746 1501.0857,-74.8265"/>
</g>
<!-- Node30 -->
<g id="node31" class="node">
<title>Node30</title>
<polygon fill="none" stroke="#bfbfbf" points="2067.916,-56.5 2067.916,-75.5 2109.916,-75.5 2109.916,-56.5 2067.916,-56.5"/>
<text text-anchor="middle" x="2088.916" y="-63.5" font-family="Helvetica,sans-Serif" font-size="10.00" fill="#000000">array</text>
</g>
<!-- Node25&#45;&gt;Node30 -->
<g id="edge55" class="edge">
<title>Node25&#45;&gt;Node30</title>
<path fill="none" stroke="#191970" d="M1753.0938,-120.4505C1829.1306,-112.4923 1950.5424,-97.7514 2053.916,-76 2055.1683,-75.7365 2056.4415,-75.4521 2057.7244,-75.1518"/>
<polygon fill="#191970" stroke="#191970" points="2058.7525,-78.5013 2067.565,-72.6199 2057.0082,-71.7221 2058.7525,-78.5013"/>
</g>
<!-- Node28&#45;&gt;Node10 -->
<g id="edge48" class="edge">
<title>Node28&#45;&gt;Node10</title>
<path fill="none" stroke="#191970" d="M1616.0727,-56.4369C1538.2558,-44.5952 1408.394,-24.8336 1346.2079,-15.3705"/>
<polygon fill="#191970" stroke="#191970" points="1346.5306,-11.8794 1336.1179,-13.8351 1345.4775,-18.7997 1346.5306,-11.8794"/>
</g>
<!-- Node28&#45;&gt;Node23 -->
<g id="edge49" class="edge">
<title>Node28&#45;&gt;Node23</title>
<path fill="none" stroke="#191970" d="M1678.916,-56.2455C1678.916,-48.9382 1678.916,-38.6944 1678.916,-29.7046"/>
<polygon fill="#191970" stroke="#191970" points="1682.4161,-29.6426 1678.916,-19.6427 1675.4161,-29.6427 1682.4161,-29.6426"/>
</g>
<!-- Node29&#45;&gt;Node10 -->
<g id="edge52" class="edge">
<title>Node29&#45;&gt;Node10</title>
<path fill="none" stroke="#191970" d="M1430.9896,-56.3733C1407.2958,-47.2226 1371.4649,-33.3844 1345.1092,-23.2057"/>
<polygon fill="#191970" stroke="#191970" points="1346.1066,-19.8389 1335.5171,-19.5011 1343.5846,-26.3689 1346.1066,-19.8389"/>
</g>
<!-- Node29&#45;&gt;Node23 -->
<g id="edge53" class="edge">
<title>Node29&#45;&gt;Node23</title>
<path fill="none" stroke="#191970" d="M1493.9977,-56.4369C1536.1995,-45.8391 1603.6614,-28.898 1644.3807,-18.6725"/>
<polygon fill="#191970" stroke="#191970" points="1645.2789,-22.0557 1654.1253,-16.2255 1643.5739,-15.2665 1645.2789,-22.0557"/>
</g>
</g>
</svg>
        <g id="navigator" transform="translate(0 0)" fill="#404254">
                <rect fill="#f2f5e9" fill-opacity="0.5" stroke="#606060" stroke-width=".5" x="0" y="0" width="60" height="60"/>
                <use id="zoomplus" xlink:href="#zoomPlus" x="17" y="9" onmousedown="handleZoom(evt,'in')"/>
                <use id="zoomminus" xlink:href="#zoomMin" x="42" y="9" onmousedown="handleZoom(evt,'out')"/>
                <use id="reset" xlink:href="#resetDef" x="30" y="36" onmousedown="handleReset()"/>
                <g id="arrowUp" xlink:href="#dirArrow" transform="translate(30 24)" onmousedown="handlePan(0,-1)">
                  <use xlink:href="#rim" fill="#404040">
                        <set attributeName="fill" to="#808080" begin="arrowUp.mouseover" end="arrowUp.mouseout"/>
                  </use>
                  <path fill="none" stroke="white" stroke-width="1.5" d="M0,-3.0v7 M-2.5,-0.5L0,-3.0L2.5,-0.5"/>
                </g>
                <g id="arrowRight" xlink:href="#dirArrow" transform="rotate(90) translate(36 -43)" onmousedown="handlePan(1,0)">
                  <use xlink:href="#rim" fill="#404040">
                        <set attributeName="fill" to="#808080" begin="arrowRight.mouseover" end="arrowRight.mouseout"/>
                  </use>
                  <path fill="none" stroke="white" stroke-width="1.5" d="M0,-3.0v7 M-2.5,-0.5L0,-3.0L2.5,-0.5"/>
                </g>
                <g id="arrowDown" xlink:href="#dirArrow" transform="rotate(180) translate(-30 -48)" onmousedown="handlePan(0,1)">
                  <use xlink:href="#rim" fill="#404040">
                        <set attributeName="fill" to="#808080" begin="arrowDown.mouseover" end="arrowDown.mouseout"/>
                  </use>
                  <path fill="none" stroke="white" stroke-width="1.5" d="M0,-3.0v7 M-2.5,-0.5L0,-3.0L2.5,-0.5"/>
                </g>
                <g id="arrowLeft" xlink:href="#dirArrow" transform="rotate(270) translate(-36 17)" onmousedown="handlePan(-1,0)">
                  <use xlink:href="#rim" fill="#404040">
                        <set attributeName="fill" to="#808080" begin="arrowLeft.mouseover" end="arrowLeft.mouseout"/>
                  </use>
                  <path fill="none" stroke="white" stroke-width="1.5" d="M0,-3.0v7 M-2.5,-0.5L0,-3.0L2.5,-0.5"/>
                </g>
        </g>
        <svg viewBox="0 0 15 15" width="100%" height="30px" preserveAspectRatio="xMaxYMin meet">
         <g id="arrow_out" transform="scale(0.3 0.3)">
          <a xlink:href="rawdump_8cxx__incl_org.svg" target="_base">
           <rect id="button" ry="5" rx="5" y="6" x="6" height="38" width="38"
                fill="#f2f5e9" fill-opacity="0.5" stroke="#606060" stroke-width="1.0"/>
           <path id="arrow"
             d="M 11.500037,31.436501 C 11.940474,20.09759 22.043105,11.32322 32.158766,21.979434 L 37.068811,17.246167 C 37.068811,17.246167 37.088388,32 37.088388,32 L 22.160133,31.978069 C 22.160133,31.978069 26.997745,27.140456 26.997745,27.140456 C 18.528582,18.264221 13.291696,25.230495 11.500037,31.436501 z"
             style="fill:#404040;"/>
          </a>
         </g>
        </svg>
</svg>
