<?xml version="1.0" encoding="UTF-8" standalone="no"?>
<!DOCTYPE svg PUBLIC "-//W3C//DTD SVG 1.1//EN"
 "http://www.w3.org/Graphics/SVG/1.1/DTD/svg11.dtd">
<!-- Generated by graphviz version 2.40.1 (20161225.0304)
 -->
<!-- Title: /home/travis/build/AliceO2Group/AliceO2/Framework/Core/src/AnalysisHelpers.cxx Pages: 1 -->
<svg width="2634pt" height="341pt"
 viewBox="0.00 0.00 2634.00 341.00" xmlns="http://www.w3.org/2000/svg" xmlns:xlink="http://www.w3.org/1999/xlink">
<g id="graph0" class="graph" transform="scale(1 1) rotate(0) translate(4 337)">
<title>/home/travis/build/AliceO2Group/AliceO2/Framework/Core/src/AnalysisHelpers.cxx</title>
<!-- Node0 -->
<g id="node1" class="node">
<title>Node0</title>
<polygon fill="#bfbfbf" stroke="#000000" points="354,-280.5 354,-332.5 515,-332.5 515,-280.5 354,-280.5"/>
<text text-anchor="start" x="362" y="-320.5" font-family="Helvetica,sans-Serif" font-size="10.00" fill="#000000">/home/travis/build</text>
<text text-anchor="start" x="362" y="-309.5" font-family="Helvetica,sans-Serif" font-size="10.00" fill="#000000">/AliceO2Group/AliceO2</text>
<text text-anchor="start" x="362" y="-298.5" font-family="Helvetica,sans-Serif" font-size="10.00" fill="#000000">/Framework/Core/src/Analysis</text>
<text text-anchor="middle" x="434.5" y="-287.5" font-family="Helvetica,sans-Serif" font-size="10.00" fill="#000000">Helpers.cxx</text>
</g>
<!-- Node1 -->
<g id="node2" class="node">
<title>Node1</title>
<g id="a_node2"><a xlink:href="../../db/d34/AnalysisHelpers_8h.html" target="_top" xlink:title="Framework/AnalysisHelpers.h">
<polygon fill="none" stroke="#000000" points="175,-224.5 175,-243.5 336,-243.5 336,-224.5 175,-224.5"/>
<text text-anchor="middle" x="255.5" y="-231.5" font-family="Helvetica,sans-Serif" font-size="10.00" fill="#000000">Framework/AnalysisHelpers.h</text>
</a>
</g>
</g>
<!-- Node0&#45;&gt;Node1 -->
<g id="edge1" class="edge">
<title>Node0&#45;&gt;Node1</title>
<path fill="none" stroke="#191970" d="M370.1298,-280.4283C342.54,-269.2536 311.4833,-256.6748 288.6621,-247.4316"/>
<polygon fill="#191970" stroke="#191970" points="289.6922,-244.0727 279.1097,-243.5626 287.0644,-250.5607 289.6922,-244.0727"/>
</g>
<!-- Node2 -->
<g id="node3" class="node">
<title>Node2</title>
<polygon fill="none" stroke="#bfbfbf" points="180.5,-168.5 180.5,-187.5 308.5,-187.5 308.5,-168.5 180.5,-168.5"/>
<text text-anchor="middle" x="244.5" y="-175.5" font-family="Helvetica,sans-Serif" font-size="10.00" fill="#000000">ROOT/RDataFrame.hxx</text>
</g>
<!-- Node0&#45;&gt;Node2 -->
<g id="edge75" class="edge">
<title>Node0&#45;&gt;Node2</title>
<path fill="none" stroke="#191970" d="M416.9614,-280.4585C403.7683,-262.5397 384.2767,-239.3007 362.5,-224 341.1865,-209.0247 314.3291,-198.0585 291.6234,-190.5978"/>
<polygon fill="#191970" stroke="#191970" points="292.4371,-187.1846 281.8474,-187.5143 290.3315,-193.8604 292.4371,-187.1846"/>
</g>
<!-- Node4 -->
<g id="node5" class="node">
<title>Node4</title>
<g id="a_node5"><a xlink:href="../../de/d35/RCombinedDS_8h.html" target="_top" xlink:title="Framework/RCombinedDS.h">
<polygon fill="none" stroke="#000000" points="410.5,-224.5 410.5,-243.5 562.5,-243.5 562.5,-224.5 410.5,-224.5"/>
<text text-anchor="middle" x="486.5" y="-231.5" font-family="Helvetica,sans-Serif" font-size="10.00" fill="#000000">Framework/RCombinedDS.h</text>
</a>
</g>
</g>
<!-- Node0&#45;&gt;Node4 -->
<g id="edge5" class="edge">
<title>Node0&#45;&gt;Node4</title>
<path fill="none" stroke="#191970" d="M453.2732,-280.3258C460.096,-270.8132 467.6401,-260.2951 473.813,-251.6886"/>
<polygon fill="#191970" stroke="#191970" points="476.6776,-253.6999 479.6618,-243.534 470.9894,-249.6201 476.6776,-253.6999"/>
</g>
<!-- Node8 -->
<g id="node9" class="node">
<title>Node8</title>
<g id="a_node9"><a xlink:href="../../d5/d98/TableBuilder_8h.html" target="_top" xlink:title="Framework/TableBuilder.h">
<polygon fill="none" stroke="#000000" points="1378.5,-224.5 1378.5,-243.5 1520.5,-243.5 1520.5,-224.5 1378.5,-224.5"/>
<text text-anchor="middle" x="1449.5" y="-231.5" font-family="Helvetica,sans-Serif" font-size="10.00" fill="#000000">Framework/TableBuilder.h</text>
</a>
</g>
</g>
<!-- Node0&#45;&gt;Node8 -->
<g id="edge11" class="edge">
<title>Node0&#45;&gt;Node8</title>
<path fill="none" stroke="#191970" d="M515.4194,-300.72C705.3059,-287.1567 1177.7701,-253.4093 1368.1163,-239.8131"/>
<polygon fill="#191970" stroke="#191970" points="1368.6076,-243.287 1378.3327,-239.0834 1368.1088,-236.3048 1368.6076,-243.287"/>
</g>
<!-- Node47 -->
<g id="node48" class="node">
<title>Node47</title>
<g id="a_node48"><a xlink:href="../../dc/d03/TableConsumer_8h.html" target="_top" xlink:title="Framework/TableConsumer.h">
<polygon fill="none" stroke="#000000" points="0,-224.5 0,-243.5 157,-243.5 157,-224.5 0,-224.5"/>
<text text-anchor="middle" x="78.5" y="-231.5" font-family="Helvetica,sans-Serif" font-size="10.00" fill="#000000">Framework/TableConsumer.h</text>
</a>
</g>
</g>
<!-- Node0&#45;&gt;Node47 -->
<g id="edge73" class="edge">
<title>Node0&#45;&gt;Node47</title>
<path fill="none" stroke="#191970" d="M353.7181,-290.0486C287.0071,-276.4628 194.0157,-257.525 135.0377,-245.514"/>
<polygon fill="#191970" stroke="#191970" points="135.6524,-242.0674 125.1551,-243.5014 134.2555,-248.9266 135.6524,-242.0674"/>
</g>
<!-- Node48 -->
<g id="node49" class="node">
<title>Node48</title>
<polygon fill="none" stroke="#bfbfbf" points="1538.5,-224.5 1538.5,-243.5 1654.5,-243.5 1654.5,-224.5 1538.5,-224.5"/>
<text text-anchor="middle" x="1596.5" y="-231.5" font-family="Helvetica,sans-Serif" font-size="10.00" fill="#000000">ROOT/RArrowDS.hxx</text>
</g>
<!-- Node0&#45;&gt;Node48 -->
<g id="edge76" class="edge">
<title>Node0&#45;&gt;Node48</title>
<path fill="none" stroke="#191970" d="M515.0666,-304.4152C694.9719,-299.2149 1143.179,-283.2352 1528.2092,-244.045"/>
<polygon fill="#191970" stroke="#191970" points="1528.8452,-247.4983 1538.4363,-242.997 1528.1315,-240.5347 1528.8452,-247.4983"/>
</g>
<!-- Node1&#45;&gt;Node1 -->
<g id="edge2" class="edge">
<title>Node1&#45;&gt;Node1</title>
<path fill="none" stroke="#191970" d="M297.254,-243.5001C325.8878,-246.3269 354,-243.1602 354,-234 354,-225.9133 332.0905,-222.4977 307.2547,-223.7531"/>
<polygon fill="#191970" stroke="#191970" points="306.9655,-220.2648 297.254,-224.4999 307.4869,-227.2454 306.9655,-220.2648"/>
</g>
<!-- Node1&#45;&gt;Node2 -->
<g id="edge3" class="edge">
<title>Node1&#45;&gt;Node2</title>
<path fill="none" stroke="#191970" d="M253.5839,-224.2455C252.1486,-216.9382 250.1364,-206.6944 248.3705,-197.7046"/>
<polygon fill="#191970" stroke="#191970" points="251.756,-196.7805 246.3941,-187.6427 244.8873,-198.1298 251.756,-196.7805"/>
</g>
<!-- Node3 -->
<g id="node4" class="node">
<title>Node3</title>
<polygon fill="none" stroke="#bfbfbf" points="137.5,-56.5 137.5,-75.5 181.5,-75.5 181.5,-56.5 137.5,-56.5"/>
<text text-anchor="middle" x="159.5" y="-63.5" font-family="Helvetica,sans-Serif" font-size="10.00" fill="#000000">string</text>
</g>
<!-- Node1&#45;&gt;Node3 -->
<g id="edge4" class="edge">
<title>Node1&#45;&gt;Node3</title>
<path fill="none" stroke="#191970" d="M222.7225,-224.4818C204.5615,-217.4354 183.3245,-205.8948 171.5,-188 150.9566,-156.9103 152.9009,-111.2786 156.1821,-85.54"/>
<polygon fill="#191970" stroke="#191970" points="159.6615,-85.9356 157.658,-75.5319 152.7364,-84.9142 159.6615,-85.9356"/>
</g>
<!-- Node4&#45;&gt;Node2 -->
<g id="edge6" class="edge">
<title>Node4&#45;&gt;Node2</title>
<path fill="none" stroke="#191970" d="M445.1737,-224.4369C403.7573,-214.8529 339.9223,-200.0812 295.4065,-189.78"/>
<polygon fill="#191970" stroke="#191970" points="296.1875,-186.3683 285.6559,-187.5237 294.6093,-193.1881 296.1875,-186.3683"/>
</g>
<!-- Node4&#45;&gt;Node3 -->
<g id="edge9" class="edge">
<title>Node4&#45;&gt;Node3</title>
<path fill="none" stroke="#191970" d="M492.8034,-224.4707C501.0662,-210.6619 513.1107,-184.8968 500.5,-168 416.4709,-55.4109 331.6835,-115.6488 191.5771,-76.1564"/>
<polygon fill="#191970" stroke="#191970" points="192.4133,-72.7539 181.8311,-73.2729 190.4272,-79.4663 192.4133,-72.7539"/>
</g>
<!-- Node5 -->
<g id="node6" class="node">
<title>Node5</title>
<polygon fill="none" stroke="#bfbfbf" points="327,-168.5 327,-187.5 458,-187.5 458,-168.5 327,-168.5"/>
<text text-anchor="middle" x="392.5" y="-175.5" font-family="Helvetica,sans-Serif" font-size="10.00" fill="#000000">ROOT/RDataSource.hxx</text>
</g>
<!-- Node4&#45;&gt;Node5 -->
<g id="edge7" class="edge">
<title>Node4&#45;&gt;Node5</title>
<path fill="none" stroke="#191970" d="M470.1264,-224.2455C455.5692,-215.5731 434.069,-202.7645 417.3848,-192.825"/>
<polygon fill="#191970" stroke="#191970" points="419.0683,-189.7539 408.6859,-187.6427 415.4856,-195.7676 419.0683,-189.7539"/>
</g>
<!-- Node6 -->
<g id="node7" class="node">
<title>Node6</title>
<polygon fill="none" stroke="#bfbfbf" points="61.5,-56.5 61.5,-75.5 119.5,-75.5 119.5,-56.5 61.5,-56.5"/>
<text text-anchor="middle" x="90.5" y="-63.5" font-family="Helvetica,sans-Serif" font-size="10.00" fill="#000000">memory</text>
</g>
<!-- Node4&#45;&gt;Node6 -->
<g id="edge8" class="edge">
<title>Node4&#45;&gt;Node6</title>
<path fill="none" stroke="#191970" d="M486.3714,-224.4493C485.6463,-210.1348 482.1326,-183.1807 466.5,-168 463.3984,-164.988 225.2077,-101.6705 129.5857,-76.34"/>
<polygon fill="#191970" stroke="#191970" points="130.282,-72.9038 119.7192,-73.7271 128.49,-79.6705 130.282,-72.9038"/>
</g>
<!-- Node7 -->
<g id="node8" class="node">
<title>Node7</title>
<polygon fill="none" stroke="#bfbfbf" points="553,-168.5 553,-187.5 600,-187.5 600,-168.5 553,-168.5"/>
<text text-anchor="middle" x="576.5" y="-175.5" font-family="Helvetica,sans-Serif" font-size="10.00" fill="#000000">vector</text>
</g>
<!-- Node4&#45;&gt;Node7 -->
<g id="edge10" class="edge">
<title>Node4&#45;&gt;Node7</title>
<path fill="none" stroke="#191970" d="M502.1768,-224.2455C515.9856,-215.6534 536.3193,-203.0014 552.2292,-193.1018"/>
<polygon fill="#191970" stroke="#191970" points="554.3613,-195.8974 561.0028,-187.6427 550.6632,-189.954 554.3613,-195.8974"/>
</g>
<!-- Node8&#45;&gt;Node3 -->
<g id="edge70" class="edge">
<title>Node8&#45;&gt;Node3</title>
<path fill="none" stroke="#191970" d="M1378.4792,-226.7343C1231.0057,-211.3946 880.9504,-173.67 588.5,-132 534.9716,-124.373 521.9861,-119.9176 468.5,-112 348.5054,-94.237 313.8856,-102.7578 191.8282,-75.9611"/>
<polygon fill="#191970" stroke="#191970" points="192.2382,-72.4665 181.716,-73.7051 190.714,-79.2986 192.2382,-72.4665"/>
</g>
<!-- Node8&#45;&gt;Node6 -->
<g id="edge71" class="edge">
<title>Node8&#45;&gt;Node6</title>
<path fill="none" stroke="#191970" d="M1378.2817,-229.9285C1269.178,-223.3286 1054.1972,-208.893 872.5,-188 709.4803,-169.2547 307.5339,-111.9493 129.7256,-76.0788"/>
<polygon fill="#191970" stroke="#191970" points="130.3827,-72.6408 119.8844,-74.0677 128.9812,-79.499 130.3827,-72.6408"/>
</g>
<!-- Node8&#45;&gt;Node7 -->
<g id="edge69" class="edge">
<title>Node8&#45;&gt;Node7</title>
<path fill="none" stroke="#191970" d="M1378.2476,-231.9284C1204.162,-226.5682 760.7864,-211.0344 614.5,-188 613.0259,-187.7679 611.5262,-187.5024 610.0162,-187.211"/>
<polygon fill="#191970" stroke="#191970" points="610.582,-183.7512 600.0597,-184.9895 609.0576,-190.5833 610.582,-183.7512"/>
</g>
<!-- Node9 -->
<g id="node10" class="node">
<title>Node9</title>
<g id="a_node10"><a xlink:href="../../de/d33/ASoA_8h.html" target="_top" xlink:title="Framework/ASoA.h">
<polygon fill="none" stroke="#000000" points="1571.5,-168.5 1571.5,-187.5 1679.5,-187.5 1679.5,-168.5 1571.5,-168.5"/>
<text text-anchor="middle" x="1625.5" y="-175.5" font-family="Helvetica,sans-Serif" font-size="10.00" fill="#000000">Framework/ASoA.h</text>
</a>
</g>
</g>
<!-- Node8&#45;&gt;Node9 -->
<g id="edge12" class="edge">
<title>Node8&#45;&gt;Node9</title>
<path fill="none" stroke="#191970" d="M1479.7555,-224.3733C1509.1483,-215.021 1553.9292,-200.7725 1586.0934,-190.5385"/>
<polygon fill="#191970" stroke="#191970" points="1587.1713,-193.8685 1595.6393,-187.5011 1585.0488,-187.198 1587.1713,-193.8685"/>
</g>
<!-- Node15 -->
<g id="node16" class="node">
<title>Node15</title>
<g id="a_node16"><a xlink:href="../../de/d9b/FunctionalHelpers_8h.html" target="_top" xlink:title="Framework/FunctionalHelpers.h">
<polygon fill="none" stroke="#000000" points="2018.5,-112.5 2018.5,-131.5 2188.5,-131.5 2188.5,-112.5 2018.5,-112.5"/>
<text text-anchor="middle" x="2103.5" y="-119.5" font-family="Helvetica,sans-Serif" font-size="10.00" fill="#000000">Framework/FunctionalHelpers.h</text>
</a>
</g>
</g>
<!-- Node8&#45;&gt;Node15 -->
<g id="edge60" class="edge">
<title>Node8&#45;&gt;Node15</title>
<path fill="none" stroke="#191970" d="M1520.5797,-224.9327C1523.5921,-224.606 1526.5753,-224.2934 1529.5,-224 1634.8294,-213.4318 1904.4163,-222.4852 2004.5,-188 2035.8319,-177.2042 2066.7736,-154.0195 2085.5093,-138.2134"/>
<polygon fill="#191970" stroke="#191970" points="2087.9466,-140.7327 2093.2163,-131.5413 2083.365,-135.4404 2087.9466,-140.7327"/>
</g>
<!-- Node16 -->
<g id="node17" class="node">
<title>Node16</title>
<polygon fill="none" stroke="#bfbfbf" points="2372,-56.5 2372,-75.5 2437,-75.5 2437,-56.5 2372,-56.5"/>
<text text-anchor="middle" x="2404.5" y="-63.5" font-family="Helvetica,sans-Serif" font-size="10.00" fill="#000000">functional</text>
</g>
<!-- Node8&#45;&gt;Node16 -->
<g id="edge68" class="edge">
<title>Node8&#45;&gt;Node16</title>
<path fill="none" stroke="#191970" d="M1520.5754,-224.8882C1523.589,-224.5738 1526.5736,-224.2759 1529.5,-224 1780.0097,-200.3843 1845.0539,-221.0063 2094.5,-188 2219.0165,-171.5242 2271.7629,-208.3433 2371.5,-132 2386.3983,-120.5962 2395.0507,-100.6398 2399.7276,-85.6487"/>
<polygon fill="#191970" stroke="#191970" points="2403.1581,-86.3756 2402.463,-75.8036 2396.4136,-84.5017 2403.1581,-86.3756"/>
</g>
<!-- Node26 -->
<g id="node27" class="node">
<title>Node26</title>
<polygon fill="none" stroke="#bfbfbf" points="1967,-56.5 1967,-75.5 2048,-75.5 2048,-56.5 1967,-56.5"/>
<text text-anchor="middle" x="2007.5" y="-63.5" font-family="Helvetica,sans-Serif" font-size="10.00" fill="#000000">arrow/table.h</text>
</g>
<!-- Node8&#45;&gt;Node26 -->
<g id="edge66" class="edge">
<title>Node8&#45;&gt;Node26</title>
<path fill="none" stroke="#191970" d="M1520.8092,-225.1116C1610.2808,-212.2803 1767.179,-184.1689 1892.5,-132 1926.3078,-117.9264 1962.5062,-95.8576 1985.069,-81.1649"/>
<polygon fill="#191970" stroke="#191970" points="1987.1569,-83.9805 1993.5766,-75.5521 1983.302,-78.1376 1987.1569,-83.9805"/>
</g>
<!-- Node40 -->
<g id="node41" class="node">
<title>Node40</title>
<g id="a_node41"><a xlink:href="../../db/d4f/StructToTuple_8h.html" target="_top" xlink:title="Framework/StructToTuple.h">
<polygon fill="none" stroke="#000000" points="2424,-168.5 2424,-187.5 2571,-187.5 2571,-168.5 2424,-168.5"/>
<text text-anchor="middle" x="2497.5" y="-175.5" font-family="Helvetica,sans-Serif" font-size="10.00" fill="#000000">Framework/StructToTuple.h</text>
</a>
</g>
</g>
<!-- Node8&#45;&gt;Node40 -->
<g id="edge56" class="edge">
<title>Node8&#45;&gt;Node40</title>
<path fill="none" stroke="#191970" d="M1520.568,-224.8049C1523.5836,-224.5133 1526.5707,-224.2429 1529.5,-224 1917.3865,-191.8339 2016.3507,-216.8215 2404.5,-188 2407.5592,-187.7728 2410.6733,-187.5248 2413.8176,-187.2601"/>
<polygon fill="#191970" stroke="#191970" points="2414.2798,-190.7329 2423.9316,-186.3636 2413.6616,-183.7603 2414.2798,-190.7329"/>
</g>
<!-- Node41 -->
<g id="node42" class="node">
<title>Node41</title>
<polygon fill="none" stroke="#bfbfbf" points="2585,-112.5 2585,-131.5 2626,-131.5 2626,-112.5 2585,-112.5"/>
<text text-anchor="middle" x="2605.5" y="-119.5" font-family="Helvetica,sans-Serif" font-size="10.00" fill="#000000">tuple</text>
</g>
<!-- Node8&#45;&gt;Node41 -->
<g id="edge72" class="edge">
<title>Node8&#45;&gt;Node41</title>
<path fill="none" stroke="#191970" d="M1520.566,-224.7795C1523.5821,-224.4948 1526.5699,-224.2328 1529.5,-224 1587.7395,-219.3721 2533.0008,-222.016 2580.5,-188 2595.2497,-177.4372 2601.3006,-157.0151 2603.781,-141.6717"/>
<polygon fill="#191970" stroke="#191970" points="2607.2714,-141.9654 2605.0295,-131.6105 2600.3246,-141.1033 2607.2714,-141.9654"/>
</g>
<!-- Node42 -->
<g id="node43" class="node">
<title>Node42</title>
<g id="a_node43"><a xlink:href="../../d7/dbe/VariantHelpers_8h.html" target="_top" xlink:title="Framework/VariantHelpers.h">
<polygon fill="none" stroke="#000000" points="2207,-112.5 2207,-131.5 2362,-131.5 2362,-112.5 2207,-112.5"/>
<text text-anchor="middle" x="2284.5" y="-119.5" font-family="Helvetica,sans-Serif" font-size="10.00" fill="#000000">Framework/VariantHelpers.h</text>
</a>
</g>
</g>
<!-- Node8&#45;&gt;Node42 -->
<g id="edge61" class="edge">
<title>Node8&#45;&gt;Node42</title>
<path fill="none" stroke="#191970" d="M1520.578,-224.9151C1523.5909,-224.5933 1526.5746,-224.2865 1529.5,-224 1754.3251,-201.9824 1813.6858,-225.2147 2036.5,-188 2111.99,-175.3916 2197.8359,-149.9864 2246.1489,-134.6355"/>
<polygon fill="#191970" stroke="#191970" points="2247.4162,-137.9048 2255.8715,-131.5206 2245.2804,-131.2386 2247.4162,-137.9048"/>
</g>
<!-- Node43 -->
<g id="node44" class="node">
<title>Node43</title>
<polygon fill="none" stroke="#bfbfbf" points="1176.5,-168.5 1176.5,-187.5 1232.5,-187.5 1232.5,-168.5 1176.5,-168.5"/>
<text text-anchor="middle" x="1204.5" y="-175.5" font-family="Helvetica,sans-Serif" font-size="10.00" fill="#000000">sstream</text>
</g>
<!-- Node8&#45;&gt;Node43 -->
<g id="edge63" class="edge">
<title>Node8&#45;&gt;Node43</title>
<path fill="none" stroke="#191970" d="M1403.505,-224.467C1363.4078,-216.0128 1303.4618,-203.0292 1242.5314,-188.1779"/>
<polygon fill="#191970" stroke="#191970" points="1243.2927,-184.761 1232.7469,-185.7788 1241.6257,-191.5596 1243.2927,-184.761"/>
</g>
<!-- Node44 -->
<g id="node45" class="node">
<title>Node44</title>
<polygon fill="none" stroke="#bfbfbf" points="1250.5,-168.5 1250.5,-187.5 1318.5,-187.5 1318.5,-168.5 1250.5,-168.5"/>
<text text-anchor="middle" x="1284.5" y="-175.5" font-family="Helvetica,sans-Serif" font-size="10.00" fill="#000000">arrow/stl.h</text>
</g>
<!-- Node8&#45;&gt;Node44 -->
<g id="edge64" class="edge">
<title>Node8&#45;&gt;Node44</title>
<path fill="none" stroke="#191970" d="M1421.1355,-224.3733C1393.8173,-215.1016 1352.3204,-201.0178 1322.2262,-190.804"/>
<polygon fill="#191970" stroke="#191970" points="1323.0887,-187.4008 1312.4944,-187.5011 1320.839,-194.0294 1323.0887,-187.4008"/>
</g>
<!-- Node45 -->
<g id="node46" class="node">
<title>Node45</title>
<polygon fill="none" stroke="#bfbfbf" points="1337,-168.5 1337,-187.5 1446,-187.5 1446,-168.5 1337,-168.5"/>
<text text-anchor="middle" x="1391.5" y="-175.5" font-family="Helvetica,sans-Serif" font-size="10.00" fill="#000000">arrow/type_traits.h</text>
</g>
<!-- Node8&#45;&gt;Node45 -->
<g id="edge65" class="edge">
<title>Node8&#45;&gt;Node45</title>
<path fill="none" stroke="#191970" d="M1439.3972,-224.2455C1430.9972,-216.1352 1418.8506,-204.4075 1408.8916,-194.7919"/>
<polygon fill="#191970" stroke="#191970" points="1411.1122,-192.0707 1401.4871,-187.6427 1406.25,-197.1066 1411.1122,-192.0707"/>
</g>
<!-- Node46 -->
<g id="node47" class="node">
<title>Node46</title>
<polygon fill="none" stroke="#bfbfbf" points="1464,-168.5 1464,-187.5 1553,-187.5 1553,-168.5 1464,-168.5"/>
<text text-anchor="middle" x="1508.5" y="-175.5" font-family="Helvetica,sans-Serif" font-size="10.00" fill="#000000">arrow/builder.h</text>
</g>
<!-- Node8&#45;&gt;Node46 -->
<g id="edge67" class="edge">
<title>Node8&#45;&gt;Node46</title>
<path fill="none" stroke="#191970" d="M1459.777,-224.2455C1468.3218,-216.1352 1480.6778,-204.4075 1490.8085,-194.7919"/>
<polygon fill="#191970" stroke="#191970" points="1493.4972,-197.0655 1498.3408,-187.6427 1488.6782,-191.9884 1493.4972,-197.0655"/>
</g>
<!-- Node10 -->
<g id="node11" class="node">
<title>Node10</title>
<g id="a_node11"><a xlink:href="../../dd/dce/Pack_8h.html" target="_top" xlink:title="Framework/Pack.h">
<polygon fill="none" stroke="#000000" points="2066,-56.5 2066,-75.5 2171,-75.5 2171,-56.5 2066,-56.5"/>
<text text-anchor="middle" x="2118.5" y="-63.5" font-family="Helvetica,sans-Serif" font-size="10.00" fill="#000000">Framework/Pack.h</text>
</a>
</g>
</g>
<!-- Node9&#45;&gt;Node10 -->
<g id="edge13" class="edge">
<title>Node9&#45;&gt;Node10</title>
<path fill="none" stroke="#191970" d="M1679.5595,-172.5355C1734.1215,-166.1291 1820.3911,-153.5471 1892.5,-132 1913.86,-125.6173 1917.4109,-119.2274 1938.5,-112 1979.4984,-97.9495 2027.0473,-85.9759 2062.9756,-77.7697"/>
<polygon fill="#191970" stroke="#191970" points="2063.8015,-81.1714 2072.786,-75.5564 2062.2609,-74.3431 2063.8015,-81.1714"/>
</g>
<!-- Node14 -->
<g id="node15" class="node">
<title>Node14</title>
<g id="a_node15"><a xlink:href="../../d1/d00/CheckTypes_8h.html" target="_top" xlink:title="Framework/CheckTypes.h">
<polygon fill="none" stroke="#000000" points="1808.5,-56.5 1808.5,-75.5 1948.5,-75.5 1948.5,-56.5 1808.5,-56.5"/>
<text text-anchor="middle" x="1878.5" y="-63.5" font-family="Helvetica,sans-Serif" font-size="10.00" fill="#000000">Framework/CheckTypes.h</text>
</a>
</g>
</g>
<!-- Node9&#45;&gt;Node14 -->
<g id="edge17" class="edge">
<title>Node9&#45;&gt;Node14</title>
<path fill="none" stroke="#191970" d="M1628.3143,-168.1957C1633.049,-153.5499 1644.05,-126.1689 1663.5,-112 1684.9402,-96.3813 1746.4713,-84.1632 1798.2425,-76.2568"/>
<polygon fill="#191970" stroke="#191970" points="1799.078,-79.671 1808.4518,-74.7333 1798.0447,-72.7476 1799.078,-79.671"/>
</g>
<!-- Node9&#45;&gt;Node15 -->
<g id="edge18" class="edge">
<title>Node9&#45;&gt;Node15</title>
<path fill="none" stroke="#191970" d="M1679.8673,-171.6306C1760.6924,-162.1616 1913.5479,-144.2538 2011.8552,-132.7366"/>
<polygon fill="#191970" stroke="#191970" points="2012.5569,-136.1784 2022.0817,-131.5385 2011.7423,-129.226 2012.5569,-136.1784"/>
</g>
<!-- Node17 -->
<g id="node18" class="node">
<title>Node17</title>
<g id="a_node18"><a xlink:href="../../d9/de8/CompilerBuiltins_8h.html" target="_top" xlink:title="Framework/CompilerBuiltins.h">
<polygon fill="none" stroke="#000000" points="2189.5,-56.5 2189.5,-75.5 2353.5,-75.5 2353.5,-56.5 2189.5,-56.5"/>
<text text-anchor="middle" x="2271.5" y="-63.5" font-family="Helvetica,sans-Serif" font-size="10.00" fill="#000000">Framework/CompilerBuiltins.h</text>
</a>
</g>
</g>
<!-- Node9&#45;&gt;Node17 -->
<g id="edge21" class="edge">
<title>Node9&#45;&gt;Node17</title>
<path fill="none" stroke="#191970" d="M1679.5852,-171.3905C1740.5861,-163.5714 1842.6155,-149.3934 1929.5,-132 1965.4368,-124.8058 1973.6507,-119.6181 2009.5,-112 2073.6876,-98.3598 2147.3373,-85.69 2200.1705,-77.1155"/>
<polygon fill="#191970" stroke="#191970" points="2200.8038,-80.5587 2210.1181,-75.5095 2199.6881,-73.6481 2200.8038,-80.5587"/>
</g>
<!-- Node18 -->
<g id="node19" class="node">
<title>Node18</title>
<g id="a_node19"><a xlink:href="../../db/d31/Traits_8h.html" target="_top" xlink:title="Framework/Traits.h">
<polygon fill="none" stroke="#000000" points="2419,-112.5 2419,-131.5 2528,-131.5 2528,-112.5 2419,-112.5"/>
<text text-anchor="middle" x="2473.5" y="-119.5" font-family="Helvetica,sans-Serif" font-size="10.00" fill="#000000">Framework/Traits.h</text>
</a>
</g>
</g>
<!-- Node9&#45;&gt;Node18 -->
<g id="edge22" class="edge">
<title>Node9&#45;&gt;Node18</title>
<path fill="none" stroke="#191970" d="M1679.8371,-175.324C1802.9979,-169.1107 2112.8031,-152.6503 2371.5,-132 2383.4862,-131.0432 2396.252,-129.8947 2408.5506,-128.7224"/>
<polygon fill="#191970" stroke="#191970" points="2409.1278,-132.183 2418.7441,-127.7358 2408.4534,-125.2155 2409.1278,-132.183"/>
</g>
<!-- Node20 -->
<g id="node21" class="node">
<title>Node20</title>
<g id="a_node21"><a xlink:href="../../d0/d91/Expressions_8h.html" target="_top" xlink:title="Framework/Expressions.h">
<polygon fill="none" stroke="#000000" points="1111,-112.5 1111,-131.5 1252,-131.5 1252,-112.5 1111,-112.5"/>
<text text-anchor="middle" x="1181.5" y="-119.5" font-family="Helvetica,sans-Serif" font-size="10.00" fill="#000000">Framework/Expressions.h</text>
</a>
</g>
</g>
<!-- Node9&#45;&gt;Node20 -->
<g id="edge24" class="edge">
<title>Node9&#45;&gt;Node20</title>
<path fill="none" stroke="#191970" d="M1571.2236,-169.2492C1568.2743,-168.816 1565.3519,-168.3967 1562.5,-168 1432.3118,-149.8891 1396.9455,-148.4189 1262.454,-132.1071"/>
<polygon fill="#191970" stroke="#191970" points="1262.5176,-128.5891 1252.1677,-130.8542 1261.6711,-135.5377 1262.5176,-128.5891"/>
</g>
<!-- Node9&#45;&gt;Node26 -->
<g id="edge49" class="edge">
<title>Node9&#45;&gt;Node26</title>
<path fill="none" stroke="#191970" d="M1679.8808,-170.983C1727.5033,-163.9543 1798.1675,-151.3693 1857.5,-132 1877.5365,-125.459 1881.2606,-120.6076 1900.5,-112 1925.6293,-100.7573 1954.2938,-88.4622 1975.6255,-79.414"/>
<polygon fill="#191970" stroke="#191970" points="1977.0267,-82.6217 1984.8716,-75.5007 1974.2983,-76.1753 1977.0267,-82.6217"/>
</g>
<!-- Node27 -->
<g id="node28" class="node">
<title>Node27</title>
<polygon fill="none" stroke="#bfbfbf" points="736,-56.5 736,-75.5 883,-75.5 883,-56.5 736,-56.5"/>
<text text-anchor="middle" x="809.5" y="-63.5" font-family="Helvetica,sans-Serif" font-size="10.00" fill="#000000">gandiva/selection_vector.h</text>
</g>
<!-- Node9&#45;&gt;Node27 -->
<g id="edge54" class="edge">
<title>Node9&#45;&gt;Node27</title>
<path fill="none" stroke="#191970" d="M1571.2418,-169.1077C1568.2878,-168.711 1565.3594,-168.3383 1562.5,-168 1358.8507,-143.9069 1305.2721,-162.6107 1102.5,-132 1013.4922,-118.5633 911.2871,-93.235 854.1607,-78.1638"/>
<polygon fill="#191970" stroke="#191970" points="854.9342,-74.748 844.3709,-75.5649 853.1381,-81.5137 854.9342,-74.748"/>
</g>
<!-- Node31 -->
<g id="node32" class="node">
<title>Node31</title>
<g id="a_node32"><a xlink:href="../../d0/d92/Kernels_8h.html" target="_top" xlink:title="Framework/Kernels.h">
<polygon fill="none" stroke="#000000" points="598,-112.5 598,-131.5 717,-131.5 717,-112.5 598,-112.5"/>
<text text-anchor="middle" x="657.5" y="-119.5" font-family="Helvetica,sans-Serif" font-size="10.00" fill="#000000">Framework/Kernels.h</text>
</a>
</g>
</g>
<!-- Node9&#45;&gt;Node31 -->
<g id="edge40" class="edge">
<title>Node9&#45;&gt;Node31</title>
<path fill="none" stroke="#191970" d="M1571.2523,-169.013C1568.2957,-168.6408 1565.3638,-168.2992 1562.5,-168 1480.4526,-159.4278 925.3323,-134.023 727.4173,-125.1227"/>
<polygon fill="#191970" stroke="#191970" points="727.2885,-121.6135 717.1415,-124.661 726.9742,-128.6065 727.2885,-121.6135"/>
</g>
<!-- Node32 -->
<g id="node33" class="node">
<title>Node32</title>
<polygon fill="none" stroke="#bfbfbf" points="438,-56.5 438,-75.5 571,-75.5 571,-56.5 438,-56.5"/>
<text text-anchor="middle" x="504.5" y="-63.5" font-family="Helvetica,sans-Serif" font-size="10.00" fill="#000000">arrow/compute/kernel.h</text>
</g>
<!-- Node9&#45;&gt;Node32 -->
<g id="edge53" class="edge">
<title>Node9&#45;&gt;Node32</title>
<path fill="none" stroke="#191970" d="M1571.2477,-169.056C1568.2922,-168.6727 1565.3619,-168.317 1562.5,-168 1310.6453,-140.107 1245.662,-156.9623 993.5,-132 843.8016,-117.1809 669.3889,-91.6377 574.603,-77.0553"/>
<polygon fill="#191970" stroke="#191970" points="574.9809,-73.5723 564.564,-75.506 573.9132,-80.4904 574.9809,-73.5723"/>
</g>
<!-- Node35 -->
<g id="node36" class="node">
<title>Node35</title>
<polygon fill="none" stroke="#bfbfbf" points="1360.5,-56.5 1360.5,-75.5 1470.5,-75.5 1470.5,-56.5 1360.5,-56.5"/>
<text text-anchor="middle" x="1415.5" y="-63.5" font-family="Helvetica,sans-Serif" font-size="10.00" fill="#000000">arrow/util/variant.h</text>
</g>
<!-- Node9&#45;&gt;Node35 -->
<g id="edge51" class="edge">
<title>Node9&#45;&gt;Node35</title>
<path fill="none" stroke="#191970" d="M1622.5944,-168.3177C1617.7404,-153.8315 1606.5857,-126.656 1587.5,-112 1570.2505,-98.7541 1519.9946,-86.1714 1478.2302,-77.525"/>
<polygon fill="#191970" stroke="#191970" points="1478.8673,-74.083 1468.3708,-75.523 1477.4743,-80.943 1478.8673,-74.083"/>
</g>
<!-- Node36 -->
<g id="node37" class="node">
<title>Node36</title>
<g id="a_node37"><a xlink:href="../../d1/dc1/ArrowCompatibility_8h.html" target="_top" xlink:title="Framework/ArrowCompatibility.h">
<polygon fill="none" stroke="#000000" points="1672.5,-112.5 1672.5,-131.5 1848.5,-131.5 1848.5,-112.5 1672.5,-112.5"/>
<text text-anchor="middle" x="1760.5" y="-119.5" font-family="Helvetica,sans-Serif" font-size="10.00" fill="#000000">Framework/ArrowCompatibility.h</text>
</a>
</g>
</g>
<!-- Node9&#45;&gt;Node36 -->
<g id="edge47" class="edge">
<title>Node9&#45;&gt;Node36</title>
<path fill="none" stroke="#191970" d="M1648.7073,-168.3733C1670.6699,-159.2629 1703.8332,-145.5062 1728.3401,-135.3404"/>
<polygon fill="#191970" stroke="#191970" points="1729.6997,-138.5657 1737.5955,-131.5011 1727.0176,-132.0999 1729.6997,-138.5657"/>
</g>
<!-- Node37 -->
<g id="node38" class="node">
<title>Node37</title>
<polygon fill="none" stroke="#bfbfbf" points="1270.5,-112.5 1270.5,-131.5 1350.5,-131.5 1350.5,-112.5 1270.5,-112.5"/>
<text text-anchor="middle" x="1310.5" y="-119.5" font-family="Helvetica,sans-Serif" font-size="10.00" fill="#000000">arrow/array.h</text>
</g>
<!-- Node9&#45;&gt;Node37 -->
<g id="edge50" class="edge">
<title>Node9&#45;&gt;Node37</title>
<path fill="none" stroke="#191970" d="M1571.3751,-169.0204C1517.7673,-160.0287 1433.3683,-145.609 1360.5,-132 1360.3994,-131.9812 1360.2987,-131.9624 1360.1978,-131.9435"/>
<polygon fill="#191970" stroke="#191970" points="1361.0782,-128.5484 1350.5996,-130.1135 1359.7672,-135.4246 1361.0782,-128.5484"/>
</g>
<!-- Node38 -->
<g id="node39" class="node">
<title>Node38</title>
<polygon fill="none" stroke="#bfbfbf" points="1369,-112.5 1369,-131.5 1508,-131.5 1508,-112.5 1369,-112.5"/>
<text text-anchor="middle" x="1438.5" y="-119.5" font-family="Helvetica,sans-Serif" font-size="10.00" fill="#000000">arrow/compute/context.h</text>
</g>
<!-- Node9&#45;&gt;Node38 -->
<g id="edge52" class="edge">
<title>Node9&#45;&gt;Node38</title>
<path fill="none" stroke="#191970" d="M1593.3536,-168.3733C1561.9891,-158.9807 1514.1335,-144.6496 1479.9284,-134.4064"/>
<polygon fill="#191970" stroke="#191970" points="1480.8107,-131.0171 1470.227,-131.5011 1478.8025,-137.7229 1480.8107,-131.0171"/>
</g>
<!-- Node39 -->
<g id="node40" class="node">
<title>Node39</title>
<polygon fill="none" stroke="#bfbfbf" points="1526.5,-112.5 1526.5,-131.5 1578.5,-131.5 1578.5,-112.5 1526.5,-112.5"/>
<text text-anchor="middle" x="1552.5" y="-119.5" font-family="Helvetica,sans-Serif" font-size="10.00" fill="#000000">cassert</text>
</g>
<!-- Node9&#45;&gt;Node39 -->
<g id="edge55" class="edge">
<title>Node9&#45;&gt;Node39</title>
<path fill="none" stroke="#191970" d="M1612.7844,-168.2455C1601.898,-159.8943 1586.0117,-147.7076 1573.28,-137.9408"/>
<polygon fill="#191970" stroke="#191970" points="1575.1346,-134.9523 1565.0699,-131.6427 1570.8739,-140.5063 1575.1346,-134.9523"/>
</g>
<!-- Node11 -->
<g id="node12" class="node">
<title>Node11</title>
<polygon fill="none" stroke="#bfbfbf" points="2025,-.5 2025,-19.5 2078,-19.5 2078,-.5 2025,-.5"/>
<text text-anchor="middle" x="2051.5" y="-7.5" font-family="Helvetica,sans-Serif" font-size="10.00" fill="#000000">cstddef</text>
</g>
<!-- Node10&#45;&gt;Node11 -->
<g id="edge14" class="edge">
<title>Node10&#45;&gt;Node11</title>
<path fill="none" stroke="#191970" d="M2106.8295,-56.2455C2096.9339,-47.9746 2082.5373,-35.9416 2070.9099,-26.2232"/>
<polygon fill="#191970" stroke="#191970" points="2072.9542,-23.3703 2063.0368,-19.6427 2068.465,-28.7413 2072.9542,-23.3703"/>
</g>
<!-- Node12 -->
<g id="node13" class="node">
<title>Node12</title>
<polygon fill="none" stroke="#bfbfbf" points="2096,-.5 2096,-19.5 2141,-19.5 2141,-.5 2096,-.5"/>
<text text-anchor="middle" x="2118.5" y="-7.5" font-family="Helvetica,sans-Serif" font-size="10.00" fill="#000000">utility</text>
</g>
<!-- Node10&#45;&gt;Node12 -->
<g id="edge15" class="edge">
<title>Node10&#45;&gt;Node12</title>
<path fill="none" stroke="#191970" d="M2118.5,-56.2455C2118.5,-48.9382 2118.5,-38.6944 2118.5,-29.7046"/>
<polygon fill="#191970" stroke="#191970" points="2122.0001,-29.6426 2118.5,-19.6427 2115.0001,-29.6427 2122.0001,-29.6426"/>
</g>
<!-- Node13 -->
<g id="node14" class="node">
<title>Node13</title>
<polygon fill="none" stroke="#bfbfbf" points="2159.5,-.5 2159.5,-19.5 2205.5,-19.5 2205.5,-.5 2159.5,-.5"/>
<text text-anchor="middle" x="2182.5" y="-7.5" font-family="Helvetica,sans-Serif" font-size="10.00" fill="#000000">cstdio</text>
</g>
<!-- Node10&#45;&gt;Node13 -->
<g id="edge16" class="edge">
<title>Node10&#45;&gt;Node13</title>
<path fill="none" stroke="#191970" d="M2129.6479,-56.2455C2139.0087,-48.0549 2152.5858,-36.1749 2163.6349,-26.5069"/>
<polygon fill="#191970" stroke="#191970" points="2166.2588,-28.8618 2171.4798,-19.6427 2161.6492,-23.5937 2166.2588,-28.8618"/>
</g>
<!-- Node15&#45;&gt;Node10 -->
<g id="edge19" class="edge">
<title>Node15&#45;&gt;Node10</title>
<path fill="none" stroke="#191970" d="M2106.1128,-112.2455C2108.0916,-104.8579 2110.8744,-94.4689 2113.3012,-85.4087"/>
<polygon fill="#191970" stroke="#191970" points="2116.7105,-86.2078 2115.9171,-75.6427 2109.9489,-84.3966 2116.7105,-86.2078"/>
</g>
<!-- Node15&#45;&gt;Node16 -->
<g id="edge20" class="edge">
<title>Node15&#45;&gt;Node16</title>
<path fill="none" stroke="#191970" d="M2162.8351,-112.467C2213.1915,-104.1477 2287.5814,-91.3218 2361.9654,-76.0154"/>
<polygon fill="#191970" stroke="#191970" points="2362.9009,-79.396 2371.9823,-73.9389 2361.48,-72.5417 2362.9009,-79.396"/>
</g>
<!-- Node19 -->
<g id="node20" class="node">
<title>Node19</title>
<polygon fill="none" stroke="#bfbfbf" points="2489,-56.5 2489,-75.5 2558,-75.5 2558,-56.5 2489,-56.5"/>
<text text-anchor="middle" x="2523.5" y="-63.5" font-family="Helvetica,sans-Serif" font-size="10.00" fill="#000000">type_traits</text>
</g>
<!-- Node18&#45;&gt;Node19 -->
<g id="edge23" class="edge">
<title>Node18&#45;&gt;Node19</title>
<path fill="none" stroke="#191970" d="M2482.2093,-112.2455C2489.3073,-104.2958 2499.5084,-92.8706 2507.995,-83.3656"/>
<polygon fill="#191970" stroke="#191970" points="2510.8411,-85.4331 2514.8905,-75.6427 2505.6195,-80.771 2510.8411,-85.4331"/>
</g>
<!-- Node20&#45;&gt;Node3 -->
<g id="edge38" class="edge">
<title>Node20&#45;&gt;Node3</title>
<path fill="none" stroke="#191970" d="M1110.9511,-119.8088C905.726,-113.2875 316.154,-93.4615 191.6491,-75.5476"/>
<polygon fill="#191970" stroke="#191970" points="192.1012,-72.0753 181.6702,-73.9312 190.9819,-78.9852 192.1012,-72.0753"/>
</g>
<!-- Node20&#45;&gt;Node6 -->
<g id="edge39" class="edge">
<title>Node20&#45;&gt;Node6</title>
<path fill="none" stroke="#191970" d="M1110.852,-120.8809C910.0323,-117.3929 337.542,-105.2403 129.7414,-75.8388"/>
<polygon fill="#191970" stroke="#191970" points="130.2315,-72.3733 119.8286,-74.3803 129.2126,-79.2987 130.2315,-72.3733"/>
</g>
<!-- Node20&#45;&gt;Node10 -->
<g id="edge27" class="edge">
<title>Node20&#45;&gt;Node10</title>
<path fill="none" stroke="#191970" d="M1252.1384,-112.8624C1255.3,-112.5505 1258.4317,-112.2607 1261.5,-112 1611.0939,-82.2919 1703.5591,-112.1443 2056.0101,-76.0428"/>
<polygon fill="#191970" stroke="#191970" points="2056.3935,-79.5219 2065.9802,-75.0111 2055.673,-72.559 2056.3935,-79.5219"/>
</g>
<!-- Node20&#45;&gt;Node14 -->
<g id="edge28" class="edge">
<title>Node20&#45;&gt;Node14</title>
<path fill="none" stroke="#191970" d="M1252.1459,-112.9455C1255.3055,-112.6111 1258.4347,-112.2939 1261.5,-112 1496.7905,-89.441 1559.2672,-98.7921 1798.2713,-76.0667"/>
<polygon fill="#191970" stroke="#191970" points="1798.6929,-79.5424 1808.3128,-75.103 1798.0242,-72.5744 1798.6929,-79.5424"/>
</g>
<!-- Node20&#45;&gt;Node17 -->
<g id="edge26" class="edge">
<title>Node20&#45;&gt;Node17</title>
<path fill="none" stroke="#191970" d="M1252.1364,-112.8392C1255.2986,-112.5336 1258.431,-112.2515 1261.5,-112 1665.6102,-78.8886 1771.175,-105.9008 2179.1823,-76.0467"/>
<polygon fill="#191970" stroke="#191970" points="2179.4691,-79.5352 2189.184,-75.308 2178.9534,-72.5542 2179.4691,-79.5352"/>
</g>
<!-- Node21 -->
<g id="node22" class="node">
<title>Node21</title>
<g id="a_node22"><a xlink:href="../../dd/dc2/BasicOps_8h.html" target="_top" xlink:title="Framework/BasicOps.h">
<polygon fill="none" stroke="#000000" points="589.5,-56.5 589.5,-75.5 717.5,-75.5 717.5,-56.5 589.5,-56.5"/>
<text text-anchor="middle" x="653.5" y="-63.5" font-family="Helvetica,sans-Serif" font-size="10.00" fill="#000000">Framework/BasicOps.h</text>
</a>
</g>
</g>
<!-- Node20&#45;&gt;Node21 -->
<g id="edge25" class="edge">
<title>Node20&#45;&gt;Node21</title>
<path fill="none" stroke="#191970" d="M1110.8743,-115.6406C1023.4442,-107.5928 869.7179,-92.8714 727.776,-76.118"/>
<polygon fill="#191970" stroke="#191970" points="727.9203,-72.6107 717.5777,-74.9083 727.0958,-79.5619 727.9203,-72.6107"/>
</g>
<!-- Node22 -->
<g id="node23" class="node">
<title>Node22</title>
<polygon fill="none" stroke="#bfbfbf" points="1077,-56.5 1077,-75.5 1178,-75.5 1178,-56.5 1077,-56.5"/>
<text text-anchor="middle" x="1127.5" y="-63.5" font-family="Helvetica,sans-Serif" font-size="10.00" fill="#000000">arrow/type_fwd.h</text>
</g>
<!-- Node20&#45;&gt;Node22 -->
<g id="edge29" class="edge">
<title>Node20&#45;&gt;Node22</title>
<path fill="none" stroke="#191970" d="M1172.0939,-112.2455C1164.3507,-104.2155 1153.188,-92.6394 1143.9682,-83.0781"/>
<polygon fill="#191970" stroke="#191970" points="1146.2591,-80.4117 1136.7983,-75.6427 1141.2202,-85.2706 1146.2591,-80.4117"/>
</g>
<!-- Node23 -->
<g id="node24" class="node">
<title>Node23</title>
<polygon fill="none" stroke="#bfbfbf" points="1196.5,-56.5 1196.5,-75.5 1342.5,-75.5 1342.5,-56.5 1196.5,-56.5"/>
<text text-anchor="middle" x="1269.5" y="-63.5" font-family="Helvetica,sans-Serif" font-size="10.00" fill="#000000">gandiva/gandiva_aliases.h</text>
</g>
<!-- Node20&#45;&gt;Node23 -->
<g id="edge30" class="edge">
<title>Node20&#45;&gt;Node23</title>
<path fill="none" stroke="#191970" d="M1196.8284,-112.2455C1210.3303,-103.6534 1230.2122,-91.0014 1245.7686,-81.1018"/>
<polygon fill="#191970" stroke="#191970" points="1247.7897,-83.9643 1254.3472,-75.6427 1244.0315,-78.0587 1247.7897,-83.9643"/>
</g>
<!-- Node24 -->
<g id="node25" class="node">
<title>Node24</title>
<polygon fill="none" stroke="#bfbfbf" points="1488.5,-56.5 1488.5,-75.5 1566.5,-75.5 1566.5,-56.5 1488.5,-56.5"/>
<text text-anchor="middle" x="1527.5" y="-63.5" font-family="Helvetica,sans-Serif" font-size="10.00" fill="#000000">arrow/type.h</text>
</g>
<!-- Node20&#45;&gt;Node24 -->
<g id="edge31" class="edge">
<title>Node20&#45;&gt;Node24</title>
<path fill="none" stroke="#191970" d="M1250.0213,-112.4607C1308.2268,-104.1199 1394.2228,-91.2391 1478.2679,-76.1553"/>
<polygon fill="#191970" stroke="#191970" points="1479.0216,-79.5759 1488.2399,-74.3534 1477.7768,-72.6874 1479.0216,-79.5759"/>
</g>
<!-- Node25 -->
<g id="node26" class="node">
<title>Node25</title>
<polygon fill="none" stroke="#bfbfbf" points="1585,-56.5 1585,-75.5 1680,-75.5 1680,-56.5 1585,-56.5"/>
<text text-anchor="middle" x="1632.5" y="-63.5" font-family="Helvetica,sans-Serif" font-size="10.00" fill="#000000">gandiva/arrow.h</text>
</g>
<!-- Node20&#45;&gt;Node25 -->
<g id="edge32" class="edge">
<title>Node20&#45;&gt;Node25</title>
<path fill="none" stroke="#191970" d="M1252.1655,-113.1271C1255.3198,-112.7436 1258.4425,-112.3664 1261.5,-112 1397.7032,-95.6799 1434.7607,-96.1149 1574.6926,-76.0417"/>
<polygon fill="#191970" stroke="#191970" points="1575.5513,-79.4541 1584.9482,-74.5605 1574.5506,-72.526 1575.5513,-79.4541"/>
</g>
<!-- Node20&#45;&gt;Node26 -->
<g id="edge33" class="edge">
<title>Node20&#45;&gt;Node26</title>
<path fill="none" stroke="#191970" d="M1252.1405,-112.8873C1255.3016,-112.5687 1258.4326,-112.2707 1261.5,-112 1566.7334,-85.0648 1648.4047,-113.8437 1956.7948,-75.89"/>
<polygon fill="#191970" stroke="#191970" points="1957.4306,-79.338 1966.9218,-74.6299 1956.5661,-72.3916 1957.4306,-79.338"/>
</g>
<!-- Node20&#45;&gt;Node27 -->
<g id="edge34" class="edge">
<title>Node20&#45;&gt;Node27</title>
<path fill="none" stroke="#191970" d="M1117.9736,-112.4369C1052.8374,-102.6314 951.6285,-87.3957 883.0573,-77.0731"/>
<polygon fill="#191970" stroke="#191970" points="883.174,-73.5514 872.7644,-75.5237 882.1319,-80.4734 883.174,-73.5514"/>
</g>
<!-- Node28 -->
<g id="node29" class="node">
<title>Node28</title>
<polygon fill="none" stroke="#bfbfbf" points="1698.5,-56.5 1698.5,-75.5 1790.5,-75.5 1790.5,-56.5 1698.5,-56.5"/>
<text text-anchor="middle" x="1744.5" y="-63.5" font-family="Helvetica,sans-Serif" font-size="10.00" fill="#000000">gandiva/node.h</text>
</g>
<!-- Node20&#45;&gt;Node28 -->
<g id="edge35" class="edge">
<title>Node20&#45;&gt;Node28</title>
<path fill="none" stroke="#191970" d="M1252.1525,-113.0112C1255.3103,-112.659 1258.4373,-112.3201 1261.5,-112 1448.1152,-92.4963 1498.5511,-100.8056 1688.3113,-76.0468"/>
<polygon fill="#191970" stroke="#191970" points="1688.8805,-79.5021 1698.3372,-74.725 1687.9655,-72.5622 1688.8805,-79.5021"/>
</g>
<!-- Node29 -->
<g id="node30" class="node">
<title>Node29</title>
<polygon fill="none" stroke="#bfbfbf" points="901,-56.5 901,-75.5 990,-75.5 990,-56.5 901,-56.5"/>
<text text-anchor="middle" x="945.5" y="-63.5" font-family="Helvetica,sans-Serif" font-size="10.00" fill="#000000">gandiva/filter.h</text>
</g>
<!-- Node20&#45;&gt;Node29 -->
<g id="edge36" class="edge">
<title>Node20&#45;&gt;Node29</title>
<path fill="none" stroke="#191970" d="M1141.1983,-112.4369C1100.8936,-102.8731 1038.8179,-88.1432 995.4182,-77.845"/>
<polygon fill="#191970" stroke="#191970" points="996.1734,-74.4271 985.6355,-75.5237 994.5572,-81.238 996.1734,-74.4271"/>
</g>
<!-- Node30 -->
<g id="node31" class="node">
<title>Node30</title>
<polygon fill="none" stroke="#bfbfbf" points="1008,-56.5 1008,-75.5 1059,-75.5 1059,-56.5 1008,-56.5"/>
<text text-anchor="middle" x="1033.5" y="-63.5" font-family="Helvetica,sans-Serif" font-size="10.00" fill="#000000">variant</text>
</g>
<!-- Node20&#45;&gt;Node30 -->
<g id="edge37" class="edge">
<title>Node20&#45;&gt;Node30</title>
<path fill="none" stroke="#191970" d="M1156.0579,-112.3733C1131.7674,-103.1822 1094.9792,-89.2624 1068.0457,-79.0713"/>
<polygon fill="#191970" stroke="#191970" points="1069.2016,-75.7666 1058.6101,-75.5011 1066.7243,-82.3136 1069.2016,-75.7666"/>
</g>
<!-- Node31&#45;&gt;Node3 -->
<g id="edge46" class="edge">
<title>Node31&#45;&gt;Node3</title>
<path fill="none" stroke="#191970" d="M597.753,-113.7019C592.9338,-113.1009 588.1374,-112.5255 583.5,-112 412.4512,-92.6174 364.1257,-110.45 191.6132,-75.8281"/>
<polygon fill="#191970" stroke="#191970" points="192.1915,-72.3741 181.6941,-73.8076 190.7942,-79.2332 192.1915,-72.3741"/>
</g>
<!-- Node31&#45;&gt;Node21 -->
<g id="edge41" class="edge">
<title>Node31&#45;&gt;Node21</title>
<path fill="none" stroke="#191970" d="M656.8033,-112.2455C656.2813,-104.9382 655.5496,-94.6944 654.9075,-85.7046"/>
<polygon fill="#191970" stroke="#191970" points="658.3924,-85.3679 654.1888,-75.6427 651.4102,-85.8667 658.3924,-85.3679"/>
</g>
<!-- Node31&#45;&gt;Node32 -->
<g id="edge42" class="edge">
<title>Node31&#45;&gt;Node32</title>
<path fill="none" stroke="#191970" d="M631.1984,-112.3733C606.0872,-103.1822 568.0562,-89.2624 540.2128,-79.0713"/>
<polygon fill="#191970" stroke="#191970" points="541.0522,-75.6516 530.4584,-75.5011 538.6462,-82.2251 541.0522,-75.6516"/>
</g>
<!-- Node33 -->
<g id="node34" class="node">
<title>Node33</title>
<polygon fill="none" stroke="#bfbfbf" points="333.5,-56.5 333.5,-75.5 419.5,-75.5 419.5,-56.5 333.5,-56.5"/>
<text text-anchor="middle" x="376.5" y="-63.5" font-family="Helvetica,sans-Serif" font-size="10.00" fill="#000000">arrow/status.h</text>
</g>
<!-- Node31&#45;&gt;Node33 -->
<g id="edge43" class="edge">
<title>Node31&#45;&gt;Node33</title>
<path fill="none" stroke="#191970" d="M609.5137,-112.4369C559.549,-102.4795 481.485,-86.9223 429.6738,-76.5969"/>
<polygon fill="#191970" stroke="#191970" points="430.169,-73.1268 419.6777,-74.6048 428.8008,-79.9918 430.169,-73.1268"/>
</g>
<!-- Node34 -->
<g id="node35" class="node">
<title>Node34</title>
<polygon fill="none" stroke="#bfbfbf" points="199.5,-56.5 199.5,-75.5 315.5,-75.5 315.5,-56.5 199.5,-56.5"/>
<text text-anchor="middle" x="257.5" y="-63.5" font-family="Helvetica,sans-Serif" font-size="10.00" fill="#000000">arrow/util/visibility.h</text>
</g>
<!-- Node31&#45;&gt;Node34 -->
<g id="edge44" class="edge">
<title>Node31&#45;&gt;Node34</title>
<path fill="none" stroke="#191970" d="M597.9154,-113.8486C521.0986,-103.3268 390.6088,-85.4059 325.7927,-76.17"/>
<polygon fill="#191970" stroke="#191970" points="325.994,-72.6632 315.599,-74.711 325.0022,-79.5926 325.994,-72.6632"/>
</g>
<!-- Node31&#45;&gt;Node35 -->
<g id="edge45" class="edge">
<title>Node31&#45;&gt;Node35</title>
<path fill="none" stroke="#191970" d="M717.0709,-119.8358C835.6591,-115.1395 1109.8439,-102.3434 1350.4002,-76.032"/>
<polygon fill="#191970" stroke="#191970" points="1350.828,-79.5061 1360.3836,-74.9301 1350.06,-72.5484 1350.828,-79.5061"/>
</g>
<!-- Node36&#45;&gt;Node26 -->
<g id="edge48" class="edge">
<title>Node36&#45;&gt;Node26</title>
<path fill="none" stroke="#191970" d="M1802.6802,-112.4369C1845.3366,-102.7658 1911.2927,-87.8122 1956.7759,-77.5002"/>
<polygon fill="#191970" stroke="#191970" points="1957.7468,-80.869 1966.7254,-75.2444 1956.199,-74.0422 1957.7468,-80.869"/>
</g>
<!-- Node40&#45;&gt;Node18 -->
<g id="edge57" class="edge">
<title>Node40&#45;&gt;Node18</title>
<path fill="none" stroke="#191970" d="M2493.3195,-168.2455C2490.119,-160.7776 2485.604,-150.2427 2481.6916,-141.1137"/>
<polygon fill="#191970" stroke="#191970" points="2484.7888,-139.4554 2477.6326,-131.6427 2478.3548,-142.2129 2484.7888,-139.4554"/>
</g>
<!-- Node40&#45;&gt;Node19 -->
<g id="edge59" class="edge">
<title>Node40&#45;&gt;Node19</title>
<path fill="none" stroke="#191970" d="M2509.9212,-168.18C2519.5016,-159.7529 2532.0135,-146.6707 2537.5,-132 2543.2544,-116.6129 2538.5017,-98.2762 2533.0274,-84.84"/>
<polygon fill="#191970" stroke="#191970" points="2536.1786,-83.314 2528.8627,-75.6506 2529.8028,-86.2037 2536.1786,-83.314"/>
</g>
<!-- Node40&#45;&gt;Node41 -->
<g id="edge58" class="edge">
<title>Node40&#45;&gt;Node41</title>
<path fill="none" stroke="#191970" d="M2516.3122,-168.2455C2533.3473,-159.4125 2558.6575,-146.2887 2577.9681,-136.2758"/>
<polygon fill="#191970" stroke="#191970" points="2579.637,-139.353 2586.9034,-131.6427 2576.4147,-133.1388 2579.637,-139.353"/>
</g>
<!-- Node42&#45;&gt;Node17 -->
<g id="edge62" class="edge">
<title>Node42&#45;&gt;Node17</title>
<path fill="none" stroke="#191970" d="M2282.2356,-112.2455C2280.5206,-104.8579 2278.1088,-94.4689 2276.0056,-85.4087"/>
<polygon fill="#191970" stroke="#191970" points="2279.4092,-84.5922 2273.7385,-75.6427 2272.5905,-86.1751 2279.4092,-84.5922"/>
</g>
<!-- Node47&#45;&gt;Node6 -->
<g id="edge74" class="edge">
<title>Node47&#45;&gt;Node6</title>
<path fill="none" stroke="#191970" d="M79.1796,-224.4862C81.0765,-197.9293 86.4596,-122.5651 89.0596,-86.1655"/>
<polygon fill="#191970" stroke="#191970" points="92.5766,-86.0519 89.798,-75.8279 85.5943,-85.5531 92.5766,-86.0519"/>
</g>
</g>
</svg>
