<?xml version="1.0" encoding="UTF-8" standalone="no"?>
<!DOCTYPE svg PUBLIC "-//W3C//DTD SVG 1.1//EN"
 "http://www.w3.org/Graphics/SVG/1.1/DTD/svg11.dtd">
<!-- Generated by graphviz version 2.40.1 (20161225.0304)
 -->
<!-- Title: GPUTPCGMMerger_CompareTracksProcess Pages: 1 -->
<svg width="194pt" height="248pt"
 viewBox="0.00 0.00 194.00 248.00" xmlns="http://www.w3.org/2000/svg" xmlns:xlink="http://www.w3.org/1999/xlink">
<g id="graph0" class="graph" transform="scale(1 1) rotate(0) translate(4 244)">
<title>GPUTPCGMMerger_CompareTracksProcess</title>
<!-- Node1 -->
<g id="node1" class="node">
<title>Node1</title>
<polygon fill="#bfbfbf" stroke="#000000" points="0,-.5 0,-123.5 186,-123.5 186,-.5 0,-.5"/>
<text text-anchor="start" x="8" y="-111.5" font-family="Helvetica,sans-Serif" font-size="10.00" fill="#000000">GPUTPCGMMerger_CompareTracks</text>
<text text-anchor="middle" x="93" y="-100.5" font-family="Helvetica,sans-Serif" font-size="10.00" fill="#000000">Process</text>
<polyline fill="none" stroke="#000000" points="0,-93.5 186,-93.5 "/>
<text text-anchor="middle" x="93" y="-81.5" font-family="Helvetica,sans-Serif" font-size="10.00" fill="#000000"> </text>
<polyline fill="none" stroke="#000000" points="0,-74.5 186,-74.5 "/>
<text text-anchor="start" x="8" y="-62.5" font-family="Helvetica,sans-Serif" font-size="10.00" fill="#000000">+ GPUd()</text>
<text text-anchor="start" x="8" y="-51.5" font-family="Helvetica,sans-Serif" font-size="10.00" fill="#000000">+ GPUd()</text>
<text text-anchor="start" x="8" y="-40.5" font-family="Helvetica,sans-Serif" font-size="10.00" fill="#000000">+ GPUrestrict()</text>
<text text-anchor="start" x="8" y="-29.5" font-family="Helvetica,sans-Serif" font-size="10.00" fill="#000000">+ if()</text>
<text text-anchor="start" x="8" y="-18.5" font-family="Helvetica,sans-Serif" font-size="10.00" fill="#000000">+ if()</text>
<text text-anchor="start" x="8" y="-7.5" font-family="Helvetica,sans-Serif" font-size="10.00" fill="#000000">+ NClusters()</text>
</g>
<!-- Node2 -->
<g id="node2" class="node">
<title>Node2</title>
<polygon fill="none" stroke="#bfbfbf" points="71.5,-182.5 71.5,-239.5 114.5,-239.5 114.5,-182.5 71.5,-182.5"/>
<text text-anchor="middle" x="93" y="-227.5" font-family="Helvetica,sans-Serif" font-size="10.00" fill="#000000">const</text>
<polyline fill="none" stroke="#bfbfbf" points="71.5,-220.5 114.5,-220.5 "/>
<text text-anchor="middle" x="93" y="-208.5" font-family="Helvetica,sans-Serif" font-size="10.00" fill="#000000"> </text>
<polyline fill="none" stroke="#bfbfbf" points="71.5,-201.5 114.5,-201.5 "/>
<text text-anchor="middle" x="93" y="-189.5" font-family="Helvetica,sans-Serif" font-size="10.00" fill="#000000"> </text>
</g>
<!-- Node2&#45;&gt;Node1 -->
<g id="edge1" class="edge">
<title>Node2&#45;&gt;Node1</title>
<path fill="none" stroke="#404040" d="M93,-182.2713C93,-168.8656 93,-152.2317 93,-135.6537"/>
<polygon fill="none" stroke="#404040" points="93.0001,-135.6392 89,-129.6392 93,-123.6392 97,-129.6391 93.0001,-135.6392"/>
<text text-anchor="middle" x="115" y="-156" font-family="Helvetica,sans-Serif" font-size="10.00" fill="#000000"> +mCmp</text>
<text text-anchor="middle" x="115" y="-145" font-family="Helvetica,sans-Serif" font-size="10.00" fill="#000000">+bb</text>
</g>
</g>
</svg>
