<?xml version="1.0" encoding="UTF-8" standalone="no"?>
<!DOCTYPE svg PUBLIC "-//W3C//DTD SVG 1.1//EN"
 "http://www.w3.org/Graphics/SVG/1.1/DTD/svg11.dtd">
<!-- Generated by graphviz version 2.40.1 (20161225.0304)
 -->
<!-- Title: Fixture&lt; CODER_T, STREAM_T, P &gt; Pages: 1 -->
<svg width="172pt" height="215pt"
 viewBox="0.00 0.00 172.00 215.00" xmlns="http://www.w3.org/2000/svg" xmlns:xlink="http://www.w3.org/1999/xlink">
<g id="graph0" class="graph" transform="scale(1 1) rotate(0) translate(4 211)">
<title>Fixture&lt; CODER_T, STREAM_T, P &gt;</title>
<!-- Node1 -->
<g id="node1" class="node">
<title>Node1</title>
<polygon fill="#bfbfbf" stroke="#000000" points="0,-.5 0,-79.5 152,-79.5 152,-.5 0,-.5"/>
<text text-anchor="start" x="8" y="-67.5" font-family="Helvetica,sans-Serif" font-size="10.00" fill="#000000">Fixture&lt; CODER_T, STREAM</text>
<text text-anchor="middle" x="76" y="-56.5" font-family="Helvetica,sans-Serif" font-size="10.00" fill="#000000">_T, P &gt;</text>
<polyline fill="none" stroke="#000000" points="0,-49.5 152,-49.5 "/>
<text text-anchor="middle" x="76" y="-37.5" font-family="Helvetica,sans-Serif" font-size="10.00" fill="#000000"> </text>
<polyline fill="none" stroke="#000000" points="0,-30.5 152,-30.5 "/>
<text text-anchor="start" x="8" y="-18.5" font-family="Helvetica,sans-Serif" font-size="10.00" fill="#000000">+ Fixture()</text>
<text text-anchor="start" x="8" y="-7.5" font-family="Helvetica,sans-Serif" font-size="10.00" fill="#000000">+ ~Fixture()</text>
</g>
<!-- Node2 -->
<g id="node2" class="node">
<title>Node2</title>
<polygon fill="none" stroke="#bfbfbf" points="54.5,-149.5 54.5,-206.5 97.5,-206.5 97.5,-149.5 54.5,-149.5"/>
<text text-anchor="middle" x="76" y="-194.5" font-family="Helvetica,sans-Serif" font-size="10.00" fill="#000000">const</text>
<polyline fill="none" stroke="#bfbfbf" points="54.5,-187.5 97.5,-187.5 "/>
<text text-anchor="middle" x="76" y="-175.5" font-family="Helvetica,sans-Serif" font-size="10.00" fill="#000000"> </text>
<polyline fill="none" stroke="#bfbfbf" points="54.5,-168.5 97.5,-168.5 "/>
<text text-anchor="middle" x="76" y="-156.5" font-family="Helvetica,sans-Serif" font-size="10.00" fill="#000000"> </text>
</g>
<!-- Node2&#45;&gt;Node1 -->
<g id="edge1" class="edge">
<title>Node2&#45;&gt;Node1</title>
<path fill="none" stroke="#404040" d="M76,-149.4063C76,-132.7484 76,-111.2393 76,-91.7066"/>
<polygon fill="none" stroke="#404040" points="76.0001,-91.5453 72,-85.5453 76,-79.5453 80,-85.5452 76.0001,-91.5453"/>
<text text-anchor="middle" x="120" y="-123" font-family="Helvetica,sans-Serif" font-size="10.00" fill="#000000"> +source</text>
<text text-anchor="middle" x="120" y="-112" font-family="Helvetica,sans-Serif" font-size="10.00" fill="#000000">+probabilityScale</text>
<text text-anchor="middle" x="120" y="-101" font-family="Helvetica,sans-Serif" font-size="10.00" fill="#000000">+probabilityBits</text>
</g>
</g>
</svg>
