<?xml version="1.0" encoding="UTF-8" standalone="no"?>
<!DOCTYPE svg PUBLIC "-//W3C//DTD SVG 1.1//EN"
 "http://www.w3.org/Graphics/SVG/1.1/DTD/svg11.dtd">
<!-- Generated by graphviz version 2.40.1 (20161225.0304)
 -->
<!-- Title: /home/travis/build/AliceO2Group/AliceO2/GPU/GPUTracking/Base/GPUO2DataTypes.h Pages: 1 -->
<!--zoomable 506 -->
<svg id="main" version="1.1" xmlns="http://www.w3.org/2000/svg" xmlns:xlink="http://www.w3.org/1999/xlink" xml:space="preserve" onload="init(evt)">
<style type="text/css"><![CDATA[
.edge:hover path { stroke: red; }
.edge:hover polygon { stroke: red; fill: red; }
]]></style>
<script type="text/javascript"><![CDATA[
var edges = document.getElementsByTagName('g');
if (edges && edges.length) {
  for (var i=0;i<edges.length;i++) {
    if (edges[i].id.substr(0,4)=='edge') {
      edges[i].setAttribute('class','edge');
    }
  }
}
]]></script>
        <defs>
                <circle id="rim" cx="0" cy="0" r="7"/>
                <circle id="rim2" cx="0" cy="0" r="3.5"/>
                <g id="zoomPlus">
                        <use xlink:href="#rim" fill="#404040">
                                <set attributeName="fill" to="#808080" begin="zoomplus.mouseover" end="zoomplus.mouseout"/>
                        </use>
                        <path d="M-4,0h8M0,-4v8" fill="none" stroke="white" stroke-width="1.5" pointer-events="none"/>
                </g>
                <g id="zoomMin">
                        <use xlink:href="#rim" fill="#404040">
                                <set attributeName="fill" to="#808080" begin="zoomminus.mouseover" end="zoomminus.mouseout"/>
                        </use>
                        <path d="M-4,0h8" fill="none" stroke="white" stroke-width="1.5" pointer-events="none"/>
                </g>
                <g id="dirArrow">
                        <path fill="none" stroke="white" stroke-width="1.5" d="M0,-3.0v7 M-2.5,-0.5L0,-3.0L2.5,-0.5"/>
                </g>
               <g id="resetDef">
                       <use xlink:href="#rim2" fill="#404040">
                               <set attributeName="fill" to="#808080" begin="reset.mouseover" end="reset.mouseout"/>
                       </use>
               </g>
        </defs>

<script type="text/javascript">
var viewWidth = 2792;
var viewHeight = 506;
var sectionId = 'dynsection-1';
</script>
<script xlink:href="../../svgpan.js"/>
<svg id="graph" class="graph">
<g id="viewport">
<title>/home/travis/build/AliceO2Group/AliceO2/GPU/GPUTracking/Base/GPUO2DataTypes.h</title>
<!-- Node8 -->
<g id="node1" class="node">
<title>Node8</title>
<polygon fill="#bfbfbf" stroke="#000000" points="1208.5,-445.5 1208.5,-497.5 1340.5,-497.5 1340.5,-445.5 1208.5,-445.5"/>
<text text-anchor="start" x="1216.5" y="-485.5" font-family="Helvetica,sans-Serif" font-size="10.00" fill="#000000">/home/travis/build</text>
<text text-anchor="start" x="1216.5" y="-474.5" font-family="Helvetica,sans-Serif" font-size="10.00" fill="#000000">/AliceO2Group/AliceO2</text>
<text text-anchor="start" x="1216.5" y="-463.5" font-family="Helvetica,sans-Serif" font-size="10.00" fill="#000000">/GPU/GPUTracking/Base</text>
<text text-anchor="middle" x="1274.5" y="-452.5" font-family="Helvetica,sans-Serif" font-size="10.00" fill="#000000">/GPUO2DataTypes.h</text>
</g>
<!-- Node9 -->
<g id="node2" class="node">
<title>Node9</title>
<g id="a_node2"><a xlink:href="../../dd/d7f/GPUReconstructionConvert_8cxx.html" target="_top" xlink:title="/home/travis/build\l/AliceO2Group/AliceO2\l/GPU/GPUTracking/Base\l/GPUReconstructionConvert.cxx">
<polygon fill="none" stroke="#000000" points="0,-356.5 0,-408.5 171,-408.5 171,-356.5 0,-356.5"/>
<text text-anchor="start" x="8" y="-396.5" font-family="Helvetica,sans-Serif" font-size="10.00" fill="#000000">/home/travis/build</text>
<text text-anchor="start" x="8" y="-385.5" font-family="Helvetica,sans-Serif" font-size="10.00" fill="#000000">/AliceO2Group/AliceO2</text>
<text text-anchor="start" x="8" y="-374.5" font-family="Helvetica,sans-Serif" font-size="10.00" fill="#000000">/GPU/GPUTracking/Base</text>
<text text-anchor="middle" x="85.5" y="-363.5" font-family="Helvetica,sans-Serif" font-size="10.00" fill="#000000">/GPUReconstructionConvert.cxx</text>
</a>
</g>
</g>
<!-- Node8&#45;&gt;Node9 -->
<g id="edge1" class="edge">
<title>Node8&#45;&gt;Node9</title>
<path fill="none" stroke="#191970" d="M1198.1651,-469.3065C983.2657,-462.7874 376.0525,-441.9105 179.5,-409 176.7407,-408.538 173.9467,-408.0255 171.1338,-407.4708"/>
<polygon fill="#191970" stroke="#191970" points="1198.3032,-472.8122 1208.4042,-469.6152 1198.5143,-465.8154 1198.3032,-472.8122"/>
</g>
<!-- Node10 -->
<g id="node3" class="node">
<title>Node10</title>
<g id="a_node3"><a xlink:href="../../d7/d36/GPUReconstructionTimeframe_8cxx.html" target="_top" xlink:title="/home/travis/build\l/AliceO2Group/AliceO2\l/GPU/GPUTracking/Base\l/GPUReconstructionTimeframe.cxx">
<polygon fill="none" stroke="#000000" points="189,-356.5 189,-408.5 376,-408.5 376,-356.5 189,-356.5"/>
<text text-anchor="start" x="197" y="-396.5" font-family="Helvetica,sans-Serif" font-size="10.00" fill="#000000">/home/travis/build</text>
<text text-anchor="start" x="197" y="-385.5" font-family="Helvetica,sans-Serif" font-size="10.00" fill="#000000">/AliceO2Group/AliceO2</text>
<text text-anchor="start" x="197" y="-374.5" font-family="Helvetica,sans-Serif" font-size="10.00" fill="#000000">/GPU/GPUTracking/Base</text>
<text text-anchor="middle" x="282.5" y="-363.5" font-family="Helvetica,sans-Serif" font-size="10.00" fill="#000000">/GPUReconstructionTimeframe.cxx</text>
</a>
</g>
</g>
<!-- Node8&#45;&gt;Node10 -->
<g id="edge2" class="edge">
<title>Node8&#45;&gt;Node10</title>
<path fill="none" stroke="#191970" d="M1198.268,-467.9548C1012.516,-459.0247 540.3399,-434.4928 384.5,-409 381.7013,-408.5422 378.8676,-408.0426 376.0133,-407.5081"/>
<polygon fill="#191970" stroke="#191970" points="1198.336,-471.4619 1208.492,-468.4444 1198.671,-464.4699 1198.336,-471.4619"/>
</g>
<!-- Node11 -->
<g id="node4" class="node">
<title>Node11</title>
<g id="a_node4"><a xlink:href="../../dd/d27/GPUTPCClusterStatistics_8cxx.html" target="_top" xlink:title="/home/travis/build\l/AliceO2Group/AliceO2\l/GPU/GPUTracking/DataCompression\l/GPUTPCClusterStatistics.cxx">
<polygon fill="none" stroke="#000000" points="394,-356.5 394,-408.5 589,-408.5 589,-356.5 394,-356.5"/>
<text text-anchor="start" x="402" y="-396.5" font-family="Helvetica,sans-Serif" font-size="10.00" fill="#000000">/home/travis/build</text>
<text text-anchor="start" x="402" y="-385.5" font-family="Helvetica,sans-Serif" font-size="10.00" fill="#000000">/AliceO2Group/AliceO2</text>
<text text-anchor="start" x="402" y="-374.5" font-family="Helvetica,sans-Serif" font-size="10.00" fill="#000000">/GPU/GPUTracking/DataCompression</text>
<text text-anchor="middle" x="491.5" y="-363.5" font-family="Helvetica,sans-Serif" font-size="10.00" fill="#000000">/GPUTPCClusterStatistics.cxx</text>
</a>
</g>
</g>
<!-- Node8&#45;&gt;Node11 -->
<g id="edge3" class="edge">
<title>Node8&#45;&gt;Node11</title>
<path fill="none" stroke="#191970" d="M1197.9285,-468.2494C1071.9475,-462.0487 813.3922,-445.7302 597.5,-409 594.7884,-408.5387 592.044,-408.0446 589.279,-407.5229"/>
<polygon fill="#191970" stroke="#191970" points="1198.0775,-471.7607 1208.2352,-468.7486 1198.4162,-464.7689 1198.0775,-471.7607"/>
</g>
<!-- Node12 -->
<g id="node5" class="node">
<title>Node12</title>
<g id="a_node5"><a xlink:href="../../d0/dbb/GPUTPCCompression_8cxx.html" target="_top" xlink:title="/home/travis/build\l/AliceO2Group/AliceO2\l/GPU/GPUTracking/DataCompression\l/GPUTPCCompression.cxx">
<polygon fill="none" stroke="#000000" points="607,-356.5 607,-408.5 802,-408.5 802,-356.5 607,-356.5"/>
<text text-anchor="start" x="615" y="-396.5" font-family="Helvetica,sans-Serif" font-size="10.00" fill="#000000">/home/travis/build</text>
<text text-anchor="start" x="615" y="-385.5" font-family="Helvetica,sans-Serif" font-size="10.00" fill="#000000">/AliceO2Group/AliceO2</text>
<text text-anchor="start" x="615" y="-374.5" font-family="Helvetica,sans-Serif" font-size="10.00" fill="#000000">/GPU/GPUTracking/DataCompression</text>
<text text-anchor="middle" x="704.5" y="-363.5" font-family="Helvetica,sans-Serif" font-size="10.00" fill="#000000">/GPUTPCCompression.cxx</text>
</a>
</g>
</g>
<!-- Node8&#45;&gt;Node12 -->
<g id="edge4" class="edge">
<title>Node8&#45;&gt;Node12</title>
<path fill="none" stroke="#191970" d="M1198.4338,-463.4784C1107.0847,-453.3074 949.4153,-434.0391 815.5,-409 811.1181,-408.1807 806.6491,-407.3007 802.142,-406.377"/>
<polygon fill="#191970" stroke="#191970" points="1198.0984,-466.9626 1208.4227,-464.5837 1198.8683,-460.005 1198.0984,-466.9626"/>
</g>
<!-- Node13 -->
<g id="node6" class="node">
<title>Node13</title>
<g id="a_node6"><a xlink:href="../../d9/d57/GPUTPCCompressionKernels_8cxx.html" target="_top" xlink:title="/home/travis/build\l/AliceO2Group/AliceO2\l/GPU/GPUTracking/DataCompression\l/GPUTPCCompressionKernels.cxx">
<polygon fill="none" stroke="#000000" points="111,-178.5 111,-230.5 306,-230.5 306,-178.5 111,-178.5"/>
<text text-anchor="start" x="119" y="-218.5" font-family="Helvetica,sans-Serif" font-size="10.00" fill="#000000">/home/travis/build</text>
<text text-anchor="start" x="119" y="-207.5" font-family="Helvetica,sans-Serif" font-size="10.00" fill="#000000">/AliceO2Group/AliceO2</text>
<text text-anchor="start" x="119" y="-196.5" font-family="Helvetica,sans-Serif" font-size="10.00" fill="#000000">/GPU/GPUTracking/DataCompression</text>
<text text-anchor="middle" x="208.5" y="-185.5" font-family="Helvetica,sans-Serif" font-size="10.00" fill="#000000">/GPUTPCCompressionKernels.cxx</text>
</a>
</g>
</g>
<!-- Node8&#45;&gt;Node13 -->
<g id="edge5" class="edge">
<title>Node8&#45;&gt;Node13</title>
<path fill="none" stroke="#191970" d="M1198.2802,-465.0827C1124.064,-457.268 1008.8294,-440.9439 913.5,-409 864.685,-392.6426 858.6664,-374.1787 810.5,-356 798.5421,-351.4869 473.5759,-270.431 306.1813,-228.7805"/>
<polygon fill="#191970" stroke="#191970" points="1198.1685,-468.5896 1208.4738,-466.1297 1198.8838,-461.6262 1198.1685,-468.5896"/>
</g>
<!-- Node14 -->
<g id="node7" class="node">
<title>Node14</title>
<g id="a_node7"><a xlink:href="../../dc/df2/TPCClusterDecompressor_8cxx.html" target="_top" xlink:title="/home/travis/build\l/AliceO2Group/AliceO2\l/GPU/GPUTracking/DataCompression\l/TPCClusterDecompressor.cxx">
<polygon fill="none" stroke="#000000" points="1359,-356.5 1359,-408.5 1554,-408.5 1554,-356.5 1359,-356.5"/>
<text text-anchor="start" x="1367" y="-396.5" font-family="Helvetica,sans-Serif" font-size="10.00" fill="#000000">/home/travis/build</text>
<text text-anchor="start" x="1367" y="-385.5" font-family="Helvetica,sans-Serif" font-size="10.00" fill="#000000">/AliceO2Group/AliceO2</text>
<text text-anchor="start" x="1367" y="-374.5" font-family="Helvetica,sans-Serif" font-size="10.00" fill="#000000">/GPU/GPUTracking/DataCompression</text>
<text text-anchor="middle" x="1456.5" y="-363.5" font-family="Helvetica,sans-Serif" font-size="10.00" fill="#000000">/TPCClusterDecompressor.cxx</text>
</a>
</g>
</g>
<!-- Node8&#45;&gt;Node14 -->
<g id="edge6" class="edge">
<title>Node8&#45;&gt;Node14</title>
<path fill="none" stroke="#191970" d="M1337.1838,-440.8469C1358.7016,-430.3245 1382.5655,-418.6548 1403.2616,-408.5341"/>
<polygon fill="#191970" stroke="#191970" points="1335.5675,-437.7412 1328.1216,-445.2784 1338.6426,-444.0296 1335.5675,-437.7412"/>
</g>
<!-- Node15 -->
<g id="node8" class="node">
<title>Node15</title>
<g id="a_node8"><a xlink:href="../../d2/d58/GPUChainTracking_8cxx.html" target="_top" xlink:title="/home/travis/build\l/AliceO2Group/AliceO2\l/GPU/GPUTracking/Global\l/GPUChainTracking.cxx">
<polygon fill="none" stroke="#000000" points="1572.5,-356.5 1572.5,-408.5 1712.5,-408.5 1712.5,-356.5 1572.5,-356.5"/>
<text text-anchor="start" x="1580.5" y="-396.5" font-family="Helvetica,sans-Serif" font-size="10.00" fill="#000000">/home/travis/build</text>
<text text-anchor="start" x="1580.5" y="-385.5" font-family="Helvetica,sans-Serif" font-size="10.00" fill="#000000">/AliceO2Group/AliceO2</text>
<text text-anchor="start" x="1580.5" y="-374.5" font-family="Helvetica,sans-Serif" font-size="10.00" fill="#000000">/GPU/GPUTracking/Global</text>
<text text-anchor="middle" x="1642.5" y="-363.5" font-family="Helvetica,sans-Serif" font-size="10.00" fill="#000000">/GPUChainTracking.cxx</text>
</a>
</g>
</g>
<!-- Node8&#45;&gt;Node15 -->
<g id="edge7" class="edge">
<title>Node8&#45;&gt;Node15</title>
<path fill="none" stroke="#191970" d="M1350.6365,-457.4258C1409.2381,-446.018 1492.0285,-428.6508 1563.5,-409 1566.4292,-408.1946 1569.4095,-407.3431 1572.4127,-406.4583"/>
<polygon fill="#191970" stroke="#191970" points="1349.8688,-454.0094 1340.7157,-459.3452 1351.1985,-460.8819 1349.8688,-454.0094"/>
</g>
<!-- Node16 -->
<g id="node9" class="node">
<title>Node16</title>
<g id="a_node9"><a xlink:href="../../d3/d85/GPUChainTrackingIO_8cxx.html" target="_top" xlink:title="/home/travis/build\l/AliceO2Group/AliceO2\l/GPU/GPUTracking/Global\l/GPUChainTrackingIO.cxx">
<polygon fill="none" stroke="#000000" points="1730.5,-356.5 1730.5,-408.5 1870.5,-408.5 1870.5,-356.5 1730.5,-356.5"/>
<text text-anchor="start" x="1738.5" y="-396.5" font-family="Helvetica,sans-Serif" font-size="10.00" fill="#000000">/home/travis/build</text>
<text text-anchor="start" x="1738.5" y="-385.5" font-family="Helvetica,sans-Serif" font-size="10.00" fill="#000000">/AliceO2Group/AliceO2</text>
<text text-anchor="start" x="1738.5" y="-374.5" font-family="Helvetica,sans-Serif" font-size="10.00" fill="#000000">/GPU/GPUTracking/Global</text>
<text text-anchor="middle" x="1800.5" y="-363.5" font-family="Helvetica,sans-Serif" font-size="10.00" fill="#000000">/GPUChainTrackingIO.cxx</text>
</a>
</g>
</g>
<!-- Node8&#45;&gt;Node16 -->
<g id="edge8" class="edge">
<title>Node8&#45;&gt;Node16</title>
<path fill="none" stroke="#191970" d="M1350.7967,-465.1588C1440.417,-456.7179 1593.1598,-439.2239 1721.5,-409 1724.457,-408.3036 1727.4605,-407.5432 1730.483,-406.7338"/>
<polygon fill="#191970" stroke="#191970" points="1350.3546,-461.6847 1340.7212,-466.0946 1351.002,-468.6547 1350.3546,-461.6847"/>
</g>
<!-- Node17 -->
<g id="node10" class="node">
<title>Node17</title>
<g id="a_node10"><a xlink:href="../../d1/dc3/GPUTPCGMSliceTrack_8h.html" target="_top" xlink:title="/home/travis/build\l/AliceO2Group/AliceO2\l/GPU/GPUTracking/Merger\l/GPUTPCGMSliceTrack.h">
<polygon fill="none" stroke="#000000" points="1009.5,-356.5 1009.5,-408.5 1151.5,-408.5 1151.5,-356.5 1009.5,-356.5"/>
<text text-anchor="start" x="1017.5" y="-396.5" font-family="Helvetica,sans-Serif" font-size="10.00" fill="#000000">/home/travis/build</text>
<text text-anchor="start" x="1017.5" y="-385.5" font-family="Helvetica,sans-Serif" font-size="10.00" fill="#000000">/AliceO2Group/AliceO2</text>
<text text-anchor="start" x="1017.5" y="-374.5" font-family="Helvetica,sans-Serif" font-size="10.00" fill="#000000">/GPU/GPUTracking/Merger</text>
<text text-anchor="middle" x="1080.5" y="-363.5" font-family="Helvetica,sans-Serif" font-size="10.00" fill="#000000">/GPUTPCGMSliceTrack.h</text>
</a>
</g>
</g>
<!-- Node8&#45;&gt;Node17 -->
<g id="edge9" class="edge">
<title>Node8&#45;&gt;Node17</title>
<path fill="none" stroke="#191970" d="M1208.2469,-441.1055C1185.2145,-430.5391 1159.6025,-418.7893 1137.3946,-408.6011"/>
<polygon fill="#191970" stroke="#191970" points="1207.0558,-444.4098 1217.6044,-445.3984 1209.9747,-438.0474 1207.0558,-444.4098"/>
</g>
<!-- Node20 -->
<g id="node13" class="node">
<title>Node20</title>
<g id="a_node13"><a xlink:href="../../d0/dd4/GPUTPCGMMerger_8cxx.html" target="_top" xlink:title="/home/travis/build\l/AliceO2Group/AliceO2\l/GPU/GPUTracking/Merger\l/GPUTPCGMMerger.cxx">
<polygon fill="none" stroke="#000000" points="324.5,-178.5 324.5,-230.5 466.5,-230.5 466.5,-178.5 324.5,-178.5"/>
<text text-anchor="start" x="332.5" y="-218.5" font-family="Helvetica,sans-Serif" font-size="10.00" fill="#000000">/home/travis/build</text>
<text text-anchor="start" x="332.5" y="-207.5" font-family="Helvetica,sans-Serif" font-size="10.00" fill="#000000">/AliceO2Group/AliceO2</text>
<text text-anchor="start" x="332.5" y="-196.5" font-family="Helvetica,sans-Serif" font-size="10.00" fill="#000000">/GPU/GPUTracking/Merger</text>
<text text-anchor="middle" x="395.5" y="-185.5" font-family="Helvetica,sans-Serif" font-size="10.00" fill="#000000">/GPUTPCGMMerger.cxx</text>
</a>
</g>
</g>
<!-- Node8&#45;&gt;Node20 -->
<g id="edge26" class="edge">
<title>Node8&#45;&gt;Node20</title>
<path fill="none" stroke="#191970" d="M1198.3909,-462.8236C1141.8121,-454.3403 1063.7903,-438.2726 1000.5,-409 940.5565,-381.2754 927.7283,-367.168 881.5,-320 861.2121,-299.2997 868.6079,-281.4807 843.5,-267 772.3215,-225.9486 555.8853,-248.0239 475.5,-231 472.6373,-230.3937 469.7336,-229.7205 466.8128,-228.9943"/>
<polygon fill="#191970" stroke="#191970" points="1197.9428,-466.2952 1208.3424,-464.2709 1198.9502,-459.3681 1197.9428,-466.2952"/>
</g>
<!-- Node23 -->
<g id="node16" class="node">
<title>Node23</title>
<g id="a_node16"><a xlink:href="../../d0/d24/GPUTPCGMMergerDump_8cxx.html" target="_top" xlink:title="/home/travis/build\l/AliceO2Group/AliceO2\l/GPU/GPUTracking/Merger\l/GPUTPCGMMergerDump.cxx">
<polygon fill="none" stroke="#000000" points="1250.5,-178.5 1250.5,-230.5 1408.5,-230.5 1408.5,-178.5 1250.5,-178.5"/>
<text text-anchor="start" x="1258.5" y="-218.5" font-family="Helvetica,sans-Serif" font-size="10.00" fill="#000000">/home/travis/build</text>
<text text-anchor="start" x="1258.5" y="-207.5" font-family="Helvetica,sans-Serif" font-size="10.00" fill="#000000">/AliceO2Group/AliceO2</text>
<text text-anchor="start" x="1258.5" y="-196.5" font-family="Helvetica,sans-Serif" font-size="10.00" fill="#000000">/GPU/GPUTracking/Merger</text>
<text text-anchor="middle" x="1329.5" y="-185.5" font-family="Helvetica,sans-Serif" font-size="10.00" fill="#000000">/GPUTPCGMMergerDump.cxx</text>
</a>
</g>
</g>
<!-- Node8&#45;&gt;Node23 -->
<g id="edge27" class="edge">
<title>Node8&#45;&gt;Node23</title>
<path fill="none" stroke="#191970" d="M1252.136,-436.2928C1247.7488,-427.6831 1243.7973,-418.2713 1241.5,-409 1226.3207,-347.7415 1212.546,-323.0774 1241.5,-267 1249.1513,-252.1811 1262.1187,-240.1118 1275.7811,-230.6715"/>
<polygon fill="#191970" stroke="#191970" points="1249.1646,-438.1554 1257.01,-445.2758 1255.3173,-434.817 1249.1646,-438.1554"/>
</g>
<!-- Node24 -->
<g id="node17" class="node">
<title>Node24</title>
<g id="a_node17"><a xlink:href="../../d5/d84/GPUTPCGMSliceTrack_8cxx.html" target="_top" xlink:title="/home/travis/build\l/AliceO2Group/AliceO2\l/GPU/GPUTracking/Merger\l/GPUTPCGMSliceTrack.cxx">
<polygon fill="none" stroke="#000000" points="1088.5,-178.5 1088.5,-230.5 1232.5,-230.5 1232.5,-178.5 1088.5,-178.5"/>
<text text-anchor="start" x="1096.5" y="-218.5" font-family="Helvetica,sans-Serif" font-size="10.00" fill="#000000">/home/travis/build</text>
<text text-anchor="start" x="1096.5" y="-207.5" font-family="Helvetica,sans-Serif" font-size="10.00" fill="#000000">/AliceO2Group/AliceO2</text>
<text text-anchor="start" x="1096.5" y="-196.5" font-family="Helvetica,sans-Serif" font-size="10.00" fill="#000000">/GPU/GPUTracking/Merger</text>
<text text-anchor="middle" x="1160.5" y="-185.5" font-family="Helvetica,sans-Serif" font-size="10.00" fill="#000000">/GPUTPCGMSliceTrack.cxx</text>
</a>
</g>
</g>
<!-- Node8&#45;&gt;Node24 -->
<g id="edge30" class="edge">
<title>Node8&#45;&gt;Node24</title>
<path fill="none" stroke="#191970" d="M1242.9318,-437.63C1235.8208,-428.78 1228.8148,-418.9251 1223.5,-409 1191.4945,-349.231 1173.1044,-270.75 1165.1828,-230.6115"/>
<polygon fill="#191970" stroke="#191970" points="1240.356,-440.0063 1249.4463,-445.4483 1245.7338,-435.5252 1240.356,-440.0063"/>
</g>
<!-- Node25 -->
<g id="node18" class="node">
<title>Node25</title>
<g id="a_node18"><a xlink:href="../../df/dad/GPUTPCGMTrackParam_8cxx.html" target="_top" xlink:title="/home/travis/build\l/AliceO2Group/AliceO2\l/GPU/GPUTracking/Merger\l/GPUTPCGMTrackParam.cxx">
<polygon fill="none" stroke="#000000" points="1426.5,-178.5 1426.5,-230.5 1578.5,-230.5 1578.5,-178.5 1426.5,-178.5"/>
<text text-anchor="start" x="1434.5" y="-218.5" font-family="Helvetica,sans-Serif" font-size="10.00" fill="#000000">/home/travis/build</text>
<text text-anchor="start" x="1434.5" y="-207.5" font-family="Helvetica,sans-Serif" font-size="10.00" fill="#000000">/AliceO2Group/AliceO2</text>
<text text-anchor="start" x="1434.5" y="-196.5" font-family="Helvetica,sans-Serif" font-size="10.00" fill="#000000">/GPU/GPUTracking/Merger</text>
<text text-anchor="middle" x="1502.5" y="-185.5" font-family="Helvetica,sans-Serif" font-size="10.00" fill="#000000">/GPUTPCGMTrackParam.cxx</text>
</a>
</g>
</g>
<!-- Node8&#45;&gt;Node25 -->
<g id="edge31" class="edge">
<title>Node8&#45;&gt;Node25</title>
<path fill="none" stroke="#191970" d="M1273.5164,-435.0623C1273.8917,-411.9068 1276.2559,-381.5836 1284.5,-356 1298.6204,-312.1808 1302.2256,-296.5841 1337.5,-267 1345.0985,-260.6273 1387.2319,-244.7086 1427.0162,-230.5325"/>
<polygon fill="#191970" stroke="#191970" points="1270.0161,-435.1381 1273.4699,-445.1542 1277.016,-435.1704 1270.0161,-435.1381"/>
</g>
<!-- Node28 -->
<g id="node21" class="node">
<title>Node28</title>
<g id="a_node21"><a xlink:href="../../d8/de7/GPUTPCGMPropagator_8cxx.html" target="_top" xlink:title="/home/travis/build\l/AliceO2Group/AliceO2\l/GPU/GPUTracking/Merger\l/GPUTPCGMPropagator.cxx">
<polygon fill="none" stroke="#000000" points="1346.5,-267.5 1346.5,-319.5 1494.5,-319.5 1494.5,-267.5 1346.5,-267.5"/>
<text text-anchor="start" x="1354.5" y="-307.5" font-family="Helvetica,sans-Serif" font-size="10.00" fill="#000000">/home/travis/build</text>
<text text-anchor="start" x="1354.5" y="-296.5" font-family="Helvetica,sans-Serif" font-size="10.00" fill="#000000">/AliceO2Group/AliceO2</text>
<text text-anchor="start" x="1354.5" y="-285.5" font-family="Helvetica,sans-Serif" font-size="10.00" fill="#000000">/GPU/GPUTracking/Merger</text>
<text text-anchor="middle" x="1420.5" y="-274.5" font-family="Helvetica,sans-Serif" font-size="10.00" fill="#000000">/GPUTPCGMPropagator.cxx</text>
</a>
</g>
</g>
<!-- Node8&#45;&gt;Node28 -->
<g id="edge28" class="edge">
<title>Node8&#45;&gt;Node28</title>
<path fill="none" stroke="#191970" d="M1281.4592,-435.1412C1287.6191,-410.6564 1298.6503,-378.7972 1317.5,-356 1329.629,-341.3309 1346.1499,-329.1933 1362.4078,-319.6409"/>
<polygon fill="#191970" stroke="#191970" points="1277.9912,-434.5996 1279.1089,-445.1353 1284.8053,-436.2021 1277.9912,-434.5996"/>
</g>
<!-- Node29 -->
<g id="node22" class="node">
<title>Node29</title>
<g id="a_node22"><a xlink:href="../../d5/d85/GPUTPCSliceData_8cxx.html" target="_top" xlink:title="/home/travis/build\l/AliceO2Group/AliceO2\l/GPU/GPUTracking/SliceTracker\l/GPUTPCSliceData.cxx">
<polygon fill="none" stroke="#000000" points="1889,-356.5 1889,-408.5 2056,-408.5 2056,-356.5 1889,-356.5"/>
<text text-anchor="start" x="1897" y="-396.5" font-family="Helvetica,sans-Serif" font-size="10.00" fill="#000000">/home/travis/build</text>
<text text-anchor="start" x="1897" y="-385.5" font-family="Helvetica,sans-Serif" font-size="10.00" fill="#000000">/AliceO2Group/AliceO2</text>
<text text-anchor="start" x="1897" y="-374.5" font-family="Helvetica,sans-Serif" font-size="10.00" fill="#000000">/GPU/GPUTracking/SliceTracker</text>
<text text-anchor="middle" x="1972.5" y="-363.5" font-family="Helvetica,sans-Serif" font-size="10.00" fill="#000000">/GPUTPCSliceData.cxx</text>
</a>
</g>
</g>
<!-- Node8&#45;&gt;Node29 -->
<g id="edge32" class="edge">
<title>Node8&#45;&gt;Node29</title>
<path fill="none" stroke="#191970" d="M1350.9981,-467.8868C1466.406,-461.4723 1691.5353,-445.201 1879.5,-409 1882.5498,-408.4126 1885.6445,-407.7717 1888.7617,-407.0882"/>
<polygon fill="#191970" stroke="#191970" points="1350.6468,-464.4006 1340.8526,-468.4409 1351.0286,-471.3902 1350.6468,-464.4006"/>
</g>
<!-- Node30 -->
<g id="node23" class="node">
<title>Node30</title>
<g id="a_node23"><a xlink:href="../../db/d4b/GPUTPCTracker_8cxx.html" target="_top" xlink:title="/home/travis/build\l/AliceO2Group/AliceO2\l/GPU/GPUTracking/SliceTracker\l/GPUTPCTracker.cxx">
<polygon fill="none" stroke="#000000" points="1545,-267.5 1545,-319.5 1712,-319.5 1712,-267.5 1545,-267.5"/>
<text text-anchor="start" x="1553" y="-307.5" font-family="Helvetica,sans-Serif" font-size="10.00" fill="#000000">/home/travis/build</text>
<text text-anchor="start" x="1553" y="-296.5" font-family="Helvetica,sans-Serif" font-size="10.00" fill="#000000">/AliceO2Group/AliceO2</text>
<text text-anchor="start" x="1553" y="-285.5" font-family="Helvetica,sans-Serif" font-size="10.00" fill="#000000">/GPU/GPUTracking/SliceTracker</text>
<text text-anchor="middle" x="1628.5" y="-274.5" font-family="Helvetica,sans-Serif" font-size="10.00" fill="#000000">/GPUTPCTracker.cxx</text>
</a>
</g>
</g>
<!-- Node8&#45;&gt;Node30 -->
<g id="edge33" class="edge">
<title>Node8&#45;&gt;Node30</title>
<path fill="none" stroke="#191970" d="M1297.8793,-436.9932C1303.979,-427.9131 1310.5184,-418.1093 1316.5,-409 1331.8611,-385.6067 1327.5739,-372.05 1350.5,-356 1354.5968,-353.1319 1464.4988,-328.9371 1544.8675,-311.5105"/>
<polygon fill="#191970" stroke="#191970" points="1294.8801,-435.181 1292.1985,-445.4309 1300.6867,-439.0905 1294.8801,-435.181"/>
</g>
<!-- Node31 -->
<g id="node24" class="node">
<title>Node31</title>
<g id="a_node24"><a xlink:href="../../de/ddc/GPUQA_8cxx.html" target="_top" xlink:title="/home/travis/build\l/AliceO2Group/AliceO2\l/GPU/GPUTracking/Standalone\l/qa/GPUQA.cxx">
<polygon fill="none" stroke="#000000" points="2074,-356.5 2074,-408.5 2237,-408.5 2237,-356.5 2074,-356.5"/>
<text text-anchor="start" x="2082" y="-396.5" font-family="Helvetica,sans-Serif" font-size="10.00" fill="#000000">/home/travis/build</text>
<text text-anchor="start" x="2082" y="-385.5" font-family="Helvetica,sans-Serif" font-size="10.00" fill="#000000">/AliceO2Group/AliceO2</text>
<text text-anchor="start" x="2082" y="-374.5" font-family="Helvetica,sans-Serif" font-size="10.00" fill="#000000">/GPU/GPUTracking/Standalone</text>
<text text-anchor="middle" x="2155.5" y="-363.5" font-family="Helvetica,sans-Serif" font-size="10.00" fill="#000000">/qa/GPUQA.cxx</text>
</a>
</g>
</g>
<!-- Node8&#45;&gt;Node31 -->
<g id="edge35" class="edge">
<title>Node8&#45;&gt;Node31</title>
<path fill="none" stroke="#191970" d="M1350.6918,-467.5009C1521.2956,-458.2181 1929.6778,-434.0807 2065.5,-409 2068.223,-408.4972 2070.9812,-407.9443 2073.7579,-407.3502"/>
<polygon fill="#191970" stroke="#191970" points="1350.3342,-464.0151 1340.5383,-468.0511 1350.713,-471.0048 1350.3342,-464.0151"/>
</g>
<!-- Node32 -->
<g id="node25" class="node">
<title>Node32</title>
<g id="a_node25"><a xlink:href="../../dc/df9/standalone_8cxx.html" target="_top" xlink:title="/home/travis/build\l/AliceO2Group/AliceO2\l/GPU/GPUTracking/Standalone\l/standalone.cxx">
<polygon fill="none" stroke="#000000" points="2255,-356.5 2255,-408.5 2418,-408.5 2418,-356.5 2255,-356.5"/>
<text text-anchor="start" x="2263" y="-396.5" font-family="Helvetica,sans-Serif" font-size="10.00" fill="#000000">/home/travis/build</text>
<text text-anchor="start" x="2263" y="-385.5" font-family="Helvetica,sans-Serif" font-size="10.00" fill="#000000">/AliceO2Group/AliceO2</text>
<text text-anchor="start" x="2263" y="-374.5" font-family="Helvetica,sans-Serif" font-size="10.00" fill="#000000">/GPU/GPUTracking/Standalone</text>
<text text-anchor="middle" x="2336.5" y="-363.5" font-family="Helvetica,sans-Serif" font-size="10.00" fill="#000000">/standalone.cxx</text>
</a>
</g>
</g>
<!-- Node8&#45;&gt;Node32 -->
<g id="edge36" class="edge">
<title>Node8&#45;&gt;Node32</title>
<path fill="none" stroke="#191970" d="M1350.7944,-468.7857C1548.6457,-461.396 2074.7573,-439.4156 2246.5,-409 2249.2266,-408.5171 2251.9879,-407.9815 2254.7674,-407.4023"/>
<polygon fill="#191970" stroke="#191970" points="1350.6387,-465.289 1340.7755,-469.1579 1350.8986,-472.2842 1350.6387,-465.289"/>
</g>
<!-- Node33 -->
<g id="node26" class="node">
<title>Node33</title>
<g id="a_node26"><a xlink:href="../../da/db5/GPUTPCConvert_8cxx.html" target="_top" xlink:title="/home/travis/build\l/AliceO2Group/AliceO2\l/GPU/GPUTracking/TPCConvert\l/GPUTPCConvert.cxx">
<polygon fill="none" stroke="#000000" points="2436,-356.5 2436,-408.5 2601,-408.5 2601,-356.5 2436,-356.5"/>
<text text-anchor="start" x="2444" y="-396.5" font-family="Helvetica,sans-Serif" font-size="10.00" fill="#000000">/home/travis/build</text>
<text text-anchor="start" x="2444" y="-385.5" font-family="Helvetica,sans-Serif" font-size="10.00" fill="#000000">/AliceO2Group/AliceO2</text>
<text text-anchor="start" x="2444" y="-374.5" font-family="Helvetica,sans-Serif" font-size="10.00" fill="#000000">/GPU/GPUTracking/TPCConvert</text>
<text text-anchor="middle" x="2518.5" y="-363.5" font-family="Helvetica,sans-Serif" font-size="10.00" fill="#000000">/GPUTPCConvert.cxx</text>
</a>
</g>
</g>
<!-- Node8&#45;&gt;Node33 -->
<g id="edge37" class="edge">
<title>Node8&#45;&gt;Node33</title>
<path fill="none" stroke="#191970" d="M1351.0042,-469.64C1573.7936,-463.8611 2219.4727,-444.4444 2427.5,-409 2430.2576,-408.5302 2433.0502,-408.0058 2435.8611,-407.4364"/>
<polygon fill="#191970" stroke="#191970" points="1350.6248,-466.1485 1340.7183,-469.9049 1350.8051,-473.1462 1350.6248,-466.1485"/>
</g>
<!-- Node34 -->
<g id="node27" class="node">
<title>Node34</title>
<g id="a_node27"><a xlink:href="../../d2/d77/GPUTPCConvertKernel_8cxx.html" target="_top" xlink:title="/home/travis/build\l/AliceO2Group/AliceO2\l/GPU/GPUTracking/TPCConvert\l/GPUTPCConvertKernel.cxx">
<polygon fill="none" stroke="#000000" points="2619,-356.5 2619,-408.5 2784,-408.5 2784,-356.5 2619,-356.5"/>
<text text-anchor="start" x="2627" y="-396.5" font-family="Helvetica,sans-Serif" font-size="10.00" fill="#000000">/home/travis/build</text>
<text text-anchor="start" x="2627" y="-385.5" font-family="Helvetica,sans-Serif" font-size="10.00" fill="#000000">/AliceO2Group/AliceO2</text>
<text text-anchor="start" x="2627" y="-374.5" font-family="Helvetica,sans-Serif" font-size="10.00" fill="#000000">/GPU/GPUTracking/TPCConvert</text>
<text text-anchor="middle" x="2701.5" y="-363.5" font-family="Helvetica,sans-Serif" font-size="10.00" fill="#000000">/GPUTPCConvertKernel.cxx</text>
</a>
</g>
</g>
<!-- Node8&#45;&gt;Node34 -->
<g id="edge38" class="edge">
<title>Node8&#45;&gt;Node34</title>
<path fill="none" stroke="#191970" d="M1351.0429,-470.2973C1597.022,-466.0586 2365.5082,-449.8096 2610.5,-409 2613.2593,-408.5404 2616.0534,-408.0249 2618.8656,-407.4631"/>
<polygon fill="#191970" stroke="#191970" points="1350.7088,-466.8024 1340.77,-470.4726 1350.8283,-473.8014 1350.7088,-466.8024"/>
</g>
<!-- Node18 -->
<g id="node11" class="node">
<title>Node18</title>
<g id="a_node11"><a xlink:href="../../d4/dcf/GPUTPCGMMerger_8h.html" target="_top" xlink:title="/home/travis/build\l/AliceO2Group/AliceO2\l/GPU/GPUTracking/Merger\l/GPUTPCGMMerger.h">
<polygon fill="none" stroke="#000000" points="933.5,-267.5 933.5,-319.5 1075.5,-319.5 1075.5,-267.5 933.5,-267.5"/>
<text text-anchor="start" x="941.5" y="-307.5" font-family="Helvetica,sans-Serif" font-size="10.00" fill="#000000">/home/travis/build</text>
<text text-anchor="start" x="941.5" y="-296.5" font-family="Helvetica,sans-Serif" font-size="10.00" fill="#000000">/AliceO2Group/AliceO2</text>
<text text-anchor="start" x="941.5" y="-285.5" font-family="Helvetica,sans-Serif" font-size="10.00" fill="#000000">/GPU/GPUTracking/Merger</text>
<text text-anchor="middle" x="1004.5" y="-274.5" font-family="Helvetica,sans-Serif" font-size="10.00" fill="#000000">/GPUTPCGMMerger.h</text>
</a>
</g>
</g>
<!-- Node17&#45;&gt;Node18 -->
<g id="edge10" class="edge">
<title>Node17&#45;&gt;Node18</title>
<path fill="none" stroke="#191970" d="M1051.4052,-348.4285C1043.2187,-338.8416 1034.4478,-328.5704 1026.7314,-319.5341"/>
<polygon fill="#191970" stroke="#191970" points="1048.9531,-350.9466 1058.1086,-356.2784 1054.2763,-346.4009 1048.9531,-350.9466"/>
</g>
<!-- Node17&#45;&gt;Node20 -->
<g id="edge23" class="edge">
<title>Node17&#45;&gt;Node20</title>
<path fill="none" stroke="#191970" d="M999.7382,-359.0429C974.2324,-349.3776 946.888,-336.4998 924.5,-320 900.0819,-302.004 908.2808,-281.2438 881.5,-267 801.5312,-224.4673 564.1952,-249.3635 475.5,-231 472.6346,-230.4067 469.7286,-229.7444 466.8058,-229.0275"/>
<polygon fill="#191970" stroke="#191970" points="998.8156,-362.4325 1009.4093,-362.5909 1001.2265,-355.8608 998.8156,-362.4325"/>
</g>
<!-- Node17&#45;&gt;Node23 -->
<g id="edge24" class="edge">
<title>Node17&#45;&gt;Node23</title>
<path fill="none" stroke="#191970" d="M1111.038,-348.9227C1134.6609,-324.2266 1169.0538,-290.9326 1203.5,-267 1223.3528,-253.2067 1246.6941,-240.7347 1267.8569,-230.6248"/>
<polygon fill="#191970" stroke="#191970" points="1108.3962,-346.6222 1104.0644,-356.291 1113.4803,-351.4339 1108.3962,-346.6222"/>
</g>
<!-- Node17&#45;&gt;Node24 -->
<g id="edge25" class="edge">
<title>Node17&#45;&gt;Node24</title>
<path fill="none" stroke="#191970" d="M1093.8496,-347.1083C1102.8048,-324.0474 1115.1769,-293.441 1127.5,-267 1133.1499,-254.8773 1139.9711,-241.7472 1145.9419,-230.6654"/>
<polygon fill="#191970" stroke="#191970" points="1090.5621,-345.9057 1090.2309,-356.4954 1097.0936,-348.4236 1090.5621,-345.9057"/>
</g>
<!-- Node18&#45;&gt;Node13 -->
<g id="edge11" class="edge">
<title>Node18&#45;&gt;Node13</title>
<path fill="none" stroke="#191970" d="M923.3812,-278.6047C897.8858,-274.3386 869.583,-270.0288 843.5,-267 609.8585,-239.8689 547.8761,-267.4113 315.5,-231 312.3804,-230.5112 309.2184,-229.9753 306.0324,-229.4004"/>
<polygon fill="#191970" stroke="#191970" points="922.9298,-282.078 933.3741,-280.2981 924.0995,-275.1764 922.9298,-282.078"/>
</g>
<!-- Node19 -->
<g id="node12" class="node">
<title>Node19</title>
<g id="a_node12"><a xlink:href="../../df/d06/GPUTPCGlobalMergerComponent_8cxx.html" target="_top" xlink:title="/home/travis/build\l/AliceO2Group/AliceO2\l/GPU/GPUTracking/Merger\l/GPUTPCGlobalMergerComponent.cxx">
<polygon fill="none" stroke="#000000" points="485,-178.5 485,-230.5 686,-230.5 686,-178.5 485,-178.5"/>
<text text-anchor="start" x="493" y="-218.5" font-family="Helvetica,sans-Serif" font-size="10.00" fill="#000000">/home/travis/build</text>
<text text-anchor="start" x="493" y="-207.5" font-family="Helvetica,sans-Serif" font-size="10.00" fill="#000000">/AliceO2Group/AliceO2</text>
<text text-anchor="start" x="493" y="-196.5" font-family="Helvetica,sans-Serif" font-size="10.00" fill="#000000">/GPU/GPUTracking/Merger</text>
<text text-anchor="middle" x="585.5" y="-185.5" font-family="Helvetica,sans-Serif" font-size="10.00" fill="#000000">/GPUTPCGlobalMergerComponent.cxx</text>
</a>
</g>
</g>
<!-- Node18&#45;&gt;Node19 -->
<g id="edge12" class="edge">
<title>Node18&#45;&gt;Node19</title>
<path fill="none" stroke="#191970" d="M923.3332,-267.9202C922.0481,-267.6049 920.7698,-267.2979 919.5,-267 820.905,-243.8694 793.7818,-250.978 694.5,-231 691.7316,-230.4429 688.9272,-229.864 686.0996,-229.2673"/>
<polygon fill="#191970" stroke="#191970" points="922.727,-271.3782 933.2839,-270.4828 924.4728,-264.5994 922.727,-271.3782"/>
</g>
<!-- Node18&#45;&gt;Node20 -->
<g id="edge13" class="edge">
<title>Node18&#45;&gt;Node20</title>
<path fill="none" stroke="#191970" d="M923.363,-267.7811C922.0687,-267.509 920.7804,-267.2483 919.5,-267 725.1404,-229.3064 669.5192,-270.4083 475.5,-231 472.6323,-230.4175 469.7245,-229.7643 466.8002,-229.055"/>
<polygon fill="#191970" stroke="#191970" points="922.8435,-271.2526 933.3722,-270.0707 924.4045,-264.4289 922.8435,-271.2526"/>
</g>
<!-- Node18&#45;&gt;Node23 -->
<g id="edge16" class="edge">
<title>Node18&#45;&gt;Node23</title>
<path fill="none" stroke="#191970" d="M1085.6002,-272.8548C1131.4625,-260.9942 1189.8037,-245.5956 1241.5,-231 1244.4175,-230.1763 1247.3867,-229.3289 1250.3838,-228.4658"/>
<polygon fill="#191970" stroke="#191970" points="1084.5217,-269.5184 1075.7139,-275.4067 1086.2713,-276.2962 1084.5217,-269.5184"/>
</g>
<!-- Node18&#45;&gt;Node24 -->
<g id="edge17" class="edge">
<title>Node18&#45;&gt;Node24</title>
<path fill="none" stroke="#191970" d="M1059.219,-262.2821C1077.4025,-251.9082 1097.4444,-240.4741 1114.8671,-230.5341"/>
<polygon fill="#191970" stroke="#191970" points="1057.4129,-259.2829 1050.4614,-267.2784 1060.8817,-265.363 1057.4129,-259.2829"/>
</g>
<!-- Node18&#45;&gt;Node25 -->
<g id="edge19" class="edge">
<title>Node18&#45;&gt;Node25</title>
<path fill="none" stroke="#191970" d="M1085.5983,-284.921C1169.375,-275.1987 1303.5813,-257.2175 1417.5,-231 1420.3621,-230.3413 1423.2676,-229.6344 1426.1942,-228.8901"/>
<polygon fill="#191970" stroke="#191970" points="1085.1714,-281.4469 1075.6363,-286.0657 1085.9705,-288.4011 1085.1714,-281.4469"/>
</g>
<!-- Node26 -->
<g id="node19" class="node">
<title>Node26</title>
<g id="a_node19"><a xlink:href="../../d3/ddb/GPUTPCGMTracksToTPCSeeds_8cxx.html" target="_top" xlink:title="/home/travis/build\l/AliceO2Group/AliceO2\l/GPU/GPUTracking/Merger\l/GPUTPCGMTracksToTPCSeeds.cxx">
<polygon fill="none" stroke="#000000" points="704,-178.5 704,-230.5 889,-230.5 889,-178.5 704,-178.5"/>
<text text-anchor="start" x="712" y="-218.5" font-family="Helvetica,sans-Serif" font-size="10.00" fill="#000000">/home/travis/build</text>
<text text-anchor="start" x="712" y="-207.5" font-family="Helvetica,sans-Serif" font-size="10.00" fill="#000000">/AliceO2Group/AliceO2</text>
<text text-anchor="start" x="712" y="-196.5" font-family="Helvetica,sans-Serif" font-size="10.00" fill="#000000">/GPU/GPUTracking/Merger</text>
<text text-anchor="middle" x="796.5" y="-185.5" font-family="Helvetica,sans-Serif" font-size="10.00" fill="#000000">/GPUTPCGMTracksToTPCSeeds.cxx</text>
</a>
</g>
</g>
<!-- Node18&#45;&gt;Node26 -->
<g id="edge21" class="edge">
<title>Node18&#45;&gt;Node26</title>
<path fill="none" stroke="#191970" d="M934.1236,-263.387C909.2597,-252.7481 881.5225,-240.8798 857.5003,-230.6011"/>
<polygon fill="#191970" stroke="#191970" points="932.9279,-266.6823 943.4986,-267.3984 935.6817,-260.2467 932.9279,-266.6823"/>
</g>
<!-- Node27 -->
<g id="node20" class="node">
<title>Node27</title>
<g id="a_node20"><a xlink:href="../../d7/d9f/genEvents_8cxx.html" target="_top" xlink:title="/home/travis/build\l/AliceO2Group/AliceO2\l/GPU/GPUTracking/Standalone\l/qa/genEvents.cxx">
<polygon fill="none" stroke="#000000" points="907,-178.5 907,-230.5 1070,-230.5 1070,-178.5 907,-178.5"/>
<text text-anchor="start" x="915" y="-218.5" font-family="Helvetica,sans-Serif" font-size="10.00" fill="#000000">/home/travis/build</text>
<text text-anchor="start" x="915" y="-207.5" font-family="Helvetica,sans-Serif" font-size="10.00" fill="#000000">/AliceO2Group/AliceO2</text>
<text text-anchor="start" x="915" y="-196.5" font-family="Helvetica,sans-Serif" font-size="10.00" fill="#000000">/GPU/GPUTracking/Standalone</text>
<text text-anchor="middle" x="988.5" y="-185.5" font-family="Helvetica,sans-Serif" font-size="10.00" fill="#000000">/qa/genEvents.cxx</text>
</a>
</g>
</g>
<!-- Node18&#45;&gt;Node27 -->
<g id="edge22" class="edge">
<title>Node18&#45;&gt;Node27</title>
<path fill="none" stroke="#191970" d="M998.0112,-257.4059C996.3939,-248.4097 994.6911,-238.9379 993.1803,-230.5341"/>
<polygon fill="#191970" stroke="#191970" points="994.5718,-258.0555 999.786,-267.2784 1001.4613,-256.8169 994.5718,-258.0555"/>
</g>
<!-- Node21 -->
<g id="node14" class="node">
<title>Node21</title>
<g id="a_node14"><a xlink:href="../../d0/d25/GPUReconstructionIncludesDevice_8h.html" target="_top" xlink:title="/home/travis/build\l/AliceO2Group/AliceO2\l/GPU/GPUTracking/Base\l/GPUReconstructionIncludesDevice.h">
<polygon fill="none" stroke="#000000" points="1404.5,-89.5 1404.5,-141.5 1600.5,-141.5 1600.5,-89.5 1404.5,-89.5"/>
<text text-anchor="start" x="1412.5" y="-129.5" font-family="Helvetica,sans-Serif" font-size="10.00" fill="#000000">/home/travis/build</text>
<text text-anchor="start" x="1412.5" y="-118.5" font-family="Helvetica,sans-Serif" font-size="10.00" fill="#000000">/AliceO2Group/AliceO2</text>
<text text-anchor="start" x="1412.5" y="-107.5" font-family="Helvetica,sans-Serif" font-size="10.00" fill="#000000">/GPU/GPUTracking/Base</text>
<text text-anchor="middle" x="1502.5" y="-96.5" font-family="Helvetica,sans-Serif" font-size="10.00" fill="#000000">/GPUReconstructionIncludesDevice.h</text>
</a>
</g>
</g>
<!-- Node20&#45;&gt;Node21 -->
<g id="edge14" class="edge">
<title>Node20&#45;&gt;Node21</title>
<path fill="none" stroke="#191970" d="M476.8474,-177.9993C670.1494,-143.4106 1186.9244,-124.8076 1404.2418,-118.2371"/>
<polygon fill="#191970" stroke="#191970" points="475.9767,-174.6012 466.7856,-179.8714 477.2571,-181.4831 475.9767,-174.6012"/>
</g>
<!-- Node22 -->
<g id="node15" class="node">
<title>Node22</title>
<g id="a_node15"><a xlink:href="../../d3/d33/GPUReconstructionHIP_8hip_8cxx.html" target="_top" xlink:title="/home/travis/build\l/AliceO2Group/AliceO2\l/GPU/GPUTracking/Base\l/hip/GPUReconstructionHIP.hip.cxx">
<polygon fill="none" stroke="#000000" points="1410.5,-.5 1410.5,-52.5 1594.5,-52.5 1594.5,-.5 1410.5,-.5"/>
<text text-anchor="start" x="1418.5" y="-40.5" font-family="Helvetica,sans-Serif" font-size="10.00" fill="#000000">/home/travis/build</text>
<text text-anchor="start" x="1418.5" y="-29.5" font-family="Helvetica,sans-Serif" font-size="10.00" fill="#000000">/AliceO2Group/AliceO2</text>
<text text-anchor="start" x="1418.5" y="-18.5" font-family="Helvetica,sans-Serif" font-size="10.00" fill="#000000">/GPU/GPUTracking/Base</text>
<text text-anchor="middle" x="1502.5" y="-7.5" font-family="Helvetica,sans-Serif" font-size="10.00" fill="#000000">/hip/GPUReconstructionHIP.hip.cxx</text>
</a>
</g>
</g>
<!-- Node21&#45;&gt;Node22 -->
<g id="edge15" class="edge">
<title>Node21&#45;&gt;Node22</title>
<path fill="none" stroke="#191970" d="M1502.5,-79.1155C1502.5,-70.2061 1502.5,-60.8475 1502.5,-52.5341"/>
<polygon fill="#191970" stroke="#191970" points="1499.0001,-79.2784 1502.5,-89.2784 1506.0001,-79.2785 1499.0001,-79.2784"/>
</g>
<!-- Node24&#45;&gt;Node21 -->
<g id="edge18" class="edge">
<title>Node24&#45;&gt;Node21</title>
<path fill="none" stroke="#191970" d="M1242.6469,-177.7488C1301.2935,-161.3493 1357.8468,-147.6892 1404.4086,-137.0055"/>
<polygon fill="#191970" stroke="#191970" points="1241.5105,-174.4326 1232.8342,-180.5131 1243.4086,-181.1704 1241.5105,-174.4326"/>
</g>
<!-- Node25&#45;&gt;Node21 -->
<g id="edge20" class="edge">
<title>Node25&#45;&gt;Node21</title>
<path fill="none" stroke="#191970" d="M1502.5,-168.1155C1502.5,-159.2061 1502.5,-149.8475 1502.5,-141.5341"/>
<polygon fill="#191970" stroke="#191970" points="1499.0001,-168.2784 1502.5,-178.2784 1506.0001,-168.2785 1499.0001,-168.2784"/>
</g>
<!-- Node28&#45;&gt;Node21 -->
<g id="edge29" class="edge">
<title>Node28&#45;&gt;Node21</title>
<path fill="none" stroke="#191970" d="M1504.3079,-271.7985C1540.5397,-260.5626 1577.0548,-246.0619 1587.5,-231 1600.9235,-211.6435 1598.1341,-199.0186 1587.5,-178 1580.0578,-163.2904 1567.3428,-151.1987 1553.9821,-141.7023"/>
<polygon fill="#191970" stroke="#191970" points="1503.1777,-268.4838 1494.6204,-274.7306 1505.2055,-275.1836 1503.1777,-268.4838"/>
</g>
<!-- Node30&#45;&gt;Node21 -->
<g id="edge34" class="edge">
<title>Node30&#45;&gt;Node21</title>
<path fill="none" stroke="#191970" d="M1628.6493,-257.0397C1627.0763,-232.6992 1621.6431,-201.0492 1605.5,-178 1595.0007,-163.0091 1579.6457,-150.9643 1563.9809,-141.603"/>
<polygon fill="#191970" stroke="#191970" points="1625.1658,-257.483 1629.1163,-267.3138 1632.1586,-257.1652 1625.1658,-257.483"/>
</g>
</g>
</svg>
        <g id="navigator" transform="translate(0 0)" fill="#404254">
                <rect fill="#f2f5e9" fill-opacity="0.5" stroke="#606060" stroke-width=".5" x="0" y="0" width="60" height="60"/>
                <use id="zoomplus" xlink:href="#zoomPlus" x="17" y="9" onmousedown="handleZoom(evt,'in')"/>
                <use id="zoomminus" xlink:href="#zoomMin" x="42" y="9" onmousedown="handleZoom(evt,'out')"/>
                <use id="reset" xlink:href="#resetDef" x="30" y="36" onmousedown="handleReset()"/>
                <g id="arrowUp" xlink:href="#dirArrow" transform="translate(30 24)" onmousedown="handlePan(0,-1)">
                  <use xlink:href="#rim" fill="#404040">
                        <set attributeName="fill" to="#808080" begin="arrowUp.mouseover" end="arrowUp.mouseout"/>
                  </use>
                  <path fill="none" stroke="white" stroke-width="1.5" d="M0,-3.0v7 M-2.5,-0.5L0,-3.0L2.5,-0.5"/>
                </g>
                <g id="arrowRight" xlink:href="#dirArrow" transform="rotate(90) translate(36 -43)" onmousedown="handlePan(1,0)">
                  <use xlink:href="#rim" fill="#404040">
                        <set attributeName="fill" to="#808080" begin="arrowRight.mouseover" end="arrowRight.mouseout"/>
                  </use>
                  <path fill="none" stroke="white" stroke-width="1.5" d="M0,-3.0v7 M-2.5,-0.5L0,-3.0L2.5,-0.5"/>
                </g>
                <g id="arrowDown" xlink:href="#dirArrow" transform="rotate(180) translate(-30 -48)" onmousedown="handlePan(0,1)">
                  <use xlink:href="#rim" fill="#404040">
                        <set attributeName="fill" to="#808080" begin="arrowDown.mouseover" end="arrowDown.mouseout"/>
                  </use>
                  <path fill="none" stroke="white" stroke-width="1.5" d="M0,-3.0v7 M-2.5,-0.5L0,-3.0L2.5,-0.5"/>
                </g>
                <g id="arrowLeft" xlink:href="#dirArrow" transform="rotate(270) translate(-36 17)" onmousedown="handlePan(-1,0)">
                  <use xlink:href="#rim" fill="#404040">
                        <set attributeName="fill" to="#808080" begin="arrowLeft.mouseover" end="arrowLeft.mouseout"/>
                  </use>
                  <path fill="none" stroke="white" stroke-width="1.5" d="M0,-3.0v7 M-2.5,-0.5L0,-3.0L2.5,-0.5"/>
                </g>
        </g>
        <svg viewBox="0 0 15 15" width="100%" height="30px" preserveAspectRatio="xMaxYMin meet">
         <g id="arrow_out" transform="scale(0.3 0.3)">
          <a xlink:href="GPUO2DataTypes_8h__dep__incl_org.svg" target="_base">
           <rect id="button" ry="5" rx="5" y="6" x="6" height="38" width="38"
                fill="#f2f5e9" fill-opacity="0.5" stroke="#606060" stroke-width="1.0"/>
           <path id="arrow"
             d="M 11.500037,31.436501 C 11.940474,20.09759 22.043105,11.32322 32.158766,21.979434 L 37.068811,17.246167 C 37.068811,17.246167 37.088388,32 37.088388,32 L 22.160133,31.978069 C 22.160133,31.978069 26.997745,27.140456 26.997745,27.140456 C 18.528582,18.264221 13.291696,25.230495 11.500037,31.436501 z"
             style="fill:#404040;"/>
          </a>
         </g>
        </svg>
</svg>
