<?xml version="1.0" encoding="UTF-8" standalone="no"?>
<!DOCTYPE svg PUBLIC "-//W3C//DTD SVG 1.1//EN"
 "http://www.w3.org/Graphics/SVG/1.1/DTD/svg11.dtd">
<!-- Generated by graphviz version 2.40.1 (20161225.0304)
 -->
<!-- Title: /home/travis/build/AliceO2Group/AliceO2/Detectors/Raw/include/DetectorsRaw/RawFileWriter.h Pages: 1 -->
<svg width="1336pt" height="250pt"
 viewBox="0.00 0.00 1335.50 250.00" xmlns="http://www.w3.org/2000/svg" xmlns:xlink="http://www.w3.org/1999/xlink">
<g id="graph0" class="graph" transform="scale(1 1) rotate(0) translate(4 246)">
<title>/home/travis/build/AliceO2Group/AliceO2/Detectors/Raw/include/DetectorsRaw/RawFileWriter.h</title>
<!-- Node42 -->
<g id="node1" class="node">
<title>Node42</title>
<polygon fill="#bfbfbf" stroke="#000000" points="561.5,-189.5 561.5,-241.5 727.5,-241.5 727.5,-189.5 561.5,-189.5"/>
<text text-anchor="start" x="569.5" y="-229.5" font-family="Helvetica,sans-Serif" font-size="10.00" fill="#000000">/home/travis/build</text>
<text text-anchor="start" x="569.5" y="-218.5" font-family="Helvetica,sans-Serif" font-size="10.00" fill="#000000">/AliceO2Group/AliceO2</text>
<text text-anchor="start" x="569.5" y="-207.5" font-family="Helvetica,sans-Serif" font-size="10.00" fill="#000000">/Detectors/Raw/include</text>
<text text-anchor="middle" x="644.5" y="-196.5" font-family="Helvetica,sans-Serif" font-size="10.00" fill="#000000">/DetectorsRaw/RawFileWriter.h</text>
</g>
<!-- Node43 -->
<g id="node2" class="node">
<title>Node43</title>
<g id="a_node2"><a xlink:href="../../d8/dfe/Digits2Raw_8h.html" target="_top" xlink:title="converts digits to raw format ">
<polygon fill="none" stroke="#000000" points="21.5,-95 21.5,-147 215.5,-147 215.5,-95 21.5,-95"/>
<text text-anchor="start" x="29.5" y="-135" font-family="Helvetica,sans-Serif" font-size="10.00" fill="#000000">/home/travis/build</text>
<text text-anchor="start" x="29.5" y="-124" font-family="Helvetica,sans-Serif" font-size="10.00" fill="#000000">/AliceO2Group/AliceO2</text>
<text text-anchor="start" x="29.5" y="-113" font-family="Helvetica,sans-Serif" font-size="10.00" fill="#000000">/Detectors/FIT/FT0/simulation</text>
<text text-anchor="middle" x="118.5" y="-102" font-family="Helvetica,sans-Serif" font-size="10.00" fill="#000000">/include/FT0Simulation/Digits2Raw.h</text>
</a>
</g>
</g>
<!-- Node42&#45;&gt;Node43 -->
<g id="edge1" class="edge">
<title>Node42&#45;&gt;Node43</title>
<path fill="none" stroke="#191970" d="M551.1703,-199.8721C478.2265,-187.5297 374.3213,-169.6671 283.5,-153 261.5443,-148.9708 237.9763,-144.4921 215.7203,-140.1924"/>
<polygon fill="#191970" stroke="#191970" points="550.8094,-203.3607 561.2529,-201.5764 551.9761,-196.4586 550.8094,-203.3607"/>
</g>
<!-- Node44 -->
<g id="node3" class="node">
<title>Node44</title>
<g id="a_node3"><a xlink:href="../../da/de9/Digits2Raw_8cxx.html" target="_top" xlink:title="/home/travis/build\l/AliceO2Group/AliceO2\l/Detectors/FIT/FT0/simulation\l/src/Digits2Raw.cxx">
<polygon fill="none" stroke="#000000" points="0,-.5 0,-52.5 159,-52.5 159,-.5 0,-.5"/>
<text text-anchor="start" x="8" y="-40.5" font-family="Helvetica,sans-Serif" font-size="10.00" fill="#000000">/home/travis/build</text>
<text text-anchor="start" x="8" y="-29.5" font-family="Helvetica,sans-Serif" font-size="10.00" fill="#000000">/AliceO2Group/AliceO2</text>
<text text-anchor="start" x="8" y="-18.5" font-family="Helvetica,sans-Serif" font-size="10.00" fill="#000000">/Detectors/FIT/FT0/simulation</text>
<text text-anchor="middle" x="79.5" y="-7.5" font-family="Helvetica,sans-Serif" font-size="10.00" fill="#000000">/src/Digits2Raw.cxx</text>
</a>
</g>
</g>
<!-- Node42&#45;&gt;Node44 -->
<g id="edge3" class="edge">
<title>Node42&#45;&gt;Node44</title>
<path fill="none" stroke="#191970" d="M551.3724,-203.2739C490.9107,-193.6177 411.0798,-177.5986 343.5,-153 287.0694,-132.4596 278.5689,-115.1319 224.5,-89 198.2146,-76.2961 168.7045,-63.3454 143.2019,-52.5519"/>
<polygon fill="#191970" stroke="#191970" points="550.8631,-206.7368 561.2846,-204.8279 551.9473,-199.8212 550.8631,-206.7368"/>
</g>
<!-- Node45 -->
<g id="node4" class="node">
<title>Node45</title>
<g id="a_node4"><a xlink:href="../../df/d56/MC2RawEncoder_8h.html" target="_top" xlink:title="Definition of the ITS/MFT Alpide pixel MC&#45;&gt;raw converter. ">
<polygon fill="none" stroke="#000000" points="352.5,-89.5 352.5,-152.5 552.5,-152.5 552.5,-89.5 352.5,-89.5"/>
<text text-anchor="start" x="360.5" y="-140.5" font-family="Helvetica,sans-Serif" font-size="10.00" fill="#000000">/home/travis/build</text>
<text text-anchor="start" x="360.5" y="-129.5" font-family="Helvetica,sans-Serif" font-size="10.00" fill="#000000">/AliceO2Group/AliceO2</text>
<text text-anchor="start" x="360.5" y="-118.5" font-family="Helvetica,sans-Serif" font-size="10.00" fill="#000000">/Detectors/ITSMFT/common</text>
<text text-anchor="start" x="360.5" y="-107.5" font-family="Helvetica,sans-Serif" font-size="10.00" fill="#000000">/simulation/include/ITSMFTSimulation</text>
<text text-anchor="middle" x="452.5" y="-96.5" font-family="Helvetica,sans-Serif" font-size="10.00" fill="#000000">/MC2RawEncoder.h</text>
</a>
</g>
</g>
<!-- Node42&#45;&gt;Node45 -->
<g id="edge4" class="edge">
<title>Node42&#45;&gt;Node45</title>
<path fill="none" stroke="#191970" d="M582.3606,-184.9157C561.3092,-174.5545 537.7662,-162.967 516.5677,-152.5333"/>
<polygon fill="#191970" stroke="#191970" points="581.0092,-188.1515 591.5269,-189.4273 584.1004,-181.871 581.0092,-188.1515"/>
</g>
<!-- Node48 -->
<g id="node7" class="node">
<title>Node48</title>
<g id="a_node7"><a xlink:href="../../d1/dcf/Detectors_2MUON_2MID_2Raw_2include_2MIDRaw_2Encoder_8h.html" target="_top" xlink:title="MID raw data encoder. ">
<polygon fill="none" stroke="#000000" points="570.5,-95 570.5,-147 718.5,-147 718.5,-95 570.5,-95"/>
<text text-anchor="start" x="578.5" y="-135" font-family="Helvetica,sans-Serif" font-size="10.00" fill="#000000">/home/travis/build</text>
<text text-anchor="start" x="578.5" y="-124" font-family="Helvetica,sans-Serif" font-size="10.00" fill="#000000">/AliceO2Group/AliceO2</text>
<text text-anchor="start" x="578.5" y="-113" font-family="Helvetica,sans-Serif" font-size="10.00" fill="#000000">/Detectors/MUON/MID/Raw</text>
<text text-anchor="middle" x="644.5" y="-102" font-family="Helvetica,sans-Serif" font-size="10.00" fill="#000000">/include/MIDRaw/Encoder.h</text>
</a>
</g>
</g>
<!-- Node42&#45;&gt;Node48 -->
<g id="edge7" class="edge">
<title>Node42&#45;&gt;Node48</title>
<path fill="none" stroke="#191970" d="M644.5,-179.1645C644.5,-168.5577 644.5,-157.1746 644.5,-147.3157"/>
<polygon fill="#191970" stroke="#191970" points="641.0001,-179.4273 644.5,-189.4273 648.0001,-179.4273 641.0001,-179.4273"/>
</g>
<!-- Node53 -->
<g id="node12" class="node">
<title>Node53</title>
<g id="a_node12"><a xlink:href="../../df/dd8/RawFileWriter_8cxx.html" target="_top" xlink:title="Utility class to write detectors data to (multiple) raw data file(s) respecting CRU format...">
<polygon fill="none" stroke="#000000" points="737,-100.5 737,-141.5 934,-141.5 934,-100.5 737,-100.5"/>
<text text-anchor="start" x="745" y="-129.5" font-family="Helvetica,sans-Serif" font-size="10.00" fill="#000000">/home/travis/build</text>
<text text-anchor="start" x="745" y="-118.5" font-family="Helvetica,sans-Serif" font-size="10.00" fill="#000000">/AliceO2Group/AliceO2</text>
<text text-anchor="middle" x="835.5" y="-107.5" font-family="Helvetica,sans-Serif" font-size="10.00" fill="#000000">/Detectors/Raw/src/RawFileWriter.cxx</text>
</a>
</g>
</g>
<!-- Node42&#45;&gt;Node53 -->
<g id="edge12" class="edge">
<title>Node42&#45;&gt;Node53</title>
<path fill="none" stroke="#191970" d="M706.3198,-184.9137C734.9675,-170.7399 768.2527,-154.2716 793.8608,-141.6016"/>
<polygon fill="#191970" stroke="#191970" points="704.6081,-181.8557 697.1972,-189.4273 707.7123,-188.1297 704.6081,-181.8557"/>
</g>
<!-- Node54 -->
<g id="node13" class="node">
<title>Node54</title>
<g id="a_node13"><a xlink:href="../../d3/d09/testRawReaderWriter_8cxx.html" target="_top" xlink:title="/home/travis/build\l/AliceO2Group/AliceO2\l/Detectors/Raw/test/testRawReader\lWriter.cxx">
<polygon fill="none" stroke="#000000" points="952,-95 952,-147 1141,-147 1141,-95 952,-95"/>
<text text-anchor="start" x="960" y="-135" font-family="Helvetica,sans-Serif" font-size="10.00" fill="#000000">/home/travis/build</text>
<text text-anchor="start" x="960" y="-124" font-family="Helvetica,sans-Serif" font-size="10.00" fill="#000000">/AliceO2Group/AliceO2</text>
<text text-anchor="start" x="960" y="-113" font-family="Helvetica,sans-Serif" font-size="10.00" fill="#000000">/Detectors/Raw/test/testRawReader</text>
<text text-anchor="middle" x="1046.5" y="-102" font-family="Helvetica,sans-Serif" font-size="10.00" fill="#000000">Writer.cxx</text>
</a>
</g>
</g>
<!-- Node42&#45;&gt;Node54 -->
<g id="edge13" class="edge">
<title>Node42&#45;&gt;Node54</title>
<path fill="none" stroke="#191970" d="M737.8901,-198.3511C797.1258,-186.8899 875.1975,-170.7059 943.5,-153 950.5691,-151.1675 957.8749,-149.1506 965.181,-147.0482"/>
<polygon fill="#191970" stroke="#191970" points="736.9625,-194.9653 727.8042,-200.2922 738.2854,-201.8392 736.9625,-194.9653"/>
</g>
<!-- Node55 -->
<g id="node14" class="node">
<title>Node55</title>
<g id="a_node14"><a xlink:href="../../df/d6c/convertDigitsToRawZS_8cxx.html" target="_top" xlink:title="/home/travis/build\l/AliceO2Group/AliceO2\l/Detectors/TPC/simulation\l/run/convertDigitsToRawZS.cxx">
<polygon fill="none" stroke="#000000" points="1159.5,-95 1159.5,-147 1327.5,-147 1327.5,-95 1159.5,-95"/>
<text text-anchor="start" x="1167.5" y="-135" font-family="Helvetica,sans-Serif" font-size="10.00" fill="#000000">/home/travis/build</text>
<text text-anchor="start" x="1167.5" y="-124" font-family="Helvetica,sans-Serif" font-size="10.00" fill="#000000">/AliceO2Group/AliceO2</text>
<text text-anchor="start" x="1167.5" y="-113" font-family="Helvetica,sans-Serif" font-size="10.00" fill="#000000">/Detectors/TPC/simulation</text>
<text text-anchor="middle" x="1243.5" y="-102" font-family="Helvetica,sans-Serif" font-size="10.00" fill="#000000">/run/convertDigitsToRawZS.cxx</text>
</a>
</g>
</g>
<!-- Node42&#45;&gt;Node55 -->
<g id="edge14" class="edge">
<title>Node42&#45;&gt;Node55</title>
<path fill="none" stroke="#191970" d="M737.8057,-209.8243C840.1127,-202.2509 1008.6148,-185.7946 1150.5,-153 1157.82,-151.3081 1165.371,-149.2525 1172.8575,-147.0081"/>
<polygon fill="#191970" stroke="#191970" points="737.5286,-206.3351 727.809,-210.5516 738.0366,-213.3167 737.5286,-206.3351"/>
</g>
<!-- Node43&#45;&gt;Node44 -->
<g id="edge2" class="edge">
<title>Node43&#45;&gt;Node44</title>
<path fill="none" stroke="#191970" d="M103.9138,-85.6565C99.4212,-74.7706 94.5564,-62.9827 90.3604,-52.8157"/>
<polygon fill="#191970" stroke="#191970" points="100.6896,-87.0188 107.7398,-94.9273 107.1602,-84.3483 100.6896,-87.0188"/>
</g>
<!-- Node46 -->
<g id="node5" class="node">
<title>Node46</title>
<g id="a_node5"><a xlink:href="../../d8/d6b/MC2RawEncoder_8cxx.html" target="_top" xlink:title="/home/travis/build\l/AliceO2Group/AliceO2\l/Detectors/ITSMFT/common\l/simulation/src/MC2RawEncoder.cxx">
<polygon fill="none" stroke="#000000" points="177.5,-.5 177.5,-52.5 369.5,-52.5 369.5,-.5 177.5,-.5"/>
<text text-anchor="start" x="185.5" y="-40.5" font-family="Helvetica,sans-Serif" font-size="10.00" fill="#000000">/home/travis/build</text>
<text text-anchor="start" x="185.5" y="-29.5" font-family="Helvetica,sans-Serif" font-size="10.00" fill="#000000">/AliceO2Group/AliceO2</text>
<text text-anchor="start" x="185.5" y="-18.5" font-family="Helvetica,sans-Serif" font-size="10.00" fill="#000000">/Detectors/ITSMFT/common</text>
<text text-anchor="middle" x="273.5" y="-7.5" font-family="Helvetica,sans-Serif" font-size="10.00" fill="#000000">/simulation/src/MC2RawEncoder.cxx</text>
</a>
</g>
</g>
<!-- Node45&#45;&gt;Node46 -->
<g id="edge5" class="edge">
<title>Node45&#45;&gt;Node46</title>
<path fill="none" stroke="#191970" d="M383.5528,-84.6005C363.3794,-73.9503 341.7334,-62.5227 323.0217,-52.6442"/>
<polygon fill="#191970" stroke="#191970" points="381.9203,-87.6964 392.3976,-89.27 385.1884,-81.5061 381.9203,-87.6964"/>
</g>
<!-- Node47 -->
<g id="node6" class="node">
<title>Node47</title>
<g id="a_node6"><a xlink:href="../../d1/d8e/digi2raw_8cxx.html" target="_top" xlink:title="/home/travis/build\l/AliceO2Group/AliceO2\l/Detectors/ITSMFT/ITS\l/simulation/src/digi2raw.cxx">
<polygon fill="none" stroke="#000000" points="388,-.5 388,-52.5 541,-52.5 541,-.5 388,-.5"/>
<text text-anchor="start" x="396" y="-40.5" font-family="Helvetica,sans-Serif" font-size="10.00" fill="#000000">/home/travis/build</text>
<text text-anchor="start" x="396" y="-29.5" font-family="Helvetica,sans-Serif" font-size="10.00" fill="#000000">/AliceO2Group/AliceO2</text>
<text text-anchor="start" x="396" y="-18.5" font-family="Helvetica,sans-Serif" font-size="10.00" fill="#000000">/Detectors/ITSMFT/ITS</text>
<text text-anchor="middle" x="464.5" y="-7.5" font-family="Helvetica,sans-Serif" font-size="10.00" fill="#000000">/simulation/src/digi2raw.cxx</text>
</a>
</g>
</g>
<!-- Node45&#45;&gt;Node47 -->
<g id="edge6" class="edge">
<title>Node45&#45;&gt;Node47</title>
<path fill="none" stroke="#191970" d="M457.8021,-79.2457C458.9507,-70.2008 460.1338,-60.8836 461.1801,-52.6442"/>
<polygon fill="#191970" stroke="#191970" points="454.3169,-78.9087 456.5292,-89.27 461.2611,-79.7906 454.3169,-78.9087"/>
</g>
<!-- Node49 -->
<g id="node8" class="node">
<title>Node49</title>
<g id="a_node8"><a xlink:href="../../d8/dc6/MUON_2MID_2Raw_2src_2Encoder_8cxx.html" target="_top" xlink:title="MID raw data encoder. ">
<polygon fill="none" stroke="#000000" points="559.5,-.5 559.5,-52.5 705.5,-52.5 705.5,-.5 559.5,-.5"/>
<text text-anchor="start" x="567.5" y="-40.5" font-family="Helvetica,sans-Serif" font-size="10.00" fill="#000000">/home/travis/build</text>
<text text-anchor="start" x="567.5" y="-29.5" font-family="Helvetica,sans-Serif" font-size="10.00" fill="#000000">/AliceO2Group/AliceO2</text>
<text text-anchor="start" x="567.5" y="-18.5" font-family="Helvetica,sans-Serif" font-size="10.00" fill="#000000">/Detectors/MUON/MID/Raw</text>
<text text-anchor="middle" x="632.5" y="-7.5" font-family="Helvetica,sans-Serif" font-size="10.00" fill="#000000">/src/Encoder.cxx</text>
</a>
</g>
</g>
<!-- Node48&#45;&gt;Node49 -->
<g id="edge8" class="edge">
<title>Node48&#45;&gt;Node49</title>
<path fill="none" stroke="#191970" d="M639.928,-84.9957C638.5692,-74.295 637.1066,-62.7773 635.8417,-52.8157"/>
<polygon fill="#191970" stroke="#191970" points="636.4573,-85.4479 641.1892,-94.9273 643.4015,-84.566 636.4573,-85.4479"/>
</g>
<!-- Node50 -->
<g id="node9" class="node">
<title>Node50</title>
<g id="a_node9"><a xlink:href="../../d5/d52/bench__Raw_8cxx.html" target="_top" xlink:title="Benchmark MID raw data decoder. ">
<polygon fill="none" stroke="#000000" points="723.5,-.5 723.5,-52.5 869.5,-52.5 869.5,-.5 723.5,-.5"/>
<text text-anchor="start" x="731.5" y="-40.5" font-family="Helvetica,sans-Serif" font-size="10.00" fill="#000000">/home/travis/build</text>
<text text-anchor="start" x="731.5" y="-29.5" font-family="Helvetica,sans-Serif" font-size="10.00" fill="#000000">/AliceO2Group/AliceO2</text>
<text text-anchor="start" x="731.5" y="-18.5" font-family="Helvetica,sans-Serif" font-size="10.00" fill="#000000">/Detectors/MUON/MID/Raw</text>
<text text-anchor="middle" x="796.5" y="-7.5" font-family="Helvetica,sans-Serif" font-size="10.00" fill="#000000">/test/bench_Raw.cxx</text>
</a>
</g>
</g>
<!-- Node48&#45;&gt;Node50 -->
<g id="edge9" class="edge">
<title>Node48&#45;&gt;Node50</title>
<path fill="none" stroke="#191970" d="M695.0896,-89.5479C714.3434,-77.5776 736.056,-64.0786 754.4362,-52.6515"/>
<polygon fill="#191970" stroke="#191970" points="693.0816,-86.675 686.437,-94.9273 696.7775,-92.6198 693.0816,-86.675"/>
</g>
<!-- Node51 -->
<g id="node10" class="node">
<title>Node51</title>
<g id="a_node10"><a xlink:href="../../d8/d4c/testRaw_8cxx.html" target="_top" xlink:title="Test MID raw data decoder. ">
<polygon fill="none" stroke="#000000" points="887.5,-.5 887.5,-52.5 1033.5,-52.5 1033.5,-.5 887.5,-.5"/>
<text text-anchor="start" x="895.5" y="-40.5" font-family="Helvetica,sans-Serif" font-size="10.00" fill="#000000">/home/travis/build</text>
<text text-anchor="start" x="895.5" y="-29.5" font-family="Helvetica,sans-Serif" font-size="10.00" fill="#000000">/AliceO2Group/AliceO2</text>
<text text-anchor="start" x="895.5" y="-18.5" font-family="Helvetica,sans-Serif" font-size="10.00" fill="#000000">/Detectors/MUON/MID/Raw</text>
<text text-anchor="middle" x="960.5" y="-7.5" font-family="Helvetica,sans-Serif" font-size="10.00" fill="#000000">/test/testRaw.cxx</text>
</a>
</g>
</g>
<!-- Node48&#45;&gt;Node51 -->
<g id="edge10" class="edge">
<title>Node48&#45;&gt;Node51</title>
<path fill="none" stroke="#191970" d="M720.2252,-91.6455C723.0095,-90.7278 725.7743,-89.8424 728.5,-89 794.0025,-68.7548 812.4989,-71.5552 878.5,-53 881.3805,-52.1902 884.3115,-51.3451 887.2674,-50.4754"/>
<polygon fill="#191970" stroke="#191970" points="719.055,-88.3465 710.7112,-94.8758 721.3056,-94.9749 719.055,-88.3465"/>
</g>
<!-- Node52 -->
<g id="node11" class="node">
<title>Node52</title>
<g id="a_node11"><a xlink:href="../../db/dd6/RawWriterSpec_8cxx.html" target="_top" xlink:title="Digits to raw converter spec for MID. ">
<polygon fill="none" stroke="#000000" points="1051.5,-.5 1051.5,-52.5 1221.5,-52.5 1221.5,-.5 1051.5,-.5"/>
<text text-anchor="start" x="1059.5" y="-40.5" font-family="Helvetica,sans-Serif" font-size="10.00" fill="#000000">/home/travis/build</text>
<text text-anchor="start" x="1059.5" y="-29.5" font-family="Helvetica,sans-Serif" font-size="10.00" fill="#000000">/AliceO2Group/AliceO2</text>
<text text-anchor="start" x="1059.5" y="-18.5" font-family="Helvetica,sans-Serif" font-size="10.00" fill="#000000">/Detectors/MUON/MID/Workflow</text>
<text text-anchor="middle" x="1136.5" y="-7.5" font-family="Helvetica,sans-Serif" font-size="10.00" fill="#000000">/src/RawWriterSpec.cxx</text>
</a>
</g>
</g>
<!-- Node48&#45;&gt;Node52 -->
<g id="edge11" class="edge">
<title>Node48&#45;&gt;Node52</title>
<path fill="none" stroke="#191970" d="M717.7476,-91.8914C721.3587,-90.8366 724.9559,-89.8638 728.5,-89 864.9748,-55.7375 904.678,-80.1449 1042.5,-53 1045.4113,-52.4266 1048.3638,-51.8078 1051.3383,-51.1524"/>
<polygon fill="#191970" stroke="#191970" points="716.6987,-88.5522 708.1835,-94.8562 718.7714,-95.2383 716.6987,-88.5522"/>
</g>
</g>
</svg>
