<?xml version="1.0" encoding="UTF-8" standalone="no"?>
<!DOCTYPE svg PUBLIC "-//W3C//DTD SVG 1.1//EN"
 "http://www.w3.org/Graphics/SVG/1.1/DTD/svg11.dtd">
<!-- Generated by graphviz version 2.40.1 (20161225.0304)
 -->
<!-- Title: /home/travis/build/AliceO2Group/AliceO2/Detectors/MUON/MCH/Raw/Decoder/src/UserLogicEndpointDecoder.h Pages: 1 -->
<svg width="1542pt" height="363pt"
 viewBox="0.00 0.00 1542.00 363.00" xmlns="http://www.w3.org/2000/svg" xmlns:xlink="http://www.w3.org/1999/xlink">
<g id="graph0" class="graph" transform="scale(1 1) rotate(0) translate(4 359)">
<title>/home/travis/build/AliceO2Group/AliceO2/Detectors/MUON/MCH/Raw/Decoder/src/UserLogicEndpointDecoder.h</title>
<!-- Node0 -->
<g id="node1" class="node">
<title>Node0</title>
<polygon fill="#bfbfbf" stroke="#000000" points="706,-302.5 706,-354.5 926,-354.5 926,-302.5 706,-302.5"/>
<text text-anchor="start" x="714" y="-342.5" font-family="Helvetica,sans-Serif" font-size="10.00" fill="#000000">/home/travis/build</text>
<text text-anchor="start" x="714" y="-331.5" font-family="Helvetica,sans-Serif" font-size="10.00" fill="#000000">/AliceO2Group/AliceO2</text>
<text text-anchor="start" x="714" y="-320.5" font-family="Helvetica,sans-Serif" font-size="10.00" fill="#000000">/Detectors/MUON/MCH/Raw</text>
<text text-anchor="middle" x="816" y="-309.5" font-family="Helvetica,sans-Serif" font-size="10.00" fill="#000000">/Decoder/src/UserLogicEndpointDecoder.h</text>
</g>
<!-- Node1 -->
<g id="node2" class="node">
<title>Node1</title>
<polygon fill="none" stroke="#bfbfbf" points="658,-179.5 658,-198.5 700,-198.5 700,-179.5 658,-179.5"/>
<text text-anchor="middle" x="679" y="-186.5" font-family="Helvetica,sans-Serif" font-size="10.00" fill="#000000">array</text>
</g>
<!-- Node0&#45;&gt;Node1 -->
<g id="edge1" class="edge">
<title>Node0&#45;&gt;Node1</title>
<path fill="none" stroke="#191970" d="M747.0837,-302.4321C730.0125,-293.1654 713.1504,-281.1602 701,-266 687.8599,-249.605 682.567,-225.7331 680.4357,-208.9256"/>
<polygon fill="#191970" stroke="#191970" points="683.8809,-208.201 679.4076,-198.5969 676.9153,-208.8944 683.8809,-208.201"/>
</g>
<!-- Node2 -->
<g id="node3" class="node">
<title>Node2</title>
<g id="a_node3"><a xlink:href="../../db/de7/UserLogicElinkDecoder_8h.html" target="_top" xlink:title="UserLogicElinkDecoder.h">
<polygon fill="none" stroke="#000000" points="493.5,-179.5 493.5,-198.5 630.5,-198.5 630.5,-179.5 493.5,-179.5"/>
<text text-anchor="middle" x="562" y="-186.5" font-family="Helvetica,sans-Serif" font-size="10.00" fill="#000000">UserLogicElinkDecoder.h</text>
</a>
</g>
</g>
<!-- Node0&#45;&gt;Node2 -->
<g id="edge2" class="edge">
<title>Node0&#45;&gt;Node2</title>
<path fill="none" stroke="#191970" d="M755.7776,-302.4906C732.3939,-291.8548 705.609,-279.0039 682,-266 646.6244,-246.5151 607.598,-220.5903 583.9435,-204.3488"/>
<polygon fill="#191970" stroke="#191970" points="585.8866,-201.4372 575.67,-198.6318 581.9073,-207.1961 585.8866,-201.4372"/>
</g>
<!-- Node3 -->
<g id="node4" class="node">
<title>Node3</title>
<g id="a_node4"><a xlink:href="../../d4/deb/Debug_8h.html" target="_top" xlink:title="Debug.h">
<polygon fill="none" stroke="#000000" points="66.5,-118 66.5,-137 123.5,-137 123.5,-118 66.5,-118"/>
<text text-anchor="middle" x="95" y="-125" font-family="Helvetica,sans-Serif" font-size="10.00" fill="#000000">Debug.h</text>
</a>
</g>
</g>
<!-- Node0&#45;&gt;Node3 -->
<g id="edge54" class="edge">
<title>Node0&#45;&gt;Node3</title>
<path fill="none" stroke="#191970" d="M722.481,-302.4288C562.6764,-257.8786 243.633,-168.9358 133.4639,-138.223"/>
<polygon fill="#191970" stroke="#191970" points="134.3405,-134.8339 123.7679,-135.5199 132.4606,-141.5768 134.3405,-134.8339"/>
</g>
<!-- Node7 -->
<g id="node8" class="node">
<title>Node7</title>
<polygon fill="none" stroke="#bfbfbf" points="199,-.5 199,-19.5 259,-19.5 259,-.5 199,-.5"/>
<text text-anchor="middle" x="229" y="-7.5" font-family="Helvetica,sans-Serif" font-size="10.00" fill="#000000">iostream</text>
</g>
<!-- Node0&#45;&gt;Node7 -->
<g id="edge37" class="edge">
<title>Node0&#45;&gt;Node7</title>
<path fill="none" stroke="#191970" d="M705.788,-326.5614C532.6677,-322.2375 205.6374,-308.5429 98,-266 46.486,-245.6394 0,-244.3918 0,-189 0,-189 0,-189 0,-127.5 0,-43.7288 122.8068,-19.6379 188.5557,-12.743"/>
<polygon fill="#191970" stroke="#191970" points="188.9717,-16.2192 198.5906,-11.7776 188.3013,-9.2514 188.9717,-16.2192"/>
</g>
<!-- Node8 -->
<g id="node9" class="node">
<title>Node8</title>
<g id="a_node9"><a xlink:href="../../dd/d58/SampaChannelHandler_8h.html" target="_top" xlink:title="MCHRawDecoder/SampaChannel\lHandler.h">
<polygon fill="none" stroke="#000000" points="953.5,-112.5 953.5,-142.5 1130.5,-142.5 1130.5,-112.5 953.5,-112.5"/>
<text text-anchor="start" x="961.5" y="-130.5" font-family="Helvetica,sans-Serif" font-size="10.00" fill="#000000">MCHRawDecoder/SampaChannel</text>
<text text-anchor="middle" x="1042" y="-119.5" font-family="Helvetica,sans-Serif" font-size="10.00" fill="#000000">Handler.h</text>
</a>
</g>
</g>
<!-- Node0&#45;&gt;Node8 -->
<g id="edge28" class="edge">
<title>Node0&#45;&gt;Node8</title>
<path fill="none" stroke="#191970" d="M843.7949,-302.4421C876.134,-272.2933 931.3212,-221.3654 980,-179 991.4393,-169.0443 1004.3046,-158.2883 1015.3384,-149.1937"/>
<polygon fill="#191970" stroke="#191970" points="1017.8572,-151.6543 1023.3651,-142.6037 1013.4153,-146.2441 1017.8572,-151.6543"/>
</g>
<!-- Node12 -->
<g id="node13" class="node">
<title>Node12</title>
<polygon fill="none" stroke="#bfbfbf" points="496.5,-.5 496.5,-19.5 575.5,-19.5 575.5,-.5 496.5,-.5"/>
<text text-anchor="middle" x="536" y="-7.5" font-family="Helvetica,sans-Serif" font-size="10.00" fill="#000000">fmt/format.h</text>
</g>
<!-- Node0&#45;&gt;Node12 -->
<g id="edge31" class="edge">
<title>Node0&#45;&gt;Node12</title>
<path fill="none" stroke="#191970" d="M835.1468,-302.2495C864.945,-257.9302 914.4162,-167.6671 868,-112 811.0005,-43.6404 755.5504,-103.8065 671,-76 630.8288,-62.7887 587.4052,-39.8472 560.9531,-24.7941"/>
<polygon fill="#191970" stroke="#191970" points="562.424,-21.6021 552.0129,-19.6377 558.9267,-27.6658 562.424,-21.6021"/>
</g>
<!-- Node18 -->
<g id="node19" class="node">
<title>Node18</title>
<polygon fill="none" stroke="#bfbfbf" points="788.5,-118 788.5,-137 859.5,-137 859.5,-118 788.5,-118"/>
<text text-anchor="middle" x="824" y="-125" font-family="Helvetica,sans-Serif" font-size="10.00" fill="#000000">fmt/printf.h</text>
</g>
<!-- Node0&#45;&gt;Node18 -->
<g id="edge30" class="edge">
<title>Node0&#45;&gt;Node18</title>
<path fill="none" stroke="#191970" d="M817.0459,-302.2228C818.6663,-261.5098 821.7481,-184.0796 823.2024,-147.5399"/>
<polygon fill="#191970" stroke="#191970" points="826.7129,-147.3429 823.6135,-137.2116 819.7184,-147.0645 826.7129,-147.3429"/>
</g>
<!-- Node21 -->
<g id="node22" class="node">
<title>Node21</title>
<polygon fill="none" stroke="#bfbfbf" points="1242.5,-118 1242.5,-137 1299.5,-137 1299.5,-118 1242.5,-118"/>
<text text-anchor="middle" x="1271" y="-125" font-family="Helvetica,sans-Serif" font-size="10.00" fill="#000000">gsl/span</text>
</g>
<!-- Node0&#45;&gt;Node21 -->
<g id="edge29" class="edge">
<title>Node0&#45;&gt;Node21</title>
<path fill="none" stroke="#191970" d="M926.122,-322.9345C1027.5129,-315.7454 1168.5719,-299.8659 1212,-266 1249.83,-236.4996 1263.743,-178.1021 1268.588,-147.4113"/>
<polygon fill="#191970" stroke="#191970" points="1272.108,-147.5128 1270.0319,-137.1234 1265.1759,-146.5399 1272.108,-147.5128"/>
</g>
<!-- Node22 -->
<g id="node23" class="node">
<title>Node22</title>
<g id="a_node23"><a xlink:href="../../d7/dee/MakeArray_8h.html" target="_top" xlink:title="MakeArray.h">
<polygon fill="none" stroke="#000000" points="710.5,-241 710.5,-260 787.5,-260 787.5,-241 710.5,-241"/>
<text text-anchor="middle" x="749" y="-248" font-family="Helvetica,sans-Serif" font-size="10.00" fill="#000000">MakeArray.h</text>
</a>
</g>
</g>
<!-- Node0&#45;&gt;Node22 -->
<g id="edge32" class="edge">
<title>Node0&#45;&gt;Node22</title>
<path fill="none" stroke="#191970" d="M793.3169,-302.0928C783.5888,-290.7675 772.4974,-277.8552 763.8441,-267.7812"/>
<polygon fill="#191970" stroke="#191970" points="766.4033,-265.389 757.2323,-260.0839 761.0932,-269.9502 766.4033,-265.389"/>
</g>
<!-- Node24 -->
<g id="node25" class="node">
<title>Node24</title>
<g id="a_node25"><a xlink:href="../../dc/d46/Assertions_8h.html" target="_top" xlink:title="Assertions.h">
<polygon fill="none" stroke="#000000" points="107.5,-241 107.5,-260 184.5,-260 184.5,-241 107.5,-241"/>
<text text-anchor="middle" x="146" y="-248" font-family="Helvetica,sans-Serif" font-size="10.00" fill="#000000">Assertions.h</text>
</a>
</g>
</g>
<!-- Node0&#45;&gt;Node24 -->
<g id="edge35" class="edge">
<title>Node0&#45;&gt;Node24</title>
<path fill="none" stroke="#191970" d="M705.7385,-315.6636C557.808,-298.4418 301.3658,-268.5874 194.7111,-256.1708"/>
<polygon fill="#191970" stroke="#191970" points="194.9019,-252.6695 184.5643,-254.9896 194.0924,-259.6225 194.9019,-252.6695"/>
</g>
<!-- Node25 -->
<g id="node26" class="node">
<title>Node25</title>
<polygon fill="none" stroke="#bfbfbf" points="1087,-235.5 1087,-265.5 1203,-265.5 1203,-235.5 1087,-235.5"/>
<text text-anchor="start" x="1095" y="-253.5" font-family="Helvetica,sans-Serif" font-size="10.00" fill="#000000">boost/multiprecision</text>
<text text-anchor="middle" x="1145" y="-242.5" font-family="Helvetica,sans-Serif" font-size="10.00" fill="#000000">/cpp_int.hpp</text>
</g>
<!-- Node0&#45;&gt;Node25 -->
<g id="edge38" class="edge">
<title>Node0&#45;&gt;Node25</title>
<path fill="none" stroke="#191970" d="M926.0096,-302.4187C975.9208,-290.5856 1033.3769,-276.9638 1076.911,-266.6427"/>
<polygon fill="#191970" stroke="#191970" points="1077.8978,-270.0058 1086.8206,-264.2933 1076.2829,-263.1946 1077.8978,-270.0058"/>
</g>
<!-- Node26 -->
<g id="node27" class="node">
<title>Node26</title>
<g id="a_node27"><a xlink:href="../../d8/d97/FeeLinkId_8h.html" target="_top" xlink:title="MCHRawElecMap/FeeLinkId.h">
<polygon fill="none" stroke="#000000" points="1376,-56.5 1376,-75.5 1534,-75.5 1534,-56.5 1376,-56.5"/>
<text text-anchor="middle" x="1455" y="-63.5" font-family="Helvetica,sans-Serif" font-size="10.00" fill="#000000">MCHRawElecMap/FeeLinkId.h</text>
</a>
</g>
</g>
<!-- Node0&#45;&gt;Node26 -->
<g id="edge39" class="edge">
<title>Node0&#45;&gt;Node26</title>
<path fill="none" stroke="#191970" d="M926.3353,-323.5277C1093.7824,-313.3164 1399.2857,-283.3262 1462,-199 1486.9603,-165.4382 1473.1515,-112.9007 1462.9,-84.9612"/>
<polygon fill="#191970" stroke="#191970" points="1466.1244,-83.596 1459.2334,-75.5484 1459.6018,-86.1368 1466.1244,-83.596"/>
</g>
<!-- Node27 -->
<g id="node28" class="node">
<title>Node27</title>
<g id="a_node28"><a xlink:href="../../d0/da1/PayloadDecoder_8h.html" target="_top" xlink:title="PayloadDecoder.h">
<polygon fill="none" stroke="#000000" points="965,-241 965,-260 1069,-260 1069,-241 965,-241"/>
<text text-anchor="middle" x="1017" y="-248" font-family="Helvetica,sans-Serif" font-size="10.00" fill="#000000">PayloadDecoder.h</text>
</a>
</g>
</g>
<!-- Node0&#45;&gt;Node27 -->
<g id="edge42" class="edge">
<title>Node0&#45;&gt;Node27</title>
<path fill="none" stroke="#191970" d="M883.2095,-302.4187C916.5484,-289.4812 955.3973,-274.4055 982.6157,-263.8432"/>
<polygon fill="#191970" stroke="#191970" points="984.0291,-267.049 992.0856,-260.1683 981.4967,-260.5232 984.0291,-267.049"/>
</g>
<!-- Node2&#45;&gt;Node3 -->
<g id="edge3" class="edge">
<title>Node2&#45;&gt;Node3</title>
<path fill="none" stroke="#191970" d="M493.496,-183.5624C391.2836,-175.1099 203.8307,-158.2069 138,-143 134.7526,-142.2499 131.4134,-141.3286 128.0998,-140.3127"/>
<polygon fill="#191970" stroke="#191970" points="128.9475,-136.9058 118.3538,-137.0569 126.7295,-143.5451 128.9475,-136.9058"/>
</g>
<!-- Node4 -->
<g id="node5" class="node">
<title>Node4</title>
<g id="a_node5"><a xlink:href="../../d0/d64/DataFormats_8h.html" target="_top" xlink:title="MCHRawCommon/DataFormats.h">
<polygon fill="none" stroke="#000000" points="180.5,-118 180.5,-137 359.5,-137 359.5,-118 180.5,-118"/>
<text text-anchor="middle" x="270" y="-125" font-family="Helvetica,sans-Serif" font-size="10.00" fill="#000000">MCHRawCommon/DataFormats.h</text>
</a>
</g>
</g>
<!-- Node2&#45;&gt;Node4 -->
<g id="edge4" class="edge">
<title>Node2&#45;&gt;Node4</title>
<path fill="none" stroke="#191970" d="M516.6954,-179.4581C465.1204,-168.5956 380.8592,-150.8488 325.414,-139.1711"/>
<polygon fill="#191970" stroke="#191970" points="325.9176,-135.7004 315.4109,-137.0643 324.4749,-142.5502 325.9176,-135.7004"/>
</g>
<!-- Node5 -->
<g id="node6" class="node">
<title>Node5</title>
<g id="a_node6"><a xlink:href="../../d5/d49/SampaHeader_8h.html" target="_top" xlink:title="MCHRawCommon/SampaHeader.h">
<polygon fill="none" stroke="#000000" points="213.5,-56.5 213.5,-75.5 398.5,-75.5 398.5,-56.5 213.5,-56.5"/>
<text text-anchor="middle" x="306" y="-63.5" font-family="Helvetica,sans-Serif" font-size="10.00" fill="#000000">MCHRawCommon/SampaHeader.h</text>
</a>
</g>
</g>
<!-- Node2&#45;&gt;Node5 -->
<g id="edge5" class="edge">
<title>Node2&#45;&gt;Node5</title>
<path fill="none" stroke="#191970" d="M517.5412,-179.4705C486.8911,-171.9283 445.7554,-159.8461 412,-143 407.4154,-140.712 356.7578,-103.4884 327.1651,-81.6487"/>
<polygon fill="#191970" stroke="#191970" points="329.2054,-78.8045 319.082,-75.6793 325.0469,-84.4355 329.2054,-78.8045"/>
</g>
<!-- Node2&#45;&gt;Node7 -->
<g id="edge24" class="edge">
<title>Node2&#45;&gt;Node7</title>
<path fill="none" stroke="#191970" d="M493.0942,-183.2646C383.7236,-173.8282 181.5743,-154.8912 171,-143 140.0721,-108.2202 183.9986,-54.3653 210.8408,-27.0856"/>
<polygon fill="#191970" stroke="#191970" points="213.5383,-29.3411 218.2019,-19.8278 208.6237,-24.3564 213.5383,-29.3411"/>
</g>
<!-- Node2&#45;&gt;Node8 -->
<g id="edge8" class="edge">
<title>Node2&#45;&gt;Node8</title>
<path fill="none" stroke="#191970" d="M630.5172,-180.2212C712.3664,-169.7343 849.916,-152.1108 943.2385,-140.1538"/>
<polygon fill="#191970" stroke="#191970" points="943.7846,-143.6125 953.2587,-138.87 942.895,-136.6693 943.7846,-143.6125"/>
</g>
<!-- Node9 -->
<g id="node10" class="node">
<title>Node9</title>
<polygon fill="none" stroke="#bfbfbf" points="1131.5,-56.5 1131.5,-75.5 1196.5,-75.5 1196.5,-56.5 1131.5,-56.5"/>
<text text-anchor="middle" x="1164" y="-63.5" font-family="Helvetica,sans-Serif" font-size="10.00" fill="#000000">functional</text>
</g>
<!-- Node2&#45;&gt;Node9 -->
<g id="edge23" class="edge">
<title>Node2&#45;&gt;Node9</title>
<path fill="none" stroke="#191970" d="M618.6769,-179.4836C653.6148,-172.3047 698.7108,-160.6255 736,-143 757.3002,-132.932 756.9877,-120.3976 779,-112 919.5413,-58.3841 969.3926,-100.3824 1121.2571,-76.0684"/>
<polygon fill="#191970" stroke="#191970" points="1122.1246,-79.4719 1131.4097,-74.3692 1120.9691,-72.568 1122.1246,-79.4719"/>
</g>
<!-- Node11 -->
<g id="node12" class="node">
<title>Node11</title>
<polygon fill="none" stroke="#bfbfbf" points="860.5,-.5 860.5,-19.5 907.5,-19.5 907.5,-.5 860.5,-.5"/>
<text text-anchor="middle" x="884" y="-7.5" font-family="Helvetica,sans-Serif" font-size="10.00" fill="#000000">vector</text>
</g>
<!-- Node2&#45;&gt;Node11 -->
<g id="edge26" class="edge">
<title>Node2&#45;&gt;Node11</title>
<path fill="none" stroke="#191970" d="M589.9661,-179.4272C611.4537,-171.3987 641.3578,-158.7304 665,-143 681.7536,-131.853 680.1372,-121.266 698,-112 768.4873,-75.436 817.9205,-133.1982 873,-76 884.686,-63.8645 886.6616,-44.2962 886.1786,-29.6118"/>
<polygon fill="#191970" stroke="#191970" points="889.6624,-29.2601 885.45,-19.5386 882.6806,-29.7651 889.6624,-29.2601"/>
</g>
<!-- Node2&#45;&gt;Node12 -->
<g id="edge21" class="edge">
<title>Node2&#45;&gt;Node12</title>
<path fill="none" stroke="#191970" d="M525.2865,-179.44C494.6184,-170.6241 454.4323,-156.8435 445,-143 415.9544,-100.3705 475.9495,-50.1575 511.7947,-25.3967"/>
<polygon fill="#191970" stroke="#191970" points="513.9698,-28.152 520.3186,-19.6701 510.0661,-22.3415 513.9698,-28.152"/>
</g>
<!-- Node13 -->
<g id="node14" class="node">
<title>Node13</title>
<g id="a_node14"><a xlink:href="../../d4/d09/DsElecId_8h.html" target="_top" xlink:title="MCHRawElecMap/DsElecId.h">
<polygon fill="none" stroke="#000000" points="958.5,-56.5 958.5,-75.5 1113.5,-75.5 1113.5,-56.5 958.5,-56.5"/>
<text text-anchor="middle" x="1036" y="-63.5" font-family="Helvetica,sans-Serif" font-size="10.00" fill="#000000">MCHRawElecMap/DsElecId.h</text>
</a>
</g>
</g>
<!-- Node2&#45;&gt;Node13 -->
<g id="edge19" class="edge">
<title>Node2&#45;&gt;Node13</title>
<path fill="none" stroke="#191970" d="M598.1761,-179.4178C626.145,-171.3843 665.4534,-158.7137 698,-143 720.8697,-131.9584 722.2807,-121.0739 746,-112 781.9636,-98.2421 876.4711,-84.7027 947.903,-75.915"/>
<polygon fill="#191970" stroke="#191970" points="948.7613,-79.3365 958.2649,-74.6535 947.9152,-72.3878 948.7613,-79.3365"/>
</g>
<!-- Node17 -->
<g id="node18" class="node">
<title>Node17</title>
<polygon fill="none" stroke="#bfbfbf" points="454,-118 454,-137 498,-137 498,-118 454,-118"/>
<text text-anchor="middle" x="476" y="-125" font-family="Helvetica,sans-Serif" font-size="10.00" fill="#000000">bitset</text>
</g>
<!-- Node2&#45;&gt;Node17 -->
<g id="edge20" class="edge">
<title>Node2&#45;&gt;Node17</title>
<path fill="none" stroke="#191970" d="M548.5625,-179.3906C534.9305,-169.6421 513.6154,-154.3994 497.6078,-142.9521"/>
<polygon fill="#191970" stroke="#191970" points="499.5132,-140.0118 489.3431,-137.0419 495.4414,-145.7057 499.5132,-140.0118"/>
</g>
<!-- Node2&#45;&gt;Node18 -->
<g id="edge22" class="edge">
<title>Node2&#45;&gt;Node18</title>
<path fill="none" stroke="#191970" d="M611.9796,-179.4316C655.1248,-170.868 719.0001,-157.4627 774,-143 777.5954,-142.0546 781.3184,-141.0155 785.0364,-139.9369"/>
<polygon fill="#191970" stroke="#191970" points="786.1965,-143.2433 794.7757,-137.0265 784.1922,-136.5363 786.1965,-143.2433"/>
</g>
<!-- Node19 -->
<g id="node20" class="node">
<title>Node19</title>
<polygon fill="none" stroke="#bfbfbf" points="516.5,-118 516.5,-137 581.5,-137 581.5,-118 516.5,-118"/>
<text text-anchor="middle" x="549" y="-125" font-family="Helvetica,sans-Serif" font-size="10.00" fill="#000000">stdexcept</text>
</g>
<!-- Node2&#45;&gt;Node19 -->
<g id="edge25" class="edge">
<title>Node2&#45;&gt;Node19</title>
<path fill="none" stroke="#191970" d="M559.9688,-179.3906C558.1478,-170.776 555.4198,-157.8708 553.1401,-147.0858"/>
<polygon fill="#191970" stroke="#191970" points="556.5524,-146.3048 551.0599,-137.2449 549.7038,-147.7525 556.5524,-146.3048"/>
</g>
<!-- Node20 -->
<g id="node21" class="node">
<title>Node20</title>
<polygon fill="none" stroke="#bfbfbf" points="600,-118 600,-137 656,-137 656,-118 600,-118"/>
<text text-anchor="middle" x="628" y="-125" font-family="Helvetica,sans-Serif" font-size="10.00" fill="#000000">sstream</text>
</g>
<!-- Node2&#45;&gt;Node20 -->
<g id="edge27" class="edge">
<title>Node2&#45;&gt;Node20</title>
<path fill="none" stroke="#191970" d="M572.3125,-179.3906C582.4242,-169.9683 598.0442,-155.4134 610.1707,-144.1137"/>
<polygon fill="#191970" stroke="#191970" points="612.612,-146.6228 617.5421,-137.2449 607.8399,-141.5015 612.612,-146.6228"/>
</g>
<!-- Node6 -->
<g id="node7" class="node">
<title>Node6</title>
<polygon fill="none" stroke="#bfbfbf" points="747.5,-.5 747.5,-19.5 796.5,-19.5 796.5,-.5 747.5,-.5"/>
<text text-anchor="middle" x="772" y="-7.5" font-family="Helvetica,sans-Serif" font-size="10.00" fill="#000000">cstdlib</text>
</g>
<!-- Node5&#45;&gt;Node6 -->
<g id="edge6" class="edge">
<title>Node5&#45;&gt;Node6</title>
<path fill="none" stroke="#191970" d="M385.3145,-56.4686C488.0823,-44.1189 662.8514,-23.1166 737.0366,-14.2016"/>
<polygon fill="#191970" stroke="#191970" points="737.7206,-17.6447 747.2316,-12.9765 736.8854,-10.6947 737.7206,-17.6447"/>
</g>
<!-- Node5&#45;&gt;Node7 -->
<g id="edge7" class="edge">
<title>Node5&#45;&gt;Node7</title>
<path fill="none" stroke="#191970" d="M292.5876,-56.2455C280.9943,-47.814 264.0252,-35.4729 250.5322,-25.6598"/>
<polygon fill="#191970" stroke="#191970" points="252.4047,-22.6938 242.2587,-19.6427 248.2874,-28.355 252.4047,-22.6938"/>
</g>
<!-- Node8&#45;&gt;Node9 -->
<g id="edge9" class="edge">
<title>Node8&#45;&gt;Node9</title>
<path fill="none" stroke="#191970" d="M1071.8446,-112.4554C1091.397,-102.599 1116.7872,-89.7999 1135.9645,-80.1327"/>
<polygon fill="#191970" stroke="#191970" points="1137.7402,-83.1571 1145.0943,-75.5303 1134.5892,-76.9064 1137.7402,-83.1571"/>
</g>
<!-- Node10 -->
<g id="node11" class="node">
<title>Node10</title>
<g id="a_node11"><a xlink:href="../../d0/d5b/SampaCluster_8h.html" target="_top" xlink:title="MCHRawCommon/SampaCluster.h">
<polygon fill="none" stroke="#000000" points="680,-56.5 680,-75.5 864,-75.5 864,-56.5 680,-56.5"/>
<text text-anchor="middle" x="772" y="-63.5" font-family="Helvetica,sans-Serif" font-size="10.00" fill="#000000">MCHRawCommon/SampaCluster.h</text>
</a>
</g>
</g>
<!-- Node8&#45;&gt;Node10 -->
<g id="edge10" class="edge">
<title>Node8&#45;&gt;Node10</title>
<path fill="none" stroke="#191970" d="M975.9506,-112.4554C929.0233,-101.7664 866.9017,-87.6165 823.6005,-77.7535"/>
<polygon fill="#191970" stroke="#191970" points="824.368,-74.3387 813.8404,-75.5303 822.8133,-81.1639 824.368,-74.3387"/>
</g>
<!-- Node8&#45;&gt;Node13 -->
<g id="edge15" class="edge">
<title>Node8&#45;&gt;Node13</title>
<path fill="none" stroke="#191970" d="M1040.5169,-112.2977C1039.7447,-104.3834 1038.7907,-94.6043 1037.9586,-86.0759"/>
<polygon fill="#191970" stroke="#191970" points="1041.4152,-85.4598 1036.9607,-75.8469 1034.4483,-86.1396 1041.4152,-85.4598"/>
</g>
<!-- Node10&#45;&gt;Node6 -->
<g id="edge11" class="edge">
<title>Node10&#45;&gt;Node6</title>
<path fill="none" stroke="#191970" d="M772,-56.2455C772,-48.9382 772,-38.6944 772,-29.7046"/>
<polygon fill="#191970" stroke="#191970" points="775.5001,-29.6426 772,-19.6427 768.5001,-29.6427 775.5001,-29.6426"/>
</g>
<!-- Node10&#45;&gt;Node7 -->
<g id="edge13" class="edge">
<title>Node10&#45;&gt;Node7</title>
<path fill="none" stroke="#191970" d="M679.8875,-56.5004C559.9259,-44.1286 355.3916,-23.0349 269.1911,-14.1449"/>
<polygon fill="#191970" stroke="#191970" points="269.3437,-10.6422 259.0374,-13.0978 268.6256,-17.6053 269.3437,-10.6422"/>
</g>
<!-- Node10&#45;&gt;Node11 -->
<g id="edge12" class="edge">
<title>Node10&#45;&gt;Node11</title>
<path fill="none" stroke="#191970" d="M791.2535,-56.3733C809.0712,-47.4644 835.7747,-34.1127 855.9594,-24.0203"/>
<polygon fill="#191970" stroke="#191970" points="857.6187,-27.1038 864.9978,-19.5011 854.4882,-20.8428 857.6187,-27.1038"/>
</g>
<!-- Node10&#45;&gt;Node12 -->
<g id="edge14" class="edge">
<title>Node10&#45;&gt;Node12</title>
<path fill="none" stroke="#191970" d="M731.6983,-56.4369C691.2714,-46.8441 628.9415,-32.0539 585.5242,-21.7515"/>
<polygon fill="#191970" stroke="#191970" points="586.2797,-18.3337 575.7418,-19.4303 584.6635,-25.1446 586.2797,-18.3337"/>
</g>
<!-- Node14 -->
<g id="node15" class="node">
<title>Node14</title>
<polygon fill="none" stroke="#bfbfbf" points="1323,-.5 1323,-19.5 1373,-19.5 1373,-.5 1323,-.5"/>
<text text-anchor="middle" x="1348" y="-7.5" font-family="Helvetica,sans-Serif" font-size="10.00" fill="#000000">cstdint</text>
</g>
<!-- Node13&#45;&gt;Node14 -->
<g id="edge16" class="edge">
<title>Node13&#45;&gt;Node14</title>
<path fill="none" stroke="#191970" d="M1089.2802,-56.4369C1153.2114,-44.9621 1258.5758,-26.0505 1313.0161,-16.2792"/>
<polygon fill="#191970" stroke="#191970" points="1313.6584,-19.7199 1322.8827,-14.5082 1312.4217,-12.83 1313.6584,-19.7199"/>
</g>
<!-- Node15 -->
<g id="node16" class="node">
<title>Node15</title>
<polygon fill="none" stroke="#bfbfbf" points="1410.5,-.5 1410.5,-19.5 1459.5,-19.5 1459.5,-.5 1410.5,-.5"/>
<text text-anchor="middle" x="1435" y="-7.5" font-family="Helvetica,sans-Serif" font-size="10.00" fill="#000000">iosfwd</text>
</g>
<!-- Node13&#45;&gt;Node15 -->
<g id="edge17" class="edge">
<title>Node13&#45;&gt;Node15</title>
<path fill="none" stroke="#191970" d="M1113.8174,-56.8798C1184.0586,-48.3563 1290.1603,-34.7579 1382,-20 1387.9227,-19.0483 1394.2001,-17.9467 1400.2838,-16.8298"/>
<polygon fill="#191970" stroke="#191970" points="1401.0605,-20.2452 1410.2426,-14.9595 1399.7684,-13.3655 1401.0605,-20.2452"/>
</g>
<!-- Node16 -->
<g id="node17" class="node">
<title>Node16</title>
<polygon fill="none" stroke="#bfbfbf" points="1008,-.5 1008,-19.5 1064,-19.5 1064,-.5 1008,-.5"/>
<text text-anchor="middle" x="1036" y="-7.5" font-family="Helvetica,sans-Serif" font-size="10.00" fill="#000000">optional</text>
</g>
<!-- Node13&#45;&gt;Node16 -->
<g id="edge18" class="edge">
<title>Node13&#45;&gt;Node16</title>
<path fill="none" stroke="#191970" d="M1036,-56.2455C1036,-48.9382 1036,-38.6944 1036,-29.7046"/>
<polygon fill="#191970" stroke="#191970" points="1039.5001,-29.6426 1036,-19.6427 1032.5001,-29.6427 1039.5001,-29.6426"/>
</g>
<!-- Node22&#45;&gt;Node1 -->
<g id="edge33" class="edge">
<title>Node22&#45;&gt;Node1</title>
<path fill="none" stroke="#191970" d="M738.0625,-240.8906C727.338,-231.4683 710.7713,-216.9134 697.9099,-205.6137"/>
<polygon fill="#191970" stroke="#191970" points="699.9143,-202.7158 690.0917,-198.7449 695.2941,-207.9745 699.9143,-202.7158"/>
</g>
<!-- Node23 -->
<g id="node24" class="node">
<title>Node23</title>
<polygon fill="none" stroke="#bfbfbf" points="718.5,-179.5 718.5,-198.5 787.5,-198.5 787.5,-179.5 718.5,-179.5"/>
<text text-anchor="middle" x="753" y="-186.5" font-family="Helvetica,sans-Serif" font-size="10.00" fill="#000000">type_traits</text>
</g>
<!-- Node22&#45;&gt;Node23 -->
<g id="edge34" class="edge">
<title>Node22&#45;&gt;Node23</title>
<path fill="none" stroke="#191970" d="M749.625,-240.8906C750.1795,-232.3657 751.0072,-219.6392 751.7042,-208.9235"/>
<polygon fill="#191970" stroke="#191970" points="755.2097,-208.951 752.3662,-198.7449 748.2244,-208.4966 755.2097,-208.951"/>
</g>
<!-- Node24&#45;&gt;Node12 -->
<g id="edge36" class="edge">
<title>Node24&#45;&gt;Node12</title>
<path fill="none" stroke="#191970" d="M131.4174,-240.958C98.5917,-218.2885 24.2381,-159.5394 57,-112 105.5411,-41.5641 373.7057,-18.8381 486.2526,-12.3371"/>
<polygon fill="#191970" stroke="#191970" points="486.5375,-15.8268 496.3268,-11.7748 486.1472,-8.8377 486.5375,-15.8268"/>
</g>
<!-- Node26&#45;&gt;Node14 -->
<g id="edge40" class="edge">
<title>Node26&#45;&gt;Node14</title>
<path fill="none" stroke="#191970" d="M1436.362,-56.2455C1419.5614,-47.4527 1394.6366,-34.4079 1375.5382,-24.4125"/>
<polygon fill="#191970" stroke="#191970" points="1376.9073,-21.1787 1366.4244,-19.6427 1373.6614,-27.3807 1376.9073,-21.1787"/>
</g>
<!-- Node26&#45;&gt;Node15 -->
<g id="edge41" class="edge">
<title>Node26&#45;&gt;Node15</title>
<path fill="none" stroke="#191970" d="M1451.5163,-56.2455C1448.8492,-48.7776 1445.0867,-38.2427 1441.8263,-29.1137"/>
<polygon fill="#191970" stroke="#191970" points="1445.1033,-27.8829 1438.4438,-19.6427 1438.5111,-30.2373 1445.1033,-27.8829"/>
</g>
<!-- Node27&#45;&gt;Node6 -->
<g id="edge52" class="edge">
<title>Node27&#45;&gt;Node6</title>
<path fill="none" stroke="#191970" d="M1010.167,-240.9968C982.7835,-202.9487 882.0218,-63.302 873,-56 853.3079,-40.0616 827.2005,-28.3609 806.4625,-20.7492"/>
<polygon fill="#191970" stroke="#191970" points="807.3598,-17.3548 796.765,-17.3405 805.0384,-23.9587 807.3598,-17.3548"/>
</g>
<!-- Node27&#45;&gt;Node8 -->
<g id="edge45" class="edge">
<title>Node27&#45;&gt;Node8</title>
<path fill="none" stroke="#191970" d="M1007.6873,-240.7545C995.6952,-226.9639 977.4679,-200.984 987,-179 992.0412,-167.3735 1001.143,-157.1715 1010.5104,-148.9809"/>
<polygon fill="#191970" stroke="#191970" points="1012.8164,-151.6167 1018.3581,-142.5867 1008.3948,-146.1899 1012.8164,-151.6167"/>
</g>
<!-- Node27&#45;&gt;Node21 -->
<g id="edge53" class="edge">
<title>Node27&#45;&gt;Node21</title>
<path fill="none" stroke="#191970" d="M1053.0337,-240.9279C1104.7413,-227.1181 1194.5236,-202.8335 1201,-199 1224.2086,-185.2625 1245.0121,-161.8911 1257.7919,-145.623"/>
<polygon fill="#191970" stroke="#191970" points="1260.7616,-147.5001 1264.0307,-137.4222 1255.1905,-143.2618 1260.7616,-147.5001"/>
</g>
<!-- Node28 -->
<g id="node29" class="node">
<title>Node28</title>
<g id="a_node29"><a xlink:href="../../d4/d78/DataFormats_2Headers_2include_2Headers_2RAWDataHeader_8h.html" target="_top" xlink:title="Headers/RAWDataHeader.h">
<polygon fill="none" stroke="#000000" points="1303.5,-179.5 1303.5,-198.5 1452.5,-198.5 1452.5,-179.5 1303.5,-179.5"/>
<text text-anchor="middle" x="1378" y="-186.5" font-family="Helvetica,sans-Serif" font-size="10.00" fill="#000000">Headers/RAWDataHeader.h</text>
</a>
</g>
</g>
<!-- Node27&#45;&gt;Node28 -->
<g id="edge43" class="edge">
<title>Node27&#45;&gt;Node28</title>
<path fill="none" stroke="#191970" d="M1052.0265,-240.9826C1060.4934,-238.8533 1069.5407,-236.7191 1078,-235 1150.1208,-220.3436 1232.8445,-207.9873 1293.1339,-199.784"/>
<polygon fill="#191970" stroke="#191970" points="1293.924,-203.2091 1303.3657,-198.4023 1292.9872,-196.2721 1293.924,-203.2091"/>
</g>
<!-- Node29 -->
<g id="node30" class="node">
<title>Node29</title>
<g id="a_node30"><a xlink:href="../../dc/d36/PageDecoder_8h.html" target="_top" xlink:title="MCHRawDecoder/PageDecoder.h">
<polygon fill="none" stroke="#000000" points="996,-179.5 996,-198.5 1172,-198.5 1172,-179.5 996,-179.5"/>
<text text-anchor="middle" x="1084" y="-186.5" font-family="Helvetica,sans-Serif" font-size="10.00" fill="#000000">MCHRawDecoder/PageDecoder.h</text>
</a>
</g>
</g>
<!-- Node27&#45;&gt;Node29 -->
<g id="edge46" class="edge">
<title>Node27&#45;&gt;Node29</title>
<path fill="none" stroke="#191970" d="M1027.4688,-240.8906C1037.7337,-231.4683 1053.5903,-216.9134 1065.9006,-205.6137"/>
<polygon fill="#191970" stroke="#191970" points="1068.3834,-208.0856 1073.3837,-198.7449 1063.6499,-202.9287 1068.3834,-208.0856"/>
</g>
<!-- Node30 -->
<g id="node31" class="node">
<title>Node30</title>
<polygon fill="none" stroke="#bfbfbf" points="1186,-118 1186,-137 1224,-137 1224,-118 1186,-118"/>
<text text-anchor="middle" x="1205" y="-125" font-family="Helvetica,sans-Serif" font-size="10.00" fill="#000000">map</text>
</g>
<!-- Node27&#45;&gt;Node30 -->
<g id="edge51" class="edge">
<title>Node27&#45;&gt;Node30</title>
<path fill="none" stroke="#191970" d="M1053.4557,-240.9361C1098.8814,-228.7325 1171.7045,-208.1153 1181,-199 1194.9766,-185.2943 1200.8139,-163.2122 1203.2518,-147.2113"/>
<polygon fill="#191970" stroke="#191970" points="1206.7264,-147.6313 1204.4547,-137.2829 1199.7772,-146.7893 1206.7264,-147.6313"/>
</g>
<!-- Node28&#45;&gt;Node14 -->
<g id="edge44" class="edge">
<title>Node28&#45;&gt;Node14</title>
<path fill="none" stroke="#191970" d="M1376.3871,-179.3762C1371.6461,-151.0883 1357.6869,-67.7987 1351.281,-29.5767"/>
<polygon fill="#191970" stroke="#191970" points="1354.7258,-28.9553 1349.6209,-19.6714 1347.8221,-30.1124 1354.7258,-28.9553"/>
</g>
<!-- Node29&#45;&gt;Node8 -->
<g id="edge50" class="edge">
<title>Node29&#45;&gt;Node8</title>
<path fill="none" stroke="#191970" d="M1077.4375,-179.3906C1072.227,-171.761 1064.7181,-160.7658 1057.9523,-150.8588"/>
<polygon fill="#191970" stroke="#191970" points="1060.8043,-148.8287 1052.2744,-142.5446 1055.0237,-152.7765 1060.8043,-148.8287"/>
</g>
<!-- Node29&#45;&gt;Node9 -->
<g id="edge47" class="edge">
<title>Node29&#45;&gt;Node9</title>
<path fill="none" stroke="#191970" d="M1100.193,-179.4271C1112.7383,-171.2314 1129.6696,-158.3412 1140,-143 1151.6924,-125.6362 1157.9133,-102.2929 1161.0658,-85.8756"/>
<polygon fill="#191970" stroke="#191970" points="1164.5573,-86.2209 1162.7875,-75.775 1157.6569,-85.0446 1164.5573,-86.2209"/>
</g>
<!-- Node29&#45;&gt;Node21 -->
<g id="edge48" class="edge">
<title>Node29&#45;&gt;Node21</title>
<path fill="none" stroke="#191970" d="M1118.0097,-179.4248C1148.3927,-170.6522 1193.9966,-156.9449 1233,-143 1234.9121,-142.3164 1236.8694,-141.5929 1238.8382,-140.8468"/>
<polygon fill="#191970" stroke="#191970" points="1240.5901,-143.9193 1248.6212,-137.0091 1238.0337,-137.4028 1240.5901,-143.9193"/>
</g>
<!-- Node29&#45;&gt;Node30 -->
<g id="edge49" class="edge">
<title>Node29&#45;&gt;Node30</title>
<path fill="none" stroke="#191970" d="M1102.9063,-179.3906C1122.7966,-169.2811 1154.3123,-153.2628 1177.0692,-141.6962"/>
<polygon fill="#191970" stroke="#191970" points="1178.8978,-144.693 1186.2265,-137.0419 1175.726,-138.4528 1178.8978,-144.693"/>
</g>
</g>
</svg>
