<?xml version="1.0" encoding="UTF-8" standalone="no"?>
<!DOCTYPE svg PUBLIC "-//W3C//DTD SVG 1.1//EN"
 "http://www.w3.org/Graphics/SVG/1.1/DTD/svg11.dtd">
<!-- Generated by graphviz version 2.40.1 (20161225.0304)
 -->
<!-- Title: o2::eventgen::Generator Pages: 1 -->
<!--zoomable 435 -->
<svg id="main" version="1.1" xmlns="http://www.w3.org/2000/svg" xmlns:xlink="http://www.w3.org/1999/xlink" xml:space="preserve" onload="init(evt)">
<style type="text/css"><![CDATA[
.edge:hover path { stroke: red; }
.edge:hover polygon { stroke: red; fill: red; }
]]></style>
<script type="text/javascript"><![CDATA[
var edges = document.getElementsByTagName('g');
if (edges && edges.length) {
  for (var i=0;i<edges.length;i++) {
    if (edges[i].id.substr(0,4)=='edge') {
      edges[i].setAttribute('class','edge');
    }
  }
}
]]></script>
        <defs>
                <circle id="rim" cx="0" cy="0" r="7"/>
                <circle id="rim2" cx="0" cy="0" r="3.5"/>
                <g id="zoomPlus">
                        <use xlink:href="#rim" fill="#404040">
                                <set attributeName="fill" to="#808080" begin="zoomplus.mouseover" end="zoomplus.mouseout"/>
                        </use>
                        <path d="M-4,0h8M0,-4v8" fill="none" stroke="white" stroke-width="1.5" pointer-events="none"/>
                </g>
                <g id="zoomMin">
                        <use xlink:href="#rim" fill="#404040">
                                <set attributeName="fill" to="#808080" begin="zoomminus.mouseover" end="zoomminus.mouseout"/>
                        </use>
                        <path d="M-4,0h8" fill="none" stroke="white" stroke-width="1.5" pointer-events="none"/>
                </g>
                <g id="dirArrow">
                        <path fill="none" stroke="white" stroke-width="1.5" d="M0,-3.0v7 M-2.5,-0.5L0,-3.0L2.5,-0.5"/>
                </g>
               <g id="resetDef">
                       <use xlink:href="#rim2" fill="#404040">
                               <set attributeName="fill" to="#808080" begin="reset.mouseover" end="reset.mouseout"/>
                       </use>
               </g>
        </defs>

<script type="text/javascript">
var viewWidth = 944;
var viewHeight = 435;
var sectionId = 'dynsection-1';
</script>
<script xlink:href="../../svgpan.js"/>
<svg id="graph" class="graph">
<g id="viewport">
<title>o2::eventgen::Generator</title>
<!-- Node6 -->
<g id="node1" class="node">
<title>Node6</title>
<polygon fill="#bfbfbf" stroke="#000000" points="430,-.5 430,-288.5 565,-288.5 565,-.5 430,-.5"/>
<text text-anchor="middle" x="497.5" y="-276.5" font-family="Helvetica,sans-Serif" font-size="10.00" fill="#000000">o2::eventgen::Generator</text>
<polyline fill="none" stroke="#000000" points="430,-269.5 565,-269.5 "/>
<text text-anchor="middle" x="497.5" y="-257.5" font-family="Helvetica,sans-Serif" font-size="10.00" fill="#000000"> </text>
<polyline fill="none" stroke="#000000" points="430,-250.5 565,-250.5 "/>
<text text-anchor="start" x="438" y="-238.5" font-family="Helvetica,sans-Serif" font-size="10.00" fill="#000000">+ Generator()</text>
<text text-anchor="start" x="438" y="-227.5" font-family="Helvetica,sans-Serif" font-size="10.00" fill="#000000">+ Generator()</text>
<text text-anchor="start" x="438" y="-216.5" font-family="Helvetica,sans-Serif" font-size="10.00" fill="#000000">+ ~Generator()</text>
<text text-anchor="start" x="438" y="-205.5" font-family="Helvetica,sans-Serif" font-size="10.00" fill="#000000">+ Init()</text>
<text text-anchor="start" x="438" y="-194.5" font-family="Helvetica,sans-Serif" font-size="10.00" fill="#000000">+ ReadEvent()</text>
<text text-anchor="start" x="438" y="-183.5" font-family="Helvetica,sans-Serif" font-size="10.00" fill="#000000">+ setMomentumUnit()</text>
<text text-anchor="start" x="438" y="-172.5" font-family="Helvetica,sans-Serif" font-size="10.00" fill="#000000">+ setEnergyUnit()</text>
<text text-anchor="start" x="438" y="-161.5" font-family="Helvetica,sans-Serif" font-size="10.00" fill="#000000">+ setPositionUnit()</text>
<text text-anchor="start" x="438" y="-150.5" font-family="Helvetica,sans-Serif" font-size="10.00" fill="#000000">+ setTimeUnit()</text>
<text text-anchor="start" x="438" y="-139.5" font-family="Helvetica,sans-Serif" font-size="10.00" fill="#000000">+ setBoost()</text>
<text text-anchor="start" x="438" y="-128.5" font-family="Helvetica,sans-Serif" font-size="10.00" fill="#000000">+ setTriggerMode()</text>
<text text-anchor="start" x="438" y="-117.5" font-family="Helvetica,sans-Serif" font-size="10.00" fill="#000000">+ addTrigger()</text>
<text text-anchor="start" x="438" y="-106.5" font-family="Helvetica,sans-Serif" font-size="10.00" fill="#000000">+ addDeepTrigger()</text>
<text text-anchor="start" x="438" y="-95.5" font-family="Helvetica,sans-Serif" font-size="10.00" fill="#000000">+ notifyEmbedding()</text>
<text text-anchor="start" x="438" y="-84.5" font-family="Helvetica,sans-Serif" font-size="10.00" fill="#000000"># Generator()</text>
<text text-anchor="start" x="438" y="-73.5" font-family="Helvetica,sans-Serif" font-size="10.00" fill="#000000"># operator=()</text>
<text text-anchor="start" x="438" y="-62.5" font-family="Helvetica,sans-Serif" font-size="10.00" fill="#000000"># generateEvent()</text>
<text text-anchor="start" x="438" y="-51.5" font-family="Helvetica,sans-Serif" font-size="10.00" fill="#000000"># importParticles()</text>
<text text-anchor="start" x="438" y="-40.5" font-family="Helvetica,sans-Serif" font-size="10.00" fill="#000000"># addTracks()</text>
<text text-anchor="start" x="438" y="-29.5" font-family="Helvetica,sans-Serif" font-size="10.00" fill="#000000"># boostEvent()</text>
<text text-anchor="start" x="438" y="-18.5" font-family="Helvetica,sans-Serif" font-size="10.00" fill="#000000"># triggerEvent()</text>
<text text-anchor="start" x="438" y="-7.5" font-family="Helvetica,sans-Serif" font-size="10.00" fill="#000000"># ClassDefOverride()</text>
</g>
<!-- Node7 -->
<g id="node2" class="node">
<title>Node7</title>
<g id="a_node2"><a xlink:href="../../df/d40/classFairGenerator.html" target="_top" xlink:title="{FairGenerator\n||}">
<polygon fill="none" stroke="#000000" points="0,-369.5 0,-426.5 83,-426.5 83,-369.5 0,-369.5"/>
<text text-anchor="middle" x="41.5" y="-414.5" font-family="Helvetica,sans-Serif" font-size="10.00" fill="#000000">FairGenerator</text>
<polyline fill="none" stroke="#000000" points="0,-407.5 83,-407.5 "/>
<text text-anchor="middle" x="41.5" y="-395.5" font-family="Helvetica,sans-Serif" font-size="10.00" fill="#000000"> </text>
<polyline fill="none" stroke="#000000" points="0,-388.5 83,-388.5 "/>
<text text-anchor="middle" x="41.5" y="-376.5" font-family="Helvetica,sans-Serif" font-size="10.00" fill="#000000"> </text>
</a>
</g>
</g>
<!-- Node7&#45;&gt;Node6 -->
<g id="edge1" class="edge">
<title>Node7&#45;&gt;Node6</title>
<path fill="none" stroke="#191970" d="M86.0747,-363.339C109.8965,-345.5224 140.0971,-324.0354 168.5,-307 255.7751,-254.6544 362.2411,-204.3602 429.9615,-173.9408"/>
<polygon fill="none" stroke="#191970" points="83.8104,-360.6627 77.9281,-369.4745 88.0217,-366.2543 83.8104,-360.6627"/>
</g>
<!-- Node8 -->
<g id="node3" class="node">
<title>Node8</title>
<polygon fill="none" stroke="#bfbfbf" points="101.5,-369.5 101.5,-426.5 213.5,-426.5 213.5,-369.5 101.5,-369.5"/>
<text text-anchor="middle" x="157.5" y="-414.5" font-family="Helvetica,sans-Serif" font-size="10.00" fill="#000000">vector&lt; TParticle &gt;</text>
<polyline fill="none" stroke="#bfbfbf" points="101.5,-407.5 213.5,-407.5 "/>
<text text-anchor="middle" x="157.5" y="-395.5" font-family="Helvetica,sans-Serif" font-size="10.00" fill="#000000"> </text>
<polyline fill="none" stroke="#bfbfbf" points="101.5,-388.5 213.5,-388.5 "/>
<text text-anchor="middle" x="157.5" y="-376.5" font-family="Helvetica,sans-Serif" font-size="10.00" fill="#000000"> </text>
</g>
<!-- Node8&#45;&gt;Node6 -->
<g id="edge2" class="edge">
<title>Node8&#45;&gt;Node6</title>
<path fill="none" stroke="#404040" d="M165.7966,-369.4267C172.5961,-349.9845 183.8415,-324.6753 200.5,-307 261.0611,-242.7423 352.8231,-197.9409 418.3106,-171.8893"/>
<polygon fill="none" stroke="#404040" points="418.6317,-171.764 422.766,-165.8556 429.8099,-167.3994 425.6757,-173.3078 418.6317,-171.764"/>
<text text-anchor="middle" x="232" y="-326.5" font-family="Helvetica,sans-Serif" font-size="10.00" fill="#000000"> #mParticles</text>
</g>
<!-- Node9 -->
<g id="node4" class="node">
<title>Node9</title>
<polygon fill="none" stroke="#bfbfbf" points="231.5,-369.5 231.5,-426.5 281.5,-426.5 281.5,-369.5 231.5,-369.5"/>
<text text-anchor="middle" x="256.5" y="-414.5" font-family="Helvetica,sans-Serif" font-size="10.00" fill="#000000">double</text>
<polyline fill="none" stroke="#bfbfbf" points="231.5,-407.5 281.5,-407.5 "/>
<text text-anchor="middle" x="256.5" y="-395.5" font-family="Helvetica,sans-Serif" font-size="10.00" fill="#000000"> </text>
<polyline fill="none" stroke="#bfbfbf" points="231.5,-388.5 281.5,-388.5 "/>
<text text-anchor="middle" x="256.5" y="-376.5" font-family="Helvetica,sans-Serif" font-size="10.00" fill="#000000"> </text>
</g>
<!-- Node9&#45;&gt;Node6 -->
<g id="edge3" class="edge">
<title>Node9&#45;&gt;Node6</title>
<path fill="none" stroke="#404040" d="M262.125,-369.3606C266.872,-350.3717 275.094,-325.6192 288.5,-307 323.0592,-259.0018 375.6843,-218.1981 419.4804,-189.484"/>
<polygon fill="none" stroke="#404040" points="419.7431,-189.3147 422.6194,-182.702 429.8296,-182.8137 426.9534,-189.4264 419.7431,-189.3147"/>
<text text-anchor="middle" x="335.5" y="-343" font-family="Helvetica,sans-Serif" font-size="10.00" fill="#000000"> #mTimeUnit</text>
<text text-anchor="middle" x="335.5" y="-332" font-family="Helvetica,sans-Serif" font-size="10.00" fill="#000000">#mEnergyUnit</text>
<text text-anchor="middle" x="335.5" y="-321" font-family="Helvetica,sans-Serif" font-size="10.00" fill="#000000">#mPositionUnit</text>
<text text-anchor="middle" x="335.5" y="-310" font-family="Helvetica,sans-Serif" font-size="10.00" fill="#000000">#mMomentumUnit</text>
</g>
<!-- Node10 -->
<g id="node5" class="node">
<title>Node10</title>
<polygon fill="none" stroke="#bfbfbf" points="299.5,-369.5 299.5,-426.5 427.5,-426.5 427.5,-369.5 299.5,-369.5"/>
<text text-anchor="middle" x="363.5" y="-414.5" font-family="Helvetica,sans-Serif" font-size="10.00" fill="#000000">vector&lt; DeepTrigger &gt;</text>
<polyline fill="none" stroke="#bfbfbf" points="299.5,-407.5 427.5,-407.5 "/>
<text text-anchor="middle" x="363.5" y="-395.5" font-family="Helvetica,sans-Serif" font-size="10.00" fill="#000000"> </text>
<polyline fill="none" stroke="#bfbfbf" points="299.5,-388.5 427.5,-388.5 "/>
<text text-anchor="middle" x="363.5" y="-376.5" font-family="Helvetica,sans-Serif" font-size="10.00" fill="#000000"> </text>
</g>
<!-- Node10&#45;&gt;Node6 -->
<g id="edge4" class="edge">
<title>Node10&#45;&gt;Node6</title>
<path fill="none" stroke="#404040" d="M377.3818,-369.1555C386.1254,-351.1832 397.7536,-327.6339 408.5,-307 413.5192,-297.3626 418.7636,-287.4391 424.0862,-277.4728"/>
<polygon fill="none" stroke="#404040" points="424.2165,-277.2295 423.5255,-270.0516 429.8856,-266.653 430.5765,-273.8309 424.2165,-277.2295"/>
<text text-anchor="middle" x="451" y="-326.5" font-family="Helvetica,sans-Serif" font-size="10.00" fill="#000000"> #mDeepTriggers</text>
</g>
<!-- Node11 -->
<g id="node6" class="node">
<title>Node11</title>
<polygon fill="none" stroke="#bfbfbf" points="446,-369.5 446,-426.5 549,-426.5 549,-369.5 446,-369.5"/>
<text text-anchor="middle" x="497.5" y="-414.5" font-family="Helvetica,sans-Serif" font-size="10.00" fill="#000000">vector&lt; Trigger &gt;</text>
<polyline fill="none" stroke="#bfbfbf" points="446,-407.5 549,-407.5 "/>
<text text-anchor="middle" x="497.5" y="-395.5" font-family="Helvetica,sans-Serif" font-size="10.00" fill="#000000"> </text>
<polyline fill="none" stroke="#bfbfbf" points="446,-388.5 549,-388.5 "/>
<text text-anchor="middle" x="497.5" y="-376.5" font-family="Helvetica,sans-Serif" font-size="10.00" fill="#000000"> </text>
</g>
<!-- Node11&#45;&gt;Node6 -->
<g id="edge5" class="edge">
<title>Node11&#45;&gt;Node6</title>
<path fill="none" stroke="#404040" d="M497.5,-369.4131C497.5,-351.6154 497.5,-327.1643 497.5,-300.9149"/>
<polygon fill="none" stroke="#404040" points="497.5001,-300.7452 493.5,-294.7452 497.5,-288.7452 501.5,-294.7452 497.5001,-300.7452"/>
<text text-anchor="middle" x="527.5" y="-326.5" font-family="Helvetica,sans-Serif" font-size="10.00" fill="#000000"> #mTriggers</text>
</g>
<!-- Node12 -->
<g id="node7" class="node">
<title>Node12</title>
<polygon fill="none" stroke="#bfbfbf" points="567.5,-369.5 567.5,-426.5 627.5,-426.5 627.5,-369.5 567.5,-369.5"/>
<text text-anchor="middle" x="597.5" y="-414.5" font-family="Helvetica,sans-Serif" font-size="10.00" fill="#000000">Double_t</text>
<polyline fill="none" stroke="#bfbfbf" points="567.5,-407.5 627.5,-407.5 "/>
<text text-anchor="middle" x="597.5" y="-395.5" font-family="Helvetica,sans-Serif" font-size="10.00" fill="#000000"> </text>
<polyline fill="none" stroke="#bfbfbf" points="567.5,-388.5 627.5,-388.5 "/>
<text text-anchor="middle" x="597.5" y="-376.5" font-family="Helvetica,sans-Serif" font-size="10.00" fill="#000000"> </text>
</g>
<!-- Node12&#45;&gt;Node6 -->
<g id="edge6" class="edge">
<title>Node12&#45;&gt;Node6</title>
<path fill="none" stroke="#404040" d="M586.2231,-369.4131C579.1391,-351.455 569.3829,-326.7232 558.9221,-300.205"/>
<polygon fill="none" stroke="#404040" points="558.805,-299.908 552.8823,-295.7945 554.4015,-288.7452 560.3242,-292.8588 558.805,-299.908"/>
<text text-anchor="middle" x="602" y="-326.5" font-family="Helvetica,sans-Serif" font-size="10.00" fill="#000000"> #mBoost</text>
</g>
<!-- Node13 -->
<g id="node8" class="node">
<title>Node13</title>
<polygon fill="none" stroke="#bfbfbf" points="646,-369.5 646,-426.5 675,-426.5 675,-369.5 646,-369.5"/>
<text text-anchor="middle" x="660.5" y="-414.5" font-family="Helvetica,sans-Serif" font-size="10.00" fill="#000000">int</text>
<polyline fill="none" stroke="#bfbfbf" points="646,-407.5 675,-407.5 "/>
<text text-anchor="middle" x="660.5" y="-395.5" font-family="Helvetica,sans-Serif" font-size="10.00" fill="#000000"> </text>
<polyline fill="none" stroke="#bfbfbf" points="646,-388.5 675,-388.5 "/>
<text text-anchor="middle" x="660.5" y="-376.5" font-family="Helvetica,sans-Serif" font-size="10.00" fill="#000000"> </text>
</g>
<!-- Node13&#45;&gt;Node6 -->
<g id="edge7" class="edge">
<title>Node13&#45;&gt;Node6</title>
<path fill="none" stroke="#404040" d="M653.9738,-369.4216C649.061,-350.9144 641.3094,-326.6846 630.5,-307 614.7846,-278.3812 593.7875,-249.8984 573.1274,-224.9591"/>
<polygon fill="none" stroke="#404040" points="572.9631,-224.7638 566.0395,-222.7478 565.2375,-215.5815 572.1611,-217.5974 572.9631,-224.7638"/>
<text text-anchor="middle" x="694.5" y="-326.5" font-family="Helvetica,sans-Serif" font-size="10.00" fill="#000000"> #mInterfaceName</text>
</g>
<!-- Node14 -->
<g id="node9" class="node">
<title>Node14</title>
<polygon fill="none" stroke="#bfbfbf" points="728,-369.5 728,-426.5 819,-426.5 819,-369.5 728,-369.5"/>
<text text-anchor="middle" x="773.5" y="-414.5" font-family="Helvetica,sans-Serif" font-size="10.00" fill="#000000">ETriggerMode_t</text>
<polyline fill="none" stroke="#bfbfbf" points="728,-407.5 819,-407.5 "/>
<text text-anchor="middle" x="773.5" y="-395.5" font-family="Helvetica,sans-Serif" font-size="10.00" fill="#000000"> </text>
<polyline fill="none" stroke="#bfbfbf" points="728,-388.5 819,-388.5 "/>
<text text-anchor="middle" x="773.5" y="-376.5" font-family="Helvetica,sans-Serif" font-size="10.00" fill="#000000"> </text>
</g>
<!-- Node14&#45;&gt;Node6 -->
<g id="edge8" class="edge">
<title>Node14&#45;&gt;Node6</title>
<path fill="none" stroke="#404040" d="M769.8739,-369.4429C766.2725,-350.2524 759.2069,-325.2333 745.5,-307 701.8766,-248.9711 631.0493,-205.5603 576.2321,-178.2732"/>
<polygon fill="none" stroke="#404040" points="575.9293,-178.1255 568.7829,-179.0895 565.1445,-172.8635 572.2909,-171.8996 575.9293,-178.1255"/>
<text text-anchor="middle" x="805" y="-326.5" font-family="Helvetica,sans-Serif" font-size="10.00" fill="#000000"> #mTriggerMode</text>
</g>
<!-- Node15 -->
<g id="node10" class="node">
<title>Node15</title>
<polygon fill="none" stroke="#bfbfbf" points="854.5,-369.5 854.5,-426.5 900.5,-426.5 900.5,-369.5 854.5,-369.5"/>
<text text-anchor="middle" x="877.5" y="-414.5" font-family="Helvetica,sans-Serif" font-size="10.00" fill="#000000">void *</text>
<polyline fill="none" stroke="#bfbfbf" points="854.5,-407.5 900.5,-407.5 "/>
<text text-anchor="middle" x="877.5" y="-395.5" font-family="Helvetica,sans-Serif" font-size="10.00" fill="#000000"> </text>
<polyline fill="none" stroke="#bfbfbf" points="854.5,-388.5 900.5,-388.5 "/>
<text text-anchor="middle" x="877.5" y="-376.5" font-family="Helvetica,sans-Serif" font-size="10.00" fill="#000000"> </text>
</g>
<!-- Node15&#45;&gt;Node6 -->
<g id="edge9" class="edge">
<title>Node15&#45;&gt;Node6</title>
<path fill="none" stroke="#404040" d="M874.7764,-369.1902C871.5776,-349.6394 864.6224,-324.2978 849.5,-307 778.0758,-225.3013 657.0035,-182.0558 577.1463,-161.233"/>
<polygon fill="none" stroke="#404040" points="576.8182,-161.1499 570.0192,-163.5529 565.1861,-158.2013 571.985,-155.7982 576.8182,-161.1499"/>
<text text-anchor="middle" x="903" y="-326.5" font-family="Helvetica,sans-Serif" font-size="10.00" fill="#000000"> #mInterface</text>
</g>
</g>
</svg>
        <g id="navigator" transform="translate(0 0)" fill="#404254">
                <rect fill="#f2f5e9" fill-opacity="0.5" stroke="#606060" stroke-width=".5" x="0" y="0" width="60" height="60"/>
                <use id="zoomplus" xlink:href="#zoomPlus" x="17" y="9" onmousedown="handleZoom(evt,'in')"/>
                <use id="zoomminus" xlink:href="#zoomMin" x="42" y="9" onmousedown="handleZoom(evt,'out')"/>
                <use id="reset" xlink:href="#resetDef" x="30" y="36" onmousedown="handleReset()"/>
                <g id="arrowUp" xlink:href="#dirArrow" transform="translate(30 24)" onmousedown="handlePan(0,-1)">
                  <use xlink:href="#rim" fill="#404040">
                        <set attributeName="fill" to="#808080" begin="arrowUp.mouseover" end="arrowUp.mouseout"/>
                  </use>
                  <path fill="none" stroke="white" stroke-width="1.5" d="M0,-3.0v7 M-2.5,-0.5L0,-3.0L2.5,-0.5"/>
                </g>
                <g id="arrowRight" xlink:href="#dirArrow" transform="rotate(90) translate(36 -43)" onmousedown="handlePan(1,0)">
                  <use xlink:href="#rim" fill="#404040">
                        <set attributeName="fill" to="#808080" begin="arrowRight.mouseover" end="arrowRight.mouseout"/>
                  </use>
                  <path fill="none" stroke="white" stroke-width="1.5" d="M0,-3.0v7 M-2.5,-0.5L0,-3.0L2.5,-0.5"/>
                </g>
                <g id="arrowDown" xlink:href="#dirArrow" transform="rotate(180) translate(-30 -48)" onmousedown="handlePan(0,1)">
                  <use xlink:href="#rim" fill="#404040">
                        <set attributeName="fill" to="#808080" begin="arrowDown.mouseover" end="arrowDown.mouseout"/>
                  </use>
                  <path fill="none" stroke="white" stroke-width="1.5" d="M0,-3.0v7 M-2.5,-0.5L0,-3.0L2.5,-0.5"/>
                </g>
                <g id="arrowLeft" xlink:href="#dirArrow" transform="rotate(270) translate(-36 17)" onmousedown="handlePan(-1,0)">
                  <use xlink:href="#rim" fill="#404040">
                        <set attributeName="fill" to="#808080" begin="arrowLeft.mouseover" end="arrowLeft.mouseout"/>
                  </use>
                  <path fill="none" stroke="white" stroke-width="1.5" d="M0,-3.0v7 M-2.5,-0.5L0,-3.0L2.5,-0.5"/>
                </g>
        </g>
        <svg viewBox="0 0 15 15" width="100%" height="30px" preserveAspectRatio="xMaxYMin meet">
         <g id="arrow_out" transform="scale(0.3 0.3)">
          <a xlink:href="classo2_1_1eventgen_1_1Generator__coll__graph_org.svg" target="_base">
           <rect id="button" ry="5" rx="5" y="6" x="6" height="38" width="38"
                fill="#f2f5e9" fill-opacity="0.5" stroke="#606060" stroke-width="1.0"/>
           <path id="arrow"
             d="M 11.500037,31.436501 C 11.940474,20.09759 22.043105,11.32322 32.158766,21.979434 L 37.068811,17.246167 C 37.068811,17.246167 37.088388,32 37.088388,32 L 22.160133,31.978069 C 22.160133,31.978069 26.997745,27.140456 26.997745,27.140456 C 18.528582,18.264221 13.291696,25.230495 11.500037,31.436501 z"
             style="fill:#404040;"/>
          </a>
         </g>
        </svg>
</svg>
