<?xml version="1.0" encoding="UTF-8" standalone="no"?>
<!DOCTYPE svg PUBLIC "-//W3C//DTD SVG 1.1//EN"
 "http://www.w3.org/Graphics/SVG/1.1/DTD/svg11.dtd">
<!-- Generated by graphviz version 2.40.1 (20161225.0304)
 -->
<!-- Title: o2::eventgen::GeneratorHepMC Pages: 1 -->
<!--zoomable 661 -->
<svg id="main" version="1.1" xmlns="http://www.w3.org/2000/svg" xmlns:xlink="http://www.w3.org/1999/xlink" xml:space="preserve" onload="init(evt)">
<style type="text/css"><![CDATA[
.edge:hover path { stroke: red; }
.edge:hover polygon { stroke: red; fill: red; }
]]></style>
<script type="text/javascript"><![CDATA[
var edges = document.getElementsByTagName('g');
if (edges && edges.length) {
  for (var i=0;i<edges.length;i++) {
    if (edges[i].id.substr(0,4)=='edge') {
      edges[i].setAttribute('class','edge');
    }
  }
}
]]></script>
        <defs>
                <circle id="rim" cx="0" cy="0" r="7"/>
                <circle id="rim2" cx="0" cy="0" r="3.5"/>
                <g id="zoomPlus">
                        <use xlink:href="#rim" fill="#404040">
                                <set attributeName="fill" to="#808080" begin="zoomplus.mouseover" end="zoomplus.mouseout"/>
                        </use>
                        <path d="M-4,0h8M0,-4v8" fill="none" stroke="white" stroke-width="1.5" pointer-events="none"/>
                </g>
                <g id="zoomMin">
                        <use xlink:href="#rim" fill="#404040">
                                <set attributeName="fill" to="#808080" begin="zoomminus.mouseover" end="zoomminus.mouseout"/>
                        </use>
                        <path d="M-4,0h8" fill="none" stroke="white" stroke-width="1.5" pointer-events="none"/>
                </g>
                <g id="dirArrow">
                        <path fill="none" stroke="white" stroke-width="1.5" d="M0,-3.0v7 M-2.5,-0.5L0,-3.0L2.5,-0.5"/>
                </g>
               <g id="resetDef">
                       <use xlink:href="#rim2" fill="#404040">
                               <set attributeName="fill" to="#808080" begin="reset.mouseover" end="reset.mouseout"/>
                       </use>
               </g>
        </defs>

<script type="text/javascript">
var viewWidth = 1323;
var viewHeight = 661;
var sectionId = 'dynsection-1';
</script>
<script xlink:href="../../svgpan.js"/>
<svg id="graph" class="graph">
<g id="viewport">
<title>o2::eventgen::GeneratorHepMC</title>
<!-- Node3 -->
<g id="node1" class="node">
<title>Node3</title>
<polygon fill="#bfbfbf" stroke="#000000" points="1015,-.5 1015,-178.5 1185,-178.5 1185,-.5 1015,-.5"/>
<text text-anchor="middle" x="1100" y="-166.5" font-family="Helvetica,sans-Serif" font-size="10.00" fill="#000000">o2::eventgen::GeneratorHepMC</text>
<polyline fill="none" stroke="#000000" points="1015,-159.5 1185,-159.5 "/>
<text text-anchor="middle" x="1100" y="-147.5" font-family="Helvetica,sans-Serif" font-size="10.00" fill="#000000"> </text>
<polyline fill="none" stroke="#000000" points="1015,-140.5 1185,-140.5 "/>
<text text-anchor="start" x="1023" y="-128.5" font-family="Helvetica,sans-Serif" font-size="10.00" fill="#000000">+ GeneratorHepMC()</text>
<text text-anchor="start" x="1023" y="-117.5" font-family="Helvetica,sans-Serif" font-size="10.00" fill="#000000">+ GeneratorHepMC()</text>
<text text-anchor="start" x="1023" y="-106.5" font-family="Helvetica,sans-Serif" font-size="10.00" fill="#000000">+ ~GeneratorHepMC()</text>
<text text-anchor="start" x="1023" y="-95.5" font-family="Helvetica,sans-Serif" font-size="10.00" fill="#000000">+ Init()</text>
<text text-anchor="start" x="1023" y="-84.5" font-family="Helvetica,sans-Serif" font-size="10.00" fill="#000000">+ setVersion()</text>
<text text-anchor="start" x="1023" y="-73.5" font-family="Helvetica,sans-Serif" font-size="10.00" fill="#000000">+ setFileName()</text>
<text text-anchor="start" x="1023" y="-62.5" font-family="Helvetica,sans-Serif" font-size="10.00" fill="#000000"># GeneratorHepMC()</text>
<text text-anchor="start" x="1023" y="-51.5" font-family="Helvetica,sans-Serif" font-size="10.00" fill="#000000"># operator=()</text>
<text text-anchor="start" x="1023" y="-40.5" font-family="Helvetica,sans-Serif" font-size="10.00" fill="#000000"># generateEvent()</text>
<text text-anchor="start" x="1023" y="-29.5" font-family="Helvetica,sans-Serif" font-size="10.00" fill="#000000"># importParticles()</text>
<text text-anchor="start" x="1023" y="-18.5" font-family="Helvetica,sans-Serif" font-size="10.00" fill="#000000"># getBoostedVector()</text>
<text text-anchor="start" x="1023" y="-7.5" font-family="Helvetica,sans-Serif" font-size="10.00" fill="#000000"># ClassDefOverride()</text>
</g>
<!-- Node4 -->
<g id="node2" class="node">
<title>Node4</title>
<g id="a_node2"><a xlink:href="../../d3/da7/classo2_1_1eventgen_1_1Generator.html" target="_top" xlink:title="{o2::eventgen::Generator\n||+ Generator()\l+ Generator()\l+ ~Generator()\l+ Init()\l+ ReadEvent()\l+ setMomentumUnit()\l+ setEnergyUnit()\l+ setPositionUnit()\l+ setTimeUnit()\l+ setBoost()\l+ setTriggerMode()\l+ addTrigger()\l+ addDeepTrigger()\l+ notifyEmbedding()\l# Generator()\l# operator=()\l# generateEvent()\l# importParticles()\l# addTracks()\l# boostEvent()\l# triggerEvent()\l# ClassDefOverride()\l}">
<polygon fill="none" stroke="#000000" points="473.5,-226.5 473.5,-514.5 608.5,-514.5 608.5,-226.5 473.5,-226.5"/>
<text text-anchor="middle" x="541" y="-502.5" font-family="Helvetica,sans-Serif" font-size="10.00" fill="#000000">o2::eventgen::Generator</text>
<polyline fill="none" stroke="#000000" points="473.5,-495.5 608.5,-495.5 "/>
<text text-anchor="middle" x="541" y="-483.5" font-family="Helvetica,sans-Serif" font-size="10.00" fill="#000000"> </text>
<polyline fill="none" stroke="#000000" points="473.5,-476.5 608.5,-476.5 "/>
<text text-anchor="start" x="481.5" y="-464.5" font-family="Helvetica,sans-Serif" font-size="10.00" fill="#000000">+ Generator()</text>
<text text-anchor="start" x="481.5" y="-453.5" font-family="Helvetica,sans-Serif" font-size="10.00" fill="#000000">+ Generator()</text>
<text text-anchor="start" x="481.5" y="-442.5" font-family="Helvetica,sans-Serif" font-size="10.00" fill="#000000">+ ~Generator()</text>
<text text-anchor="start" x="481.5" y="-431.5" font-family="Helvetica,sans-Serif" font-size="10.00" fill="#000000">+ Init()</text>
<text text-anchor="start" x="481.5" y="-420.5" font-family="Helvetica,sans-Serif" font-size="10.00" fill="#000000">+ ReadEvent()</text>
<text text-anchor="start" x="481.5" y="-409.5" font-family="Helvetica,sans-Serif" font-size="10.00" fill="#000000">+ setMomentumUnit()</text>
<text text-anchor="start" x="481.5" y="-398.5" font-family="Helvetica,sans-Serif" font-size="10.00" fill="#000000">+ setEnergyUnit()</text>
<text text-anchor="start" x="481.5" y="-387.5" font-family="Helvetica,sans-Serif" font-size="10.00" fill="#000000">+ setPositionUnit()</text>
<text text-anchor="start" x="481.5" y="-376.5" font-family="Helvetica,sans-Serif" font-size="10.00" fill="#000000">+ setTimeUnit()</text>
<text text-anchor="start" x="481.5" y="-365.5" font-family="Helvetica,sans-Serif" font-size="10.00" fill="#000000">+ setBoost()</text>
<text text-anchor="start" x="481.5" y="-354.5" font-family="Helvetica,sans-Serif" font-size="10.00" fill="#000000">+ setTriggerMode()</text>
<text text-anchor="start" x="481.5" y="-343.5" font-family="Helvetica,sans-Serif" font-size="10.00" fill="#000000">+ addTrigger()</text>
<text text-anchor="start" x="481.5" y="-332.5" font-family="Helvetica,sans-Serif" font-size="10.00" fill="#000000">+ addDeepTrigger()</text>
<text text-anchor="start" x="481.5" y="-321.5" font-family="Helvetica,sans-Serif" font-size="10.00" fill="#000000">+ notifyEmbedding()</text>
<text text-anchor="start" x="481.5" y="-310.5" font-family="Helvetica,sans-Serif" font-size="10.00" fill="#000000"># Generator()</text>
<text text-anchor="start" x="481.5" y="-299.5" font-family="Helvetica,sans-Serif" font-size="10.00" fill="#000000"># operator=()</text>
<text text-anchor="start" x="481.5" y="-288.5" font-family="Helvetica,sans-Serif" font-size="10.00" fill="#000000"># generateEvent()</text>
<text text-anchor="start" x="481.5" y="-277.5" font-family="Helvetica,sans-Serif" font-size="10.00" fill="#000000"># importParticles()</text>
<text text-anchor="start" x="481.5" y="-266.5" font-family="Helvetica,sans-Serif" font-size="10.00" fill="#000000"># addTracks()</text>
<text text-anchor="start" x="481.5" y="-255.5" font-family="Helvetica,sans-Serif" font-size="10.00" fill="#000000"># boostEvent()</text>
<text text-anchor="start" x="481.5" y="-244.5" font-family="Helvetica,sans-Serif" font-size="10.00" fill="#000000"># triggerEvent()</text>
<text text-anchor="start" x="481.5" y="-233.5" font-family="Helvetica,sans-Serif" font-size="10.00" fill="#000000"># ClassDefOverride()</text>
</a>
</g>
</g>
<!-- Node4&#45;&gt;Node3 -->
<g id="edge1" class="edge">
<title>Node4&#45;&gt;Node3</title>
<path fill="none" stroke="#191970" d="M617.8906,-331.8484C721.8058,-279.6119 906.4811,-186.7787 1014.603,-132.4277"/>
<polygon fill="none" stroke="#191970" points="616.0695,-328.8464 608.7068,-336.4649 619.2134,-335.1007 616.0695,-328.8464"/>
</g>
<!-- Node5 -->
<g id="node3" class="node">
<title>Node5</title>
<g id="a_node3"><a xlink:href="../../df/d40/classFairGenerator.html" target="_top" xlink:title="{FairGenerator\n||}">
<polygon fill="none" stroke="#000000" points="544.5,-595.5 544.5,-652.5 627.5,-652.5 627.5,-595.5 544.5,-595.5"/>
<text text-anchor="middle" x="586" y="-640.5" font-family="Helvetica,sans-Serif" font-size="10.00" fill="#000000">FairGenerator</text>
<polyline fill="none" stroke="#000000" points="544.5,-633.5 627.5,-633.5 "/>
<text text-anchor="middle" x="586" y="-621.5" font-family="Helvetica,sans-Serif" font-size="10.00" fill="#000000"> </text>
<polyline fill="none" stroke="#000000" points="544.5,-614.5 627.5,-614.5 "/>
<text text-anchor="middle" x="586" y="-602.5" font-family="Helvetica,sans-Serif" font-size="10.00" fill="#000000"> </text>
</a>
</g>
</g>
<!-- Node5&#45;&gt;Node4 -->
<g id="edge2" class="edge">
<title>Node5&#45;&gt;Node4</title>
<path fill="none" stroke="#191970" d="M579.1557,-585.4435C575.6878,-565.9081 571.2362,-540.8306 566.6057,-514.7452"/>
<polygon fill="none" stroke="#191970" points="575.7314,-586.1788 580.9254,-595.4131 582.6236,-584.9553 575.7314,-586.1788"/>
</g>
<!-- Node6 -->
<g id="node4" class="node">
<title>Node6</title>
<polygon fill="none" stroke="#bfbfbf" points="0,-595.5 0,-652.5 112,-652.5 112,-595.5 0,-595.5"/>
<text text-anchor="middle" x="56" y="-640.5" font-family="Helvetica,sans-Serif" font-size="10.00" fill="#000000">vector&lt; TParticle &gt;</text>
<polyline fill="none" stroke="#bfbfbf" points="0,-633.5 112,-633.5 "/>
<text text-anchor="middle" x="56" y="-621.5" font-family="Helvetica,sans-Serif" font-size="10.00" fill="#000000"> </text>
<polyline fill="none" stroke="#bfbfbf" points="0,-614.5 112,-614.5 "/>
<text text-anchor="middle" x="56" y="-602.5" font-family="Helvetica,sans-Serif" font-size="10.00" fill="#000000"> </text>
</g>
<!-- Node6&#45;&gt;Node4 -->
<g id="edge3" class="edge">
<title>Node6&#45;&gt;Node4</title>
<path fill="none" stroke="#404040" d="M64.5679,-595.4691C71.8767,-575.5373 84.2281,-549.6195 103,-533 206.3686,-441.4837 365.9217,-399.8251 461.2416,-382.1826"/>
<polygon fill="none" stroke="#404040" points="461.2995,-382.1722 466.497,-377.1736 473.1101,-380.0486 467.9127,-385.0473 461.2995,-382.1722"/>
<text text-anchor="middle" x="134.5" y="-552.5" font-family="Helvetica,sans-Serif" font-size="10.00" fill="#000000"> #mParticles</text>
</g>
<!-- Node7 -->
<g id="node5" class="node">
<title>Node7</title>
<polygon fill="none" stroke="#bfbfbf" points="130,-595.5 130,-652.5 180,-652.5 180,-595.5 130,-595.5"/>
<text text-anchor="middle" x="155" y="-640.5" font-family="Helvetica,sans-Serif" font-size="10.00" fill="#000000">double</text>
<polyline fill="none" stroke="#bfbfbf" points="130,-633.5 180,-633.5 "/>
<text text-anchor="middle" x="155" y="-621.5" font-family="Helvetica,sans-Serif" font-size="10.00" fill="#000000"> </text>
<polyline fill="none" stroke="#bfbfbf" points="130,-614.5 180,-614.5 "/>
<text text-anchor="middle" x="155" y="-602.5" font-family="Helvetica,sans-Serif" font-size="10.00" fill="#000000"> </text>
</g>
<!-- Node7&#45;&gt;Node4 -->
<g id="edge4" class="edge">
<title>Node7&#45;&gt;Node4</title>
<path fill="none" stroke="#404040" d="M162.6306,-595.1152C169.055,-575.5301 179.9741,-550.1782 197,-533 270.7057,-458.6351 385.0315,-414.0589 461.4112,-390.8938"/>
<polygon fill="none" stroke="#404040" points="461.8271,-390.7705 466.4421,-385.2296 473.3318,-387.3585 468.7168,-392.8994 461.8271,-390.7705"/>
<text text-anchor="middle" x="244" y="-569" font-family="Helvetica,sans-Serif" font-size="10.00" fill="#000000"> #mTimeUnit</text>
<text text-anchor="middle" x="244" y="-558" font-family="Helvetica,sans-Serif" font-size="10.00" fill="#000000">#mEnergyUnit</text>
<text text-anchor="middle" x="244" y="-547" font-family="Helvetica,sans-Serif" font-size="10.00" fill="#000000">#mPositionUnit</text>
<text text-anchor="middle" x="244" y="-536" font-family="Helvetica,sans-Serif" font-size="10.00" fill="#000000">#mMomentumUnit</text>
</g>
<!-- Node8 -->
<g id="node6" class="node">
<title>Node8</title>
<polygon fill="none" stroke="#bfbfbf" points="198,-595.5 198,-652.5 326,-652.5 326,-595.5 198,-595.5"/>
<text text-anchor="middle" x="262" y="-640.5" font-family="Helvetica,sans-Serif" font-size="10.00" fill="#000000">vector&lt; DeepTrigger &gt;</text>
<polyline fill="none" stroke="#bfbfbf" points="198,-633.5 326,-633.5 "/>
<text text-anchor="middle" x="262" y="-621.5" font-family="Helvetica,sans-Serif" font-size="10.00" fill="#000000"> </text>
<polyline fill="none" stroke="#bfbfbf" points="198,-614.5 326,-614.5 "/>
<text text-anchor="middle" x="262" y="-602.5" font-family="Helvetica,sans-Serif" font-size="10.00" fill="#000000"> </text>
</g>
<!-- Node8&#45;&gt;Node4 -->
<g id="edge5" class="edge">
<title>Node8&#45;&gt;Node4</title>
<path fill="none" stroke="#404040" d="M280.7633,-595.3899C293.7393,-576.645 312.0271,-552.1599 331,-533 371.3893,-492.2125 422.1703,-452.6583 463.6787,-422.7872"/>
<polygon fill="none" stroke="#404040" points="463.7067,-422.7672 466.2654,-416.0253 473.4728,-415.794 470.9142,-422.536 463.7067,-422.7672"/>
<text text-anchor="middle" x="373.5" y="-552.5" font-family="Helvetica,sans-Serif" font-size="10.00" fill="#000000"> #mDeepTriggers</text>
</g>
<!-- Node9 -->
<g id="node7" class="node">
<title>Node9</title>
<polygon fill="none" stroke="#bfbfbf" points="344.5,-595.5 344.5,-652.5 447.5,-652.5 447.5,-595.5 344.5,-595.5"/>
<text text-anchor="middle" x="396" y="-640.5" font-family="Helvetica,sans-Serif" font-size="10.00" fill="#000000">vector&lt; Trigger &gt;</text>
<polyline fill="none" stroke="#bfbfbf" points="344.5,-633.5 447.5,-633.5 "/>
<text text-anchor="middle" x="396" y="-621.5" font-family="Helvetica,sans-Serif" font-size="10.00" fill="#000000"> </text>
<polyline fill="none" stroke="#bfbfbf" points="344.5,-614.5 447.5,-614.5 "/>
<text text-anchor="middle" x="396" y="-602.5" font-family="Helvetica,sans-Serif" font-size="10.00" fill="#000000"> </text>
</g>
<!-- Node9&#45;&gt;Node4 -->
<g id="edge6" class="edge">
<title>Node9&#45;&gt;Node4</title>
<path fill="none" stroke="#404040" d="M409.3218,-595.3687C417.9472,-577.2707 429.6499,-553.5098 441,-533 449.2102,-518.164 458.1352,-502.7642 467.1608,-487.6191"/>
<polygon fill="none" stroke="#404040" points="467.2465,-487.4762 466.9017,-480.2733 473.4179,-477.1847 473.7627,-484.3876 467.2465,-487.4762"/>
<text text-anchor="middle" x="471" y="-552.5" font-family="Helvetica,sans-Serif" font-size="10.00" fill="#000000"> #mTriggers</text>
</g>
<!-- Node10 -->
<g id="node8" class="node">
<title>Node10</title>
<polygon fill="none" stroke="#bfbfbf" points="466,-595.5 466,-652.5 526,-652.5 526,-595.5 466,-595.5"/>
<text text-anchor="middle" x="496" y="-640.5" font-family="Helvetica,sans-Serif" font-size="10.00" fill="#000000">Double_t</text>
<polyline fill="none" stroke="#bfbfbf" points="466,-633.5 526,-633.5 "/>
<text text-anchor="middle" x="496" y="-621.5" font-family="Helvetica,sans-Serif" font-size="10.00" fill="#000000"> </text>
<polyline fill="none" stroke="#bfbfbf" points="466,-614.5 526,-614.5 "/>
<text text-anchor="middle" x="496" y="-602.5" font-family="Helvetica,sans-Serif" font-size="10.00" fill="#000000"> </text>
</g>
<!-- Node10&#45;&gt;Node4 -->
<g id="edge7" class="edge">
<title>Node10&#45;&gt;Node4</title>
<path fill="none" stroke="#404040" d="M501.0746,-595.4131C504.234,-577.6154 508.5744,-553.1643 513.234,-526.9149"/>
<polygon fill="none" stroke="#404040" points="513.2969,-526.5605 510.4072,-519.9537 515.3943,-514.7452 518.284,-521.352 513.2969,-526.5605"/>
<text text-anchor="middle" x="536.5" y="-552.5" font-family="Helvetica,sans-Serif" font-size="10.00" fill="#000000"> #mBoost</text>
</g>
<!-- Node11 -->
<g id="node9" class="node">
<title>Node11</title>
<polygon fill="none" stroke="#bfbfbf" points="862.5,-595.5 862.5,-652.5 891.5,-652.5 891.5,-595.5 862.5,-595.5"/>
<text text-anchor="middle" x="877" y="-640.5" font-family="Helvetica,sans-Serif" font-size="10.00" fill="#000000">int</text>
<polyline fill="none" stroke="#bfbfbf" points="862.5,-633.5 891.5,-633.5 "/>
<text text-anchor="middle" x="877" y="-621.5" font-family="Helvetica,sans-Serif" font-size="10.00" fill="#000000"> </text>
<polyline fill="none" stroke="#bfbfbf" points="862.5,-614.5 891.5,-614.5 "/>
<text text-anchor="middle" x="877" y="-602.5" font-family="Helvetica,sans-Serif" font-size="10.00" fill="#000000"> </text>
</g>
<!-- Node11&#45;&gt;Node3 -->
<g id="edge13" class="edge">
<title>Node11&#45;&gt;Node3</title>
<path fill="none" stroke="#404040" d="M891.6062,-616.3248C904.9713,-608.4258 923.993,-594.7757 933,-577 968.3308,-507.273 922.7917,-296.7625 956,-226 967.6643,-201.1449 986.0243,-178.5351 1005.7799,-159.1817"/>
<polygon fill="none" stroke="#404040" points="1005.911,-159.0575 1007.5178,-152.0277 1014.6248,-150.807 1013.0181,-157.8369 1005.911,-159.0575"/>
<text text-anchor="middle" x="989.5" y="-368" font-family="Helvetica,sans-Serif" font-size="10.00" fill="#000000"> #mFileName</text>
</g>
<!-- Node11&#45;&gt;Node4 -->
<g id="edge8" class="edge">
<title>Node11&#45;&gt;Node4</title>
<path fill="none" stroke="#404040" d="M862.4385,-607.6459C854.9835,-598.8784 846.024,-587.7025 839,-577 826.8927,-558.552 831.1918,-549.0038 816,-533 760.5844,-474.6226 679.6057,-430.2049 619.8651,-402.6833"/>
<polygon fill="none" stroke="#404040" points="619.5213,-402.5276 612.4051,-403.6937 608.5916,-397.5735 615.7078,-396.4073 619.5213,-402.5276"/>
<text text-anchor="middle" x="886" y="-552.5" font-family="Helvetica,sans-Serif" font-size="10.00" fill="#000000"> #mInterfaceName</text>
</g>
<!-- Node12 -->
<g id="node10" class="node">
<title>Node12</title>
<polygon fill="none" stroke="#bfbfbf" points="645.5,-595.5 645.5,-652.5 736.5,-652.5 736.5,-595.5 645.5,-595.5"/>
<text text-anchor="middle" x="691" y="-640.5" font-family="Helvetica,sans-Serif" font-size="10.00" fill="#000000">ETriggerMode_t</text>
<polyline fill="none" stroke="#bfbfbf" points="645.5,-633.5 736.5,-633.5 "/>
<text text-anchor="middle" x="691" y="-621.5" font-family="Helvetica,sans-Serif" font-size="10.00" fill="#000000"> </text>
<polyline fill="none" stroke="#bfbfbf" points="645.5,-614.5 736.5,-614.5 "/>
<text text-anchor="middle" x="691" y="-602.5" font-family="Helvetica,sans-Serif" font-size="10.00" fill="#000000"> </text>
</g>
<!-- Node12&#45;&gt;Node4 -->
<g id="edge9" class="edge">
<title>Node12&#45;&gt;Node4</title>
<path fill="none" stroke="#404040" d="M661.9725,-595.498C656.682,-589.628 651.4393,-583.3066 647,-577 635.5598,-560.7475 624.5932,-543.0928 614.3425,-525.1792"/>
<polygon fill="none" stroke="#404040" points="614.2794,-525.0671 607.8501,-521.8015 608.3916,-514.6108 614.8209,-517.8763 614.2794,-525.0671"/>
<text text-anchor="middle" x="687.5" y="-552.5" font-family="Helvetica,sans-Serif" font-size="10.00" fill="#000000"> #mTriggerMode</text>
</g>
<!-- Node13 -->
<g id="node11" class="node">
<title>Node13</title>
<polygon fill="none" stroke="#bfbfbf" points="755,-595.5 755,-652.5 801,-652.5 801,-595.5 755,-595.5"/>
<text text-anchor="middle" x="778" y="-640.5" font-family="Helvetica,sans-Serif" font-size="10.00" fill="#000000">void *</text>
<polyline fill="none" stroke="#bfbfbf" points="755,-633.5 801,-633.5 "/>
<text text-anchor="middle" x="778" y="-621.5" font-family="Helvetica,sans-Serif" font-size="10.00" fill="#000000"> </text>
<polyline fill="none" stroke="#bfbfbf" points="755,-614.5 801,-614.5 "/>
<text text-anchor="middle" x="778" y="-602.5" font-family="Helvetica,sans-Serif" font-size="10.00" fill="#000000"> </text>
</g>
<!-- Node13&#45;&gt;Node4 -->
<g id="edge10" class="edge">
<title>Node13&#45;&gt;Node4</title>
<path fill="none" stroke="#404040" d="M761.2544,-595.2694C757.8184,-589.2579 754.2575,-582.9409 751,-577 740.391,-557.6516 741.6772,-550.3161 728,-533 696.6756,-493.3415 654.7113,-455.8549 618.4733,-426.9012"/>
<polygon fill="none" stroke="#404040" points="618.3254,-426.7845 611.1376,-426.2057 608.9073,-419.3481 616.0951,-419.9269 618.3254,-426.7845"/>
<text text-anchor="middle" x="783.5" y="-552.5" font-family="Helvetica,sans-Serif" font-size="10.00" fill="#000000"> #mInterface</text>
</g>
<!-- Node14 -->
<g id="node12" class="node">
<title>Node14</title>
<polygon fill="none" stroke="#bfbfbf" points="1032,-342 1032,-399 1090,-399 1090,-342 1032,-342"/>
<text text-anchor="middle" x="1061" y="-387" font-family="Helvetica,sans-Serif" font-size="10.00" fill="#000000">ifstream</text>
<polyline fill="none" stroke="#bfbfbf" points="1032,-380 1090,-380 "/>
<text text-anchor="middle" x="1061" y="-368" font-family="Helvetica,sans-Serif" font-size="10.00" fill="#000000"> </text>
<polyline fill="none" stroke="#bfbfbf" points="1032,-361 1090,-361 "/>
<text text-anchor="middle" x="1061" y="-349" font-family="Helvetica,sans-Serif" font-size="10.00" fill="#000000"> </text>
</g>
<!-- Node14&#45;&gt;Node3 -->
<g id="edge11" class="edge">
<title>Node14&#45;&gt;Node3</title>
<path fill="none" stroke="#404040" d="M1057.9984,-341.9897C1055.0434,-307.3947 1052.1343,-247.4333 1061,-197 1061.3829,-194.8216 1061.8064,-192.6292 1062.2662,-190.4282"/>
<polygon fill="none" stroke="#404040" points="1062.2994,-190.2867 1059.7792,-183.5303 1065.0465,-178.6054 1067.5667,-185.3617 1062.2994,-190.2867"/>
<text text-anchor="middle" x="1089.5" y="-200" font-family="Helvetica,sans-Serif" font-size="10.00" fill="#000000"> #mStream</text>
</g>
<!-- Node15 -->
<g id="node13" class="node">
<title>Node15</title>
<polygon fill="none" stroke="#bfbfbf" points="1109.5,-342 1109.5,-399 1168.5,-399 1168.5,-342 1109.5,-342"/>
<text text-anchor="middle" x="1139" y="-387" font-family="Helvetica,sans-Serif" font-size="10.00" fill="#000000">Reader *</text>
<polyline fill="none" stroke="#bfbfbf" points="1109.5,-380 1168.5,-380 "/>
<text text-anchor="middle" x="1139" y="-368" font-family="Helvetica,sans-Serif" font-size="10.00" fill="#000000"> </text>
<polyline fill="none" stroke="#bfbfbf" points="1109.5,-361 1168.5,-361 "/>
<text text-anchor="middle" x="1139" y="-349" font-family="Helvetica,sans-Serif" font-size="10.00" fill="#000000"> </text>
</g>
<!-- Node15&#45;&gt;Node3 -->
<g id="edge12" class="edge">
<title>Node15&#45;&gt;Node3</title>
<path fill="none" stroke="#404040" d="M1135.941,-341.8953C1132.1652,-307.4593 1125.3383,-247.9024 1118,-197 1117.703,-194.9398 1117.3983,-192.8581 1117.0871,-190.7607"/>
<polygon fill="none" stroke="#404040" points="1117.0443,-190.4787 1112.1885,-185.1475 1115.242,-178.6148 1120.0978,-183.9459 1117.0443,-190.4787"/>
<text text-anchor="middle" x="1146.5" y="-200" font-family="Helvetica,sans-Serif" font-size="10.00" fill="#000000"> #mReader</text>
</g>
<!-- Node16 -->
<g id="node14" class="node">
<title>Node16</title>
<polygon fill="none" stroke="#bfbfbf" points="1187,-342 1187,-399 1259,-399 1259,-342 1187,-342"/>
<text text-anchor="middle" x="1223" y="-387" font-family="Helvetica,sans-Serif" font-size="10.00" fill="#000000">GenEvent *</text>
<polyline fill="none" stroke="#bfbfbf" points="1187,-380 1259,-380 "/>
<text text-anchor="middle" x="1223" y="-368" font-family="Helvetica,sans-Serif" font-size="10.00" fill="#000000"> </text>
<polyline fill="none" stroke="#bfbfbf" points="1187,-361 1259,-361 "/>
<text text-anchor="middle" x="1223" y="-349" font-family="Helvetica,sans-Serif" font-size="10.00" fill="#000000"> </text>
</g>
<!-- Node16&#45;&gt;Node3 -->
<g id="edge14" class="edge">
<title>Node16&#45;&gt;Node3</title>
<path fill="none" stroke="#404040" d="M1218.9192,-341.7367C1213.1527,-306.3721 1200.7004,-245.1271 1178,-197 1176.7758,-194.4045 1175.4863,-191.8074 1174.1407,-189.2148"/>
<polygon fill="none" stroke="#404040" points="1174.0883,-189.1193 1167.6955,-185.7828 1168.3167,-178.5985 1174.7095,-181.935 1174.0883,-189.1193"/>
<text text-anchor="middle" x="1205.5" y="-200" font-family="Helvetica,sans-Serif" font-size="10.00" fill="#000000"> #mEvent</text>
</g>
<!-- Node17 -->
<g id="node15" class="node">
<title>Node17</title>
<polygon fill="none" stroke="#bfbfbf" points="1277,-342 1277,-399 1315,-399 1315,-342 1277,-342"/>
<text text-anchor="middle" x="1296" y="-387" font-family="Helvetica,sans-Serif" font-size="10.00" fill="#000000">Int_t</text>
<polyline fill="none" stroke="#bfbfbf" points="1277,-380 1315,-380 "/>
<text text-anchor="middle" x="1296" y="-368" font-family="Helvetica,sans-Serif" font-size="10.00" fill="#000000"> </text>
<polyline fill="none" stroke="#bfbfbf" points="1277,-361 1315,-361 "/>
<text text-anchor="middle" x="1296" y="-349" font-family="Helvetica,sans-Serif" font-size="10.00" fill="#000000"> </text>
</g>
<!-- Node17&#45;&gt;Node3 -->
<g id="edge15" class="edge">
<title>Node17&#45;&gt;Node3</title>
<path fill="none" stroke="#404040" d="M1295.9309,-341.9527C1294.6664,-311.322 1289.1133,-262.2005 1268,-226 1250.1322,-195.3641 1222.6071,-168.7655 1194.9731,-147.3909"/>
<polygon fill="none" stroke="#404040" points="1194.8013,-147.2617 1187.6017,-146.8532 1185.2098,-140.0503 1192.4093,-140.4589 1194.8013,-147.2617"/>
<text text-anchor="middle" x="1284" y="-200" font-family="Helvetica,sans-Serif" font-size="10.00" fill="#000000"> #mVersion</text>
</g>
</g>
</svg>
        <g id="navigator" transform="translate(0 0)" fill="#404254">
                <rect fill="#f2f5e9" fill-opacity="0.5" stroke="#606060" stroke-width=".5" x="0" y="0" width="60" height="60"/>
                <use id="zoomplus" xlink:href="#zoomPlus" x="17" y="9" onmousedown="handleZoom(evt,'in')"/>
                <use id="zoomminus" xlink:href="#zoomMin" x="42" y="9" onmousedown="handleZoom(evt,'out')"/>
                <use id="reset" xlink:href="#resetDef" x="30" y="36" onmousedown="handleReset()"/>
                <g id="arrowUp" xlink:href="#dirArrow" transform="translate(30 24)" onmousedown="handlePan(0,-1)">
                  <use xlink:href="#rim" fill="#404040">
                        <set attributeName="fill" to="#808080" begin="arrowUp.mouseover" end="arrowUp.mouseout"/>
                  </use>
                  <path fill="none" stroke="white" stroke-width="1.5" d="M0,-3.0v7 M-2.5,-0.5L0,-3.0L2.5,-0.5"/>
                </g>
                <g id="arrowRight" xlink:href="#dirArrow" transform="rotate(90) translate(36 -43)" onmousedown="handlePan(1,0)">
                  <use xlink:href="#rim" fill="#404040">
                        <set attributeName="fill" to="#808080" begin="arrowRight.mouseover" end="arrowRight.mouseout"/>
                  </use>
                  <path fill="none" stroke="white" stroke-width="1.5" d="M0,-3.0v7 M-2.5,-0.5L0,-3.0L2.5,-0.5"/>
                </g>
                <g id="arrowDown" xlink:href="#dirArrow" transform="rotate(180) translate(-30 -48)" onmousedown="handlePan(0,1)">
                  <use xlink:href="#rim" fill="#404040">
                        <set attributeName="fill" to="#808080" begin="arrowDown.mouseover" end="arrowDown.mouseout"/>
                  </use>
                  <path fill="none" stroke="white" stroke-width="1.5" d="M0,-3.0v7 M-2.5,-0.5L0,-3.0L2.5,-0.5"/>
                </g>
                <g id="arrowLeft" xlink:href="#dirArrow" transform="rotate(270) translate(-36 17)" onmousedown="handlePan(-1,0)">
                  <use xlink:href="#rim" fill="#404040">
                        <set attributeName="fill" to="#808080" begin="arrowLeft.mouseover" end="arrowLeft.mouseout"/>
                  </use>
                  <path fill="none" stroke="white" stroke-width="1.5" d="M0,-3.0v7 M-2.5,-0.5L0,-3.0L2.5,-0.5"/>
                </g>
        </g>
        <svg viewBox="0 0 15 15" width="100%" height="30px" preserveAspectRatio="xMaxYMin meet">
         <g id="arrow_out" transform="scale(0.3 0.3)">
          <a xlink:href="classo2_1_1eventgen_1_1GeneratorHepMC__coll__graph_org.svg" target="_base">
           <rect id="button" ry="5" rx="5" y="6" x="6" height="38" width="38"
                fill="#f2f5e9" fill-opacity="0.5" stroke="#606060" stroke-width="1.0"/>
           <path id="arrow"
             d="M 11.500037,31.436501 C 11.940474,20.09759 22.043105,11.32322 32.158766,21.979434 L 37.068811,17.246167 C 37.068811,17.246167 37.088388,32 37.088388,32 L 22.160133,31.978069 C 22.160133,31.978069 26.997745,27.140456 26.997745,27.140456 C 18.528582,18.264221 13.291696,25.230495 11.500037,31.436501 z"
             style="fill:#404040;"/>
          </a>
         </g>
        </svg>
</svg>
