<?xml version="1.0" encoding="UTF-8" standalone="no"?>
<!DOCTYPE svg PUBLIC "-//W3C//DTD SVG 1.1//EN"
 "http://www.w3.org/Graphics/SVG/1.1/DTD/svg11.dtd">
<!-- Generated by graphviz version 2.40.1 (20161225.0304)
 -->
<!-- Title: GPUCA_NAMESPACE::gpu::Spline2DBase&lt; DataT, isConsistentT &gt; Pages: 1 -->
<!--zoomable 1002 -->
<svg id="main" version="1.1" xmlns="http://www.w3.org/2000/svg" xmlns:xlink="http://www.w3.org/1999/xlink" xml:space="preserve" onload="init(evt)">
<style type="text/css"><![CDATA[
.edge:hover path { stroke: red; }
.edge:hover polygon { stroke: red; fill: red; }
]]></style>
<script type="text/javascript"><![CDATA[
var edges = document.getElementsByTagName('g');
if (edges && edges.length) {
  for (var i=0;i<edges.length;i++) {
    if (edges[i].id.substr(0,4)=='edge') {
      edges[i].setAttribute('class','edge');
    }
  }
}
]]></script>
        <defs>
                <circle id="rim" cx="0" cy="0" r="7"/>
                <circle id="rim2" cx="0" cy="0" r="3.5"/>
                <g id="zoomPlus">
                        <use xlink:href="#rim" fill="#404040">
                                <set attributeName="fill" to="#808080" begin="zoomplus.mouseover" end="zoomplus.mouseout"/>
                        </use>
                        <path d="M-4,0h8M0,-4v8" fill="none" stroke="white" stroke-width="1.5" pointer-events="none"/>
                </g>
                <g id="zoomMin">
                        <use xlink:href="#rim" fill="#404040">
                                <set attributeName="fill" to="#808080" begin="zoomminus.mouseover" end="zoomminus.mouseout"/>
                        </use>
                        <path d="M-4,0h8" fill="none" stroke="white" stroke-width="1.5" pointer-events="none"/>
                </g>
                <g id="dirArrow">
                        <path fill="none" stroke="white" stroke-width="1.5" d="M0,-3.0v7 M-2.5,-0.5L0,-3.0L2.5,-0.5"/>
                </g>
               <g id="resetDef">
                       <use xlink:href="#rim2" fill="#404040">
                               <set attributeName="fill" to="#808080" begin="reset.mouseover" end="reset.mouseout"/>
                       </use>
               </g>
        </defs>

<script type="text/javascript">
var viewWidth = 825;
var viewHeight = 1002;
var sectionId = 'dynsection-1';
</script>
<script xlink:href="../../svgpan.js"/>
<svg id="graph" class="graph">
<g id="viewport">
<title>GPUCA_NAMESPACE::gpu::Spline2DBase&lt; DataT, isConsistentT &gt;</title>
<!-- Node3 -->
<g id="node1" class="node">
<title>Node3</title>
<polygon fill="#bfbfbf" stroke="#000000" points="464.5,-.5 464.5,-442.5 613.5,-442.5 613.5,-.5 464.5,-.5"/>
<text text-anchor="start" x="472.5" y="-430.5" font-family="Helvetica,sans-Serif" font-size="10.00" fill="#000000">GPUCA_NAMESPACE::gpu</text>
<text text-anchor="start" x="472.5" y="-419.5" font-family="Helvetica,sans-Serif" font-size="10.00" fill="#000000">::Spline2DBase&lt; DataT,</text>
<text text-anchor="middle" x="539" y="-408.5" font-family="Helvetica,sans-Serif" font-size="10.00" fill="#000000"> isConsistentT &gt;</text>
<polyline fill="none" stroke="#000000" points="464.5,-401.5 613.5,-401.5 "/>
<text text-anchor="middle" x="539" y="-389.5" font-family="Helvetica,sans-Serif" font-size="10.00" fill="#000000"> </text>
<polyline fill="none" stroke="#000000" points="464.5,-382.5 613.5,-382.5 "/>
<text text-anchor="start" x="472.5" y="-370.5" font-family="Helvetica,sans-Serif" font-size="10.00" fill="#000000">+ GPUhd()</text>
<text text-anchor="start" x="472.5" y="-359.5" font-family="Helvetica,sans-Serif" font-size="10.00" fill="#000000">+ Spline2DBase()</text>
<text text-anchor="start" x="472.5" y="-348.5" font-family="Helvetica,sans-Serif" font-size="10.00" fill="#000000">+ Spline2DBase()</text>
<text text-anchor="start" x="472.5" y="-337.5" font-family="Helvetica,sans-Serif" font-size="10.00" fill="#000000">+ operator=()</text>
<text text-anchor="start" x="472.5" y="-326.5" font-family="Helvetica,sans-Serif" font-size="10.00" fill="#000000">+ ~Spline2DBase()</text>
<text text-anchor="start" x="472.5" y="-315.5" font-family="Helvetica,sans-Serif" font-size="10.00" fill="#000000">+ recreate()</text>
<text text-anchor="start" x="472.5" y="-304.5" font-family="Helvetica,sans-Serif" font-size="10.00" fill="#000000">+ recreate()</text>
<text text-anchor="start" x="472.5" y="-293.5" font-family="Helvetica,sans-Serif" font-size="10.00" fill="#000000">+ approximateFunction()</text>
<text text-anchor="start" x="472.5" y="-282.5" font-family="Helvetica,sans-Serif" font-size="10.00" fill="#000000">+ writeToFile()</text>
<text text-anchor="start" x="472.5" y="-271.5" font-family="Helvetica,sans-Serif" font-size="10.00" fill="#000000">+ GPUhd()</text>
<text text-anchor="start" x="472.5" y="-260.5" font-family="Helvetica,sans-Serif" font-size="10.00" fill="#000000">+ GPUhd()</text>
<text text-anchor="start" x="472.5" y="-249.5" font-family="Helvetica,sans-Serif" font-size="10.00" fill="#000000">+ GPUhd()</text>
<text text-anchor="start" x="472.5" y="-238.5" font-family="Helvetica,sans-Serif" font-size="10.00" fill="#000000">+ GPUhd()</text>
<text text-anchor="start" x="472.5" y="-227.5" font-family="Helvetica,sans-Serif" font-size="10.00" fill="#000000">+ GPUhd()</text>
<text text-anchor="start" x="472.5" y="-216.5" font-family="Helvetica,sans-Serif" font-size="10.00" fill="#000000">+ GPUhd()</text>
<text text-anchor="start" x="472.5" y="-205.5" font-family="Helvetica,sans-Serif" font-size="10.00" fill="#000000">+ GPUhd()</text>
<text text-anchor="start" x="472.5" y="-194.5" font-family="Helvetica,sans-Serif" font-size="10.00" fill="#000000">+ GPUhd()</text>
<text text-anchor="start" x="472.5" y="-183.5" font-family="Helvetica,sans-Serif" font-size="10.00" fill="#000000">+ GPUhd()</text>
<text text-anchor="start" x="472.5" y="-172.5" font-family="Helvetica,sans-Serif" font-size="10.00" fill="#000000">+ GPUhd()</text>
<text text-anchor="start" x="472.5" y="-161.5" font-family="Helvetica,sans-Serif" font-size="10.00" fill="#000000">+ GPUhd()</text>
<text text-anchor="start" x="472.5" y="-150.5" font-family="Helvetica,sans-Serif" font-size="10.00" fill="#000000">+ GPUhd()</text>
<text text-anchor="start" x="472.5" y="-139.5" font-family="Helvetica,sans-Serif" font-size="10.00" fill="#000000">+ GPUhd()</text>
<text text-anchor="start" x="472.5" y="-128.5" font-family="Helvetica,sans-Serif" font-size="10.00" fill="#000000">+ GPUhd()</text>
<text text-anchor="start" x="472.5" y="-117.5" font-family="Helvetica,sans-Serif" font-size="10.00" fill="#000000">+ GPUhd()</text>
<text text-anchor="start" x="472.5" y="-106.5" font-family="Helvetica,sans-Serif" font-size="10.00" fill="#000000">+ GPUhd()</text>
<text text-anchor="start" x="472.5" y="-95.5" font-family="Helvetica,sans-Serif" font-size="10.00" fill="#000000">+ print()</text>
<text text-anchor="start" x="472.5" y="-84.5" font-family="Helvetica,sans-Serif" font-size="10.00" fill="#000000">+ cloneFromObject()</text>
<text text-anchor="start" x="472.5" y="-73.5" font-family="Helvetica,sans-Serif" font-size="10.00" fill="#000000">+ moveBufferTo()</text>
<text text-anchor="start" x="472.5" y="-62.5" font-family="Helvetica,sans-Serif" font-size="10.00" fill="#000000">+ destroy()</text>
<text text-anchor="start" x="472.5" y="-51.5" font-family="Helvetica,sans-Serif" font-size="10.00" fill="#000000">+ setActualBufferAddress()</text>
<text text-anchor="start" x="472.5" y="-40.5" font-family="Helvetica,sans-Serif" font-size="10.00" fill="#000000">+ setFutureBufferAddress()</text>
<text text-anchor="start" x="472.5" y="-29.5" font-family="Helvetica,sans-Serif" font-size="10.00" fill="#000000">+ readFromFile()</text>
<text text-anchor="start" x="472.5" y="-18.5" font-family="Helvetica,sans-Serif" font-size="10.00" fill="#000000">+ test()</text>
<text text-anchor="start" x="472.5" y="-7.5" font-family="Helvetica,sans-Serif" font-size="10.00" fill="#000000"># ClassDefNV()</text>
</g>
<!-- Node4 -->
<g id="node2" class="node">
<title>Node4</title>
<g id="a_node2"><a xlink:href="../../dc/d5e/classGPUCA__NAMESPACE_1_1gpu_1_1FlatObject.html" target="_top" xlink:title="GPUCA_GPUCODE. ">
<polygon fill="none" stroke="#000000" points="137,-523.5 137,-877.5 295,-877.5 295,-523.5 137,-523.5"/>
<text text-anchor="start" x="145" y="-865.5" font-family="Helvetica,sans-Serif" font-size="10.00" fill="#000000">GPUCA_NAMESPACE::gpu</text>
<text text-anchor="middle" x="216" y="-854.5" font-family="Helvetica,sans-Serif" font-size="10.00" fill="#000000">::FlatObject</text>
<polyline fill="none" stroke="#000000" points="137,-847.5 295,-847.5 "/>
<text text-anchor="middle" x="216" y="-835.5" font-family="Helvetica,sans-Serif" font-size="10.00" fill="#000000"> </text>
<polyline fill="none" stroke="#000000" points="137,-828.5 295,-828.5 "/>
<text text-anchor="start" x="145" y="-816.5" font-family="Helvetica,sans-Serif" font-size="10.00" fill="#000000">+ FlatObject()</text>
<text text-anchor="start" x="145" y="-805.5" font-family="Helvetica,sans-Serif" font-size="10.00" fill="#000000">+ ~FlatObject()</text>
<text text-anchor="start" x="145" y="-794.5" font-family="Helvetica,sans-Serif" font-size="10.00" fill="#000000">+ FlatObject()</text>
<text text-anchor="start" x="145" y="-783.5" font-family="Helvetica,sans-Serif" font-size="10.00" fill="#000000">+ operator=()</text>
<text text-anchor="start" x="145" y="-772.5" font-family="Helvetica,sans-Serif" font-size="10.00" fill="#000000">+ getFlatBufferSize()</text>
<text text-anchor="start" x="145" y="-761.5" font-family="Helvetica,sans-Serif" font-size="10.00" fill="#000000">+ getFlatBufferPtr()</text>
<text text-anchor="start" x="145" y="-750.5" font-family="Helvetica,sans-Serif" font-size="10.00" fill="#000000">+ isConstructed()</text>
<text text-anchor="start" x="145" y="-739.5" font-family="Helvetica,sans-Serif" font-size="10.00" fill="#000000">+ isBufferInternal()</text>
<text text-anchor="start" x="145" y="-728.5" font-family="Helvetica,sans-Serif" font-size="10.00" fill="#000000">+ adoptInternalBuffer()</text>
<text text-anchor="start" x="145" y="-717.5" font-family="Helvetica,sans-Serif" font-size="10.00" fill="#000000">+ clearInternalBufferPtr()</text>
<text text-anchor="start" x="145" y="-706.5" font-family="Helvetica,sans-Serif" font-size="10.00" fill="#000000">+ printC()</text>
<text text-anchor="start" x="145" y="-695.5" font-family="Helvetica,sans-Serif" font-size="10.00" fill="#000000">+ alignSize()</text>
<text text-anchor="start" x="145" y="-684.5" font-family="Helvetica,sans-Serif" font-size="10.00" fill="#000000">+ relocatePointer()</text>
<text text-anchor="start" x="145" y="-673.5" font-family="Helvetica,sans-Serif" font-size="10.00" fill="#000000">+ writeToFile()</text>
<text text-anchor="start" x="145" y="-662.5" font-family="Helvetica,sans-Serif" font-size="10.00" fill="#000000">+ readFromFile()</text>
<text text-anchor="start" x="145" y="-651.5" font-family="Helvetica,sans-Serif" font-size="10.00" fill="#000000">+ stressTest()</text>
<text text-anchor="start" x="145" y="-640.5" font-family="Helvetica,sans-Serif" font-size="10.00" fill="#000000"># startConstruction()</text>
<text text-anchor="start" x="145" y="-629.5" font-family="Helvetica,sans-Serif" font-size="10.00" fill="#000000"># finishConstruction()</text>
<text text-anchor="start" x="145" y="-618.5" font-family="Helvetica,sans-Serif" font-size="10.00" fill="#000000"># destroy()</text>
<text text-anchor="start" x="145" y="-607.5" font-family="Helvetica,sans-Serif" font-size="10.00" fill="#000000"># cloneFromObject()</text>
<text text-anchor="start" x="145" y="-596.5" font-family="Helvetica,sans-Serif" font-size="10.00" fill="#000000"># releaseInternalBuffer()</text>
<text text-anchor="start" x="145" y="-585.5" font-family="Helvetica,sans-Serif" font-size="10.00" fill="#000000"># moveBufferTo()</text>
<text text-anchor="start" x="145" y="-574.5" font-family="Helvetica,sans-Serif" font-size="10.00" fill="#000000"># setActualBufferAddress()</text>
<text text-anchor="start" x="145" y="-563.5" font-family="Helvetica,sans-Serif" font-size="10.00" fill="#000000"># setFutureBufferAddress()</text>
<text text-anchor="start" x="145" y="-552.5" font-family="Helvetica,sans-Serif" font-size="10.00" fill="#000000"># ClassDefNV()</text>
<text text-anchor="start" x="145" y="-541.5" font-family="Helvetica,sans-Serif" font-size="10.00" fill="#000000"># getClassAlignmentBytes()</text>
<text text-anchor="start" x="145" y="-530.5" font-family="Helvetica,sans-Serif" font-size="10.00" fill="#000000"># getBufferAlignmentBytes()</text>
</a>
</g>
</g>
<!-- Node4&#45;&gt;Node3 -->
<g id="edge1" class="edge">
<title>Node4&#45;&gt;Node3</title>
<path fill="none" stroke="#191970" d="M301.0082,-573.8972C325.5131,-537.4418 352.2997,-497.63 377,-461 405.4863,-418.7555 436.8502,-372.3602 464.3319,-331.7464"/>
<polygon fill="none" stroke="#191970" points="297.8344,-572.345 295.1608,-582.5969 303.6441,-576.2498 297.8344,-572.345"/>
</g>
<!-- Node5 -->
<g id="node3" class="node">
<title>Node5</title>
<polygon fill="none" stroke="#bfbfbf" points="0,-936.5 0,-993.5 38,-993.5 38,-936.5 0,-936.5"/>
<text text-anchor="middle" x="19" y="-981.5" font-family="Helvetica,sans-Serif" font-size="10.00" fill="#000000">char</text>
<polyline fill="none" stroke="#bfbfbf" points="0,-974.5 38,-974.5 "/>
<text text-anchor="middle" x="19" y="-962.5" font-family="Helvetica,sans-Serif" font-size="10.00" fill="#000000"> </text>
<polyline fill="none" stroke="#bfbfbf" points="0,-955.5 38,-955.5 "/>
<text text-anchor="middle" x="19" y="-943.5" font-family="Helvetica,sans-Serif" font-size="10.00" fill="#000000"> </text>
</g>
<!-- Node5&#45;&gt;Node4 -->
<g id="edge2" class="edge">
<title>Node5&#45;&gt;Node4</title>
<path fill="none" stroke="#404040" d="M23.2449,-936.3055C25.9479,-923.4361 30.2551,-908.3972 37,-896 60.419,-852.9555 95.3258,-811.895 128.1116,-778.6156"/>
<polygon fill="none" stroke="#404040" points="128.3563,-778.3708 129.7696,-771.2996 136.8405,-769.8844 135.4272,-776.9557 128.3563,-778.3708"/>
<text text-anchor="middle" x="93.5" y="-910" font-family="Helvetica,sans-Serif" font-size="10.00" fill="#000000"> #mFlatBufferPtr</text>
<text text-anchor="middle" x="93.5" y="-899" font-family="Helvetica,sans-Serif" font-size="10.00" fill="#000000">#mFlatBufferContainer</text>
</g>
<!-- Node6 -->
<g id="node4" class="node">
<title>Node6</title>
<polygon fill="none" stroke="#bfbfbf" points="324.5,-936.5 324.5,-993.5 353.5,-993.5 353.5,-936.5 324.5,-936.5"/>
<text text-anchor="middle" x="339" y="-981.5" font-family="Helvetica,sans-Serif" font-size="10.00" fill="#000000">int</text>
<polyline fill="none" stroke="#bfbfbf" points="324.5,-974.5 353.5,-974.5 "/>
<text text-anchor="middle" x="339" y="-962.5" font-family="Helvetica,sans-Serif" font-size="10.00" fill="#000000"> </text>
<polyline fill="none" stroke="#bfbfbf" points="324.5,-955.5 353.5,-955.5 "/>
<text text-anchor="middle" x="339" y="-943.5" font-family="Helvetica,sans-Serif" font-size="10.00" fill="#000000"> </text>
</g>
<!-- Node6&#45;&gt;Node3 -->
<g id="edge8" class="edge">
<title>Node6&#45;&gt;Node3</title>
<path fill="none" stroke="#404040" d="M353.593,-951.6939C362.0569,-943.0105 372.0038,-930.9183 377,-918 408.7165,-835.9931 378.6665,-608.2991 400,-523 413.3265,-469.7156 435.9918,-414.324 459.1968,-365.777"/>
<polygon fill="none" stroke="#404040" points="459.2409,-365.6856 458.2534,-358.5425 464.4672,-354.8835 465.4548,-362.0267 459.2409,-365.6856"/>
<text text-anchor="middle" x="419" y="-698" font-family="Helvetica,sans-Serif" font-size="10.00" fill="#000000"> +const</text>
</g>
<!-- Node6&#45;&gt;Node4 -->
<g id="edge3" class="edge">
<title>Node6&#45;&gt;Node4</title>
<path fill="none" stroke="#404040" d="M324.1219,-954.6066C312.7777,-945.9819 297.5298,-932.7722 288,-918 282.0223,-908.734 276.495,-898.9242 271.3905,-888.7971"/>
<polygon fill="none" stroke="#404040" points="271.2445,-888.4954 265.03,-884.8376 266.0163,-877.6942 272.2308,-881.3521 271.2445,-888.4954"/>
<text text-anchor="middle" x="332.5" y="-904.5" font-family="Helvetica,sans-Serif" font-size="10.00" fill="#000000"> #mFlatBufferSize</text>
</g>
<!-- Node7 -->
<g id="node5" class="node">
<title>Node7</title>
<polygon fill="none" stroke="#bfbfbf" points="124.5,-936.5 124.5,-993.5 185.5,-993.5 185.5,-936.5 124.5,-936.5"/>
<text text-anchor="middle" x="155" y="-981.5" font-family="Helvetica,sans-Serif" font-size="10.00" fill="#000000">unsigned</text>
<polyline fill="none" stroke="#bfbfbf" points="124.5,-974.5 185.5,-974.5 "/>
<text text-anchor="middle" x="155" y="-962.5" font-family="Helvetica,sans-Serif" font-size="10.00" fill="#000000"> </text>
<polyline fill="none" stroke="#bfbfbf" points="124.5,-955.5 185.5,-955.5 "/>
<text text-anchor="middle" x="155" y="-943.5" font-family="Helvetica,sans-Serif" font-size="10.00" fill="#000000"> </text>
</g>
<!-- Node7&#45;&gt;Node4 -->
<g id="edge4" class="edge">
<title>Node7&#45;&gt;Node4</title>
<path fill="none" stroke="#404040" d="M153.6088,-936.3106C153.4694,-923.8534 153.9321,-909.1365 156,-896 156.3274,-893.9204 156.6718,-891.8322 157.0322,-889.737"/>
<polygon fill="none" stroke="#404040" points="157.0815,-889.4702 154.2403,-882.8424 159.2656,-877.6706 162.1067,-884.2984 157.0815,-889.4702"/>
<text text-anchor="middle" x="210.5" y="-904.5" font-family="Helvetica,sans-Serif" font-size="10.00" fill="#000000"> #mConstructionMask</text>
</g>
<!-- Node8 -->
<g id="node6" class="node">
<title>Node8</title>
<polygon fill="none" stroke="#bfbfbf" points="447.5,-672 447.5,-729 548.5,-729 548.5,-672 447.5,-672"/>
<text text-anchor="middle" x="498" y="-717" font-family="Helvetica,sans-Serif" font-size="10.00" fill="#000000">DataT DataT &amp;u2</text>
<polyline fill="none" stroke="#bfbfbf" points="447.5,-710 548.5,-710 "/>
<text text-anchor="middle" x="498" y="-698" font-family="Helvetica,sans-Serif" font-size="10.00" fill="#000000"> </text>
<polyline fill="none" stroke="#bfbfbf" points="447.5,-691 548.5,-691 "/>
<text text-anchor="middle" x="498" y="-679" font-family="Helvetica,sans-Serif" font-size="10.00" fill="#000000"> </text>
</g>
<!-- Node8&#45;&gt;Node3 -->
<g id="edge5" class="edge">
<title>Node8&#45;&gt;Node3</title>
<path fill="none" stroke="#404040" d="M500.442,-671.9708C504.1754,-628.3536 511.6489,-541.0411 519.0306,-454.8011"/>
<polygon fill="none" stroke="#404040" points="519.0477,-454.6003 515.574,-448.281 520.0712,-442.644 523.5449,-448.9633 519.0477,-454.6003"/>
<text text-anchor="middle" x="537" y="-480.5" font-family="Helvetica,sans-Serif" font-size="10.00" fill="#000000"> +const</text>
</g>
<!-- Node9 -->
<g id="node7" class="node">
<title>Node9</title>
<polygon fill="none" stroke="#bfbfbf" points="567,-672 567,-729 613,-729 613,-672 567,-672"/>
<text text-anchor="middle" x="590" y="-717" font-family="Helvetica,sans-Serif" font-size="10.00" fill="#000000">DataT</text>
<polyline fill="none" stroke="#bfbfbf" points="567,-710 613,-710 "/>
<text text-anchor="middle" x="590" y="-698" font-family="Helvetica,sans-Serif" font-size="10.00" fill="#000000"> </text>
<polyline fill="none" stroke="#bfbfbf" points="567,-691 613,-691 "/>
<text text-anchor="middle" x="590" y="-679" font-family="Helvetica,sans-Serif" font-size="10.00" fill="#000000"> </text>
</g>
<!-- Node9&#45;&gt;Node3 -->
<g id="edge6" class="edge">
<title>Node9&#45;&gt;Node3</title>
<path fill="none" stroke="#404040" d="M586.9624,-671.9708C582.3184,-628.3536 573.0221,-541.0411 563.84,-454.8011"/>
<polygon fill="none" stroke="#404040" points="563.8162,-454.5766 559.2034,-449.0338 562.5456,-442.644 567.1584,-448.1868 563.8162,-454.5766"/>
<text text-anchor="middle" x="610.5" y="-497" font-family="Helvetica,sans-Serif" font-size="10.00" fill="#000000"> #mFparameters</text>
<text text-anchor="middle" x="610.5" y="-486" font-family="Helvetica,sans-Serif" font-size="10.00" fill="#000000">+x2Min</text>
<text text-anchor="middle" x="610.5" y="-475" font-family="Helvetica,sans-Serif" font-size="10.00" fill="#000000">+x2Max</text>
<text text-anchor="middle" x="610.5" y="-464" font-family="Helvetica,sans-Serif" font-size="10.00" fill="#000000">+x1Max</text>
</g>
<!-- Node10 -->
<g id="node8" class="node">
<title>Node10</title>
<polygon fill="none" stroke="#bfbfbf" points="631,-672 631,-729 743,-729 743,-672 631,-672"/>
<text text-anchor="middle" x="687" y="-717" font-family="Helvetica,sans-Serif" font-size="10.00" fill="#000000">Spline1D&lt; DataT &gt;</text>
<polyline fill="none" stroke="#bfbfbf" points="631,-710 743,-710 "/>
<text text-anchor="middle" x="687" y="-698" font-family="Helvetica,sans-Serif" font-size="10.00" fill="#000000"> </text>
<polyline fill="none" stroke="#bfbfbf" points="631,-691 743,-691 "/>
<text text-anchor="middle" x="687" y="-679" font-family="Helvetica,sans-Serif" font-size="10.00" fill="#000000"> </text>
</g>
<!-- Node10&#45;&gt;Node3 -->
<g id="edge7" class="edge">
<title>Node10&#45;&gt;Node3</title>
<path fill="none" stroke="#404040" d="M686.2853,-671.8562C684.4886,-626.2887 678.1759,-534.8892 656,-461 646.4924,-429.3212 633.1739,-396.6628 618.9134,-366.0412"/>
<polygon fill="none" stroke="#404040" points="618.7542,-365.7046 612.5725,-361.9916 613.6223,-354.8573 619.804,-358.5703 618.7542,-365.7046"/>
<text text-anchor="middle" x="692.5" y="-486" font-family="Helvetica,sans-Serif" font-size="10.00" fill="#000000"> #mGridU1</text>
<text text-anchor="middle" x="692.5" y="-475" font-family="Helvetica,sans-Serif" font-size="10.00" fill="#000000">#mGridU2</text>
</g>
<!-- Node11 -->
<g id="node9" class="node">
<title>Node11</title>
<polygon fill="none" stroke="#bfbfbf" points="761,-672 761,-729 817,-729 817,-672 761,-672"/>
<text text-anchor="middle" x="789" y="-717" font-family="Helvetica,sans-Serif" font-size="10.00" fill="#000000">DataT &amp;</text>
<polyline fill="none" stroke="#bfbfbf" points="761,-710 817,-710 "/>
<text text-anchor="middle" x="789" y="-698" font-family="Helvetica,sans-Serif" font-size="10.00" fill="#000000"> </text>
<polyline fill="none" stroke="#bfbfbf" points="761,-691 817,-691 "/>
<text text-anchor="middle" x="789" y="-679" font-family="Helvetica,sans-Serif" font-size="10.00" fill="#000000"> </text>
</g>
<!-- Node11&#45;&gt;Node3 -->
<g id="edge9" class="edge">
<title>Node11&#45;&gt;Node3</title>
<path fill="none" stroke="#404040" d="M784.9846,-671.717C779.5781,-636.1854 768.6692,-574.1819 752,-523 725.727,-442.33 669.6692,-364.4685 621.6561,-308.0823"/>
<polygon fill="none" stroke="#404040" points="621.5507,-307.96 614.6041,-306.0247 613.7187,-298.8681 620.6653,-300.8034 621.5507,-307.96"/>
<text text-anchor="middle" x="757" y="-480.5" font-family="Helvetica,sans-Serif" font-size="10.00" fill="#000000"> +u1</text>
</g>
</g>
</svg>
        <g id="navigator" transform="translate(0 0)" fill="#404254">
                <rect fill="#f2f5e9" fill-opacity="0.5" stroke="#606060" stroke-width=".5" x="0" y="0" width="60" height="60"/>
                <use id="zoomplus" xlink:href="#zoomPlus" x="17" y="9" onmousedown="handleZoom(evt,'in')"/>
                <use id="zoomminus" xlink:href="#zoomMin" x="42" y="9" onmousedown="handleZoom(evt,'out')"/>
                <use id="reset" xlink:href="#resetDef" x="30" y="36" onmousedown="handleReset()"/>
                <g id="arrowUp" xlink:href="#dirArrow" transform="translate(30 24)" onmousedown="handlePan(0,-1)">
                  <use xlink:href="#rim" fill="#404040">
                        <set attributeName="fill" to="#808080" begin="arrowUp.mouseover" end="arrowUp.mouseout"/>
                  </use>
                  <path fill="none" stroke="white" stroke-width="1.5" d="M0,-3.0v7 M-2.5,-0.5L0,-3.0L2.5,-0.5"/>
                </g>
                <g id="arrowRight" xlink:href="#dirArrow" transform="rotate(90) translate(36 -43)" onmousedown="handlePan(1,0)">
                  <use xlink:href="#rim" fill="#404040">
                        <set attributeName="fill" to="#808080" begin="arrowRight.mouseover" end="arrowRight.mouseout"/>
                  </use>
                  <path fill="none" stroke="white" stroke-width="1.5" d="M0,-3.0v7 M-2.5,-0.5L0,-3.0L2.5,-0.5"/>
                </g>
                <g id="arrowDown" xlink:href="#dirArrow" transform="rotate(180) translate(-30 -48)" onmousedown="handlePan(0,1)">
                  <use xlink:href="#rim" fill="#404040">
                        <set attributeName="fill" to="#808080" begin="arrowDown.mouseover" end="arrowDown.mouseout"/>
                  </use>
                  <path fill="none" stroke="white" stroke-width="1.5" d="M0,-3.0v7 M-2.5,-0.5L0,-3.0L2.5,-0.5"/>
                </g>
                <g id="arrowLeft" xlink:href="#dirArrow" transform="rotate(270) translate(-36 17)" onmousedown="handlePan(-1,0)">
                  <use xlink:href="#rim" fill="#404040">
                        <set attributeName="fill" to="#808080" begin="arrowLeft.mouseover" end="arrowLeft.mouseout"/>
                  </use>
                  <path fill="none" stroke="white" stroke-width="1.5" d="M0,-3.0v7 M-2.5,-0.5L0,-3.0L2.5,-0.5"/>
                </g>
        </g>
        <svg viewBox="0 0 15 15" width="100%" height="30px" preserveAspectRatio="xMaxYMin meet">
         <g id="arrow_out" transform="scale(0.3 0.3)">
          <a xlink:href="classGPUCA__NAMESPACE_1_1gpu_1_1Spline2DBase__coll__graph_org.svg" target="_base">
           <rect id="button" ry="5" rx="5" y="6" x="6" height="38" width="38"
                fill="#f2f5e9" fill-opacity="0.5" stroke="#606060" stroke-width="1.0"/>
           <path id="arrow"
             d="M 11.500037,31.436501 C 11.940474,20.09759 22.043105,11.32322 32.158766,21.979434 L 37.068811,17.246167 C 37.068811,17.246167 37.088388,32 37.088388,32 L 22.160133,31.978069 C 22.160133,31.978069 26.997745,27.140456 26.997745,27.140456 C 18.528582,18.264221 13.291696,25.230495 11.500037,31.436501 z"
             style="fill:#404040;"/>
          </a>
         </g>
        </svg>
</svg>
