<?xml version="1.0" encoding="UTF-8" standalone="no"?>
<!DOCTYPE svg PUBLIC "-//W3C//DTD SVG 1.1//EN"
 "http://www.w3.org/Graphics/SVG/1.1/DTD/svg11.dtd">
<!-- Generated by graphviz version 2.40.1 (20161225.0304)
 -->
<!-- Title: /home/travis/build/AliceO2Group/AliceO2/Utilities/rANS/include/librans/SymbolStatistics.h Pages: 1 -->
<svg width="642pt" height="328pt"
 viewBox="0.00 0.00 642.03 328.00" xmlns="http://www.w3.org/2000/svg" xmlns:xlink="http://www.w3.org/1999/xlink">
<g id="graph0" class="graph" transform="scale(1 1) rotate(0) translate(4 324)">
<title>/home/travis/build/AliceO2Group/AliceO2/Utilities/rANS/include/librans/SymbolStatistics.h</title>
<!-- Node6 -->
<g id="node1" class="node">
<title>Node6</title>
<polygon fill="#bfbfbf" stroke="#000000" points="233.5259,-267.5 233.5259,-319.5 379.5259,-319.5 379.5259,-267.5 233.5259,-267.5"/>
<text text-anchor="start" x="241.5259" y="-307.5" font-family="Helvetica,sans-Serif" font-size="10.00" fill="#000000">/home/travis/build</text>
<text text-anchor="start" x="241.5259" y="-296.5" font-family="Helvetica,sans-Serif" font-size="10.00" fill="#000000">/AliceO2Group/AliceO2</text>
<text text-anchor="start" x="241.5259" y="-285.5" font-family="Helvetica,sans-Serif" font-size="10.00" fill="#000000">/Utilities/rANS/include</text>
<text text-anchor="middle" x="306.5259" y="-274.5" font-family="Helvetica,sans-Serif" font-size="10.00" fill="#000000">/librans/SymbolStatistics.h</text>
</g>
<!-- Node7 -->
<g id="node2" class="node">
<title>Node7</title>
<g id="a_node2"><a xlink:href="../../d8/dd9/SymbolTable_8h.html" target="_top" xlink:title="Container for information needed to encode/decode a symbol of the alphabet. ">
<polygon fill="none" stroke="#000000" points="243.0259,-178.5 243.0259,-230.5 370.0259,-230.5 370.0259,-178.5 243.0259,-178.5"/>
<text text-anchor="start" x="251.0259" y="-218.5" font-family="Helvetica,sans-Serif" font-size="10.00" fill="#000000">/home/travis/build</text>
<text text-anchor="start" x="251.0259" y="-207.5" font-family="Helvetica,sans-Serif" font-size="10.00" fill="#000000">/AliceO2Group/AliceO2</text>
<text text-anchor="start" x="251.0259" y="-196.5" font-family="Helvetica,sans-Serif" font-size="10.00" fill="#000000">/Utilities/rANS/include</text>
<text text-anchor="middle" x="306.5259" y="-185.5" font-family="Helvetica,sans-Serif" font-size="10.00" fill="#000000">/librans/SymbolTable.h</text>
</a>
</g>
</g>
<!-- Node6&#45;&gt;Node7 -->
<g id="edge1" class="edge">
<title>Node6&#45;&gt;Node7</title>
<path fill="none" stroke="#191970" d="M306.5259,-257.1155C306.5259,-248.2061 306.5259,-238.8475 306.5259,-230.5341"/>
<polygon fill="#191970" stroke="#191970" points="303.026,-257.2784 306.5259,-267.2784 310.026,-257.2785 303.026,-257.2784"/>
</g>
<!-- Node9 -->
<g id="node4" class="node">
<title>Node9</title>
<g id="a_node4"><a xlink:href="../../d4/de7/rans_8h.html" target="_top" xlink:title="header for public api ">
<polygon fill="none" stroke="#000000" points="95.0259,-.5 95.0259,-52.5 222.0259,-52.5 222.0259,-.5 95.0259,-.5"/>
<text text-anchor="start" x="103.0259" y="-40.5" font-family="Helvetica,sans-Serif" font-size="10.00" fill="#000000">/home/travis/build</text>
<text text-anchor="start" x="103.0259" y="-29.5" font-family="Helvetica,sans-Serif" font-size="10.00" fill="#000000">/AliceO2Group/AliceO2</text>
<text text-anchor="start" x="103.0259" y="-18.5" font-family="Helvetica,sans-Serif" font-size="10.00" fill="#000000">/Utilities/rANS/include</text>
<text text-anchor="middle" x="158.5259" y="-7.5" font-family="Helvetica,sans-Serif" font-size="10.00" fill="#000000">/librans/rans.h</text>
</a>
</g>
</g>
<!-- Node6&#45;&gt;Node9 -->
<g id="edge10" class="edge">
<title>Node6&#45;&gt;Node9</title>
<path fill="none" stroke="#191970" d="M223.1494,-287.1293C146.3081,-279.3199 40.3799,-262.9734 14.5259,-231 -35.0283,-169.7168 58.0667,-92.5375 116.4476,-52.8069"/>
<polygon fill="#191970" stroke="#191970" points="223.0188,-290.6333 233.3137,-288.1302 223.7048,-283.667 223.0188,-290.6333"/>
</g>
<!-- Node10 -->
<g id="node5" class="node">
<title>Node10</title>
<g id="a_node5"><a xlink:href="../../d6/d7c/test__ransEncodeDecode_8cxx.html" target="_top" xlink:title="/home/travis/build\l/AliceO2Group/AliceO2\l/Utilities/rANS/test/test\l_ransEncodeDecode.cxx">
<polygon fill="none" stroke="#000000" points="240.0259,-.5 240.0259,-52.5 375.0259,-52.5 375.0259,-.5 240.0259,-.5"/>
<text text-anchor="start" x="248.0259" y="-40.5" font-family="Helvetica,sans-Serif" font-size="10.00" fill="#000000">/home/travis/build</text>
<text text-anchor="start" x="248.0259" y="-29.5" font-family="Helvetica,sans-Serif" font-size="10.00" fill="#000000">/AliceO2Group/AliceO2</text>
<text text-anchor="start" x="248.0259" y="-18.5" font-family="Helvetica,sans-Serif" font-size="10.00" fill="#000000">/Utilities/rANS/test/test</text>
<text text-anchor="middle" x="307.5259" y="-7.5" font-family="Helvetica,sans-Serif" font-size="10.00" fill="#000000">_ransEncodeDecode.cxx</text>
</a>
</g>
</g>
<!-- Node6&#45;&gt;Node10 -->
<g id="edge12" class="edge">
<title>Node6&#45;&gt;Node10</title>
<path fill="none" stroke="#191970" d="M357.1347,-260.4597C366.212,-252.0176 374.403,-242.13 379.5259,-231 405.9135,-173.6702 405.7178,-146.4195 379.5259,-89 372.9998,-74.6932 361.4022,-62.3978 349.3957,-52.5912"/>
<polygon fill="#191970" stroke="#191970" points="354.6142,-258.0126 349.3492,-267.2066 359.1985,-263.3026 354.6142,-258.0126"/>
</g>
<!-- Node12 -->
<g id="node7" class="node">
<title>Node12</title>
<g id="a_node7"><a xlink:href="../../dc/d3b/ReverseSymbolLookupTable_8h.html" target="_top" xlink:title="Maps CDF back to source symbol &#45; needed for the decoder. ">
<polygon fill="none" stroke="#000000" points="24.0259,-178.5 24.0259,-230.5 225.0259,-230.5 225.0259,-178.5 24.0259,-178.5"/>
<text text-anchor="start" x="32.0259" y="-218.5" font-family="Helvetica,sans-Serif" font-size="10.00" fill="#000000">/home/travis/build</text>
<text text-anchor="start" x="32.0259" y="-207.5" font-family="Helvetica,sans-Serif" font-size="10.00" fill="#000000">/AliceO2Group/AliceO2</text>
<text text-anchor="start" x="32.0259" y="-196.5" font-family="Helvetica,sans-Serif" font-size="10.00" fill="#000000">/Utilities/rANS/include</text>
<text text-anchor="middle" x="124.5259" y="-185.5" font-family="Helvetica,sans-Serif" font-size="10.00" fill="#000000">/librans/ReverseSymbolLookupTable.h</text>
</a>
</g>
</g>
<!-- Node6&#45;&gt;Node12 -->
<g id="edge8" class="edge">
<title>Node6&#45;&gt;Node12</title>
<path fill="none" stroke="#191970" d="M243.842,-262.8469C222.3242,-252.3245 198.4604,-240.6548 177.7642,-230.5341"/>
<polygon fill="#191970" stroke="#191970" points="242.3833,-266.0296 252.9042,-267.2784 245.4584,-259.7412 242.3833,-266.0296"/>
</g>
<!-- Node13 -->
<g id="node8" class="node">
<title>Node13</title>
<g id="a_node8"><a xlink:href="../../de/db9/SymbolStatistics_8cxx.html" target="_top" xlink:title="/home/travis/build\l/AliceO2Group/AliceO2\l/Utilities/rANS/src/SymbolStatistics.cxx">
<polygon fill="none" stroke="#000000" points="427.0259,-184 427.0259,-225 634.0259,-225 634.0259,-184 427.0259,-184"/>
<text text-anchor="start" x="435.0259" y="-213" font-family="Helvetica,sans-Serif" font-size="10.00" fill="#000000">/home/travis/build</text>
<text text-anchor="start" x="435.0259" y="-202" font-family="Helvetica,sans-Serif" font-size="10.00" fill="#000000">/AliceO2Group/AliceO2</text>
<text text-anchor="middle" x="530.5259" y="-191" font-family="Helvetica,sans-Serif" font-size="10.00" fill="#000000">/Utilities/rANS/src/SymbolStatistics.cxx</text>
</a>
</g>
</g>
<!-- Node6&#45;&gt;Node13 -->
<g id="edge11" class="edge">
<title>Node6&#45;&gt;Node13</title>
<path fill="none" stroke="#191970" d="M381.526,-263.7008C413.4363,-251.0222 449.8611,-236.5498 478.7087,-225.0881"/>
<polygon fill="#191970" stroke="#191970" points="380.2207,-260.4533 372.2197,-267.3984 382.8054,-266.9586 380.2207,-260.4533"/>
</g>
<!-- Node8 -->
<g id="node3" class="node">
<title>Node8</title>
<g id="a_node3"><a xlink:href="../../d4/dfd/Utilities_2rANS_2include_2librans_2Decoder_8h.html" target="_top" xlink:title="/home/travis/build\l/AliceO2Group/AliceO2\l/Utilities/rANS/include\l/librans/Decoder.h">
<polygon fill="none" stroke="#000000" points="97.0259,-89.5 97.0259,-141.5 224.0259,-141.5 224.0259,-89.5 97.0259,-89.5"/>
<text text-anchor="start" x="105.0259" y="-129.5" font-family="Helvetica,sans-Serif" font-size="10.00" fill="#000000">/home/travis/build</text>
<text text-anchor="start" x="105.0259" y="-118.5" font-family="Helvetica,sans-Serif" font-size="10.00" fill="#000000">/AliceO2Group/AliceO2</text>
<text text-anchor="start" x="105.0259" y="-107.5" font-family="Helvetica,sans-Serif" font-size="10.00" fill="#000000">/Utilities/rANS/include</text>
<text text-anchor="middle" x="160.5259" y="-96.5" font-family="Helvetica,sans-Serif" font-size="10.00" fill="#000000">/librans/Decoder.h</text>
</a>
</g>
</g>
<!-- Node7&#45;&gt;Node8 -->
<g id="edge2" class="edge">
<title>Node7&#45;&gt;Node8</title>
<path fill="none" stroke="#191970" d="M254.85,-172.9989C237.9558,-162.7004 219.3912,-151.3837 203.2336,-141.5341"/>
<polygon fill="#191970" stroke="#191970" points="253.1503,-176.0619 263.5107,-178.2784 256.7939,-170.0848 253.1503,-176.0619"/>
</g>
<!-- Node11 -->
<g id="node6" class="node">
<title>Node11</title>
<g id="a_node6"><a xlink:href="../../d4/db1/Utilities_2rANS_2include_2librans_2Encoder_8h.html" target="_top" xlink:title="/home/travis/build\l/AliceO2Group/AliceO2\l/Utilities/rANS/include\l/librans/Encoder.h">
<polygon fill="none" stroke="#000000" points="243.0259,-89.5 243.0259,-141.5 370.0259,-141.5 370.0259,-89.5 243.0259,-89.5"/>
<text text-anchor="start" x="251.0259" y="-129.5" font-family="Helvetica,sans-Serif" font-size="10.00" fill="#000000">/home/travis/build</text>
<text text-anchor="start" x="251.0259" y="-118.5" font-family="Helvetica,sans-Serif" font-size="10.00" fill="#000000">/AliceO2Group/AliceO2</text>
<text text-anchor="start" x="251.0259" y="-107.5" font-family="Helvetica,sans-Serif" font-size="10.00" fill="#000000">/Utilities/rANS/include</text>
<text text-anchor="middle" x="306.5259" y="-96.5" font-family="Helvetica,sans-Serif" font-size="10.00" fill="#000000">/librans/Encoder.h</text>
</a>
</g>
</g>
<!-- Node7&#45;&gt;Node11 -->
<g id="edge5" class="edge">
<title>Node7&#45;&gt;Node11</title>
<path fill="none" stroke="#191970" d="M306.5259,-168.1155C306.5259,-159.2061 306.5259,-149.8475 306.5259,-141.5341"/>
<polygon fill="#191970" stroke="#191970" points="303.026,-168.2784 306.5259,-178.2784 310.026,-168.2785 303.026,-168.2784"/>
</g>
<!-- Node8&#45;&gt;Node9 -->
<g id="edge3" class="edge">
<title>Node8&#45;&gt;Node9</title>
<path fill="none" stroke="#191970" d="M159.7082,-79.1155C159.508,-70.2061 159.2977,-60.8475 159.1109,-52.5341"/>
<polygon fill="#191970" stroke="#191970" points="156.2127,-79.3596 159.9366,-89.2784 163.211,-79.2023 156.2127,-79.3596"/>
</g>
<!-- Node8&#45;&gt;Node10 -->
<g id="edge4" class="edge">
<title>Node8&#45;&gt;Node10</title>
<path fill="none" stroke="#191970" d="M212.5557,-83.9989C229.5656,-73.7004 248.2573,-62.3837 264.5256,-52.5341"/>
<polygon fill="#191970" stroke="#191970" points="210.5773,-81.1052 203.8356,-89.2784 214.2027,-87.0933 210.5773,-81.1052"/>
</g>
<!-- Node11&#45;&gt;Node9 -->
<g id="edge6" class="edge">
<title>Node11&#45;&gt;Node9</title>
<path fill="none" stroke="#191970" d="M254.1421,-83.9989C237.0165,-73.7004 218.1976,-62.3837 201.8186,-52.5341"/>
<polygon fill="#191970" stroke="#191970" points="252.5479,-87.1244 262.9215,-89.2784 256.1554,-81.1255 252.5479,-87.1244"/>
</g>
<!-- Node11&#45;&gt;Node10 -->
<g id="edge7" class="edge">
<title>Node11&#45;&gt;Node10</title>
<path fill="none" stroke="#191970" d="M306.9347,-79.1155C307.0348,-70.2061 307.1399,-60.8475 307.2333,-52.5341"/>
<polygon fill="#191970" stroke="#191970" points="303.4332,-79.2397 306.8205,-89.2784 310.4327,-79.3184 303.4332,-79.2397"/>
</g>
<!-- Node12&#45;&gt;Node8 -->
<g id="edge9" class="edge">
<title>Node12&#45;&gt;Node8</title>
<path fill="none" stroke="#191970" d="M138.8912,-168.9856C142.5997,-159.8176 146.5228,-150.1186 149.9952,-141.5341"/>
<polygon fill="#191970" stroke="#191970" points="135.6376,-167.6956 135.1323,-178.2784 142.1268,-170.3205 135.6376,-167.6956"/>
</g>
</g>
</svg>
