<?xml version="1.0" encoding="UTF-8" standalone="no"?>
<!DOCTYPE svg PUBLIC "-//W3C//DTD SVG 1.1//EN"
 "http://www.w3.org/Graphics/SVG/1.1/DTD/svg11.dtd">
<!-- Generated by graphviz version 2.40.1 (20161225.0304)
 -->
<!-- Title: o2::eventgen::GeneratorPythia6 Pages: 1 -->
<svg width="901pt" height="932pt"
 viewBox="0.00 0.00 900.83 932.00" xmlns="http://www.w3.org/2000/svg" xmlns:xlink="http://www.w3.org/1999/xlink">
<g id="graph0" class="graph" transform="scale(1 1) rotate(0) translate(4 928)">
<title>o2::eventgen::GeneratorPythia6</title>
<!-- Node4 -->
<g id="node1" class="node">
<title>Node4</title>
<polygon fill="#bfbfbf" stroke="#000000" points="318,-.5 318,-200.5 490,-200.5 490,-.5 318,-.5"/>
<text text-anchor="middle" x="404" y="-188.5" font-family="Helvetica,sans-Serif" font-size="10.00" fill="#000000">o2::eventgen::GeneratorPythia6</text>
<polyline fill="none" stroke="#000000" points="318,-181.5 490,-181.5 "/>
<text text-anchor="middle" x="404" y="-169.5" font-family="Helvetica,sans-Serif" font-size="10.00" fill="#000000"> </text>
<polyline fill="none" stroke="#000000" points="318,-162.5 490,-162.5 "/>
<text text-anchor="start" x="326" y="-150.5" font-family="Helvetica,sans-Serif" font-size="10.00" fill="#000000">+ GeneratorPythia6()</text>
<text text-anchor="start" x="326" y="-139.5" font-family="Helvetica,sans-Serif" font-size="10.00" fill="#000000">+ GeneratorPythia6()</text>
<text text-anchor="start" x="326" y="-128.5" font-family="Helvetica,sans-Serif" font-size="10.00" fill="#000000">+ ~GeneratorPythia6()</text>
<text text-anchor="start" x="326" y="-117.5" font-family="Helvetica,sans-Serif" font-size="10.00" fill="#000000">+ Init()</text>
<text text-anchor="start" x="326" y="-106.5" font-family="Helvetica,sans-Serif" font-size="10.00" fill="#000000">+ setConfig()</text>
<text text-anchor="start" x="326" y="-95.5" font-family="Helvetica,sans-Serif" font-size="10.00" fill="#000000">+ setTune()</text>
<text text-anchor="start" x="326" y="-84.5" font-family="Helvetica,sans-Serif" font-size="10.00" fill="#000000">+ setFrame()</text>
<text text-anchor="start" x="326" y="-73.5" font-family="Helvetica,sans-Serif" font-size="10.00" fill="#000000">+ setBeam()</text>
<text text-anchor="start" x="326" y="-62.5" font-family="Helvetica,sans-Serif" font-size="10.00" fill="#000000">+ setTarget()</text>
<text text-anchor="start" x="326" y="-51.5" font-family="Helvetica,sans-Serif" font-size="10.00" fill="#000000">+ setWin()</text>
<text text-anchor="start" x="326" y="-40.5" font-family="Helvetica,sans-Serif" font-size="10.00" fill="#000000">+ readString()</text>
<text text-anchor="start" x="326" y="-29.5" font-family="Helvetica,sans-Serif" font-size="10.00" fill="#000000"># GeneratorPythia6()</text>
<text text-anchor="start" x="326" y="-18.5" font-family="Helvetica,sans-Serif" font-size="10.00" fill="#000000"># operator=()</text>
<text text-anchor="start" x="326" y="-7.5" font-family="Helvetica,sans-Serif" font-size="10.00" fill="#000000"># ClassDefOverride()</text>
</g>
<!-- Node5 -->
<g id="node2" class="node">
<title>Node5</title>
<g id="a_node2"><a xlink:href="../../d2/d82/classo2_1_1eventgen_1_1GeneratorTGenerator.html" target="_top" xlink:title="{o2::eventgen::GeneratorTGenerator\n||+ GeneratorTGenerator()\l+ GeneratorTGenerator()\l+ ~GeneratorTGenerator()\l+ setTGenerator()\l+ getTGenerator()\l+ Init()\l# GeneratorTGenerator()\l# operator=()\l# generateEvent()\l# importParticles()\l# ClassDefOverride()\l}">
<polygon fill="none" stroke="#000000" points="309,-238.5 309,-405.5 499,-405.5 499,-238.5 309,-238.5"/>
<text text-anchor="middle" x="404" y="-393.5" font-family="Helvetica,sans-Serif" font-size="10.00" fill="#000000">o2::eventgen::GeneratorTGenerator</text>
<polyline fill="none" stroke="#000000" points="309,-386.5 499,-386.5 "/>
<text text-anchor="middle" x="404" y="-374.5" font-family="Helvetica,sans-Serif" font-size="10.00" fill="#000000"> </text>
<polyline fill="none" stroke="#000000" points="309,-367.5 499,-367.5 "/>
<text text-anchor="start" x="317" y="-355.5" font-family="Helvetica,sans-Serif" font-size="10.00" fill="#000000">+ GeneratorTGenerator()</text>
<text text-anchor="start" x="317" y="-344.5" font-family="Helvetica,sans-Serif" font-size="10.00" fill="#000000">+ GeneratorTGenerator()</text>
<text text-anchor="start" x="317" y="-333.5" font-family="Helvetica,sans-Serif" font-size="10.00" fill="#000000">+ ~GeneratorTGenerator()</text>
<text text-anchor="start" x="317" y="-322.5" font-family="Helvetica,sans-Serif" font-size="10.00" fill="#000000">+ setTGenerator()</text>
<text text-anchor="start" x="317" y="-311.5" font-family="Helvetica,sans-Serif" font-size="10.00" fill="#000000">+ getTGenerator()</text>
<text text-anchor="start" x="317" y="-300.5" font-family="Helvetica,sans-Serif" font-size="10.00" fill="#000000">+ Init()</text>
<text text-anchor="start" x="317" y="-289.5" font-family="Helvetica,sans-Serif" font-size="10.00" fill="#000000"># GeneratorTGenerator()</text>
<text text-anchor="start" x="317" y="-278.5" font-family="Helvetica,sans-Serif" font-size="10.00" fill="#000000"># operator=()</text>
<text text-anchor="start" x="317" y="-267.5" font-family="Helvetica,sans-Serif" font-size="10.00" fill="#000000"># generateEvent()</text>
<text text-anchor="start" x="317" y="-256.5" font-family="Helvetica,sans-Serif" font-size="10.00" fill="#000000"># importParticles()</text>
<text text-anchor="start" x="317" y="-245.5" font-family="Helvetica,sans-Serif" font-size="10.00" fill="#000000"># ClassDefOverride()</text>
</a>
</g>
</g>
<!-- Node5&#45;&gt;Node4 -->
<g id="edge1" class="edge">
<title>Node5&#45;&gt;Node4</title>
<path fill="none" stroke="#191970" d="M404,-228.1187C404,-219.0664 404,-209.8601 404,-200.7494"/>
<polygon fill="none" stroke="#191970" points="400.5001,-228.2603 404,-238.2603 407.5001,-228.2604 400.5001,-228.2603"/>
</g>
<!-- Node6 -->
<g id="node3" class="node">
<title>Node6</title>
<g id="a_node3"><a xlink:href="../../d3/da7/classo2_1_1eventgen_1_1Generator.html" target="_top" xlink:title="{o2::eventgen::Generator\n||+ Generator()\l+ Generator()\l+ ~Generator()\l+ Init()\l+ ReadEvent()\l+ setMomentumUnit()\l+ setEnergyUnit()\l+ setPositionUnit()\l+ setTimeUnit()\l+ setBoost()\l+ setTriggerMode()\l+ addTrigger()\l+ addDeepTrigger()\l+ notifyEmbedding()\l# Generator()\l# operator=()\l# generateEvent()\l# importParticles()\l# addTracks()\l# boostEvent()\l# triggerEvent()\l# ClassDefOverride()\l}">
<polygon fill="none" stroke="#000000" points="336.5,-497.5 336.5,-785.5 471.5,-785.5 471.5,-497.5 336.5,-497.5"/>
<text text-anchor="middle" x="404" y="-773.5" font-family="Helvetica,sans-Serif" font-size="10.00" fill="#000000">o2::eventgen::Generator</text>
<polyline fill="none" stroke="#000000" points="336.5,-766.5 471.5,-766.5 "/>
<text text-anchor="middle" x="404" y="-754.5" font-family="Helvetica,sans-Serif" font-size="10.00" fill="#000000"> </text>
<polyline fill="none" stroke="#000000" points="336.5,-747.5 471.5,-747.5 "/>
<text text-anchor="start" x="344.5" y="-735.5" font-family="Helvetica,sans-Serif" font-size="10.00" fill="#000000">+ Generator()</text>
<text text-anchor="start" x="344.5" y="-724.5" font-family="Helvetica,sans-Serif" font-size="10.00" fill="#000000">+ Generator()</text>
<text text-anchor="start" x="344.5" y="-713.5" font-family="Helvetica,sans-Serif" font-size="10.00" fill="#000000">+ ~Generator()</text>
<text text-anchor="start" x="344.5" y="-702.5" font-family="Helvetica,sans-Serif" font-size="10.00" fill="#000000">+ Init()</text>
<text text-anchor="start" x="344.5" y="-691.5" font-family="Helvetica,sans-Serif" font-size="10.00" fill="#000000">+ ReadEvent()</text>
<text text-anchor="start" x="344.5" y="-680.5" font-family="Helvetica,sans-Serif" font-size="10.00" fill="#000000">+ setMomentumUnit()</text>
<text text-anchor="start" x="344.5" y="-669.5" font-family="Helvetica,sans-Serif" font-size="10.00" fill="#000000">+ setEnergyUnit()</text>
<text text-anchor="start" x="344.5" y="-658.5" font-family="Helvetica,sans-Serif" font-size="10.00" fill="#000000">+ setPositionUnit()</text>
<text text-anchor="start" x="344.5" y="-647.5" font-family="Helvetica,sans-Serif" font-size="10.00" fill="#000000">+ setTimeUnit()</text>
<text text-anchor="start" x="344.5" y="-636.5" font-family="Helvetica,sans-Serif" font-size="10.00" fill="#000000">+ setBoost()</text>
<text text-anchor="start" x="344.5" y="-625.5" font-family="Helvetica,sans-Serif" font-size="10.00" fill="#000000">+ setTriggerMode()</text>
<text text-anchor="start" x="344.5" y="-614.5" font-family="Helvetica,sans-Serif" font-size="10.00" fill="#000000">+ addTrigger()</text>
<text text-anchor="start" x="344.5" y="-603.5" font-family="Helvetica,sans-Serif" font-size="10.00" fill="#000000">+ addDeepTrigger()</text>
<text text-anchor="start" x="344.5" y="-592.5" font-family="Helvetica,sans-Serif" font-size="10.00" fill="#000000">+ notifyEmbedding()</text>
<text text-anchor="start" x="344.5" y="-581.5" font-family="Helvetica,sans-Serif" font-size="10.00" fill="#000000"># Generator()</text>
<text text-anchor="start" x="344.5" y="-570.5" font-family="Helvetica,sans-Serif" font-size="10.00" fill="#000000"># operator=()</text>
<text text-anchor="start" x="344.5" y="-559.5" font-family="Helvetica,sans-Serif" font-size="10.00" fill="#000000"># generateEvent()</text>
<text text-anchor="start" x="344.5" y="-548.5" font-family="Helvetica,sans-Serif" font-size="10.00" fill="#000000"># importParticles()</text>
<text text-anchor="start" x="344.5" y="-537.5" font-family="Helvetica,sans-Serif" font-size="10.00" fill="#000000"># addTracks()</text>
<text text-anchor="start" x="344.5" y="-526.5" font-family="Helvetica,sans-Serif" font-size="10.00" fill="#000000"># boostEvent()</text>
<text text-anchor="start" x="344.5" y="-515.5" font-family="Helvetica,sans-Serif" font-size="10.00" fill="#000000"># triggerEvent()</text>
<text text-anchor="start" x="344.5" y="-504.5" font-family="Helvetica,sans-Serif" font-size="10.00" fill="#000000"># ClassDefOverride()</text>
</a>
</g>
</g>
<!-- Node6&#45;&gt;Node5 -->
<g id="edge2" class="edge">
<title>Node6&#45;&gt;Node5</title>
<path fill="none" stroke="#191970" d="M404,-486.8954C404,-458.9556 404,-430.8057 404,-405.869"/>
<polygon fill="none" stroke="#191970" points="400.5001,-487.1732 404,-497.1732 407.5001,-487.1732 400.5001,-487.1732"/>
</g>
<!-- Node7 -->
<g id="node4" class="node">
<title>Node7</title>
<g id="a_node4"><a xlink:href="../../df/d40/classFairGenerator.html" target="_top" xlink:title="{FairGenerator\n||}">
<polygon fill="none" stroke="#000000" points="274.5,-866.5 274.5,-923.5 357.5,-923.5 357.5,-866.5 274.5,-866.5"/>
<text text-anchor="middle" x="316" y="-911.5" font-family="Helvetica,sans-Serif" font-size="10.00" fill="#000000">FairGenerator</text>
<polyline fill="none" stroke="#000000" points="274.5,-904.5 357.5,-904.5 "/>
<text text-anchor="middle" x="316" y="-892.5" font-family="Helvetica,sans-Serif" font-size="10.00" fill="#000000"> </text>
<polyline fill="none" stroke="#000000" points="274.5,-885.5 357.5,-885.5 "/>
<text text-anchor="middle" x="316" y="-873.5" font-family="Helvetica,sans-Serif" font-size="10.00" fill="#000000"> </text>
</a>
</g>
</g>
<!-- Node7&#45;&gt;Node6 -->
<g id="edge3" class="edge">
<title>Node7&#45;&gt;Node6</title>
<path fill="none" stroke="#191970" d="M329.2909,-856.7133C336.0858,-837.1392 344.8297,-811.9508 353.9267,-785.7452"/>
<polygon fill="none" stroke="#191970" points="325.8967,-855.8183 325.9237,-866.4131 332.5096,-858.1139 325.8967,-855.8183"/>
</g>
<!-- Node8 -->
<g id="node5" class="node">
<title>Node8</title>
<polygon fill="none" stroke="#bfbfbf" points="549,-866.5 549,-923.5 661,-923.5 661,-866.5 549,-866.5"/>
<text text-anchor="middle" x="605" y="-911.5" font-family="Helvetica,sans-Serif" font-size="10.00" fill="#000000">vector&lt; TParticle &gt;</text>
<polyline fill="none" stroke="#bfbfbf" points="549,-904.5 661,-904.5 "/>
<text text-anchor="middle" x="605" y="-892.5" font-family="Helvetica,sans-Serif" font-size="10.00" fill="#000000"> </text>
<polyline fill="none" stroke="#bfbfbf" points="549,-885.5 661,-885.5 "/>
<text text-anchor="middle" x="605" y="-873.5" font-family="Helvetica,sans-Serif" font-size="10.00" fill="#000000"> </text>
</g>
<!-- Node8&#45;&gt;Node6 -->
<g id="edge4" class="edge">
<title>Node8&#45;&gt;Node6</title>
<path fill="none" stroke="#404040" d="M600.2522,-866.15C595.3804,-845.7942 585.7381,-819.4897 567,-804 539.4883,-781.2578 516.5141,-804.635 481.8893,-785.0763"/>
<polygon fill="none" stroke="#404040" points="481.7839,-785.0061 474.5728,-785.0043 471.8009,-778.3472 479.012,-778.349 481.7839,-785.0061"/>
<text text-anchor="middle" x="625.5" y="-823.5" font-family="Helvetica,sans-Serif" font-size="10.00" fill="#000000"> #mParticles</text>
</g>
<!-- Node9 -->
<g id="node6" class="node">
<title>Node9</title>
<polygon fill="none" stroke="#bfbfbf" points="0,-866.5 0,-923.5 50,-923.5 50,-866.5 0,-866.5"/>
<text text-anchor="middle" x="25" y="-911.5" font-family="Helvetica,sans-Serif" font-size="10.00" fill="#000000">double</text>
<polyline fill="none" stroke="#bfbfbf" points="0,-904.5 50,-904.5 "/>
<text text-anchor="middle" x="25" y="-892.5" font-family="Helvetica,sans-Serif" font-size="10.00" fill="#000000"> </text>
<polyline fill="none" stroke="#bfbfbf" points="0,-885.5 50,-885.5 "/>
<text text-anchor="middle" x="25" y="-873.5" font-family="Helvetica,sans-Serif" font-size="10.00" fill="#000000"> </text>
</g>
<!-- Node9&#45;&gt;Node4 -->
<g id="edge14" class="edge">
<title>Node9&#45;&gt;Node4</title>
<path fill="none" stroke="#404040" d="M20.7747,-866.3449C18.9834,-848.2376 18.2584,-824.4754 23,-804 86.1845,-531.1553 153.2922,-476.5652 300,-238 305.5843,-228.9192 311.6279,-219.7036 317.8949,-210.5665"/>
<polygon fill="none" stroke="#404040" points="317.9134,-210.5398 318.0602,-203.3301 324.7717,-200.6927 324.6249,-207.9023 317.9134,-210.5398"/>
<text text-anchor="middle" x="201" y="-449" font-family="Helvetica,sans-Serif" font-size="10.00" fill="#000000"> #mWin</text>
</g>
<!-- Node9&#45;&gt;Node6 -->
<g id="edge5" class="edge">
<title>Node9&#45;&gt;Node6</title>
<path fill="none" stroke="#404040" d="M24.0161,-866.1717C25.0078,-845.5498 30.085,-818.9016 48,-804 93.246,-766.3646 256.2718,-814.0949 325.6258,-784.8633"/>
<polygon fill="none" stroke="#404040" points="325.6851,-784.8321 329.1284,-778.4962 336.3013,-779.2378 332.858,-785.5737 325.6851,-784.8321"/>
<text text-anchor="middle" x="95" y="-840" font-family="Helvetica,sans-Serif" font-size="10.00" fill="#000000"> #mTimeUnit</text>
<text text-anchor="middle" x="95" y="-829" font-family="Helvetica,sans-Serif" font-size="10.00" fill="#000000">#mEnergyUnit</text>
<text text-anchor="middle" x="95" y="-818" font-family="Helvetica,sans-Serif" font-size="10.00" fill="#000000">#mPositionUnit</text>
<text text-anchor="middle" x="95" y="-807" font-family="Helvetica,sans-Serif" font-size="10.00" fill="#000000">#mMomentumUnit</text>
</g>
<!-- Node10 -->
<g id="node7" class="node">
<title>Node10</title>
<polygon fill="none" stroke="#bfbfbf" points="679,-866.5 679,-923.5 807,-923.5 807,-866.5 679,-866.5"/>
<text text-anchor="middle" x="743" y="-911.5" font-family="Helvetica,sans-Serif" font-size="10.00" fill="#000000">vector&lt; DeepTrigger &gt;</text>
<polyline fill="none" stroke="#bfbfbf" points="679,-904.5 807,-904.5 "/>
<text text-anchor="middle" x="743" y="-892.5" font-family="Helvetica,sans-Serif" font-size="10.00" fill="#000000"> </text>
<polyline fill="none" stroke="#bfbfbf" points="679,-885.5 807,-885.5 "/>
<text text-anchor="middle" x="743" y="-873.5" font-family="Helvetica,sans-Serif" font-size="10.00" fill="#000000"> </text>
</g>
<!-- Node10&#45;&gt;Node6 -->
<g id="edge6" class="edge">
<title>Node10&#45;&gt;Node6</title>
<path fill="none" stroke="#404040" d="M705.1986,-866.3212C698.7626,-860.6095 692.4167,-854.3903 687,-848 672.3126,-830.6729 680.1433,-816.2265 661,-804 596.4179,-762.7525 552.0978,-824.4429 482.2888,-785.5743"/>
<polygon fill="none" stroke="#404040" points="482.0042,-785.3983 474.7973,-785.6438 471.7987,-779.0857 479.0057,-778.8402 482.0042,-785.3983"/>
<text text-anchor="middle" x="729.5" y="-823.5" font-family="Helvetica,sans-Serif" font-size="10.00" fill="#000000"> #mDeepTriggers</text>
</g>
<!-- Node11 -->
<g id="node8" class="node">
<title>Node11</title>
<polygon fill="none" stroke="#bfbfbf" points="74.5,-866.5 74.5,-923.5 177.5,-923.5 177.5,-866.5 74.5,-866.5"/>
<text text-anchor="middle" x="126" y="-911.5" font-family="Helvetica,sans-Serif" font-size="10.00" fill="#000000">vector&lt; Trigger &gt;</text>
<polyline fill="none" stroke="#bfbfbf" points="74.5,-904.5 177.5,-904.5 "/>
<text text-anchor="middle" x="126" y="-892.5" font-family="Helvetica,sans-Serif" font-size="10.00" fill="#000000"> </text>
<polyline fill="none" stroke="#bfbfbf" points="74.5,-885.5 177.5,-885.5 "/>
<text text-anchor="middle" x="126" y="-873.5" font-family="Helvetica,sans-Serif" font-size="10.00" fill="#000000"> </text>
</g>
<!-- Node11&#45;&gt;Node6 -->
<g id="edge7" class="edge">
<title>Node11&#45;&gt;Node6</title>
<path fill="none" stroke="#404040" d="M136.1881,-866.2762C145.1615,-845.4244 160.3676,-818.436 183,-804 234.298,-771.2798 269.6777,-816.8158 326.0628,-785.2546"/>
<polygon fill="none" stroke="#404040" points="326.3037,-785.1027 329.2455,-778.519 336.4543,-778.7022 333.5125,-785.286 326.3037,-785.1027"/>
<text text-anchor="middle" x="213" y="-823.5" font-family="Helvetica,sans-Serif" font-size="10.00" fill="#000000"> #mTriggers</text>
</g>
<!-- Node12 -->
<g id="node9" class="node">
<title>Node12</title>
<polygon fill="none" stroke="#bfbfbf" points="196,-866.5 196,-923.5 256,-923.5 256,-866.5 196,-866.5"/>
<text text-anchor="middle" x="226" y="-911.5" font-family="Helvetica,sans-Serif" font-size="10.00" fill="#000000">Double_t</text>
<polyline fill="none" stroke="#bfbfbf" points="196,-904.5 256,-904.5 "/>
<text text-anchor="middle" x="226" y="-892.5" font-family="Helvetica,sans-Serif" font-size="10.00" fill="#000000"> </text>
<polyline fill="none" stroke="#bfbfbf" points="196,-885.5 256,-885.5 "/>
<text text-anchor="middle" x="226" y="-873.5" font-family="Helvetica,sans-Serif" font-size="10.00" fill="#000000"> </text>
</g>
<!-- Node12&#45;&gt;Node6 -->
<g id="edge8" class="edge">
<title>Node12&#45;&gt;Node6</title>
<path fill="none" stroke="#404040" d="M236.5514,-866.4746C245.2239,-846.5455 259.3014,-820.6286 279,-804 296.4102,-789.3032 309.8706,-801.0232 327,-786 327.2004,-785.8243 327.4003,-785.6479 327.5998,-785.4709"/>
<polygon fill="none" stroke="#404040" points="327.6475,-785.4249 329.1896,-778.3806 336.2852,-777.0947 334.7431,-784.139 327.6475,-785.4249"/>
<text text-anchor="middle" x="303.5" y="-823.5" font-family="Helvetica,sans-Serif" font-size="10.00" fill="#000000"> #mBoost</text>
</g>
<!-- Node13 -->
<g id="node10" class="node">
<title>Node13</title>
<polygon fill="none" stroke="#bfbfbf" points="854.5,-866.5 854.5,-923.5 883.5,-923.5 883.5,-866.5 854.5,-866.5"/>
<text text-anchor="middle" x="869" y="-911.5" font-family="Helvetica,sans-Serif" font-size="10.00" fill="#000000">int</text>
<polyline fill="none" stroke="#bfbfbf" points="854.5,-904.5 883.5,-904.5 "/>
<text text-anchor="middle" x="869" y="-892.5" font-family="Helvetica,sans-Serif" font-size="10.00" fill="#000000"> </text>
<polyline fill="none" stroke="#bfbfbf" points="854.5,-885.5 883.5,-885.5 "/>
<text text-anchor="middle" x="869" y="-873.5" font-family="Helvetica,sans-Serif" font-size="10.00" fill="#000000"> </text>
</g>
<!-- Node13&#45;&gt;Node4 -->
<g id="edge15" class="edge">
<title>Node13&#45;&gt;Node4</title>
<path fill="none" stroke="#404040" d="M883.3675,-866.2529C885.7023,-860.3524 887.7597,-854.0823 889,-848 892.9073,-828.8388 894.7087,-822.7037 889,-804 800.4774,-513.9694 684.197,-484.7967 508,-238 501.5462,-228.9603 494.7781,-219.652 487.9225,-210.343"/>
<polygon fill="none" stroke="#404040" points="487.8915,-210.3012 481.1078,-207.8556 480.756,-200.6531 487.5398,-203.0986 487.8915,-210.3012"/>
<text text-anchor="middle" x="732" y="-471" font-family="Helvetica,sans-Serif" font-size="10.00" fill="#000000"> #mBeam</text>
<text text-anchor="middle" x="732" y="-460" font-family="Helvetica,sans-Serif" font-size="10.00" fill="#000000">#mTarget</text>
<text text-anchor="middle" x="732" y="-449" font-family="Helvetica,sans-Serif" font-size="10.00" fill="#000000">#mFrame</text>
<text text-anchor="middle" x="732" y="-438" font-family="Helvetica,sans-Serif" font-size="10.00" fill="#000000">#mConfig</text>
<text text-anchor="middle" x="732" y="-427" font-family="Helvetica,sans-Serif" font-size="10.00" fill="#000000">#mTune</text>
</g>
<!-- Node13&#45;&gt;Node6 -->
<g id="edge9" class="edge">
<title>Node13&#45;&gt;Node6</title>
<path fill="none" stroke="#404040" d="M854.4922,-886.9879C835.6412,-876.3777 804.0634,-857.8605 795,-848 780.0673,-831.7541 790.5123,-816.0087 772,-804 720.4048,-770.5306 553.6649,-815.9577 482.2947,-784.9123"/>
<polygon fill="none" stroke="#404040" points="482.2763,-784.9025 475.0994,-785.6042 471.6913,-779.2493 478.8682,-778.5476 482.2763,-784.9025"/>
<text text-anchor="middle" x="842" y="-823.5" font-family="Helvetica,sans-Serif" font-size="10.00" fill="#000000"> #mInterfaceName</text>
</g>
<!-- Node14 -->
<g id="node11" class="node">
<title>Node14</title>
<polygon fill="none" stroke="#bfbfbf" points="375.5,-866.5 375.5,-923.5 466.5,-923.5 466.5,-866.5 375.5,-866.5"/>
<text text-anchor="middle" x="421" y="-911.5" font-family="Helvetica,sans-Serif" font-size="10.00" fill="#000000">ETriggerMode_t</text>
<polyline fill="none" stroke="#bfbfbf" points="375.5,-904.5 466.5,-904.5 "/>
<text text-anchor="middle" x="421" y="-892.5" font-family="Helvetica,sans-Serif" font-size="10.00" fill="#000000"> </text>
<polyline fill="none" stroke="#bfbfbf" points="375.5,-885.5 466.5,-885.5 "/>
<text text-anchor="middle" x="421" y="-873.5" font-family="Helvetica,sans-Serif" font-size="10.00" fill="#000000"> </text>
</g>
<!-- Node14&#45;&gt;Node6 -->
<g id="edge10" class="edge">
<title>Node14&#45;&gt;Node6</title>
<path fill="none" stroke="#404040" d="M409.5983,-866.2958C407.6965,-860.3381 406.0141,-854.0353 405,-848 402.287,-831.8546 400.5101,-814.8984 399.4216,-797.9344"/>
<polygon fill="none" stroke="#404040" points="399.402,-797.5742 395.0805,-791.8014 398.7471,-785.5921 403.0686,-791.3649 399.402,-797.5742"/>
<text text-anchor="middle" x="445.5" y="-823.5" font-family="Helvetica,sans-Serif" font-size="10.00" fill="#000000"> #mTriggerMode</text>
</g>
<!-- Node15 -->
<g id="node12" class="node">
<title>Node15</title>
<polygon fill="none" stroke="#bfbfbf" points="485,-866.5 485,-923.5 531,-923.5 531,-866.5 485,-866.5"/>
<text text-anchor="middle" x="508" y="-911.5" font-family="Helvetica,sans-Serif" font-size="10.00" fill="#000000">void *</text>
<polyline fill="none" stroke="#bfbfbf" points="485,-904.5 531,-904.5 "/>
<text text-anchor="middle" x="508" y="-892.5" font-family="Helvetica,sans-Serif" font-size="10.00" fill="#000000"> </text>
<polyline fill="none" stroke="#bfbfbf" points="485,-885.5 531,-885.5 "/>
<text text-anchor="middle" x="508" y="-873.5" font-family="Helvetica,sans-Serif" font-size="10.00" fill="#000000"> </text>
</g>
<!-- Node15&#45;&gt;Node6 -->
<g id="edge11" class="edge">
<title>Node15&#45;&gt;Node6</title>
<path fill="none" stroke="#404040" d="M502.8097,-866.2165C499.1054,-848.0595 493.4587,-824.29 486,-804 483.0392,-795.9455 479.7838,-787.7713 476.3296,-779.5934"/>
<polygon fill="none" stroke="#404040" points="476.273,-779.4625 470.2183,-775.5456 471.5052,-768.4503 477.5598,-772.3671 476.273,-779.4625"/>
<text text-anchor="middle" x="530.5" y="-823.5" font-family="Helvetica,sans-Serif" font-size="10.00" fill="#000000"> #mInterface</text>
</g>
<!-- Node16 -->
<g id="node13" class="node">
<title>Node16</title>
<polygon fill="none" stroke="#bfbfbf" points="490,-613 490,-670 570,-670 570,-613 490,-613"/>
<text text-anchor="middle" x="530" y="-658" font-family="Helvetica,sans-Serif" font-size="10.00" fill="#000000">TGenerator *</text>
<polyline fill="none" stroke="#bfbfbf" points="490,-651 570,-651 "/>
<text text-anchor="middle" x="530" y="-639" font-family="Helvetica,sans-Serif" font-size="10.00" fill="#000000"> </text>
<polyline fill="none" stroke="#bfbfbf" points="490,-632 570,-632 "/>
<text text-anchor="middle" x="530" y="-620" font-family="Helvetica,sans-Serif" font-size="10.00" fill="#000000"> </text>
</g>
<!-- Node16&#45;&gt;Node5 -->
<g id="edge12" class="edge">
<title>Node16&#45;&gt;Node5</title>
<path fill="none" stroke="#404040" d="M521.148,-612.994C511.8482,-583.6562 496.4511,-536.7515 481,-497 470.8391,-470.8586 458.9971,-442.9091 447.6908,-417.1928"/>
<polygon fill="none" stroke="#404040" points="447.5663,-416.9112 441.4817,-413.0411 442.7138,-405.9361 448.7985,-409.8061 447.5663,-416.9112"/>
<text text-anchor="middle" x="511" y="-449" font-family="Helvetica,sans-Serif" font-size="10.00" fill="#000000"> #mTGenerator</text>
</g>
<!-- Node17 -->
<g id="node14" class="node">
<title>Node17</title>
<polygon fill="none" stroke="#bfbfbf" points="229.5,-613 229.5,-670 318.5,-670 318.5,-613 229.5,-613"/>
<text text-anchor="middle" x="274" y="-658" font-family="Helvetica,sans-Serif" font-size="10.00" fill="#000000">TClonesArray *</text>
<polyline fill="none" stroke="#bfbfbf" points="229.5,-651 318.5,-651 "/>
<text text-anchor="middle" x="274" y="-639" font-family="Helvetica,sans-Serif" font-size="10.00" fill="#000000"> </text>
<polyline fill="none" stroke="#bfbfbf" points="229.5,-632 318.5,-632 "/>
<text text-anchor="middle" x="274" y="-620" font-family="Helvetica,sans-Serif" font-size="10.00" fill="#000000"> </text>
</g>
<!-- Node17&#45;&gt;Node5 -->
<g id="edge13" class="edge">
<title>Node17&#45;&gt;Node5</title>
<path fill="none" stroke="#404040" d="M273.421,-612.8054C273.6618,-569.6256 278.5116,-486.3631 309,-424 310.2779,-421.3861 311.6453,-418.7927 313.0911,-416.2237"/>
<polygon fill="none" stroke="#404040" points="313.1955,-416.0525 312.9067,-408.8471 319.4468,-405.8093 319.7355,-413.0147 313.1955,-416.0525"/>
<text text-anchor="middle" x="354.5" y="-449" font-family="Helvetica,sans-Serif" font-size="10.00" fill="#000000"> #mCloneParticles</text>
</g>
</g>
</svg>
