<?xml version="1.0" encoding="UTF-8" standalone="no"?>
<!DOCTYPE svg PUBLIC "-//W3C//DTD SVG 1.1//EN"
 "http://www.w3.org/Graphics/SVG/1.1/DTD/svg11.dtd">
<!-- Generated by graphviz version 2.40.1 (20161225.0304)
 -->
<!-- Title: /home/travis/build/AliceO2Group/AliceO2/DataFormats/Detectors/TPC/src/CompressedClusters.cxx Pages: 1 -->
<svg width="592pt" height="307pt"
 viewBox="0.00 0.00 591.50 307.00" xmlns="http://www.w3.org/2000/svg" xmlns:xlink="http://www.w3.org/1999/xlink">
<g id="graph0" class="graph" transform="scale(1 1) rotate(0) translate(4 303)">
<title>/home/travis/build/AliceO2Group/AliceO2/DataFormats/Detectors/TPC/src/CompressedClusters.cxx</title>
<!-- Node0 -->
<g id="node1" class="node">
<title>Node0</title>
<polygon fill="#bfbfbf" stroke="#000000" points="301.5,-246.5 301.5,-298.5 480.5,-298.5 480.5,-246.5 301.5,-246.5"/>
<text text-anchor="start" x="309.5" y="-286.5" font-family="Helvetica,sans-Serif" font-size="10.00" fill="#000000">/home/travis/build</text>
<text text-anchor="start" x="309.5" y="-275.5" font-family="Helvetica,sans-Serif" font-size="10.00" fill="#000000">/AliceO2Group/AliceO2</text>
<text text-anchor="start" x="309.5" y="-264.5" font-family="Helvetica,sans-Serif" font-size="10.00" fill="#000000">/DataFormats/Detectors</text>
<text text-anchor="middle" x="391" y="-253.5" font-family="Helvetica,sans-Serif" font-size="10.00" fill="#000000">/TPC/src/CompressedClusters.cxx</text>
</g>
<!-- Node1 -->
<g id="node2" class="node">
<title>Node1</title>
<g id="a_node2"><a xlink:href="../../d2/d7d/CompressedClusters_8h.html" target="_top" xlink:title="Container to store compressed TPC cluster data. ">
<polygon fill="none" stroke="#000000" points="0,-112.5 0,-142.5 162,-142.5 162,-112.5 0,-112.5"/>
<text text-anchor="start" x="8" y="-130.5" font-family="Helvetica,sans-Serif" font-size="10.00" fill="#000000">DataFormatsTPC/Compressed</text>
<text text-anchor="middle" x="81" y="-119.5" font-family="Helvetica,sans-Serif" font-size="10.00" fill="#000000">Clusters.h</text>
</a>
</g>
</g>
<!-- Node0&#45;&gt;Node1 -->
<g id="edge1" class="edge">
<title>Node0&#45;&gt;Node1</title>
<path fill="none" stroke="#191970" d="M301.3177,-251.2391C266.1878,-241.1572 226.1928,-227.4436 192,-210 159.5693,-193.4553 126.6151,-167.5668 105.1348,-149.2075"/>
<polygon fill="#191970" stroke="#191970" points="107.3364,-146.4839 97.489,-142.5749 102.7494,-151.7716 107.3364,-146.4839"/>
</g>
<!-- Node4 -->
<g id="node5" class="node">
<title>Node4</title>
<g id="a_node5"><a xlink:href="../../d3/d64/CompressedClustersHelpers_8h.html" target="_top" xlink:title="Helper for the CompressedClusters container. ">
<polygon fill="none" stroke="#000000" points="201,-179.5 201,-209.5 363,-209.5 363,-179.5 201,-179.5"/>
<text text-anchor="start" x="209" y="-197.5" font-family="Helvetica,sans-Serif" font-size="10.00" fill="#000000">DataFormatsTPC/Compressed</text>
<text text-anchor="middle" x="282" y="-186.5" font-family="Helvetica,sans-Serif" font-size="10.00" fill="#000000">ClustersHelpers.h</text>
</a>
</g>
</g>
<!-- Node0&#45;&gt;Node4 -->
<g id="edge4" class="edge">
<title>Node0&#45;&gt;Node4</title>
<path fill="none" stroke="#191970" d="M354.4014,-246.3101C340.3988,-236.29 324.6227,-225.0007 311.3796,-215.524"/>
<polygon fill="#191970" stroke="#191970" points="313.2561,-212.5629 303.0869,-209.5897 309.1824,-218.2555 313.2561,-212.5629"/>
</g>
<!-- Node8 -->
<g id="node9" class="node">
<title>Node8</title>
<polygon fill="none" stroke="#bfbfbf" points="536.5,-118 536.5,-137 583.5,-137 583.5,-118 536.5,-118"/>
<text text-anchor="middle" x="560" y="-125" font-family="Helvetica,sans-Serif" font-size="10.00" fill="#000000">vector</text>
</g>
<!-- Node0&#45;&gt;Node8 -->
<g id="edge13" class="edge">
<title>Node0&#45;&gt;Node8</title>
<path fill="none" stroke="#191970" d="M389.4888,-246.3055C389.7392,-225.5591 393.5135,-197.1437 410,-179 446.8737,-138.4198 476.9513,-163.0112 528,-143 529.4009,-142.4509 530.8251,-141.8658 532.2555,-141.2565"/>
<polygon fill="#191970" stroke="#191970" points="533.9457,-144.3331 541.6036,-137.0114 531.0512,-137.9595 533.9457,-144.3331"/>
</g>
<!-- Node10 -->
<g id="node11" class="node">
<title>Node10</title>
<polygon fill="none" stroke="#bfbfbf" points="419,-185 419,-204 479,-204 479,-185 419,-185"/>
<text text-anchor="middle" x="449" y="-192" font-family="Helvetica,sans-Serif" font-size="10.00" fill="#000000">TBuffer.h</text>
</g>
<!-- Node0&#45;&gt;Node10 -->
<g id="edge12" class="edge">
<title>Node0&#45;&gt;Node10</title>
<path fill="none" stroke="#191970" d="M410.6362,-246.0928C418.8891,-234.994 428.2754,-222.371 435.6979,-212.389"/>
<polygon fill="#191970" stroke="#191970" points="438.7151,-214.197 441.8735,-204.0839 433.0978,-210.02 438.7151,-214.197"/>
</g>
<!-- Node11 -->
<g id="node12" class="node">
<title>Node11</title>
<polygon fill="none" stroke="#bfbfbf" points="497.5,-185 497.5,-204 554.5,-204 554.5,-185 497.5,-185"/>
<text text-anchor="middle" x="526" y="-192" font-family="Helvetica,sans-Serif" font-size="10.00" fill="#000000">gsl/span</text>
</g>
<!-- Node0&#45;&gt;Node11 -->
<g id="edge14" class="edge">
<title>Node0&#45;&gt;Node11</title>
<path fill="none" stroke="#191970" d="M436.3286,-246.3101C457.7238,-233.9485 482.4621,-219.6552 500.5287,-209.2167"/>
<polygon fill="#191970" stroke="#191970" points="502.4075,-212.1735 509.3152,-204.1401 498.9055,-206.1124 502.4075,-212.1735"/>
</g>
<!-- Node2 -->
<g id="node3" class="node">
<title>Node2</title>
<g id="a_node3"><a xlink:href="../../d2/d45/GPUCommonRtypes_8h.html" target="_top" xlink:title="GPUCommonRtypes.h">
<polygon fill="none" stroke="#000000" points="18.5,-56.5 18.5,-75.5 143.5,-75.5 143.5,-56.5 18.5,-56.5"/>
<text text-anchor="middle" x="81" y="-63.5" font-family="Helvetica,sans-Serif" font-size="10.00" fill="#000000">GPUCommonRtypes.h</text>
</a>
</g>
</g>
<!-- Node1&#45;&gt;Node2 -->
<g id="edge2" class="edge">
<title>Node1&#45;&gt;Node2</title>
<path fill="none" stroke="#191970" d="M81,-112.2977C81,-104.3834 81,-94.6043 81,-86.0759"/>
<polygon fill="#191970" stroke="#191970" points="84.5001,-85.8469 81,-75.8469 77.5001,-85.847 84.5001,-85.8469"/>
</g>
<!-- Node3 -->
<g id="node4" class="node">
<title>Node3</title>
<polygon fill="none" stroke="#bfbfbf" points="51.5,-.5 51.5,-19.5 110.5,-19.5 110.5,-.5 51.5,-.5"/>
<text text-anchor="middle" x="81" y="-7.5" font-family="Helvetica,sans-Serif" font-size="10.00" fill="#000000">Rtypes.h</text>
</g>
<!-- Node2&#45;&gt;Node3 -->
<g id="edge3" class="edge">
<title>Node2&#45;&gt;Node3</title>
<path fill="none" stroke="#191970" d="M81,-56.2455C81,-48.9382 81,-38.6944 81,-29.7046"/>
<polygon fill="#191970" stroke="#191970" points="84.5001,-29.6426 81,-19.6427 77.5001,-29.6427 84.5001,-29.6426"/>
</g>
<!-- Node4&#45;&gt;Node1 -->
<g id="edge11" class="edge">
<title>Node4&#45;&gt;Node1</title>
<path fill="none" stroke="#191970" d="M236.8917,-179.4639C206.9969,-169.499 167.5927,-156.3642 135.8807,-145.7936"/>
<polygon fill="#191970" stroke="#191970" points="136.8987,-142.4436 126.3051,-142.6017 134.6851,-149.0844 136.8987,-142.4436"/>
</g>
<!-- Node5 -->
<g id="node6" class="node">
<title>Node5</title>
<polygon fill="none" stroke="#bfbfbf" points="285.5,-56.5 285.5,-75.5 354.5,-75.5 354.5,-56.5 285.5,-56.5"/>
<text text-anchor="middle" x="320" y="-63.5" font-family="Helvetica,sans-Serif" font-size="10.00" fill="#000000">type_traits</text>
</g>
<!-- Node4&#45;&gt;Node5 -->
<g id="edge5" class="edge">
<title>Node4&#45;&gt;Node5</title>
<path fill="none" stroke="#191970" d="M247.8107,-179.4711C233.0442,-171.045 217.2794,-158.9734 209,-143 202.6597,-130.7678 201.3465,-123.4565 209,-112 223.7527,-89.917 251.2846,-78.4216 275.2365,-72.4446"/>
<polygon fill="#191970" stroke="#191970" points="276.241,-75.8065 285.2348,-70.2062 274.7116,-68.9756 276.241,-75.8065"/>
</g>
<!-- Node6 -->
<g id="node7" class="node">
<title>Node6</title>
<polygon fill="none" stroke="#bfbfbf" points="218,-118 218,-137 270,-137 270,-118 218,-118"/>
<text text-anchor="middle" x="244" y="-125" font-family="Helvetica,sans-Serif" font-size="10.00" fill="#000000">cassert</text>
</g>
<!-- Node4&#45;&gt;Node6 -->
<g id="edge6" class="edge">
<title>Node4&#45;&gt;Node6</title>
<path fill="none" stroke="#191970" d="M273.3772,-179.2967C267.744,-169.3645 260.3553,-156.3371 254.3973,-145.8321"/>
<polygon fill="#191970" stroke="#191970" points="257.3971,-144.0266 249.4192,-137.055 251.3083,-147.4801 257.3971,-144.0266"/>
</g>
<!-- Node7 -->
<g id="node8" class="node">
<title>Node7</title>
<polygon fill="none" stroke="#bfbfbf" points="288.5,-118 288.5,-137 353.5,-137 353.5,-118 288.5,-118"/>
<text text-anchor="middle" x="321" y="-125" font-family="Helvetica,sans-Serif" font-size="10.00" fill="#000000">stdexcept</text>
</g>
<!-- Node4&#45;&gt;Node7 -->
<g id="edge7" class="edge">
<title>Node4&#45;&gt;Node7</title>
<path fill="none" stroke="#191970" d="M290.8497,-179.2967C296.6311,-169.3645 304.2142,-156.3371 310.3291,-145.8321"/>
<polygon fill="#191970" stroke="#191970" points="313.4323,-147.4582 315.4382,-137.055 307.3825,-143.9367 313.4323,-147.4582"/>
</g>
<!-- Node4&#45;&gt;Node8 -->
<g id="edge8" class="edge">
<title>Node4&#45;&gt;Node8</title>
<path fill="none" stroke="#191970" d="M363.1396,-179.7258C422.5974,-168.483 497.9558,-153.2479 528,-143 529.6067,-142.452 531.2374,-141.8428 532.8685,-141.192"/>
<polygon fill="#191970" stroke="#191970" points="534.3111,-144.3811 542.0494,-137.1444 531.4872,-137.976 534.3111,-144.3811"/>
</g>
<!-- Node9 -->
<g id="node10" class="node">
<title>Node9</title>
<g id="a_node10"><a xlink:href="../../d4/d4a/FlattenRestore_8h.html" target="_top" xlink:title="Utilities to copy complex objects to flat buffer and restore. ">
<polygon fill="none" stroke="#000000" points="371.5,-118 371.5,-137 518.5,-137 518.5,-118 371.5,-118"/>
<text text-anchor="middle" x="445" y="-125" font-family="Helvetica,sans-Serif" font-size="10.00" fill="#000000">Algorithm/FlattenRestore.h</text>
</a>
</g>
</g>
<!-- Node4&#45;&gt;Node9 -->
<g id="edge9" class="edge">
<title>Node4&#45;&gt;Node9</title>
<path fill="none" stroke="#191970" d="M318.5804,-179.4639C346.6689,-167.9183 385.1094,-152.1176 412.2058,-140.9798"/>
<polygon fill="#191970" stroke="#191970" points="413.7167,-144.143 421.6352,-137.1039 411.0555,-137.6686 413.7167,-144.143"/>
</g>
<!-- Node9&#45;&gt;Node5 -->
<g id="edge10" class="edge">
<title>Node9&#45;&gt;Node5</title>
<path fill="none" stroke="#191970" d="M425.4688,-117.8906C404.8292,-107.7359 372.0724,-91.6196 348.5398,-80.0416"/>
<polygon fill="#191970" stroke="#191970" points="349.912,-76.8161 339.3941,-75.5419 346.8218,-83.0971 349.912,-76.8161"/>
</g>
</g>
</svg>
