<?xml version="1.0" encoding="UTF-8" standalone="no"?>
<!DOCTYPE svg PUBLIC "-//W3C//DTD SVG 1.1//EN"
 "http://www.w3.org/Graphics/SVG/1.1/DTD/svg11.dtd">
<!-- Generated by graphviz version 2.40.1 (20161225.0304)
 -->
<!-- Title: /home/travis/build/AliceO2Group/AliceO2/Utilities/rANS/include/librans/helper.h Pages: 1 -->
<svg width="289pt" height="417pt"
 viewBox="0.00 0.00 288.50 417.00" xmlns="http://www.w3.org/2000/svg" xmlns:xlink="http://www.w3.org/1999/xlink">
<g id="graph0" class="graph" transform="scale(1 1) rotate(0) translate(4 413)">
<title>/home/travis/build/AliceO2Group/AliceO2/Utilities/rANS/include/librans/helper.h</title>
<!-- Node1 -->
<g id="node1" class="node">
<title>Node1</title>
<polygon fill="#bfbfbf" stroke="#000000" points="98,-356.5 98,-408.5 225,-408.5 225,-356.5 98,-356.5"/>
<text text-anchor="start" x="106" y="-396.5" font-family="Helvetica,sans-Serif" font-size="10.00" fill="#000000">/home/travis/build</text>
<text text-anchor="start" x="106" y="-385.5" font-family="Helvetica,sans-Serif" font-size="10.00" fill="#000000">/AliceO2Group/AliceO2</text>
<text text-anchor="start" x="106" y="-374.5" font-family="Helvetica,sans-Serif" font-size="10.00" fill="#000000">/Utilities/rANS/include</text>
<text text-anchor="middle" x="161.5" y="-363.5" font-family="Helvetica,sans-Serif" font-size="10.00" fill="#000000">/librans/helper.h</text>
</g>
<!-- Node2 -->
<g id="node2" class="node">
<title>Node2</title>
<g id="a_node2"><a xlink:href="../../d2/d53/EncoderSymbol_8h.html" target="_top" xlink:title="Structure containing all relevant information to encode a symbol. ">
<polygon fill="none" stroke="#000000" points="140.5,-267.5 140.5,-319.5 280.5,-319.5 280.5,-267.5 140.5,-267.5"/>
<text text-anchor="start" x="148.5" y="-307.5" font-family="Helvetica,sans-Serif" font-size="10.00" fill="#000000">/home/travis/build</text>
<text text-anchor="start" x="148.5" y="-296.5" font-family="Helvetica,sans-Serif" font-size="10.00" fill="#000000">/AliceO2Group/AliceO2</text>
<text text-anchor="start" x="148.5" y="-285.5" font-family="Helvetica,sans-Serif" font-size="10.00" fill="#000000">/Utilities/rANS/include</text>
<text text-anchor="middle" x="210.5" y="-274.5" font-family="Helvetica,sans-Serif" font-size="10.00" fill="#000000">/librans/EncoderSymbol.h</text>
</a>
</g>
</g>
<!-- Node1&#45;&gt;Node2 -->
<g id="edge1" class="edge">
<title>Node1&#45;&gt;Node2</title>
<path fill="none" stroke="#191970" d="M180.8936,-347.2749C185.9879,-338.0219 191.3906,-328.209 196.1666,-319.5341"/>
<polygon fill="#191970" stroke="#191970" points="177.6936,-345.8303 175.9366,-356.2784 183.8256,-349.2064 177.6936,-345.8303"/>
</g>
<!-- Node3 -->
<g id="node3" class="node">
<title>Node3</title>
<g id="a_node3"><a xlink:href="../../d5/d7a/Coder_8h.html" target="_top" xlink:title="Stateless class for coding and decoding symbols using rANS. ">
<polygon fill="none" stroke="#000000" points="52,-178.5 52,-230.5 179,-230.5 179,-178.5 52,-178.5"/>
<text text-anchor="start" x="60" y="-218.5" font-family="Helvetica,sans-Serif" font-size="10.00" fill="#000000">/home/travis/build</text>
<text text-anchor="start" x="60" y="-207.5" font-family="Helvetica,sans-Serif" font-size="10.00" fill="#000000">/AliceO2Group/AliceO2</text>
<text text-anchor="start" x="60" y="-196.5" font-family="Helvetica,sans-Serif" font-size="10.00" fill="#000000">/Utilities/rANS/include</text>
<text text-anchor="middle" x="115.5" y="-185.5" font-family="Helvetica,sans-Serif" font-size="10.00" fill="#000000">/librans/Coder.h</text>
</a>
</g>
</g>
<!-- Node1&#45;&gt;Node3 -->
<g id="edge10" class="edge">
<title>Node1&#45;&gt;Node3</title>
<path fill="none" stroke="#191970" d="M142.2891,-347.3421C138.1802,-338.6161 134.2534,-329.1403 131.5,-320 122.5082,-290.1498 118.5446,-254.4163 116.8136,-230.6799"/>
<polygon fill="#191970" stroke="#191970" points="139.2207,-349.034 146.7723,-356.4652 145.5031,-345.9467 139.2207,-349.034"/>
</g>
<!-- Node2&#45;&gt;Node3 -->
<g id="edge2" class="edge">
<title>Node2&#45;&gt;Node3</title>
<path fill="none" stroke="#191970" d="M175.0505,-260.2894C164.5573,-250.459 153.2241,-239.8415 143.2893,-230.5341"/>
<polygon fill="#191970" stroke="#191970" points="172.82,-262.9958 182.5107,-267.2784 177.6058,-257.8873 172.82,-262.9958"/>
</g>
<!-- Node7 -->
<g id="node7" class="node">
<title>Node7</title>
<g id="a_node7"><a xlink:href="../../d4/db1/Utilities_2rANS_2include_2librans_2Encoder_8h.html" target="_top" xlink:title="/home/travis/build\l/AliceO2Group/AliceO2\l/Utilities/rANS/include\l/librans/Encoder.h">
<polygon fill="none" stroke="#000000" points="147,-89.5 147,-141.5 274,-141.5 274,-89.5 147,-89.5"/>
<text text-anchor="start" x="155" y="-129.5" font-family="Helvetica,sans-Serif" font-size="10.00" fill="#000000">/home/travis/build</text>
<text text-anchor="start" x="155" y="-118.5" font-family="Helvetica,sans-Serif" font-size="10.00" fill="#000000">/AliceO2Group/AliceO2</text>
<text text-anchor="start" x="155" y="-107.5" font-family="Helvetica,sans-Serif" font-size="10.00" fill="#000000">/Utilities/rANS/include</text>
<text text-anchor="middle" x="210.5" y="-96.5" font-family="Helvetica,sans-Serif" font-size="10.00" fill="#000000">/librans/Encoder.h</text>
</a>
</g>
</g>
<!-- Node2&#45;&gt;Node7 -->
<g id="edge9" class="edge">
<title>Node2&#45;&gt;Node7</title>
<path fill="none" stroke="#191970" d="M210.5,-257.1378C210.5,-222.7809 210.5,-172.0886 210.5,-141.5823"/>
<polygon fill="#191970" stroke="#191970" points="207.0001,-257.2355 210.5,-267.2355 214.0001,-257.2355 207.0001,-257.2355"/>
</g>
<!-- Node4 -->
<g id="node4" class="node">
<title>Node4</title>
<g id="a_node4"><a xlink:href="../../d4/dfd/Utilities_2rANS_2include_2librans_2Decoder_8h.html" target="_top" xlink:title="/home/travis/build\l/AliceO2Group/AliceO2\l/Utilities/rANS/include\l/librans/Decoder.h">
<polygon fill="none" stroke="#000000" points="2,-89.5 2,-141.5 129,-141.5 129,-89.5 2,-89.5"/>
<text text-anchor="start" x="10" y="-129.5" font-family="Helvetica,sans-Serif" font-size="10.00" fill="#000000">/home/travis/build</text>
<text text-anchor="start" x="10" y="-118.5" font-family="Helvetica,sans-Serif" font-size="10.00" fill="#000000">/AliceO2Group/AliceO2</text>
<text text-anchor="start" x="10" y="-107.5" font-family="Helvetica,sans-Serif" font-size="10.00" fill="#000000">/Utilities/rANS/include</text>
<text text-anchor="middle" x="65.5" y="-96.5" font-family="Helvetica,sans-Serif" font-size="10.00" fill="#000000">/librans/Decoder.h</text>
</a>
</g>
</g>
<!-- Node3&#45;&gt;Node4 -->
<g id="edge3" class="edge">
<title>Node3&#45;&gt;Node4</title>
<path fill="none" stroke="#191970" d="M95.7106,-169.2749C90.5123,-160.0219 84.9994,-150.209 80.1259,-141.5341"/>
<polygon fill="#191970" stroke="#191970" points="92.8193,-171.2744 100.7688,-178.2784 98.9222,-167.8457 92.8193,-171.2744"/>
</g>
<!-- Node3&#45;&gt;Node7 -->
<g id="edge6" class="edge">
<title>Node3&#45;&gt;Node7</title>
<path fill="none" stroke="#191970" d="M150.9495,-171.2894C161.4427,-161.459 172.7759,-150.8415 182.7107,-141.5341"/>
<polygon fill="#191970" stroke="#191970" points="148.3942,-168.8873 143.4893,-178.2784 153.18,-173.9958 148.3942,-168.8873"/>
</g>
<!-- Node5 -->
<g id="node5" class="node">
<title>Node5</title>
<g id="a_node5"><a xlink:href="../../d4/de7/rans_8h.html" target="_top" xlink:title="header for public api ">
<polygon fill="none" stroke="#000000" points="0,-.5 0,-52.5 127,-52.5 127,-.5 0,-.5"/>
<text text-anchor="start" x="8" y="-40.5" font-family="Helvetica,sans-Serif" font-size="10.00" fill="#000000">/home/travis/build</text>
<text text-anchor="start" x="8" y="-29.5" font-family="Helvetica,sans-Serif" font-size="10.00" fill="#000000">/AliceO2Group/AliceO2</text>
<text text-anchor="start" x="8" y="-18.5" font-family="Helvetica,sans-Serif" font-size="10.00" fill="#000000">/Utilities/rANS/include</text>
<text text-anchor="middle" x="63.5" y="-7.5" font-family="Helvetica,sans-Serif" font-size="10.00" fill="#000000">/librans/rans.h</text>
</a>
</g>
</g>
<!-- Node4&#45;&gt;Node5 -->
<g id="edge4" class="edge">
<title>Node4&#45;&gt;Node5</title>
<path fill="none" stroke="#191970" d="M64.6824,-79.1155C64.4822,-70.2061 64.2719,-60.8475 64.085,-52.5341"/>
<polygon fill="#191970" stroke="#191970" points="61.1869,-79.3596 64.9108,-89.2784 68.1851,-79.2023 61.1869,-79.3596"/>
</g>
<!-- Node6 -->
<g id="node6" class="node">
<title>Node6</title>
<g id="a_node6"><a xlink:href="../../d6/d7c/test__ransEncodeDecode_8cxx.html" target="_top" xlink:title="/home/travis/build\l/AliceO2Group/AliceO2\l/Utilities/rANS/test/test\l_ransEncodeDecode.cxx">
<polygon fill="none" stroke="#000000" points="145,-.5 145,-52.5 280,-52.5 280,-.5 145,-.5"/>
<text text-anchor="start" x="153" y="-40.5" font-family="Helvetica,sans-Serif" font-size="10.00" fill="#000000">/home/travis/build</text>
<text text-anchor="start" x="153" y="-29.5" font-family="Helvetica,sans-Serif" font-size="10.00" fill="#000000">/AliceO2Group/AliceO2</text>
<text text-anchor="start" x="153" y="-18.5" font-family="Helvetica,sans-Serif" font-size="10.00" fill="#000000">/Utilities/rANS/test/test</text>
<text text-anchor="middle" x="212.5" y="-7.5" font-family="Helvetica,sans-Serif" font-size="10.00" fill="#000000">_ransEncodeDecode.cxx</text>
</a>
</g>
</g>
<!-- Node4&#45;&gt;Node6 -->
<g id="edge5" class="edge">
<title>Node4&#45;&gt;Node6</title>
<path fill="none" stroke="#191970" d="M117.5298,-83.9989C134.5398,-73.7004 153.2314,-62.3837 169.4998,-52.5341"/>
<polygon fill="#191970" stroke="#191970" points="115.5514,-81.1052 108.8098,-89.2784 119.1768,-87.0933 115.5514,-81.1052"/>
</g>
<!-- Node7&#45;&gt;Node5 -->
<g id="edge7" class="edge">
<title>Node7&#45;&gt;Node5</title>
<path fill="none" stroke="#191970" d="M158.4702,-83.9989C141.4602,-73.7004 122.7686,-62.3837 106.5002,-52.5341"/>
<polygon fill="#191970" stroke="#191970" points="156.8232,-87.0933 167.1902,-89.2784 160.4486,-81.1052 156.8232,-87.0933"/>
</g>
<!-- Node7&#45;&gt;Node6 -->
<g id="edge8" class="edge">
<title>Node7&#45;&gt;Node6</title>
<path fill="none" stroke="#191970" d="M211.3176,-79.1155C211.5178,-70.2061 211.7281,-60.8475 211.915,-52.5341"/>
<polygon fill="#191970" stroke="#191970" points="207.8149,-79.2023 211.0892,-89.2784 214.8131,-79.3596 207.8149,-79.2023"/>
</g>
</g>
</svg>
