<?xml version="1.0" encoding="UTF-8" standalone="no"?>
<!DOCTYPE svg PUBLIC "-//W3C//DTD SVG 1.1//EN"
 "http://www.w3.org/Graphics/SVG/1.1/DTD/svg11.dtd">
<!-- Generated by graphviz version 2.40.1 (20161225.0304)
 -->
<!-- Title: /home/travis/build/AliceO2Group/AliceO2/Utilities/rANS/src/SymbolStatistics.cxx Pages: 1 -->
<svg width="360pt" height="162pt"
 viewBox="0.00 0.00 359.50 162.00" xmlns="http://www.w3.org/2000/svg" xmlns:xlink="http://www.w3.org/1999/xlink">
<g id="graph0" class="graph" transform="scale(1 1) rotate(0) translate(4 158)">
<title>/home/travis/build/AliceO2Group/AliceO2/Utilities/rANS/src/SymbolStatistics.cxx</title>
<!-- Node0 -->
<g id="node1" class="node">
<title>Node0</title>
<polygon fill="#bfbfbf" stroke="#000000" points="21.5,-112.5 21.5,-153.5 228.5,-153.5 228.5,-112.5 21.5,-112.5"/>
<text text-anchor="start" x="29.5" y="-141.5" font-family="Helvetica,sans-Serif" font-size="10.00" fill="#000000">/home/travis/build</text>
<text text-anchor="start" x="29.5" y="-130.5" font-family="Helvetica,sans-Serif" font-size="10.00" fill="#000000">/AliceO2Group/AliceO2</text>
<text text-anchor="middle" x="125" y="-119.5" font-family="Helvetica,sans-Serif" font-size="10.00" fill="#000000">/Utilities/rANS/src/SymbolStatistics.cxx</text>
</g>
<!-- Node1 -->
<g id="node2" class="node">
<title>Node1</title>
<polygon fill="none" stroke="#bfbfbf" points="45.5,-56.5 45.5,-75.5 92.5,-75.5 92.5,-56.5 45.5,-56.5"/>
<text text-anchor="middle" x="69" y="-63.5" font-family="Helvetica,sans-Serif" font-size="10.00" fill="#000000">cmath</text>
</g>
<!-- Node0&#45;&gt;Node1 -->
<g id="edge1" class="edge">
<title>Node0&#45;&gt;Node1</title>
<path fill="none" stroke="#191970" d="M107.5882,-112.168C99.8995,-102.9691 90.9617,-92.2756 83.6251,-83.4979"/>
<polygon fill="#191970" stroke="#191970" points="86.2734,-81.2087 77.1747,-75.7805 80.9024,-85.6979 86.2734,-81.2087"/>
</g>
<!-- Node2 -->
<g id="node3" class="node">
<title>Node2</title>
<g id="a_node3"><a xlink:href="../../d0/d51/SymbolStatistics_8h.html" target="_top" xlink:title="Structure to depict the distribution of symbols in the source message. ">
<polygon fill="none" stroke="#000000" points="110.5,-56.5 110.5,-75.5 253.5,-75.5 253.5,-56.5 110.5,-56.5"/>
<text text-anchor="middle" x="182" y="-63.5" font-family="Helvetica,sans-Serif" font-size="10.00" fill="#000000">librans/SymbolStatistics.h</text>
</a>
</g>
</g>
<!-- Node0&#45;&gt;Node2 -->
<g id="edge2" class="edge">
<title>Node0&#45;&gt;Node2</title>
<path fill="none" stroke="#191970" d="M142.7227,-112.168C150.5487,-102.9691 159.6462,-92.2756 167.1138,-83.4979"/>
<polygon fill="#191970" stroke="#191970" points="169.8653,-85.665 173.6793,-75.7805 164.5337,-81.1291 169.8653,-85.665"/>
</g>
<!-- Node3 -->
<g id="node4" class="node">
<title>Node3</title>
<polygon fill="none" stroke="#bfbfbf" points="0,-.5 0,-19.5 64,-19.5 64,-.5 0,-.5"/>
<text text-anchor="middle" x="32" y="-7.5" font-family="Helvetica,sans-Serif" font-size="10.00" fill="#000000">algorithm</text>
</g>
<!-- Node2&#45;&gt;Node3 -->
<g id="edge3" class="edge">
<title>Node2&#45;&gt;Node3</title>
<path fill="none" stroke="#191970" d="M156.2141,-56.3733C131.5953,-47.1822 94.31,-33.2624 67.0125,-23.0713"/>
<polygon fill="#191970" stroke="#191970" points="68.042,-19.7198 57.4494,-19.5011 65.5937,-26.2777 68.042,-19.7198"/>
</g>
<!-- Node4 -->
<g id="node5" class="node">
<title>Node4</title>
<polygon fill="none" stroke="#bfbfbf" points="82,-.5 82,-19.5 134,-19.5 134,-.5 82,-.5"/>
<text text-anchor="middle" x="108" y="-7.5" font-family="Helvetica,sans-Serif" font-size="10.00" fill="#000000">cassert</text>
</g>
<!-- Node2&#45;&gt;Node4 -->
<g id="edge4" class="edge">
<title>Node2&#45;&gt;Node4</title>
<path fill="none" stroke="#191970" d="M169.1102,-56.2455C158.0746,-47.8943 141.9708,-35.7076 129.0647,-25.9408"/>
<polygon fill="#191970" stroke="#191970" points="130.8283,-22.8862 120.7421,-19.6427 126.6041,-28.4681 130.8283,-22.8862"/>
</g>
<!-- Node5 -->
<g id="node6" class="node">
<title>Node5</title>
<polygon fill="none" stroke="#bfbfbf" points="152,-.5 152,-19.5 212,-19.5 212,-.5 152,-.5"/>
<text text-anchor="middle" x="182" y="-7.5" font-family="Helvetica,sans-Serif" font-size="10.00" fill="#000000">iostream</text>
</g>
<!-- Node2&#45;&gt;Node5 -->
<g id="edge5" class="edge">
<title>Node2&#45;&gt;Node5</title>
<path fill="none" stroke="#191970" d="M182,-56.2455C182,-48.9382 182,-38.6944 182,-29.7046"/>
<polygon fill="#191970" stroke="#191970" points="185.5001,-29.6426 182,-19.6427 178.5001,-29.6427 185.5001,-29.6426"/>
</g>
<!-- Node6 -->
<g id="node7" class="node">
<title>Node6</title>
<polygon fill="none" stroke="#bfbfbf" points="230,-.5 230,-19.5 286,-19.5 286,-.5 230,-.5"/>
<text text-anchor="middle" x="258" y="-7.5" font-family="Helvetica,sans-Serif" font-size="10.00" fill="#000000">numeric</text>
</g>
<!-- Node2&#45;&gt;Node6 -->
<g id="edge6" class="edge">
<title>Node2&#45;&gt;Node6</title>
<path fill="none" stroke="#191970" d="M195.2382,-56.2455C206.681,-47.814 223.4296,-35.4729 236.7475,-25.6598"/>
<polygon fill="#191970" stroke="#191970" points="238.9391,-28.3924 244.9135,-19.6427 234.7867,-22.757 238.9391,-28.3924"/>
</g>
<!-- Node7 -->
<g id="node8" class="node">
<title>Node7</title>
<polygon fill="none" stroke="#bfbfbf" points="304.5,-.5 304.5,-19.5 351.5,-19.5 351.5,-.5 304.5,-.5"/>
<text text-anchor="middle" x="328" y="-7.5" font-family="Helvetica,sans-Serif" font-size="10.00" fill="#000000">vector</text>
</g>
<!-- Node2&#45;&gt;Node7 -->
<g id="edge7" class="edge">
<title>Node2&#45;&gt;Node7</title>
<path fill="none" stroke="#191970" d="M207.0983,-56.3733C231.2447,-47.1116 267.9099,-33.0482 294.5317,-22.8371"/>
<polygon fill="#191970" stroke="#191970" points="296.1127,-25.9794 304.196,-19.1303 293.6058,-19.4437 296.1127,-25.9794"/>
</g>
</g>
</svg>
