<?xml version="1.0" encoding="UTF-8" standalone="no"?>
<!DOCTYPE svg PUBLIC "-//W3C//DTD SVG 1.1//EN"
 "http://www.w3.org/Graphics/SVG/1.1/DTD/svg11.dtd">
<!-- Generated by graphviz version 2.40.1 (20161225.0304)
 -->
<!-- Title: /home/travis/build/AliceO2Group/AliceO2/Detectors/MUON/MCH/Raw/ElecMap/include/MCHRawElecMap/Mapper.h Pages: 1 -->
<svg width="1606pt" height="161pt"
 viewBox="0.00 0.00 1606.00 161.00" xmlns="http://www.w3.org/2000/svg" xmlns:xlink="http://www.w3.org/1999/xlink">
<g id="graph0" class="graph" transform="scale(1 1) rotate(0) translate(4 157)">
<title>/home/travis/build/AliceO2Group/AliceO2/Detectors/MUON/MCH/Raw/ElecMap/include/MCHRawElecMap/Mapper.h</title>
<!-- Node13 -->
<g id="node1" class="node">
<title>Node13</title>
<polygon fill="#bfbfbf" stroke="#000000" points="755.5,-89.5 755.5,-152.5 940.5,-152.5 940.5,-89.5 755.5,-89.5"/>
<text text-anchor="start" x="763.5" y="-140.5" font-family="Helvetica,sans-Serif" font-size="10.00" fill="#000000">/home/travis/build</text>
<text text-anchor="start" x="763.5" y="-129.5" font-family="Helvetica,sans-Serif" font-size="10.00" fill="#000000">/AliceO2Group/AliceO2</text>
<text text-anchor="start" x="763.5" y="-118.5" font-family="Helvetica,sans-Serif" font-size="10.00" fill="#000000">/Detectors/MUON/MCH/Raw</text>
<text text-anchor="start" x="763.5" y="-107.5" font-family="Helvetica,sans-Serif" font-size="10.00" fill="#000000">/ElecMap/include/MCHRawElecMap</text>
<text text-anchor="middle" x="848" y="-96.5" font-family="Helvetica,sans-Serif" font-size="10.00" fill="#000000">/Mapper.h</text>
</g>
<!-- Node14 -->
<g id="node2" class="node">
<title>Node14</title>
<g id="a_node2"><a xlink:href="../../df/dcf/PageDecoder_8cxx.html" target="_top" xlink:title="/home/travis/build\l/AliceO2Group/AliceO2\l/Detectors/MUON/MCH/Raw\l/Decoder/src/PageDecoder.cxx">
<polygon fill="none" stroke="#000000" points="0,-.5 0,-52.5 164,-52.5 164,-.5 0,-.5"/>
<text text-anchor="start" x="8" y="-40.5" font-family="Helvetica,sans-Serif" font-size="10.00" fill="#000000">/home/travis/build</text>
<text text-anchor="start" x="8" y="-29.5" font-family="Helvetica,sans-Serif" font-size="10.00" fill="#000000">/AliceO2Group/AliceO2</text>
<text text-anchor="start" x="8" y="-18.5" font-family="Helvetica,sans-Serif" font-size="10.00" fill="#000000">/Detectors/MUON/MCH/Raw</text>
<text text-anchor="middle" x="82" y="-7.5" font-family="Helvetica,sans-Serif" font-size="10.00" fill="#000000">/Decoder/src/PageDecoder.cxx</text>
</a>
</g>
</g>
<!-- Node13&#45;&gt;Node14 -->
<g id="edge1" class="edge">
<title>Node13&#45;&gt;Node14</title>
<path fill="none" stroke="#191970" d="M745.0507,-116.4901C611.9468,-109.3242 373.4354,-91.9401 173,-53 170.0925,-52.4351 167.144,-51.8187 164.1745,-51.1607"/>
<polygon fill="#191970" stroke="#191970" points="745.0653,-119.9957 755.2364,-117.0295 745.4356,-113.0055 745.0653,-119.9957"/>
</g>
<!-- Node15 -->
<g id="node3" class="node">
<title>Node15</title>
<g id="a_node3"><a xlink:href="../../d3/d4b/ElectronicMapperDummy_8cxx.html" target="_top" xlink:title="/home/travis/build\l/AliceO2Group/AliceO2\l/Detectors/MUON/MCH/Raw\l/ElecMap/src/ElectronicMapperDummy.cxx">
<polygon fill="none" stroke="#000000" points="182,-.5 182,-52.5 404,-52.5 404,-.5 182,-.5"/>
<text text-anchor="start" x="190" y="-40.5" font-family="Helvetica,sans-Serif" font-size="10.00" fill="#000000">/home/travis/build</text>
<text text-anchor="start" x="190" y="-29.5" font-family="Helvetica,sans-Serif" font-size="10.00" fill="#000000">/AliceO2Group/AliceO2</text>
<text text-anchor="start" x="190" y="-18.5" font-family="Helvetica,sans-Serif" font-size="10.00" fill="#000000">/Detectors/MUON/MCH/Raw</text>
<text text-anchor="middle" x="293" y="-7.5" font-family="Helvetica,sans-Serif" font-size="10.00" fill="#000000">/ElecMap/src/ElectronicMapperDummy.cxx</text>
</a>
</g>
</g>
<!-- Node13&#45;&gt;Node15 -->
<g id="edge2" class="edge">
<title>Node13&#45;&gt;Node15</title>
<path fill="none" stroke="#191970" d="M745.1961,-106.7721C656.8547,-94.1061 526.1951,-74.3246 413,-53 410.0647,-52.447 407.0916,-51.8753 404.0935,-51.2885"/>
<polygon fill="#191970" stroke="#191970" points="744.8233,-110.2544 755.218,-108.2045 745.8138,-103.3248 744.8233,-110.2544"/>
</g>
<!-- Node16 -->
<g id="node4" class="node">
<title>Node16</title>
<g id="a_node4"><a xlink:href="../../d1/d4a/ElectronicMapperGenerated_8cxx.html" target="_top" xlink:title="/home/travis/build\l/AliceO2Group/AliceO2\l/Detectors/MUON/MCH/Raw\l/ElecMap/src/ElectronicMapperGenerated.cxx">
<polygon fill="none" stroke="#000000" points="422,-.5 422,-52.5 658,-52.5 658,-.5 422,-.5"/>
<text text-anchor="start" x="430" y="-40.5" font-family="Helvetica,sans-Serif" font-size="10.00" fill="#000000">/home/travis/build</text>
<text text-anchor="start" x="430" y="-29.5" font-family="Helvetica,sans-Serif" font-size="10.00" fill="#000000">/AliceO2Group/AliceO2</text>
<text text-anchor="start" x="430" y="-18.5" font-family="Helvetica,sans-Serif" font-size="10.00" fill="#000000">/Detectors/MUON/MCH/Raw</text>
<text text-anchor="middle" x="540" y="-7.5" font-family="Helvetica,sans-Serif" font-size="10.00" fill="#000000">/ElecMap/src/ElectronicMapperGenerated.cxx</text>
</a>
</g>
</g>
<!-- Node13&#45;&gt;Node16 -->
<g id="edge3" class="edge">
<title>Node13&#45;&gt;Node16</title>
<path fill="none" stroke="#191970" d="M745.3359,-89.5008C706.1947,-77.4916 662.0576,-63.9495 624.7625,-52.5067"/>
<polygon fill="#191970" stroke="#191970" points="744.5854,-92.9315 755.1722,-92.5187 746.6387,-86.2394 744.5854,-92.9315"/>
</g>
<!-- Node17 -->
<g id="node5" class="node">
<title>Node17</title>
<g id="a_node5"><a xlink:href="../../df/d54/MUON_2MCH_2Raw_2ElecMap_2src_2Mapper_8cxx.html" target="_top" xlink:title="/home/travis/build\l/AliceO2Group/AliceO2\l/Detectors/MUON/MCH/Raw\l/ElecMap/src/Mapper.cxx">
<polygon fill="none" stroke="#000000" points="676,-.5 676,-52.5 826,-52.5 826,-.5 676,-.5"/>
<text text-anchor="start" x="684" y="-40.5" font-family="Helvetica,sans-Serif" font-size="10.00" fill="#000000">/home/travis/build</text>
<text text-anchor="start" x="684" y="-29.5" font-family="Helvetica,sans-Serif" font-size="10.00" fill="#000000">/AliceO2Group/AliceO2</text>
<text text-anchor="start" x="684" y="-18.5" font-family="Helvetica,sans-Serif" font-size="10.00" fill="#000000">/Detectors/MUON/MCH/Raw</text>
<text text-anchor="middle" x="751" y="-7.5" font-family="Helvetica,sans-Serif" font-size="10.00" fill="#000000">/ElecMap/src/Mapper.cxx</text>
</a>
</g>
</g>
<!-- Node13&#45;&gt;Node17 -->
<g id="edge4" class="edge">
<title>Node13&#45;&gt;Node17</title>
<path fill="none" stroke="#191970" d="M808.1246,-82.1523C797.9264,-72.217 787.2027,-61.7696 777.8358,-52.6442"/>
<polygon fill="#191970" stroke="#191970" points="805.8254,-84.7988 815.4306,-89.27 810.7101,-79.7848 805.8254,-84.7988"/>
</g>
<!-- Node18 -->
<g id="node6" class="node">
<title>Node18</title>
<g id="a_node6"><a xlink:href="../../d2/da7/testElectronicMapper_8cxx.html" target="_top" xlink:title="/home/travis/build\l/AliceO2Group/AliceO2\l/Detectors/MUON/MCH/Raw\l/ElecMap/src/testElectronicMapper.cxx">
<polygon fill="none" stroke="#000000" points="843.5,-.5 843.5,-52.5 1046.5,-52.5 1046.5,-.5 843.5,-.5"/>
<text text-anchor="start" x="851.5" y="-40.5" font-family="Helvetica,sans-Serif" font-size="10.00" fill="#000000">/home/travis/build</text>
<text text-anchor="start" x="851.5" y="-29.5" font-family="Helvetica,sans-Serif" font-size="10.00" fill="#000000">/AliceO2Group/AliceO2</text>
<text text-anchor="start" x="851.5" y="-18.5" font-family="Helvetica,sans-Serif" font-size="10.00" fill="#000000">/Detectors/MUON/MCH/Raw</text>
<text text-anchor="middle" x="945" y="-7.5" font-family="Helvetica,sans-Serif" font-size="10.00" fill="#000000">/ElecMap/src/testElectronicMapper.cxx</text>
</a>
</g>
</g>
<!-- Node13&#45;&gt;Node18 -->
<g id="edge5" class="edge">
<title>Node13&#45;&gt;Node18</title>
<path fill="none" stroke="#191970" d="M887.8754,-82.1523C898.0736,-72.217 908.7973,-61.7696 918.1642,-52.6442"/>
<polygon fill="#191970" stroke="#191970" points="885.2899,-79.7848 880.5694,-89.27 890.1746,-84.7988 885.2899,-79.7848"/>
</g>
<!-- Node19 -->
<g id="node7" class="node">
<title>Node19</title>
<g id="a_node7"><a xlink:href="../../d4/dbc/rawdump_8cxx.html" target="_top" xlink:title="/home/travis/build\l/AliceO2Group/AliceO2\l/Detectors/MUON/MCH/Raw\l/Tools/rawdump.cxx">
<polygon fill="none" stroke="#000000" points="1064,-.5 1064,-52.5 1214,-52.5 1214,-.5 1064,-.5"/>
<text text-anchor="start" x="1072" y="-40.5" font-family="Helvetica,sans-Serif" font-size="10.00" fill="#000000">/home/travis/build</text>
<text text-anchor="start" x="1072" y="-29.5" font-family="Helvetica,sans-Serif" font-size="10.00" fill="#000000">/AliceO2Group/AliceO2</text>
<text text-anchor="start" x="1072" y="-18.5" font-family="Helvetica,sans-Serif" font-size="10.00" fill="#000000">/Detectors/MUON/MCH/Raw</text>
<text text-anchor="middle" x="1139" y="-7.5" font-family="Helvetica,sans-Serif" font-size="10.00" fill="#000000">/Tools/rawdump.cxx</text>
</a>
</g>
</g>
<!-- Node13&#45;&gt;Node19 -->
<g id="edge6" class="edge">
<title>Node13&#45;&gt;Node19</title>
<path fill="none" stroke="#191970" d="M950.7719,-87.6256C988.0885,-75.5073 1029.5199,-62.0528 1063.9908,-50.8586"/>
<polygon fill="#191970" stroke="#191970" points="949.3043,-84.4222 940.8743,-90.8398 951.4664,-91.08 949.3043,-84.4222"/>
</g>
<!-- Node20 -->
<g id="node8" class="node">
<title>Node20</title>
<g id="a_node8"><a xlink:href="../../d0/d75/DataDecoderSpec_8cxx.html" target="_top" xlink:title="/home/travis/build\l/AliceO2Group/AliceO2\l/Detectors/MUON/MCH/Workflow\l/src/DataDecoderSpec.cxx">
<polygon fill="none" stroke="#000000" points="1232,-.5 1232,-52.5 1406,-52.5 1406,-.5 1232,-.5"/>
<text text-anchor="start" x="1240" y="-40.5" font-family="Helvetica,sans-Serif" font-size="10.00" fill="#000000">/home/travis/build</text>
<text text-anchor="start" x="1240" y="-29.5" font-family="Helvetica,sans-Serif" font-size="10.00" fill="#000000">/AliceO2Group/AliceO2</text>
<text text-anchor="start" x="1240" y="-18.5" font-family="Helvetica,sans-Serif" font-size="10.00" fill="#000000">/Detectors/MUON/MCH/Workflow</text>
<text text-anchor="middle" x="1319" y="-7.5" font-family="Helvetica,sans-Serif" font-size="10.00" fill="#000000">/src/DataDecoderSpec.cxx</text>
</a>
</g>
</g>
<!-- Node13&#45;&gt;Node20 -->
<g id="edge7" class="edge">
<title>Node13&#45;&gt;Node20</title>
<path fill="none" stroke="#191970" d="M950.5589,-104.9599C1026.217,-92.5077 1131.4768,-73.8857 1223,-53 1225.9499,-52.3268 1228.9451,-51.6219 1231.9657,-50.8926"/>
<polygon fill="#191970" stroke="#191970" points="949.8537,-101.5287 940.5511,-106.5995 950.9855,-108.4366 949.8537,-101.5287"/>
</g>
<!-- Node21 -->
<g id="node9" class="node">
<title>Node21</title>
<g id="a_node9"><a xlink:href="../../db/d1c/file-to-digits-workflow_8cxx.html" target="_top" xlink:title="/home/travis/build\l/AliceO2Group/AliceO2\l/Detectors/MUON/MCH/Workflow\l/src/file&#45;to&#45;digits&#45;workflow.cxx">
<polygon fill="none" stroke="#000000" points="1424,-.5 1424,-52.5 1598,-52.5 1598,-.5 1424,-.5"/>
<text text-anchor="start" x="1432" y="-40.5" font-family="Helvetica,sans-Serif" font-size="10.00" fill="#000000">/home/travis/build</text>
<text text-anchor="start" x="1432" y="-29.5" font-family="Helvetica,sans-Serif" font-size="10.00" fill="#000000">/AliceO2Group/AliceO2</text>
<text text-anchor="start" x="1432" y="-18.5" font-family="Helvetica,sans-Serif" font-size="10.00" fill="#000000">/Detectors/MUON/MCH/Workflow</text>
<text text-anchor="middle" x="1511" y="-7.5" font-family="Helvetica,sans-Serif" font-size="10.00" fill="#000000">/src/file&#45;to&#45;digits&#45;workflow.cxx</text>
</a>
</g>
</g>
<!-- Node13&#45;&gt;Node21 -->
<g id="edge8" class="edge">
<title>Node13&#45;&gt;Node21</title>
<path fill="none" stroke="#191970" d="M951.1156,-113.3109C1065.302,-103.7135 1254.4749,-84.5964 1415,-53 1417.884,-52.4323 1420.8082,-51.8232 1423.7548,-51.1806"/>
<polygon fill="#191970" stroke="#191970" points="950.6599,-109.8367 940.9846,-114.154 951.2404,-116.8126 950.6599,-109.8367"/>
</g>
</g>
</svg>
