<?xml version="1.0" encoding="UTF-8" standalone="no"?>
<!DOCTYPE svg PUBLIC "-//W3C//DTD SVG 1.1//EN"
 "http://www.w3.org/Graphics/SVG/1.1/DTD/svg11.dtd">
<!-- Generated by graphviz version 2.40.1 (20161225.0304)
 -->
<!-- Title: /home/travis/build/AliceO2Group/AliceO2/Utilities/rANS/include/librans/rans.h Pages: 1 -->
<svg width="788pt" height="285pt"
 viewBox="0.00 0.00 788.32 285.00" xmlns="http://www.w3.org/2000/svg" xmlns:xlink="http://www.w3.org/1999/xlink">
<g id="graph0" class="graph" transform="scale(1 1) rotate(0) translate(4 281)">
<title>/home/travis/build/AliceO2Group/AliceO2/Utilities/rANS/include/librans/rans.h</title>
<!-- Node0 -->
<g id="node1" class="node">
<title>Node0</title>
<polygon fill="#bfbfbf" stroke="#000000" points="314.5,-224.5 314.5,-276.5 441.5,-276.5 441.5,-224.5 314.5,-224.5"/>
<text text-anchor="start" x="322.5" y="-264.5" font-family="Helvetica,sans-Serif" font-size="10.00" fill="#000000">/home/travis/build</text>
<text text-anchor="start" x="322.5" y="-253.5" font-family="Helvetica,sans-Serif" font-size="10.00" fill="#000000">/AliceO2Group/AliceO2</text>
<text text-anchor="start" x="322.5" y="-242.5" font-family="Helvetica,sans-Serif" font-size="10.00" fill="#000000">/Utilities/rANS/include</text>
<text text-anchor="middle" x="378" y="-231.5" font-family="Helvetica,sans-Serif" font-size="10.00" fill="#000000">/librans/rans.h</text>
</g>
<!-- Node1 -->
<g id="node2" class="node">
<title>Node1</title>
<g id="a_node2"><a xlink:href="../../d0/d51/SymbolStatistics_8h.html" target="_top" xlink:title="Structure to depict the distribution of symbols in the source message. ">
<polygon fill="none" stroke="#000000" points="410.5,-56.5 410.5,-75.5 517.5,-75.5 517.5,-56.5 410.5,-56.5"/>
<text text-anchor="middle" x="464" y="-63.5" font-family="Helvetica,sans-Serif" font-size="10.00" fill="#000000">SymbolStatistics.h</text>
</a>
</g>
</g>
<!-- Node0&#45;&gt;Node1 -->
<g id="edge1" class="edge">
<title>Node0&#45;&gt;Node1</title>
<path fill="none" stroke="#191970" d="M375.5766,-224.4281C374.1184,-194.9245 375.7202,-146.4959 397,-112 405.3662,-98.4379 419.3905,-87.8892 432.4524,-80.3347"/>
<polygon fill="#191970" stroke="#191970" points="434.1211,-83.4114 441.2601,-75.5828 430.7973,-77.2508 434.1211,-83.4114"/>
</g>
<!-- Node7 -->
<g id="node8" class="node">
<title>Node7</title>
<g id="a_node8"><a xlink:href="../../d4/db1/Utilities_2rANS_2include_2librans_2Encoder_8h.html" target="_top" xlink:title="Encoder.h">
<polygon fill="none" stroke="#000000" points="251,-168.5 251,-187.5 315,-187.5 315,-168.5 251,-168.5"/>
<text text-anchor="middle" x="283" y="-175.5" font-family="Helvetica,sans-Serif" font-size="10.00" fill="#000000">Encoder.h</text>
</a>
</g>
</g>
<!-- Node0&#45;&gt;Node7 -->
<g id="edge7" class="edge">
<title>Node0&#45;&gt;Node7</title>
<path fill="none" stroke="#191970" d="M343.7028,-224.3258C330.3196,-214.1123 315.4174,-202.7396 303.7276,-193.8184"/>
<polygon fill="#191970" stroke="#191970" points="305.5657,-190.8184 295.4928,-187.534 301.319,-196.3831 305.5657,-190.8184"/>
</g>
<!-- Node15 -->
<g id="node16" class="node">
<title>Node15</title>
<g id="a_node16"><a xlink:href="../../d4/dfd/Utilities_2rANS_2include_2librans_2Decoder_8h.html" target="_top" xlink:title="Decoder.h">
<polygon fill="none" stroke="#000000" points="417.5,-168.5 417.5,-187.5 482.5,-187.5 482.5,-168.5 417.5,-168.5"/>
<text text-anchor="middle" x="450" y="-175.5" font-family="Helvetica,sans-Serif" font-size="10.00" fill="#000000">Decoder.h</text>
</a>
</g>
</g>
<!-- Node0&#45;&gt;Node15 -->
<g id="edge25" class="edge">
<title>Node0&#45;&gt;Node15</title>
<path fill="none" stroke="#191970" d="M403.9937,-224.3258C413.739,-214.5128 424.547,-203.6298 433.2374,-194.879"/>
<polygon fill="#191970" stroke="#191970" points="435.9686,-197.0958 440.5317,-187.534 431.0017,-192.1632 435.9686,-197.0958"/>
</g>
<!-- Node2 -->
<g id="node3" class="node">
<title>Node2</title>
<polygon fill="none" stroke="#bfbfbf" points="352,-.5 352,-19.5 416,-19.5 416,-.5 352,-.5"/>
<text text-anchor="middle" x="384" y="-7.5" font-family="Helvetica,sans-Serif" font-size="10.00" fill="#000000">algorithm</text>
</g>
<!-- Node1&#45;&gt;Node2 -->
<g id="edge2" class="edge">
<title>Node1&#45;&gt;Node2</title>
<path fill="none" stroke="#191970" d="M450.0651,-56.2455C437.9053,-47.7337 420.0536,-35.2375 405.9715,-25.3801"/>
<polygon fill="#191970" stroke="#191970" points="407.9747,-22.51 397.7752,-19.6427 403.9605,-28.2447 407.9747,-22.51"/>
</g>
<!-- Node3 -->
<g id="node4" class="node">
<title>Node3</title>
<polygon fill="none" stroke="#bfbfbf" points="280,-.5 280,-19.5 332,-19.5 332,-.5 280,-.5"/>
<text text-anchor="middle" x="306" y="-7.5" font-family="Helvetica,sans-Serif" font-size="10.00" fill="#000000">cassert</text>
</g>
<!-- Node1&#45;&gt;Node3 -->
<g id="edge3" class="edge">
<title>Node1&#45;&gt;Node3</title>
<path fill="none" stroke="#191970" d="M436.8388,-56.3733C410.5565,-47.058 370.569,-32.8852 341.7197,-22.6602"/>
<polygon fill="#191970" stroke="#191970" points="342.6154,-19.2643 332.0206,-19.2225 340.2769,-25.8622 342.6154,-19.2643"/>
</g>
<!-- Node4 -->
<g id="node5" class="node">
<title>Node4</title>
<polygon fill="none" stroke="#bfbfbf" points="669,-.5 669,-19.5 729,-19.5 729,-.5 669,-.5"/>
<text text-anchor="middle" x="699" y="-7.5" font-family="Helvetica,sans-Serif" font-size="10.00" fill="#000000">iostream</text>
</g>
<!-- Node1&#45;&gt;Node4 -->
<g id="edge4" class="edge">
<title>Node1&#45;&gt;Node4</title>
<path fill="none" stroke="#191970" d="M504.1309,-56.4369C547.3358,-46.1413 615.6638,-29.8588 658.8688,-19.5632"/>
<polygon fill="#191970" stroke="#191970" points="659.8333,-22.9314 668.7496,-17.2086 658.2106,-16.1221 659.8333,-22.9314"/>
</g>
<!-- Node5 -->
<g id="node6" class="node">
<title>Node5</title>
<polygon fill="none" stroke="#bfbfbf" points="436,-.5 436,-19.5 492,-19.5 492,-.5 436,-.5"/>
<text text-anchor="middle" x="464" y="-7.5" font-family="Helvetica,sans-Serif" font-size="10.00" fill="#000000">numeric</text>
</g>
<!-- Node1&#45;&gt;Node5 -->
<g id="edge5" class="edge">
<title>Node1&#45;&gt;Node5</title>
<path fill="none" stroke="#191970" d="M464,-56.2455C464,-48.9382 464,-38.6944 464,-29.7046"/>
<polygon fill="#191970" stroke="#191970" points="467.5001,-29.6426 464,-19.6427 460.5001,-29.6427 467.5001,-29.6426"/>
</g>
<!-- Node6 -->
<g id="node7" class="node">
<title>Node6</title>
<polygon fill="none" stroke="#bfbfbf" points="516.5,-.5 516.5,-19.5 563.5,-19.5 563.5,-.5 516.5,-.5"/>
<text text-anchor="middle" x="540" y="-7.5" font-family="Helvetica,sans-Serif" font-size="10.00" fill="#000000">vector</text>
</g>
<!-- Node1&#45;&gt;Node6 -->
<g id="edge6" class="edge">
<title>Node1&#45;&gt;Node6</title>
<path fill="none" stroke="#191970" d="M477.2382,-56.2455C488.681,-47.814 505.4296,-35.4729 518.7475,-25.6598"/>
<polygon fill="#191970" stroke="#191970" points="520.9391,-28.3924 526.9135,-19.6427 516.7867,-22.757 520.9391,-28.3924"/>
</g>
<!-- Node7&#45;&gt;Node2 -->
<g id="edge9" class="edge">
<title>Node7&#45;&gt;Node2</title>
<path fill="none" stroke="#191970" d="M288.7196,-168.4862C304.8927,-141.5845 351.1754,-64.5994 372.7173,-28.7673"/>
<polygon fill="#191970" stroke="#191970" points="375.9387,-30.2017 378.0916,-19.8279 369.9394,-26.5949 375.9387,-30.2017"/>
</g>
<!-- Node8 -->
<g id="node9" class="node">
<title>Node8</title>
<polygon fill="none" stroke="#bfbfbf" points="106,-112.5 106,-131.5 164,-131.5 164,-112.5 106,-112.5"/>
<text text-anchor="middle" x="135" y="-119.5" font-family="Helvetica,sans-Serif" font-size="10.00" fill="#000000">memory</text>
</g>
<!-- Node7&#45;&gt;Node8 -->
<g id="edge8" class="edge">
<title>Node7&#45;&gt;Node8</title>
<path fill="none" stroke="#191970" d="M257.5579,-168.3733C233.2674,-159.1822 196.4792,-145.2624 169.5457,-135.0713"/>
<polygon fill="#191970" stroke="#191970" points="170.7016,-131.7666 160.1101,-131.5011 168.2243,-138.3136 170.7016,-131.7666"/>
</g>
<!-- Node9 -->
<g id="node10" class="node">
<title>Node9</title>
<g id="a_node10"><a xlink:href="../../d8/dd9/SymbolTable_8h.html" target="_top" xlink:title="Container for information needed to encode/decode a symbol of the alphabet. ">
<polygon fill="none" stroke="#000000" points="406,-112.5 406,-131.5 494,-131.5 494,-112.5 406,-112.5"/>
<text text-anchor="middle" x="450" y="-119.5" font-family="Helvetica,sans-Serif" font-size="10.00" fill="#000000">SymbolTable.h</text>
</a>
</g>
</g>
<!-- Node7&#45;&gt;Node9 -->
<g id="edge10" class="edge">
<title>Node7&#45;&gt;Node9</title>
<path fill="none" stroke="#191970" d="M311.7083,-168.3733C339.3577,-159.1016 381.3576,-145.0178 411.8166,-134.804"/>
<polygon fill="#191970" stroke="#191970" points="413.2979,-137.9989 421.6663,-131.5011 411.0724,-131.3621 413.2979,-137.9989"/>
</g>
<!-- Node10 -->
<g id="node11" class="node">
<title>Node10</title>
<g id="a_node11"><a xlink:href="../../d2/d53/EncoderSymbol_8h.html" target="_top" xlink:title="Structure containing all relevant information to encode a symbol. ">
<polygon fill="none" stroke="#000000" points="16.5,-56.5 16.5,-75.5 117.5,-75.5 117.5,-56.5 16.5,-56.5"/>
<text text-anchor="middle" x="67" y="-63.5" font-family="Helvetica,sans-Serif" font-size="10.00" fill="#000000">EncoderSymbol.h</text>
</a>
</g>
</g>
<!-- Node7&#45;&gt;Node10 -->
<g id="edge13" class="edge">
<title>Node7&#45;&gt;Node10</title>
<path fill="none" stroke="#191970" d="M268.4061,-168.401C247.664,-154.9547 208.255,-130.1275 173,-112 149.4357,-99.8837 121.97,-88.0249 100.9015,-79.3832"/>
<polygon fill="#191970" stroke="#191970" points="101.996,-76.0502 91.4139,-75.5313 99.3628,-82.536 101.996,-76.0502"/>
</g>
<!-- Node13 -->
<g id="node14" class="node">
<title>Node13</title>
<g id="a_node14"><a xlink:href="../../d5/d7a/Coder_8h.html" target="_top" xlink:title="Stateless class for coding and decoding symbols using rANS. ">
<polygon fill="none" stroke="#000000" points="220.5,-112.5 220.5,-131.5 273.5,-131.5 273.5,-112.5 220.5,-112.5"/>
<text text-anchor="middle" x="247" y="-119.5" font-family="Helvetica,sans-Serif" font-size="10.00" fill="#000000">Coder.h</text>
</a>
</g>
</g>
<!-- Node7&#45;&gt;Node13 -->
<g id="edge17" class="edge">
<title>Node7&#45;&gt;Node13</title>
<path fill="none" stroke="#191970" d="M276.7293,-168.2455C271.7736,-160.5367 264.717,-149.5598 258.7224,-140.2348"/>
<polygon fill="#191970" stroke="#191970" points="261.5506,-138.1618 253.1989,-131.6427 255.6624,-141.9471 261.5506,-138.1618"/>
</g>
<!-- Node9&#45;&gt;Node1 -->
<g id="edge12" class="edge">
<title>Node9&#45;&gt;Node1</title>
<path fill="none" stroke="#191970" d="M452.4386,-112.2455C454.2855,-104.8579 456.8828,-94.4689 459.1478,-85.4087"/>
<polygon fill="#191970" stroke="#191970" points="462.5594,-86.193 461.5893,-75.6427 455.7684,-84.4952 462.5594,-86.193"/>
</g>
<!-- Node9&#45;&gt;Node6 -->
<g id="edge11" class="edge">
<title>Node9&#45;&gt;Node6</title>
<path fill="none" stroke="#191970" d="M477.2347,-112.4056C494.1477,-105.0419 514.8989,-93.1898 527,-76 536.4421,-62.5874 539.4366,-44.0255 540.2162,-30.002"/>
<polygon fill="#191970" stroke="#191970" points="543.7173,-29.9911 540.4475,-19.9135 536.7192,-29.8306 543.7173,-29.9911"/>
</g>
<!-- Node10&#45;&gt;Node3 -->
<g id="edge15" class="edge">
<title>Node10&#45;&gt;Node3</title>
<path fill="none" stroke="#191970" d="M107.814,-56.4369C153.3588,-45.7653 226.3546,-28.6617 269.8947,-18.4598"/>
<polygon fill="#191970" stroke="#191970" points="270.8313,-21.8352 279.7691,-16.1461 269.2343,-15.0198 270.8313,-21.8352"/>
</g>
<!-- Node11 -->
<g id="node12" class="node">
<title>Node11</title>
<polygon fill="none" stroke="#bfbfbf" points="121,-.5 121,-19.5 171,-19.5 171,-.5 121,-.5"/>
<text text-anchor="middle" x="146" y="-7.5" font-family="Helvetica,sans-Serif" font-size="10.00" fill="#000000">cstdint</text>
</g>
<!-- Node10&#45;&gt;Node11 -->
<g id="edge14" class="edge">
<title>Node10&#45;&gt;Node11</title>
<path fill="none" stroke="#191970" d="M80.7607,-56.2455C92.6552,-47.814 110.065,-35.4729 123.9085,-25.6598"/>
<polygon fill="#191970" stroke="#191970" points="126.2628,-28.2811 132.3969,-19.6427 122.2146,-22.5704 126.2628,-28.2811"/>
</g>
<!-- Node12 -->
<g id="node13" class="node">
<title>Node12</title>
<g id="a_node13"><a xlink:href="../../d4/da1/helper_8h.html" target="_top" xlink:title="various helper functions ">
<polygon fill="none" stroke="#000000" points="0,-.5 0,-19.5 56,-19.5 56,-.5 0,-.5"/>
<text text-anchor="middle" x="28" y="-7.5" font-family="Helvetica,sans-Serif" font-size="10.00" fill="#000000">helper.h</text>
</a>
</g>
</g>
<!-- Node10&#45;&gt;Node12 -->
<g id="edge16" class="edge">
<title>Node10&#45;&gt;Node12</title>
<path fill="none" stroke="#191970" d="M60.2067,-56.2455C54.7822,-48.4564 47.0339,-37.3308 40.4967,-27.9439"/>
<polygon fill="#191970" stroke="#191970" points="43.3025,-25.8485 34.7154,-19.6427 37.5583,-29.849 43.3025,-25.8485"/>
</g>
<!-- Node13&#45;&gt;Node3 -->
<g id="edge20" class="edge">
<title>Node13&#45;&gt;Node3</title>
<path fill="none" stroke="#191970" d="M257.6363,-112.3901C266.655,-103.6994 279.3157,-90.1324 287,-76 294.8317,-61.5965 299.7317,-43.6254 302.5899,-30.0743"/>
<polygon fill="#191970" stroke="#191970" points="306.0937,-30.3851 304.5302,-19.9063 299.2178,-29.073 306.0937,-30.3851"/>
</g>
<!-- Node13&#45;&gt;Node6 -->
<g id="edge18" class="edge">
<title>Node13&#45;&gt;Node6</title>
<path fill="none" stroke="#191970" d="M267.8409,-112.4893C297.397,-99.148 353.316,-74.4445 402,-56 437.3358,-42.6126 478.5079,-29.1604 506.623,-20.2923"/>
<polygon fill="#191970" stroke="#191970" points="507.8604,-23.5724 516.3555,-17.2412 505.7663,-16.893 507.8604,-23.5724"/>
</g>
<!-- Node13&#45;&gt;Node10 -->
<g id="edge23" class="edge">
<title>Node13&#45;&gt;Node10</title>
<path fill="none" stroke="#191970" d="M220.4404,-113.737C190.6231,-104.4605 141.9036,-89.3033 107.3691,-78.5593"/>
<polygon fill="#191970" stroke="#191970" points="108.177,-75.1452 97.5887,-75.5165 106.0975,-81.8292 108.177,-75.1452"/>
</g>
<!-- Node13&#45;&gt;Node11 -->
<g id="edge19" class="edge">
<title>Node13&#45;&gt;Node11</title>
<path fill="none" stroke="#191970" d="M220.1174,-112.8017C202.3825,-105.4385 179.9334,-93.4334 166,-76 155.3831,-62.7162 150.3907,-43.8566 148.0497,-29.6973"/>
<polygon fill="#191970" stroke="#191970" points="151.4861,-28.9897 146.6839,-19.5457 144.5486,-29.9231 151.4861,-28.9897"/>
</g>
<!-- Node13&#45;&gt;Node12 -->
<g id="edge24" class="edge">
<title>Node13&#45;&gt;Node12</title>
<path fill="none" stroke="#191970" d="M220.4906,-117.8213C159.6723,-108.111 14.7941,-84.2264 8,-76 -3.2576,-62.369 5.1247,-42.5055 14.2362,-28.1339"/>
<polygon fill="#191970" stroke="#191970" points="17.3252,-29.8202 20.1299,-19.6034 11.5661,-25.8412 17.3252,-29.8202"/>
</g>
<!-- Node14 -->
<g id="node15" class="node">
<title>Node14</title>
<g id="a_node15"><a xlink:href="../../d7/d99/DecoderSymbol_8h.html" target="_top" xlink:title="Structure containing all relevant information for decoding a rANS encoded symbol. ...">
<polygon fill="none" stroke="#000000" points="174.5,-56.5 174.5,-75.5 277.5,-75.5 277.5,-56.5 174.5,-56.5"/>
<text text-anchor="middle" x="226" y="-63.5" font-family="Helvetica,sans-Serif" font-size="10.00" fill="#000000">DecoderSymbol.h</text>
</a>
</g>
</g>
<!-- Node13&#45;&gt;Node14 -->
<g id="edge21" class="edge">
<title>Node13&#45;&gt;Node14</title>
<path fill="none" stroke="#191970" d="M243.3421,-112.2455C240.5416,-104.7776 236.591,-94.2427 233.1676,-85.1137"/>
<polygon fill="#191970" stroke="#191970" points="236.4045,-83.777 229.616,-75.6427 229.8501,-86.2349 236.4045,-83.777"/>
</g>
<!-- Node14&#45;&gt;Node11 -->
<g id="edge22" class="edge">
<title>Node14&#45;&gt;Node11</title>
<path fill="none" stroke="#191970" d="M212.0651,-56.2455C199.9053,-47.7337 182.0536,-35.2375 167.9715,-25.3801"/>
<polygon fill="#191970" stroke="#191970" points="169.9747,-22.51 159.7752,-19.6427 165.9605,-28.2447 169.9747,-22.51"/>
</g>
<!-- Node15&#45;&gt;Node4 -->
<g id="edge27" class="edge">
<title>Node15&#45;&gt;Node4</title>
<path fill="none" stroke="#191970" d="M482.5965,-175.7202C560.4647,-169.9439 752.2385,-153.6417 771,-132 800.4511,-98.0277 751.1227,-50.3609 720.5107,-25.8827"/>
<polygon fill="#191970" stroke="#191970" points="722.4983,-22.9948 712.4539,-19.6242 718.2041,-28.5229 722.4983,-22.9948"/>
</g>
<!-- Node15&#45;&gt;Node9 -->
<g id="edge28" class="edge">
<title>Node15&#45;&gt;Node9</title>
<path fill="none" stroke="#191970" d="M450,-168.2455C450,-160.9382 450,-150.6944 450,-141.7046"/>
<polygon fill="#191970" stroke="#191970" points="453.5001,-141.6426 450,-131.6427 446.5001,-141.6427 453.5001,-141.6426"/>
</g>
<!-- Node15&#45;&gt;Node13 -->
<g id="edge33" class="edge">
<title>Node15&#45;&gt;Node13</title>
<path fill="none" stroke="#191970" d="M417.3845,-169.0026C380.7581,-158.8988 321.4733,-142.5444 283.3762,-132.0348"/>
<polygon fill="#191970" stroke="#191970" points="284.2724,-128.6514 273.7017,-129.366 282.4109,-135.3993 284.2724,-128.6514"/>
</g>
<!-- Node15&#45;&gt;Node14 -->
<g id="edge29" class="edge">
<title>Node15&#45;&gt;Node14</title>
<path fill="none" stroke="#191970" d="M430.9019,-168.4509C391.3923,-148.6961 300.5131,-103.2565 254.2175,-80.1088"/>
<polygon fill="#191970" stroke="#191970" points="255.5593,-76.8666 245.0498,-75.5249 252.4288,-83.1276 255.5593,-76.8666"/>
</g>
<!-- Node16 -->
<g id="node17" class="node">
<title>Node16</title>
<polygon fill="none" stroke="#bfbfbf" points="692.5,-112.5 692.5,-131.5 761.5,-131.5 761.5,-112.5 692.5,-112.5"/>
<text text-anchor="middle" x="727" y="-119.5" font-family="Helvetica,sans-Serif" font-size="10.00" fill="#000000">type_traits</text>
</g>
<!-- Node15&#45;&gt;Node16 -->
<g id="edge26" class="edge">
<title>Node15&#45;&gt;Node16</title>
<path fill="none" stroke="#191970" d="M482.8589,-171.8193C526.1772,-163.6042 605.0041,-148.4247 682.5001,-132.0599"/>
<polygon fill="#191970" stroke="#191970" points="683.3766,-135.4519 692.4334,-129.954 681.9249,-128.6041 683.3766,-135.4519"/>
</g>
<!-- Node17 -->
<g id="node18" class="node">
<title>Node17</title>
<g id="a_node18"><a xlink:href="../../dc/d3b/ReverseSymbolLookupTable_8h.html" target="_top" xlink:title="Maps CDF back to source symbol &#45; needed for the decoder. ">
<polygon fill="none" stroke="#000000" points="512,-112.5 512,-131.5 674,-131.5 674,-112.5 512,-112.5"/>
<text text-anchor="middle" x="593" y="-119.5" font-family="Helvetica,sans-Serif" font-size="10.00" fill="#000000">ReverseSymbolLookupTable.h</text>
</a>
</g>
</g>
<!-- Node15&#45;&gt;Node17 -->
<g id="edge30" class="edge">
<title>Node15&#45;&gt;Node17</title>
<path fill="none" stroke="#191970" d="M474.5826,-168.3733C497.9496,-159.2226 533.2862,-145.3844 559.2784,-135.2057"/>
<polygon fill="#191970" stroke="#191970" points="560.703,-138.4066 568.7382,-131.5011 558.1505,-131.8886 560.703,-138.4066"/>
</g>
<!-- Node17&#45;&gt;Node1 -->
<g id="edge32" class="edge">
<title>Node17&#45;&gt;Node1</title>
<path fill="none" stroke="#191970" d="M570.8241,-112.3733C550.0234,-103.3435 518.7083,-89.7494 495.3542,-79.6111"/>
<polygon fill="#191970" stroke="#191970" points="496.4532,-76.2727 485.8865,-75.5011 493.6657,-82.6938 496.4532,-76.2727"/>
</g>
<!-- Node17&#45;&gt;Node6 -->
<g id="edge31" class="edge">
<title>Node17&#45;&gt;Node6</title>
<path fill="none" stroke="#191970" d="M588.4812,-112.4509C579.7197,-93.936 560.2815,-52.8591 548.8579,-28.7187"/>
<polygon fill="#191970" stroke="#191970" points="551.9484,-27.0668 544.5073,-19.5249 545.6211,-30.061 551.9484,-27.0668"/>
</g>
</g>
</svg>
