<?xml version="1.0" encoding="UTF-8" standalone="no"?>
<!DOCTYPE svg PUBLIC "-//W3C//DTD SVG 1.1//EN"
 "http://www.w3.org/Graphics/SVG/1.1/DTD/svg11.dtd">
<!-- Generated by graphviz version 2.40.1 (20161225.0304)
 -->
<!-- Title: o2::ft0::FT0DPLDigitizerTask Pages: 1 -->
<!--zoomable 435 -->
<svg id="main" version="1.1" xmlns="http://www.w3.org/2000/svg" xmlns:xlink="http://www.w3.org/1999/xlink" xml:space="preserve" onload="init(evt)">
<style type="text/css"><![CDATA[
.edge:hover path { stroke: red; }
.edge:hover polygon { stroke: red; fill: red; }
]]></style>
<script type="text/javascript"><![CDATA[
var edges = document.getElementsByTagName('g');
if (edges && edges.length) {
  for (var i=0;i<edges.length;i++) {
    if (edges[i].id.substr(0,4)=='edge') {
      edges[i].setAttribute('class','edge');
    }
  }
}
]]></script>
        <defs>
                <circle id="rim" cx="0" cy="0" r="7"/>
                <circle id="rim2" cx="0" cy="0" r="3.5"/>
                <g id="zoomPlus">
                        <use xlink:href="#rim" fill="#404040">
                                <set attributeName="fill" to="#808080" begin="zoomplus.mouseover" end="zoomplus.mouseout"/>
                        </use>
                        <path d="M-4,0h8M0,-4v8" fill="none" stroke="white" stroke-width="1.5" pointer-events="none"/>
                </g>
                <g id="zoomMin">
                        <use xlink:href="#rim" fill="#404040">
                                <set attributeName="fill" to="#808080" begin="zoomminus.mouseover" end="zoomminus.mouseout"/>
                        </use>
                        <path d="M-4,0h8" fill="none" stroke="white" stroke-width="1.5" pointer-events="none"/>
                </g>
                <g id="dirArrow">
                        <path fill="none" stroke="white" stroke-width="1.5" d="M0,-3.0v7 M-2.5,-0.5L0,-3.0L2.5,-0.5"/>
                </g>
               <g id="resetDef">
                       <use xlink:href="#rim2" fill="#404040">
                               <set attributeName="fill" to="#808080" begin="reset.mouseover" end="reset.mouseout"/>
                       </use>
               </g>
        </defs>

<script type="text/javascript">
var viewWidth = 1067;
var viewHeight = 435;
var sectionId = 'dynsection-1';
</script>
<script xlink:href="../../svgpan.js"/>
<svg id="graph" class="graph">
<g id="viewport">
<title>o2::ft0::FT0DPLDigitizerTask</title>
<!-- Node2 -->
<g id="node1" class="node">
<title>Node2</title>
<polygon fill="#bfbfbf" stroke="#000000" points="424.5,-.5 424.5,-101.5 577.5,-101.5 577.5,-.5 424.5,-.5"/>
<text text-anchor="middle" x="501" y="-89.5" font-family="Helvetica,sans-Serif" font-size="10.00" fill="#000000">o2::ft0::FT0DPLDigitizerTask</text>
<polyline fill="none" stroke="#000000" points="424.5,-82.5 577.5,-82.5 "/>
<text text-anchor="middle" x="501" y="-70.5" font-family="Helvetica,sans-Serif" font-size="10.00" fill="#000000"> </text>
<polyline fill="none" stroke="#000000" points="424.5,-63.5 577.5,-63.5 "/>
<text text-anchor="start" x="432.5" y="-51.5" font-family="Helvetica,sans-Serif" font-size="10.00" fill="#000000">+ FT0DPLDigitizerTask()</text>
<text text-anchor="start" x="432.5" y="-40.5" font-family="Helvetica,sans-Serif" font-size="10.00" fill="#000000">+ FT0DPLDigitizerTask()</text>
<text text-anchor="start" x="432.5" y="-29.5" font-family="Helvetica,sans-Serif" font-size="10.00" fill="#000000">+ ~FT0DPLDigitizerTask()</text>
<text text-anchor="start" x="432.5" y="-18.5" font-family="Helvetica,sans-Serif" font-size="10.00" fill="#000000">+ initDigitizerTask()</text>
<text text-anchor="start" x="432.5" y="-7.5" font-family="Helvetica,sans-Serif" font-size="10.00" fill="#000000">+ run()</text>
</g>
<!-- Node3 -->
<g id="node2" class="node">
<title>Node3</title>
<g id="a_node2"><a xlink:href="../../de/de1/classo2_1_1base_1_1BaseDPLDigitizer.html" target="_top" xlink:title="{o2::base::BaseDPLDigitizer\n||+ BaseDPLDigitizer()\l+ ~BaseDPLDigitizer()\l+ BaseDPLDigitizer()\l+ init()\l+ initDigitizerTask()\l}">
<polygon fill="none" stroke="#000000" points="0,-237.5 0,-338.5 148,-338.5 148,-237.5 0,-237.5"/>
<text text-anchor="middle" x="74" y="-326.5" font-family="Helvetica,sans-Serif" font-size="10.00" fill="#000000">o2::base::BaseDPLDigitizer</text>
<polyline fill="none" stroke="#000000" points="0,-319.5 148,-319.5 "/>
<text text-anchor="middle" x="74" y="-307.5" font-family="Helvetica,sans-Serif" font-size="10.00" fill="#000000"> </text>
<polyline fill="none" stroke="#000000" points="0,-300.5 148,-300.5 "/>
<text text-anchor="start" x="8" y="-288.5" font-family="Helvetica,sans-Serif" font-size="10.00" fill="#000000">+ BaseDPLDigitizer()</text>
<text text-anchor="start" x="8" y="-277.5" font-family="Helvetica,sans-Serif" font-size="10.00" fill="#000000">+ ~BaseDPLDigitizer()</text>
<text text-anchor="start" x="8" y="-266.5" font-family="Helvetica,sans-Serif" font-size="10.00" fill="#000000">+ BaseDPLDigitizer()</text>
<text text-anchor="start" x="8" y="-255.5" font-family="Helvetica,sans-Serif" font-size="10.00" fill="#000000">+ init()</text>
<text text-anchor="start" x="8" y="-244.5" font-family="Helvetica,sans-Serif" font-size="10.00" fill="#000000">+ initDigitizerTask()</text>
</a>
</g>
</g>
<!-- Node3&#45;&gt;Node2 -->
<g id="edge1" class="edge">
<title>Node3&#45;&gt;Node2</title>
<path fill="none" stroke="#191970" d="M99.3197,-228.4195C113.176,-201.3995 132.5462,-170.7118 157,-149 196.529,-113.9034 335.6246,-82.1449 424.3727,-64.8069"/>
<polygon fill="none" stroke="#191970" points="96.1601,-226.9126 94.8326,-237.424 102.4253,-230.0347 96.1601,-226.9126"/>
</g>
<!-- Node4 -->
<g id="node3" class="node">
<title>Node4</title>
<polygon fill="none" stroke="#bfbfbf" points="166,-259.5 166,-316.5 216,-316.5 216,-259.5 166,-259.5"/>
<text text-anchor="middle" x="191" y="-304.5" font-family="Helvetica,sans-Serif" font-size="10.00" fill="#000000">double</text>
<polyline fill="none" stroke="#bfbfbf" points="166,-297.5 216,-297.5 "/>
<text text-anchor="middle" x="191" y="-285.5" font-family="Helvetica,sans-Serif" font-size="10.00" fill="#000000"> </text>
<polyline fill="none" stroke="#bfbfbf" points="166,-278.5 216,-278.5 "/>
<text text-anchor="middle" x="191" y="-266.5" font-family="Helvetica,sans-Serif" font-size="10.00" fill="#000000"> </text>
</g>
<!-- Node4&#45;&gt;Node2 -->
<g id="edge2" class="edge">
<title>Node4&#45;&gt;Node2</title>
<path fill="none" stroke="#404040" d="M190.2088,-259.3786C190.8013,-222.0885 197.647,-157.2654 235,-120 260.0116,-95.0471 345.1164,-75.8717 412.4095,-64.1407"/>
<polygon fill="none" stroke="#404040" points="412.4921,-64.1267 417.7339,-59.1746 424.3211,-62.1086 419.0793,-67.0607 412.4921,-64.1267"/>
<text text-anchor="middle" x="288" y="-123" font-family="Helvetica,sans-Serif" font-size="10.00" fill="#000000"> #mFairTimeUnitInNS</text>
</g>
<!-- Node5 -->
<g id="node4" class="node">
<title>Node5</title>
<polygon fill="none" stroke="#bfbfbf" points="276.5,-259.5 276.5,-316.5 333.5,-316.5 333.5,-259.5 276.5,-259.5"/>
<text text-anchor="middle" x="305" y="-304.5" font-family="Helvetica,sans-Serif" font-size="10.00" fill="#000000">ROMode</text>
<polyline fill="none" stroke="#bfbfbf" points="276.5,-297.5 333.5,-297.5 "/>
<text text-anchor="middle" x="305" y="-285.5" font-family="Helvetica,sans-Serif" font-size="10.00" fill="#000000"> </text>
<polyline fill="none" stroke="#bfbfbf" points="276.5,-278.5 333.5,-278.5 "/>
<text text-anchor="middle" x="305" y="-266.5" font-family="Helvetica,sans-Serif" font-size="10.00" fill="#000000"> </text>
</g>
<!-- Node5&#45;&gt;Node2 -->
<g id="edge3" class="edge">
<title>Node5&#45;&gt;Node2</title>
<path fill="none" stroke="#404040" d="M305.803,-259.2683C308.3471,-222.4551 318.0723,-158.7797 354,-120 370.1528,-102.5649 391.6088,-89.1302 413.1235,-78.9518"/>
<polygon fill="none" stroke="#404040" points="413.4003,-78.8278 417.2408,-72.7245 424.3518,-73.9221 420.5113,-80.0254 413.4003,-78.8278"/>
<text text-anchor="middle" x="385" y="-123" font-family="Helvetica,sans-Serif" font-size="10.00" fill="#000000"> #mROMode</text>
</g>
<!-- Node6 -->
<g id="node5" class="node">
<title>Node6</title>
<polygon fill="none" stroke="#bfbfbf" points="351.5,-259.5 351.5,-316.5 462.5,-316.5 462.5,-259.5 351.5,-259.5"/>
<text text-anchor="middle" x="407" y="-304.5" font-family="Helvetica,sans-Serif" font-size="10.00" fill="#000000">vector&lt; TChain * &gt;</text>
<polyline fill="none" stroke="#bfbfbf" points="351.5,-297.5 462.5,-297.5 "/>
<text text-anchor="middle" x="407" y="-285.5" font-family="Helvetica,sans-Serif" font-size="10.00" fill="#000000"> </text>
<polyline fill="none" stroke="#bfbfbf" points="351.5,-278.5 462.5,-278.5 "/>
<text text-anchor="middle" x="407" y="-266.5" font-family="Helvetica,sans-Serif" font-size="10.00" fill="#000000"> </text>
</g>
<!-- Node6&#45;&gt;Node2 -->
<g id="edge4" class="edge">
<title>Node6&#45;&gt;Node2</title>
<path fill="none" stroke="#404040" d="M403.8398,-259.2073C401.3239,-224.2804 401.3414,-164.5522 424,-120 425.4749,-117.1001 427.1269,-114.2649 428.9236,-111.4998"/>
<polygon fill="none" stroke="#404040" points="428.9268,-111.4953 429.2349,-104.2908 436.0038,-101.8042 435.6957,-109.0088 428.9268,-111.4953"/>
<text text-anchor="middle" x="460.5" y="-123" font-family="Helvetica,sans-Serif" font-size="10.00" fill="#000000"> #mSimChains</text>
</g>
<!-- Node7 -->
<g id="node6" class="node">
<title>Node7</title>
<polygon fill="none" stroke="#bfbfbf" points="482,-259.5 482,-316.5 520,-316.5 520,-259.5 482,-259.5"/>
<text text-anchor="middle" x="501" y="-304.5" font-family="Helvetica,sans-Serif" font-size="10.00" fill="#000000">bool</text>
<polyline fill="none" stroke="#bfbfbf" points="482,-297.5 520,-297.5 "/>
<text text-anchor="middle" x="501" y="-285.5" font-family="Helvetica,sans-Serif" font-size="10.00" fill="#000000"> </text>
<polyline fill="none" stroke="#bfbfbf" points="482,-278.5 520,-278.5 "/>
<text text-anchor="middle" x="501" y="-266.5" font-family="Helvetica,sans-Serif" font-size="10.00" fill="#000000"> </text>
</g>
<!-- Node7&#45;&gt;Node2 -->
<g id="edge5" class="edge">
<title>Node7&#45;&gt;Node2</title>
<path fill="none" stroke="#404040" d="M501,-259.4123C501,-223.5863 501,-161.1618 501,-113.9459"/>
<polygon fill="none" stroke="#404040" points="501.0001,-113.6823 497,-107.6823 501,-101.6823 505,-107.6822 501.0001,-113.6823"/>
<text text-anchor="middle" x="531.5" y="-123" font-family="Helvetica,sans-Serif" font-size="10.00" fill="#000000"> #mFinished</text>
</g>
<!-- Node8 -->
<g id="node7" class="node">
<title>Node8</title>
<polygon fill="none" stroke="#bfbfbf" points="553.5,-259.5 553.5,-316.5 600.5,-316.5 600.5,-259.5 553.5,-259.5"/>
<text text-anchor="middle" x="577" y="-304.5" font-family="Helvetica,sans-Serif" font-size="10.00" fill="#000000">Bool_t</text>
<polyline fill="none" stroke="#bfbfbf" points="553.5,-297.5 600.5,-297.5 "/>
<text text-anchor="middle" x="577" y="-285.5" font-family="Helvetica,sans-Serif" font-size="10.00" fill="#000000"> </text>
<polyline fill="none" stroke="#bfbfbf" points="553.5,-278.5 600.5,-278.5 "/>
<text text-anchor="middle" x="577" y="-266.5" font-family="Helvetica,sans-Serif" font-size="10.00" fill="#000000"> </text>
</g>
<!-- Node8&#45;&gt;Node2 -->
<g id="edge6" class="edge">
<title>Node8&#45;&gt;Node2</title>
<path fill="none" stroke="#404040" d="M579.9989,-259.3253C582.4246,-224.7753 582.7223,-165.6794 563,-120 561.842,-117.3178 560.5367,-114.6693 559.1109,-112.0631"/>
<polygon fill="none" stroke="#404040" points="558.9559,-111.8127 552.3965,-108.8169 552.6391,-101.6098 559.1984,-104.6056 558.9559,-111.8127"/>
<text text-anchor="middle" x="604" y="-123" font-family="Helvetica,sans-Serif" font-size="10.00" fill="#000000"> #mContinuous</text>
</g>
<!-- Node9 -->
<g id="node8" class="node">
<title>Node9</title>
<polygon fill="none" stroke="#bfbfbf" points="618.5,-259.5 618.5,-316.5 749.5,-316.5 749.5,-259.5 618.5,-259.5"/>
<text text-anchor="middle" x="684" y="-304.5" font-family="Helvetica,sans-Serif" font-size="10.00" fill="#000000">vector&lt; o2::ft0::Digit &gt;</text>
<polyline fill="none" stroke="#bfbfbf" points="618.5,-297.5 749.5,-297.5 "/>
<text text-anchor="middle" x="684" y="-285.5" font-family="Helvetica,sans-Serif" font-size="10.00" fill="#000000"> </text>
<polyline fill="none" stroke="#bfbfbf" points="618.5,-278.5 749.5,-278.5 "/>
<text text-anchor="middle" x="684" y="-266.5" font-family="Helvetica,sans-Serif" font-size="10.00" fill="#000000"> </text>
</g>
<!-- Node9&#45;&gt;Node2 -->
<g id="edge7" class="edge">
<title>Node9&#45;&gt;Node2</title>
<path fill="none" stroke="#404040" d="M684.7956,-259.2131C684.3045,-222.9211 678.3095,-160.403 646,-120 631.1732,-101.4591 610.1661,-87.6182 588.7309,-77.4021"/>
<polygon fill="none" stroke="#404040" points="588.4673,-77.2843 581.357,-78.4858 577.5132,-72.3845 584.6235,-71.183 588.4673,-77.2843"/>
<text text-anchor="middle" x="683" y="-123" font-family="Helvetica,sans-Serif" font-size="10.00" fill="#000000"> #mDigitsBC</text>
</g>
<!-- Node10 -->
<g id="node9" class="node">
<title>Node10</title>
<g id="a_node9"><a xlink:href="../../d4/dba/classo2_1_1ft0_1_1Digitizer.html" target="_top" xlink:title="{o2::ft0::Digitizer\n||+ Digitizer()\l+ ~Digitizer()\l+ process()\l+ flush()\l+ flush_all()\l+ initParameters()\l+ printParameters()\l+ setEventID()\l+ setSrcID()\l+ getInteractionRecord()\l+ getInteractionRecord()\l+ setInteractionRecord()\l+ getOrbit()\l+ getBC()\l+ getEvent()\l+ measure_amplitude()\l+ init()\l+ finish()\l+ get_time()\l+ setContinuous()\l+ isContinuous()\l}">
<polygon fill="none" stroke="#000000" points="767.5,-149.5 767.5,-426.5 904.5,-426.5 904.5,-149.5 767.5,-149.5"/>
<text text-anchor="middle" x="836" y="-414.5" font-family="Helvetica,sans-Serif" font-size="10.00" fill="#000000">o2::ft0::Digitizer</text>
<polyline fill="none" stroke="#000000" points="767.5,-407.5 904.5,-407.5 "/>
<text text-anchor="middle" x="836" y="-395.5" font-family="Helvetica,sans-Serif" font-size="10.00" fill="#000000"> </text>
<polyline fill="none" stroke="#000000" points="767.5,-388.5 904.5,-388.5 "/>
<text text-anchor="start" x="775.5" y="-376.5" font-family="Helvetica,sans-Serif" font-size="10.00" fill="#000000">+ Digitizer()</text>
<text text-anchor="start" x="775.5" y="-365.5" font-family="Helvetica,sans-Serif" font-size="10.00" fill="#000000">+ ~Digitizer()</text>
<text text-anchor="start" x="775.5" y="-354.5" font-family="Helvetica,sans-Serif" font-size="10.00" fill="#000000">+ process()</text>
<text text-anchor="start" x="775.5" y="-343.5" font-family="Helvetica,sans-Serif" font-size="10.00" fill="#000000">+ flush()</text>
<text text-anchor="start" x="775.5" y="-332.5" font-family="Helvetica,sans-Serif" font-size="10.00" fill="#000000">+ flush_all()</text>
<text text-anchor="start" x="775.5" y="-321.5" font-family="Helvetica,sans-Serif" font-size="10.00" fill="#000000">+ initParameters()</text>
<text text-anchor="start" x="775.5" y="-310.5" font-family="Helvetica,sans-Serif" font-size="10.00" fill="#000000">+ printParameters()</text>
<text text-anchor="start" x="775.5" y="-299.5" font-family="Helvetica,sans-Serif" font-size="10.00" fill="#000000">+ setEventID()</text>
<text text-anchor="start" x="775.5" y="-288.5" font-family="Helvetica,sans-Serif" font-size="10.00" fill="#000000">+ setSrcID()</text>
<text text-anchor="start" x="775.5" y="-277.5" font-family="Helvetica,sans-Serif" font-size="10.00" fill="#000000">+ getInteractionRecord()</text>
<text text-anchor="start" x="775.5" y="-266.5" font-family="Helvetica,sans-Serif" font-size="10.00" fill="#000000">+ getInteractionRecord()</text>
<text text-anchor="start" x="775.5" y="-255.5" font-family="Helvetica,sans-Serif" font-size="10.00" fill="#000000">+ setInteractionRecord()</text>
<text text-anchor="start" x="775.5" y="-244.5" font-family="Helvetica,sans-Serif" font-size="10.00" fill="#000000">+ getOrbit()</text>
<text text-anchor="start" x="775.5" y="-233.5" font-family="Helvetica,sans-Serif" font-size="10.00" fill="#000000">+ getBC()</text>
<text text-anchor="start" x="775.5" y="-222.5" font-family="Helvetica,sans-Serif" font-size="10.00" fill="#000000">+ getEvent()</text>
<text text-anchor="start" x="775.5" y="-211.5" font-family="Helvetica,sans-Serif" font-size="10.00" fill="#000000">+ measure_amplitude()</text>
<text text-anchor="start" x="775.5" y="-200.5" font-family="Helvetica,sans-Serif" font-size="10.00" fill="#000000">+ init()</text>
<text text-anchor="start" x="775.5" y="-189.5" font-family="Helvetica,sans-Serif" font-size="10.00" fill="#000000">+ finish()</text>
<text text-anchor="start" x="775.5" y="-178.5" font-family="Helvetica,sans-Serif" font-size="10.00" fill="#000000">+ get_time()</text>
<text text-anchor="start" x="775.5" y="-167.5" font-family="Helvetica,sans-Serif" font-size="10.00" fill="#000000">+ setContinuous()</text>
<text text-anchor="start" x="775.5" y="-156.5" font-family="Helvetica,sans-Serif" font-size="10.00" fill="#000000">+ isContinuous()</text>
</a>
</g>
</g>
<!-- Node10&#45;&gt;Node2 -->
<g id="edge8" class="edge">
<title>Node10&#45;&gt;Node2</title>
<path fill="none" stroke="#404040" d="M767.3178,-158.9437C764.6082,-155.5249 761.8346,-152.2015 759,-149 715.7808,-100.186 645.6153,-75.5769 589.3593,-63.2325"/>
<polygon fill="none" stroke="#404040" points="589.3288,-63.2262 582.6394,-65.9192 577.5807,-60.7802 584.2701,-58.0872 589.3288,-63.2262"/>
<text text-anchor="middle" x="768.5" y="-123" font-family="Helvetica,sans-Serif" font-size="10.00" fill="#000000"> #mDigitizer</text>
</g>
<!-- Node11 -->
<g id="node10" class="node">
<title>Node11</title>
<polygon fill="none" stroke="#bfbfbf" points="923,-254 923,-322 1059,-322 1059,-254 923,-254"/>
<text text-anchor="start" x="931" y="-310" font-family="Helvetica,sans-Serif" font-size="10.00" fill="#000000">vector&lt; o2::ft0::Channel</text>
<text text-anchor="middle" x="991" y="-299" font-family="Helvetica,sans-Serif" font-size="10.00" fill="#000000">Data &gt;</text>
<polyline fill="none" stroke="#bfbfbf" points="923,-292 1059,-292 "/>
<text text-anchor="middle" x="991" y="-280" font-family="Helvetica,sans-Serif" font-size="10.00" fill="#000000"> </text>
<polyline fill="none" stroke="#bfbfbf" points="923,-273 1059,-273 "/>
<text text-anchor="middle" x="991" y="-261" font-family="Helvetica,sans-Serif" font-size="10.00" fill="#000000"> </text>
</g>
<!-- Node11&#45;&gt;Node2 -->
<g id="edge9" class="edge">
<title>Node11&#45;&gt;Node2</title>
<path fill="none" stroke="#404040" d="M980.8029,-253.9531C969.5321,-222.1491 948.2892,-175.686 914,-149 864.0923,-110.1587 695.4609,-79.3484 589.7362,-63.2596"/>
<polygon fill="none" stroke="#404040" points="589.6697,-63.2497 583.1417,-66.3131 577.8031,-61.4654 584.3312,-58.402 589.6697,-63.2497"/>
<text text-anchor="middle" x="907.5" y="-123" font-family="Helvetica,sans-Serif" font-size="10.00" fill="#000000"> #mDigitsCh</text>
</g>
</g>
</svg>
        <g id="navigator" transform="translate(0 0)" fill="#404254">
                <rect fill="#f2f5e9" fill-opacity="0.5" stroke="#606060" stroke-width=".5" x="0" y="0" width="60" height="60"/>
                <use id="zoomplus" xlink:href="#zoomPlus" x="17" y="9" onmousedown="handleZoom(evt,'in')"/>
                <use id="zoomminus" xlink:href="#zoomMin" x="42" y="9" onmousedown="handleZoom(evt,'out')"/>
                <use id="reset" xlink:href="#resetDef" x="30" y="36" onmousedown="handleReset()"/>
                <g id="arrowUp" xlink:href="#dirArrow" transform="translate(30 24)" onmousedown="handlePan(0,-1)">
                  <use xlink:href="#rim" fill="#404040">
                        <set attributeName="fill" to="#808080" begin="arrowUp.mouseover" end="arrowUp.mouseout"/>
                  </use>
                  <path fill="none" stroke="white" stroke-width="1.5" d="M0,-3.0v7 M-2.5,-0.5L0,-3.0L2.5,-0.5"/>
                </g>
                <g id="arrowRight" xlink:href="#dirArrow" transform="rotate(90) translate(36 -43)" onmousedown="handlePan(1,0)">
                  <use xlink:href="#rim" fill="#404040">
                        <set attributeName="fill" to="#808080" begin="arrowRight.mouseover" end="arrowRight.mouseout"/>
                  </use>
                  <path fill="none" stroke="white" stroke-width="1.5" d="M0,-3.0v7 M-2.5,-0.5L0,-3.0L2.5,-0.5"/>
                </g>
                <g id="arrowDown" xlink:href="#dirArrow" transform="rotate(180) translate(-30 -48)" onmousedown="handlePan(0,1)">
                  <use xlink:href="#rim" fill="#404040">
                        <set attributeName="fill" to="#808080" begin="arrowDown.mouseover" end="arrowDown.mouseout"/>
                  </use>
                  <path fill="none" stroke="white" stroke-width="1.5" d="M0,-3.0v7 M-2.5,-0.5L0,-3.0L2.5,-0.5"/>
                </g>
                <g id="arrowLeft" xlink:href="#dirArrow" transform="rotate(270) translate(-36 17)" onmousedown="handlePan(-1,0)">
                  <use xlink:href="#rim" fill="#404040">
                        <set attributeName="fill" to="#808080" begin="arrowLeft.mouseover" end="arrowLeft.mouseout"/>
                  </use>
                  <path fill="none" stroke="white" stroke-width="1.5" d="M0,-3.0v7 M-2.5,-0.5L0,-3.0L2.5,-0.5"/>
                </g>
        </g>
        <svg viewBox="0 0 15 15" width="100%" height="30px" preserveAspectRatio="xMaxYMin meet">
         <g id="arrow_out" transform="scale(0.3 0.3)">
          <a xlink:href="classo2_1_1ft0_1_1FT0DPLDigitizerTask__coll__graph_org.svg" target="_base">
           <rect id="button" ry="5" rx="5" y="6" x="6" height="38" width="38"
                fill="#f2f5e9" fill-opacity="0.5" stroke="#606060" stroke-width="1.0"/>
           <path id="arrow"
             d="M 11.500037,31.436501 C 11.940474,20.09759 22.043105,11.32322 32.158766,21.979434 L 37.068811,17.246167 C 37.068811,17.246167 37.088388,32 37.088388,32 L 22.160133,31.978069 C 22.160133,31.978069 26.997745,27.140456 26.997745,27.140456 C 18.528582,18.264221 13.291696,25.230495 11.500037,31.436501 z"
             style="fill:#404040;"/>
          </a>
         </g>
        </svg>
</svg>
