<?xml version="1.0" encoding="UTF-8" standalone="no"?>
<!DOCTYPE svg PUBLIC "-//W3C//DTD SVG 1.1//EN"
 "http://www.w3.org/Graphics/SVG/1.1/DTD/svg11.dtd">
<!-- Generated by graphviz version 2.40.1 (20161225.0304)
 -->
<!-- Title: o2::eventgen::GeneratorPythia8 Pages: 1 -->
<!--zoomable 683 -->
<svg id="main" version="1.1" xmlns="http://www.w3.org/2000/svg" xmlns:xlink="http://www.w3.org/1999/xlink" xml:space="preserve" onload="init(evt)">
<style type="text/css"><![CDATA[
.edge:hover path { stroke: red; }
.edge:hover polygon { stroke: red; fill: red; }
]]></style>
<script type="text/javascript"><![CDATA[
var edges = document.getElementsByTagName('g');
if (edges && edges.length) {
  for (var i=0;i<edges.length;i++) {
    if (edges[i].id.substr(0,4)=='edge') {
      edges[i].setAttribute('class','edge');
    }
  }
}
]]></script>
        <defs>
                <circle id="rim" cx="0" cy="0" r="7"/>
                <circle id="rim2" cx="0" cy="0" r="3.5"/>
                <g id="zoomPlus">
                        <use xlink:href="#rim" fill="#404040">
                                <set attributeName="fill" to="#808080" begin="zoomplus.mouseover" end="zoomplus.mouseout"/>
                        </use>
                        <path d="M-4,0h8M0,-4v8" fill="none" stroke="white" stroke-width="1.5" pointer-events="none"/>
                </g>
                <g id="zoomMin">
                        <use xlink:href="#rim" fill="#404040">
                                <set attributeName="fill" to="#808080" begin="zoomminus.mouseover" end="zoomminus.mouseout"/>
                        </use>
                        <path d="M-4,0h8" fill="none" stroke="white" stroke-width="1.5" pointer-events="none"/>
                </g>
                <g id="dirArrow">
                        <path fill="none" stroke="white" stroke-width="1.5" d="M0,-3.0v7 M-2.5,-0.5L0,-3.0L2.5,-0.5"/>
                </g>
               <g id="resetDef">
                       <use xlink:href="#rim2" fill="#404040">
                               <set attributeName="fill" to="#808080" begin="reset.mouseover" end="reset.mouseout"/>
                       </use>
               </g>
        </defs>

<script type="text/javascript">
var viewWidth = 1124;
var viewHeight = 683;
var sectionId = 'dynsection-1';
</script>
<script xlink:href="../../svgpan.js"/>
<svg id="graph" class="graph">
<g id="viewport">
<title>o2::eventgen::GeneratorPythia8</title>
<!-- Node3 -->
<g id="node1" class="node">
<title>Node3</title>
<polygon fill="#bfbfbf" stroke="#000000" points="861,-.5 861,-200.5 1033,-200.5 1033,-.5 861,-.5"/>
<text text-anchor="middle" x="947" y="-188.5" font-family="Helvetica,sans-Serif" font-size="10.00" fill="#000000">o2::eventgen::GeneratorPythia8</text>
<polyline fill="none" stroke="#000000" points="861,-181.5 1033,-181.5 "/>
<text text-anchor="middle" x="947" y="-169.5" font-family="Helvetica,sans-Serif" font-size="10.00" fill="#000000"> </text>
<polyline fill="none" stroke="#000000" points="861,-162.5 1033,-162.5 "/>
<text text-anchor="start" x="869" y="-150.5" font-family="Helvetica,sans-Serif" font-size="10.00" fill="#000000">+ GeneratorPythia8()</text>
<text text-anchor="start" x="869" y="-139.5" font-family="Helvetica,sans-Serif" font-size="10.00" fill="#000000">+ GeneratorPythia8()</text>
<text text-anchor="start" x="869" y="-128.5" font-family="Helvetica,sans-Serif" font-size="10.00" fill="#000000">+ ~GeneratorPythia8()</text>
<text text-anchor="start" x="869" y="-117.5" font-family="Helvetica,sans-Serif" font-size="10.00" fill="#000000">+ Init()</text>
<text text-anchor="start" x="869" y="-106.5" font-family="Helvetica,sans-Serif" font-size="10.00" fill="#000000">+ setConfig()</text>
<text text-anchor="start" x="869" y="-95.5" font-family="Helvetica,sans-Serif" font-size="10.00" fill="#000000">+ setHooksFileName()</text>
<text text-anchor="start" x="869" y="-84.5" font-family="Helvetica,sans-Serif" font-size="10.00" fill="#000000">+ setHooksFuncName()</text>
<text text-anchor="start" x="869" y="-73.5" font-family="Helvetica,sans-Serif" font-size="10.00" fill="#000000">+ readString()</text>
<text text-anchor="start" x="869" y="-62.5" font-family="Helvetica,sans-Serif" font-size="10.00" fill="#000000">+ readFile()</text>
<text text-anchor="start" x="869" y="-51.5" font-family="Helvetica,sans-Serif" font-size="10.00" fill="#000000"># GeneratorPythia8()</text>
<text text-anchor="start" x="869" y="-40.5" font-family="Helvetica,sans-Serif" font-size="10.00" fill="#000000"># operator=()</text>
<text text-anchor="start" x="869" y="-29.5" font-family="Helvetica,sans-Serif" font-size="10.00" fill="#000000"># generateEvent()</text>
<text text-anchor="start" x="869" y="-18.5" font-family="Helvetica,sans-Serif" font-size="10.00" fill="#000000"># importParticles()</text>
<text text-anchor="start" x="869" y="-7.5" font-family="Helvetica,sans-Serif" font-size="10.00" fill="#000000"># ClassDefOverride()</text>
</g>
<!-- Node4 -->
<g id="node2" class="node">
<title>Node4</title>
<g id="a_node2"><a xlink:href="../../d3/da7/classo2_1_1eventgen_1_1Generator.html" target="_top" xlink:title="{o2::eventgen::Generator\n||+ Generator()\l+ Generator()\l+ ~Generator()\l+ Init()\l+ ReadEvent()\l+ setMomentumUnit()\l+ setEnergyUnit()\l+ setPositionUnit()\l+ setTimeUnit()\l+ setBoost()\l+ setTriggerMode()\l+ addTrigger()\l+ addDeepTrigger()\l+ notifyEmbedding()\l# Generator()\l# operator=()\l# generateEvent()\l# importParticles()\l# addTracks()\l# boostEvent()\l# triggerEvent()\l# ClassDefOverride()\l}">
<polygon fill="none" stroke="#000000" points="473.5,-248.5 473.5,-536.5 608.5,-536.5 608.5,-248.5 473.5,-248.5"/>
<text text-anchor="middle" x="541" y="-524.5" font-family="Helvetica,sans-Serif" font-size="10.00" fill="#000000">o2::eventgen::Generator</text>
<polyline fill="none" stroke="#000000" points="473.5,-517.5 608.5,-517.5 "/>
<text text-anchor="middle" x="541" y="-505.5" font-family="Helvetica,sans-Serif" font-size="10.00" fill="#000000"> </text>
<polyline fill="none" stroke="#000000" points="473.5,-498.5 608.5,-498.5 "/>
<text text-anchor="start" x="481.5" y="-486.5" font-family="Helvetica,sans-Serif" font-size="10.00" fill="#000000">+ Generator()</text>
<text text-anchor="start" x="481.5" y="-475.5" font-family="Helvetica,sans-Serif" font-size="10.00" fill="#000000">+ Generator()</text>
<text text-anchor="start" x="481.5" y="-464.5" font-family="Helvetica,sans-Serif" font-size="10.00" fill="#000000">+ ~Generator()</text>
<text text-anchor="start" x="481.5" y="-453.5" font-family="Helvetica,sans-Serif" font-size="10.00" fill="#000000">+ Init()</text>
<text text-anchor="start" x="481.5" y="-442.5" font-family="Helvetica,sans-Serif" font-size="10.00" fill="#000000">+ ReadEvent()</text>
<text text-anchor="start" x="481.5" y="-431.5" font-family="Helvetica,sans-Serif" font-size="10.00" fill="#000000">+ setMomentumUnit()</text>
<text text-anchor="start" x="481.5" y="-420.5" font-family="Helvetica,sans-Serif" font-size="10.00" fill="#000000">+ setEnergyUnit()</text>
<text text-anchor="start" x="481.5" y="-409.5" font-family="Helvetica,sans-Serif" font-size="10.00" fill="#000000">+ setPositionUnit()</text>
<text text-anchor="start" x="481.5" y="-398.5" font-family="Helvetica,sans-Serif" font-size="10.00" fill="#000000">+ setTimeUnit()</text>
<text text-anchor="start" x="481.5" y="-387.5" font-family="Helvetica,sans-Serif" font-size="10.00" fill="#000000">+ setBoost()</text>
<text text-anchor="start" x="481.5" y="-376.5" font-family="Helvetica,sans-Serif" font-size="10.00" fill="#000000">+ setTriggerMode()</text>
<text text-anchor="start" x="481.5" y="-365.5" font-family="Helvetica,sans-Serif" font-size="10.00" fill="#000000">+ addTrigger()</text>
<text text-anchor="start" x="481.5" y="-354.5" font-family="Helvetica,sans-Serif" font-size="10.00" fill="#000000">+ addDeepTrigger()</text>
<text text-anchor="start" x="481.5" y="-343.5" font-family="Helvetica,sans-Serif" font-size="10.00" fill="#000000">+ notifyEmbedding()</text>
<text text-anchor="start" x="481.5" y="-332.5" font-family="Helvetica,sans-Serif" font-size="10.00" fill="#000000"># Generator()</text>
<text text-anchor="start" x="481.5" y="-321.5" font-family="Helvetica,sans-Serif" font-size="10.00" fill="#000000"># operator=()</text>
<text text-anchor="start" x="481.5" y="-310.5" font-family="Helvetica,sans-Serif" font-size="10.00" fill="#000000"># generateEvent()</text>
<text text-anchor="start" x="481.5" y="-299.5" font-family="Helvetica,sans-Serif" font-size="10.00" fill="#000000"># importParticles()</text>
<text text-anchor="start" x="481.5" y="-288.5" font-family="Helvetica,sans-Serif" font-size="10.00" fill="#000000"># addTracks()</text>
<text text-anchor="start" x="481.5" y="-277.5" font-family="Helvetica,sans-Serif" font-size="10.00" fill="#000000"># boostEvent()</text>
<text text-anchor="start" x="481.5" y="-266.5" font-family="Helvetica,sans-Serif" font-size="10.00" fill="#000000"># triggerEvent()</text>
<text text-anchor="start" x="481.5" y="-255.5" font-family="Helvetica,sans-Serif" font-size="10.00" fill="#000000"># ClassDefOverride()</text>
</a>
</g>
</g>
<!-- Node4&#45;&gt;Node3 -->
<g id="edge1" class="edge">
<title>Node4&#45;&gt;Node3</title>
<path fill="none" stroke="#191970" d="M617.2345,-337.6713C686.4928,-287.8599 788.573,-214.4426 860.7805,-162.5101"/>
<polygon fill="none" stroke="#191970" points="615.0301,-334.9455 608.9553,-343.6258 619.1173,-340.6283 615.0301,-334.9455"/>
</g>
<!-- Node5 -->
<g id="node3" class="node">
<title>Node5</title>
<g id="a_node3"><a xlink:href="../../df/d40/classFairGenerator.html" target="_top" xlink:title="{FairGenerator\n||}">
<polygon fill="none" stroke="#000000" points="544.5,-617.5 544.5,-674.5 627.5,-674.5 627.5,-617.5 544.5,-617.5"/>
<text text-anchor="middle" x="586" y="-662.5" font-family="Helvetica,sans-Serif" font-size="10.00" fill="#000000">FairGenerator</text>
<polyline fill="none" stroke="#000000" points="544.5,-655.5 627.5,-655.5 "/>
<text text-anchor="middle" x="586" y="-643.5" font-family="Helvetica,sans-Serif" font-size="10.00" fill="#000000"> </text>
<polyline fill="none" stroke="#000000" points="544.5,-636.5 627.5,-636.5 "/>
<text text-anchor="middle" x="586" y="-624.5" font-family="Helvetica,sans-Serif" font-size="10.00" fill="#000000"> </text>
</a>
</g>
</g>
<!-- Node5&#45;&gt;Node4 -->
<g id="edge2" class="edge">
<title>Node5&#45;&gt;Node4</title>
<path fill="none" stroke="#191970" d="M579.1557,-607.4435C575.6878,-587.9081 571.2362,-562.8306 566.6057,-536.7452"/>
<polygon fill="none" stroke="#191970" points="575.7314,-608.1788 580.9254,-617.4131 582.6236,-606.9553 575.7314,-608.1788"/>
</g>
<!-- Node6 -->
<g id="node4" class="node">
<title>Node6</title>
<polygon fill="none" stroke="#bfbfbf" points="0,-617.5 0,-674.5 112,-674.5 112,-617.5 0,-617.5"/>
<text text-anchor="middle" x="56" y="-662.5" font-family="Helvetica,sans-Serif" font-size="10.00" fill="#000000">vector&lt; TParticle &gt;</text>
<polyline fill="none" stroke="#bfbfbf" points="0,-655.5 112,-655.5 "/>
<text text-anchor="middle" x="56" y="-643.5" font-family="Helvetica,sans-Serif" font-size="10.00" fill="#000000"> </text>
<polyline fill="none" stroke="#bfbfbf" points="0,-636.5 112,-636.5 "/>
<text text-anchor="middle" x="56" y="-624.5" font-family="Helvetica,sans-Serif" font-size="10.00" fill="#000000"> </text>
</g>
<!-- Node6&#45;&gt;Node4 -->
<g id="edge3" class="edge">
<title>Node6&#45;&gt;Node4</title>
<path fill="none" stroke="#404040" d="M64.5679,-617.4691C71.8767,-597.5373 84.2281,-571.6195 103,-555 206.3686,-463.4837 365.9217,-421.8251 461.2416,-404.1826"/>
<polygon fill="none" stroke="#404040" points="461.2995,-404.1722 466.497,-399.1736 473.1101,-402.0486 467.9127,-407.0473 461.2995,-404.1722"/>
<text text-anchor="middle" x="134.5" y="-574.5" font-family="Helvetica,sans-Serif" font-size="10.00" fill="#000000"> #mParticles</text>
</g>
<!-- Node7 -->
<g id="node5" class="node">
<title>Node7</title>
<polygon fill="none" stroke="#bfbfbf" points="130,-617.5 130,-674.5 180,-674.5 180,-617.5 130,-617.5"/>
<text text-anchor="middle" x="155" y="-662.5" font-family="Helvetica,sans-Serif" font-size="10.00" fill="#000000">double</text>
<polyline fill="none" stroke="#bfbfbf" points="130,-655.5 180,-655.5 "/>
<text text-anchor="middle" x="155" y="-643.5" font-family="Helvetica,sans-Serif" font-size="10.00" fill="#000000"> </text>
<polyline fill="none" stroke="#bfbfbf" points="130,-636.5 180,-636.5 "/>
<text text-anchor="middle" x="155" y="-624.5" font-family="Helvetica,sans-Serif" font-size="10.00" fill="#000000"> </text>
</g>
<!-- Node7&#45;&gt;Node4 -->
<g id="edge4" class="edge">
<title>Node7&#45;&gt;Node4</title>
<path fill="none" stroke="#404040" d="M162.6306,-617.1152C169.055,-597.5301 179.9741,-572.1782 197,-555 270.7057,-480.6351 385.0315,-436.0589 461.4112,-412.8938"/>
<polygon fill="none" stroke="#404040" points="461.8271,-412.7705 466.4421,-407.2296 473.3318,-409.3585 468.7168,-414.8994 461.8271,-412.7705"/>
<text text-anchor="middle" x="244" y="-591" font-family="Helvetica,sans-Serif" font-size="10.00" fill="#000000"> #mTimeUnit</text>
<text text-anchor="middle" x="244" y="-580" font-family="Helvetica,sans-Serif" font-size="10.00" fill="#000000">#mEnergyUnit</text>
<text text-anchor="middle" x="244" y="-569" font-family="Helvetica,sans-Serif" font-size="10.00" fill="#000000">#mPositionUnit</text>
<text text-anchor="middle" x="244" y="-558" font-family="Helvetica,sans-Serif" font-size="10.00" fill="#000000">#mMomentumUnit</text>
</g>
<!-- Node8 -->
<g id="node6" class="node">
<title>Node8</title>
<polygon fill="none" stroke="#bfbfbf" points="198,-617.5 198,-674.5 326,-674.5 326,-617.5 198,-617.5"/>
<text text-anchor="middle" x="262" y="-662.5" font-family="Helvetica,sans-Serif" font-size="10.00" fill="#000000">vector&lt; DeepTrigger &gt;</text>
<polyline fill="none" stroke="#bfbfbf" points="198,-655.5 326,-655.5 "/>
<text text-anchor="middle" x="262" y="-643.5" font-family="Helvetica,sans-Serif" font-size="10.00" fill="#000000"> </text>
<polyline fill="none" stroke="#bfbfbf" points="198,-636.5 326,-636.5 "/>
<text text-anchor="middle" x="262" y="-624.5" font-family="Helvetica,sans-Serif" font-size="10.00" fill="#000000"> </text>
</g>
<!-- Node8&#45;&gt;Node4 -->
<g id="edge5" class="edge">
<title>Node8&#45;&gt;Node4</title>
<path fill="none" stroke="#404040" d="M280.7633,-617.3899C293.7393,-598.645 312.0271,-574.1599 331,-555 371.3893,-514.2125 422.1703,-474.6583 463.6787,-444.7872"/>
<polygon fill="none" stroke="#404040" points="463.7067,-444.7672 466.2654,-438.0253 473.4728,-437.794 470.9142,-444.536 463.7067,-444.7672"/>
<text text-anchor="middle" x="373.5" y="-574.5" font-family="Helvetica,sans-Serif" font-size="10.00" fill="#000000"> #mDeepTriggers</text>
</g>
<!-- Node9 -->
<g id="node7" class="node">
<title>Node9</title>
<polygon fill="none" stroke="#bfbfbf" points="344.5,-617.5 344.5,-674.5 447.5,-674.5 447.5,-617.5 344.5,-617.5"/>
<text text-anchor="middle" x="396" y="-662.5" font-family="Helvetica,sans-Serif" font-size="10.00" fill="#000000">vector&lt; Trigger &gt;</text>
<polyline fill="none" stroke="#bfbfbf" points="344.5,-655.5 447.5,-655.5 "/>
<text text-anchor="middle" x="396" y="-643.5" font-family="Helvetica,sans-Serif" font-size="10.00" fill="#000000"> </text>
<polyline fill="none" stroke="#bfbfbf" points="344.5,-636.5 447.5,-636.5 "/>
<text text-anchor="middle" x="396" y="-624.5" font-family="Helvetica,sans-Serif" font-size="10.00" fill="#000000"> </text>
</g>
<!-- Node9&#45;&gt;Node4 -->
<g id="edge6" class="edge">
<title>Node9&#45;&gt;Node4</title>
<path fill="none" stroke="#404040" d="M409.3218,-617.3687C417.9472,-599.2707 429.6499,-575.5098 441,-555 449.2102,-540.164 458.1352,-524.7642 467.1608,-509.6191"/>
<polygon fill="none" stroke="#404040" points="467.2465,-509.4762 466.9017,-502.2733 473.4179,-499.1847 473.7627,-506.3876 467.2465,-509.4762"/>
<text text-anchor="middle" x="471" y="-574.5" font-family="Helvetica,sans-Serif" font-size="10.00" fill="#000000"> #mTriggers</text>
</g>
<!-- Node10 -->
<g id="node8" class="node">
<title>Node10</title>
<polygon fill="none" stroke="#bfbfbf" points="466,-617.5 466,-674.5 526,-674.5 526,-617.5 466,-617.5"/>
<text text-anchor="middle" x="496" y="-662.5" font-family="Helvetica,sans-Serif" font-size="10.00" fill="#000000">Double_t</text>
<polyline fill="none" stroke="#bfbfbf" points="466,-655.5 526,-655.5 "/>
<text text-anchor="middle" x="496" y="-643.5" font-family="Helvetica,sans-Serif" font-size="10.00" fill="#000000"> </text>
<polyline fill="none" stroke="#bfbfbf" points="466,-636.5 526,-636.5 "/>
<text text-anchor="middle" x="496" y="-624.5" font-family="Helvetica,sans-Serif" font-size="10.00" fill="#000000"> </text>
</g>
<!-- Node10&#45;&gt;Node4 -->
<g id="edge7" class="edge">
<title>Node10&#45;&gt;Node4</title>
<path fill="none" stroke="#404040" d="M501.0746,-617.4131C504.234,-599.6154 508.5744,-575.1643 513.234,-548.9149"/>
<polygon fill="none" stroke="#404040" points="513.2969,-548.5605 510.4072,-541.9537 515.3943,-536.7452 518.284,-543.352 513.2969,-548.5605"/>
<text text-anchor="middle" x="536.5" y="-574.5" font-family="Helvetica,sans-Serif" font-size="10.00" fill="#000000"> #mBoost</text>
</g>
<!-- Node11 -->
<g id="node9" class="node">
<title>Node11</title>
<polygon fill="none" stroke="#bfbfbf" points="862.5,-617.5 862.5,-674.5 891.5,-674.5 891.5,-617.5 862.5,-617.5"/>
<text text-anchor="middle" x="877" y="-662.5" font-family="Helvetica,sans-Serif" font-size="10.00" fill="#000000">int</text>
<polyline fill="none" stroke="#bfbfbf" points="862.5,-655.5 891.5,-655.5 "/>
<text text-anchor="middle" x="877" y="-643.5" font-family="Helvetica,sans-Serif" font-size="10.00" fill="#000000"> </text>
<polyline fill="none" stroke="#bfbfbf" points="862.5,-636.5 891.5,-636.5 "/>
<text text-anchor="middle" x="877" y="-624.5" font-family="Helvetica,sans-Serif" font-size="10.00" fill="#000000"> </text>
</g>
<!-- Node11&#45;&gt;Node3 -->
<g id="edge11" class="edge">
<title>Node11&#45;&gt;Node3</title>
<path fill="none" stroke="#404040" d="M891.7558,-638.3989C905.2293,-630.5535 924.3266,-616.9408 933,-599 949.3122,-565.2584 949.963,-349.1121 948.6757,-212.7407"/>
<polygon fill="none" stroke="#404040" points="948.6746,-212.6178 944.6146,-206.6583 948.5542,-200.6184 952.6142,-206.578 948.6746,-212.6178"/>
<text text-anchor="middle" x="1001.5" y="-401" font-family="Helvetica,sans-Serif" font-size="10.00" fill="#000000"> #mHooksFuncName</text>
<text text-anchor="middle" x="1001.5" y="-390" font-family="Helvetica,sans-Serif" font-size="10.00" fill="#000000">#mConfig</text>
<text text-anchor="middle" x="1001.5" y="-379" font-family="Helvetica,sans-Serif" font-size="10.00" fill="#000000">#mHooksFileName</text>
</g>
<!-- Node11&#45;&gt;Node4 -->
<g id="edge8" class="edge">
<title>Node11&#45;&gt;Node4</title>
<path fill="none" stroke="#404040" d="M862.4385,-629.6459C854.9835,-620.8784 846.024,-609.7025 839,-599 826.8927,-580.552 831.1918,-571.0038 816,-555 760.5844,-496.6226 679.6057,-452.2049 619.8651,-424.6833"/>
<polygon fill="none" stroke="#404040" points="619.5213,-424.5276 612.4051,-425.6937 608.5916,-419.5735 615.7078,-418.4073 619.5213,-424.5276"/>
<text text-anchor="middle" x="886" y="-574.5" font-family="Helvetica,sans-Serif" font-size="10.00" fill="#000000"> #mInterfaceName</text>
</g>
<!-- Node12 -->
<g id="node10" class="node">
<title>Node12</title>
<polygon fill="none" stroke="#bfbfbf" points="645.5,-617.5 645.5,-674.5 736.5,-674.5 736.5,-617.5 645.5,-617.5"/>
<text text-anchor="middle" x="691" y="-662.5" font-family="Helvetica,sans-Serif" font-size="10.00" fill="#000000">ETriggerMode_t</text>
<polyline fill="none" stroke="#bfbfbf" points="645.5,-655.5 736.5,-655.5 "/>
<text text-anchor="middle" x="691" y="-643.5" font-family="Helvetica,sans-Serif" font-size="10.00" fill="#000000"> </text>
<polyline fill="none" stroke="#bfbfbf" points="645.5,-636.5 736.5,-636.5 "/>
<text text-anchor="middle" x="691" y="-624.5" font-family="Helvetica,sans-Serif" font-size="10.00" fill="#000000"> </text>
</g>
<!-- Node12&#45;&gt;Node4 -->
<g id="edge9" class="edge">
<title>Node12&#45;&gt;Node4</title>
<path fill="none" stroke="#404040" d="M661.9725,-617.498C656.682,-611.628 651.4393,-605.3066 647,-599 635.5598,-582.7475 624.5932,-565.0928 614.3425,-547.1792"/>
<polygon fill="none" stroke="#404040" points="614.2794,-547.0671 607.8501,-543.8015 608.3916,-536.6108 614.8209,-539.8763 614.2794,-547.0671"/>
<text text-anchor="middle" x="687.5" y="-574.5" font-family="Helvetica,sans-Serif" font-size="10.00" fill="#000000"> #mTriggerMode</text>
</g>
<!-- Node13 -->
<g id="node11" class="node">
<title>Node13</title>
<polygon fill="none" stroke="#bfbfbf" points="755,-617.5 755,-674.5 801,-674.5 801,-617.5 755,-617.5"/>
<text text-anchor="middle" x="778" y="-662.5" font-family="Helvetica,sans-Serif" font-size="10.00" fill="#000000">void *</text>
<polyline fill="none" stroke="#bfbfbf" points="755,-655.5 801,-655.5 "/>
<text text-anchor="middle" x="778" y="-643.5" font-family="Helvetica,sans-Serif" font-size="10.00" fill="#000000"> </text>
<polyline fill="none" stroke="#bfbfbf" points="755,-636.5 801,-636.5 "/>
<text text-anchor="middle" x="778" y="-624.5" font-family="Helvetica,sans-Serif" font-size="10.00" fill="#000000"> </text>
</g>
<!-- Node13&#45;&gt;Node4 -->
<g id="edge10" class="edge">
<title>Node13&#45;&gt;Node4</title>
<path fill="none" stroke="#404040" d="M761.2544,-617.2694C757.8184,-611.2579 754.2575,-604.9409 751,-599 740.391,-579.6516 741.6772,-572.3161 728,-555 696.6756,-515.3415 654.7113,-477.8549 618.4733,-448.9012"/>
<polygon fill="none" stroke="#404040" points="618.3254,-448.7845 611.1376,-448.2057 608.9073,-441.3481 616.0951,-441.9269 618.3254,-448.7845"/>
<text text-anchor="middle" x="783.5" y="-574.5" font-family="Helvetica,sans-Serif" font-size="10.00" fill="#000000"> #mInterface</text>
</g>
<!-- Node14 -->
<g id="node12" class="node">
<title>Node14</title>
<polygon fill="none" stroke="#bfbfbf" points="1068.5,-364 1068.5,-421 1115.5,-421 1115.5,-364 1068.5,-364"/>
<text text-anchor="middle" x="1092" y="-409" font-family="Helvetica,sans-Serif" font-size="10.00" fill="#000000">Pythia</text>
<polyline fill="none" stroke="#bfbfbf" points="1068.5,-402 1115.5,-402 "/>
<text text-anchor="middle" x="1092" y="-390" font-family="Helvetica,sans-Serif" font-size="10.00" fill="#000000"> </text>
<polyline fill="none" stroke="#bfbfbf" points="1068.5,-383 1115.5,-383 "/>
<text text-anchor="middle" x="1092" y="-371" font-family="Helvetica,sans-Serif" font-size="10.00" fill="#000000"> </text>
</g>
<!-- Node14&#45;&gt;Node3 -->
<g id="edge12" class="edge">
<title>Node14&#45;&gt;Node3</title>
<path fill="none" stroke="#404040" d="M1087.7169,-363.9981C1082.4922,-334.0499 1072.0446,-286.0945 1054,-248 1048.075,-235.4916 1041.0501,-222.9506 1033.4743,-210.7534"/>
<polygon fill="none" stroke="#404040" points="1033.4484,-210.7128 1026.8488,-207.8067 1026.9931,-200.597 1033.5927,-203.5031 1033.4484,-210.7128"/>
<text text-anchor="middle" x="1068" y="-222" font-family="Helvetica,sans-Serif" font-size="10.00" fill="#000000"> #mPythia</text>
</g>
</g>
</svg>
        <g id="navigator" transform="translate(0 0)" fill="#404254">
                <rect fill="#f2f5e9" fill-opacity="0.5" stroke="#606060" stroke-width=".5" x="0" y="0" width="60" height="60"/>
                <use id="zoomplus" xlink:href="#zoomPlus" x="17" y="9" onmousedown="handleZoom(evt,'in')"/>
                <use id="zoomminus" xlink:href="#zoomMin" x="42" y="9" onmousedown="handleZoom(evt,'out')"/>
                <use id="reset" xlink:href="#resetDef" x="30" y="36" onmousedown="handleReset()"/>
                <g id="arrowUp" xlink:href="#dirArrow" transform="translate(30 24)" onmousedown="handlePan(0,-1)">
                  <use xlink:href="#rim" fill="#404040">
                        <set attributeName="fill" to="#808080" begin="arrowUp.mouseover" end="arrowUp.mouseout"/>
                  </use>
                  <path fill="none" stroke="white" stroke-width="1.5" d="M0,-3.0v7 M-2.5,-0.5L0,-3.0L2.5,-0.5"/>
                </g>
                <g id="arrowRight" xlink:href="#dirArrow" transform="rotate(90) translate(36 -43)" onmousedown="handlePan(1,0)">
                  <use xlink:href="#rim" fill="#404040">
                        <set attributeName="fill" to="#808080" begin="arrowRight.mouseover" end="arrowRight.mouseout"/>
                  </use>
                  <path fill="none" stroke="white" stroke-width="1.5" d="M0,-3.0v7 M-2.5,-0.5L0,-3.0L2.5,-0.5"/>
                </g>
                <g id="arrowDown" xlink:href="#dirArrow" transform="rotate(180) translate(-30 -48)" onmousedown="handlePan(0,1)">
                  <use xlink:href="#rim" fill="#404040">
                        <set attributeName="fill" to="#808080" begin="arrowDown.mouseover" end="arrowDown.mouseout"/>
                  </use>
                  <path fill="none" stroke="white" stroke-width="1.5" d="M0,-3.0v7 M-2.5,-0.5L0,-3.0L2.5,-0.5"/>
                </g>
                <g id="arrowLeft" xlink:href="#dirArrow" transform="rotate(270) translate(-36 17)" onmousedown="handlePan(-1,0)">
                  <use xlink:href="#rim" fill="#404040">
                        <set attributeName="fill" to="#808080" begin="arrowLeft.mouseover" end="arrowLeft.mouseout"/>
                  </use>
                  <path fill="none" stroke="white" stroke-width="1.5" d="M0,-3.0v7 M-2.5,-0.5L0,-3.0L2.5,-0.5"/>
                </g>
        </g>
        <svg viewBox="0 0 15 15" width="100%" height="30px" preserveAspectRatio="xMaxYMin meet">
         <g id="arrow_out" transform="scale(0.3 0.3)">
          <a xlink:href="classo2_1_1eventgen_1_1GeneratorPythia8__coll__graph_org.svg" target="_base">
           <rect id="button" ry="5" rx="5" y="6" x="6" height="38" width="38"
                fill="#f2f5e9" fill-opacity="0.5" stroke="#606060" stroke-width="1.0"/>
           <path id="arrow"
             d="M 11.500037,31.436501 C 11.940474,20.09759 22.043105,11.32322 32.158766,21.979434 L 37.068811,17.246167 C 37.068811,17.246167 37.088388,32 37.088388,32 L 22.160133,31.978069 C 22.160133,31.978069 26.997745,27.140456 26.997745,27.140456 C 18.528582,18.264221 13.291696,25.230495 11.500037,31.436501 z"
             style="fill:#404040;"/>
          </a>
         </g>
        </svg>
</svg>
