<?xml version="1.0" encoding="UTF-8" standalone="no"?>
<!DOCTYPE svg PUBLIC "-//W3C//DTD SVG 1.1//EN"
 "http://www.w3.org/Graphics/SVG/1.1/DTD/svg11.dtd">
<!-- Generated by graphviz version 2.40.1 (20161225.0304)
 -->
<!-- Title: /home/travis/build/AliceO2Group/AliceO2/GPU/GPUTracking/SliceTracker/GPUTPCSliceOutput.cxx Pages: 1 -->
<svg width="886pt" height="453pt"
 viewBox="0.00 0.00 885.50 453.00" xmlns="http://www.w3.org/2000/svg" xmlns:xlink="http://www.w3.org/1999/xlink">
<g id="graph0" class="graph" transform="scale(1 1) rotate(0) translate(4 449)">
<title>/home/travis/build/AliceO2Group/AliceO2/GPU/GPUTracking/SliceTracker/GPUTPCSliceOutput.cxx</title>
<!-- Node0 -->
<g id="node1" class="node">
<title>Node0</title>
<polygon fill="#bfbfbf" stroke="#000000" points="138.5,-392.5 138.5,-444.5 305.5,-444.5 305.5,-392.5 138.5,-392.5"/>
<text text-anchor="start" x="146.5" y="-432.5" font-family="Helvetica,sans-Serif" font-size="10.00" fill="#000000">/home/travis/build</text>
<text text-anchor="start" x="146.5" y="-421.5" font-family="Helvetica,sans-Serif" font-size="10.00" fill="#000000">/AliceO2Group/AliceO2</text>
<text text-anchor="start" x="146.5" y="-410.5" font-family="Helvetica,sans-Serif" font-size="10.00" fill="#000000">/GPU/GPUTracking/SliceTracker</text>
<text text-anchor="middle" x="222" y="-399.5" font-family="Helvetica,sans-Serif" font-size="10.00" fill="#000000">/GPUTPCSliceOutput.cxx</text>
</g>
<!-- Node1 -->
<g id="node2" class="node">
<title>Node1</title>
<g id="a_node2"><a xlink:href="../../d5/d5b/GPUOutputControl_8h.html" target="_top" xlink:title="GPUOutputControl.h">
<polygon fill="none" stroke="#000000" points="31.5,-336.5 31.5,-355.5 146.5,-355.5 146.5,-336.5 31.5,-336.5"/>
<text text-anchor="middle" x="89" y="-343.5" font-family="Helvetica,sans-Serif" font-size="10.00" fill="#000000">GPUOutputControl.h</text>
</a>
</g>
</g>
<!-- Node0&#45;&gt;Node1 -->
<g id="edge1" class="edge">
<title>Node0&#45;&gt;Node1</title>
<path fill="none" stroke="#191970" d="M173.9839,-392.3258C154.3289,-381.6116 132.3338,-369.6218 115.6451,-360.5246"/>
<polygon fill="#191970" stroke="#191970" points="116.9454,-357.2472 106.49,-355.534 113.595,-363.3933 116.9454,-357.2472"/>
</g>
<!-- Node6 -->
<g id="node7" class="node">
<title>Node6</title>
<g id="a_node7"><a xlink:href="../../da/d4b/GPUTPCSliceOutput_8h.html" target="_top" xlink:title="GPUTPCSliceOutput.h">
<polygon fill="none" stroke="#000000" points="298,-336.5 298,-355.5 420,-355.5 420,-336.5 298,-336.5"/>
<text text-anchor="middle" x="359" y="-343.5" font-family="Helvetica,sans-Serif" font-size="10.00" fill="#000000">GPUTPCSliceOutput.h</text>
</a>
</g>
</g>
<!-- Node0&#45;&gt;Node6 -->
<g id="edge6" class="edge">
<title>Node0&#45;&gt;Node6</title>
<path fill="none" stroke="#191970" d="M271.4601,-392.3258C291.8955,-381.5115 314.7866,-369.3976 332.0341,-360.2703"/>
<polygon fill="#191970" stroke="#191970" points="333.7825,-363.305 340.984,-355.534 330.5082,-357.1179 333.7825,-363.305"/>
</g>
<!-- Node18 -->
<g id="node19" class="node">
<title>Node18</title>
<g id="a_node19"><a xlink:href="../../d6/da2/GPUCommonMath_8h.html" target="_top" xlink:title="GPUCommonMath.h">
<polygon fill="none" stroke="#000000" points="164.5,-336.5 164.5,-355.5 279.5,-355.5 279.5,-336.5 164.5,-336.5"/>
<text text-anchor="middle" x="222" y="-343.5" font-family="Helvetica,sans-Serif" font-size="10.00" fill="#000000">GPUCommonMath.h</text>
</a>
</g>
</g>
<!-- Node0&#45;&gt;Node18 -->
<g id="edge22" class="edge">
<title>Node0&#45;&gt;Node18</title>
<path fill="none" stroke="#191970" d="M222,-392.3258C222,-383.5142 222,-373.8397 222,-365.621"/>
<polygon fill="#191970" stroke="#191970" points="225.5001,-365.534 222,-355.534 218.5001,-365.534 225.5001,-365.534"/>
</g>
<!-- Node2 -->
<g id="node3" class="node">
<title>Node2</title>
<g id="a_node3"><a xlink:href="../../df/d21/GPUCommonDef_8h.html" target="_top" xlink:title="GPUCommonDef.h">
<polygon fill="none" stroke="#000000" points="97.5,-56.5 97.5,-75.5 204.5,-75.5 204.5,-56.5 97.5,-56.5"/>
<text text-anchor="middle" x="151" y="-63.5" font-family="Helvetica,sans-Serif" font-size="10.00" fill="#000000">GPUCommonDef.h</text>
</a>
</g>
</g>
<!-- Node1&#45;&gt;Node2 -->
<g id="edge2" class="edge">
<title>Node1&#45;&gt;Node2</title>
<path fill="none" stroke="#191970" d="M95.5308,-336.2931C107.5599,-317.4432 132,-274.1986 132,-234 132,-234 132,-234 132,-178 132,-145.2688 139.9852,-107.9052 145.6022,-85.6716"/>
<polygon fill="#191970" stroke="#191970" points="149.0415,-86.3545 148.1965,-75.7934 142.2711,-84.5763 149.0415,-86.3545"/>
</g>
<!-- Node5 -->
<g id="node6" class="node">
<title>Node5</title>
<polygon fill="none" stroke="#bfbfbf" points="50.5,-280.5 50.5,-299.5 103.5,-299.5 103.5,-280.5 50.5,-280.5"/>
<text text-anchor="middle" x="77" y="-287.5" font-family="Helvetica,sans-Serif" font-size="10.00" fill="#000000">cstddef</text>
</g>
<!-- Node1&#45;&gt;Node5 -->
<g id="edge5" class="edge">
<title>Node1&#45;&gt;Node5</title>
<path fill="none" stroke="#191970" d="M86.9098,-336.2455C85.3439,-328.9382 83.1488,-318.6944 81.2224,-309.7046"/>
<polygon fill="#191970" stroke="#191970" points="84.584,-308.6873 79.0663,-299.6427 77.7393,-310.1541 84.584,-308.6873"/>
</g>
<!-- Node3 -->
<g id="node4" class="node">
<title>Node3</title>
<g id="a_node4"><a xlink:href="../../d5/d93/GPUCommonDefSettings_8h.html" target="_top" xlink:title="GPUCommonDefSettings.h">
<polygon fill="none" stroke="#000000" points="0,-.5 0,-19.5 148,-19.5 148,-.5 0,-.5"/>
<text text-anchor="middle" x="74" y="-7.5" font-family="Helvetica,sans-Serif" font-size="10.00" fill="#000000">GPUCommonDefSettings.h</text>
</a>
</g>
</g>
<!-- Node2&#45;&gt;Node3 -->
<g id="edge3" class="edge">
<title>Node2&#45;&gt;Node3</title>
<path fill="none" stroke="#191970" d="M137.5876,-56.2455C125.9943,-47.814 109.0252,-35.4729 95.5322,-25.6598"/>
<polygon fill="#191970" stroke="#191970" points="97.4047,-22.6938 87.2587,-19.6427 93.2874,-28.355 97.4047,-22.6938"/>
</g>
<!-- Node4 -->
<g id="node5" class="node">
<title>Node4</title>
<g id="a_node5"><a xlink:href="../../da/d5a/GPUCommonDefAPI_8h.html" target="_top" xlink:title="GPUCommonDefAPI.h">
<polygon fill="none" stroke="#000000" points="166,-.5 166,-19.5 290,-19.5 290,-.5 166,-.5"/>
<text text-anchor="middle" x="228" y="-7.5" font-family="Helvetica,sans-Serif" font-size="10.00" fill="#000000">GPUCommonDefAPI.h</text>
</a>
</g>
</g>
<!-- Node2&#45;&gt;Node4 -->
<g id="edge4" class="edge">
<title>Node2&#45;&gt;Node4</title>
<path fill="none" stroke="#191970" d="M164.4124,-56.2455C176.0057,-47.814 192.9748,-35.4729 206.4678,-25.6598"/>
<polygon fill="#191970" stroke="#191970" points="208.7126,-28.355 214.7413,-19.6427 204.5953,-22.6938 208.7126,-28.355"/>
</g>
<!-- Node7 -->
<g id="node8" class="node">
<title>Node7</title>
<g id="a_node8"><a xlink:href="../../da/dab/GPUTPCDef_8h.html" target="_top" xlink:title="GPUTPCDef.h">
<polygon fill="none" stroke="#000000" points="441,-168.5 441,-187.5 523,-187.5 523,-168.5 441,-168.5"/>
<text text-anchor="middle" x="482" y="-175.5" font-family="Helvetica,sans-Serif" font-size="10.00" fill="#000000">GPUTPCDef.h</text>
</a>
</g>
</g>
<!-- Node6&#45;&gt;Node7 -->
<g id="edge7" class="edge">
<title>Node6&#45;&gt;Node7</title>
<path fill="none" stroke="#191970" d="M357.5188,-336.2619C354.6808,-313.9053 350.8817,-258.2015 377,-224 390.2349,-206.6691 411.3756,-195.747 431.2301,-188.9224"/>
<polygon fill="#191970" stroke="#191970" points="432.3505,-192.2391 440.8332,-185.8912 430.2434,-185.5637 432.3505,-192.2391"/>
</g>
<!-- Node15 -->
<g id="node16" class="node">
<title>Node15</title>
<g id="a_node16"><a xlink:href="../../d0/d88/GPUTPCTrack_8h.html" target="_top" xlink:title="GPUTPCTrack.h">
<polygon fill="none" stroke="#000000" points="493.5,-280.5 493.5,-299.5 584.5,-299.5 584.5,-280.5 493.5,-280.5"/>
<text text-anchor="middle" x="539" y="-287.5" font-family="Helvetica,sans-Serif" font-size="10.00" fill="#000000">GPUTPCTrack.h</text>
</a>
</g>
</g>
<!-- Node6&#45;&gt;Node15 -->
<g id="edge16" class="edge">
<title>Node6&#45;&gt;Node15</title>
<path fill="none" stroke="#191970" d="M389.9431,-336.3733C420.0039,-327.021 465.8026,-312.7725 498.6978,-302.5385"/>
<polygon fill="#191970" stroke="#191970" points="499.9519,-305.8139 508.4607,-299.5011 497.8723,-299.1299 499.9519,-305.8139"/>
</g>
<!-- Node8 -->
<g id="node9" class="node">
<title>Node8</title>
<g id="a_node9"><a xlink:href="../../d2/d6d/GPUDef_8h.html" target="_top" xlink:title="GPUDef.h">
<polygon fill="none" stroke="#000000" points="450.5,-112.5 450.5,-131.5 513.5,-131.5 513.5,-112.5 450.5,-112.5"/>
<text text-anchor="middle" x="482" y="-119.5" font-family="Helvetica,sans-Serif" font-size="10.00" fill="#000000">GPUDef.h</text>
</a>
</g>
</g>
<!-- Node7&#45;&gt;Node8 -->
<g id="edge8" class="edge">
<title>Node7&#45;&gt;Node8</title>
<path fill="none" stroke="#191970" d="M482,-168.2455C482,-160.9382 482,-150.6944 482,-141.7046"/>
<polygon fill="#191970" stroke="#191970" points="485.5001,-141.6426 482,-131.6427 478.5001,-141.6427 485.5001,-141.6426"/>
</g>
<!-- Node8&#45;&gt;Node2 -->
<g id="edge9" class="edge">
<title>Node8&#45;&gt;Node2</title>
<path fill="none" stroke="#191970" d="M450.2623,-116.6305C396.2065,-107.4851 285.286,-88.7191 214.7204,-76.7805"/>
<polygon fill="#191970" stroke="#191970" points="215.0573,-73.2878 204.6135,-75.0706 213.8895,-80.1897 215.0573,-73.2878"/>
</g>
<!-- Node9 -->
<g id="node10" class="node">
<title>Node9</title>
<g id="a_node10"><a xlink:href="../../d2/d37/GPUDefConstantsAndSettings_8h.html" target="_top" xlink:title="GPUDefConstantsAndSettings.h">
<polygon fill="none" stroke="#000000" points="222.5,-56.5 222.5,-75.5 393.5,-75.5 393.5,-56.5 222.5,-56.5"/>
<text text-anchor="middle" x="308" y="-63.5" font-family="Helvetica,sans-Serif" font-size="10.00" fill="#000000">GPUDefConstantsAndSettings.h</text>
</a>
</g>
</g>
<!-- Node8&#45;&gt;Node9 -->
<g id="edge10" class="edge">
<title>Node8&#45;&gt;Node9</title>
<path fill="none" stroke="#191970" d="M452.0883,-112.3733C423.1548,-103.0613 379.1389,-88.8953 347.3707,-78.671"/>
<polygon fill="#191970" stroke="#191970" points="348.1128,-75.2331 337.5213,-75.5011 345.9682,-81.8965 348.1128,-75.2331"/>
</g>
<!-- Node10 -->
<g id="node11" class="node">
<title>Node10</title>
<g id="a_node11"><a xlink:href="../../dc/de9/GPUDefGPUParameters_8h.html" target="_top" xlink:title="GPUDefGPUParameters.h">
<polygon fill="none" stroke="#000000" points="412,-56.5 412,-75.5 552,-75.5 552,-56.5 412,-56.5"/>
<text text-anchor="middle" x="482" y="-63.5" font-family="Helvetica,sans-Serif" font-size="10.00" fill="#000000">GPUDefGPUParameters.h</text>
</a>
</g>
</g>
<!-- Node8&#45;&gt;Node10 -->
<g id="edge11" class="edge">
<title>Node8&#45;&gt;Node10</title>
<path fill="none" stroke="#191970" d="M482,-112.2455C482,-104.9382 482,-94.6944 482,-85.7046"/>
<polygon fill="#191970" stroke="#191970" points="485.5001,-85.6426 482,-75.6427 478.5001,-85.6427 485.5001,-85.6426"/>
</g>
<!-- Node12 -->
<g id="node13" class="node">
<title>Node12</title>
<g id="a_node13"><a xlink:href="../../d3/d4c/GPUDefOpenCL12Templates_8h.html" target="_top" xlink:title="GPUDefOpenCL12Templates.h">
<polygon fill="none" stroke="#000000" points="570,-56.5 570,-75.5 734,-75.5 734,-56.5 570,-56.5"/>
<text text-anchor="middle" x="652" y="-63.5" font-family="Helvetica,sans-Serif" font-size="10.00" fill="#000000">GPUDefOpenCL12Templates.h</text>
</a>
</g>
</g>
<!-- Node8&#45;&gt;Node12 -->
<g id="edge13" class="edge">
<title>Node8&#45;&gt;Node12</title>
<path fill="none" stroke="#191970" d="M511.224,-112.3733C539.4925,-103.0613 582.4965,-88.8953 613.5344,-78.671"/>
<polygon fill="#191970" stroke="#191970" points="614.7544,-81.9542 623.1573,-75.5011 612.5643,-75.3056 614.7544,-81.9542"/>
</g>
<!-- Node13 -->
<g id="node14" class="node">
<title>Node13</title>
<g id="a_node14"><a xlink:href="../../d2/d45/GPUCommonRtypes_8h.html" target="_top" xlink:title="GPUCommonRtypes.h">
<polygon fill="none" stroke="#000000" points="752.5,-56.5 752.5,-75.5 877.5,-75.5 877.5,-56.5 752.5,-56.5"/>
<text text-anchor="middle" x="815" y="-63.5" font-family="Helvetica,sans-Serif" font-size="10.00" fill="#000000">GPUCommonRtypes.h</text>
</a>
</g>
</g>
<!-- Node8&#45;&gt;Node13 -->
<g id="edge14" class="edge">
<title>Node8&#45;&gt;Node13</title>
<path fill="none" stroke="#191970" d="M513.628,-116.6812C567.1675,-107.6775 676.7672,-89.2464 747.9979,-77.2676"/>
<polygon fill="#191970" stroke="#191970" points="748.9367,-80.659 758.2177,-75.549 747.7758,-73.7559 748.9367,-80.659"/>
</g>
<!-- Node11 -->
<g id="node12" class="node">
<title>Node11</title>
<g id="a_node12"><a xlink:href="../../d6/dff/GPUDefMacros_8h.html" target="_top" xlink:title="GPUDefMacros.h">
<polygon fill="none" stroke="#000000" points="433,-.5 433,-19.5 531,-19.5 531,-.5 433,-.5"/>
<text text-anchor="middle" x="482" y="-7.5" font-family="Helvetica,sans-Serif" font-size="10.00" fill="#000000">GPUDefMacros.h</text>
</a>
</g>
</g>
<!-- Node10&#45;&gt;Node11 -->
<g id="edge12" class="edge">
<title>Node10&#45;&gt;Node11</title>
<path fill="none" stroke="#191970" d="M482,-56.2455C482,-48.9382 482,-38.6944 482,-29.7046"/>
<polygon fill="#191970" stroke="#191970" points="485.5001,-29.6426 482,-19.6427 478.5001,-29.6427 485.5001,-29.6426"/>
</g>
<!-- Node14 -->
<g id="node15" class="node">
<title>Node14</title>
<polygon fill="none" stroke="#bfbfbf" points="785.5,-.5 785.5,-19.5 844.5,-19.5 844.5,-.5 785.5,-.5"/>
<text text-anchor="middle" x="815" y="-7.5" font-family="Helvetica,sans-Serif" font-size="10.00" fill="#000000">Rtypes.h</text>
</g>
<!-- Node13&#45;&gt;Node14 -->
<g id="edge15" class="edge">
<title>Node13&#45;&gt;Node14</title>
<path fill="none" stroke="#191970" d="M815,-56.2455C815,-48.9382 815,-38.6944 815,-29.7046"/>
<polygon fill="#191970" stroke="#191970" points="818.5001,-29.6426 815,-19.6427 811.5001,-29.6427 818.5001,-29.6426"/>
</g>
<!-- Node15&#45;&gt;Node7 -->
<g id="edge19" class="edge">
<title>Node15&#45;&gt;Node7</title>
<path fill="none" stroke="#191970" d="M584.872,-286.8293C643.1779,-281.0552 732.482,-265.3236 699,-224 678.5308,-198.7368 590.6503,-186.7874 533.1955,-181.5796"/>
<polygon fill="#191970" stroke="#191970" points="533.4616,-178.0896 523.1967,-180.713 532.8571,-185.0635 533.4616,-178.0896"/>
</g>
<!-- Node16 -->
<g id="node17" class="node">
<title>Node16</title>
<g id="a_node17"><a xlink:href="../../df/d00/GPUTPCBaseTrackParam_8h.html" target="_top" xlink:title="GPUTPCBaseTrackParam.h">
<polygon fill="none" stroke="#000000" points="386,-224.5 386,-243.5 532,-243.5 532,-224.5 386,-224.5"/>
<text text-anchor="middle" x="459" y="-231.5" font-family="Helvetica,sans-Serif" font-size="10.00" fill="#000000">GPUTPCBaseTrackParam.h</text>
</a>
</g>
</g>
<!-- Node15&#45;&gt;Node16 -->
<g id="edge17" class="edge">
<title>Node15&#45;&gt;Node16</title>
<path fill="none" stroke="#191970" d="M525.0651,-280.2455C512.9053,-271.7337 495.0536,-259.2375 480.9715,-249.3801"/>
<polygon fill="#191970" stroke="#191970" points="482.9747,-246.51 472.7752,-243.6427 478.9605,-252.2447 482.9747,-246.51"/>
</g>
<!-- Node17 -->
<g id="node18" class="node">
<title>Node17</title>
<g id="a_node18"><a xlink:href="../../d2/dd5/GPUTPCSliceOutCluster_8h.html" target="_top" xlink:title="GPUTPCSliceOutCluster.h">
<polygon fill="none" stroke="#000000" points="550,-224.5 550,-243.5 690,-243.5 690,-224.5 550,-224.5"/>
<text text-anchor="middle" x="620" y="-231.5" font-family="Helvetica,sans-Serif" font-size="10.00" fill="#000000">GPUTPCSliceOutCluster.h</text>
</a>
</g>
</g>
<!-- Node15&#45;&gt;Node17 -->
<g id="edge20" class="edge">
<title>Node15&#45;&gt;Node17</title>
<path fill="none" stroke="#191970" d="M553.1091,-280.2455C565.4209,-271.7337 583.4958,-259.2375 597.7538,-249.3801"/>
<polygon fill="#191970" stroke="#191970" points="599.8174,-252.2085 606.0526,-243.6427 595.8366,-246.4506 599.8174,-252.2085"/>
</g>
<!-- Node16&#45;&gt;Node7 -->
<g id="edge18" class="edge">
<title>Node16&#45;&gt;Node7</title>
<path fill="none" stroke="#191970" d="M463.0063,-224.2455C466.0735,-216.7776 470.4003,-206.2427 474.1497,-197.1137"/>
<polygon fill="#191970" stroke="#191970" points="477.4779,-198.2226 478.0396,-187.6427 471.0028,-195.5631 477.4779,-198.2226"/>
</g>
<!-- Node17&#45;&gt;Node7 -->
<g id="edge21" class="edge">
<title>Node17&#45;&gt;Node7</title>
<path fill="none" stroke="#191970" d="M596.277,-224.3733C573.8263,-215.2629 539.9261,-201.5062 514.8745,-191.3404"/>
<polygon fill="#191970" stroke="#191970" points="515.9957,-188.0182 505.4135,-187.5011 513.3635,-194.5045 515.9957,-188.0182"/>
</g>
<!-- Node18&#45;&gt;Node2 -->
<g id="edge23" class="edge">
<title>Node18&#45;&gt;Node2</title>
<path fill="none" stroke="#191970" d="M213.6022,-336.3984C206.2024,-327.5003 195.6014,-313.6206 189,-300 175.6871,-272.5315 170,-264.5246 170,-234 170,-234 170,-234 170,-178 170,-145.2688 162.0148,-107.9052 156.3978,-85.6716"/>
<polygon fill="#191970" stroke="#191970" points="159.7289,-84.5763 153.8035,-75.7934 152.9585,-86.3545 159.7289,-84.5763"/>
</g>
<!-- Node19 -->
<g id="node20" class="node">
<title>Node19</title>
<polygon fill="none" stroke="#bfbfbf" points="198.5,-280.5 198.5,-299.5 245.5,-299.5 245.5,-280.5 198.5,-280.5"/>
<text text-anchor="middle" x="222" y="-287.5" font-family="Helvetica,sans-Serif" font-size="10.00" fill="#000000">cmath</text>
</g>
<!-- Node18&#45;&gt;Node19 -->
<g id="edge24" class="edge">
<title>Node18&#45;&gt;Node19</title>
<path fill="none" stroke="#191970" d="M222,-336.2455C222,-328.9382 222,-318.6944 222,-309.7046"/>
<polygon fill="#191970" stroke="#191970" points="225.5001,-309.6426 222,-299.6427 218.5001,-309.6427 225.5001,-309.6426"/>
</g>
<!-- Node20 -->
<g id="node21" class="node">
<title>Node20</title>
<polygon fill="none" stroke="#bfbfbf" points="264,-280.5 264,-299.5 328,-299.5 328,-280.5 264,-280.5"/>
<text text-anchor="middle" x="296" y="-287.5" font-family="Helvetica,sans-Serif" font-size="10.00" fill="#000000">algorithm</text>
</g>
<!-- Node18&#45;&gt;Node20 -->
<g id="edge25" class="edge">
<title>Node18&#45;&gt;Node20</title>
<path fill="none" stroke="#191970" d="M234.8898,-336.2455C245.9254,-327.8943 262.0292,-315.7076 274.9353,-305.9408"/>
<polygon fill="#191970" stroke="#191970" points="277.3959,-308.4681 283.2579,-299.6427 273.1717,-302.8862 277.3959,-308.4681"/>
</g>
</g>
</svg>
