<?xml version="1.0" encoding="UTF-8" standalone="no"?>
<!DOCTYPE svg PUBLIC "-//W3C//DTD SVG 1.1//EN"
 "http://www.w3.org/Graphics/SVG/1.1/DTD/svg11.dtd">
<!-- Generated by graphviz version 2.40.1 (20161225.0304)
 -->
<!-- Title: /home/travis/build/AliceO2Group/AliceO2/Framework/Core/include/Framework/AnalysisDataModel.h Pages: 1 -->
<!--zoomable 285 -->
<svg id="main" version="1.1" xmlns="http://www.w3.org/2000/svg" xmlns:xlink="http://www.w3.org/1999/xlink" xml:space="preserve" onload="init(evt)">
<style type="text/css"><![CDATA[
.edge:hover path { stroke: red; }
.edge:hover polygon { stroke: red; fill: red; }
]]></style>
<script type="text/javascript"><![CDATA[
var edges = document.getElementsByTagName('g');
if (edges && edges.length) {
  for (var i=0;i<edges.length;i++) {
    if (edges[i].id.substr(0,4)=='edge') {
      edges[i].setAttribute('class','edge');
    }
  }
}
]]></script>
        <defs>
                <circle id="rim" cx="0" cy="0" r="7"/>
                <circle id="rim2" cx="0" cy="0" r="3.5"/>
                <g id="zoomPlus">
                        <use xlink:href="#rim" fill="#404040">
                                <set attributeName="fill" to="#808080" begin="zoomplus.mouseover" end="zoomplus.mouseout"/>
                        </use>
                        <path d="M-4,0h8M0,-4v8" fill="none" stroke="white" stroke-width="1.5" pointer-events="none"/>
                </g>
                <g id="zoomMin">
                        <use xlink:href="#rim" fill="#404040">
                                <set attributeName="fill" to="#808080" begin="zoomminus.mouseover" end="zoomminus.mouseout"/>
                        </use>
                        <path d="M-4,0h8" fill="none" stroke="white" stroke-width="1.5" pointer-events="none"/>
                </g>
                <g id="dirArrow">
                        <path fill="none" stroke="white" stroke-width="1.5" d="M0,-3.0v7 M-2.5,-0.5L0,-3.0L2.5,-0.5"/>
                </g>
               <g id="resetDef">
                       <use xlink:href="#rim2" fill="#404040">
                               <set attributeName="fill" to="#808080" begin="reset.mouseover" end="reset.mouseout"/>
                       </use>
               </g>
        </defs>

<script type="text/javascript">
var viewWidth = 3145;
var viewHeight = 285;
var sectionId = 'dynsection-0';
</script>
<script xlink:href="../../svgpan.js"/>
<svg id="graph" class="graph">
<g id="viewport">
<title>/home/travis/build/AliceO2Group/AliceO2/Framework/Core/include/Framework/AnalysisDataModel.h</title>
<!-- Node0 -->
<g id="node1" class="node">
<title>Node0</title>
<polygon fill="#bfbfbf" stroke="#000000" points="2829,-224.5 2829,-276.5 3008,-276.5 3008,-224.5 2829,-224.5"/>
<text text-anchor="start" x="2837" y="-264.5" font-family="Helvetica,sans-Serif" font-size="10.00" fill="#000000">/home/travis/build</text>
<text text-anchor="start" x="2837" y="-253.5" font-family="Helvetica,sans-Serif" font-size="10.00" fill="#000000">/AliceO2Group/AliceO2</text>
<text text-anchor="start" x="2837" y="-242.5" font-family="Helvetica,sans-Serif" font-size="10.00" fill="#000000">/Framework/Core/include</text>
<text text-anchor="middle" x="2918.5" y="-231.5" font-family="Helvetica,sans-Serif" font-size="10.00" fill="#000000">/Framework/AnalysisDataModel.h</text>
</g>
<!-- Node1 -->
<g id="node2" class="node">
<title>Node1</title>
<g id="a_node2"><a xlink:href="../../de/d33/ASoA_8h.html" target="_top" xlink:title="Framework/ASoA.h">
<polygon fill="none" stroke="#000000" points="1125.5,-168.5 1125.5,-187.5 1233.5,-187.5 1233.5,-168.5 1125.5,-168.5"/>
<text text-anchor="middle" x="1179.5" y="-175.5" font-family="Helvetica,sans-Serif" font-size="10.00" fill="#000000">Framework/ASoA.h</text>
</a>
</g>
</g>
<!-- Node0&#45;&gt;Node1 -->
<g id="edge1" class="edge">
<title>Node0&#45;&gt;Node1</title>
<path fill="none" stroke="#191970" d="M2828.9679,-246.7674C2521.004,-233.9281 1509.6885,-191.7658 1243.9405,-180.6866"/>
<polygon fill="#191970" stroke="#191970" points="1243.8293,-177.179 1233.6922,-180.2593 1243.5377,-184.1729 1243.8293,-177.179"/>
</g>
<!-- Node34 -->
<g id="node35" class="node">
<title>Node34</title>
<g id="a_node35"><a xlink:href="../../d9/d52/Common_2MathUtils_2include_2MathUtils_2Utils_8h.html" target="_top" xlink:title="MathUtils/Utils.h">
<polygon fill="none" stroke="#000000" points="2758.5,-168.5 2758.5,-187.5 2856.5,-187.5 2856.5,-168.5 2758.5,-168.5"/>
<text text-anchor="middle" x="2807.5" y="-175.5" font-family="Helvetica,sans-Serif" font-size="10.00" fill="#000000">MathUtils/Utils.h</text>
</a>
</g>
</g>
<!-- Node0&#45;&gt;Node34 -->
<g id="edge45" class="edge">
<title>Node0&#45;&gt;Node34</title>
<path fill="none" stroke="#191970" d="M2878.4265,-224.3258C2862.3293,-213.8119 2844.3514,-202.0696 2830.5232,-193.0377"/>
<polygon fill="#191970" stroke="#191970" points="2832.3832,-190.0721 2822.0969,-187.534 2828.5553,-195.9328 2832.3832,-190.0721"/>
</g>
<!-- Node36 -->
<g id="node37" class="node">
<title>Node36</title>
<polygon fill="none" stroke="#bfbfbf" points="2913,-56.5 2913,-75.5 2960,-75.5 2960,-56.5 2913,-56.5"/>
<text text-anchor="middle" x="2936.5" y="-63.5" font-family="Helvetica,sans-Serif" font-size="10.00" fill="#000000">cmath</text>
</g>
<!-- Node0&#45;&gt;Node36 -->
<g id="edge56" class="edge">
<title>Node0&#45;&gt;Node36</title>
<path fill="none" stroke="#191970" d="M2923.6463,-224.2731C2928.0633,-200.3464 2934.0869,-163.9547 2936.5,-132 2937.6612,-116.6234 2937.6015,-99.1741 2937.2837,-86.0808"/>
<polygon fill="#191970" stroke="#191970" points="2940.7749,-85.7424 2936.9621,-75.8574 2933.7783,-85.9625 2940.7749,-85.7424"/>
</g>
<!-- Node43 -->
<g id="node44" class="node">
<title>Node43</title>
<g id="a_node44"><a xlink:href="../../d2/d12/DataTypes_8h.html" target="_top" xlink:title="Framework/DataTypes.h">
<polygon fill="none" stroke="#000000" points="3002.5,-168.5 3002.5,-187.5 3136.5,-187.5 3136.5,-168.5 3002.5,-168.5"/>
<text text-anchor="middle" x="3069.5" y="-175.5" font-family="Helvetica,sans-Serif" font-size="10.00" fill="#000000">Framework/DataTypes.h</text>
</a>
</g>
</g>
<!-- Node0&#45;&gt;Node43 -->
<g id="edge57" class="edge">
<title>Node0&#45;&gt;Node43</title>
<path fill="none" stroke="#191970" d="M2973.0145,-224.3258C2995.8509,-213.3613 3021.4698,-201.0608 3040.567,-191.8917"/>
<polygon fill="#191970" stroke="#191970" points="3042.1431,-195.0175 3049.643,-187.534 3039.1133,-188.7072 3042.1431,-195.0175"/>
</g>
<!-- Node2 -->
<g id="node3" class="node">
<title>Node2</title>
<g id="a_node3"><a xlink:href="../../dd/dce/Pack_8h.html" target="_top" xlink:title="Framework/Pack.h">
<polygon fill="none" stroke="#000000" points="83,-56.5 83,-75.5 188,-75.5 188,-56.5 83,-56.5"/>
<text text-anchor="middle" x="135.5" y="-63.5" font-family="Helvetica,sans-Serif" font-size="10.00" fill="#000000">Framework/Pack.h</text>
</a>
</g>
</g>
<!-- Node1&#45;&gt;Node2 -->
<g id="edge2" class="edge">
<title>Node1&#45;&gt;Node2</title>
<path fill="none" stroke="#191970" d="M1125.1192,-171.9216C1076.7126,-165.4463 1004.4889,-153.1453 944.5,-132 926.5002,-125.6553 924.9061,-117.0459 906.5,-112 757.1168,-71.0476 369.1362,-91.9477 197.988,-75.991"/>
<polygon fill="#191970" stroke="#191970" points="198.3208,-72.5069 188.0218,-74.9928 197.6231,-79.4721 198.3208,-72.5069"/>
</g>
<!-- Node6 -->
<g id="node7" class="node">
<title>Node6</title>
<g id="a_node7"><a xlink:href="../../d1/d00/CheckTypes_8h.html" target="_top" xlink:title="Framework/CheckTypes.h">
<polygon fill="none" stroke="#000000" points="293.5,-56.5 293.5,-75.5 433.5,-75.5 433.5,-56.5 293.5,-56.5"/>
<text text-anchor="middle" x="363.5" y="-63.5" font-family="Helvetica,sans-Serif" font-size="10.00" fill="#000000">Framework/CheckTypes.h</text>
</a>
</g>
</g>
<!-- Node1&#45;&gt;Node6 -->
<g id="edge6" class="edge">
<title>Node1&#45;&gt;Node6</title>
<path fill="none" stroke="#191970" d="M1164.0117,-168.4013C1134.754,-150.2874 1074.0431,-112.7946 1071.5,-112 940.8671,-71.1807 597.7979,-87.9955 443.982,-76.011"/>
<polygon fill="#191970" stroke="#191970" points="443.9438,-72.4953 433.6839,-75.1383 443.3526,-79.4703 443.9438,-72.4953"/>
</g>
<!-- Node7 -->
<g id="node8" class="node">
<title>Node7</title>
<g id="a_node8"><a xlink:href="../../de/d9b/FunctionalHelpers_8h.html" target="_top" xlink:title="Framework/FunctionalHelpers.h">
<polygon fill="none" stroke="#000000" points="727.5,-112.5 727.5,-131.5 897.5,-131.5 897.5,-112.5 727.5,-112.5"/>
<text text-anchor="middle" x="812.5" y="-119.5" font-family="Helvetica,sans-Serif" font-size="10.00" fill="#000000">Framework/FunctionalHelpers.h</text>
</a>
</g>
</g>
<!-- Node1&#45;&gt;Node7 -->
<g id="edge7" class="edge">
<title>Node1&#45;&gt;Node7</title>
<path fill="none" stroke="#191970" d="M1125.3479,-169.737C1061.6836,-160.0226 955.755,-143.8591 885.0362,-133.0682"/>
<polygon fill="#191970" stroke="#191970" points="885.2805,-129.565 874.867,-131.5165 884.2246,-136.4849 885.2805,-129.565"/>
</g>
<!-- Node9 -->
<g id="node10" class="node">
<title>Node9</title>
<g id="a_node10"><a xlink:href="../../d9/de8/CompilerBuiltins_8h.html" target="_top" xlink:title="Framework/CompilerBuiltins.h">
<polygon fill="none" stroke="#000000" points="451.5,-56.5 451.5,-75.5 615.5,-75.5 615.5,-56.5 451.5,-56.5"/>
<text text-anchor="middle" x="533.5" y="-63.5" font-family="Helvetica,sans-Serif" font-size="10.00" fill="#000000">Framework/CompilerBuiltins.h</text>
</a>
</g>
</g>
<!-- Node1&#45;&gt;Node9 -->
<g id="edge10" class="edge">
<title>Node1&#45;&gt;Node9</title>
<path fill="none" stroke="#191970" d="M1172.1509,-168.2121C1160.1287,-153.0588 1134.6559,-124.3789 1105.5,-112 1009.6308,-71.2963 746.7022,-85.0101 626.0098,-76.0222"/>
<polygon fill="#191970" stroke="#191970" points="626.0823,-72.5163 615.8269,-75.1766 625.5029,-79.4922 626.0823,-72.5163"/>
</g>
<!-- Node10 -->
<g id="node11" class="node">
<title>Node10</title>
<g id="a_node11"><a xlink:href="../../db/d31/Traits_8h.html" target="_top" xlink:title="Framework/Traits.h">
<polygon fill="none" stroke="#000000" points="954,-112.5 954,-131.5 1063,-131.5 1063,-112.5 954,-112.5"/>
<text text-anchor="middle" x="1008.5" y="-119.5" font-family="Helvetica,sans-Serif" font-size="10.00" fill="#000000">Framework/Traits.h</text>
</a>
</g>
</g>
<!-- Node1&#45;&gt;Node10 -->
<g id="edge11" class="edge">
<title>Node1&#45;&gt;Node10</title>
<path fill="none" stroke="#191970" d="M1150.1041,-168.3733C1121.6693,-159.0613 1078.4123,-144.8953 1047.1919,-134.671"/>
<polygon fill="#191970" stroke="#191970" points="1048.105,-131.2872 1037.5124,-131.5011 1045.9264,-137.9396 1048.105,-131.2872"/>
</g>
<!-- Node12 -->
<g id="node13" class="node">
<title>Node12</title>
<g id="a_node13"><a xlink:href="../../d0/d91/Expressions_8h.html" target="_top" xlink:title="Framework/Expressions.h">
<polygon fill="none" stroke="#000000" points="1158,-112.5 1158,-131.5 1299,-131.5 1299,-112.5 1158,-112.5"/>
<text text-anchor="middle" x="1228.5" y="-119.5" font-family="Helvetica,sans-Serif" font-size="10.00" fill="#000000">Framework/Expressions.h</text>
</a>
</g>
</g>
<!-- Node1&#45;&gt;Node12 -->
<g id="edge13" class="edge">
<title>Node1&#45;&gt;Node12</title>
<path fill="none" stroke="#191970" d="M1188.0351,-168.2455C1194.9912,-160.2958 1204.9883,-148.8706 1213.3051,-139.3656"/>
<polygon fill="#191970" stroke="#191970" points="1216.1116,-141.4732 1220.0627,-131.6427 1210.8436,-136.8637 1216.1116,-141.4732"/>
</g>
<!-- Node18 -->
<g id="node19" class="node">
<title>Node18</title>
<polygon fill="none" stroke="#bfbfbf" points="1491,-56.5 1491,-75.5 1572,-75.5 1572,-56.5 1491,-56.5"/>
<text text-anchor="middle" x="1531.5" y="-63.5" font-family="Helvetica,sans-Serif" font-size="10.00" fill="#000000">arrow/table.h</text>
</g>
<!-- Node1&#45;&gt;Node18 -->
<g id="edge38" class="edge">
<title>Node1&#45;&gt;Node18</title>
<path fill="none" stroke="#191970" d="M1209.5113,-168.4509C1272.8967,-148.2829 1420.4187,-101.3441 1491.6307,-78.6857"/>
<polygon fill="#191970" stroke="#191970" points="1493.0966,-81.8922 1501.5646,-75.5249 1490.9741,-75.2217 1493.0966,-81.8922"/>
</g>
<!-- Node19 -->
<g id="node20" class="node">
<title>Node19</title>
<polygon fill="none" stroke="#bfbfbf" points="1590,-56.5 1590,-75.5 1737,-75.5 1737,-56.5 1590,-56.5"/>
<text text-anchor="middle" x="1663.5" y="-63.5" font-family="Helvetica,sans-Serif" font-size="10.00" fill="#000000">gandiva/selection_vector.h</text>
</g>
<!-- Node1&#45;&gt;Node19 -->
<g id="edge43" class="edge">
<title>Node1&#45;&gt;Node19</title>
<path fill="none" stroke="#191970" d="M1233.512,-176.2331C1330.6921,-172.3619 1530.7381,-161.037 1593.5,-132 1617.0344,-121.1117 1637.7685,-99.1565 1650.4433,-83.5618"/>
<polygon fill="#191970" stroke="#191970" points="1653.2175,-85.696 1656.6223,-75.6631 1647.7041,-81.3829 1653.2175,-85.696"/>
</g>
<!-- Node25 -->
<g id="node26" class="node">
<title>Node25</title>
<g id="a_node26"><a xlink:href="../../d0/d92/Kernels_8h.html" target="_top" xlink:title="Framework/Kernels.h">
<polygon fill="none" stroke="#000000" points="1971,-112.5 1971,-131.5 2090,-131.5 2090,-112.5 1971,-112.5"/>
<text text-anchor="middle" x="2030.5" y="-119.5" font-family="Helvetica,sans-Serif" font-size="10.00" fill="#000000">Framework/Kernels.h</text>
</a>
</g>
</g>
<!-- Node1&#45;&gt;Node25 -->
<g id="edge29" class="edge">
<title>Node1&#45;&gt;Node25</title>
<path fill="none" stroke="#191970" d="M1233.7035,-174.4331C1382.1633,-164.6638 1795.2754,-137.4789 1960.6985,-126.5933"/>
<polygon fill="#191970" stroke="#191970" points="1961.0099,-130.0805 1970.7585,-125.9313 1960.5502,-123.0956 1961.0099,-130.0805"/>
</g>
<!-- Node26 -->
<g id="node27" class="node">
<title>Node26</title>
<polygon fill="none" stroke="#bfbfbf" points="1964,-56.5 1964,-75.5 2097,-75.5 2097,-56.5 1964,-56.5"/>
<text text-anchor="middle" x="2030.5" y="-63.5" font-family="Helvetica,sans-Serif" font-size="10.00" fill="#000000">arrow/compute/kernel.h</text>
</g>
<!-- Node1&#45;&gt;Node26 -->
<g id="edge42" class="edge">
<title>Node1&#45;&gt;Node26</title>
<path fill="none" stroke="#191970" d="M1233.7091,-173.3489C1317.1742,-165.9641 1482.1134,-150.4846 1621.5,-132 1744.4073,-115.7008 1887.2359,-91.4273 1967.4316,-77.3086"/>
<polygon fill="#191970" stroke="#191970" points="1968.132,-80.7392 1977.3713,-75.5542 1966.9152,-73.8457 1968.132,-80.7392"/>
</g>
<!-- Node29 -->
<g id="node30" class="node">
<title>Node29</title>
<polygon fill="none" stroke="#bfbfbf" points="2353.5,-56.5 2353.5,-75.5 2463.5,-75.5 2463.5,-56.5 2353.5,-56.5"/>
<text text-anchor="middle" x="2408.5" y="-63.5" font-family="Helvetica,sans-Serif" font-size="10.00" fill="#000000">arrow/util/variant.h</text>
</g>
<!-- Node1&#45;&gt;Node29 -->
<g id="edge40" class="edge">
<title>Node1&#45;&gt;Node29</title>
<path fill="none" stroke="#191970" d="M1233.7534,-176.4321C1404.6423,-171.3131 1930.4266,-154.1376 2099.5,-132 2194.1074,-119.6126 2302.8019,-93.5898 2362.7658,-78.1791"/>
<polygon fill="#191970" stroke="#191970" points="2363.867,-81.5095 2372.6713,-75.6158 2362.1133,-74.7328 2363.867,-81.5095"/>
</g>
<!-- Node30 -->
<g id="node31" class="node">
<title>Node30</title>
<g id="a_node31"><a xlink:href="../../d1/dc1/ArrowCompatibility_8h.html" target="_top" xlink:title="Framework/ArrowCompatibility.h">
<polygon fill="none" stroke="#000000" points="1408.5,-112.5 1408.5,-131.5 1584.5,-131.5 1584.5,-112.5 1408.5,-112.5"/>
<text text-anchor="middle" x="1496.5" y="-119.5" font-family="Helvetica,sans-Serif" font-size="10.00" fill="#000000">Framework/ArrowCompatibility.h</text>
</a>
</g>
</g>
<!-- Node1&#45;&gt;Node30 -->
<g id="edge36" class="edge">
<title>Node1&#45;&gt;Node30</title>
<path fill="none" stroke="#191970" d="M1233.6341,-168.4369C1288.798,-158.6918 1374.3237,-143.5832 1432.7351,-133.2645"/>
<polygon fill="#191970" stroke="#191970" points="1433.3506,-136.71 1442.5892,-131.5237 1432.1328,-129.8167 1433.3506,-136.71"/>
</g>
<!-- Node31 -->
<g id="node32" class="node">
<title>Node31</title>
<polygon fill="none" stroke="#bfbfbf" points="401.5,-112.5 401.5,-131.5 481.5,-131.5 481.5,-112.5 401.5,-112.5"/>
<text text-anchor="middle" x="441.5" y="-119.5" font-family="Helvetica,sans-Serif" font-size="10.00" fill="#000000">arrow/array.h</text>
</g>
<!-- Node1&#45;&gt;Node31 -->
<g id="edge39" class="edge">
<title>Node1&#45;&gt;Node31</title>
<path fill="none" stroke="#191970" d="M1125.2091,-176.8581C1010.1375,-173.9015 733.1561,-163.9477 491.5621,-131.9705"/>
<polygon fill="#191970" stroke="#191970" points="491.9126,-128.4863 481.5365,-130.628 490.9835,-135.4243 491.9126,-128.4863"/>
</g>
<!-- Node32 -->
<g id="node33" class="node">
<title>Node32</title>
<polygon fill="none" stroke="#bfbfbf" points="500,-112.5 500,-131.5 639,-131.5 639,-112.5 500,-112.5"/>
<text text-anchor="middle" x="569.5" y="-119.5" font-family="Helvetica,sans-Serif" font-size="10.00" fill="#000000">arrow/compute/context.h</text>
</g>
<!-- Node1&#45;&gt;Node32 -->
<g id="edge41" class="edge">
<title>Node1&#45;&gt;Node32</title>
<path fill="none" stroke="#191970" d="M1125.1583,-174.0048C1030.6915,-166.9035 829.8296,-151.1156 649.2172,-132.0396"/>
<polygon fill="#191970" stroke="#191970" points="649.5831,-128.5588 639.2694,-130.9833 648.844,-135.5197 649.5831,-128.5588"/>
</g>
<!-- Node33 -->
<g id="node34" class="node">
<title>Node33</title>
<polygon fill="none" stroke="#bfbfbf" points="657.5,-112.5 657.5,-131.5 709.5,-131.5 709.5,-112.5 657.5,-112.5"/>
<text text-anchor="middle" x="683.5" y="-119.5" font-family="Helvetica,sans-Serif" font-size="10.00" fill="#000000">cassert</text>
</g>
<!-- Node1&#45;&gt;Node33 -->
<g id="edge44" class="edge">
<title>Node1&#45;&gt;Node33</title>
<path fill="none" stroke="#191970" d="M1125.4628,-175.7423C1040.7544,-171.5181 871.5324,-160.3198 719.7249,-131.9399"/>
<polygon fill="#191970" stroke="#191970" points="720.2293,-128.4732 709.7518,-130.0456 718.923,-135.3502 720.2293,-128.4732"/>
</g>
<!-- Node3 -->
<g id="node4" class="node">
<title>Node3</title>
<polygon fill="none" stroke="#bfbfbf" points="177,-.5 177,-19.5 230,-19.5 230,-.5 177,-.5"/>
<text text-anchor="middle" x="203.5" y="-7.5" font-family="Helvetica,sans-Serif" font-size="10.00" fill="#000000">cstddef</text>
</g>
<!-- Node2&#45;&gt;Node3 -->
<g id="edge3" class="edge">
<title>Node2&#45;&gt;Node3</title>
<path fill="none" stroke="#191970" d="M147.3447,-56.2455C157.388,-47.9746 171.9995,-35.9416 183.8004,-26.2232"/>
<polygon fill="#191970" stroke="#191970" points="186.2967,-28.7015 191.791,-19.6427 181.8467,-23.298 186.2967,-28.7015"/>
</g>
<!-- Node4 -->
<g id="node5" class="node">
<title>Node4</title>
<polygon fill="none" stroke="#bfbfbf" points="49,-.5 49,-19.5 94,-19.5 94,-.5 49,-.5"/>
<text text-anchor="middle" x="71.5" y="-7.5" font-family="Helvetica,sans-Serif" font-size="10.00" fill="#000000">utility</text>
</g>
<!-- Node2&#45;&gt;Node4 -->
<g id="edge4" class="edge">
<title>Node2&#45;&gt;Node4</title>
<path fill="none" stroke="#191970" d="M124.3521,-56.2455C114.9913,-48.0549 101.4142,-36.1749 90.3651,-26.5069"/>
<polygon fill="#191970" stroke="#191970" points="92.3508,-23.5937 82.5202,-19.6427 87.7412,-28.8618 92.3508,-23.5937"/>
</g>
<!-- Node5 -->
<g id="node6" class="node">
<title>Node5</title>
<polygon fill="none" stroke="#bfbfbf" points="112.5,-.5 112.5,-19.5 158.5,-19.5 158.5,-.5 112.5,-.5"/>
<text text-anchor="middle" x="135.5" y="-7.5" font-family="Helvetica,sans-Serif" font-size="10.00" fill="#000000">cstdio</text>
</g>
<!-- Node2&#45;&gt;Node5 -->
<g id="edge5" class="edge">
<title>Node2&#45;&gt;Node5</title>
<path fill="none" stroke="#191970" d="M135.5,-56.2455C135.5,-48.9382 135.5,-38.6944 135.5,-29.7046"/>
<polygon fill="#191970" stroke="#191970" points="139.0001,-29.6426 135.5,-19.6427 132.0001,-29.6427 139.0001,-29.6426"/>
</g>
<!-- Node7&#45;&gt;Node2 -->
<g id="edge8" class="edge">
<title>Node7&#45;&gt;Node2</title>
<path fill="none" stroke="#191970" d="M727.4594,-112.8101C724.4365,-112.529 721.4428,-112.2579 718.5,-112 490.1174,-91.9837 429.2121,-102.5306 198.094,-76.0939"/>
<polygon fill="#191970" stroke="#191970" points="198.3641,-72.602 188.0286,-74.9317 197.5611,-79.5558 198.3641,-72.602"/>
</g>
<!-- Node8 -->
<g id="node9" class="node">
<title>Node8</title>
<polygon fill="none" stroke="#bfbfbf" points="0,-56.5 0,-75.5 65,-75.5 65,-56.5 0,-56.5"/>
<text text-anchor="middle" x="32.5" y="-63.5" font-family="Helvetica,sans-Serif" font-size="10.00" fill="#000000">functional</text>
</g>
<!-- Node7&#45;&gt;Node8 -->
<g id="edge9" class="edge">
<title>Node7&#45;&gt;Node8</title>
<path fill="none" stroke="#191970" d="M727.4636,-112.7601C724.4395,-112.4932 721.4444,-112.2386 718.5,-112 435.6791,-89.0782 359.2784,-117.5125 75.2587,-76.02"/>
<polygon fill="#191970" stroke="#191970" points="75.4711,-72.5135 65.067,-74.5143 74.448,-79.4383 75.4711,-72.5135"/>
</g>
<!-- Node11 -->
<g id="node12" class="node">
<title>Node11</title>
<polygon fill="none" stroke="#bfbfbf" points="206,-56.5 206,-75.5 275,-75.5 275,-56.5 206,-56.5"/>
<text text-anchor="middle" x="240.5" y="-63.5" font-family="Helvetica,sans-Serif" font-size="10.00" fill="#000000">type_traits</text>
</g>
<!-- Node10&#45;&gt;Node11 -->
<g id="edge12" class="edge">
<title>Node10&#45;&gt;Node11</title>
<path fill="none" stroke="#191970" d="M953.9417,-113.6355C949.0649,-113.0264 944.1974,-112.4685 939.5,-112 652.6472,-83.3879 574.9683,-115.7084 285.4149,-75.8908"/>
<polygon fill="#191970" stroke="#191970" points="285.8531,-72.4181 275.466,-74.5059 284.888,-79.3513 285.8531,-72.4181"/>
</g>
<!-- Node12&#45;&gt;Node2 -->
<g id="edge16" class="edge">
<title>Node12&#45;&gt;Node2</title>
<path fill="none" stroke="#191970" d="M1157.7897,-117.1571C1130.7952,-115.3973 1099.7294,-113.4796 1071.5,-112 686.1369,-91.8024 585.4176,-115.15 198.0971,-76.0498"/>
<polygon fill="#191970" stroke="#191970" points="198.3213,-72.5546 188.0184,-75.0248 197.613,-79.5187 198.3213,-72.5546"/>
</g>
<!-- Node12&#45;&gt;Node6 -->
<g id="edge17" class="edge">
<title>Node12&#45;&gt;Node6</title>
<path fill="none" stroke="#191970" d="M1157.9522,-115.9369C1140.7946,-114.5528 1122.4936,-113.152 1105.5,-112 814.3815,-92.2658 738.1092,-102.3143 443.7964,-76.0578"/>
<polygon fill="#191970" stroke="#191970" points="443.9561,-72.5581 433.6829,-75.1489 443.3295,-79.53 443.9561,-72.5581"/>
</g>
<!-- Node12&#45;&gt;Node9 -->
<g id="edge15" class="edge">
<title>Node12&#45;&gt;Node9</title>
<path fill="none" stroke="#191970" d="M1157.5656,-113.3976C1152.8081,-112.9 1148.0862,-112.4286 1143.5,-112 916.5421,-90.7904 856.4892,-96.4641 625.8692,-76.0909"/>
<polygon fill="#191970" stroke="#191970" points="626.0961,-72.5973 615.8251,-75.1967 625.4753,-79.5697 626.0961,-72.5973"/>
</g>
<!-- Node13 -->
<g id="node14" class="node">
<title>Node13</title>
<g id="a_node14"><a xlink:href="../../dd/dc2/BasicOps_8h.html" target="_top" xlink:title="Framework/BasicOps.h">
<polygon fill="none" stroke="#000000" points="1755.5,-56.5 1755.5,-75.5 1883.5,-75.5 1883.5,-56.5 1755.5,-56.5"/>
<text text-anchor="middle" x="1819.5" y="-63.5" font-family="Helvetica,sans-Serif" font-size="10.00" fill="#000000">Framework/BasicOps.h</text>
</a>
</g>
</g>
<!-- Node12&#45;&gt;Node13 -->
<g id="edge14" class="edge">
<title>Node12&#45;&gt;Node13</title>
<path fill="none" stroke="#191970" d="M1299.4068,-116.7772C1397.235,-109.3321 1579.3676,-94.6124 1745.0437,-76.1191"/>
<polygon fill="#191970" stroke="#191970" points="1745.8807,-79.5472 1755.4275,-74.9526 1745.0992,-72.5909 1745.8807,-79.5472"/>
</g>
<!-- Node14 -->
<g id="node15" class="node">
<title>Node14</title>
<polygon fill="none" stroke="#bfbfbf" points="634,-56.5 634,-75.5 735,-75.5 735,-56.5 634,-56.5"/>
<text text-anchor="middle" x="684.5" y="-63.5" font-family="Helvetica,sans-Serif" font-size="10.00" fill="#000000">arrow/type_fwd.h</text>
</g>
<!-- Node12&#45;&gt;Node14 -->
<g id="edge18" class="edge">
<title>Node12&#45;&gt;Node14</title>
<path fill="none" stroke="#191970" d="M1157.5547,-113.5077C1152.7999,-112.9835 1148.0815,-112.4761 1143.5,-112 969.5995,-93.9288 922.7865,-98.4769 745.1394,-75.9938"/>
<polygon fill="#191970" stroke="#191970" points="745.5621,-72.5195 735.1994,-74.7251 744.6757,-79.4631 745.5621,-72.5195"/>
</g>
<!-- Node15 -->
<g id="node16" class="node">
<title>Node15</title>
<polygon fill="none" stroke="#bfbfbf" points="753.5,-56.5 753.5,-75.5 899.5,-75.5 899.5,-56.5 753.5,-56.5"/>
<text text-anchor="middle" x="826.5" y="-63.5" font-family="Helvetica,sans-Serif" font-size="10.00" fill="#000000">gandiva/gandiva_aliases.h</text>
</g>
<!-- Node12&#45;&gt;Node15 -->
<g id="edge19" class="edge">
<title>Node12&#45;&gt;Node15</title>
<path fill="none" stroke="#191970" d="M1159.8505,-112.4369C1089.1723,-102.5912 979.1915,-87.2705 905.0782,-76.9462"/>
<polygon fill="#191970" stroke="#191970" points="905.2536,-73.4369 894.8663,-75.5237 904.2878,-80.37 905.2536,-73.4369"/>
</g>
<!-- Node16 -->
<g id="node17" class="node">
<title>Node16</title>
<polygon fill="none" stroke="#bfbfbf" points="917.5,-56.5 917.5,-75.5 995.5,-75.5 995.5,-56.5 917.5,-56.5"/>
<text text-anchor="middle" x="956.5" y="-63.5" font-family="Helvetica,sans-Serif" font-size="10.00" fill="#000000">arrow/type.h</text>
</g>
<!-- Node12&#45;&gt;Node16 -->
<g id="edge20" class="edge">
<title>Node12&#45;&gt;Node16</title>
<path fill="none" stroke="#191970" d="M1181.7284,-112.4356C1138.5314,-103.593 1072.3021,-90.0127 1005.4033,-76.1829"/>
<polygon fill="#191970" stroke="#191970" points="1006.0324,-72.739 995.5308,-74.1411 1004.6147,-79.5939 1006.0324,-72.739"/>
</g>
<!-- Node17 -->
<g id="node18" class="node">
<title>Node17</title>
<polygon fill="none" stroke="#bfbfbf" points="1014,-56.5 1014,-75.5 1109,-75.5 1109,-56.5 1014,-56.5"/>
<text text-anchor="middle" x="1061.5" y="-63.5" font-family="Helvetica,sans-Serif" font-size="10.00" fill="#000000">gandiva/arrow.h</text>
</g>
<!-- Node12&#45;&gt;Node17 -->
<g id="edge21" class="edge">
<title>Node12&#45;&gt;Node17</title>
<path fill="none" stroke="#191970" d="M1199.7917,-112.3733C1172.1423,-103.1016 1130.1424,-89.0178 1099.6834,-78.804"/>
<polygon fill="#191970" stroke="#191970" points="1100.4276,-75.3621 1089.8337,-75.5011 1098.2021,-81.9989 1100.4276,-75.3621"/>
</g>
<!-- Node12&#45;&gt;Node18 -->
<g id="edge22" class="edge">
<title>Node12&#45;&gt;Node18</title>
<path fill="none" stroke="#191970" d="M1282.347,-112.4919C1331.3983,-103.7667 1406.1112,-90.3179 1480.7956,-76.1095"/>
<polygon fill="#191970" stroke="#191970" points="1481.6853,-79.5029 1490.8526,-74.1914 1480.3739,-72.6269 1481.6853,-79.5029"/>
</g>
<!-- Node12&#45;&gt;Node19 -->
<g id="edge23" class="edge">
<title>Node12&#45;&gt;Node19</title>
<path fill="none" stroke="#191970" d="M1299.3584,-112.878C1376.0081,-103.0105 1498.1386,-87.2879 1579.5468,-76.8078"/>
<polygon fill="#191970" stroke="#191970" points="1580.2908,-80.241 1589.762,-75.4927 1579.397,-73.2983 1580.2908,-80.241"/>
</g>
<!-- Node20 -->
<g id="node21" class="node">
<title>Node20</title>
<polygon fill="none" stroke="#bfbfbf" points="1127.5,-56.5 1127.5,-75.5 1219.5,-75.5 1219.5,-56.5 1127.5,-56.5"/>
<text text-anchor="middle" x="1173.5" y="-63.5" font-family="Helvetica,sans-Serif" font-size="10.00" fill="#000000">gandiva/node.h</text>
</g>
<!-- Node12&#45;&gt;Node20 -->
<g id="edge24" class="edge">
<title>Node12&#45;&gt;Node20</title>
<path fill="none" stroke="#191970" d="M1218.9197,-112.2455C1210.9542,-104.1352 1199.4359,-92.4075 1189.9921,-82.7919"/>
<polygon fill="#191970" stroke="#191970" points="1192.4747,-80.3247 1182.9705,-75.6427 1187.4805,-85.2297 1192.4747,-80.3247"/>
</g>
<!-- Node21 -->
<g id="node22" class="node">
<title>Node21</title>
<polygon fill="none" stroke="#bfbfbf" points="1238,-56.5 1238,-75.5 1327,-75.5 1327,-56.5 1238,-56.5"/>
<text text-anchor="middle" x="1282.5" y="-63.5" font-family="Helvetica,sans-Serif" font-size="10.00" fill="#000000">gandiva/filter.h</text>
</g>
<!-- Node12&#45;&gt;Node21 -->
<g id="edge25" class="edge">
<title>Node12&#45;&gt;Node21</title>
<path fill="none" stroke="#191970" d="M1237.9061,-112.2455C1245.6493,-104.2155 1256.812,-92.6394 1266.0318,-83.0781"/>
<polygon fill="#191970" stroke="#191970" points="1268.7798,-85.2706 1273.2017,-75.6427 1263.7409,-80.4117 1268.7798,-85.2706"/>
</g>
<!-- Node22 -->
<g id="node23" class="node">
<title>Node22</title>
<polygon fill="none" stroke="#bfbfbf" points="1345,-56.5 1345,-75.5 1396,-75.5 1396,-56.5 1345,-56.5"/>
<text text-anchor="middle" x="1370.5" y="-63.5" font-family="Helvetica,sans-Serif" font-size="10.00" fill="#000000">variant</text>
</g>
<!-- Node12&#45;&gt;Node22 -->
<g id="edge26" class="edge">
<title>Node12&#45;&gt;Node22</title>
<path fill="none" stroke="#191970" d="M1252.9107,-112.3733C1276.1142,-103.2226 1311.2038,-89.3844 1337.0142,-79.2057"/>
<polygon fill="#191970" stroke="#191970" points="1338.3892,-82.4258 1346.4079,-75.5011 1335.8211,-75.9139 1338.3892,-82.4258"/>
</g>
<!-- Node23 -->
<g id="node24" class="node">
<title>Node23</title>
<polygon fill="none" stroke="#bfbfbf" points="1901.5,-56.5 1901.5,-75.5 1945.5,-75.5 1945.5,-56.5 1901.5,-56.5"/>
<text text-anchor="middle" x="1923.5" y="-63.5" font-family="Helvetica,sans-Serif" font-size="10.00" fill="#000000">string</text>
</g>
<!-- Node12&#45;&gt;Node23 -->
<g id="edge27" class="edge">
<title>Node12&#45;&gt;Node23</title>
<path fill="none" stroke="#191970" d="M1299.004,-117.5773C1454.372,-107.772 1817.7102,-84.4977 1891.1036,-75.3965"/>
<polygon fill="#191970" stroke="#191970" points="1891.9459,-78.8095 1901.3181,-73.8685 1890.9103,-71.8866 1891.9459,-78.8095"/>
</g>
<!-- Node24 -->
<g id="node25" class="node">
<title>Node24</title>
<polygon fill="none" stroke="#bfbfbf" points="1414.5,-56.5 1414.5,-75.5 1472.5,-75.5 1472.5,-56.5 1414.5,-56.5"/>
<text text-anchor="middle" x="1443.5" y="-63.5" font-family="Helvetica,sans-Serif" font-size="10.00" fill="#000000">memory</text>
</g>
<!-- Node12&#45;&gt;Node24 -->
<g id="edge28" class="edge">
<title>Node12&#45;&gt;Node24</title>
<path fill="none" stroke="#191970" d="M1265.4602,-112.4297C1299.2454,-103.6736 1350.8587,-90.2776 1404.7314,-76.1959"/>
<polygon fill="#191970" stroke="#191970" points="1405.6671,-79.569 1414.4563,-73.6529 1403.8961,-72.7967 1405.6671,-79.569"/>
</g>
<!-- Node25&#45;&gt;Node13 -->
<g id="edge30" class="edge">
<title>Node25&#45;&gt;Node13</title>
<path fill="none" stroke="#191970" d="M1994.2278,-112.3733C1958.5342,-102.9001 1903.9121,-88.4032 1865.2549,-78.1435"/>
<polygon fill="#191970" stroke="#191970" points="1865.8621,-74.6835 1855.2989,-75.5011 1864.0664,-81.4493 1865.8621,-74.6835"/>
</g>
<!-- Node25&#45;&gt;Node23 -->
<g id="edge35" class="edge">
<title>Node25&#45;&gt;Node23</title>
<path fill="none" stroke="#191970" d="M2011.862,-112.2455C1995.0614,-103.4527 1970.1366,-90.4079 1951.0382,-80.4125"/>
<polygon fill="#191970" stroke="#191970" points="1952.4073,-77.1787 1941.9244,-75.6427 1949.1614,-83.3807 1952.4073,-77.1787"/>
</g>
<!-- Node25&#45;&gt;Node26 -->
<g id="edge31" class="edge">
<title>Node25&#45;&gt;Node26</title>
<path fill="none" stroke="#191970" d="M2030.5,-112.2455C2030.5,-104.9382 2030.5,-94.6944 2030.5,-85.7046"/>
<polygon fill="#191970" stroke="#191970" points="2034.0001,-85.6426 2030.5,-75.6427 2027.0001,-85.6427 2034.0001,-85.6426"/>
</g>
<!-- Node27 -->
<g id="node28" class="node">
<title>Node27</title>
<polygon fill="none" stroke="#bfbfbf" points="2115.5,-56.5 2115.5,-75.5 2201.5,-75.5 2201.5,-56.5 2115.5,-56.5"/>
<text text-anchor="middle" x="2158.5" y="-63.5" font-family="Helvetica,sans-Serif" font-size="10.00" fill="#000000">arrow/status.h</text>
</g>
<!-- Node25&#45;&gt;Node27 -->
<g id="edge32" class="edge">
<title>Node25&#45;&gt;Node27</title>
<path fill="none" stroke="#191970" d="M2052.504,-112.3733C2073.1435,-103.3435 2104.2158,-89.7494 2127.3889,-79.6111"/>
<polygon fill="#191970" stroke="#191970" points="2129.0245,-82.7159 2136.7831,-75.5011 2126.2187,-76.3028 2129.0245,-82.7159"/>
</g>
<!-- Node28 -->
<g id="node29" class="node">
<title>Node28</title>
<polygon fill="none" stroke="#bfbfbf" points="2219.5,-56.5 2219.5,-75.5 2335.5,-75.5 2335.5,-56.5 2219.5,-56.5"/>
<text text-anchor="middle" x="2277.5" y="-63.5" font-family="Helvetica,sans-Serif" font-size="10.00" fill="#000000">arrow/util/visibility.h</text>
</g>
<!-- Node25&#45;&gt;Node28 -->
<g id="edge33" class="edge">
<title>Node25&#45;&gt;Node28</title>
<path fill="none" stroke="#191970" d="M2072.6802,-112.4369C2114.9523,-102.8529 2180.1062,-88.0812 2225.5417,-77.78"/>
<polygon fill="#191970" stroke="#191970" points="2226.5152,-81.1482 2235.4938,-75.5237 2224.9674,-74.3215 2226.5152,-81.1482"/>
</g>
<!-- Node25&#45;&gt;Node29 -->
<g id="edge34" class="edge">
<title>Node25&#45;&gt;Node29</title>
<path fill="none" stroke="#191970" d="M2090.1369,-113.436C2151.1586,-104.6341 2249.0062,-90.4129 2343.3462,-76.1644"/>
<polygon fill="#191970" stroke="#191970" points="2343.983,-79.608 2353.3472,-74.6518 2342.9362,-72.6867 2343.983,-79.608"/>
</g>
<!-- Node30&#45;&gt;Node18 -->
<g id="edge37" class="edge">
<title>Node30&#45;&gt;Node18</title>
<path fill="none" stroke="#191970" d="M1502.5965,-112.2455C1507.4145,-104.5367 1514.2751,-93.5598 1520.1032,-84.2348"/>
<polygon fill="#191970" stroke="#191970" points="1523.1413,-85.9777 1525.4733,-75.6427 1517.2053,-82.2677 1523.1413,-85.9777"/>
</g>
<!-- Node35 -->
<g id="node36" class="node">
<title>Node35</title>
<polygon fill="none" stroke="#bfbfbf" points="2866.5,-112.5 2866.5,-131.5 2908.5,-131.5 2908.5,-112.5 2866.5,-112.5"/>
<text text-anchor="middle" x="2887.5" y="-119.5" font-family="Helvetica,sans-Serif" font-size="10.00" fill="#000000">array</text>
</g>
<!-- Node34&#45;&gt;Node35 -->
<g id="edge46" class="edge">
<title>Node34&#45;&gt;Node35</title>
<path fill="none" stroke="#191970" d="M2821.4349,-168.2455C2833.5947,-159.7337 2851.4464,-147.2375 2865.5285,-137.3801"/>
<polygon fill="#191970" stroke="#191970" points="2867.5395,-140.2447 2873.7248,-131.6427 2863.5253,-134.51 2867.5395,-140.2447"/>
</g>
<!-- Node34&#45;&gt;Node36 -->
<g id="edge47" class="edge">
<title>Node34&#45;&gt;Node36</title>
<path fill="none" stroke="#191970" d="M2853.9401,-168.469C2875.9888,-161.724 2901.0501,-150.4739 2917.5,-132 2928.7622,-119.3521 2933.3761,-100.4228 2935.2521,-86.0753"/>
<polygon fill="#191970" stroke="#191970" points="2938.7708,-86.0479 2936.2444,-75.7588 2931.803,-85.3777 2938.7708,-86.0479"/>
</g>
<!-- Node37 -->
<g id="node38" class="node">
<title>Node37</title>
<g id="a_node38"><a xlink:href="../../df/d21/GPUCommonDef_8h.html" target="_top" xlink:title="GPUCommonDef.h">
<polygon fill="none" stroke="#000000" points="2482,-56.5 2482,-75.5 2589,-75.5 2589,-56.5 2482,-56.5"/>
<text text-anchor="middle" x="2535.5" y="-63.5" font-family="Helvetica,sans-Serif" font-size="10.00" fill="#000000">GPUCommonDef.h</text>
</a>
</g>
</g>
<!-- Node34&#45;&gt;Node37 -->
<g id="edge48" class="edge">
<title>Node34&#45;&gt;Node37</title>
<path fill="none" stroke="#191970" d="M2758.1946,-173.7879C2678.403,-166.4678 2528.2598,-150.4077 2512.5,-132 2500.7367,-118.2602 2510.4704,-98.1442 2520.655,-83.7357"/>
<polygon fill="#191970" stroke="#191970" points="2523.574,-85.6803 2526.8665,-75.6101 2518.0127,-81.4291 2523.574,-85.6803"/>
</g>
<!-- Node40 -->
<g id="node41" class="node">
<title>Node40</title>
<g id="a_node41"><a xlink:href="../../d6/da2/GPUCommonMath_8h.html" target="_top" xlink:title="GPUCommonMath.h">
<polygon fill="none" stroke="#000000" points="2521,-112.5 2521,-131.5 2636,-131.5 2636,-112.5 2521,-112.5"/>
<text text-anchor="middle" x="2578.5" y="-119.5" font-family="Helvetica,sans-Serif" font-size="10.00" fill="#000000">GPUCommonMath.h</text>
</a>
</g>
</g>
<!-- Node34&#45;&gt;Node40 -->
<g id="edge51" class="edge">
<title>Node34&#45;&gt;Node40</title>
<path fill="none" stroke="#191970" d="M2768.3937,-168.4369C2729.3668,-158.8932 2669.3035,-144.2052 2627.2038,-133.9101"/>
<polygon fill="#191970" stroke="#191970" points="2627.9902,-130.4993 2617.445,-131.5237 2626.3274,-137.299 2627.9902,-130.4993"/>
</g>
<!-- Node42 -->
<g id="node43" class="node">
<title>Node42</title>
<g id="a_node43"><a xlink:href="../../d6/d84/MathConstants_8h.html" target="_top" xlink:title="useful math constants ">
<polygon fill="none" stroke="#000000" points="2654.5,-112.5 2654.5,-131.5 2848.5,-131.5 2848.5,-112.5 2654.5,-112.5"/>
<text text-anchor="middle" x="2751.5" y="-119.5" font-family="Helvetica,sans-Serif" font-size="10.00" fill="#000000">CommonConstants/MathConstants.h</text>
</a>
</g>
</g>
<!-- Node34&#45;&gt;Node42 -->
<g id="edge55" class="edge">
<title>Node34&#45;&gt;Node42</title>
<path fill="none" stroke="#191970" d="M2797.7455,-168.2455C2789.6352,-160.1352 2777.9075,-148.4075 2768.2919,-138.7919"/>
<polygon fill="#191970" stroke="#191970" points="2770.6887,-136.2389 2761.1427,-131.6427 2765.7389,-141.1887 2770.6887,-136.2389"/>
</g>
<!-- Node38 -->
<g id="node39" class="node">
<title>Node38</title>
<g id="a_node39"><a xlink:href="../../d5/d93/GPUCommonDefSettings_8h.html" target="_top" xlink:title="GPUCommonDefSettings.h">
<polygon fill="none" stroke="#000000" points="2384.5,-.5 2384.5,-19.5 2532.5,-19.5 2532.5,-.5 2384.5,-.5"/>
<text text-anchor="middle" x="2458.5" y="-7.5" font-family="Helvetica,sans-Serif" font-size="10.00" fill="#000000">GPUCommonDefSettings.h</text>
</a>
</g>
</g>
<!-- Node37&#45;&gt;Node38 -->
<g id="edge49" class="edge">
<title>Node37&#45;&gt;Node38</title>
<path fill="none" stroke="#191970" d="M2522.0876,-56.2455C2510.4943,-47.814 2493.5252,-35.4729 2480.0322,-25.6598"/>
<polygon fill="#191970" stroke="#191970" points="2481.9047,-22.6938 2471.7587,-19.6427 2477.7874,-28.355 2481.9047,-22.6938"/>
</g>
<!-- Node39 -->
<g id="node40" class="node">
<title>Node39</title>
<g id="a_node40"><a xlink:href="../../da/d5a/GPUCommonDefAPI_8h.html" target="_top" xlink:title="GPUCommonDefAPI.h">
<polygon fill="none" stroke="#000000" points="2550.5,-.5 2550.5,-19.5 2674.5,-19.5 2674.5,-.5 2550.5,-.5"/>
<text text-anchor="middle" x="2612.5" y="-7.5" font-family="Helvetica,sans-Serif" font-size="10.00" fill="#000000">GPUCommonDefAPI.h</text>
</a>
</g>
</g>
<!-- Node37&#45;&gt;Node39 -->
<g id="edge50" class="edge">
<title>Node37&#45;&gt;Node39</title>
<path fill="none" stroke="#191970" d="M2548.9124,-56.2455C2560.5057,-47.814 2577.4748,-35.4729 2590.9678,-25.6598"/>
<polygon fill="#191970" stroke="#191970" points="2593.2126,-28.355 2599.2413,-19.6427 2589.0953,-22.6938 2593.2126,-28.355"/>
</g>
<!-- Node40&#45;&gt;Node36 -->
<g id="edge53" class="edge">
<title>Node40&#45;&gt;Node36</title>
<path fill="none" stroke="#191970" d="M2636.0189,-113.0026C2711.5038,-101.1949 2841.5612,-80.8508 2902.7802,-71.2746"/>
<polygon fill="#191970" stroke="#191970" points="2903.351,-74.728 2912.6899,-69.7245 2902.2691,-67.8121 2903.351,-74.728"/>
</g>
<!-- Node40&#45;&gt;Node37 -->
<g id="edge52" class="edge">
<title>Node40&#45;&gt;Node37</title>
<path fill="none" stroke="#191970" d="M2571.01,-112.2455C2564.9674,-104.3761 2556.3097,-93.101 2549.0559,-83.6542"/>
<polygon fill="#191970" stroke="#191970" points="2551.7705,-81.4426 2542.9042,-75.6427 2546.2185,-85.7058 2551.7705,-81.4426"/>
</g>
<!-- Node41 -->
<g id="node42" class="node">
<title>Node41</title>
<polygon fill="none" stroke="#bfbfbf" points="2607.5,-56.5 2607.5,-75.5 2671.5,-75.5 2671.5,-56.5 2607.5,-56.5"/>
<text text-anchor="middle" x="2639.5" y="-63.5" font-family="Helvetica,sans-Serif" font-size="10.00" fill="#000000">algorithm</text>
</g>
<!-- Node40&#45;&gt;Node41 -->
<g id="edge54" class="edge">
<title>Node40&#45;&gt;Node41</title>
<path fill="none" stroke="#191970" d="M2589.1254,-112.2455C2598.0473,-104.0549 2610.988,-92.1749 2621.5192,-82.5069"/>
<polygon fill="#191970" stroke="#191970" points="2623.9968,-84.9837 2628.9964,-75.6427 2619.2629,-79.8271 2623.9968,-84.9837"/>
</g>
</g>
</svg>
        <g id="navigator" transform="translate(0 0)" fill="#404254">
                <rect fill="#f2f5e9" fill-opacity="0.5" stroke="#606060" stroke-width=".5" x="0" y="0" width="60" height="60"/>
                <use id="zoomplus" xlink:href="#zoomPlus" x="17" y="9" onmousedown="handleZoom(evt,'in')"/>
                <use id="zoomminus" xlink:href="#zoomMin" x="42" y="9" onmousedown="handleZoom(evt,'out')"/>
                <use id="reset" xlink:href="#resetDef" x="30" y="36" onmousedown="handleReset()"/>
                <g id="arrowUp" xlink:href="#dirArrow" transform="translate(30 24)" onmousedown="handlePan(0,-1)">
                  <use xlink:href="#rim" fill="#404040">
                        <set attributeName="fill" to="#808080" begin="arrowUp.mouseover" end="arrowUp.mouseout"/>
                  </use>
                  <path fill="none" stroke="white" stroke-width="1.5" d="M0,-3.0v7 M-2.5,-0.5L0,-3.0L2.5,-0.5"/>
                </g>
                <g id="arrowRight" xlink:href="#dirArrow" transform="rotate(90) translate(36 -43)" onmousedown="handlePan(1,0)">
                  <use xlink:href="#rim" fill="#404040">
                        <set attributeName="fill" to="#808080" begin="arrowRight.mouseover" end="arrowRight.mouseout"/>
                  </use>
                  <path fill="none" stroke="white" stroke-width="1.5" d="M0,-3.0v7 M-2.5,-0.5L0,-3.0L2.5,-0.5"/>
                </g>
                <g id="arrowDown" xlink:href="#dirArrow" transform="rotate(180) translate(-30 -48)" onmousedown="handlePan(0,1)">
                  <use xlink:href="#rim" fill="#404040">
                        <set attributeName="fill" to="#808080" begin="arrowDown.mouseover" end="arrowDown.mouseout"/>
                  </use>
                  <path fill="none" stroke="white" stroke-width="1.5" d="M0,-3.0v7 M-2.5,-0.5L0,-3.0L2.5,-0.5"/>
                </g>
                <g id="arrowLeft" xlink:href="#dirArrow" transform="rotate(270) translate(-36 17)" onmousedown="handlePan(-1,0)">
                  <use xlink:href="#rim" fill="#404040">
                        <set attributeName="fill" to="#808080" begin="arrowLeft.mouseover" end="arrowLeft.mouseout"/>
                  </use>
                  <path fill="none" stroke="white" stroke-width="1.5" d="M0,-3.0v7 M-2.5,-0.5L0,-3.0L2.5,-0.5"/>
                </g>
        </g>
        <svg viewBox="0 0 15 15" width="100%" height="30px" preserveAspectRatio="xMaxYMin meet">
         <g id="arrow_out" transform="scale(0.3 0.3)">
          <a xlink:href="AnalysisDataModel_8h__incl_org.svg" target="_base">
           <rect id="button" ry="5" rx="5" y="6" x="6" height="38" width="38"
                fill="#f2f5e9" fill-opacity="0.5" stroke="#606060" stroke-width="1.0"/>
           <path id="arrow"
             d="M 11.500037,31.436501 C 11.940474,20.09759 22.043105,11.32322 32.158766,21.979434 L 37.068811,17.246167 C 37.068811,17.246167 37.088388,32 37.088388,32 L 22.160133,31.978069 C 22.160133,31.978069 26.997745,27.140456 26.997745,27.140456 C 18.528582,18.264221 13.291696,25.230495 11.500037,31.436501 z"
             style="fill:#404040;"/>
          </a>
         </g>
        </svg>
</svg>
