<?xml version="1.0" encoding="UTF-8" standalone="no"?>
<!DOCTYPE svg PUBLIC "-//W3C//DTD SVG 1.1//EN"
 "http://www.w3.org/Graphics/SVG/1.1/DTD/svg11.dtd">
<!-- Generated by graphviz version 2.40.1 (20161225.0304)
 -->
<!-- Title: o2::eventgen::GeneratorTGenerator Pages: 1 -->
<svg width="950pt" height="650pt"
 viewBox="0.00 0.00 949.50 650.00" xmlns="http://www.w3.org/2000/svg" xmlns:xlink="http://www.w3.org/1999/xlink">
<g id="graph0" class="graph" transform="scale(1 1) rotate(0) translate(4 646)">
<title>o2::eventgen::GeneratorTGenerator</title>
<!-- Node4 -->
<g id="node1" class="node">
<title>Node4</title>
<polygon fill="#bfbfbf" stroke="#000000" points="528.5,-.5 528.5,-167.5 718.5,-167.5 718.5,-.5 528.5,-.5"/>
<text text-anchor="middle" x="623.5" y="-155.5" font-family="Helvetica,sans-Serif" font-size="10.00" fill="#000000">o2::eventgen::GeneratorTGenerator</text>
<polyline fill="none" stroke="#000000" points="528.5,-148.5 718.5,-148.5 "/>
<text text-anchor="middle" x="623.5" y="-136.5" font-family="Helvetica,sans-Serif" font-size="10.00" fill="#000000"> </text>
<polyline fill="none" stroke="#000000" points="528.5,-129.5 718.5,-129.5 "/>
<text text-anchor="start" x="536.5" y="-117.5" font-family="Helvetica,sans-Serif" font-size="10.00" fill="#000000">+ GeneratorTGenerator()</text>
<text text-anchor="start" x="536.5" y="-106.5" font-family="Helvetica,sans-Serif" font-size="10.00" fill="#000000">+ GeneratorTGenerator()</text>
<text text-anchor="start" x="536.5" y="-95.5" font-family="Helvetica,sans-Serif" font-size="10.00" fill="#000000">+ ~GeneratorTGenerator()</text>
<text text-anchor="start" x="536.5" y="-84.5" font-family="Helvetica,sans-Serif" font-size="10.00" fill="#000000">+ setTGenerator()</text>
<text text-anchor="start" x="536.5" y="-73.5" font-family="Helvetica,sans-Serif" font-size="10.00" fill="#000000">+ getTGenerator()</text>
<text text-anchor="start" x="536.5" y="-62.5" font-family="Helvetica,sans-Serif" font-size="10.00" fill="#000000">+ Init()</text>
<text text-anchor="start" x="536.5" y="-51.5" font-family="Helvetica,sans-Serif" font-size="10.00" fill="#000000"># GeneratorTGenerator()</text>
<text text-anchor="start" x="536.5" y="-40.5" font-family="Helvetica,sans-Serif" font-size="10.00" fill="#000000"># operator=()</text>
<text text-anchor="start" x="536.5" y="-29.5" font-family="Helvetica,sans-Serif" font-size="10.00" fill="#000000"># generateEvent()</text>
<text text-anchor="start" x="536.5" y="-18.5" font-family="Helvetica,sans-Serif" font-size="10.00" fill="#000000"># importParticles()</text>
<text text-anchor="start" x="536.5" y="-7.5" font-family="Helvetica,sans-Serif" font-size="10.00" fill="#000000"># ClassDefOverride()</text>
</g>
<!-- Node5 -->
<g id="node2" class="node">
<title>Node5</title>
<g id="a_node2"><a xlink:href="../../d3/da7/classo2_1_1eventgen_1_1Generator.html" target="_top" xlink:title="{o2::eventgen::Generator\n||+ Generator()\l+ Generator()\l+ ~Generator()\l+ Init()\l+ ReadEvent()\l+ setMomentumUnit()\l+ setEnergyUnit()\l+ setPositionUnit()\l+ setTimeUnit()\l+ setBoost()\l+ setTriggerMode()\l+ addTrigger()\l+ addDeepTrigger()\l+ notifyEmbedding()\l# Generator()\l# operator=()\l# generateEvent()\l# importParticles()\l# addTracks()\l# boostEvent()\l# triggerEvent()\l# ClassDefOverride()\l}">
<polygon fill="none" stroke="#000000" points="430,-215.5 430,-503.5 565,-503.5 565,-215.5 430,-215.5"/>
<text text-anchor="middle" x="497.5" y="-491.5" font-family="Helvetica,sans-Serif" font-size="10.00" fill="#000000">o2::eventgen::Generator</text>
<polyline fill="none" stroke="#000000" points="430,-484.5 565,-484.5 "/>
<text text-anchor="middle" x="497.5" y="-472.5" font-family="Helvetica,sans-Serif" font-size="10.00" fill="#000000"> </text>
<polyline fill="none" stroke="#000000" points="430,-465.5 565,-465.5 "/>
<text text-anchor="start" x="438" y="-453.5" font-family="Helvetica,sans-Serif" font-size="10.00" fill="#000000">+ Generator()</text>
<text text-anchor="start" x="438" y="-442.5" font-family="Helvetica,sans-Serif" font-size="10.00" fill="#000000">+ Generator()</text>
<text text-anchor="start" x="438" y="-431.5" font-family="Helvetica,sans-Serif" font-size="10.00" fill="#000000">+ ~Generator()</text>
<text text-anchor="start" x="438" y="-420.5" font-family="Helvetica,sans-Serif" font-size="10.00" fill="#000000">+ Init()</text>
<text text-anchor="start" x="438" y="-409.5" font-family="Helvetica,sans-Serif" font-size="10.00" fill="#000000">+ ReadEvent()</text>
<text text-anchor="start" x="438" y="-398.5" font-family="Helvetica,sans-Serif" font-size="10.00" fill="#000000">+ setMomentumUnit()</text>
<text text-anchor="start" x="438" y="-387.5" font-family="Helvetica,sans-Serif" font-size="10.00" fill="#000000">+ setEnergyUnit()</text>
<text text-anchor="start" x="438" y="-376.5" font-family="Helvetica,sans-Serif" font-size="10.00" fill="#000000">+ setPositionUnit()</text>
<text text-anchor="start" x="438" y="-365.5" font-family="Helvetica,sans-Serif" font-size="10.00" fill="#000000">+ setTimeUnit()</text>
<text text-anchor="start" x="438" y="-354.5" font-family="Helvetica,sans-Serif" font-size="10.00" fill="#000000">+ setBoost()</text>
<text text-anchor="start" x="438" y="-343.5" font-family="Helvetica,sans-Serif" font-size="10.00" fill="#000000">+ setTriggerMode()</text>
<text text-anchor="start" x="438" y="-332.5" font-family="Helvetica,sans-Serif" font-size="10.00" fill="#000000">+ addTrigger()</text>
<text text-anchor="start" x="438" y="-321.5" font-family="Helvetica,sans-Serif" font-size="10.00" fill="#000000">+ addDeepTrigger()</text>
<text text-anchor="start" x="438" y="-310.5" font-family="Helvetica,sans-Serif" font-size="10.00" fill="#000000">+ notifyEmbedding()</text>
<text text-anchor="start" x="438" y="-299.5" font-family="Helvetica,sans-Serif" font-size="10.00" fill="#000000"># Generator()</text>
<text text-anchor="start" x="438" y="-288.5" font-family="Helvetica,sans-Serif" font-size="10.00" fill="#000000"># operator=()</text>
<text text-anchor="start" x="438" y="-277.5" font-family="Helvetica,sans-Serif" font-size="10.00" fill="#000000"># generateEvent()</text>
<text text-anchor="start" x="438" y="-266.5" font-family="Helvetica,sans-Serif" font-size="10.00" fill="#000000"># importParticles()</text>
<text text-anchor="start" x="438" y="-255.5" font-family="Helvetica,sans-Serif" font-size="10.00" fill="#000000"># addTracks()</text>
<text text-anchor="start" x="438" y="-244.5" font-family="Helvetica,sans-Serif" font-size="10.00" fill="#000000"># boostEvent()</text>
<text text-anchor="start" x="438" y="-233.5" font-family="Helvetica,sans-Serif" font-size="10.00" fill="#000000"># triggerEvent()</text>
<text text-anchor="start" x="438" y="-222.5" font-family="Helvetica,sans-Serif" font-size="10.00" fill="#000000"># ClassDefOverride()</text>
</a>
</g>
</g>
<!-- Node5&#45;&gt;Node4 -->
<g id="edge1" class="edge">
<title>Node5&#45;&gt;Node4</title>
<path fill="none" stroke="#191970" d="M567.6302,-206.1598C573.6488,-193 579.5795,-180.0325 585.1987,-167.7461"/>
<polygon fill="none" stroke="#191970" points="564.4285,-204.7453 563.4522,-215.2951 570.7943,-207.6568 564.4285,-204.7453"/>
</g>
<!-- Node6 -->
<g id="node3" class="node">
<title>Node6</title>
<g id="a_node3"><a xlink:href="../../df/d40/classFairGenerator.html" target="_top" xlink:title="{FairGenerator\n||}">
<polygon fill="none" stroke="#000000" points="0,-584.5 0,-641.5 83,-641.5 83,-584.5 0,-584.5"/>
<text text-anchor="middle" x="41.5" y="-629.5" font-family="Helvetica,sans-Serif" font-size="10.00" fill="#000000">FairGenerator</text>
<polyline fill="none" stroke="#000000" points="0,-622.5 83,-622.5 "/>
<text text-anchor="middle" x="41.5" y="-610.5" font-family="Helvetica,sans-Serif" font-size="10.00" fill="#000000"> </text>
<polyline fill="none" stroke="#000000" points="0,-603.5 83,-603.5 "/>
<text text-anchor="middle" x="41.5" y="-591.5" font-family="Helvetica,sans-Serif" font-size="10.00" fill="#000000"> </text>
</a>
</g>
</g>
<!-- Node6&#45;&gt;Node5 -->
<g id="edge2" class="edge">
<title>Node6&#45;&gt;Node5</title>
<path fill="none" stroke="#191970" d="M87.1321,-578.2308C111.3117,-560.4765 141.8635,-539.0792 170.5,-522 257.2054,-470.2877 362.5768,-420.0299 429.8385,-389.4282"/>
<polygon fill="none" stroke="#191970" points="84.8202,-575.5872 78.8588,-584.3457 88.981,-581.2165 84.8202,-575.5872"/>
</g>
<!-- Node7 -->
<g id="node4" class="node">
<title>Node7</title>
<polygon fill="none" stroke="#bfbfbf" points="101.5,-584.5 101.5,-641.5 213.5,-641.5 213.5,-584.5 101.5,-584.5"/>
<text text-anchor="middle" x="157.5" y="-629.5" font-family="Helvetica,sans-Serif" font-size="10.00" fill="#000000">vector&lt; TParticle &gt;</text>
<polyline fill="none" stroke="#bfbfbf" points="101.5,-622.5 213.5,-622.5 "/>
<text text-anchor="middle" x="157.5" y="-610.5" font-family="Helvetica,sans-Serif" font-size="10.00" fill="#000000"> </text>
<polyline fill="none" stroke="#bfbfbf" points="101.5,-603.5 213.5,-603.5 "/>
<text text-anchor="middle" x="157.5" y="-591.5" font-family="Helvetica,sans-Serif" font-size="10.00" fill="#000000"> </text>
</g>
<!-- Node7&#45;&gt;Node5 -->
<g id="edge3" class="edge">
<title>Node7&#45;&gt;Node5</title>
<path fill="none" stroke="#404040" d="M166.4944,-584.4434C173.7532,-565.0089 185.5645,-539.702 202.5,-522 263.0334,-458.7269 353.6976,-413.8722 418.5244,-387.5397"/>
<polygon fill="none" stroke="#404040" points="418.7642,-387.4441 422.8546,-381.5053 429.9097,-382.997 425.8193,-388.9357 418.7642,-387.4441"/>
<text text-anchor="middle" x="234" y="-541.5" font-family="Helvetica,sans-Serif" font-size="10.00" fill="#000000"> #mParticles</text>
</g>
<!-- Node8 -->
<g id="node5" class="node">
<title>Node8</title>
<polygon fill="none" stroke="#bfbfbf" points="231.5,-584.5 231.5,-641.5 281.5,-641.5 281.5,-584.5 231.5,-584.5"/>
<text text-anchor="middle" x="256.5" y="-629.5" font-family="Helvetica,sans-Serif" font-size="10.00" fill="#000000">double</text>
<polyline fill="none" stroke="#bfbfbf" points="231.5,-622.5 281.5,-622.5 "/>
<text text-anchor="middle" x="256.5" y="-610.5" font-family="Helvetica,sans-Serif" font-size="10.00" fill="#000000"> </text>
<polyline fill="none" stroke="#bfbfbf" points="231.5,-603.5 281.5,-603.5 "/>
<text text-anchor="middle" x="256.5" y="-591.5" font-family="Helvetica,sans-Serif" font-size="10.00" fill="#000000"> </text>
</g>
<!-- Node8&#45;&gt;Node5 -->
<g id="edge4" class="edge">
<title>Node8&#45;&gt;Node5</title>
<path fill="none" stroke="#404040" d="M262.4971,-584.3703C267.4778,-565.3856 275.978,-540.6341 289.5,-522 324.009,-474.4447 376.129,-433.7615 419.5616,-404.9963"/>
<polygon fill="none" stroke="#404040" points="419.7711,-404.8598 422.6156,-398.2334 429.8263,-398.3104 426.9818,-404.9368 419.7711,-404.8598"/>
<text text-anchor="middle" x="336.5" y="-558" font-family="Helvetica,sans-Serif" font-size="10.00" fill="#000000"> #mTimeUnit</text>
<text text-anchor="middle" x="336.5" y="-547" font-family="Helvetica,sans-Serif" font-size="10.00" fill="#000000">#mEnergyUnit</text>
<text text-anchor="middle" x="336.5" y="-536" font-family="Helvetica,sans-Serif" font-size="10.00" fill="#000000">#mPositionUnit</text>
<text text-anchor="middle" x="336.5" y="-525" font-family="Helvetica,sans-Serif" font-size="10.00" fill="#000000">#mMomentumUnit</text>
</g>
<!-- Node9 -->
<g id="node6" class="node">
<title>Node9</title>
<polygon fill="none" stroke="#bfbfbf" points="299.5,-584.5 299.5,-641.5 427.5,-641.5 427.5,-584.5 299.5,-584.5"/>
<text text-anchor="middle" x="363.5" y="-629.5" font-family="Helvetica,sans-Serif" font-size="10.00" fill="#000000">vector&lt; DeepTrigger &gt;</text>
<polyline fill="none" stroke="#bfbfbf" points="299.5,-622.5 427.5,-622.5 "/>
<text text-anchor="middle" x="363.5" y="-610.5" font-family="Helvetica,sans-Serif" font-size="10.00" fill="#000000"> </text>
<polyline fill="none" stroke="#bfbfbf" points="299.5,-603.5 427.5,-603.5 "/>
<text text-anchor="middle" x="363.5" y="-591.5" font-family="Helvetica,sans-Serif" font-size="10.00" fill="#000000"> </text>
</g>
<!-- Node9&#45;&gt;Node5 -->
<g id="edge5" class="edge">
<title>Node9&#45;&gt;Node5</title>
<path fill="none" stroke="#404040" d="M377.3818,-584.1555C386.1254,-566.1832 397.7536,-542.6339 408.5,-522 413.5192,-512.3626 418.7636,-502.4391 424.0862,-492.4728"/>
<polygon fill="none" stroke="#404040" points="424.2165,-492.2295 423.5255,-485.0516 429.8856,-481.653 430.5765,-488.8309 424.2165,-492.2295"/>
<text text-anchor="middle" x="451" y="-541.5" font-family="Helvetica,sans-Serif" font-size="10.00" fill="#000000"> #mDeepTriggers</text>
</g>
<!-- Node10 -->
<g id="node7" class="node">
<title>Node10</title>
<polygon fill="none" stroke="#bfbfbf" points="446,-584.5 446,-641.5 549,-641.5 549,-584.5 446,-584.5"/>
<text text-anchor="middle" x="497.5" y="-629.5" font-family="Helvetica,sans-Serif" font-size="10.00" fill="#000000">vector&lt; Trigger &gt;</text>
<polyline fill="none" stroke="#bfbfbf" points="446,-622.5 549,-622.5 "/>
<text text-anchor="middle" x="497.5" y="-610.5" font-family="Helvetica,sans-Serif" font-size="10.00" fill="#000000"> </text>
<polyline fill="none" stroke="#bfbfbf" points="446,-603.5 549,-603.5 "/>
<text text-anchor="middle" x="497.5" y="-591.5" font-family="Helvetica,sans-Serif" font-size="10.00" fill="#000000"> </text>
</g>
<!-- Node10&#45;&gt;Node5 -->
<g id="edge6" class="edge">
<title>Node10&#45;&gt;Node5</title>
<path fill="none" stroke="#404040" d="M497.5,-584.4131C497.5,-566.6154 497.5,-542.1643 497.5,-515.9149"/>
<polygon fill="none" stroke="#404040" points="497.5001,-515.7452 493.5,-509.7452 497.5,-503.7452 501.5,-509.7452 497.5001,-515.7452"/>
<text text-anchor="middle" x="527.5" y="-541.5" font-family="Helvetica,sans-Serif" font-size="10.00" fill="#000000"> #mTriggers</text>
</g>
<!-- Node11 -->
<g id="node8" class="node">
<title>Node11</title>
<polygon fill="none" stroke="#bfbfbf" points="567.5,-584.5 567.5,-641.5 627.5,-641.5 627.5,-584.5 567.5,-584.5"/>
<text text-anchor="middle" x="597.5" y="-629.5" font-family="Helvetica,sans-Serif" font-size="10.00" fill="#000000">Double_t</text>
<polyline fill="none" stroke="#bfbfbf" points="567.5,-622.5 627.5,-622.5 "/>
<text text-anchor="middle" x="597.5" y="-610.5" font-family="Helvetica,sans-Serif" font-size="10.00" fill="#000000"> </text>
<polyline fill="none" stroke="#bfbfbf" points="567.5,-603.5 627.5,-603.5 "/>
<text text-anchor="middle" x="597.5" y="-591.5" font-family="Helvetica,sans-Serif" font-size="10.00" fill="#000000"> </text>
</g>
<!-- Node11&#45;&gt;Node5 -->
<g id="edge7" class="edge">
<title>Node11&#45;&gt;Node5</title>
<path fill="none" stroke="#404040" d="M586.2231,-584.4131C579.1391,-566.455 569.3829,-541.7232 558.9221,-515.205"/>
<polygon fill="none" stroke="#404040" points="558.805,-514.908 552.8823,-510.7945 554.4015,-503.7452 560.3242,-507.8588 558.805,-514.908"/>
<text text-anchor="middle" x="603" y="-541.5" font-family="Helvetica,sans-Serif" font-size="10.00" fill="#000000"> #mBoost</text>
</g>
<!-- Node12 -->
<g id="node9" class="node">
<title>Node12</title>
<polygon fill="none" stroke="#bfbfbf" points="646,-584.5 646,-641.5 675,-641.5 675,-584.5 646,-584.5"/>
<text text-anchor="middle" x="660.5" y="-629.5" font-family="Helvetica,sans-Serif" font-size="10.00" fill="#000000">int</text>
<polyline fill="none" stroke="#bfbfbf" points="646,-622.5 675,-622.5 "/>
<text text-anchor="middle" x="660.5" y="-610.5" font-family="Helvetica,sans-Serif" font-size="10.00" fill="#000000"> </text>
<polyline fill="none" stroke="#bfbfbf" points="646,-603.5 675,-603.5 "/>
<text text-anchor="middle" x="660.5" y="-591.5" font-family="Helvetica,sans-Serif" font-size="10.00" fill="#000000"> </text>
</g>
<!-- Node12&#45;&gt;Node5 -->
<g id="edge8" class="edge">
<title>Node12&#45;&gt;Node5</title>
<path fill="none" stroke="#404040" d="M658.2229,-584.403C655.17,-564.4392 648.0538,-538.5103 631.5,-522 612.69,-503.2394 594.9293,-520.9829 574.5,-504 574.2951,-503.8296 574.0906,-503.6586 573.8866,-503.4869"/>
<polygon fill="none" stroke="#404040" points="573.8479,-503.4512 566.7245,-502.3295 565.0201,-495.3227 572.1435,-496.4444 573.8479,-503.4512"/>
<text text-anchor="middle" x="700.5" y="-541.5" font-family="Helvetica,sans-Serif" font-size="10.00" fill="#000000"> #mInterfaceName</text>
</g>
<!-- Node13 -->
<g id="node10" class="node">
<title>Node13</title>
<polygon fill="none" stroke="#bfbfbf" points="728,-584.5 728,-641.5 819,-641.5 819,-584.5 728,-584.5"/>
<text text-anchor="middle" x="773.5" y="-629.5" font-family="Helvetica,sans-Serif" font-size="10.00" fill="#000000">ETriggerMode_t</text>
<polyline fill="none" stroke="#bfbfbf" points="728,-622.5 819,-622.5 "/>
<text text-anchor="middle" x="773.5" y="-610.5" font-family="Helvetica,sans-Serif" font-size="10.00" fill="#000000"> </text>
<polyline fill="none" stroke="#bfbfbf" points="728,-603.5 819,-603.5 "/>
<text text-anchor="middle" x="773.5" y="-591.5" font-family="Helvetica,sans-Serif" font-size="10.00" fill="#000000"> </text>
</g>
<!-- Node13&#45;&gt;Node5 -->
<g id="edge9" class="edge">
<title>Node13&#45;&gt;Node5</title>
<path fill="none" stroke="#404040" d="M774.6613,-584.3939C773.8252,-563.8853 769.0129,-537.2817 751.5,-522 723.9797,-497.9858 624.2594,-521.788 576.0962,-502.7202"/>
<polygon fill="none" stroke="#404040" points="575.9382,-502.6377 568.7678,-503.403 565.3035,-497.0785 572.4739,-496.3132 575.9382,-502.6377"/>
<text text-anchor="middle" x="813" y="-541.5" font-family="Helvetica,sans-Serif" font-size="10.00" fill="#000000"> #mTriggerMode</text>
</g>
<!-- Node14 -->
<g id="node11" class="node">
<title>Node14</title>
<polygon fill="none" stroke="#bfbfbf" points="854.5,-584.5 854.5,-641.5 900.5,-641.5 900.5,-584.5 854.5,-584.5"/>
<text text-anchor="middle" x="877.5" y="-629.5" font-family="Helvetica,sans-Serif" font-size="10.00" fill="#000000">void *</text>
<polyline fill="none" stroke="#bfbfbf" points="854.5,-622.5 900.5,-622.5 "/>
<text text-anchor="middle" x="877.5" y="-610.5" font-family="Helvetica,sans-Serif" font-size="10.00" fill="#000000"> </text>
<polyline fill="none" stroke="#bfbfbf" points="854.5,-603.5 900.5,-603.5 "/>
<text text-anchor="middle" x="877.5" y="-591.5" font-family="Helvetica,sans-Serif" font-size="10.00" fill="#000000"> </text>
</g>
<!-- Node14&#45;&gt;Node5 -->
<g id="edge10" class="edge">
<title>Node14&#45;&gt;Node5</title>
<path fill="none" stroke="#404040" d="M878.8265,-584.201C878.0746,-563.594 873.2954,-536.9518 855.5,-522 810.1192,-483.8708 645.7608,-532.2477 575.9421,-502.8933"/>
<polygon fill="none" stroke="#404040" points="575.8171,-502.8276 568.6446,-503.5736 565.1974,-497.2398 572.3699,-496.4938 575.8171,-502.8276"/>
<text text-anchor="middle" x="909" y="-541.5" font-family="Helvetica,sans-Serif" font-size="10.00" fill="#000000"> #mInterface</text>
</g>
<!-- Node15 -->
<g id="node12" class="node">
<title>Node15</title>
<polygon fill="none" stroke="#bfbfbf" points="583.5,-331 583.5,-388 663.5,-388 663.5,-331 583.5,-331"/>
<text text-anchor="middle" x="623.5" y="-376" font-family="Helvetica,sans-Serif" font-size="10.00" fill="#000000">TGenerator *</text>
<polyline fill="none" stroke="#bfbfbf" points="583.5,-369 663.5,-369 "/>
<text text-anchor="middle" x="623.5" y="-357" font-family="Helvetica,sans-Serif" font-size="10.00" fill="#000000"> </text>
<polyline fill="none" stroke="#bfbfbf" points="583.5,-350 663.5,-350 "/>
<text text-anchor="middle" x="623.5" y="-338" font-family="Helvetica,sans-Serif" font-size="10.00" fill="#000000"> </text>
</g>
<!-- Node15&#45;&gt;Node4 -->
<g id="edge11" class="edge">
<title>Node15&#45;&gt;Node4</title>
<path fill="none" stroke="#404040" d="M623.5,-330.7963C623.5,-295.2519 623.5,-232.8938 623.5,-179.7551"/>
<polygon fill="none" stroke="#404040" points="623.5001,-179.5222 619.5,-173.5223 623.5,-167.5222 627.5,-173.5222 623.5001,-179.5222"/>
<text text-anchor="middle" x="661.5" y="-189" font-family="Helvetica,sans-Serif" font-size="10.00" fill="#000000"> #mTGenerator</text>
</g>
<!-- Node16 -->
<g id="node13" class="node">
<title>Node16</title>
<polygon fill="none" stroke="#bfbfbf" points="682,-331 682,-388 771,-388 771,-331 682,-331"/>
<text text-anchor="middle" x="726.5" y="-376" font-family="Helvetica,sans-Serif" font-size="10.00" fill="#000000">TClonesArray *</text>
<polyline fill="none" stroke="#bfbfbf" points="682,-369 771,-369 "/>
<text text-anchor="middle" x="726.5" y="-357" font-family="Helvetica,sans-Serif" font-size="10.00" fill="#000000"> </text>
<polyline fill="none" stroke="#bfbfbf" points="682,-350 771,-350 "/>
<text text-anchor="middle" x="726.5" y="-338" font-family="Helvetica,sans-Serif" font-size="10.00" fill="#000000"> </text>
</g>
<!-- Node16&#45;&gt;Node4 -->
<g id="edge12" class="edge">
<title>Node16&#45;&gt;Node4</title>
<path fill="none" stroke="#404040" d="M727.2451,-330.968C727.1695,-295.5721 723.7183,-234.0282 703.5,-186 702.4358,-183.472 701.2916,-180.9536 700.0775,-178.4495"/>
<polygon fill="none" stroke="#404040" points="699.9398,-178.1886 693.6011,-174.7504 694.3369,-167.5769 700.6756,-171.0152 699.9398,-178.1886"/>
<text text-anchor="middle" x="752" y="-189" font-family="Helvetica,sans-Serif" font-size="10.00" fill="#000000"> #mCloneParticles</text>
</g>
</g>
</svg>
