<?xml version="1.0" encoding="UTF-8" standalone="no"?>
<!DOCTYPE svg PUBLIC "-//W3C//DTD SVG 1.1//EN"
 "http://www.w3.org/Graphics/SVG/1.1/DTD/svg11.dtd">
<!-- Generated by graphviz version 2.40.1 (20161225.0304)
 -->
<!-- Title: /home/travis/build/AliceO2Group/AliceO2/Utilities/rANS/include/librans/ReverseSymbolLookupTable.h Pages: 1 -->
<svg width="362pt" height="173pt"
 viewBox="0.00 0.00 361.50 173.00" xmlns="http://www.w3.org/2000/svg" xmlns:xlink="http://www.w3.org/1999/xlink">
<g id="graph0" class="graph" transform="scale(1 1) rotate(0) translate(4 169)">
<title>/home/travis/build/AliceO2Group/AliceO2/Utilities/rANS/include/librans/ReverseSymbolLookupTable.h</title>
<!-- Node0 -->
<g id="node1" class="node">
<title>Node0</title>
<polygon fill="#bfbfbf" stroke="#000000" points="0,-112.5 0,-164.5 201,-164.5 201,-112.5 0,-112.5"/>
<text text-anchor="start" x="8" y="-152.5" font-family="Helvetica,sans-Serif" font-size="10.00" fill="#000000">/home/travis/build</text>
<text text-anchor="start" x="8" y="-141.5" font-family="Helvetica,sans-Serif" font-size="10.00" fill="#000000">/AliceO2Group/AliceO2</text>
<text text-anchor="start" x="8" y="-130.5" font-family="Helvetica,sans-Serif" font-size="10.00" fill="#000000">/Utilities/rANS/include</text>
<text text-anchor="middle" x="100.5" y="-119.5" font-family="Helvetica,sans-Serif" font-size="10.00" fill="#000000">/librans/ReverseSymbolLookupTable.h</text>
</g>
<!-- Node1 -->
<g id="node2" class="node">
<title>Node1</title>
<polygon fill="none" stroke="#bfbfbf" points="2,-.5 2,-19.5 49,-19.5 49,-.5 2,-.5"/>
<text text-anchor="middle" x="25.5" y="-7.5" font-family="Helvetica,sans-Serif" font-size="10.00" fill="#000000">vector</text>
</g>
<!-- Node0&#45;&gt;Node1 -->
<g id="edge1" class="edge">
<title>Node0&#45;&gt;Node1</title>
<path fill="none" stroke="#191970" d="M85.3226,-112.4961C70.7067,-87.4541 48.9775,-50.2247 36.1242,-28.2028"/>
<polygon fill="#191970" stroke="#191970" points="39.1167,-26.3864 31.053,-19.5142 33.0711,-29.915 39.1167,-26.3864"/>
</g>
<!-- Node2 -->
<g id="node3" class="node">
<title>Node2</title>
<g id="a_node3"><a xlink:href="../../d0/d51/SymbolStatistics_8h.html" target="_top" xlink:title="Structure to depict the distribution of symbols in the source message. ">
<polygon fill="none" stroke="#000000" points="105,-56.5 105,-75.5 212,-75.5 212,-56.5 105,-56.5"/>
<text text-anchor="middle" x="158.5" y="-63.5" font-family="Helvetica,sans-Serif" font-size="10.00" fill="#000000">SymbolStatistics.h</text>
</a>
</g>
</g>
<!-- Node0&#45;&gt;Node2 -->
<g id="edge2" class="edge">
<title>Node0&#45;&gt;Node2</title>
<path fill="none" stroke="#191970" d="M121.4393,-112.3258C129.1295,-102.7131 137.6412,-92.0735 144.5661,-83.4174"/>
<polygon fill="#191970" stroke="#191970" points="147.3589,-85.5292 150.8728,-75.534 141.8928,-81.1563 147.3589,-85.5292"/>
</g>
<!-- Node2&#45;&gt;Node1 -->
<g id="edge7" class="edge">
<title>Node2&#45;&gt;Node1</title>
<path fill="none" stroke="#191970" d="M135.6365,-56.3733C114.095,-47.3032 81.6162,-33.6279 57.5044,-23.4755"/>
<polygon fill="#191970" stroke="#191970" points="58.6397,-20.156 48.0652,-19.5011 55.9233,-26.6075 58.6397,-20.156"/>
</g>
<!-- Node3 -->
<g id="node4" class="node">
<title>Node3</title>
<polygon fill="none" stroke="#bfbfbf" points="67.5,-.5 67.5,-19.5 131.5,-19.5 131.5,-.5 67.5,-.5"/>
<text text-anchor="middle" x="99.5" y="-7.5" font-family="Helvetica,sans-Serif" font-size="10.00" fill="#000000">algorithm</text>
</g>
<!-- Node2&#45;&gt;Node3 -->
<g id="edge3" class="edge">
<title>Node2&#45;&gt;Node3</title>
<path fill="none" stroke="#191970" d="M148.223,-56.2455C139.6782,-48.1352 127.3222,-36.4075 117.1915,-26.7919"/>
<polygon fill="#191970" stroke="#191970" points="119.3218,-23.9884 109.6592,-19.6427 114.5028,-29.0655 119.3218,-23.9884"/>
</g>
<!-- Node4 -->
<g id="node5" class="node">
<title>Node4</title>
<polygon fill="none" stroke="#bfbfbf" points="149.5,-.5 149.5,-19.5 201.5,-19.5 201.5,-.5 149.5,-.5"/>
<text text-anchor="middle" x="175.5" y="-7.5" font-family="Helvetica,sans-Serif" font-size="10.00" fill="#000000">cassert</text>
</g>
<!-- Node2&#45;&gt;Node4 -->
<g id="edge4" class="edge">
<title>Node2&#45;&gt;Node4</title>
<path fill="none" stroke="#191970" d="M161.4612,-56.2455C163.7038,-48.8579 166.8577,-38.4689 169.6081,-29.4087"/>
<polygon fill="#191970" stroke="#191970" points="173.017,-30.2282 172.5728,-19.6427 166.3188,-28.1948 173.017,-30.2282"/>
</g>
<!-- Node5 -->
<g id="node6" class="node">
<title>Node5</title>
<polygon fill="none" stroke="#bfbfbf" points="219.5,-.5 219.5,-19.5 279.5,-19.5 279.5,-.5 219.5,-.5"/>
<text text-anchor="middle" x="249.5" y="-7.5" font-family="Helvetica,sans-Serif" font-size="10.00" fill="#000000">iostream</text>
</g>
<!-- Node2&#45;&gt;Node5 -->
<g id="edge5" class="edge">
<title>Node2&#45;&gt;Node5</title>
<path fill="none" stroke="#191970" d="M174.351,-56.2455C188.3132,-47.6534 208.8728,-35.0014 224.9596,-25.1018"/>
<polygon fill="#191970" stroke="#191970" points="227.1484,-27.8645 233.8307,-19.6427 223.4797,-21.9029 227.1484,-27.8645"/>
</g>
<!-- Node6 -->
<g id="node7" class="node">
<title>Node6</title>
<polygon fill="none" stroke="#bfbfbf" points="297.5,-.5 297.5,-19.5 353.5,-19.5 353.5,-.5 297.5,-.5"/>
<text text-anchor="middle" x="325.5" y="-7.5" font-family="Helvetica,sans-Serif" font-size="10.00" fill="#000000">numeric</text>
</g>
<!-- Node2&#45;&gt;Node6 -->
<g id="edge6" class="edge">
<title>Node2&#45;&gt;Node6</title>
<path fill="none" stroke="#191970" d="M187.2083,-56.3733C214.9415,-47.0735 257.1122,-32.9324 287.5931,-22.7113"/>
<polygon fill="#191970" stroke="#191970" points="289.0759,-25.9057 297.4443,-19.4079 286.8503,-19.2689 289.0759,-25.9057"/>
</g>
</g>
</svg>
