<?xml version="1.0" encoding="UTF-8" standalone="no"?>
<!DOCTYPE svg PUBLIC "-//W3C//DTD SVG 1.1//EN"
 "http://www.w3.org/Graphics/SVG/1.1/DTD/svg11.dtd">
<!-- Generated by graphviz version 2.40.1 (20161225.0304)
 -->
<!-- Title: /home/travis/build/AliceO2Group/AliceO2/Utilities/rANS/include/librans/Decoder.h Pages: 1 -->
<!--zoomable 229 -->
<svg id="main" version="1.1" xmlns="http://www.w3.org/2000/svg" xmlns:xlink="http://www.w3.org/1999/xlink" xml:space="preserve" onload="init(evt)">
<style type="text/css"><![CDATA[
.edge:hover path { stroke: red; }
.edge:hover polygon { stroke: red; fill: red; }
]]></style>
<script type="text/javascript"><![CDATA[
var edges = document.getElementsByTagName('g');
if (edges && edges.length) {
  for (var i=0;i<edges.length;i++) {
    if (edges[i].id.substr(0,4)=='edge') {
      edges[i].setAttribute('class','edge');
    }
  }
}
]]></script>
        <defs>
                <circle id="rim" cx="0" cy="0" r="7"/>
                <circle id="rim2" cx="0" cy="0" r="3.5"/>
                <g id="zoomPlus">
                        <use xlink:href="#rim" fill="#404040">
                                <set attributeName="fill" to="#808080" begin="zoomplus.mouseover" end="zoomplus.mouseout"/>
                        </use>
                        <path d="M-4,0h8M0,-4v8" fill="none" stroke="white" stroke-width="1.5" pointer-events="none"/>
                </g>
                <g id="zoomMin">
                        <use xlink:href="#rim" fill="#404040">
                                <set attributeName="fill" to="#808080" begin="zoomminus.mouseover" end="zoomminus.mouseout"/>
                        </use>
                        <path d="M-4,0h8" fill="none" stroke="white" stroke-width="1.5" pointer-events="none"/>
                </g>
                <g id="dirArrow">
                        <path fill="none" stroke="white" stroke-width="1.5" d="M0,-3.0v7 M-2.5,-0.5L0,-3.0L2.5,-0.5"/>
                </g>
               <g id="resetDef">
                       <use xlink:href="#rim2" fill="#404040">
                               <set attributeName="fill" to="#808080" begin="reset.mouseover" end="reset.mouseout"/>
                       </use>
               </g>
        </defs>

<script type="text/javascript">
var viewWidth = 737;
var viewHeight = 229;
var sectionId = 'dynsection-0';
</script>
<script xlink:href="../../svgpan.js"/>
<svg id="graph" class="graph">
<g id="viewport">
<title>/home/travis/build/AliceO2Group/AliceO2/Utilities/rANS/include/librans/Decoder.h</title>
<!-- Node0 -->
<g id="node1" class="node">
<title>Node0</title>
<polygon fill="#bfbfbf" stroke="#000000" points="214,-168.5 214,-220.5 341,-220.5 341,-168.5 214,-168.5"/>
<text text-anchor="start" x="222" y="-208.5" font-family="Helvetica,sans-Serif" font-size="10.00" fill="#000000">/home/travis/build</text>
<text text-anchor="start" x="222" y="-197.5" font-family="Helvetica,sans-Serif" font-size="10.00" fill="#000000">/AliceO2Group/AliceO2</text>
<text text-anchor="start" x="222" y="-186.5" font-family="Helvetica,sans-Serif" font-size="10.00" fill="#000000">/Utilities/rANS/include</text>
<text text-anchor="middle" x="277.5" y="-175.5" font-family="Helvetica,sans-Serif" font-size="10.00" fill="#000000">/librans/Decoder.h</text>
</g>
<!-- Node1 -->
<g id="node2" class="node">
<title>Node1</title>
<polygon fill="none" stroke="#bfbfbf" points="0,-112.5 0,-131.5 69,-131.5 69,-112.5 0,-112.5"/>
<text text-anchor="middle" x="34.5" y="-119.5" font-family="Helvetica,sans-Serif" font-size="10.00" fill="#000000">type_traits</text>
</g>
<!-- Node0&#45;&gt;Node1 -->
<g id="edge1" class="edge">
<title>Node0&#45;&gt;Node1</title>
<path fill="none" stroke="#191970" d="M213.972,-175.5462C170.4697,-162.5671 114.0166,-145.7241 76.1442,-134.4247"/>
<polygon fill="#191970" stroke="#191970" points="77.042,-131.0402 66.4588,-131.535 75.0407,-137.748 77.042,-131.0402"/>
</g>
<!-- Node2 -->
<g id="node3" class="node">
<title>Node2</title>
<polygon fill="none" stroke="#bfbfbf" points="67.5,-.5 67.5,-19.5 127.5,-19.5 127.5,-.5 67.5,-.5"/>
<text text-anchor="middle" x="97.5" y="-7.5" font-family="Helvetica,sans-Serif" font-size="10.00" fill="#000000">iostream</text>
</g>
<!-- Node0&#45;&gt;Node2 -->
<g id="edge2" class="edge">
<title>Node0&#45;&gt;Node2</title>
<path fill="none" stroke="#191970" d="M213.8373,-185.3874C179.8667,-177.1595 140.2759,-161.5523 116.5,-132 92.9731,-102.7572 92.7406,-56.4461 94.9437,-30.0935"/>
<polygon fill="#191970" stroke="#191970" points="98.4583,-30.1346 96.0142,-19.8255 91.4961,-29.4086 98.4583,-30.1346"/>
</g>
<!-- Node3 -->
<g id="node4" class="node">
<title>Node3</title>
<g id="a_node4"><a xlink:href="../../d8/dd9/SymbolTable_8h.html" target="_top" xlink:title="Container for information needed to encode/decode a symbol of the alphabet. ">
<polygon fill="none" stroke="#000000" points="305.5,-112.5 305.5,-131.5 393.5,-131.5 393.5,-112.5 305.5,-112.5"/>
<text text-anchor="middle" x="349.5" y="-119.5" font-family="Helvetica,sans-Serif" font-size="10.00" fill="#000000">SymbolTable.h</text>
</a>
</g>
</g>
<!-- Node0&#45;&gt;Node3 -->
<g id="edge3" class="edge">
<title>Node0&#45;&gt;Node3</title>
<path fill="none" stroke="#191970" d="M303.4937,-168.3258C313.239,-158.5128 324.047,-147.6298 332.7374,-138.879"/>
<polygon fill="#191970" stroke="#191970" points="335.4686,-141.0958 340.0317,-131.534 330.5017,-136.1632 335.4686,-141.0958"/>
</g>
<!-- Node9 -->
<g id="node10" class="node">
<title>Node9</title>
<g id="a_node10"><a xlink:href="../../d7/d99/DecoderSymbol_8h.html" target="_top" xlink:title="Structure containing all relevant information for decoding a rANS encoded symbol. ...">
<polygon fill="none" stroke="#000000" points="626,-56.5 626,-75.5 729,-75.5 729,-56.5 626,-56.5"/>
<text text-anchor="middle" x="677.5" y="-63.5" font-family="Helvetica,sans-Serif" font-size="10.00" fill="#000000">DecoderSymbol.h</text>
</a>
</g>
</g>
<!-- Node0&#45;&gt;Node9 -->
<g id="edge11" class="edge">
<title>Node0&#45;&gt;Node9</title>
<path fill="none" stroke="#191970" d="M341.045,-180.1928C389.3675,-168.7416 457.2425,-151.425 515.5,-132 562.3661,-116.3732 615.0837,-93.9566 647.2926,-79.689"/>
<polygon fill="#191970" stroke="#191970" points="648.8926,-82.8078 656.6009,-75.5393 646.0423,-76.4144 648.8926,-82.8078"/>
</g>
<!-- Node11 -->
<g id="node12" class="node">
<title>Node11</title>
<g id="a_node12"><a xlink:href="../../dc/d3b/ReverseSymbolLookupTable_8h.html" target="_top" xlink:title="Maps CDF back to source symbol &#45; needed for the decoder. ">
<polygon fill="none" stroke="#000000" points="125.5,-112.5 125.5,-131.5 287.5,-131.5 287.5,-112.5 125.5,-112.5"/>
<text text-anchor="middle" x="206.5" y="-119.5" font-family="Helvetica,sans-Serif" font-size="10.00" fill="#000000">ReverseSymbolLookupTable.h</text>
</a>
</g>
</g>
<!-- Node0&#45;&gt;Node11 -->
<g id="edge13" class="edge">
<title>Node0&#45;&gt;Node11</title>
<path fill="none" stroke="#191970" d="M251.8674,-168.3258C242.2574,-158.5128 231.5995,-147.6298 223.0298,-138.879"/>
<polygon fill="#191970" stroke="#191970" points="225.3342,-136.2297 215.8367,-131.534 220.3329,-141.1275 225.3342,-136.2297"/>
</g>
<!-- Node12 -->
<g id="node13" class="node">
<title>Node12</title>
<g id="a_node13"><a xlink:href="../../d5/d7a/Coder_8h.html" target="_top" xlink:title="Stateless class for coding and decoding symbols using rANS. ">
<polygon fill="none" stroke="#000000" points="454,-112.5 454,-131.5 507,-131.5 507,-112.5 454,-112.5"/>
<text text-anchor="middle" x="480.5" y="-119.5" font-family="Helvetica,sans-Serif" font-size="10.00" fill="#000000">Coder.h</text>
</a>
</g>
</g>
<!-- Node0&#45;&gt;Node12 -->
<g id="edge16" class="edge">
<title>Node0&#45;&gt;Node12</title>
<path fill="none" stroke="#191970" d="M341.1735,-171.7595C375.1856,-159.6123 415.8104,-145.1034 444.3907,-134.8962"/>
<polygon fill="#191970" stroke="#191970" points="445.7268,-138.1356 453.967,-131.4761 443.3724,-131.5434 445.7268,-138.1356"/>
</g>
<!-- Node4 -->
<g id="node5" class="node">
<title>Node4</title>
<polygon fill="none" stroke="#bfbfbf" points="302,-.5 302,-19.5 349,-19.5 349,-.5 302,-.5"/>
<text text-anchor="middle" x="325.5" y="-7.5" font-family="Helvetica,sans-Serif" font-size="10.00" fill="#000000">vector</text>
</g>
<!-- Node3&#45;&gt;Node4 -->
<g id="edge4" class="edge">
<title>Node3&#45;&gt;Node4</title>
<path fill="none" stroke="#191970" d="M347.4538,-112.4509C343.5217,-94.1013 334.8409,-53.5908 329.6506,-29.3693"/>
<polygon fill="#191970" stroke="#191970" points="333.0587,-28.5695 327.541,-19.5249 326.2141,-30.0363 333.0587,-28.5695"/>
</g>
<!-- Node5 -->
<g id="node6" class="node">
<title>Node5</title>
<g id="a_node6"><a xlink:href="../../d0/d51/SymbolStatistics_8h.html" target="_top" xlink:title="Structure to depict the distribution of symbols in the source message. ">
<polygon fill="none" stroke="#000000" points="152,-56.5 152,-75.5 259,-75.5 259,-56.5 152,-56.5"/>
<text text-anchor="middle" x="205.5" y="-63.5" font-family="Helvetica,sans-Serif" font-size="10.00" fill="#000000">SymbolStatistics.h</text>
</a>
</g>
</g>
<!-- Node3&#45;&gt;Node5 -->
<g id="edge5" class="edge">
<title>Node3&#45;&gt;Node5</title>
<path fill="none" stroke="#191970" d="M324.7455,-112.3733C301.2151,-103.2226 265.6313,-89.3844 239.4574,-79.2057"/>
<polygon fill="#191970" stroke="#191970" points="240.5201,-75.8636 229.9315,-75.5011 237.9829,-82.3877 240.5201,-75.8636"/>
</g>
<!-- Node5&#45;&gt;Node2 -->
<g id="edge8" class="edge">
<title>Node5&#45;&gt;Node2</title>
<path fill="none" stroke="#191970" d="M186.6878,-56.2455C169.6527,-47.4125 144.3425,-34.2887 125.0319,-24.2758"/>
<polygon fill="#191970" stroke="#191970" points="126.5853,-21.1388 116.0966,-19.6427 123.363,-27.353 126.5853,-21.1388"/>
</g>
<!-- Node5&#45;&gt;Node4 -->
<g id="edge10" class="edge">
<title>Node5&#45;&gt;Node4</title>
<path fill="none" stroke="#191970" d="M226.1287,-56.3733C245.3919,-47.3838 274.3486,-33.8706 296.0419,-23.7471"/>
<polygon fill="#191970" stroke="#191970" points="297.5587,-26.9017 305.1405,-19.5011 294.5985,-20.5584 297.5587,-26.9017"/>
</g>
<!-- Node6 -->
<g id="node7" class="node">
<title>Node6</title>
<polygon fill="none" stroke="#bfbfbf" points="145.5,-.5 145.5,-19.5 209.5,-19.5 209.5,-.5 145.5,-.5"/>
<text text-anchor="middle" x="177.5" y="-7.5" font-family="Helvetica,sans-Serif" font-size="10.00" fill="#000000">algorithm</text>
</g>
<!-- Node5&#45;&gt;Node6 -->
<g id="edge6" class="edge">
<title>Node5&#45;&gt;Node6</title>
<path fill="none" stroke="#191970" d="M200.6228,-56.2455C196.8487,-48.6973 191.5079,-38.0158 186.9099,-28.8197"/>
<polygon fill="#191970" stroke="#191970" points="189.924,-27.0217 182.3213,-19.6427 183.663,-30.1522 189.924,-27.0217"/>
</g>
<!-- Node7 -->
<g id="node8" class="node">
<title>Node7</title>
<polygon fill="none" stroke="#bfbfbf" points="375.5,-.5 375.5,-19.5 427.5,-19.5 427.5,-.5 375.5,-.5"/>
<text text-anchor="middle" x="401.5" y="-7.5" font-family="Helvetica,sans-Serif" font-size="10.00" fill="#000000">cassert</text>
</g>
<!-- Node5&#45;&gt;Node7 -->
<g id="edge7" class="edge">
<title>Node5&#45;&gt;Node7</title>
<path fill="none" stroke="#191970" d="M239.1936,-56.3733C274.5097,-46.2829 329.7742,-30.4931 365.8179,-20.1949"/>
<polygon fill="#191970" stroke="#191970" points="366.7882,-23.5578 375.4419,-17.4452 364.8651,-16.8271 366.7882,-23.5578"/>
</g>
<!-- Node8 -->
<g id="node9" class="node">
<title>Node8</title>
<polygon fill="none" stroke="#bfbfbf" points="227.5,-.5 227.5,-19.5 283.5,-19.5 283.5,-.5 227.5,-.5"/>
<text text-anchor="middle" x="255.5" y="-7.5" font-family="Helvetica,sans-Serif" font-size="10.00" fill="#000000">numeric</text>
</g>
<!-- Node5&#45;&gt;Node8 -->
<g id="edge9" class="edge">
<title>Node5&#45;&gt;Node8</title>
<path fill="none" stroke="#191970" d="M214.2093,-56.2455C221.3073,-48.2958 231.5084,-36.8706 239.995,-27.3656"/>
<polygon fill="#191970" stroke="#191970" points="242.8411,-29.4331 246.8905,-19.6427 237.6195,-24.771 242.8411,-29.4331"/>
</g>
<!-- Node10 -->
<g id="node11" class="node">
<title>Node10</title>
<polygon fill="none" stroke="#bfbfbf" points="572.5,-.5 572.5,-19.5 622.5,-19.5 622.5,-.5 572.5,-.5"/>
<text text-anchor="middle" x="597.5" y="-7.5" font-family="Helvetica,sans-Serif" font-size="10.00" fill="#000000">cstdint</text>
</g>
<!-- Node9&#45;&gt;Node10 -->
<g id="edge12" class="edge">
<title>Node9&#45;&gt;Node10</title>
<path fill="none" stroke="#191970" d="M663.5651,-56.2455C651.4053,-47.7337 633.5536,-35.2375 619.4715,-25.3801"/>
<polygon fill="#191970" stroke="#191970" points="621.4747,-22.51 611.2752,-19.6427 617.4605,-28.2447 621.4747,-22.51"/>
</g>
<!-- Node11&#45;&gt;Node4 -->
<g id="edge14" class="edge">
<title>Node11&#45;&gt;Node4</title>
<path fill="none" stroke="#191970" d="M221.2048,-112.1823C233.9867,-103.3584 252.7204,-89.7127 267.5,-76 283.8279,-60.8507 300.3987,-41.5114 311.6234,-27.6903"/>
<polygon fill="#191970" stroke="#191970" points="314.6581,-29.4996 318.1714,-19.5042 309.1917,-25.1271 314.6581,-29.4996"/>
</g>
<!-- Node11&#45;&gt;Node5 -->
<g id="edge15" class="edge">
<title>Node11&#45;&gt;Node5</title>
<path fill="none" stroke="#191970" d="M206.3258,-112.2455C206.1953,-104.9382 206.0124,-94.6944 205.8519,-85.7046"/>
<polygon fill="#191970" stroke="#191970" points="209.3503,-85.5786 205.6722,-75.6427 202.3514,-85.7036 209.3503,-85.5786"/>
</g>
<!-- Node12&#45;&gt;Node4 -->
<g id="edge17" class="edge">
<title>Node12&#45;&gt;Node4</title>
<path fill="none" stroke="#191970" d="M464.202,-112.4692C449.1725,-103.5084 426.3974,-89.4909 407.5,-76 385.082,-59.9957 360.6365,-39.9579 344.3223,-26.1843"/>
<polygon fill="#191970" stroke="#191970" points="346.4719,-23.4179 336.586,-19.6071 341.9377,-28.751 346.4719,-23.4179"/>
</g>
<!-- Node12&#45;&gt;Node7 -->
<g id="edge19" class="edge">
<title>Node12&#45;&gt;Node7</title>
<path fill="none" stroke="#191970" d="M462.4893,-112.4236C449.0478,-104.3933 431.223,-91.7241 420.5,-76 411.0645,-62.1638 406.2632,-43.6432 403.8513,-29.7432"/>
<polygon fill="#191970" stroke="#191970" points="407.3018,-29.1496 402.3864,-19.764 400.376,-30.1663 407.3018,-29.1496"/>
</g>
<!-- Node12&#45;&gt;Node9 -->
<g id="edge20" class="edge">
<title>Node12&#45;&gt;Node9</title>
<path fill="none" stroke="#191970" d="M507.0683,-114.4476C539.5582,-105.2119 595.0061,-89.45 633.808,-78.4201"/>
<polygon fill="#191970" stroke="#191970" points="635.1213,-81.6855 643.7832,-75.5845 633.2072,-74.9522 635.1213,-81.6855"/>
</g>
<!-- Node12&#45;&gt;Node10 -->
<g id="edge18" class="edge">
<title>Node12&#45;&gt;Node10</title>
<path fill="none" stroke="#191970" d="M501.3354,-112.4815C517.4422,-104.4009 539.6006,-91.6382 555.5,-76 569.3692,-62.3586 580.8667,-43.3208 588.3046,-29.1958"/>
<polygon fill="#191970" stroke="#191970" points="591.6015,-30.4311 592.979,-19.9262 585.3512,-27.2793 591.6015,-30.4311"/>
</g>
<!-- Node13 -->
<g id="node14" class="node">
<title>Node13</title>
<g id="a_node14"><a xlink:href="../../d2/d53/EncoderSymbol_8h.html" target="_top" xlink:title="Structure containing all relevant information to encode a symbol. ">
<polygon fill="none" stroke="#000000" points="430,-56.5 430,-75.5 531,-75.5 531,-56.5 430,-56.5"/>
<text text-anchor="middle" x="480.5" y="-63.5" font-family="Helvetica,sans-Serif" font-size="10.00" fill="#000000">EncoderSymbol.h</text>
</a>
</g>
</g>
<!-- Node12&#45;&gt;Node13 -->
<g id="edge21" class="edge">
<title>Node12&#45;&gt;Node13</title>
<path fill="none" stroke="#191970" d="M480.5,-112.2455C480.5,-104.9382 480.5,-94.6944 480.5,-85.7046"/>
<polygon fill="#191970" stroke="#191970" points="484.0001,-85.6426 480.5,-75.6427 477.0001,-85.6427 484.0001,-85.6426"/>
</g>
<!-- Node14 -->
<g id="node15" class="node">
<title>Node14</title>
<g id="a_node15"><a xlink:href="../../d4/da1/helper_8h.html" target="_top" xlink:title="various helper functions ">
<polygon fill="none" stroke="#000000" points="475.5,-.5 475.5,-19.5 531.5,-19.5 531.5,-.5 475.5,-.5"/>
<text text-anchor="middle" x="503.5" y="-7.5" font-family="Helvetica,sans-Serif" font-size="10.00" fill="#000000">helper.h</text>
</a>
</g>
</g>
<!-- Node12&#45;&gt;Node14 -->
<g id="edge25" class="edge">
<title>Node12&#45;&gt;Node14</title>
<path fill="none" stroke="#191970" d="M500.6561,-112.4543C514.3815,-104.7394 531.4635,-92.4561 539.5,-76 547.8309,-58.941 535.0733,-39.9606 522.5017,-26.7493"/>
<polygon fill="#191970" stroke="#191970" points="524.8808,-24.1805 515.2821,-19.6955 519.9889,-29.1874 524.8808,-24.1805"/>
</g>
<!-- Node13&#45;&gt;Node7 -->
<g id="edge23" class="edge">
<title>Node13&#45;&gt;Node7</title>
<path fill="none" stroke="#191970" d="M466.7393,-56.2455C454.8448,-47.814 437.435,-35.4729 423.5915,-25.6598"/>
<polygon fill="#191970" stroke="#191970" points="425.2854,-22.5704 415.1031,-19.6427 421.2372,-28.2811 425.2854,-22.5704"/>
</g>
<!-- Node13&#45;&gt;Node10 -->
<g id="edge22" class="edge">
<title>Node13&#45;&gt;Node10</title>
<path fill="none" stroke="#191970" d="M500.613,-56.3733C519.3103,-47.4241 547.3744,-33.9917 568.4934,-23.8835"/>
<polygon fill="#191970" stroke="#191970" points="570.1405,-26.9755 577.6494,-19.5011 567.1183,-20.6614 570.1405,-26.9755"/>
</g>
<!-- Node13&#45;&gt;Node14 -->
<g id="edge24" class="edge">
<title>Node13&#45;&gt;Node14</title>
<path fill="none" stroke="#191970" d="M484.5063,-56.2455C487.5735,-48.7776 491.9003,-38.2427 495.6497,-29.1137"/>
<polygon fill="#191970" stroke="#191970" points="498.9779,-30.2226 499.5396,-19.6427 492.5028,-27.5631 498.9779,-30.2226"/>
</g>
</g>
</svg>
        <g id="navigator" transform="translate(0 0)" fill="#404254">
                <rect fill="#f2f5e9" fill-opacity="0.5" stroke="#606060" stroke-width=".5" x="0" y="0" width="60" height="60"/>
                <use id="zoomplus" xlink:href="#zoomPlus" x="17" y="9" onmousedown="handleZoom(evt,'in')"/>
                <use id="zoomminus" xlink:href="#zoomMin" x="42" y="9" onmousedown="handleZoom(evt,'out')"/>
                <use id="reset" xlink:href="#resetDef" x="30" y="36" onmousedown="handleReset()"/>
                <g id="arrowUp" xlink:href="#dirArrow" transform="translate(30 24)" onmousedown="handlePan(0,-1)">
                  <use xlink:href="#rim" fill="#404040">
                        <set attributeName="fill" to="#808080" begin="arrowUp.mouseover" end="arrowUp.mouseout"/>
                  </use>
                  <path fill="none" stroke="white" stroke-width="1.5" d="M0,-3.0v7 M-2.5,-0.5L0,-3.0L2.5,-0.5"/>
                </g>
                <g id="arrowRight" xlink:href="#dirArrow" transform="rotate(90) translate(36 -43)" onmousedown="handlePan(1,0)">
                  <use xlink:href="#rim" fill="#404040">
                        <set attributeName="fill" to="#808080" begin="arrowRight.mouseover" end="arrowRight.mouseout"/>
                  </use>
                  <path fill="none" stroke="white" stroke-width="1.5" d="M0,-3.0v7 M-2.5,-0.5L0,-3.0L2.5,-0.5"/>
                </g>
                <g id="arrowDown" xlink:href="#dirArrow" transform="rotate(180) translate(-30 -48)" onmousedown="handlePan(0,1)">
                  <use xlink:href="#rim" fill="#404040">
                        <set attributeName="fill" to="#808080" begin="arrowDown.mouseover" end="arrowDown.mouseout"/>
                  </use>
                  <path fill="none" stroke="white" stroke-width="1.5" d="M0,-3.0v7 M-2.5,-0.5L0,-3.0L2.5,-0.5"/>
                </g>
                <g id="arrowLeft" xlink:href="#dirArrow" transform="rotate(270) translate(-36 17)" onmousedown="handlePan(-1,0)">
                  <use xlink:href="#rim" fill="#404040">
                        <set attributeName="fill" to="#808080" begin="arrowLeft.mouseover" end="arrowLeft.mouseout"/>
                  </use>
                  <path fill="none" stroke="white" stroke-width="1.5" d="M0,-3.0v7 M-2.5,-0.5L0,-3.0L2.5,-0.5"/>
                </g>
        </g>
        <svg viewBox="0 0 15 15" width="100%" height="30px" preserveAspectRatio="xMaxYMin meet">
         <g id="arrow_out" transform="scale(0.3 0.3)">
          <a xlink:href="Utilities_2rANS_2include_2librans_2Decoder_8h__incl_org.svg" target="_base">
           <rect id="button" ry="5" rx="5" y="6" x="6" height="38" width="38"
                fill="#f2f5e9" fill-opacity="0.5" stroke="#606060" stroke-width="1.0"/>
           <path id="arrow"
             d="M 11.500037,31.436501 C 11.940474,20.09759 22.043105,11.32322 32.158766,21.979434 L 37.068811,17.246167 C 37.068811,17.246167 37.088388,32 37.088388,32 L 22.160133,31.978069 C 22.160133,31.978069 26.997745,27.140456 26.997745,27.140456 C 18.528582,18.264221 13.291696,25.230495 11.500037,31.436501 z"
             style="fill:#404040;"/>
          </a>
         </g>
        </svg>
</svg>
