<?xml version="1.0" encoding="UTF-8" standalone="no"?>
<!DOCTYPE svg PUBLIC "-//W3C//DTD SVG 1.1//EN"
 "http://www.w3.org/Graphics/SVG/1.1/DTD/svg11.dtd">
<!-- Generated by graphviz version 2.40.1 (20161225.0304)
 -->
<!-- Title: /home/travis/build/AliceO2Group/AliceO2/Utilities/rANS/include/librans/Coder.h Pages: 1 -->
<svg width="417pt" height="173pt"
 viewBox="0.00 0.00 416.50 173.00" xmlns="http://www.w3.org/2000/svg" xmlns:xlink="http://www.w3.org/1999/xlink">
<g id="graph0" class="graph" transform="scale(1 1) rotate(0) translate(4 169)">
<title>/home/travis/build/AliceO2Group/AliceO2/Utilities/rANS/include/librans/Coder.h</title>
<!-- Node0 -->
<g id="node1" class="node">
<title>Node0</title>
<polygon fill="#bfbfbf" stroke="#000000" points="152,-112.5 152,-164.5 279,-164.5 279,-112.5 152,-112.5"/>
<text text-anchor="start" x="160" y="-152.5" font-family="Helvetica,sans-Serif" font-size="10.00" fill="#000000">/home/travis/build</text>
<text text-anchor="start" x="160" y="-141.5" font-family="Helvetica,sans-Serif" font-size="10.00" fill="#000000">/AliceO2Group/AliceO2</text>
<text text-anchor="start" x="160" y="-130.5" font-family="Helvetica,sans-Serif" font-size="10.00" fill="#000000">/Utilities/rANS/include</text>
<text text-anchor="middle" x="215.5" y="-119.5" font-family="Helvetica,sans-Serif" font-size="10.00" fill="#000000">/librans/Coder.h</text>
</g>
<!-- Node1 -->
<g id="node2" class="node">
<title>Node1</title>
<polygon fill="none" stroke="#bfbfbf" points="0,-56.5 0,-75.5 47,-75.5 47,-56.5 0,-56.5"/>
<text text-anchor="middle" x="23.5" y="-63.5" font-family="Helvetica,sans-Serif" font-size="10.00" fill="#000000">vector</text>
</g>
<!-- Node0&#45;&gt;Node1 -->
<g id="edge1" class="edge">
<title>Node0&#45;&gt;Node1</title>
<path fill="none" stroke="#191970" d="M151.8335,-114.4593C120.0852,-102.471 82.9951,-88.4656 56.8767,-78.6032"/>
<polygon fill="#191970" stroke="#191970" points="58.0295,-75.2973 47.4378,-75.039 55.5566,-81.846 58.0295,-75.2973"/>
</g>
<!-- Node2 -->
<g id="node3" class="node">
<title>Node2</title>
<polygon fill="none" stroke="#bfbfbf" points="130.5,-.5 130.5,-19.5 180.5,-19.5 180.5,-.5 130.5,-.5"/>
<text text-anchor="middle" x="155.5" y="-7.5" font-family="Helvetica,sans-Serif" font-size="10.00" fill="#000000">cstdint</text>
</g>
<!-- Node0&#45;&gt;Node2 -->
<g id="edge2" class="edge">
<title>Node0&#45;&gt;Node2</title>
<path fill="none" stroke="#191970" d="M151.7105,-120.7756C129.6577,-111.2543 107.2898,-97.0016 94.5,-76 82.4281,-56.1774 104.9802,-37.1076 125.9952,-24.6084"/>
<polygon fill="#191970" stroke="#191970" points="127.791,-27.6141 134.802,-19.6708 124.3677,-21.5083 127.791,-27.6141"/>
</g>
<!-- Node3 -->
<g id="node4" class="node">
<title>Node3</title>
<polygon fill="none" stroke="#bfbfbf" points="260.5,-.5 260.5,-19.5 312.5,-19.5 312.5,-.5 260.5,-.5"/>
<text text-anchor="middle" x="286.5" y="-7.5" font-family="Helvetica,sans-Serif" font-size="10.00" fill="#000000">cassert</text>
</g>
<!-- Node0&#45;&gt;Node3 -->
<g id="edge3" class="edge">
<title>Node0&#45;&gt;Node3</title>
<path fill="none" stroke="#191970" d="M279.0916,-120.5157C300.8615,-110.9803 322.8899,-96.7858 335.5,-76 346.5049,-57.8602 328.2014,-38.5299 310.9195,-25.51"/>
<polygon fill="#191970" stroke="#191970" points="312.8353,-22.5779 302.6507,-19.6581 308.7915,-28.2918 312.8353,-22.5779"/>
</g>
<!-- Node4 -->
<g id="node5" class="node">
<title>Node4</title>
<g id="a_node5"><a xlink:href="../../d7/d99/DecoderSymbol_8h.html" target="_top" xlink:title="Structure containing all relevant information for decoding a rANS encoded symbol. ...">
<polygon fill="none" stroke="#000000" points="104,-56.5 104,-75.5 207,-75.5 207,-56.5 104,-56.5"/>
<text text-anchor="middle" x="155.5" y="-63.5" font-family="Helvetica,sans-Serif" font-size="10.00" fill="#000000">DecoderSymbol.h</text>
</a>
</g>
</g>
<!-- Node0&#45;&gt;Node4 -->
<g id="edge4" class="edge">
<title>Node0&#45;&gt;Node4</title>
<path fill="none" stroke="#191970" d="M193.8386,-112.3258C185.8833,-102.7131 177.0781,-92.0735 169.9144,-83.4174"/>
<polygon fill="#191970" stroke="#191970" points="172.4623,-81.0065 163.3902,-75.534 167.0695,-85.4695 172.4623,-81.0065"/>
</g>
<!-- Node5 -->
<g id="node6" class="node">
<title>Node5</title>
<g id="a_node6"><a xlink:href="../../d2/d53/EncoderSymbol_8h.html" target="_top" xlink:title="Structure containing all relevant information to encode a symbol. ">
<polygon fill="none" stroke="#000000" points="225,-56.5 225,-75.5 326,-75.5 326,-56.5 225,-56.5"/>
<text text-anchor="middle" x="275.5" y="-63.5" font-family="Helvetica,sans-Serif" font-size="10.00" fill="#000000">EncoderSymbol.h</text>
</a>
</g>
</g>
<!-- Node0&#45;&gt;Node5 -->
<g id="edge6" class="edge">
<title>Node0&#45;&gt;Node5</title>
<path fill="none" stroke="#191970" d="M237.1614,-112.3258C245.1167,-102.7131 253.9219,-92.0735 261.0856,-83.4174"/>
<polygon fill="#191970" stroke="#191970" points="263.9305,-85.4695 267.6098,-75.534 258.5377,-81.0065 263.9305,-85.4695"/>
</g>
<!-- Node6 -->
<g id="node7" class="node">
<title>Node6</title>
<g id="a_node7"><a xlink:href="../../d4/da1/helper_8h.html" target="_top" xlink:title="various helper functions ">
<polygon fill="none" stroke="#000000" points="352.5,-.5 352.5,-19.5 408.5,-19.5 408.5,-.5 352.5,-.5"/>
<text text-anchor="middle" x="380.5" y="-7.5" font-family="Helvetica,sans-Serif" font-size="10.00" fill="#000000">helper.h</text>
</a>
</g>
</g>
<!-- Node0&#45;&gt;Node6 -->
<g id="edge10" class="edge">
<title>Node0&#45;&gt;Node6</title>
<path fill="none" stroke="#191970" d="M279.3278,-119.694C303.9975,-109.8766 330.936,-95.7006 350.5,-76 363.2215,-63.1897 371.1054,-44.0147 375.5789,-29.629"/>
<polygon fill="#191970" stroke="#191970" points="379.0202,-30.3206 378.3588,-19.7464 372.2817,-28.4251 379.0202,-30.3206"/>
</g>
<!-- Node4&#45;&gt;Node2 -->
<g id="edge5" class="edge">
<title>Node4&#45;&gt;Node2</title>
<path fill="none" stroke="#191970" d="M155.5,-56.2455C155.5,-48.9382 155.5,-38.6944 155.5,-29.7046"/>
<polygon fill="#191970" stroke="#191970" points="159.0001,-29.6426 155.5,-19.6427 152.0001,-29.6427 159.0001,-29.6426"/>
</g>
<!-- Node5&#45;&gt;Node2 -->
<g id="edge7" class="edge">
<title>Node5&#45;&gt;Node2</title>
<path fill="none" stroke="#191970" d="M254.8713,-56.3733C235.6081,-47.3838 206.6514,-33.8706 184.9581,-23.7471"/>
<polygon fill="#191970" stroke="#191970" points="186.4015,-20.5584 175.8595,-19.5011 183.4413,-26.9017 186.4015,-20.5584"/>
</g>
<!-- Node5&#45;&gt;Node3 -->
<g id="edge8" class="edge">
<title>Node5&#45;&gt;Node3</title>
<path fill="none" stroke="#191970" d="M277.4161,-56.2455C278.8514,-48.9382 280.8636,-38.6944 282.6295,-29.7046"/>
<polygon fill="#191970" stroke="#191970" points="286.1127,-30.1298 284.6059,-19.6427 279.244,-28.7805 286.1127,-30.1298"/>
</g>
<!-- Node5&#45;&gt;Node6 -->
<g id="edge9" class="edge">
<title>Node5&#45;&gt;Node6</title>
<path fill="none" stroke="#191970" d="M293.7896,-56.2455C310.2762,-47.4527 334.7352,-34.4079 353.4765,-24.4125"/>
<polygon fill="#191970" stroke="#191970" points="355.2435,-27.4368 362.42,-19.6427 351.9494,-21.2604 355.2435,-27.4368"/>
</g>
</g>
</svg>
