<?xml version="1.0" encoding="UTF-8" standalone="no"?>
<!DOCTYPE svg PUBLIC "-//W3C//DTD SVG 1.1//EN"
 "http://www.w3.org/Graphics/SVG/1.1/DTD/svg11.dtd">
<!-- Generated by graphviz version 2.40.1 (20161225.0304)
 -->
<!-- Title: o2::framework::AnalysisDataProcessorBuilder::GroupSlicer&lt; G, A &gt; Pages: 1 -->
<!--zoomable 518 -->
<svg id="main" version="1.1" xmlns="http://www.w3.org/2000/svg" xmlns:xlink="http://www.w3.org/1999/xlink" xml:space="preserve" onload="init(evt)">
<style type="text/css"><![CDATA[
.edge:hover path { stroke: red; }
.edge:hover polygon { stroke: red; fill: red; }
]]></style>
<script type="text/javascript"><![CDATA[
var edges = document.getElementsByTagName('g');
if (edges && edges.length) {
  for (var i=0;i<edges.length;i++) {
    if (edges[i].id.substr(0,4)=='edge') {
      edges[i].setAttribute('class','edge');
    }
  }
}
]]></script>
        <defs>
                <circle id="rim" cx="0" cy="0" r="7"/>
                <circle id="rim2" cx="0" cy="0" r="3.5"/>
                <g id="zoomPlus">
                        <use xlink:href="#rim" fill="#404040">
                                <set attributeName="fill" to="#808080" begin="zoomplus.mouseover" end="zoomplus.mouseout"/>
                        </use>
                        <path d="M-4,0h8M0,-4v8" fill="none" stroke="white" stroke-width="1.5" pointer-events="none"/>
                </g>
                <g id="zoomMin">
                        <use xlink:href="#rim" fill="#404040">
                                <set attributeName="fill" to="#808080" begin="zoomminus.mouseover" end="zoomminus.mouseout"/>
                        </use>
                        <path d="M-4,0h8" fill="none" stroke="white" stroke-width="1.5" pointer-events="none"/>
                </g>
                <g id="dirArrow">
                        <path fill="none" stroke="white" stroke-width="1.5" d="M0,-3.0v7 M-2.5,-0.5L0,-3.0L2.5,-0.5"/>
                </g>
               <g id="resetDef">
                       <use xlink:href="#rim2" fill="#404040">
                               <set attributeName="fill" to="#808080" begin="reset.mouseover" end="reset.mouseout"/>
                       </use>
               </g>
        </defs>

<script type="text/javascript">
var viewWidth = 910;
var viewHeight = 518;
var sectionId = 'dynsection-0';
</script>
<script xlink:href="../../svgpan.js"/>
<svg id="graph" class="graph">
<g id="viewport">
<title>o2::framework::AnalysisDataProcessorBuilder::GroupSlicer&lt; G, A &gt;</title>
<!-- Node1 -->
<g id="node1" class="node">
<title>Node1</title>
<polygon fill="#bfbfbf" stroke="#000000" points="255.5,-.5 255.5,-101.5 416.5,-101.5 416.5,-.5 255.5,-.5"/>
<text text-anchor="start" x="263.5" y="-89.5" font-family="Helvetica,sans-Serif" font-size="10.00" fill="#000000">o2::framework::AnalysisData</text>
<text text-anchor="start" x="263.5" y="-78.5" font-family="Helvetica,sans-Serif" font-size="10.00" fill="#000000">ProcessorBuilder::GroupSlicer</text>
<text text-anchor="middle" x="336" y="-67.5" font-family="Helvetica,sans-Serif" font-size="10.00" fill="#000000">&lt; G, A &gt;</text>
<polyline fill="none" stroke="#000000" points="255.5,-60.5 416.5,-60.5 "/>
<text text-anchor="middle" x="336" y="-48.5" font-family="Helvetica,sans-Serif" font-size="10.00" fill="#000000"> </text>
<polyline fill="none" stroke="#000000" points="255.5,-41.5 416.5,-41.5 "/>
<text text-anchor="start" x="263.5" y="-29.5" font-family="Helvetica,sans-Serif" font-size="10.00" fill="#000000">+ GroupSlicer()</text>
<text text-anchor="start" x="263.5" y="-18.5" font-family="Helvetica,sans-Serif" font-size="10.00" fill="#000000">+ begin()</text>
<text text-anchor="start" x="263.5" y="-7.5" font-family="Helvetica,sans-Serif" font-size="10.00" fill="#000000">+ end()</text>
</g>
<!-- Node2 -->
<g id="node2" class="node">
<title>Node2</title>
<polygon fill="none" stroke="#bfbfbf" points="283,-237.5 283,-294.5 333,-294.5 333,-237.5 283,-237.5"/>
<text text-anchor="middle" x="308" y="-282.5" font-family="Helvetica,sans-Serif" font-size="10.00" fill="#000000">int64_t</text>
<polyline fill="none" stroke="#bfbfbf" points="283,-275.5 333,-275.5 "/>
<text text-anchor="middle" x="308" y="-263.5" font-family="Helvetica,sans-Serif" font-size="10.00" fill="#000000"> </text>
<polyline fill="none" stroke="#bfbfbf" points="283,-256.5 333,-256.5 "/>
<text text-anchor="middle" x="308" y="-244.5" font-family="Helvetica,sans-Serif" font-size="10.00" fill="#000000"> </text>
</g>
<!-- Node2&#45;&gt;Node1 -->
<g id="edge1" class="edge">
<title>Node2&#45;&gt;Node1</title>
<path fill="none" stroke="#404040" d="M311.7182,-237.4497C315.8119,-206.016 322.5195,-154.511 327.8487,-113.5906"/>
<polygon fill="none" stroke="#404040" points="327.8685,-113.438 324.6768,-106.9716 329.4182,-101.5385 332.6099,-108.0048 327.8685,-113.438"/>
<text text-anchor="middle" x="344" y="-123" font-family="Helvetica,sans-Serif" font-size="10.00" fill="#000000"> +max</text>
</g>
<!-- Node3 -->
<g id="node3" class="node">
<title>Node3</title>
<g id="a_node3"><a xlink:href="../../db/d21/structo2_1_1framework_1_1AnalysisDataProcessorBuilder_1_1GroupSlicer_1_1GroupSlicerIterator.html" target="_top" xlink:title="{o2::framework::AnalysisData\lProcessorBuilder::GroupSlicer\l\&lt; G, A \&gt;::GroupSlicerIterator\n||+ GroupSlicerIterator()\l+ GroupSlicerIterator()\l+ GroupSlicerIterator()\l+ operator=()\l+ operator=()\l+ GroupSlicerIterator()\l+ hasIndexTo()\l+ isIndexTo()\l+ operator++()\l+ operator==()\l+ operator!=()\l+ groupingElement()\l+ operator*()\l+ associatedTables()\l+ prepareArgument()\l}">
<polygon fill="none" stroke="#000000" points="351.5,-149.5 351.5,-382.5 512.5,-382.5 512.5,-149.5 351.5,-149.5"/>
<text text-anchor="start" x="359.5" y="-370.5" font-family="Helvetica,sans-Serif" font-size="10.00" fill="#000000">o2::framework::AnalysisData</text>
<text text-anchor="start" x="359.5" y="-359.5" font-family="Helvetica,sans-Serif" font-size="10.00" fill="#000000">ProcessorBuilder::GroupSlicer</text>
<text text-anchor="middle" x="432" y="-348.5" font-family="Helvetica,sans-Serif" font-size="10.00" fill="#000000">&lt; G, A &gt;::GroupSlicerIterator</text>
<polyline fill="none" stroke="#000000" points="351.5,-341.5 512.5,-341.5 "/>
<text text-anchor="middle" x="432" y="-329.5" font-family="Helvetica,sans-Serif" font-size="10.00" fill="#000000"> </text>
<polyline fill="none" stroke="#000000" points="351.5,-322.5 512.5,-322.5 "/>
<text text-anchor="start" x="359.5" y="-310.5" font-family="Helvetica,sans-Serif" font-size="10.00" fill="#000000">+ GroupSlicerIterator()</text>
<text text-anchor="start" x="359.5" y="-299.5" font-family="Helvetica,sans-Serif" font-size="10.00" fill="#000000">+ GroupSlicerIterator()</text>
<text text-anchor="start" x="359.5" y="-288.5" font-family="Helvetica,sans-Serif" font-size="10.00" fill="#000000">+ GroupSlicerIterator()</text>
<text text-anchor="start" x="359.5" y="-277.5" font-family="Helvetica,sans-Serif" font-size="10.00" fill="#000000">+ operator=()</text>
<text text-anchor="start" x="359.5" y="-266.5" font-family="Helvetica,sans-Serif" font-size="10.00" fill="#000000">+ operator=()</text>
<text text-anchor="start" x="359.5" y="-255.5" font-family="Helvetica,sans-Serif" font-size="10.00" fill="#000000">+ GroupSlicerIterator()</text>
<text text-anchor="start" x="359.5" y="-244.5" font-family="Helvetica,sans-Serif" font-size="10.00" fill="#000000">+ hasIndexTo()</text>
<text text-anchor="start" x="359.5" y="-233.5" font-family="Helvetica,sans-Serif" font-size="10.00" fill="#000000">+ isIndexTo()</text>
<text text-anchor="start" x="359.5" y="-222.5" font-family="Helvetica,sans-Serif" font-size="10.00" fill="#000000">+ operator++()</text>
<text text-anchor="start" x="359.5" y="-211.5" font-family="Helvetica,sans-Serif" font-size="10.00" fill="#000000">+ operator==()</text>
<text text-anchor="start" x="359.5" y="-200.5" font-family="Helvetica,sans-Serif" font-size="10.00" fill="#000000">+ operator!=()</text>
<text text-anchor="start" x="359.5" y="-189.5" font-family="Helvetica,sans-Serif" font-size="10.00" fill="#000000">+ groupingElement()</text>
<text text-anchor="start" x="359.5" y="-178.5" font-family="Helvetica,sans-Serif" font-size="10.00" fill="#000000">+ operator*()</text>
<text text-anchor="start" x="359.5" y="-167.5" font-family="Helvetica,sans-Serif" font-size="10.00" fill="#000000">+ associatedTables()</text>
<text text-anchor="start" x="359.5" y="-156.5" font-family="Helvetica,sans-Serif" font-size="10.00" fill="#000000">+ prepareArgument()</text>
</a>
</g>
</g>
<!-- Node3&#45;&gt;Node1 -->
<g id="edge2" class="edge">
<title>Node3&#45;&gt;Node1</title>
<path fill="none" stroke="#404040" d="M379.9262,-149.3765C374.3063,-136.7901 368.7613,-124.3717 363.6026,-112.8182"/>
<polygon fill="none" stroke="#404040" points="363.4767,-112.5362 357.3779,-108.6884 358.584,-101.5788 364.6828,-105.4266 363.4767,-112.5362"/>
<text text-anchor="middle" x="394.5" y="-123" font-family="Helvetica,sans-Serif" font-size="10.00" fill="#000000"> +mBegin</text>
</g>
<!-- Node4 -->
<g id="node4" class="node">
<title>Node4</title>
<polygon fill="none" stroke="#bfbfbf" points="0,-436 0,-504 152,-504 152,-436 0,-436"/>
<text text-anchor="start" x="8" y="-492" font-family="Helvetica,sans-Serif" font-size="10.00" fill="#000000">array&lt; soa::SelectionVector</text>
<text text-anchor="middle" x="76" y="-481" font-family="Helvetica,sans-Serif" font-size="10.00" fill="#000000"> const *, sizeof...(A)&gt;</text>
<polyline fill="none" stroke="#bfbfbf" points="0,-474 152,-474 "/>
<text text-anchor="middle" x="76" y="-462" font-family="Helvetica,sans-Serif" font-size="10.00" fill="#000000"> </text>
<polyline fill="none" stroke="#bfbfbf" points="0,-455 152,-455 "/>
<text text-anchor="middle" x="76" y="-443" font-family="Helvetica,sans-Serif" font-size="10.00" fill="#000000"> </text>
</g>
<!-- Node4&#45;&gt;Node3 -->
<g id="edge3" class="edge">
<title>Node4&#45;&gt;Node3</title>
<path fill="none" stroke="#404040" d="M129.7577,-435.9148C152.474,-423.0073 179.7178,-409.4123 206,-401 260.667,-383.5023 286.1325,-410.0031 340.8544,-382.7044"/>
<polygon fill="none" stroke="#404040" points="340.883,-382.6889 344.2444,-376.3092 351.4263,-376.9583 348.0648,-383.338 340.883,-382.6889"/>
<text text-anchor="middle" x="236.5" y="-404" font-family="Helvetica,sans-Serif" font-size="10.00" fill="#000000"> +selections</text>
</g>
<!-- Node5 -->
<g id="node5" class="node">
<title>Node5</title>
<g id="a_node5"><a xlink:href="../../d6/d30/classuint64__t.html" target="_top" xlink:title="{uint64_t\n||}">
<polygon fill="none" stroke="#000000" points="170,-441.5 170,-498.5 226,-498.5 226,-441.5 170,-441.5"/>
<text text-anchor="middle" x="198" y="-486.5" font-family="Helvetica,sans-Serif" font-size="10.00" fill="#000000">uint64_t</text>
<polyline fill="none" stroke="#000000" points="170,-479.5 226,-479.5 "/>
<text text-anchor="middle" x="198" y="-467.5" font-family="Helvetica,sans-Serif" font-size="10.00" fill="#000000"> </text>
<polyline fill="none" stroke="#000000" points="170,-460.5 226,-460.5 "/>
<text text-anchor="middle" x="198" y="-448.5" font-family="Helvetica,sans-Serif" font-size="10.00" fill="#000000"> </text>
</a>
</g>
</g>
<!-- Node5&#45;&gt;Node3 -->
<g id="edge4" class="edge">
<title>Node5&#45;&gt;Node3</title>
<path fill="none" stroke="#404040" d="M221.7433,-441.3775C225.904,-437.2613 230.3871,-433.3071 235,-430 260.7093,-411.5684 271.0168,-413.6754 300,-401 318.6071,-392.8625 325.9562,-395.4516 342,-383 342.0981,-382.9239 342.1961,-382.8477 342.294,-382.7713"/>
<polygon fill="none" stroke="#404040" points="342.0316,-382.9895 344.0875,-376.0777 351.2584,-375.317 349.2025,-382.2288 342.0316,-382.9895"/>
<text text-anchor="middle" x="325.5" y="-404" font-family="Helvetica,sans-Serif" font-size="10.00" fill="#000000"> +position</text>
</g>
<!-- Node6 -->
<g id="node6" class="node">
<title>Node6</title>
<polygon fill="none" stroke="#bfbfbf" points="244,-436 244,-504 400,-504 400,-436 244,-436"/>
<text text-anchor="start" x="252" y="-492" font-family="Helvetica,sans-Serif" font-size="10.00" fill="#000000">array&lt; soa::SelectionVector</text>
<text text-anchor="middle" x="322" y="-481" font-family="Helvetica,sans-Serif" font-size="10.00" fill="#000000">::const_iterator, sizeof...(A)&gt;</text>
<polyline fill="none" stroke="#bfbfbf" points="244,-474 400,-474 "/>
<text text-anchor="middle" x="322" y="-462" font-family="Helvetica,sans-Serif" font-size="10.00" fill="#000000"> </text>
<polyline fill="none" stroke="#bfbfbf" points="244,-455 400,-455 "/>
<text text-anchor="middle" x="322" y="-443" font-family="Helvetica,sans-Serif" font-size="10.00" fill="#000000"> </text>
</g>
<!-- Node6&#45;&gt;Node3 -->
<g id="edge5" class="edge">
<title>Node6&#45;&gt;Node3</title>
<path fill="none" stroke="#404040" d="M340.4115,-435.855C347.0207,-423.598 354.9199,-408.9485 363.2703,-393.4624"/>
<polygon fill="none" stroke="#404040" points="363.4176,-393.1891 362.7445,-386.0095 369.113,-382.6268 369.7861,-389.8064 363.4176,-393.1891"/>
<text text-anchor="middle" x="378" y="-404" font-family="Helvetica,sans-Serif" font-size="10.00" fill="#000000"> +starts</text>
</g>
<!-- Node7 -->
<g id="node7" class="node">
<title>Node7</title>
<polygon fill="none" stroke="#bfbfbf" points="418.5,-441.5 418.5,-498.5 471.5,-498.5 471.5,-441.5 418.5,-441.5"/>
<text text-anchor="middle" x="445" y="-486.5" font-family="Helvetica,sans-Serif" font-size="10.00" fill="#000000">iterator</text>
<polyline fill="none" stroke="#bfbfbf" points="418.5,-479.5 471.5,-479.5 "/>
<text text-anchor="middle" x="445" y="-467.5" font-family="Helvetica,sans-Serif" font-size="10.00" fill="#000000"> </text>
<polyline fill="none" stroke="#bfbfbf" points="418.5,-460.5 471.5,-460.5 "/>
<text text-anchor="middle" x="445" y="-448.5" font-family="Helvetica,sans-Serif" font-size="10.00" fill="#000000"> </text>
</g>
<!-- Node7&#45;&gt;Node3 -->
<g id="edge6" class="edge">
<title>Node7&#45;&gt;Node3</title>
<path fill="none" stroke="#404040" d="M437.8876,-441.2646C435.9053,-431.9852 434.0172,-421.6121 433,-412 432.4061,-406.3875 431.9079,-400.6468 431.4932,-394.8428"/>
<polygon fill="none" stroke="#404040" points="431.4931,-394.8382 427.1319,-389.0954 430.7557,-382.8609 435.1168,-388.6038 431.4931,-394.8382"/>
<text text-anchor="middle" x="486" y="-404" font-family="Helvetica,sans-Serif" font-size="10.00" fill="#000000"> +mGroupingElement</text>
</g>
<!-- Node8 -->
<g id="node8" class="node">
<title>Node8</title>
<polygon fill="none" stroke="#bfbfbf" points="489.5,-430.5 489.5,-509.5 632.5,-509.5 632.5,-430.5 489.5,-430.5"/>
<text text-anchor="start" x="497.5" y="-497.5" font-family="Helvetica,sans-Serif" font-size="10.00" fill="#000000">array&lt; std::vector</text>
<text text-anchor="start" x="497.5" y="-486.5" font-family="Helvetica,sans-Serif" font-size="10.00" fill="#000000">&lt; arrow::compute::Datum</text>
<text text-anchor="middle" x="561" y="-475.5" font-family="Helvetica,sans-Serif" font-size="10.00" fill="#000000"> &gt;, sizeof...(A)&gt;</text>
<polyline fill="none" stroke="#bfbfbf" points="489.5,-468.5 632.5,-468.5 "/>
<text text-anchor="middle" x="561" y="-456.5" font-family="Helvetica,sans-Serif" font-size="10.00" fill="#000000"> </text>
<polyline fill="none" stroke="#bfbfbf" points="489.5,-449.5 632.5,-449.5 "/>
<text text-anchor="middle" x="561" y="-437.5" font-family="Helvetica,sans-Serif" font-size="10.00" fill="#000000"> </text>
</g>
<!-- Node8&#45;&gt;Node3 -->
<g id="edge7" class="edge">
<title>Node8&#45;&gt;Node3</title>
<path fill="none" stroke="#404040" d="M551.0432,-430.3145C547.8461,-420.4494 543.847,-410.0997 539,-401 533.2465,-390.1985 526.5983,-379.4006 519.4885,-368.8813"/>
<polygon fill="none" stroke="#404040" points="519.393,-368.744 512.6841,-366.0999 512.5445,-358.8901 519.2534,-361.5342 519.393,-368.744"/>
<text text-anchor="middle" x="566.5" y="-404" font-family="Helvetica,sans-Serif" font-size="10.00" fill="#000000"> +groups</text>
</g>
<!-- Node9 -->
<g id="node9" class="node">
<title>Node9</title>
<polygon fill="none" stroke="#bfbfbf" points="650.5,-436 650.5,-504 795.5,-504 795.5,-436 650.5,-436"/>
<text text-anchor="start" x="658.5" y="-492" font-family="Helvetica,sans-Serif" font-size="10.00" fill="#000000">array&lt; std::vector</text>
<text text-anchor="middle" x="723" y="-481" font-family="Helvetica,sans-Serif" font-size="10.00" fill="#000000">&lt; uint64_t &gt;, sizeof...(A)&gt;</text>
<polyline fill="none" stroke="#bfbfbf" points="650.5,-474 795.5,-474 "/>
<text text-anchor="middle" x="723" y="-462" font-family="Helvetica,sans-Serif" font-size="10.00" fill="#000000"> </text>
<polyline fill="none" stroke="#bfbfbf" points="650.5,-455 795.5,-455 "/>
<text text-anchor="middle" x="723" y="-443" font-family="Helvetica,sans-Serif" font-size="10.00" fill="#000000"> </text>
</g>
<!-- Node9&#45;&gt;Node3 -->
<g id="edge8" class="edge">
<title>Node9&#45;&gt;Node3</title>
<path fill="none" stroke="#404040" d="M674.2931,-435.855C632.9588,-406.8783 572.5509,-364.5305 522.3941,-329.3691"/>
<polygon fill="none" stroke="#404040" points="522.3342,-329.3271 515.125,-329.1582 512.5081,-322.4387 519.7173,-322.6075 522.3342,-329.3271"/>
<text text-anchor="middle" x="659.5" y="-404" font-family="Helvetica,sans-Serif" font-size="10.00" fill="#000000"> +offsets</text>
</g>
<!-- Node10 -->
<g id="node10" class="node">
<title>Node10</title>
<polygon fill="none" stroke="#bfbfbf" points="814,-441.5 814,-498.5 902,-498.5 902,-441.5 814,-441.5"/>
<text text-anchor="middle" x="858" y="-486.5" font-family="Helvetica,sans-Serif" font-size="10.00" fill="#000000">tuple&lt; A... &gt; *</text>
<polyline fill="none" stroke="#bfbfbf" points="814,-479.5 902,-479.5 "/>
<text text-anchor="middle" x="858" y="-467.5" font-family="Helvetica,sans-Serif" font-size="10.00" fill="#000000"> </text>
<polyline fill="none" stroke="#bfbfbf" points="814,-460.5 902,-460.5 "/>
<text text-anchor="middle" x="858" y="-448.5" font-family="Helvetica,sans-Serif" font-size="10.00" fill="#000000"> </text>
</g>
<!-- Node10&#45;&gt;Node3 -->
<g id="edge9" class="edge">
<title>Node10&#45;&gt;Node3</title>
<path fill="none" stroke="#404040" d="M822.2794,-441.2991C816.6422,-437.2851 810.7676,-433.3822 805,-430 713.7292,-376.4768 601.7817,-329.5132 524.4756,-299.715"/>
<polygon fill="none" stroke="#404040" points="524.0578,-299.555 517.024,-301.1444 512.8515,-295.2631 519.8853,-293.6736 524.0578,-299.555"/>
<text text-anchor="middle" x="782" y="-404" font-family="Helvetica,sans-Serif" font-size="10.00" fill="#000000"> +mAt</text>
</g>
</g>
</svg>
        <g id="navigator" transform="translate(0 0)" fill="#404254">
                <rect fill="#f2f5e9" fill-opacity="0.5" stroke="#606060" stroke-width=".5" x="0" y="0" width="60" height="60"/>
                <use id="zoomplus" xlink:href="#zoomPlus" x="17" y="9" onmousedown="handleZoom(evt,'in')"/>
                <use id="zoomminus" xlink:href="#zoomMin" x="42" y="9" onmousedown="handleZoom(evt,'out')"/>
                <use id="reset" xlink:href="#resetDef" x="30" y="36" onmousedown="handleReset()"/>
                <g id="arrowUp" xlink:href="#dirArrow" transform="translate(30 24)" onmousedown="handlePan(0,-1)">
                  <use xlink:href="#rim" fill="#404040">
                        <set attributeName="fill" to="#808080" begin="arrowUp.mouseover" end="arrowUp.mouseout"/>
                  </use>
                  <path fill="none" stroke="white" stroke-width="1.5" d="M0,-3.0v7 M-2.5,-0.5L0,-3.0L2.5,-0.5"/>
                </g>
                <g id="arrowRight" xlink:href="#dirArrow" transform="rotate(90) translate(36 -43)" onmousedown="handlePan(1,0)">
                  <use xlink:href="#rim" fill="#404040">
                        <set attributeName="fill" to="#808080" begin="arrowRight.mouseover" end="arrowRight.mouseout"/>
                  </use>
                  <path fill="none" stroke="white" stroke-width="1.5" d="M0,-3.0v7 M-2.5,-0.5L0,-3.0L2.5,-0.5"/>
                </g>
                <g id="arrowDown" xlink:href="#dirArrow" transform="rotate(180) translate(-30 -48)" onmousedown="handlePan(0,1)">
                  <use xlink:href="#rim" fill="#404040">
                        <set attributeName="fill" to="#808080" begin="arrowDown.mouseover" end="arrowDown.mouseout"/>
                  </use>
                  <path fill="none" stroke="white" stroke-width="1.5" d="M0,-3.0v7 M-2.5,-0.5L0,-3.0L2.5,-0.5"/>
                </g>
                <g id="arrowLeft" xlink:href="#dirArrow" transform="rotate(270) translate(-36 17)" onmousedown="handlePan(-1,0)">
                  <use xlink:href="#rim" fill="#404040">
                        <set attributeName="fill" to="#808080" begin="arrowLeft.mouseover" end="arrowLeft.mouseout"/>
                  </use>
                  <path fill="none" stroke="white" stroke-width="1.5" d="M0,-3.0v7 M-2.5,-0.5L0,-3.0L2.5,-0.5"/>
                </g>
        </g>
        <svg viewBox="0 0 15 15" width="100%" height="30px" preserveAspectRatio="xMaxYMin meet">
         <g id="arrow_out" transform="scale(0.3 0.3)">
          <a xlink:href="structo2_1_1framework_1_1AnalysisDataProcessorBuilder_1_1GroupSlicer__coll__graph_org.svg" target="_base">
           <rect id="button" ry="5" rx="5" y="6" x="6" height="38" width="38"
                fill="#f2f5e9" fill-opacity="0.5" stroke="#606060" stroke-width="1.0"/>
           <path id="arrow"
             d="M 11.500037,31.436501 C 11.940474,20.09759 22.043105,11.32322 32.158766,21.979434 L 37.068811,17.246167 C 37.068811,17.246167 37.088388,32 37.088388,32 L 22.160133,31.978069 C 22.160133,31.978069 26.997745,27.140456 26.997745,27.140456 C 18.528582,18.264221 13.291696,25.230495 11.500037,31.436501 z"
             style="fill:#404040;"/>
          </a>
         </g>
        </svg>
</svg>
