<?xml version="1.0" encoding="UTF-8" standalone="no"?>
<!DOCTYPE svg PUBLIC "-//W3C//DTD SVG 1.1//EN"
 "http://www.w3.org/Graphics/SVG/1.1/DTD/svg11.dtd">
<!-- Generated by graphviz version 2.40.1 (20161225.0304)
 -->
<!-- Title: /home/travis/build/AliceO2Group/AliceO2/DataFormats/Detectors/TPC/include/DataFormatsTPC/CompressedClusters.h Pages: 1 -->
<svg width="808pt" height="261pt"
 viewBox="0.00 0.00 807.50 261.00" xmlns="http://www.w3.org/2000/svg" xmlns:xlink="http://www.w3.org/1999/xlink">
<g id="graph0" class="graph" transform="scale(1 1) rotate(0) translate(4 257)">
<title>/home/travis/build/AliceO2Group/AliceO2/DataFormats/Detectors/TPC/include/DataFormatsTPC/CompressedClusters.h</title>
<!-- Node3 -->
<g id="node1" class="node">
<title>Node3</title>
<polygon fill="#bfbfbf" stroke="#000000" points="273,-189.5 273,-252.5 434,-252.5 434,-189.5 273,-189.5"/>
<text text-anchor="start" x="281" y="-240.5" font-family="Helvetica,sans-Serif" font-size="10.00" fill="#000000">/home/travis/build</text>
<text text-anchor="start" x="281" y="-229.5" font-family="Helvetica,sans-Serif" font-size="10.00" fill="#000000">/AliceO2Group/AliceO2</text>
<text text-anchor="start" x="281" y="-218.5" font-family="Helvetica,sans-Serif" font-size="10.00" fill="#000000">/DataFormats/Detectors</text>
<text text-anchor="start" x="281" y="-207.5" font-family="Helvetica,sans-Serif" font-size="10.00" fill="#000000">/TPC/include/DataFormatsTPC</text>
<text text-anchor="middle" x="353.5" y="-196.5" font-family="Helvetica,sans-Serif" font-size="10.00" fill="#000000">/CompressedClusters.h</text>
</g>
<!-- Node4 -->
<g id="node2" class="node">
<title>Node4</title>
<g id="a_node2"><a xlink:href="../../d3/d64/CompressedClustersHelpers_8h.html" target="_top" xlink:title="Helper for the CompressedClusters container. ">
<polygon fill="none" stroke="#000000" points="111,-89.5 111,-152.5 278,-152.5 278,-89.5 111,-89.5"/>
<text text-anchor="start" x="119" y="-140.5" font-family="Helvetica,sans-Serif" font-size="10.00" fill="#000000">/home/travis/build</text>
<text text-anchor="start" x="119" y="-129.5" font-family="Helvetica,sans-Serif" font-size="10.00" fill="#000000">/AliceO2Group/AliceO2</text>
<text text-anchor="start" x="119" y="-118.5" font-family="Helvetica,sans-Serif" font-size="10.00" fill="#000000">/DataFormats/Detectors</text>
<text text-anchor="start" x="119" y="-107.5" font-family="Helvetica,sans-Serif" font-size="10.00" fill="#000000">/TPC/include/DataFormatsTPC</text>
<text text-anchor="middle" x="194.5" y="-96.5" font-family="Helvetica,sans-Serif" font-size="10.00" fill="#000000">/CompressedClustersHelpers.h</text>
</a>
</g>
</g>
<!-- Node3&#45;&gt;Node4 -->
<g id="edge1" class="edge">
<title>Node3&#45;&gt;Node4</title>
<path fill="none" stroke="#191970" d="M294.2854,-183.7581C277.995,-173.5126 260.4867,-162.5011 244.754,-152.6063"/>
<polygon fill="#191970" stroke="#191970" points="292.863,-186.9982 303.1914,-189.3594 296.5898,-181.0727 292.863,-186.9982"/>
</g>
<!-- Node5 -->
<g id="node3" class="node">
<title>Node5</title>
<g id="a_node3"><a xlink:href="../../d3/dc9/CompressedClusters_8cxx.html" target="_top" xlink:title="Container to store compressed TPC cluster data. ">
<polygon fill="none" stroke="#000000" points="0,-.5 0,-52.5 179,-52.5 179,-.5 0,-.5"/>
<text text-anchor="start" x="8" y="-40.5" font-family="Helvetica,sans-Serif" font-size="10.00" fill="#000000">/home/travis/build</text>
<text text-anchor="start" x="8" y="-29.5" font-family="Helvetica,sans-Serif" font-size="10.00" fill="#000000">/AliceO2Group/AliceO2</text>
<text text-anchor="start" x="8" y="-18.5" font-family="Helvetica,sans-Serif" font-size="10.00" fill="#000000">/DataFormats/Detectors</text>
<text text-anchor="middle" x="89.5" y="-7.5" font-family="Helvetica,sans-Serif" font-size="10.00" fill="#000000">/TPC/src/CompressedClusters.cxx</text>
</a>
</g>
</g>
<!-- Node3&#45;&gt;Node5 -->
<g id="edge4" class="edge">
<title>Node3&#45;&gt;Node5</title>
<path fill="none" stroke="#191970" d="M262.9279,-207.4637C199.8763,-196.0803 123.4852,-177.6972 102.5,-153 78.9124,-125.2401 80.3302,-80.7137 84.3187,-52.566"/>
<polygon fill="#191970" stroke="#191970" points="262.4656,-210.9362 272.9222,-209.2304 263.6842,-204.043 262.4656,-210.9362"/>
</g>
<!-- Node6 -->
<g id="node4" class="node">
<title>Node6</title>
<g id="a_node4"><a xlink:href="../../df/d64/testCompressedClusters_8cxx.html" target="_top" xlink:title="/home/travis/build\l/AliceO2Group/AliceO2\l/DataFormats/Detectors\l/TPC/test/testCompressedClusters.cxx">
<polygon fill="none" stroke="#000000" points="200,-.5 200,-52.5 403,-52.5 403,-.5 200,-.5"/>
<text text-anchor="start" x="208" y="-40.5" font-family="Helvetica,sans-Serif" font-size="10.00" fill="#000000">/home/travis/build</text>
<text text-anchor="start" x="208" y="-29.5" font-family="Helvetica,sans-Serif" font-size="10.00" fill="#000000">/AliceO2Group/AliceO2</text>
<text text-anchor="start" x="208" y="-18.5" font-family="Helvetica,sans-Serif" font-size="10.00" fill="#000000">/DataFormats/Detectors</text>
<text text-anchor="middle" x="301.5" y="-7.5" font-family="Helvetica,sans-Serif" font-size="10.00" fill="#000000">/TPC/test/testCompressedClusters.cxx</text>
</a>
</g>
</g>
<!-- Node3&#45;&gt;Node6 -->
<g id="edge5" class="edge">
<title>Node3&#45;&gt;Node6</title>
<path fill="none" stroke="#191970" d="M334.3124,-180.0838C330.6789,-171.2828 327.1815,-161.9374 324.5,-153 314.3006,-119.0053 307.8983,-78.4401 304.511,-52.5799"/>
<polygon fill="#191970" stroke="#191970" points="331.133,-181.5506 338.2766,-189.3749 337.5715,-178.8036 331.133,-181.5506"/>
</g>
<!-- Node7 -->
<g id="node5" class="node">
<title>Node7</title>
<g id="a_node5"><a xlink:href="../../da/d78/CATrackerSpec_8cxx.html" target="_top" xlink:title="Processor spec for running TPC CA tracking. ">
<polygon fill="none" stroke="#000000" points="333.5,-95 333.5,-147 469.5,-147 469.5,-95 333.5,-95"/>
<text text-anchor="start" x="341.5" y="-135" font-family="Helvetica,sans-Serif" font-size="10.00" fill="#000000">/home/travis/build</text>
<text text-anchor="start" x="341.5" y="-124" font-family="Helvetica,sans-Serif" font-size="10.00" fill="#000000">/AliceO2Group/AliceO2</text>
<text text-anchor="start" x="341.5" y="-113" font-family="Helvetica,sans-Serif" font-size="10.00" fill="#000000">/Detectors/TPC/workflow</text>
<text text-anchor="middle" x="401.5" y="-102" font-family="Helvetica,sans-Serif" font-size="10.00" fill="#000000">/src/CATrackerSpec.cxx</text>
</a>
</g>
</g>
<!-- Node3&#45;&gt;Node7 -->
<g id="edge6" class="edge">
<title>Node3&#45;&gt;Node7</title>
<path fill="none" stroke="#191970" d="M373.0981,-180.1707C378.4632,-168.9933 384.1322,-157.1829 388.9826,-147.078"/>
<polygon fill="#191970" stroke="#191970" points="369.8595,-178.8296 368.6875,-189.3594 376.1702,-181.8587 369.8595,-178.8296"/>
</g>
<!-- Node8 -->
<g id="node6" class="node">
<title>Node8</title>
<g id="a_node6"><a xlink:href="../../d9/d03/EntropyEncoderSpec_8cxx.html" target="_top" xlink:title="ProcessorSpec for the TPC cluster entropy encoding. ">
<polygon fill="none" stroke="#000000" points="488,-95 488,-147 645,-147 645,-95 488,-95"/>
<text text-anchor="start" x="496" y="-135" font-family="Helvetica,sans-Serif" font-size="10.00" fill="#000000">/home/travis/build</text>
<text text-anchor="start" x="496" y="-124" font-family="Helvetica,sans-Serif" font-size="10.00" fill="#000000">/AliceO2Group/AliceO2</text>
<text text-anchor="start" x="496" y="-113" font-family="Helvetica,sans-Serif" font-size="10.00" fill="#000000">/Detectors/TPC/workflow</text>
<text text-anchor="middle" x="566.5" y="-102" font-family="Helvetica,sans-Serif" font-size="10.00" fill="#000000">/src/EntropyEncoderSpec.cxx</text>
</a>
</g>
</g>
<!-- Node3&#45;&gt;Node8 -->
<g id="edge7" class="edge">
<title>Node3&#45;&gt;Node8</title>
<path fill="none" stroke="#191970" d="M429.9243,-185.12C456.6386,-172.5781 486.1031,-158.745 510.8052,-147.1478"/>
<polygon fill="#191970" stroke="#191970" points="428.1668,-182.0786 420.6022,-189.4966 431.1417,-188.415 428.1668,-182.0786"/>
</g>
<!-- Node9 -->
<g id="node7" class="node">
<title>Node9</title>
<g id="a_node7"><a xlink:href="../../d0/d80/TPC_2workflow_2src_2RecoWorkflow_8cxx.html" target="_top" xlink:title="/home/travis/build\l/AliceO2Group/AliceO2\l/Detectors/TPC/workflow\l/src/RecoWorkflow.cxx">
<polygon fill="none" stroke="#000000" points="663.5,-95 663.5,-147 799.5,-147 799.5,-95 663.5,-95"/>
<text text-anchor="start" x="671.5" y="-135" font-family="Helvetica,sans-Serif" font-size="10.00" fill="#000000">/home/travis/build</text>
<text text-anchor="start" x="671.5" y="-124" font-family="Helvetica,sans-Serif" font-size="10.00" fill="#000000">/AliceO2Group/AliceO2</text>
<text text-anchor="start" x="671.5" y="-113" font-family="Helvetica,sans-Serif" font-size="10.00" fill="#000000">/Detectors/TPC/workflow</text>
<text text-anchor="middle" x="731.5" y="-102" font-family="Helvetica,sans-Serif" font-size="10.00" fill="#000000">/src/RecoWorkflow.cxx</text>
</a>
</g>
</g>
<!-- Node3&#45;&gt;Node9 -->
<g id="edge8" class="edge">
<title>Node3&#45;&gt;Node9</title>
<path fill="none" stroke="#191970" d="M443.916,-204.7887C504.2572,-192.9449 584.9823,-175.1172 654.5,-153 660.0181,-151.2444 665.6916,-149.2562 671.3373,-147.1509"/>
<polygon fill="#191970" stroke="#191970" points="443.1812,-201.3659 434.0334,-206.7108 444.5177,-208.2372 443.1812,-201.3659"/>
</g>
<!-- Node4&#45;&gt;Node5 -->
<g id="edge2" class="edge">
<title>Node4&#45;&gt;Node5</title>
<path fill="none" stroke="#191970" d="M151.6572,-82.4415C140.5222,-72.42 128.7869,-61.8582 118.5491,-52.6442"/>
<polygon fill="#191970" stroke="#191970" points="149.4701,-85.1818 159.2444,-89.27 154.1528,-79.9788 149.4701,-85.1818"/>
</g>
<!-- Node4&#45;&gt;Node6 -->
<g id="edge3" class="edge">
<title>Node4&#45;&gt;Node6</title>
<path fill="none" stroke="#191970" d="M238.1588,-82.4415C249.5059,-72.42 261.4648,-61.8582 271.8976,-52.6442"/>
<polygon fill="#191970" stroke="#191970" points="235.6055,-80.0269 230.4271,-89.27 240.2394,-85.2736 235.6055,-80.0269"/>
</g>
</g>
</svg>
