<?xml version="1.0" encoding="UTF-8" standalone="no"?>
<!DOCTYPE svg PUBLIC "-//W3C//DTD SVG 1.1//EN"
 "http://www.w3.org/Graphics/SVG/1.1/DTD/svg11.dtd">
<!-- Generated by graphviz version 2.40.1 (20161225.0304)
 -->
<!-- Title: /home/travis/build/AliceO2Group/AliceO2/Detectors/MUON/MCH/Raw/Decoder/src/PayloadDecoder.h Pages: 1 -->
<!--zoomable 296 -->
<svg id="main" version="1.1" xmlns="http://www.w3.org/2000/svg" xmlns:xlink="http://www.w3.org/1999/xlink" xml:space="preserve" onload="init(evt)">
<style type="text/css"><![CDATA[
.edge:hover path { stroke: red; }
.edge:hover polygon { stroke: red; fill: red; }
]]></style>
<script type="text/javascript"><![CDATA[
var edges = document.getElementsByTagName('g');
if (edges && edges.length) {
  for (var i=0;i<edges.length;i++) {
    if (edges[i].id.substr(0,4)=='edge') {
      edges[i].setAttribute('class','edge');
    }
  }
}
]]></script>
        <defs>
                <circle id="rim" cx="0" cy="0" r="7"/>
                <circle id="rim2" cx="0" cy="0" r="3.5"/>
                <g id="zoomPlus">
                        <use xlink:href="#rim" fill="#404040">
                                <set attributeName="fill" to="#808080" begin="zoomplus.mouseover" end="zoomplus.mouseout"/>
                        </use>
                        <path d="M-4,0h8M0,-4v8" fill="none" stroke="white" stroke-width="1.5" pointer-events="none"/>
                </g>
                <g id="zoomMin">
                        <use xlink:href="#rim" fill="#404040">
                                <set attributeName="fill" to="#808080" begin="zoomminus.mouseover" end="zoomminus.mouseout"/>
                        </use>
                        <path d="M-4,0h8" fill="none" stroke="white" stroke-width="1.5" pointer-events="none"/>
                </g>
                <g id="dirArrow">
                        <path fill="none" stroke="white" stroke-width="1.5" d="M0,-3.0v7 M-2.5,-0.5L0,-3.0L2.5,-0.5"/>
                </g>
               <g id="resetDef">
                       <use xlink:href="#rim2" fill="#404040">
                               <set attributeName="fill" to="#808080" begin="reset.mouseover" end="reset.mouseout"/>
                       </use>
               </g>
        </defs>

<script type="text/javascript">
var viewWidth = 555;
var viewHeight = 296;
var sectionId = 'dynsection-0';
</script>
<script xlink:href="../../svgpan.js"/>
<svg id="graph" class="graph">
<g id="viewport">
<title>/home/travis/build/AliceO2Group/AliceO2/Detectors/MUON/MCH/Raw/Decoder/src/PayloadDecoder.h</title>
<!-- Node0 -->
<g id="node1" class="node">
<title>Node0</title>
<polygon fill="#bfbfbf" stroke="#000000" points="342.5,-235.5 342.5,-287.5 509.5,-287.5 509.5,-235.5 342.5,-235.5"/>
<text text-anchor="start" x="350.5" y="-275.5" font-family="Helvetica,sans-Serif" font-size="10.00" fill="#000000">/home/travis/build</text>
<text text-anchor="start" x="350.5" y="-264.5" font-family="Helvetica,sans-Serif" font-size="10.00" fill="#000000">/AliceO2Group/AliceO2</text>
<text text-anchor="start" x="350.5" y="-253.5" font-family="Helvetica,sans-Serif" font-size="10.00" fill="#000000">/Detectors/MUON/MCH/Raw</text>
<text text-anchor="middle" x="426" y="-242.5" font-family="Helvetica,sans-Serif" font-size="10.00" fill="#000000">/Decoder/src/PayloadDecoder.h</text>
</g>
<!-- Node1 -->
<g id="node2" class="node">
<title>Node1</title>
<g id="a_node2"><a xlink:href="../../d4/d78/DataFormats_2Headers_2include_2Headers_2RAWDataHeader_8h.html" target="_top" xlink:title="Headers/RAWDataHeader.h">
<polygon fill="none" stroke="#000000" points="31.5,-179.5 31.5,-198.5 180.5,-198.5 180.5,-179.5 31.5,-179.5"/>
<text text-anchor="middle" x="106" y="-186.5" font-family="Helvetica,sans-Serif" font-size="10.00" fill="#000000">Headers/RAWDataHeader.h</text>
</a>
</g>
</g>
<!-- Node0&#45;&gt;Node1 -->
<g id="edge1" class="edge">
<title>Node0&#45;&gt;Node1</title>
<path fill="none" stroke="#191970" d="M342.3417,-242.5462C283.9577,-229.3185 207.8599,-212.0776 158.0022,-200.7818"/>
<polygon fill="#191970" stroke="#191970" points="158.6118,-197.3312 148.0856,-198.535 157.065,-204.1582 158.6118,-197.3312"/>
</g>
<!-- Node3 -->
<g id="node4" class="node">
<title>Node3</title>
<g id="a_node4"><a xlink:href="../../dd/d58/SampaChannelHandler_8h.html" target="_top" xlink:title="MCHRawDecoder/SampaChannel\lHandler.h">
<polygon fill="none" stroke="#000000" points="185.5,-112.5 185.5,-142.5 362.5,-142.5 362.5,-112.5 185.5,-112.5"/>
<text text-anchor="start" x="193.5" y="-130.5" font-family="Helvetica,sans-Serif" font-size="10.00" fill="#000000">MCHRawDecoder/SampaChannel</text>
<text text-anchor="middle" x="274" y="-119.5" font-family="Helvetica,sans-Serif" font-size="10.00" fill="#000000">Handler.h</text>
</a>
</g>
</g>
<!-- Node0&#45;&gt;Node3 -->
<g id="edge3" class="edge">
<title>Node0&#45;&gt;Node3</title>
<path fill="none" stroke="#191970" d="M342.3737,-247.2219C314.9806,-238.1414 287.3956,-223.2894 271,-199 261.9387,-185.576 262.8836,-167.2834 265.9937,-152.5614"/>
<polygon fill="#191970" stroke="#191970" points="269.456,-153.1474 268.5289,-142.5932 262.672,-151.422 269.456,-153.1474"/>
</g>
<!-- Node6 -->
<g id="node7" class="node">
<title>Node6</title>
<polygon fill="none" stroke="#bfbfbf" points="497.5,-.5 497.5,-19.5 546.5,-19.5 546.5,-.5 497.5,-.5"/>
<text text-anchor="middle" x="522" y="-7.5" font-family="Helvetica,sans-Serif" font-size="10.00" fill="#000000">cstdlib</text>
</g>
<!-- Node0&#45;&gt;Node6 -->
<g id="edge20" class="edge">
<title>Node0&#45;&gt;Node6</title>
<path fill="none" stroke="#191970" d="M465.9924,-235.3935C493.8703,-214.3746 528.2605,-181.9656 541,-143 553.8048,-103.8346 539.889,-55.3879 530.0335,-29.1204"/>
<polygon fill="#191970" stroke="#191970" points="533.2041,-27.6205 526.2716,-19.6085 526.6947,-30.1949 533.2041,-27.6205"/>
</g>
<!-- Node13 -->
<g id="node14" class="node">
<title>Node13</title>
<g id="a_node14"><a xlink:href="../../dc/d36/PageDecoder_8h.html" target="_top" xlink:title="MCHRawDecoder/PageDecoder.h">
<polygon fill="none" stroke="#000000" points="280,-179.5 280,-198.5 456,-198.5 456,-179.5 280,-179.5"/>
<text text-anchor="middle" x="368" y="-186.5" font-family="Helvetica,sans-Serif" font-size="10.00" fill="#000000">MCHRawDecoder/PageDecoder.h</text>
</a>
</g>
</g>
<!-- Node0&#45;&gt;Node13 -->
<g id="edge14" class="edge">
<title>Node0&#45;&gt;Node13</title>
<path fill="none" stroke="#191970" d="M405.0607,-235.3258C397.3705,-225.7131 388.8588,-215.0735 381.9339,-206.4174"/>
<polygon fill="#191970" stroke="#191970" points="384.6072,-204.1563 375.6272,-198.534 379.1411,-208.5292 384.6072,-204.1563"/>
</g>
<!-- Node14 -->
<g id="node15" class="node">
<title>Node14</title>
<polygon fill="none" stroke="#bfbfbf" points="418.5,-118 418.5,-137 475.5,-137 475.5,-118 418.5,-118"/>
<text text-anchor="middle" x="447" y="-125" font-family="Helvetica,sans-Serif" font-size="10.00" fill="#000000">gsl/span</text>
</g>
<!-- Node0&#45;&gt;Node14 -->
<g id="edge21" class="edge">
<title>Node0&#45;&gt;Node14</title>
<path fill="none" stroke="#191970" d="M446.8399,-235.3929C454.0771,-224.7444 461.3024,-211.9103 465,-199 470.0482,-181.3739 463.8125,-161.0887 457.3394,-146.6377"/>
<polygon fill="#191970" stroke="#191970" points="460.2891,-144.7036 452.742,-137.2678 454.0048,-147.7871 460.2891,-144.7036"/>
</g>
<!-- Node15 -->
<g id="node16" class="node">
<title>Node15</title>
<polygon fill="none" stroke="#bfbfbf" points="494,-118 494,-137 532,-137 532,-118 494,-118"/>
<text text-anchor="middle" x="513" y="-125" font-family="Helvetica,sans-Serif" font-size="10.00" fill="#000000">map</text>
</g>
<!-- Node0&#45;&gt;Node15 -->
<g id="edge19" class="edge">
<title>Node0&#45;&gt;Node15</title>
<path fill="none" stroke="#191970" d="M451.4114,-235.4321C461.0923,-224.688 471.7657,-211.7766 480,-199 490.7274,-182.355 499.8799,-161.6564 505.8055,-146.8197"/>
<polygon fill="#191970" stroke="#191970" points="509.1853,-147.7834 509.5264,-137.1941 502.6562,-145.2595 509.1853,-147.7834"/>
</g>
<!-- Node2 -->
<g id="node3" class="node">
<title>Node2</title>
<polygon fill="none" stroke="#bfbfbf" points="0,-.5 0,-19.5 50,-19.5 50,-.5 0,-.5"/>
<text text-anchor="middle" x="25" y="-7.5" font-family="Helvetica,sans-Serif" font-size="10.00" fill="#000000">cstdint</text>
</g>
<!-- Node1&#45;&gt;Node2 -->
<g id="edge2" class="edge">
<title>Node1&#45;&gt;Node2</title>
<path fill="none" stroke="#191970" d="M98.9018,-179.2476C85.4385,-160.2997 56.1032,-116.784 40,-76 34.0663,-60.972 30.1794,-43.0473 27.8524,-29.6729"/>
<polygon fill="#191970" stroke="#191970" points="31.2885,-28.9943 26.2539,-19.6721 24.3762,-30.0992 31.2885,-28.9943"/>
</g>
<!-- Node4 -->
<g id="node5" class="node">
<title>Node4</title>
<polygon fill="none" stroke="#bfbfbf" points="425.5,-56.5 425.5,-75.5 490.5,-75.5 490.5,-56.5 425.5,-56.5"/>
<text text-anchor="middle" x="458" y="-63.5" font-family="Helvetica,sans-Serif" font-size="10.00" fill="#000000">functional</text>
</g>
<!-- Node3&#45;&gt;Node4 -->
<g id="edge4" class="edge">
<title>Node3&#45;&gt;Node4</title>
<path fill="none" stroke="#191970" d="M319.0115,-112.4554C349.9816,-102.104 390.6628,-88.5067 420.002,-78.7004"/>
<polygon fill="#191970" stroke="#191970" points="421.1118,-82.0199 429.4865,-75.5303 418.8927,-75.3809 421.1118,-82.0199"/>
</g>
<!-- Node5 -->
<g id="node6" class="node">
<title>Node5</title>
<g id="a_node6"><a xlink:href="../../d0/d5b/SampaCluster_8h.html" target="_top" xlink:title="MCHRawCommon/SampaCluster.h">
<polygon fill="none" stroke="#000000" points="223,-56.5 223,-75.5 407,-75.5 407,-56.5 223,-56.5"/>
<text text-anchor="middle" x="315" y="-63.5" font-family="Helvetica,sans-Serif" font-size="10.00" fill="#000000">MCHRawCommon/SampaCluster.h</text>
</a>
</g>
</g>
<!-- Node3&#45;&gt;Node5 -->
<g id="edge5" class="edge">
<title>Node3&#45;&gt;Node5</title>
<path fill="none" stroke="#191970" d="M284.1348,-112.2977C289.7668,-103.8498 296.8151,-93.2773 302.754,-84.369"/>
<polygon fill="#191970" stroke="#191970" points="305.8005,-86.1089 308.4354,-75.8469 299.9762,-82.226 305.8005,-86.1089"/>
</g>
<!-- Node10 -->
<g id="node11" class="node">
<title>Node10</title>
<g id="a_node11"><a xlink:href="../../d4/d09/DsElecId_8h.html" target="_top" xlink:title="MCHRawElecMap/DsElecId.h">
<polygon fill="none" stroke="#000000" points="49.5,-56.5 49.5,-75.5 204.5,-75.5 204.5,-56.5 49.5,-56.5"/>
<text text-anchor="middle" x="127" y="-63.5" font-family="Helvetica,sans-Serif" font-size="10.00" fill="#000000">MCHRawElecMap/DsElecId.h</text>
</a>
</g>
</g>
<!-- Node3&#45;&gt;Node10 -->
<g id="edge10" class="edge">
<title>Node3&#45;&gt;Node10</title>
<path fill="none" stroke="#191970" d="M238.0398,-112.4554C213.9427,-102.374 182.487,-89.2139 159.2097,-79.4755"/>
<polygon fill="#191970" stroke="#191970" points="160.3558,-76.1611 149.7798,-75.5303 157.6541,-82.6187 160.3558,-76.1611"/>
</g>
<!-- Node5&#45;&gt;Node6 -->
<g id="edge6" class="edge">
<title>Node5&#45;&gt;Node6</title>
<path fill="none" stroke="#191970" d="M350.5846,-56.3733C388.8337,-46.0257 449.2386,-29.6842 487.1867,-19.4181"/>
<polygon fill="#191970" stroke="#191970" points="488.5184,-22.6837 497.2574,-16.6936 486.6904,-15.9266 488.5184,-22.6837"/>
</g>
<!-- Node7 -->
<g id="node8" class="node">
<title>Node7</title>
<polygon fill="none" stroke="#bfbfbf" points="219.5,-.5 219.5,-19.5 266.5,-19.5 266.5,-.5 219.5,-.5"/>
<text text-anchor="middle" x="243" y="-7.5" font-family="Helvetica,sans-Serif" font-size="10.00" fill="#000000">vector</text>
</g>
<!-- Node5&#45;&gt;Node7 -->
<g id="edge7" class="edge">
<title>Node5&#45;&gt;Node7</title>
<path fill="none" stroke="#191970" d="M302.4586,-56.2455C291.7213,-47.8943 276.0527,-35.7076 263.4953,-25.9408"/>
<polygon fill="#191970" stroke="#191970" points="265.4401,-23.0194 255.3977,-19.6427 261.1425,-28.5449 265.4401,-23.0194"/>
</g>
<!-- Node8 -->
<g id="node9" class="node">
<title>Node8</title>
<polygon fill="none" stroke="#bfbfbf" points="285,-.5 285,-19.5 345,-19.5 345,-.5 285,-.5"/>
<text text-anchor="middle" x="315" y="-7.5" font-family="Helvetica,sans-Serif" font-size="10.00" fill="#000000">iostream</text>
</g>
<!-- Node5&#45;&gt;Node8 -->
<g id="edge8" class="edge">
<title>Node5&#45;&gt;Node8</title>
<path fill="none" stroke="#191970" d="M315,-56.2455C315,-48.9382 315,-38.6944 315,-29.7046"/>
<polygon fill="#191970" stroke="#191970" points="318.5001,-29.6426 315,-19.6427 311.5001,-29.6427 318.5001,-29.6426"/>
</g>
<!-- Node9 -->
<g id="node10" class="node">
<title>Node9</title>
<polygon fill="none" stroke="#bfbfbf" points="363.5,-.5 363.5,-19.5 442.5,-19.5 442.5,-.5 363.5,-.5"/>
<text text-anchor="middle" x="403" y="-7.5" font-family="Helvetica,sans-Serif" font-size="10.00" fill="#000000">fmt/format.h</text>
</g>
<!-- Node5&#45;&gt;Node9 -->
<g id="edge9" class="edge">
<title>Node5&#45;&gt;Node9</title>
<path fill="none" stroke="#191970" d="M330.3284,-56.2455C343.8303,-47.6534 363.7122,-35.0014 379.2686,-25.1018"/>
<polygon fill="#191970" stroke="#191970" points="381.2897,-27.9643 387.8472,-19.6427 377.5315,-22.0587 381.2897,-27.9643"/>
</g>
<!-- Node10&#45;&gt;Node2 -->
<g id="edge11" class="edge">
<title>Node10&#45;&gt;Node2</title>
<path fill="none" stroke="#191970" d="M109.233,-56.2455C93.2905,-47.4928 69.6741,-34.527 51.5011,-24.5496"/>
<polygon fill="#191970" stroke="#191970" points="53.0137,-21.3873 42.5634,-19.6427 49.6448,-27.5233 53.0137,-21.3873"/>
</g>
<!-- Node11 -->
<g id="node12" class="node">
<title>Node11</title>
<polygon fill="none" stroke="#bfbfbf" points="149.5,-.5 149.5,-19.5 198.5,-19.5 198.5,-.5 149.5,-.5"/>
<text text-anchor="middle" x="174" y="-7.5" font-family="Helvetica,sans-Serif" font-size="10.00" fill="#000000">iosfwd</text>
</g>
<!-- Node10&#45;&gt;Node11 -->
<g id="edge12" class="edge">
<title>Node10&#45;&gt;Node11</title>
<path fill="none" stroke="#191970" d="M135.1868,-56.2455C141.8589,-48.2958 151.4479,-36.8706 159.4253,-27.3656"/>
<polygon fill="#191970" stroke="#191970" points="162.1592,-29.5525 165.907,-19.6427 156.7974,-25.0524 162.1592,-29.5525"/>
</g>
<!-- Node12 -->
<g id="node13" class="node">
<title>Node12</title>
<polygon fill="none" stroke="#bfbfbf" points="75,-.5 75,-19.5 131,-19.5 131,-.5 75,-.5"/>
<text text-anchor="middle" x="103" y="-7.5" font-family="Helvetica,sans-Serif" font-size="10.00" fill="#000000">optional</text>
</g>
<!-- Node10&#45;&gt;Node12 -->
<g id="edge13" class="edge">
<title>Node10&#45;&gt;Node12</title>
<path fill="none" stroke="#191970" d="M122.8195,-56.2455C119.619,-48.7776 115.104,-38.2427 111.1916,-29.1137"/>
<polygon fill="#191970" stroke="#191970" points="114.2888,-27.4554 107.1326,-19.6427 107.8548,-30.2129 114.2888,-27.4554"/>
</g>
<!-- Node13&#45;&gt;Node3 -->
<g id="edge18" class="edge">
<title>Node13&#45;&gt;Node3</title>
<path fill="none" stroke="#191970" d="M353.3125,-179.3906C340.5907,-171.0673 321.7473,-158.7389 305.6194,-148.1872"/>
<polygon fill="#191970" stroke="#191970" points="307.2794,-145.0907 296.995,-142.5446 303.4469,-150.9484 307.2794,-145.0907"/>
</g>
<!-- Node13&#45;&gt;Node4 -->
<g id="edge15" class="edge">
<title>Node13&#45;&gt;Node4</title>
<path fill="none" stroke="#191970" d="M371.8867,-179.4055C378.294,-164.2273 392.0661,-134.1315 409,-112 417.3357,-101.1058 428.349,-90.5165 437.8228,-82.2495"/>
<polygon fill="#191970" stroke="#191970" points="440.2707,-84.7632 445.646,-75.6331 435.7504,-79.4184 440.2707,-84.7632"/>
</g>
<!-- Node13&#45;&gt;Node14 -->
<g id="edge16" class="edge">
<title>Node13&#45;&gt;Node14</title>
<path fill="none" stroke="#191970" d="M380.3438,-179.3906C392.7503,-169.7324 412.0843,-154.6812 426.7413,-143.271"/>
<polygon fill="#191970" stroke="#191970" points="429.0021,-145.9466 434.7429,-137.0419 424.7021,-140.423 429.0021,-145.9466"/>
</g>
<!-- Node13&#45;&gt;Node15 -->
<g id="edge17" class="edge">
<title>Node13&#45;&gt;Node15</title>
<path fill="none" stroke="#191970" d="M394.6201,-179.4244C418.3678,-170.6515 453.9289,-156.9441 484,-143 484.984,-142.5437 485.9817,-142.0698 486.9856,-141.5833"/>
<polygon fill="#191970" stroke="#191970" points="488.6605,-144.6582 495.9879,-137.0058 485.4877,-138.4185 488.6605,-144.6582"/>
</g>
</g>
</svg>
        <g id="navigator" transform="translate(0 0)" fill="#404254">
                <rect fill="#f2f5e9" fill-opacity="0.5" stroke="#606060" stroke-width=".5" x="0" y="0" width="60" height="60"/>
                <use id="zoomplus" xlink:href="#zoomPlus" x="17" y="9" onmousedown="handleZoom(evt,'in')"/>
                <use id="zoomminus" xlink:href="#zoomMin" x="42" y="9" onmousedown="handleZoom(evt,'out')"/>
                <use id="reset" xlink:href="#resetDef" x="30" y="36" onmousedown="handleReset()"/>
                <g id="arrowUp" xlink:href="#dirArrow" transform="translate(30 24)" onmousedown="handlePan(0,-1)">
                  <use xlink:href="#rim" fill="#404040">
                        <set attributeName="fill" to="#808080" begin="arrowUp.mouseover" end="arrowUp.mouseout"/>
                  </use>
                  <path fill="none" stroke="white" stroke-width="1.5" d="M0,-3.0v7 M-2.5,-0.5L0,-3.0L2.5,-0.5"/>
                </g>
                <g id="arrowRight" xlink:href="#dirArrow" transform="rotate(90) translate(36 -43)" onmousedown="handlePan(1,0)">
                  <use xlink:href="#rim" fill="#404040">
                        <set attributeName="fill" to="#808080" begin="arrowRight.mouseover" end="arrowRight.mouseout"/>
                  </use>
                  <path fill="none" stroke="white" stroke-width="1.5" d="M0,-3.0v7 M-2.5,-0.5L0,-3.0L2.5,-0.5"/>
                </g>
                <g id="arrowDown" xlink:href="#dirArrow" transform="rotate(180) translate(-30 -48)" onmousedown="handlePan(0,1)">
                  <use xlink:href="#rim" fill="#404040">
                        <set attributeName="fill" to="#808080" begin="arrowDown.mouseover" end="arrowDown.mouseout"/>
                  </use>
                  <path fill="none" stroke="white" stroke-width="1.5" d="M0,-3.0v7 M-2.5,-0.5L0,-3.0L2.5,-0.5"/>
                </g>
                <g id="arrowLeft" xlink:href="#dirArrow" transform="rotate(270) translate(-36 17)" onmousedown="handlePan(-1,0)">
                  <use xlink:href="#rim" fill="#404040">
                        <set attributeName="fill" to="#808080" begin="arrowLeft.mouseover" end="arrowLeft.mouseout"/>
                  </use>
                  <path fill="none" stroke="white" stroke-width="1.5" d="M0,-3.0v7 M-2.5,-0.5L0,-3.0L2.5,-0.5"/>
                </g>
        </g>
        <svg viewBox="0 0 15 15" width="100%" height="30px" preserveAspectRatio="xMaxYMin meet">
         <g id="arrow_out" transform="scale(0.3 0.3)">
          <a xlink:href="PayloadDecoder_8h__incl_org.svg" target="_base">
           <rect id="button" ry="5" rx="5" y="6" x="6" height="38" width="38"
                fill="#f2f5e9" fill-opacity="0.5" stroke="#606060" stroke-width="1.0"/>
           <path id="arrow"
             d="M 11.500037,31.436501 C 11.940474,20.09759 22.043105,11.32322 32.158766,21.979434 L 37.068811,17.246167 C 37.068811,17.246167 37.088388,32 37.088388,32 L 22.160133,31.978069 C 22.160133,31.978069 26.997745,27.140456 26.997745,27.140456 C 18.528582,18.264221 13.291696,25.230495 11.500037,31.436501 z"
             style="fill:#404040;"/>
          </a>
         </g>
        </svg>
</svg>
