<?xml version="1.0" encoding="UTF-8" standalone="no"?>
<!DOCTYPE svg PUBLIC "-//W3C//DTD SVG 1.1//EN"
 "http://www.w3.org/Graphics/SVG/1.1/DTD/svg11.dtd">
<!-- Generated by graphviz version 2.40.1 (20161225.0304)
 -->
<!-- Title: /home/travis/build/AliceO2Group/AliceO2/Detectors/MUON/MCH/Raw/Decoder/src/BareGBTDecoder.h Pages: 1 -->
<svg width="1747pt" height="363pt"
 viewBox="0.00 0.00 1746.50 363.00" xmlns="http://www.w3.org/2000/svg" xmlns:xlink="http://www.w3.org/1999/xlink">
<g id="graph0" class="graph" transform="scale(1 1) rotate(0) translate(4 359)">
<title>/home/travis/build/AliceO2Group/AliceO2/Detectors/MUON/MCH/Raw/Decoder/src/BareGBTDecoder.h</title>
<!-- Node0 -->
<g id="node1" class="node">
<title>Node0</title>
<polygon fill="#bfbfbf" stroke="#000000" points="509,-302.5 509,-354.5 681,-354.5 681,-302.5 509,-302.5"/>
<text text-anchor="start" x="517" y="-342.5" font-family="Helvetica,sans-Serif" font-size="10.00" fill="#000000">/home/travis/build</text>
<text text-anchor="start" x="517" y="-331.5" font-family="Helvetica,sans-Serif" font-size="10.00" fill="#000000">/AliceO2Group/AliceO2</text>
<text text-anchor="start" x="517" y="-320.5" font-family="Helvetica,sans-Serif" font-size="10.00" fill="#000000">/Detectors/MUON/MCH/Raw</text>
<text text-anchor="middle" x="595" y="-309.5" font-family="Helvetica,sans-Serif" font-size="10.00" fill="#000000">/Decoder/src/BareGBTDecoder.h</text>
</g>
<!-- Node1 -->
<g id="node2" class="node">
<title>Node1</title>
<polygon fill="none" stroke="#bfbfbf" points="0,-179.5 0,-198.5 42,-198.5 42,-179.5 0,-179.5"/>
<text text-anchor="middle" x="21" y="-186.5" font-family="Helvetica,sans-Serif" font-size="10.00" fill="#000000">array</text>
</g>
<!-- Node0&#45;&gt;Node1 -->
<g id="edge1" class="edge">
<title>Node0&#45;&gt;Node1</title>
<path fill="none" stroke="#191970" d="M508.7975,-323.9659C362.4526,-315.5072 77.8002,-295.4681 43,-266 26.4719,-252.0044 21.9125,-226.5301 20.8758,-208.7291"/>
<polygon fill="#191970" stroke="#191970" points="24.3706,-208.4781 20.6113,-198.5727 17.373,-208.6605 24.3706,-208.4781"/>
</g>
<!-- Node2 -->
<g id="node3" class="node">
<title>Node2</title>
<g id="a_node3"><a xlink:href="../../d7/ddc/BareElinkDecoder_8h.html" target="_top" xlink:title="BareElinkDecoder.h">
<polygon fill="none" stroke="#000000" points="539,-179.5 539,-198.5 651,-198.5 651,-179.5 539,-179.5"/>
<text text-anchor="middle" x="595" y="-186.5" font-family="Helvetica,sans-Serif" font-size="10.00" fill="#000000">BareElinkDecoder.h</text>
</a>
</g>
</g>
<!-- Node0&#45;&gt;Node2 -->
<g id="edge2" class="edge">
<title>Node0&#45;&gt;Node2</title>
<path fill="none" stroke="#191970" d="M595,-302.2611C595,-275.1435 595,-233.4164 595,-208.8996"/>
<polygon fill="#191970" stroke="#191970" points="598.5001,-208.6727 595,-198.6727 591.5001,-208.6728 598.5001,-208.6727"/>
</g>
<!-- Node3 -->
<g id="node4" class="node">
<title>Node3</title>
<g id="a_node4"><a xlink:href="../../dc/d46/Assertions_8h.html" target="_top" xlink:title="Assertions.h">
<polygon fill="none" stroke="#000000" points="186.5,-118 186.5,-137 263.5,-137 263.5,-118 186.5,-118"/>
<text text-anchor="middle" x="225" y="-125" font-family="Helvetica,sans-Serif" font-size="10.00" fill="#000000">Assertions.h</text>
</a>
</g>
</g>
<!-- Node0&#45;&gt;Node3 -->
<g id="edge35" class="edge">
<title>Node0&#45;&gt;Node3</title>
<path fill="none" stroke="#191970" d="M508.946,-316.4488C438.9623,-305.3468 346.9282,-287.3838 316,-266 272.1796,-235.7025 244.1414,-176.7736 231.9805,-146.4832"/>
<polygon fill="#191970" stroke="#191970" points="235.2082,-145.1256 228.3413,-137.0574 228.678,-147.6469 235.2082,-145.1256"/>
</g>
<!-- Node4 -->
<g id="node5" class="node">
<title>Node4</title>
<polygon fill="none" stroke="#bfbfbf" points="219.5,-.5 219.5,-19.5 298.5,-19.5 298.5,-.5 219.5,-.5"/>
<text text-anchor="middle" x="259" y="-7.5" font-family="Helvetica,sans-Serif" font-size="10.00" fill="#000000">fmt/format.h</text>
</g>
<!-- Node0&#45;&gt;Node4 -->
<g id="edge31" class="edge">
<title>Node0&#45;&gt;Node4</title>
<path fill="none" stroke="#191970" d="M508.9237,-318.75C381.6129,-301.8983 158,-261.9203 158,-189 158,-189 158,-189 158,-127.5 158,-81.6695 202.7356,-44.798 232.6613,-25.2602"/>
<polygon fill="#191970" stroke="#191970" points="234.8036,-28.0476 241.4071,-19.7625 231.0782,-22.1212 234.8036,-28.0476"/>
</g>
<!-- Node8 -->
<g id="node9" class="node">
<title>Node8</title>
<polygon fill="none" stroke="#bfbfbf" points="652,-.5 652,-19.5 712,-19.5 712,-.5 652,-.5"/>
<text text-anchor="middle" x="682" y="-7.5" font-family="Helvetica,sans-Serif" font-size="10.00" fill="#000000">iostream</text>
</g>
<!-- Node0&#45;&gt;Node8 -->
<g id="edge36" class="edge">
<title>Node0&#45;&gt;Node8</title>
<path fill="none" stroke="#191970" d="M535.8369,-302.4699C456.8196,-263.9841 332.7181,-188.2037 387,-112 417.253,-69.5292 568.7338,-33.2701 642.0793,-17.8849"/>
<polygon fill="#191970" stroke="#191970" points="642.8065,-21.3087 651.8893,-15.8541 641.3874,-14.454 642.8065,-21.3087"/>
</g>
<!-- Node9 -->
<g id="node10" class="node">
<title>Node9</title>
<g id="a_node10"><a xlink:href="../../dd/d58/SampaChannelHandler_8h.html" target="_top" xlink:title="MCHRawDecoder/SampaChannel\lHandler.h">
<polygon fill="none" stroke="#000000" points="1013.5,-112.5 1013.5,-142.5 1190.5,-142.5 1190.5,-112.5 1013.5,-112.5"/>
<text text-anchor="start" x="1021.5" y="-130.5" font-family="Helvetica,sans-Serif" font-size="10.00" fill="#000000">MCHRawDecoder/SampaChannel</text>
<text text-anchor="middle" x="1102" y="-119.5" font-family="Helvetica,sans-Serif" font-size="10.00" fill="#000000">Handler.h</text>
</a>
</g>
</g>
<!-- Node0&#45;&gt;Node9 -->
<g id="edge28" class="edge">
<title>Node0&#45;&gt;Node9</title>
<path fill="none" stroke="#191970" d="M660.7616,-302.4288C764.4256,-261.3313 963.3809,-182.4555 1054.4145,-146.3653"/>
<polygon fill="#191970" stroke="#191970" points="1055.9197,-149.5336 1063.9258,-142.5945 1053.3398,-143.0264 1055.9197,-149.5336"/>
</g>
<!-- Node18 -->
<g id="node19" class="node">
<title>Node18</title>
<polygon fill="none" stroke="#bfbfbf" points="924.5,-118 924.5,-137 995.5,-137 995.5,-118 924.5,-118"/>
<text text-anchor="middle" x="960" y="-125" font-family="Helvetica,sans-Serif" font-size="10.00" fill="#000000">fmt/printf.h</text>
</g>
<!-- Node0&#45;&gt;Node18 -->
<g id="edge30" class="edge">
<title>Node0&#45;&gt;Node18</title>
<path fill="none" stroke="#191970" d="M642.3432,-302.4288C720.1588,-259.5769 872.5585,-175.6527 933.6988,-141.9837"/>
<polygon fill="#191970" stroke="#191970" points="935.6312,-144.9152 942.7025,-137.0255 932.2545,-138.7835 935.6312,-144.9152"/>
</g>
<!-- Node21 -->
<g id="node22" class="node">
<title>Node21</title>
<polygon fill="none" stroke="#bfbfbf" points="1208.5,-118 1208.5,-137 1265.5,-137 1265.5,-118 1208.5,-118"/>
<text text-anchor="middle" x="1237" y="-125" font-family="Helvetica,sans-Serif" font-size="10.00" fill="#000000">gsl/span</text>
</g>
<!-- Node0&#45;&gt;Node21 -->
<g id="edge29" class="edge">
<title>Node0&#45;&gt;Node21</title>
<path fill="none" stroke="#191970" d="M681.2399,-302.9337C718.9538,-291.6956 763.6977,-278.2848 804,-266 980.2867,-212.2651 1026.8115,-206.0095 1200,-143 1201.8653,-142.3214 1203.7738,-141.6017 1205.6928,-140.8587"/>
<polygon fill="#191970" stroke="#191970" points="1207.2501,-144.005 1215.224,-137.0288 1204.6401,-137.5097 1207.2501,-144.005"/>
</g>
<!-- Node22 -->
<g id="node23" class="node">
<title>Node22</title>
<g id="a_node23"><a xlink:href="../../d7/dee/MakeArray_8h.html" target="_top" xlink:title="MakeArray.h">
<polygon fill="none" stroke="#000000" points="52.5,-241 52.5,-260 129.5,-260 129.5,-241 52.5,-241"/>
<text text-anchor="middle" x="91" y="-248" font-family="Helvetica,sans-Serif" font-size="10.00" fill="#000000">MakeArray.h</text>
</a>
</g>
</g>
<!-- Node0&#45;&gt;Node22 -->
<g id="edge32" class="edge">
<title>Node0&#45;&gt;Node22</title>
<path fill="none" stroke="#191970" d="M508.7247,-320.35C417.4667,-310.8446 269.5994,-292.9165 144,-266 139.6103,-265.0593 135.0532,-263.9441 130.5368,-262.7497"/>
<polygon fill="#191970" stroke="#191970" points="131.3671,-259.3479 120.7952,-260.0455 129.4947,-266.0929 131.3671,-259.3479"/>
</g>
<!-- Node24 -->
<g id="node25" class="node">
<title>Node24</title>
<polygon fill="none" stroke="#bfbfbf" points="1267,-235.5 1267,-265.5 1383,-265.5 1383,-235.5 1267,-235.5"/>
<text text-anchor="start" x="1275" y="-253.5" font-family="Helvetica,sans-Serif" font-size="10.00" fill="#000000">boost/multiprecision</text>
<text text-anchor="middle" x="1325" y="-242.5" font-family="Helvetica,sans-Serif" font-size="10.00" fill="#000000">/cpp_int.hpp</text>
</g>
<!-- Node0&#45;&gt;Node24 -->
<g id="edge37" class="edge">
<title>Node0&#45;&gt;Node24</title>
<path fill="none" stroke="#191970" d="M681.0254,-324.0633C805.9294,-316.8056 1044.819,-299.8558 1256.9103,-266.042"/>
<polygon fill="#191970" stroke="#191970" points="1257.6727,-269.4644 1266.9891,-264.419 1256.5598,-262.5534 1257.6727,-269.4644"/>
</g>
<!-- Node25 -->
<g id="node26" class="node">
<title>Node25</title>
<g id="a_node26"><a xlink:href="../../d0/da1/PayloadDecoder_8h.html" target="_top" xlink:title="PayloadDecoder.h">
<polygon fill="none" stroke="#000000" points="1145,-241 1145,-260 1249,-260 1249,-241 1145,-241"/>
<text text-anchor="middle" x="1197" y="-248" font-family="Helvetica,sans-Serif" font-size="10.00" fill="#000000">PayloadDecoder.h</text>
</a>
</g>
</g>
<!-- Node0&#45;&gt;Node25 -->
<g id="edge38" class="edge">
<title>Node0&#45;&gt;Node25</title>
<path fill="none" stroke="#191970" d="M681.1794,-318.363C780.7144,-306.5025 949.3439,-285.9403 1094,-266 1107.2045,-264.1798 1121.3442,-262.1228 1134.7859,-260.1162"/>
<polygon fill="#191970" stroke="#191970" points="1135.5328,-263.5433 1144.9017,-258.5963 1134.4927,-256.621 1135.5328,-263.5433"/>
</g>
<!-- Node2&#45;&gt;Node3 -->
<g id="edge3" class="edge">
<title>Node2&#45;&gt;Node3</title>
<path fill="none" stroke="#191970" d="M538.7423,-183.2529C475.0339,-176.1868 368.3385,-162.6625 278,-143 273.6134,-142.0452 269.0582,-140.9211 264.5428,-139.7216"/>
<polygon fill="#191970" stroke="#191970" points="265.3748,-136.3202 254.8026,-137.0115 263.4984,-143.064 265.3748,-136.3202"/>
</g>
<!-- Node2&#45;&gt;Node4 -->
<g id="edge21" class="edge">
<title>Node2&#45;&gt;Node4</title>
<path fill="none" stroke="#191970" d="M538.8192,-181.4945C482.8465,-173.2803 401.4067,-159.1146 374,-143 325.2995,-114.3652 286.9088,-57.6186 269.3751,-28.3743"/>
<polygon fill="#191970" stroke="#191970" points="272.3104,-26.4601 264.2437,-19.5913 266.2663,-29.9913 272.3104,-26.4601"/>
</g>
<!-- Node5 -->
<g id="node6" class="node">
<title>Node5</title>
<g id="a_node6"><a xlink:href="../../d0/d64/DataFormats_8h.html" target="_top" xlink:title="MCHRawCommon/DataFormats.h">
<polygon fill="none" stroke="#000000" points="688.5,-118 688.5,-137 867.5,-137 867.5,-118 688.5,-118"/>
<text text-anchor="middle" x="778" y="-125" font-family="Helvetica,sans-Serif" font-size="10.00" fill="#000000">MCHRawCommon/DataFormats.h</text>
</a>
</g>
</g>
<!-- Node2&#45;&gt;Node5 -->
<g id="edge5" class="edge">
<title>Node2&#45;&gt;Node5</title>
<path fill="none" stroke="#191970" d="M623.5938,-179.3906C654.8845,-168.8749 705.1986,-151.966 739.84,-140.3243"/>
<polygon fill="#191970" stroke="#191970" points="741.243,-143.5452 749.607,-137.0419 739.013,-136.9099 741.243,-143.5452"/>
</g>
<!-- Node6 -->
<g id="node7" class="node">
<title>Node6</title>
<g id="a_node7"><a xlink:href="../../d5/d49/SampaHeader_8h.html" target="_top" xlink:title="MCHRawCommon/SampaHeader.h">
<polygon fill="none" stroke="#000000" points="852.5,-56.5 852.5,-75.5 1037.5,-75.5 1037.5,-56.5 852.5,-56.5"/>
<text text-anchor="middle" x="945" y="-63.5" font-family="Helvetica,sans-Serif" font-size="10.00" fill="#000000">MCHRawCommon/SampaHeader.h</text>
</a>
</g>
</g>
<!-- Node2&#45;&gt;Node6 -->
<g id="edge6" class="edge">
<title>Node2&#45;&gt;Node6</title>
<path fill="none" stroke="#191970" d="M604.0862,-179.4163C622.0113,-160.7294 661.6872,-120.5042 679,-112 708.4975,-97.5105 785.5094,-85.0909 849.1221,-76.822"/>
<polygon fill="#191970" stroke="#191970" points="849.7326,-80.2725 859.2072,-75.5309 848.8437,-73.3292 849.7326,-80.2725"/>
</g>
<!-- Node2&#45;&gt;Node8 -->
<g id="edge24" class="edge">
<title>Node2&#45;&gt;Node8</title>
<path fill="none" stroke="#191970" d="M596.9436,-179.4256C601.8251,-156.7677 616.0295,-98.5702 641,-56 647.2347,-45.371 656.1595,-34.9941 664.0913,-26.7943"/>
<polygon fill="#191970" stroke="#191970" points="666.6429,-29.1929 671.2715,-19.6626 661.71,-24.2264 666.6429,-29.1929"/>
</g>
<!-- Node2&#45;&gt;Node9 -->
<g id="edge9" class="edge">
<title>Node2&#45;&gt;Node9</title>
<path fill="none" stroke="#191970" d="M651.1409,-183.5402C728.2068,-175.8594 871.34,-160.93 1003.1971,-143.2105"/>
<polygon fill="#191970" stroke="#191970" points="1004.0375,-146.6288 1013.4782,-141.82 1003.0993,-139.692 1004.0375,-146.6288"/>
</g>
<!-- Node10 -->
<g id="node11" class="node">
<title>Node10</title>
<polygon fill="none" stroke="#bfbfbf" points="1069.5,-56.5 1069.5,-75.5 1134.5,-75.5 1134.5,-56.5 1069.5,-56.5"/>
<text text-anchor="middle" x="1102" y="-63.5" font-family="Helvetica,sans-Serif" font-size="10.00" fill="#000000">functional</text>
</g>
<!-- Node2&#45;&gt;Node10 -->
<g id="edge23" class="edge">
<title>Node2&#45;&gt;Node10</title>
<path fill="none" stroke="#191970" d="M651.188,-183.1168C721.2575,-175.2098 836.6269,-160.1496 876,-143 896.6206,-134.0184 895.756,-121.8009 916,-112 941.0345,-99.8798 1012.7323,-83.9652 1059.446,-74.3854"/>
<polygon fill="#191970" stroke="#191970" points="1060.1947,-77.8049 1069.297,-72.383 1058.8002,-70.9452 1060.1947,-77.8049"/>
</g>
<!-- Node12 -->
<g id="node13" class="node">
<title>Node12</title>
<polygon fill="none" stroke="#bfbfbf" points="435.5,-.5 435.5,-19.5 482.5,-19.5 482.5,-.5 435.5,-.5"/>
<text text-anchor="middle" x="459" y="-7.5" font-family="Helvetica,sans-Serif" font-size="10.00" fill="#000000">vector</text>
</g>
<!-- Node2&#45;&gt;Node12 -->
<g id="edge26" class="edge">
<title>Node2&#45;&gt;Node12</title>
<path fill="none" stroke="#191970" d="M538.7949,-184.3694C483.8268,-178.5366 405.7277,-166.3219 387,-143 356.6452,-105.1987 407.5321,-52.7387 438.2599,-26.4296"/>
<polygon fill="#191970" stroke="#191970" points="440.8573,-28.8218 446.3079,-19.7365 436.3813,-23.4398 440.8573,-28.8218"/>
</g>
<!-- Node17 -->
<g id="node18" class="node">
<title>Node17</title>
<polygon fill="none" stroke="#bfbfbf" points="396,-118 396,-137 440,-137 440,-118 396,-118"/>
<text text-anchor="middle" x="418" y="-125" font-family="Helvetica,sans-Serif" font-size="10.00" fill="#000000">bitset</text>
</g>
<!-- Node2&#45;&gt;Node17 -->
<g id="edge20" class="edge">
<title>Node2&#45;&gt;Node17</title>
<path fill="none" stroke="#191970" d="M559.3423,-179.4768C529.4357,-171.0853 485.8305,-157.9003 449,-143 447.6404,-142.4499 446.2586,-141.8641 444.8712,-141.2543"/>
<polygon fill="#191970" stroke="#191970" points="446.3499,-138.082 435.8097,-137.0071 443.379,-144.4203 446.3499,-138.082"/>
</g>
<!-- Node2&#45;&gt;Node18 -->
<g id="edge22" class="edge">
<title>Node2&#45;&gt;Node18</title>
<path fill="none" stroke="#191970" d="M651.247,-183.4581C714.6385,-176.5957 820.5237,-163.2725 910,-143 913.9262,-142.1104 917.9908,-141.0646 922.0282,-139.9433"/>
<polygon fill="#191970" stroke="#191970" points="923.3019,-143.2173 931.9141,-137.0464 921.3334,-136.4998 923.3019,-143.2173"/>
</g>
<!-- Node19 -->
<g id="node20" class="node">
<title>Node19</title>
<polygon fill="none" stroke="#bfbfbf" points="458.5,-118 458.5,-137 523.5,-137 523.5,-118 458.5,-118"/>
<text text-anchor="middle" x="491" y="-125" font-family="Helvetica,sans-Serif" font-size="10.00" fill="#000000">stdexcept</text>
</g>
<!-- Node2&#45;&gt;Node19 -->
<g id="edge25" class="edge">
<title>Node2&#45;&gt;Node19</title>
<path fill="none" stroke="#191970" d="M578.75,-179.3906C561.8831,-169.4165 535.2901,-153.6908 515.7965,-142.1633"/>
<polygon fill="#191970" stroke="#191970" points="517.5251,-139.1194 507.1359,-137.0419 513.962,-145.1447 517.5251,-139.1194"/>
</g>
<!-- Node20 -->
<g id="node21" class="node">
<title>Node20</title>
<polygon fill="none" stroke="#bfbfbf" points="542,-118 542,-137 594,-137 594,-118 542,-118"/>
<text text-anchor="middle" x="568" y="-125" font-family="Helvetica,sans-Serif" font-size="10.00" fill="#000000">cassert</text>
</g>
<!-- Node2&#45;&gt;Node20 -->
<g id="edge27" class="edge">
<title>Node2&#45;&gt;Node20</title>
<path fill="none" stroke="#191970" d="M590.7813,-179.3906C586.9204,-170.5965 581.0966,-157.3312 576.3039,-146.4145"/>
<polygon fill="#191970" stroke="#191970" points="579.5029,-144.9943 572.2782,-137.2449 573.0934,-147.8083 579.5029,-144.9943"/>
</g>
<!-- Node3&#45;&gt;Node4 -->
<g id="edge4" class="edge">
<title>Node3&#45;&gt;Node4</title>
<path fill="none" stroke="#191970" d="M227.7824,-117.8845C233.361,-98.6053 246.0087,-54.8963 253.3794,-29.4241"/>
<polygon fill="#191970" stroke="#191970" points="256.7616,-30.3272 256.1792,-19.7484 250.0375,-28.3814 256.7616,-30.3272"/>
</g>
<!-- Node7 -->
<g id="node8" class="node">
<title>Node7</title>
<polygon fill="none" stroke="#bfbfbf" points="920.5,-.5 920.5,-19.5 969.5,-19.5 969.5,-.5 920.5,-.5"/>
<text text-anchor="middle" x="945" y="-7.5" font-family="Helvetica,sans-Serif" font-size="10.00" fill="#000000">cstdlib</text>
</g>
<!-- Node6&#45;&gt;Node7 -->
<g id="edge7" class="edge">
<title>Node6&#45;&gt;Node7</title>
<path fill="none" stroke="#191970" d="M945,-56.2455C945,-48.9382 945,-38.6944 945,-29.7046"/>
<polygon fill="#191970" stroke="#191970" points="948.5001,-29.6426 945,-19.6427 941.5001,-29.6427 948.5001,-29.6426"/>
</g>
<!-- Node6&#45;&gt;Node8 -->
<g id="edge8" class="edge">
<title>Node6&#45;&gt;Node8</title>
<path fill="none" stroke="#191970" d="M900.0875,-56.4369C850.1987,-45.8142 770.3783,-28.8182 722.3912,-18.6004"/>
<polygon fill="#191970" stroke="#191970" points="722.8762,-15.1253 712.3666,-16.4659 721.4184,-21.9718 722.8762,-15.1253"/>
</g>
<!-- Node9&#45;&gt;Node10 -->
<g id="edge10" class="edge">
<title>Node9&#45;&gt;Node10</title>
<path fill="none" stroke="#191970" d="M1102,-112.2977C1102,-104.3834 1102,-94.6043 1102,-86.0759"/>
<polygon fill="#191970" stroke="#191970" points="1105.5001,-85.8469 1102,-75.8469 1098.5001,-85.847 1105.5001,-85.8469"/>
</g>
<!-- Node11 -->
<g id="node12" class="node">
<title>Node11</title>
<g id="a_node12"><a xlink:href="../../d0/d5b/SampaCluster_8h.html" target="_top" xlink:title="MCHRawCommon/SampaCluster.h">
<polygon fill="none" stroke="#000000" points="650,-56.5 650,-75.5 834,-75.5 834,-56.5 650,-56.5"/>
<text text-anchor="middle" x="742" y="-63.5" font-family="Helvetica,sans-Serif" font-size="10.00" fill="#000000">MCHRawCommon/SampaCluster.h</text>
</a>
</g>
</g>
<!-- Node9&#45;&gt;Node11 -->
<g id="edge11" class="edge">
<title>Node9&#45;&gt;Node11</title>
<path fill="none" stroke="#191970" d="M1013.9341,-112.4554C950.3106,-101.5864 865.7398,-87.1389 807.9052,-77.2588"/>
<polygon fill="#191970" stroke="#191970" points="808.2338,-73.7643 797.7872,-75.5303 807.055,-80.6644 808.2338,-73.7643"/>
</g>
<!-- Node13 -->
<g id="node14" class="node">
<title>Node13</title>
<g id="a_node14"><a xlink:href="../../d4/d09/DsElecId_8h.html" target="_top" xlink:title="MCHRawElecMap/DsElecId.h">
<polygon fill="none" stroke="#000000" points="1416.5,-56.5 1416.5,-75.5 1571.5,-75.5 1571.5,-56.5 1416.5,-56.5"/>
<text text-anchor="middle" x="1494" y="-63.5" font-family="Helvetica,sans-Serif" font-size="10.00" fill="#000000">MCHRawElecMap/DsElecId.h</text>
</a>
</g>
</g>
<!-- Node9&#45;&gt;Node13 -->
<g id="edge16" class="edge">
<title>Node9&#45;&gt;Node13</title>
<path fill="none" stroke="#191970" d="M1190.6727,-113.4685C1193.8204,-112.9725 1196.9371,-112.4818 1200,-112 1276.105,-100.0277 1363.306,-86.3947 1422.8519,-77.0982"/>
<polygon fill="#191970" stroke="#191970" points="1423.5607,-80.53 1432.9011,-75.5294 1422.4809,-73.6138 1423.5607,-80.53"/>
</g>
<!-- Node11&#45;&gt;Node4 -->
<g id="edge15" class="edge">
<title>Node11&#45;&gt;Node4</title>
<path fill="none" stroke="#191970" d="M659.7921,-56.4686C559.0765,-44.7915 391.6407,-25.3786 308.7011,-15.7625"/>
<polygon fill="#191970" stroke="#191970" points="308.8713,-12.2588 298.5347,-14.5837 308.0651,-19.2122 308.8713,-12.2588"/>
</g>
<!-- Node11&#45;&gt;Node7 -->
<g id="edge12" class="edge">
<title>Node11&#45;&gt;Node7</title>
<path fill="none" stroke="#191970" d="M776.8969,-56.3733C814.3033,-46.0543 873.3175,-29.7745 910.5505,-19.5033"/>
<polygon fill="#191970" stroke="#191970" points="911.7293,-22.8089 920.4385,-16.7756 909.8678,-16.061 911.7293,-22.8089"/>
</g>
<!-- Node11&#45;&gt;Node8 -->
<g id="edge14" class="edge">
<title>Node11&#45;&gt;Node8</title>
<path fill="none" stroke="#191970" d="M731.5488,-56.2455C722.7731,-48.0549 710.0446,-36.1749 699.686,-26.5069"/>
<polygon fill="#191970" stroke="#191970" points="702.0301,-23.9072 692.3314,-19.6427 697.2539,-29.0246 702.0301,-23.9072"/>
</g>
<!-- Node11&#45;&gt;Node12 -->
<g id="edge13" class="edge">
<title>Node11&#45;&gt;Node12</title>
<path fill="none" stroke="#191970" d="M693.6721,-56.4369C636.4871,-45.1211 542.7547,-26.5734 492.8121,-16.6907"/>
<polygon fill="#191970" stroke="#191970" points="493.3376,-13.2269 482.8484,-14.7191 491.9788,-20.0938 493.3376,-13.2269"/>
</g>
<!-- Node14 -->
<g id="node15" class="node">
<title>Node14</title>
<polygon fill="none" stroke="#bfbfbf" points="1613,-.5 1613,-19.5 1663,-19.5 1663,-.5 1613,-.5"/>
<text text-anchor="middle" x="1638" y="-7.5" font-family="Helvetica,sans-Serif" font-size="10.00" fill="#000000">cstdint</text>
</g>
<!-- Node13&#45;&gt;Node14 -->
<g id="edge17" class="edge">
<title>Node13&#45;&gt;Node14</title>
<path fill="none" stroke="#191970" d="M1518.7545,-56.3733C1542.2849,-47.2226 1577.8687,-33.3844 1604.0426,-23.2057"/>
<polygon fill="#191970" stroke="#191970" points="1605.5171,-26.3877 1613.5685,-19.5011 1602.9799,-19.8636 1605.5171,-26.3877"/>
</g>
<!-- Node15 -->
<g id="node16" class="node">
<title>Node15</title>
<polygon fill="none" stroke="#bfbfbf" points="1494.5,-.5 1494.5,-19.5 1543.5,-19.5 1543.5,-.5 1494.5,-.5"/>
<text text-anchor="middle" x="1519" y="-7.5" font-family="Helvetica,sans-Serif" font-size="10.00" fill="#000000">iosfwd</text>
</g>
<!-- Node13&#45;&gt;Node15 -->
<g id="edge18" class="edge">
<title>Node13&#45;&gt;Node15</title>
<path fill="none" stroke="#191970" d="M1498.3547,-56.2455C1501.7244,-48.6973 1506.493,-38.0158 1510.5983,-28.8197"/>
<polygon fill="#191970" stroke="#191970" points="1513.8147,-30.2009 1514.6952,-19.6427 1507.4227,-27.3473 1513.8147,-30.2009"/>
</g>
<!-- Node16 -->
<g id="node17" class="node">
<title>Node16</title>
<polygon fill="none" stroke="#bfbfbf" points="1420,-.5 1420,-19.5 1476,-19.5 1476,-.5 1420,-.5"/>
<text text-anchor="middle" x="1448" y="-7.5" font-family="Helvetica,sans-Serif" font-size="10.00" fill="#000000">optional</text>
</g>
<!-- Node13&#45;&gt;Node16 -->
<g id="edge19" class="edge">
<title>Node13&#45;&gt;Node16</title>
<path fill="none" stroke="#191970" d="M1485.9874,-56.2455C1479.5232,-48.3761 1470.2615,-37.101 1462.5017,-27.6542"/>
<polygon fill="#191970" stroke="#191970" points="1464.9727,-25.1484 1455.9208,-19.6427 1459.5636,-29.5916 1464.9727,-25.1484"/>
</g>
<!-- Node22&#45;&gt;Node1 -->
<g id="edge33" class="edge">
<title>Node22&#45;&gt;Node1</title>
<path fill="none" stroke="#191970" d="M80.0625,-240.8906C69.338,-231.4683 52.7713,-216.9134 39.9099,-205.6137"/>
<polygon fill="#191970" stroke="#191970" points="41.9143,-202.7158 32.0917,-198.7449 37.2941,-207.9745 41.9143,-202.7158"/>
</g>
<!-- Node23 -->
<g id="node24" class="node">
<title>Node23</title>
<polygon fill="none" stroke="#bfbfbf" points="60.5,-179.5 60.5,-198.5 129.5,-198.5 129.5,-179.5 60.5,-179.5"/>
<text text-anchor="middle" x="95" y="-186.5" font-family="Helvetica,sans-Serif" font-size="10.00" fill="#000000">type_traits</text>
</g>
<!-- Node22&#45;&gt;Node23 -->
<g id="edge34" class="edge">
<title>Node22&#45;&gt;Node23</title>
<path fill="none" stroke="#191970" d="M91.625,-240.8906C92.1795,-232.3657 93.0072,-219.6392 93.7042,-208.9235"/>
<polygon fill="#191970" stroke="#191970" points="97.2097,-208.951 94.3662,-198.7449 90.2244,-208.4966 97.2097,-208.951"/>
</g>
<!-- Node25&#45;&gt;Node7 -->
<g id="edge48" class="edge">
<title>Node25&#45;&gt;Node7</title>
<path fill="none" stroke="#191970" d="M1230.0522,-240.9687C1272.0833,-228.5954 1340.2855,-207.5732 1349,-199 1377.283,-171.1756 1393.433,-143.2595 1369,-112 1320.6261,-50.1106 1072.1019,-21.5367 979.6763,-12.9316"/>
<polygon fill="#191970" stroke="#191970" points="979.982,-9.445 969.7061,-12.0249 979.348,-16.4162 979.982,-9.445"/>
</g>
<!-- Node25&#45;&gt;Node9 -->
<g id="edge41" class="edge">
<title>Node25&#45;&gt;Node9</title>
<path fill="none" stroke="#191970" d="M1179.1226,-240.8345C1163.9219,-231.8055 1142.476,-217.0304 1129,-199 1118.7087,-185.2306 1111.9188,-167.086 1107.722,-152.521"/>
<polygon fill="#191970" stroke="#191970" points="1111.0545,-151.4328 1105.1114,-142.6618 1104.2877,-153.2246 1111.0545,-151.4328"/>
</g>
<!-- Node25&#45;&gt;Node21 -->
<g id="edge49" class="edge">
<title>Node25&#45;&gt;Node21</title>
<path fill="none" stroke="#191970" d="M1178.3464,-240.8272C1155.6947,-227.7333 1122.2353,-203.2115 1137,-179 1141.0245,-172.4005 1178.3231,-154.2644 1206.1974,-141.3866"/>
<polygon fill="#191970" stroke="#191970" points="1207.9624,-144.4278 1215.5938,-137.0784 1205.0449,-138.0647 1207.9624,-144.4278"/>
</g>
<!-- Node26 -->
<g id="node27" class="node">
<title>Node26</title>
<g id="a_node27"><a xlink:href="../../d4/d78/DataFormats_2Headers_2include_2Headers_2RAWDataHeader_8h.html" target="_top" xlink:title="Headers/RAWDataHeader.h">
<polygon fill="none" stroke="#000000" points="1589.5,-56.5 1589.5,-75.5 1738.5,-75.5 1738.5,-56.5 1589.5,-56.5"/>
<text text-anchor="middle" x="1664" y="-63.5" font-family="Helvetica,sans-Serif" font-size="10.00" fill="#000000">Headers/RAWDataHeader.h</text>
</a>
</g>
</g>
<!-- Node25&#45;&gt;Node26 -->
<g id="edge39" class="edge">
<title>Node25&#45;&gt;Node26</title>
<path fill="none" stroke="#191970" d="M1234.4156,-240.9685C1242.2085,-238.9901 1250.3713,-236.9228 1258,-235 1321.9691,-218.8767 1340.198,-222.0762 1402,-199 1493.2379,-164.9328 1594.1104,-107.7058 1639.5014,-80.811"/>
<polygon fill="#191970" stroke="#191970" points="1641.5253,-83.6793 1648.3218,-75.5516 1637.9402,-77.667 1641.5253,-83.6793"/>
</g>
<!-- Node27 -->
<g id="node28" class="node">
<title>Node27</title>
<g id="a_node28"><a xlink:href="../../dc/d36/PageDecoder_8h.html" target="_top" xlink:title="MCHRawDecoder/PageDecoder.h">
<polygon fill="none" stroke="#000000" points="1146,-179.5 1146,-198.5 1322,-198.5 1322,-179.5 1146,-179.5"/>
<text text-anchor="middle" x="1234" y="-186.5" font-family="Helvetica,sans-Serif" font-size="10.00" fill="#000000">MCHRawDecoder/PageDecoder.h</text>
</a>
</g>
</g>
<!-- Node25&#45;&gt;Node27 -->
<g id="edge42" class="edge">
<title>Node25&#45;&gt;Node27</title>
<path fill="none" stroke="#191970" d="M1202.7813,-240.8906C1208.126,-232.0068 1216.2159,-218.5601 1222.8211,-207.5811"/>
<polygon fill="#191970" stroke="#191970" points="1225.9811,-209.118 1228.1372,-198.7449 1219.9829,-205.5093 1225.9811,-209.118"/>
</g>
<!-- Node28 -->
<g id="node29" class="node">
<title>Node28</title>
<polygon fill="none" stroke="#bfbfbf" points="1322,-118 1322,-137 1360,-137 1360,-118 1322,-118"/>
<text text-anchor="middle" x="1341" y="-125" font-family="Helvetica,sans-Serif" font-size="10.00" fill="#000000">map</text>
</g>
<!-- Node25&#45;&gt;Node28 -->
<g id="edge47" class="edge">
<title>Node25&#45;&gt;Node28</title>
<path fill="none" stroke="#191970" d="M1233.5076,-240.9769C1268.7366,-231.0278 1318.519,-214.7081 1331,-199 1342.5449,-184.47 1344.0805,-162.8299 1343.323,-147.1646"/>
<polygon fill="#191970" stroke="#191970" points="1346.7945,-146.676 1342.4765,-137.001 1339.8187,-147.257 1346.7945,-146.676"/>
</g>
<!-- Node26&#45;&gt;Node14 -->
<g id="edge40" class="edge">
<title>Node26&#45;&gt;Node14</title>
<path fill="none" stroke="#191970" d="M1659.4711,-56.2455C1655.9666,-48.6973 1651.0073,-38.0158 1646.7377,-28.8197"/>
<polygon fill="#191970" stroke="#191970" points="1649.8627,-27.2389 1642.477,-19.6427 1643.5136,-30.1867 1649.8627,-27.2389"/>
</g>
<!-- Node27&#45;&gt;Node9 -->
<g id="edge46" class="edge">
<title>Node27&#45;&gt;Node9</title>
<path fill="none" stroke="#191970" d="M1213.375,-179.3906C1194.766,-170.7205 1166.8293,-157.7046 1143.5915,-146.8779"/>
<polygon fill="#191970" stroke="#191970" points="1144.8334,-143.5953 1134.2908,-142.5446 1141.8772,-149.9404 1144.8334,-143.5953"/>
</g>
<!-- Node27&#45;&gt;Node10 -->
<g id="edge43" class="edge">
<title>Node27&#45;&gt;Node10</title>
<path fill="none" stroke="#191970" d="M1245.9359,-179.3962C1263.3736,-164.2051 1291.9854,-134.092 1275,-112 1259.1941,-91.4422 1190.4812,-78.1394 1144.5548,-71.3687"/>
<polygon fill="#191970" stroke="#191970" points="1144.9521,-67.8901 1134.5583,-69.9443 1143.9645,-74.8201 1144.9521,-67.8901"/>
</g>
<!-- Node27&#45;&gt;Node21 -->
<g id="edge44" class="edge">
<title>Node27&#45;&gt;Node21</title>
<path fill="none" stroke="#191970" d="M1234.4688,-179.3906C1234.8846,-170.8657 1235.5054,-158.1392 1236.0281,-147.4235"/>
<polygon fill="#191970" stroke="#191970" points="1239.5332,-147.4035 1236.5246,-137.2449 1232.5415,-147.0624 1239.5332,-147.4035"/>
</g>
<!-- Node27&#45;&gt;Node28 -->
<g id="edge45" class="edge">
<title>Node27&#45;&gt;Node28</title>
<path fill="none" stroke="#191970" d="M1250.7188,-179.3906C1268.0722,-169.4165 1295.4323,-153.6908 1315.4882,-142.1633"/>
<polygon fill="#191970" stroke="#191970" points="1317.4728,-145.0596 1324.3987,-137.0419 1313.9846,-138.9907 1317.4728,-145.0596"/>
</g>
</g>
</svg>
