<?xml version="1.0" encoding="UTF-8" standalone="no"?>
<!DOCTYPE svg PUBLIC "-//W3C//DTD SVG 1.1//EN"
 "http://www.w3.org/Graphics/SVG/1.1/DTD/svg11.dtd">
<!-- Generated by graphviz version 2.40.1 (20161225.0304)
 -->
<!-- Title: /home/travis/build/AliceO2Group/AliceO2/Detectors/ITSMFT/common/reconstruction/include/ITSMFTReconstruction/ChipMappingITS.h Pages: 1 -->
<svg width="2325pt" height="472pt"
 viewBox="0.00 0.00 2325.00 472.00" xmlns="http://www.w3.org/2000/svg" xmlns:xlink="http://www.w3.org/1999/xlink">
<g id="graph0" class="graph" transform="scale(1 1) rotate(0) translate(4 468)">
<title>/home/travis/build/AliceO2Group/AliceO2/Detectors/ITSMFT/common/reconstruction/include/ITSMFTReconstruction/ChipMappingITS.h</title>
<!-- Node26 -->
<g id="node1" class="node">
<title>Node26</title>
<polygon fill="#bfbfbf" stroke="#000000" points="916.5,-400.5 916.5,-463.5 1132.5,-463.5 1132.5,-400.5 916.5,-400.5"/>
<text text-anchor="start" x="924.5" y="-451.5" font-family="Helvetica,sans-Serif" font-size="10.00" fill="#000000">/home/travis/build</text>
<text text-anchor="start" x="924.5" y="-440.5" font-family="Helvetica,sans-Serif" font-size="10.00" fill="#000000">/AliceO2Group/AliceO2</text>
<text text-anchor="start" x="924.5" y="-429.5" font-family="Helvetica,sans-Serif" font-size="10.00" fill="#000000">/Detectors/ITSMFT/common</text>
<text text-anchor="start" x="924.5" y="-418.5" font-family="Helvetica,sans-Serif" font-size="10.00" fill="#000000">/reconstruction/include</text>
<text text-anchor="middle" x="1024.5" y="-407.5" font-family="Helvetica,sans-Serif" font-size="10.00" fill="#000000">/ITSMFTReconstruction/ChipMappingITS.h</text>
</g>
<!-- Node27 -->
<g id="node2" class="node">
<title>Node27</title>
<g id="a_node2"><a xlink:href="../../d7/d6e/RawPixelDecoder_8h.html" target="_top" xlink:title="Definition of the Alpide pixel reader for raw data processing. ">
<polygon fill="none" stroke="#000000" points="143,-300.5 143,-363.5 366,-363.5 366,-300.5 143,-300.5"/>
<text text-anchor="start" x="151" y="-351.5" font-family="Helvetica,sans-Serif" font-size="10.00" fill="#000000">/home/travis/build</text>
<text text-anchor="start" x="151" y="-340.5" font-family="Helvetica,sans-Serif" font-size="10.00" fill="#000000">/AliceO2Group/AliceO2</text>
<text text-anchor="start" x="151" y="-329.5" font-family="Helvetica,sans-Serif" font-size="10.00" fill="#000000">/Detectors/ITSMFT/common</text>
<text text-anchor="start" x="151" y="-318.5" font-family="Helvetica,sans-Serif" font-size="10.00" fill="#000000">/reconstruction/include</text>
<text text-anchor="middle" x="254.5" y="-307.5" font-family="Helvetica,sans-Serif" font-size="10.00" fill="#000000">/ITSMFTReconstruction/RawPixelDecoder.h</text>
</a>
</g>
</g>
<!-- Node26&#45;&gt;Node27 -->
<g id="edge1" class="edge">
<title>Node26&#45;&gt;Node27</title>
<path fill="none" stroke="#191970" d="M906.3336,-418.9405C792.1143,-406.0368 614.2572,-385.2051 460.5,-364 429.8453,-359.7723 396.6886,-354.7991 366.1205,-350.05"/>
<polygon fill="#191970" stroke="#191970" points="906.1698,-422.4441 916.4991,-420.087 906.9544,-415.4882 906.1698,-422.4441"/>
</g>
<!-- Node29 -->
<g id="node4" class="node">
<title>Node29</title>
<g id="a_node4"><a xlink:href="../../d0/d26/STFDecoderSpec_8h.html" target="_top" xlink:title="Device to decode ITS/MFT raw data from STF. ">
<polygon fill="none" stroke="#000000" points="340,-195 340,-258 525,-258 525,-195 340,-195"/>
<text text-anchor="start" x="348" y="-246" font-family="Helvetica,sans-Serif" font-size="10.00" fill="#000000">/home/travis/build</text>
<text text-anchor="start" x="348" y="-235" font-family="Helvetica,sans-Serif" font-size="10.00" fill="#000000">/AliceO2Group/AliceO2</text>
<text text-anchor="start" x="348" y="-224" font-family="Helvetica,sans-Serif" font-size="10.00" fill="#000000">/Detectors/ITSMFT/common</text>
<text text-anchor="start" x="348" y="-213" font-family="Helvetica,sans-Serif" font-size="10.00" fill="#000000">/workflow/include/ITSMFTWorkflow</text>
<text text-anchor="middle" x="432.5" y="-202" font-family="Helvetica,sans-Serif" font-size="10.00" fill="#000000">/STFDecoderSpec.h</text>
</a>
</g>
</g>
<!-- Node26&#45;&gt;Node29 -->
<g id="edge21" class="edge">
<title>Node26&#45;&gt;Node29</title>
<path fill="none" stroke="#191970" d="M906.1153,-425.6637C782.7524,-417.2777 599.1282,-399.2412 538.5,-364 496.1541,-339.3857 464.8573,-290.6175 447.6448,-258.2773"/>
<polygon fill="#191970" stroke="#191970" points="906.1616,-429.1744 916.3725,-426.3482 906.6278,-422.19 906.1616,-429.1744"/>
</g>
<!-- Node32 -->
<g id="node7" class="node">
<title>Node32</title>
<g id="a_node7"><a xlink:href="../../dd/db8/RawPixelReader_8h.html" target="_top" xlink:title="Definition of the Alpide pixel reader for raw data processing. ">
<polygon fill="none" stroke="#000000" points="848.5,-300.5 848.5,-363.5 1064.5,-363.5 1064.5,-300.5 848.5,-300.5"/>
<text text-anchor="start" x="856.5" y="-351.5" font-family="Helvetica,sans-Serif" font-size="10.00" fill="#000000">/home/travis/build</text>
<text text-anchor="start" x="856.5" y="-340.5" font-family="Helvetica,sans-Serif" font-size="10.00" fill="#000000">/AliceO2Group/AliceO2</text>
<text text-anchor="start" x="856.5" y="-329.5" font-family="Helvetica,sans-Serif" font-size="10.00" fill="#000000">/Detectors/ITSMFT/common</text>
<text text-anchor="start" x="856.5" y="-318.5" font-family="Helvetica,sans-Serif" font-size="10.00" fill="#000000">/reconstruction/include</text>
<text text-anchor="middle" x="956.5" y="-307.5" font-family="Helvetica,sans-Serif" font-size="10.00" fill="#000000">/ITSMFTReconstruction/RawPixelReader.h</text>
</a>
</g>
</g>
<!-- Node26&#45;&gt;Node32 -->
<g id="edge7" class="edge">
<title>Node26&#45;&gt;Node32</title>
<path fill="none" stroke="#191970" d="M997.2565,-391.9361C990.8893,-382.5725 984.1926,-372.7244 978.1091,-363.778"/>
<polygon fill="#191970" stroke="#191970" points="994.467,-394.0582 1002.9844,-400.3594 1000.2555,-390.122 994.467,-394.0582"/>
</g>
<!-- Node33 -->
<g id="node8" class="node">
<title>Node33</title>
<g id="a_node8"><a xlink:href="../../df/d56/MC2RawEncoder_8h.html" target="_top" xlink:title="Definition of the ITS/MFT Alpide pixel MC&#45;&gt;raw converter. ">
<polygon fill="none" stroke="#000000" points="580.5,-195 580.5,-258 780.5,-258 780.5,-195 580.5,-195"/>
<text text-anchor="start" x="588.5" y="-246" font-family="Helvetica,sans-Serif" font-size="10.00" fill="#000000">/home/travis/build</text>
<text text-anchor="start" x="588.5" y="-235" font-family="Helvetica,sans-Serif" font-size="10.00" fill="#000000">/AliceO2Group/AliceO2</text>
<text text-anchor="start" x="588.5" y="-224" font-family="Helvetica,sans-Serif" font-size="10.00" fill="#000000">/Detectors/ITSMFT/common</text>
<text text-anchor="start" x="588.5" y="-213" font-family="Helvetica,sans-Serif" font-size="10.00" fill="#000000">/simulation/include/ITSMFTSimulation</text>
<text text-anchor="middle" x="680.5" y="-202" font-family="Helvetica,sans-Serif" font-size="10.00" fill="#000000">/MC2RawEncoder.h</text>
</a>
</g>
</g>
<!-- Node26&#45;&gt;Node33 -->
<g id="edge20" class="edge">
<title>Node26&#45;&gt;Node33</title>
<path fill="none" stroke="#191970" d="M906.2937,-411.2822C868.4953,-401.0488 827.8451,-385.9906 794.5,-364 752.9521,-336.5997 718.6914,-289.5097 698.9116,-258.1892"/>
<polygon fill="#191970" stroke="#191970" points="905.7913,-414.7684 916.3514,-413.9115 907.5618,-407.996 905.7913,-414.7684"/>
</g>
<!-- Node35 -->
<g id="node10" class="node">
<title>Node35</title>
<g id="a_node10"><a xlink:href="../../d1/d8e/digi2raw_8cxx.html" target="_top" xlink:title="/home/travis/build\l/AliceO2Group/AliceO2\l/Detectors/ITSMFT/ITS\l/simulation/src/digi2raw.cxx">
<polygon fill="none" stroke="#000000" points="378,-95 378,-147 531,-147 531,-95 378,-95"/>
<text text-anchor="start" x="386" y="-135" font-family="Helvetica,sans-Serif" font-size="10.00" fill="#000000">/home/travis/build</text>
<text text-anchor="start" x="386" y="-124" font-family="Helvetica,sans-Serif" font-size="10.00" fill="#000000">/AliceO2Group/AliceO2</text>
<text text-anchor="start" x="386" y="-113" font-family="Helvetica,sans-Serif" font-size="10.00" fill="#000000">/Detectors/ITSMFT/ITS</text>
<text text-anchor="middle" x="454.5" y="-102" font-family="Helvetica,sans-Serif" font-size="10.00" fill="#000000">/simulation/src/digi2raw.cxx</text>
</a>
</g>
</g>
<!-- Node26&#45;&gt;Node35 -->
<g id="edge37" class="edge">
<title>Node26&#45;&gt;Node35</title>
<path fill="none" stroke="#191970" d="M906.4864,-415.0622C850.2321,-404.5222 782.8626,-388.237 725.5,-364 650.3263,-332.2374 626.039,-324.7079 571.5,-264 546.5271,-236.2025 556.5442,-218.4162 533.5,-189 521.3358,-173.4723 505.2083,-158.8397 490.6977,-147.155"/>
<polygon fill="#191970" stroke="#191970" points="906.0268,-418.5362 916.4944,-416.899 907.2905,-411.6512 906.0268,-418.5362"/>
</g>
<!-- Node36 -->
<g id="node11" class="node">
<title>Node36</title>
<g id="a_node11"><a xlink:href="../../dd/d69/TestDataReader_8h.html" target="_top" xlink:title="/home/travis/build\l/AliceO2Group/AliceO2\l/Detectors/ITSMFT/ITS\l/QC/TestDataReaderWorkflow\l/include/ITSQCDataReaderWorkflow\l/TestDataReader.h">
<polygon fill="none" stroke="#000000" points="1082,-189.5 1082,-263.5 1271,-263.5 1271,-189.5 1082,-189.5"/>
<text text-anchor="start" x="1090" y="-251.5" font-family="Helvetica,sans-Serif" font-size="10.00" fill="#000000">/home/travis/build</text>
<text text-anchor="start" x="1090" y="-240.5" font-family="Helvetica,sans-Serif" font-size="10.00" fill="#000000">/AliceO2Group/AliceO2</text>
<text text-anchor="start" x="1090" y="-229.5" font-family="Helvetica,sans-Serif" font-size="10.00" fill="#000000">/Detectors/ITSMFT/ITS</text>
<text text-anchor="start" x="1090" y="-218.5" font-family="Helvetica,sans-Serif" font-size="10.00" fill="#000000">/QC/TestDataReaderWorkflow</text>
<text text-anchor="start" x="1090" y="-207.5" font-family="Helvetica,sans-Serif" font-size="10.00" fill="#000000">/include/ITSQCDataReaderWorkflow</text>
<text text-anchor="middle" x="1176.5" y="-196.5" font-family="Helvetica,sans-Serif" font-size="10.00" fill="#000000">/TestDataReader.h</text>
</a>
</g>
</g>
<!-- Node26&#45;&gt;Node36 -->
<g id="edge22" class="edge">
<title>Node26&#45;&gt;Node36</title>
<path fill="none" stroke="#191970" d="M1053.5934,-392.0863C1060.1959,-382.9011 1067.136,-373.1443 1073.5,-364 1093.0752,-335.8729 1096.0871,-327.5252 1116.5,-300 1125.4291,-287.9599 1135.5916,-275.1922 1144.9824,-263.7356"/>
<polygon fill="#191970" stroke="#191970" points="1050.6611,-390.1687 1047.651,-400.3269 1056.3389,-394.263 1050.6611,-390.1687"/>
</g>
<!-- Node37 -->
<g id="node12" class="node">
<title>Node37</title>
<g id="a_node12"><a xlink:href="../../d0/dd9/TestDataReader_8cxx.html" target="_top" xlink:title="/home/travis/build\l/AliceO2Group/AliceO2\l/Detectors/ITSMFT/ITS\l/QC/TestDataReaderWorkflow\l/src/TestDataReader.cxx">
<polygon fill="none" stroke="#000000" points="759.5,-89.5 759.5,-152.5 917.5,-152.5 917.5,-89.5 759.5,-89.5"/>
<text text-anchor="start" x="767.5" y="-140.5" font-family="Helvetica,sans-Serif" font-size="10.00" fill="#000000">/home/travis/build</text>
<text text-anchor="start" x="767.5" y="-129.5" font-family="Helvetica,sans-Serif" font-size="10.00" fill="#000000">/AliceO2Group/AliceO2</text>
<text text-anchor="start" x="767.5" y="-118.5" font-family="Helvetica,sans-Serif" font-size="10.00" fill="#000000">/Detectors/ITSMFT/ITS</text>
<text text-anchor="start" x="767.5" y="-107.5" font-family="Helvetica,sans-Serif" font-size="10.00" fill="#000000">/QC/TestDataReaderWorkflow</text>
<text text-anchor="middle" x="838.5" y="-96.5" font-family="Helvetica,sans-Serif" font-size="10.00" fill="#000000">/src/TestDataReader.cxx</text>
</a>
</g>
</g>
<!-- Node26&#45;&gt;Node37 -->
<g id="edge24" class="edge">
<title>Node26&#45;&gt;Node37</title>
<path fill="none" stroke="#191970" d="M906.8019,-400.3573C876.0076,-389.6276 848.7926,-377.0364 839.5,-364 794.4424,-300.7896 813.6385,-202.91 828.0004,-152.8527"/>
<polygon fill="#191970" stroke="#191970" points="905.8635,-403.7347 916.4578,-403.6259 908.108,-397.1043 905.8635,-403.7347"/>
</g>
<!-- Node39 -->
<g id="node14" class="node">
<title>Node39</title>
<g id="a_node14"><a xlink:href="../../d6/d67/ITSMFT_2ITS_2reconstruction_2include_2ITSReconstruction_2ClustererTask_8h.html" target="_top" xlink:title="/home/travis/build\l/AliceO2Group/AliceO2\l/Detectors/ITSMFT/ITS\l/reconstruction/include\l/ITSReconstruction/ClustererTask.h">
<polygon fill="none" stroke="#000000" points="1289,-195 1289,-258 1474,-258 1474,-195 1289,-195"/>
<text text-anchor="start" x="1297" y="-246" font-family="Helvetica,sans-Serif" font-size="10.00" fill="#000000">/home/travis/build</text>
<text text-anchor="start" x="1297" y="-235" font-family="Helvetica,sans-Serif" font-size="10.00" fill="#000000">/AliceO2Group/AliceO2</text>
<text text-anchor="start" x="1297" y="-224" font-family="Helvetica,sans-Serif" font-size="10.00" fill="#000000">/Detectors/ITSMFT/ITS</text>
<text text-anchor="start" x="1297" y="-213" font-family="Helvetica,sans-Serif" font-size="10.00" fill="#000000">/reconstruction/include</text>
<text text-anchor="middle" x="1381.5" y="-202" font-family="Helvetica,sans-Serif" font-size="10.00" fill="#000000">/ITSReconstruction/ClustererTask.h</text>
</a>
</g>
</g>
<!-- Node26&#45;&gt;Node39 -->
<g id="edge25" class="edge">
<title>Node26&#45;&gt;Node39</title>
<path fill="none" stroke="#191970" d="M1077.8285,-393.9066C1088.9277,-384.7625 1100.0969,-374.5639 1109.5,-364 1131.802,-338.9449 1122.6188,-320.0634 1149.5,-300 1197.5453,-264.1403 1222.428,-282.3592 1279.5,-264 1285.3372,-262.1222 1291.3363,-260.1169 1297.3621,-258.0465"/>
<polygon fill="#191970" stroke="#191970" points="1075.3887,-391.3771 1069.7851,-400.3688 1079.7729,-396.8341 1075.3887,-391.3771"/>
</g>
<!-- Node43 -->
<g id="node18" class="node">
<title>Node43</title>
<g id="a_node18"><a xlink:href="../../dc/d9d/ChipMappingITS_8cxx.html" target="_top" xlink:title="/home/travis/build\l/AliceO2Group/AliceO2\l/Detectors/ITSMFT/common\l/reconstruction/src/ChipMapping\lITS.cxx">
<polygon fill="none" stroke="#000000" points="1159,-300.5 1159,-363.5 1332,-363.5 1332,-300.5 1159,-300.5"/>
<text text-anchor="start" x="1167" y="-351.5" font-family="Helvetica,sans-Serif" font-size="10.00" fill="#000000">/home/travis/build</text>
<text text-anchor="start" x="1167" y="-340.5" font-family="Helvetica,sans-Serif" font-size="10.00" fill="#000000">/AliceO2Group/AliceO2</text>
<text text-anchor="start" x="1167" y="-329.5" font-family="Helvetica,sans-Serif" font-size="10.00" fill="#000000">/Detectors/ITSMFT/common</text>
<text text-anchor="start" x="1167" y="-318.5" font-family="Helvetica,sans-Serif" font-size="10.00" fill="#000000">/reconstruction/src/ChipMapping</text>
<text text-anchor="middle" x="1245.5" y="-307.5" font-family="Helvetica,sans-Serif" font-size="10.00" fill="#000000">ITS.cxx</text>
</a>
</g>
</g>
<!-- Node26&#45;&gt;Node43 -->
<g id="edge19" class="edge">
<title>Node26&#45;&gt;Node43</title>
<path fill="none" stroke="#191970" d="M1103.4196,-396.2898C1127.0741,-385.5864 1152.8363,-373.9293 1175.8479,-363.5168"/>
<polygon fill="#191970" stroke="#191970" points="1101.7903,-393.1853 1094.1224,-400.4966 1104.6761,-399.5628 1101.7903,-393.1853"/>
</g>
<!-- Node44 -->
<g id="node19" class="node">
<title>Node44</title>
<g id="a_node19"><a xlink:href="../../d9/da7/TestDataGetter_8cxx.html" target="_top" xlink:title="/home/travis/build\l/AliceO2Group/AliceO2\l/Detectors/ITSMFT/ITS\l/QC/TestDataReaderWorkflow\l/src/TestDataGetter.cxx">
<polygon fill="none" stroke="#000000" points="1350.5,-300.5 1350.5,-363.5 1508.5,-363.5 1508.5,-300.5 1350.5,-300.5"/>
<text text-anchor="start" x="1358.5" y="-351.5" font-family="Helvetica,sans-Serif" font-size="10.00" fill="#000000">/home/travis/build</text>
<text text-anchor="start" x="1358.5" y="-340.5" font-family="Helvetica,sans-Serif" font-size="10.00" fill="#000000">/AliceO2Group/AliceO2</text>
<text text-anchor="start" x="1358.5" y="-329.5" font-family="Helvetica,sans-Serif" font-size="10.00" fill="#000000">/Detectors/ITSMFT/ITS</text>
<text text-anchor="start" x="1358.5" y="-318.5" font-family="Helvetica,sans-Serif" font-size="10.00" fill="#000000">/QC/TestDataReaderWorkflow</text>
<text text-anchor="middle" x="1429.5" y="-307.5" font-family="Helvetica,sans-Serif" font-size="10.00" fill="#000000">/src/TestDataGetter.cxx</text>
</a>
</g>
</g>
<!-- Node26&#45;&gt;Node44 -->
<g id="edge23" class="edge">
<title>Node26&#45;&gt;Node44</title>
<path fill="none" stroke="#191970" d="M1142.3768,-410.5138C1202.1946,-398.6329 1275.7199,-382.5267 1340.5,-364 1343.6574,-363.097 1346.8646,-362.1398 1350.0947,-361.1424"/>
<polygon fill="#191970" stroke="#191970" points="1141.6515,-407.0893 1132.5179,-412.4584 1143.0062,-413.957 1141.6515,-407.0893"/>
</g>
<!-- Node45 -->
<g id="node20" class="node">
<title>Node45</title>
<g id="a_node20"><a xlink:href="../../d4/d9f/RecoGeomHelper_8h.html" target="_top" xlink:title="Declarations of the helper class for clusters / roadwidth matching. ">
<polygon fill="none" stroke="#000000" points="1547,-300.5 1547,-363.5 1750,-363.5 1750,-300.5 1547,-300.5"/>
<text text-anchor="start" x="1555" y="-351.5" font-family="Helvetica,sans-Serif" font-size="10.00" fill="#000000">/home/travis/build</text>
<text text-anchor="start" x="1555" y="-340.5" font-family="Helvetica,sans-Serif" font-size="10.00" fill="#000000">/AliceO2Group/AliceO2</text>
<text text-anchor="start" x="1555" y="-329.5" font-family="Helvetica,sans-Serif" font-size="10.00" fill="#000000">/Detectors/ITSMFT/ITS</text>
<text text-anchor="start" x="1555" y="-318.5" font-family="Helvetica,sans-Serif" font-size="10.00" fill="#000000">/reconstruction/include</text>
<text text-anchor="middle" x="1648.5" y="-307.5" font-family="Helvetica,sans-Serif" font-size="10.00" fill="#000000">/ITSReconstruction/RecoGeomHelper.h</text>
</a>
</g>
</g>
<!-- Node26&#45;&gt;Node45 -->
<g id="edge26" class="edge">
<title>Node26&#45;&gt;Node45</title>
<path fill="none" stroke="#191970" d="M1142.888,-419.1245C1243.1015,-407.4013 1390.3148,-388.2393 1517.5,-364 1527.0441,-362.1811 1536.9364,-360.1109 1546.8133,-357.9188"/>
<polygon fill="#191970" stroke="#191970" points="1142.2605,-415.6738 1132.732,-420.3059 1143.0694,-422.6269 1142.2605,-415.6738"/>
</g>
<!-- Node55 -->
<g id="node30" class="node">
<title>Node55</title>
<g id="a_node30"><a xlink:href="../../d3/da3/ITSMFT_2ITS_2workflow_2src_2ClustererSpec_8cxx.html" target="_top" xlink:title="/home/travis/build\l/AliceO2Group/AliceO2\l/Detectors/ITSMFT/ITS\l/workflow/src/ClustererSpec.cxx">
<polygon fill="none" stroke="#000000" points="1768.5,-306 1768.5,-358 1940.5,-358 1940.5,-306 1768.5,-306"/>
<text text-anchor="start" x="1776.5" y="-346" font-family="Helvetica,sans-Serif" font-size="10.00" fill="#000000">/home/travis/build</text>
<text text-anchor="start" x="1776.5" y="-335" font-family="Helvetica,sans-Serif" font-size="10.00" fill="#000000">/AliceO2Group/AliceO2</text>
<text text-anchor="start" x="1776.5" y="-324" font-family="Helvetica,sans-Serif" font-size="10.00" fill="#000000">/Detectors/ITSMFT/ITS</text>
<text text-anchor="middle" x="1854.5" y="-313" font-family="Helvetica,sans-Serif" font-size="10.00" fill="#000000">/workflow/src/ClustererSpec.cxx</text>
</a>
</g>
</g>
<!-- Node26&#45;&gt;Node55 -->
<g id="edge38" class="edge">
<title>Node26&#45;&gt;Node55</title>
<path fill="none" stroke="#191970" d="M1142.9521,-429.3591C1289.0871,-424.199 1544.4626,-408.9641 1758.5,-364 1766.2368,-362.3747 1774.22,-360.332 1782.1238,-358.0689"/>
<polygon fill="#191970" stroke="#191970" points="1142.4953,-425.8727 1132.6212,-429.7135 1142.7354,-432.8685 1142.4953,-425.8727"/>
</g>
<!-- Node28 -->
<g id="node3" class="node">
<title>Node28</title>
<g id="a_node3"><a xlink:href="../../dd/df6/RawPixelDecoder_8cxx.html" target="_top" xlink:title="Alpide pixel reader for raw data processing. ">
<polygon fill="none" stroke="#000000" points="107,-200.5 107,-252.5 322,-252.5 322,-200.5 107,-200.5"/>
<text text-anchor="start" x="115" y="-240.5" font-family="Helvetica,sans-Serif" font-size="10.00" fill="#000000">/home/travis/build</text>
<text text-anchor="start" x="115" y="-229.5" font-family="Helvetica,sans-Serif" font-size="10.00" fill="#000000">/AliceO2Group/AliceO2</text>
<text text-anchor="start" x="115" y="-218.5" font-family="Helvetica,sans-Serif" font-size="10.00" fill="#000000">/Detectors/ITSMFT/common</text>
<text text-anchor="middle" x="214.5" y="-207.5" font-family="Helvetica,sans-Serif" font-size="10.00" fill="#000000">/reconstruction/src/RawPixelDecoder.cxx</text>
</a>
</g>
</g>
<!-- Node27&#45;&gt;Node28 -->
<g id="edge2" class="edge">
<title>Node27&#45;&gt;Node28</title>
<path fill="none" stroke="#191970" d="M238.8822,-290.8081C234.0345,-278.0223 228.8256,-264.2839 224.472,-252.8011"/>
<polygon fill="#191970" stroke="#191970" points="235.6807,-292.2369 242.4987,-300.3465 242.2261,-289.7552 235.6807,-292.2369"/>
</g>
<!-- Node27&#45;&gt;Node29 -->
<g id="edge3" class="edge">
<title>Node27&#45;&gt;Node29</title>
<path fill="none" stroke="#191970" d="M316.5108,-295.2464C336.9209,-283.1494 359.4225,-269.8128 379.1318,-258.1311"/>
<polygon fill="#191970" stroke="#191970" points="314.7238,-292.2369 307.9059,-300.3465 318.293,-298.2587 314.7238,-292.2369"/>
</g>
<!-- Node31 -->
<g id="node6" class="node">
<title>Node31</title>
<g id="a_node6"><a xlink:href="../../d6/d14/STFDecoderSpec_8cxx.html" target="_top" xlink:title="Device to decode ITS raw data from STF. ">
<polygon fill="none" stroke="#000000" points="0,-95 0,-147 185,-147 185,-95 0,-95"/>
<text text-anchor="start" x="8" y="-135" font-family="Helvetica,sans-Serif" font-size="10.00" fill="#000000">/home/travis/build</text>
<text text-anchor="start" x="8" y="-124" font-family="Helvetica,sans-Serif" font-size="10.00" fill="#000000">/AliceO2Group/AliceO2</text>
<text text-anchor="start" x="8" y="-113" font-family="Helvetica,sans-Serif" font-size="10.00" fill="#000000">/Detectors/ITSMFT/common</text>
<text text-anchor="middle" x="92.5" y="-102" font-family="Helvetica,sans-Serif" font-size="10.00" fill="#000000">/workflow/src/STFDecoderSpec.cxx</text>
</a>
</g>
</g>
<!-- Node27&#45;&gt;Node31 -->
<g id="edge6" class="edge">
<title>Node27&#45;&gt;Node31</title>
<path fill="none" stroke="#191970" d="M133.8341,-297.454C119.6098,-288.687 106.8548,-277.7178 97.5,-264 73.7768,-229.2126 79.2763,-177.8018 85.7013,-147.0309"/>
<polygon fill="#191970" stroke="#191970" points="132.4475,-300.6935 142.8633,-302.633 135.9303,-294.6214 132.4475,-300.6935"/>
</g>
<!-- Node30 -->
<g id="node5" class="node">
<title>Node30</title>
<g id="a_node5"><a xlink:href="../../dd/d1f/stf-decoder-workflow_8cxx.html" target="_top" xlink:title="/home/travis/build\l/AliceO2Group/AliceO2\l/Detectors/ITSMFT/common\l/workflow/src/stf&#45;decoder\l&#45;workflow.cxx">
<polygon fill="none" stroke="#000000" points="209.5,-89.5 209.5,-152.5 359.5,-152.5 359.5,-89.5 209.5,-89.5"/>
<text text-anchor="start" x="217.5" y="-140.5" font-family="Helvetica,sans-Serif" font-size="10.00" fill="#000000">/home/travis/build</text>
<text text-anchor="start" x="217.5" y="-129.5" font-family="Helvetica,sans-Serif" font-size="10.00" fill="#000000">/AliceO2Group/AliceO2</text>
<text text-anchor="start" x="217.5" y="-118.5" font-family="Helvetica,sans-Serif" font-size="10.00" fill="#000000">/Detectors/ITSMFT/common</text>
<text text-anchor="start" x="217.5" y="-107.5" font-family="Helvetica,sans-Serif" font-size="10.00" fill="#000000">/workflow/src/stf&#45;decoder</text>
<text text-anchor="middle" x="284.5" y="-96.5" font-family="Helvetica,sans-Serif" font-size="10.00" fill="#000000">&#45;workflow.cxx</text>
</a>
</g>
</g>
<!-- Node29&#45;&gt;Node30 -->
<g id="edge4" class="edge">
<title>Node29&#45;&gt;Node30</title>
<path fill="none" stroke="#191970" d="M379.5731,-188.7717C362.9697,-176.9362 344.8221,-163.9999 328.8735,-152.6311"/>
<polygon fill="#191970" stroke="#191970" points="377.9206,-191.8919 388.0951,-194.8465 381.9838,-186.1919 377.9206,-191.8919"/>
</g>
<!-- Node29&#45;&gt;Node31 -->
<g id="edge5" class="edge">
<title>Node29&#45;&gt;Node31</title>
<path fill="none" stroke="#191970" d="M338.8014,-191.7183C336.008,-190.7884 333.2362,-189.8802 330.5,-189 273.428,-170.6408 258.1322,-169.5165 200.5,-153 193.8264,-151.0874 186.9268,-149.09 179.9923,-147.0679"/>
<polygon fill="#191970" stroke="#191970" points="337.7678,-195.0634 348.3621,-194.9535 340.0116,-188.4327 337.7678,-195.0634"/>
</g>
<!-- Node32&#45;&gt;Node33 -->
<g id="edge8" class="edge">
<title>Node32&#45;&gt;Node33</title>
<path fill="none" stroke="#191970" d="M864.4719,-296.8226C831.6642,-284.282 794.9427,-270.2453 762.9871,-258.0304"/>
<polygon fill="#191970" stroke="#191970" points="863.4742,-300.1882 874.0648,-300.4894 865.9736,-293.6496 863.4742,-300.1882"/>
</g>
<!-- Node32&#45;&gt;Node36 -->
<g id="edge11" class="edge">
<title>Node32&#45;&gt;Node36</title>
<path fill="none" stroke="#191970" d="M1031.4272,-296.069C1053.2566,-285.6008 1077.1443,-274.1456 1099.1217,-263.6064"/>
<polygon fill="#191970" stroke="#191970" points="1029.7127,-293.0095 1022.2093,-300.4894 1032.7395,-299.3213 1029.7127,-293.0095"/>
</g>
<!-- Node32&#45;&gt;Node37 -->
<g id="edge14" class="edge">
<title>Node32&#45;&gt;Node37</title>
<path fill="none" stroke="#191970" d="M892.3458,-293.8426C882.0436,-285.1924 872.4883,-275.2003 865.5,-264 844.3021,-230.0256 839.0031,-183.3042 838.0416,-152.6437"/>
<polygon fill="#191970" stroke="#191970" points="890.3325,-296.7132 900.3393,-300.1935 894.687,-291.2324 890.3325,-296.7132"/>
</g>
<!-- Node32&#45;&gt;Node39 -->
<g id="edge15" class="edge">
<title>Node32&#45;&gt;Node39</title>
<path fill="none" stroke="#191970" d="M1074.7401,-307.9734C1158.5513,-290.7946 1259.534,-269.7392 1279.5,-264 1285.8465,-262.1757 1292.3643,-260.1493 1298.8877,-258.0101"/>
<polygon fill="#191970" stroke="#191970" points="1073.9662,-304.5592 1064.8718,-309.9945 1075.3707,-311.4169 1073.9662,-304.5592"/>
</g>
<!-- Node41 -->
<g id="node16" class="node">
<title>Node41</title>
<g id="a_node16"><a xlink:href="../../db/d12/ITSMFT_2MFT_2reconstruction_2include_2MFTReconstruction_2ClustererTask_8h.html" target="_top" xlink:title="/home/travis/build\l/AliceO2Group/AliceO2\l/Detectors/ITSMFT/MFT\l/reconstruction/include\l/MFTReconstruction/ClustererTask.h">
<polygon fill="none" stroke="#000000" points="875,-195 875,-258 1064,-258 1064,-195 875,-195"/>
<text text-anchor="start" x="883" y="-246" font-family="Helvetica,sans-Serif" font-size="10.00" fill="#000000">/home/travis/build</text>
<text text-anchor="start" x="883" y="-235" font-family="Helvetica,sans-Serif" font-size="10.00" fill="#000000">/AliceO2Group/AliceO2</text>
<text text-anchor="start" x="883" y="-224" font-family="Helvetica,sans-Serif" font-size="10.00" fill="#000000">/Detectors/ITSMFT/MFT</text>
<text text-anchor="start" x="883" y="-213" font-family="Helvetica,sans-Serif" font-size="10.00" fill="#000000">/reconstruction/include</text>
<text text-anchor="middle" x="969.5" y="-202" font-family="Helvetica,sans-Serif" font-size="10.00" fill="#000000">/MFTReconstruction/ClustererTask.h</text>
</a>
</g>
</g>
<!-- Node32&#45;&gt;Node41 -->
<g id="edge17" class="edge">
<title>Node32&#45;&gt;Node41</title>
<path fill="none" stroke="#191970" d="M961.6352,-290.3263C962.956,-279.6068 964.3557,-268.2483 965.6023,-258.1311"/>
<polygon fill="#191970" stroke="#191970" points="958.1498,-289.9935 960.4004,-300.3465 965.0972,-290.8497 958.1498,-289.9935"/>
</g>
<!-- Node34 -->
<g id="node9" class="node">
<title>Node34</title>
<g id="a_node9"><a xlink:href="../../d8/d6b/MC2RawEncoder_8cxx.html" target="_top" xlink:title="/home/travis/build\l/AliceO2Group/AliceO2\l/Detectors/ITSMFT/common\l/simulation/src/MC2RawEncoder.cxx">
<polygon fill="none" stroke="#000000" points="549.5,-95 549.5,-147 741.5,-147 741.5,-95 549.5,-95"/>
<text text-anchor="start" x="557.5" y="-135" font-family="Helvetica,sans-Serif" font-size="10.00" fill="#000000">/home/travis/build</text>
<text text-anchor="start" x="557.5" y="-124" font-family="Helvetica,sans-Serif" font-size="10.00" fill="#000000">/AliceO2Group/AliceO2</text>
<text text-anchor="start" x="557.5" y="-113" font-family="Helvetica,sans-Serif" font-size="10.00" fill="#000000">/Detectors/ITSMFT/common</text>
<text text-anchor="middle" x="645.5" y="-102" font-family="Helvetica,sans-Serif" font-size="10.00" fill="#000000">/simulation/src/MC2RawEncoder.cxx</text>
</a>
</g>
</g>
<!-- Node33&#45;&gt;Node34 -->
<g id="edge9" class="edge">
<title>Node33&#45;&gt;Node34</title>
<path fill="none" stroke="#191970" d="M666.8344,-185.3081C662.5927,-172.5223 658.0349,-158.7839 654.2255,-147.3011"/>
<polygon fill="#191970" stroke="#191970" points="663.528,-186.4573 669.9988,-194.8465 670.172,-184.2531 663.528,-186.4573"/>
</g>
<!-- Node33&#45;&gt;Node35 -->
<g id="edge10" class="edge">
<title>Node33&#45;&gt;Node35</title>
<path fill="none" stroke="#191970" d="M603.63,-190.616C572.9953,-176.3153 538.4012,-160.1663 510.2496,-147.0247"/>
<polygon fill="#191970" stroke="#191970" points="602.4568,-193.9309 612.9987,-194.9894 605.4178,-187.588 602.4568,-193.9309"/>
</g>
<!-- Node36&#45;&gt;Node37 -->
<g id="edge12" class="edge">
<title>Node36&#45;&gt;Node37</title>
<path fill="none" stroke="#191970" d="M1072.0068,-188.9695C1006.7365,-169.8533 987.4431,-171.536 926.5,-153 923.5449,-152.1012 920.5437,-151.1596 917.5196,-150.1864"/>
<polygon fill="#191970" stroke="#191970" points="1071.3976,-192.4402 1081.9809,-191.9458 1073.3992,-185.7324 1071.3976,-192.4402"/>
</g>
<!-- Node38 -->
<g id="node13" class="node">
<title>Node38</title>
<g id="a_node13"><a xlink:href="../../d1/dc6/TestDataReaderWorkflow_8cxx.html" target="_top" xlink:title="/home/travis/build\l/AliceO2Group/AliceO2\l/Detectors/ITSMFT/ITS\l/QC/TestDataReaderWorkflow\l/src/TestDataReaderWorkflow.cxx">
<polygon fill="none" stroke="#000000" points="1149.5,-89.5 1149.5,-152.5 1327.5,-152.5 1327.5,-89.5 1149.5,-89.5"/>
<text text-anchor="start" x="1157.5" y="-140.5" font-family="Helvetica,sans-Serif" font-size="10.00" fill="#000000">/home/travis/build</text>
<text text-anchor="start" x="1157.5" y="-129.5" font-family="Helvetica,sans-Serif" font-size="10.00" fill="#000000">/AliceO2Group/AliceO2</text>
<text text-anchor="start" x="1157.5" y="-118.5" font-family="Helvetica,sans-Serif" font-size="10.00" fill="#000000">/Detectors/ITSMFT/ITS</text>
<text text-anchor="start" x="1157.5" y="-107.5" font-family="Helvetica,sans-Serif" font-size="10.00" fill="#000000">/QC/TestDataReaderWorkflow</text>
<text text-anchor="middle" x="1238.5" y="-96.5" font-family="Helvetica,sans-Serif" font-size="10.00" fill="#000000">/src/TestDataReaderWorkflow.cxx</text>
</a>
</g>
</g>
<!-- Node36&#45;&gt;Node38 -->
<g id="edge13" class="edge">
<title>Node36&#45;&gt;Node38</title>
<path fill="none" stroke="#191970" d="M1203.574,-180.4306C1209.0916,-171.0417 1214.7778,-161.3659 1219.9183,-152.6189"/>
<polygon fill="#191970" stroke="#191970" points="1200.408,-178.9099 1198.3589,-189.3046 1206.4431,-182.4565 1200.408,-178.9099"/>
</g>
<!-- Node40 -->
<g id="node15" class="node">
<title>Node40</title>
<g id="a_node15"><a xlink:href="../../d8/d95/ITSMFT_2ITS_2reconstruction_2src_2ClustererTask_8cxx.html" target="_top" xlink:title="/home/travis/build\l/AliceO2Group/AliceO2\l/Detectors/ITSMFT/ITS\l/reconstruction/src/ClustererTask.cxx">
<polygon fill="none" stroke="#000000" points="1345.5,-95 1345.5,-147 1541.5,-147 1541.5,-95 1345.5,-95"/>
<text text-anchor="start" x="1353.5" y="-135" font-family="Helvetica,sans-Serif" font-size="10.00" fill="#000000">/home/travis/build</text>
<text text-anchor="start" x="1353.5" y="-124" font-family="Helvetica,sans-Serif" font-size="10.00" fill="#000000">/AliceO2Group/AliceO2</text>
<text text-anchor="start" x="1353.5" y="-113" font-family="Helvetica,sans-Serif" font-size="10.00" fill="#000000">/Detectors/ITSMFT/ITS</text>
<text text-anchor="middle" x="1443.5" y="-102" font-family="Helvetica,sans-Serif" font-size="10.00" fill="#000000">/reconstruction/src/ClustererTask.cxx</text>
</a>
</g>
</g>
<!-- Node39&#45;&gt;Node40 -->
<g id="edge16" class="edge">
<title>Node39&#45;&gt;Node40</title>
<path fill="none" stroke="#191970" d="M1405.2662,-186.059C1412.9043,-173.062 1421.1629,-159.009 1428.0434,-147.3011"/>
<polygon fill="#191970" stroke="#191970" points="1402.1512,-184.4517 1400.102,-194.8465 1408.1862,-187.9984 1402.1512,-184.4517"/>
</g>
<!-- Node42 -->
<g id="node17" class="node">
<title>Node42</title>
<g id="a_node17"><a xlink:href="../../d9/d5e/ITSMFT_2MFT_2reconstruction_2src_2ClustererTask_8cxx.html" target="_top" xlink:title="/home/travis/build\l/AliceO2Group/AliceO2\l/Detectors/ITSMFT/MFT\l/reconstruction/src/ClustererTask.cxx">
<polygon fill="none" stroke="#000000" points="935.5,-95 935.5,-147 1131.5,-147 1131.5,-95 935.5,-95"/>
<text text-anchor="start" x="943.5" y="-135" font-family="Helvetica,sans-Serif" font-size="10.00" fill="#000000">/home/travis/build</text>
<text text-anchor="start" x="943.5" y="-124" font-family="Helvetica,sans-Serif" font-size="10.00" fill="#000000">/AliceO2Group/AliceO2</text>
<text text-anchor="start" x="943.5" y="-113" font-family="Helvetica,sans-Serif" font-size="10.00" fill="#000000">/Detectors/ITSMFT/MFT</text>
<text text-anchor="middle" x="1033.5" y="-102" font-family="Helvetica,sans-Serif" font-size="10.00" fill="#000000">/reconstruction/src/ClustererTask.cxx</text>
</a>
</g>
</g>
<!-- Node41&#45;&gt;Node42 -->
<g id="edge18" class="edge">
<title>Node41&#45;&gt;Node42</title>
<path fill="none" stroke="#191970" d="M994.0329,-186.059C1001.9174,-173.062 1010.4424,-159.009 1017.5448,-147.3011"/>
<polygon fill="#191970" stroke="#191970" points="990.8963,-184.4814 988.7021,-194.8465 996.8812,-188.112 990.8963,-184.4814"/>
</g>
<!-- Node46 -->
<g id="node21" class="node">
<title>Node46</title>
<g id="a_node21"><a xlink:href="../../d3/dac/MatchTPCITS_8h.html" target="_top" xlink:title="Class to perform TPC ITS matching. ">
<polygon fill="none" stroke="#000000" points="1567,-200.5 1567,-252.5 1772,-252.5 1772,-200.5 1567,-200.5"/>
<text text-anchor="start" x="1575" y="-240.5" font-family="Helvetica,sans-Serif" font-size="10.00" fill="#000000">/home/travis/build</text>
<text text-anchor="start" x="1575" y="-229.5" font-family="Helvetica,sans-Serif" font-size="10.00" fill="#000000">/AliceO2Group/AliceO2</text>
<text text-anchor="start" x="1575" y="-218.5" font-family="Helvetica,sans-Serif" font-size="10.00" fill="#000000">/Detectors/GlobalTracking</text>
<text text-anchor="middle" x="1669.5" y="-207.5" font-family="Helvetica,sans-Serif" font-size="10.00" fill="#000000">/include/GlobalTracking/MatchTPCITS.h</text>
</a>
</g>
</g>
<!-- Node45&#45;&gt;Node46 -->
<g id="edge27" class="edge">
<title>Node45&#45;&gt;Node46</title>
<path fill="none" stroke="#191970" d="M1656.7743,-290.4317C1659.2979,-277.7532 1662.0014,-264.1713 1664.2647,-252.8011"/>
<polygon fill="#191970" stroke="#191970" points="1653.3203,-289.8556 1654.8007,-300.3465 1660.1857,-291.2222 1653.3203,-289.8556"/>
</g>
<!-- Node54 -->
<g id="node29" class="node">
<title>Node54</title>
<g id="a_node29"><a xlink:href="../../d3/dde/RecoGeomHelper_8cxx.html" target="_top" xlink:title="/home/travis/build\l/AliceO2Group/AliceO2\l/Detectors/ITSMFT/ITS\l/reconstruction/src/RecoGeomHelper.cxx">
<polygon fill="none" stroke="#000000" points="1789.5,-200.5 1789.5,-252.5 2003.5,-252.5 2003.5,-200.5 1789.5,-200.5"/>
<text text-anchor="start" x="1797.5" y="-240.5" font-family="Helvetica,sans-Serif" font-size="10.00" fill="#000000">/home/travis/build</text>
<text text-anchor="start" x="1797.5" y="-229.5" font-family="Helvetica,sans-Serif" font-size="10.00" fill="#000000">/AliceO2Group/AliceO2</text>
<text text-anchor="start" x="1797.5" y="-218.5" font-family="Helvetica,sans-Serif" font-size="10.00" fill="#000000">/Detectors/ITSMFT/ITS</text>
<text text-anchor="middle" x="1896.5" y="-207.5" font-family="Helvetica,sans-Serif" font-size="10.00" fill="#000000">/reconstruction/src/RecoGeomHelper.cxx</text>
</a>
</g>
</g>
<!-- Node45&#45;&gt;Node54 -->
<g id="edge36" class="edge">
<title>Node45&#45;&gt;Node54</title>
<path fill="none" stroke="#191970" d="M1731.9845,-296.4854C1765.8147,-282.0939 1804.1651,-265.7796 1835.3234,-252.5247"/>
<polygon fill="#191970" stroke="#191970" points="1730.4041,-293.3541 1722.5723,-300.4894 1733.1443,-299.7955 1730.4041,-293.3541"/>
</g>
<!-- Node47 -->
<g id="node22" class="node">
<title>Node47</title>
<g id="a_node22"><a xlink:href="../../d0/d74/MatchTOF_8h.html" target="_top" xlink:title="Class to perform TOF matching to global tracks. ">
<polygon fill="none" stroke="#000000" points="1597.5,-95 1597.5,-147 1785.5,-147 1785.5,-95 1597.5,-95"/>
<text text-anchor="start" x="1605.5" y="-135" font-family="Helvetica,sans-Serif" font-size="10.00" fill="#000000">/home/travis/build</text>
<text text-anchor="start" x="1605.5" y="-124" font-family="Helvetica,sans-Serif" font-size="10.00" fill="#000000">/AliceO2Group/AliceO2</text>
<text text-anchor="start" x="1605.5" y="-113" font-family="Helvetica,sans-Serif" font-size="10.00" fill="#000000">/Detectors/GlobalTracking</text>
<text text-anchor="middle" x="1691.5" y="-102" font-family="Helvetica,sans-Serif" font-size="10.00" fill="#000000">/include/GlobalTracking/MatchTOF.h</text>
</a>
</g>
</g>
<!-- Node46&#45;&gt;Node47 -->
<g id="edge28" class="edge">
<title>Node46&#45;&gt;Node47</title>
<path fill="none" stroke="#191970" d="M1677.0163,-190.4558C1679.9811,-176.2382 1683.3225,-160.215 1686.0481,-147.1443"/>
<polygon fill="#191970" stroke="#191970" points="1673.5534,-189.9174 1674.9382,-200.4213 1680.406,-191.3464 1673.5534,-189.9174"/>
</g>
<!-- Node48 -->
<g id="node23" class="node">
<title>Node48</title>
<g id="a_node23"><a xlink:href="../../db/d6a/MatchTOF_8cxx.html" target="_top" xlink:title="/home/travis/build\l/AliceO2Group/AliceO2\l/Detectors/GlobalTracking\l/src/MatchTOF.cxx">
<polygon fill="none" stroke="#000000" points="1498.5,-.5 1498.5,-52.5 1640.5,-52.5 1640.5,-.5 1498.5,-.5"/>
<text text-anchor="start" x="1506.5" y="-40.5" font-family="Helvetica,sans-Serif" font-size="10.00" fill="#000000">/home/travis/build</text>
<text text-anchor="start" x="1506.5" y="-29.5" font-family="Helvetica,sans-Serif" font-size="10.00" fill="#000000">/AliceO2Group/AliceO2</text>
<text text-anchor="start" x="1506.5" y="-18.5" font-family="Helvetica,sans-Serif" font-size="10.00" fill="#000000">/Detectors/GlobalTracking</text>
<text text-anchor="middle" x="1569.5" y="-7.5" font-family="Helvetica,sans-Serif" font-size="10.00" fill="#000000">/src/MatchTOF.cxx</text>
</a>
</g>
</g>
<!-- Node46&#45;&gt;Node48 -->
<g id="edge31" class="edge">
<title>Node46&#45;&gt;Node48</title>
<path fill="none" stroke="#191970" d="M1622.8499,-193.9104C1609.7444,-182.4633 1596.8155,-168.5341 1588.5,-153 1571.6256,-121.4773 1568.4611,-79.5705 1568.4362,-52.8089"/>
<polygon fill="#191970" stroke="#191970" points="1620.6379,-196.6231 1630.5531,-200.3567 1625.1303,-191.2548 1620.6379,-196.6231"/>
</g>
<!-- Node50 -->
<g id="node25" class="node">
<title>Node50</title>
<g id="a_node25"><a xlink:href="../../dc/d59/MatchTPCITS_8cxx.html" target="_top" xlink:title="/home/travis/build\l/AliceO2Group/AliceO2\l/Detectors/GlobalTracking\l/src/MatchTPCITS.cxx">
<polygon fill="none" stroke="#000000" points="1803.5,-95 1803.5,-147 1945.5,-147 1945.5,-95 1803.5,-95"/>
<text text-anchor="start" x="1811.5" y="-135" font-family="Helvetica,sans-Serif" font-size="10.00" fill="#000000">/home/travis/build</text>
<text text-anchor="start" x="1811.5" y="-124" font-family="Helvetica,sans-Serif" font-size="10.00" fill="#000000">/AliceO2Group/AliceO2</text>
<text text-anchor="start" x="1811.5" y="-113" font-family="Helvetica,sans-Serif" font-size="10.00" fill="#000000">/Detectors/GlobalTracking</text>
<text text-anchor="middle" x="1874.5" y="-102" font-family="Helvetica,sans-Serif" font-size="10.00" fill="#000000">/src/MatchTPCITS.cxx</text>
</a>
</g>
</g>
<!-- Node46&#45;&gt;Node50 -->
<g id="edge32" class="edge">
<title>Node46&#45;&gt;Node50</title>
<path fill="none" stroke="#191970" d="M1729.2641,-195.7434C1759.2144,-180.3299 1795.0946,-161.8648 1823.6983,-147.1443"/>
<polygon fill="#191970" stroke="#191970" points="1727.4642,-192.7333 1720.1742,-200.4213 1730.6674,-198.9574 1727.4642,-192.7333"/>
</g>
<!-- Node51 -->
<g id="node26" class="node">
<title>Node51</title>
<g id="a_node26"><a xlink:href="../../da/d20/TPCITSMatchingSpec_8h.html" target="_top" xlink:title="/home/travis/build\l/AliceO2Group/AliceO2\l/Detectors/GlobalTrackingWorkflow\l/include/GlobalTrackingWorkflow\l/TPCITSMatchingSpec.h">
<polygon fill="none" stroke="#000000" points="1964,-89.5 1964,-152.5 2151,-152.5 2151,-89.5 1964,-89.5"/>
<text text-anchor="start" x="1972" y="-140.5" font-family="Helvetica,sans-Serif" font-size="10.00" fill="#000000">/home/travis/build</text>
<text text-anchor="start" x="1972" y="-129.5" font-family="Helvetica,sans-Serif" font-size="10.00" fill="#000000">/AliceO2Group/AliceO2</text>
<text text-anchor="start" x="1972" y="-118.5" font-family="Helvetica,sans-Serif" font-size="10.00" fill="#000000">/Detectors/GlobalTrackingWorkflow</text>
<text text-anchor="start" x="1972" y="-107.5" font-family="Helvetica,sans-Serif" font-size="10.00" fill="#000000">/include/GlobalTrackingWorkflow</text>
<text text-anchor="middle" x="2057.5" y="-96.5" font-family="Helvetica,sans-Serif" font-size="10.00" fill="#000000">/TPCITSMatchingSpec.h</text>
</a>
</g>
</g>
<!-- Node46&#45;&gt;Node51 -->
<g id="edge33" class="edge">
<title>Node46&#45;&gt;Node51</title>
<path fill="none" stroke="#191970" d="M1752.3469,-197.2868C1761.7918,-194.3217 1771.3208,-191.4902 1780.5,-189 1856.7164,-168.3237 1878.0353,-172.7383 1954.5,-153 1957.5822,-152.2044 1960.7093,-151.3733 1963.8617,-150.515"/>
<polygon fill="#191970" stroke="#191970" points="1751.0131,-194.0386 1742.553,-200.4164 1753.1439,-200.7064 1751.0131,-194.0386"/>
</g>
<!-- Node47&#45;&gt;Node48 -->
<g id="edge29" class="edge">
<title>Node47&#45;&gt;Node48</title>
<path fill="none" stroke="#191970" d="M1649.6729,-88.6011C1634.6018,-76.9272 1617.7926,-63.907 1603.4737,-52.8157"/>
<polygon fill="#191970" stroke="#191970" points="1647.791,-91.5706 1657.84,-94.9273 1652.0776,-86.0366 1647.791,-91.5706"/>
</g>
<!-- Node49 -->
<g id="node24" class="node">
<title>Node49</title>
<g id="a_node24"><a xlink:href="../../d8/d84/RecoWorkflowSpec_8cxx.html" target="_top" xlink:title="/home/travis/build\l/AliceO2Group/AliceO2\l/Detectors/GlobalTrackingWorkflow\l/tofworkflow/src/RecoWorkflowSpec.cxx">
<polygon fill="none" stroke="#000000" points="1659,-.5 1659,-52.5 1868,-52.5 1868,-.5 1659,-.5"/>
<text text-anchor="start" x="1667" y="-40.5" font-family="Helvetica,sans-Serif" font-size="10.00" fill="#000000">/home/travis/build</text>
<text text-anchor="start" x="1667" y="-29.5" font-family="Helvetica,sans-Serif" font-size="10.00" fill="#000000">/AliceO2Group/AliceO2</text>
<text text-anchor="start" x="1667" y="-18.5" font-family="Helvetica,sans-Serif" font-size="10.00" fill="#000000">/Detectors/GlobalTrackingWorkflow</text>
<text text-anchor="middle" x="1763.5" y="-7.5" font-family="Helvetica,sans-Serif" font-size="10.00" fill="#000000">/tofworkflow/src/RecoWorkflowSpec.cxx</text>
</a>
</g>
</g>
<!-- Node47&#45;&gt;Node49 -->
<g id="edge30" class="edge">
<title>Node47&#45;&gt;Node49</title>
<path fill="none" stroke="#191970" d="M1717.4265,-86.9714C1725.9946,-75.7258 1735.3907,-63.3935 1743.45,-52.8157"/>
<polygon fill="#191970" stroke="#191970" points="1714.6414,-84.8518 1711.3649,-94.9273 1720.2094,-89.0941 1714.6414,-84.8518"/>
</g>
<!-- Node52 -->
<g id="node27" class="node">
<title>Node52</title>
<g id="a_node27"><a xlink:href="../../d5/db4/MatchTPCITSWorkflow_8cxx.html" target="_top" xlink:title="/home/travis/build\l/AliceO2Group/AliceO2\l/Detectors/GlobalTrackingWorkflow\l/src/MatchTPCITSWorkflow.cxx">
<polygon fill="none" stroke="#000000" points="1925,-.5 1925,-52.5 2112,-52.5 2112,-.5 1925,-.5"/>
<text text-anchor="start" x="1933" y="-40.5" font-family="Helvetica,sans-Serif" font-size="10.00" fill="#000000">/home/travis/build</text>
<text text-anchor="start" x="1933" y="-29.5" font-family="Helvetica,sans-Serif" font-size="10.00" fill="#000000">/AliceO2Group/AliceO2</text>
<text text-anchor="start" x="1933" y="-18.5" font-family="Helvetica,sans-Serif" font-size="10.00" fill="#000000">/Detectors/GlobalTrackingWorkflow</text>
<text text-anchor="middle" x="2018.5" y="-7.5" font-family="Helvetica,sans-Serif" font-size="10.00" fill="#000000">/src/MatchTPCITSWorkflow.cxx</text>
</a>
</g>
</g>
<!-- Node51&#45;&gt;Node52 -->
<g id="edge34" class="edge">
<title>Node51&#45;&gt;Node52</title>
<path fill="none" stroke="#191970" d="M2040.5087,-79.8289C2036.7009,-70.6021 2032.7632,-61.0608 2029.2896,-52.6442"/>
<polygon fill="#191970" stroke="#191970" points="2037.3548,-81.3615 2044.4051,-89.27 2043.8254,-78.691 2037.3548,-81.3615"/>
</g>
<!-- Node53 -->
<g id="node28" class="node">
<title>Node53</title>
<g id="a_node28"><a xlink:href="../../d6/d73/TPCITSMatchingSpec_8cxx.html" target="_top" xlink:title="/home/travis/build\l/AliceO2Group/AliceO2\l/Detectors/GlobalTrackingWorkflow\l/src/TPCITSMatchingSpec.cxx">
<polygon fill="none" stroke="#000000" points="2130,-.5 2130,-52.5 2317,-52.5 2317,-.5 2130,-.5"/>
<text text-anchor="start" x="2138" y="-40.5" font-family="Helvetica,sans-Serif" font-size="10.00" fill="#000000">/home/travis/build</text>
<text text-anchor="start" x="2138" y="-29.5" font-family="Helvetica,sans-Serif" font-size="10.00" fill="#000000">/AliceO2Group/AliceO2</text>
<text text-anchor="start" x="2138" y="-18.5" font-family="Helvetica,sans-Serif" font-size="10.00" fill="#000000">/Detectors/GlobalTrackingWorkflow</text>
<text text-anchor="middle" x="2223.5" y="-7.5" font-family="Helvetica,sans-Serif" font-size="10.00" fill="#000000">/src/TPCITSMatchingSpec.cxx</text>
</a>
</g>
</g>
<!-- Node51&#45;&gt;Node53 -->
<g id="edge35" class="edge">
<title>Node51&#45;&gt;Node53</title>
<path fill="none" stroke="#191970" d="M2121.9436,-84.3138C2140.508,-73.7455 2160.3777,-62.4341 2177.5748,-52.6442"/>
<polygon fill="#191970" stroke="#191970" points="2120.1963,-81.281 2113.2374,-89.27 2123.6594,-87.3643 2120.1963,-81.281"/>
</g>
</g>
</svg>
