<?xml version="1.0" encoding="UTF-8" standalone="no"?>
<!DOCTYPE svg PUBLIC "-//W3C//DTD SVG 1.1//EN"
 "http://www.w3.org/Graphics/SVG/1.1/DTD/svg11.dtd">
<!-- Generated by graphviz version 2.40.1 (20161225.0304)
 -->
<!-- Title: /home/travis/build/AliceO2Group/AliceO2/Framework/Core/src/TableBuilder.cxx Pages: 1 -->
<svg width="2887pt" height="330pt"
 viewBox="0.00 0.00 2887.00 330.00" xmlns="http://www.w3.org/2000/svg" xmlns:xlink="http://www.w3.org/1999/xlink">
<g id="graph0" class="graph" transform="scale(1 1) rotate(0) translate(4 326)">
<title>/home/travis/build/AliceO2Group/AliceO2/Framework/Core/src/TableBuilder.cxx</title>
<!-- Node0 -->
<g id="node1" class="node">
<title>Node0</title>
<polygon fill="#bfbfbf" stroke="#000000" points="2414,-280.5 2414,-321.5 2613,-321.5 2613,-280.5 2414,-280.5"/>
<text text-anchor="start" x="2422" y="-309.5" font-family="Helvetica,sans-Serif" font-size="10.00" fill="#000000">/home/travis/build</text>
<text text-anchor="start" x="2422" y="-298.5" font-family="Helvetica,sans-Serif" font-size="10.00" fill="#000000">/AliceO2Group/AliceO2</text>
<text text-anchor="middle" x="2513.5" y="-287.5" font-family="Helvetica,sans-Serif" font-size="10.00" fill="#000000">/Framework/Core/src/TableBuilder.cxx</text>
</g>
<!-- Node1 -->
<g id="node2" class="node">
<title>Node1</title>
<g id="a_node2"><a xlink:href="../../d5/d98/TableBuilder_8h.html" target="_top" xlink:title="Framework/TableBuilder.h">
<polygon fill="none" stroke="#000000" points="1377.5,-224.5 1377.5,-243.5 1519.5,-243.5 1519.5,-224.5 1377.5,-224.5"/>
<text text-anchor="middle" x="1448.5" y="-231.5" font-family="Helvetica,sans-Serif" font-size="10.00" fill="#000000">Framework/TableBuilder.h</text>
</a>
</g>
</g>
<!-- Node0&#45;&gt;Node1 -->
<g id="edge1" class="edge">
<title>Node0&#45;&gt;Node1</title>
<path fill="none" stroke="#191970" d="M2413.786,-294.7269C2204.234,-281.5438 1721.6757,-251.1857 1529.5603,-239.0996"/>
<polygon fill="#191970" stroke="#191970" points="1529.7302,-235.6034 1519.5302,-238.4686 1529.2907,-242.5896 1529.7302,-235.6034"/>
</g>
<!-- Node19 -->
<g id="node20" class="node">
<title>Node19</title>
<polygon fill="none" stroke="#bfbfbf" points="2202,-56.5 2202,-75.5 2283,-75.5 2283,-56.5 2202,-56.5"/>
<text text-anchor="middle" x="2242.5" y="-63.5" font-family="Helvetica,sans-Serif" font-size="10.00" fill="#000000">arrow/table.h</text>
</g>
<!-- Node0&#45;&gt;Node19 -->
<g id="edge68" class="edge">
<title>Node0&#45;&gt;Node19</title>
<path fill="none" stroke="#191970" d="M2513.3059,-280.4193C2511.9613,-251.853 2505.4905,-200.0868 2477.5,-168 2429.5703,-113.0561 2346.6589,-86.6536 2293.2229,-74.7693"/>
<polygon fill="#191970" stroke="#191970" points="2293.7857,-71.3107 2283.2757,-72.6487 2292.3261,-78.1569 2293.7857,-71.3107"/>
</g>
<!-- Node25 -->
<g id="node26" class="node">
<title>Node25</title>
<polygon fill="none" stroke="#bfbfbf" points="2367.5,-56.5 2367.5,-75.5 2425.5,-75.5 2425.5,-56.5 2367.5,-56.5"/>
<text text-anchor="middle" x="2396.5" y="-63.5" font-family="Helvetica,sans-Serif" font-size="10.00" fill="#000000">memory</text>
</g>
<!-- Node0&#45;&gt;Node25 -->
<g id="edge64" class="edge">
<title>Node0&#45;&gt;Node25</title>
<path fill="none" stroke="#191970" d="M2522.8983,-280.2564C2538.2936,-242.8264 2563.7426,-163.1385 2527.5,-112 2516.5904,-96.6065 2470.0366,-82.8381 2435.5118,-74.4636"/>
<polygon fill="#191970" stroke="#191970" points="2436.2218,-71.0351 2425.6852,-72.1449 2434.6141,-77.848 2436.2218,-71.0351"/>
</g>
<!-- Node28 -->
<g id="node29" class="node">
<title>Node28</title>
<polygon fill="none" stroke="#bfbfbf" points="2495.5,-56.5 2495.5,-75.5 2581.5,-75.5 2581.5,-56.5 2495.5,-56.5"/>
<text text-anchor="middle" x="2538.5" y="-63.5" font-family="Helvetica,sans-Serif" font-size="10.00" fill="#000000">arrow/status.h</text>
</g>
<!-- Node0&#45;&gt;Node28 -->
<g id="edge70" class="edge">
<title>Node0&#45;&gt;Node28</title>
<path fill="none" stroke="#191970" d="M2539.2029,-280.4622C2549.4471,-270.6471 2560.078,-257.9884 2565.5,-244 2586.7027,-189.2988 2580.8872,-168.6128 2565.5,-112 2562.7824,-102.0015 2557.2825,-91.9556 2551.9516,-83.8139"/>
<polygon fill="#191970" stroke="#191970" points="2554.761,-81.7239 2546.1619,-75.5346 2549.0245,-85.7354 2554.761,-81.7239"/>
</g>
<!-- Node31 -->
<g id="node32" class="node">
<title>Node31</title>
<g id="a_node32"><a xlink:href="../../d1/dc1/ArrowCompatibility_8h.html" target="_top" xlink:title="Framework/ArrowCompatibility.h">
<polygon fill="none" stroke="#000000" points="2192.5,-112.5 2192.5,-131.5 2368.5,-131.5 2368.5,-112.5 2192.5,-112.5"/>
<text text-anchor="middle" x="2280.5" y="-119.5" font-family="Helvetica,sans-Serif" font-size="10.00" fill="#000000">Framework/ArrowCompatibility.h</text>
</a>
</g>
</g>
<!-- Node0&#45;&gt;Node31 -->
<g id="edge63" class="edge">
<title>Node0&#45;&gt;Node31</title>
<path fill="none" stroke="#191970" d="M2507.1032,-280.2941C2496.3914,-246.8862 2474.2534,-183.2835 2456.5,-168 2440.1029,-153.8841 2390.8413,-141.7013 2348.5916,-133.426"/>
<polygon fill="#191970" stroke="#191970" points="2349.0655,-129.9533 2338.586,-131.5121 2347.7503,-136.8286 2349.0655,-129.9533"/>
</g>
<!-- Node40 -->
<g id="node41" class="node">
<title>Node40</title>
<polygon fill="none" stroke="#bfbfbf" points="2231,-168.5 2231,-187.5 2340,-187.5 2340,-168.5 2231,-168.5"/>
<text text-anchor="middle" x="2285.5" y="-175.5" font-family="Helvetica,sans-Serif" font-size="10.00" fill="#000000">arrow/type_traits.h</text>
</g>
<!-- Node0&#45;&gt;Node40 -->
<g id="edge69" class="edge">
<title>Node0&#45;&gt;Node40</title>
<path fill="none" stroke="#191970" d="M2475.3379,-280.4126C2429.0977,-255.4672 2352.3921,-214.0865 2312.0979,-192.3489"/>
<polygon fill="#191970" stroke="#191970" points="2313.6062,-189.1858 2303.1434,-187.5182 2310.2826,-195.3465 2313.6062,-189.1858"/>
</g>
<!-- Node41 -->
<g id="node42" class="node">
<title>Node41</title>
<polygon fill="none" stroke="#bfbfbf" points="2358,-168.5 2358,-187.5 2447,-187.5 2447,-168.5 2358,-168.5"/>
<text text-anchor="middle" x="2402.5" y="-175.5" font-family="Helvetica,sans-Serif" font-size="10.00" fill="#000000">arrow/builder.h</text>
</g>
<!-- Node0&#45;&gt;Node41 -->
<g id="edge65" class="edge">
<title>Node0&#45;&gt;Node41</title>
<path fill="none" stroke="#191970" d="M2494.676,-280.4666C2484.776,-269.6423 2472.4528,-256.1284 2461.5,-244 2446.6572,-227.564 2429.8311,-208.7205 2417.9569,-195.387"/>
<polygon fill="#191970" stroke="#191970" points="2420.528,-193.0113 2411.2654,-187.8678 2415.2988,-197.6649 2420.528,-193.0113"/>
</g>
<!-- Node43 -->
<g id="node44" class="node">
<title>Node43</title>
<polygon fill="none" stroke="#bfbfbf" points="2617.5,-224.5 2617.5,-243.5 2741.5,-243.5 2741.5,-224.5 2617.5,-224.5"/>
<text text-anchor="middle" x="2679.5" y="-231.5" font-family="Helvetica,sans-Serif" font-size="10.00" fill="#000000">arrow/memory_pool.h</text>
</g>
<!-- Node0&#45;&gt;Node43 -->
<g id="edge66" class="edge">
<title>Node0&#45;&gt;Node43</title>
<path fill="none" stroke="#191970" d="M2564.66,-280.3511C2591.167,-269.6525 2622.7806,-256.8928 2646.1217,-247.472"/>
<polygon fill="#191970" stroke="#191970" points="2647.6164,-250.6431 2655.5796,-243.6546 2644.9964,-244.1519 2647.6164,-250.6431"/>
</g>
<!-- Node44 -->
<g id="node45" class="node">
<title>Node44</title>
<polygon fill="none" stroke="#bfbfbf" points="2760,-224.5 2760,-243.5 2879,-243.5 2879,-224.5 2760,-224.5"/>
<text text-anchor="middle" x="2819.5" y="-231.5" font-family="Helvetica,sans-Serif" font-size="10.00" fill="#000000">arrow/record_batch.h</text>
</g>
<!-- Node0&#45;&gt;Node44 -->
<g id="edge67" class="edge">
<title>Node0&#45;&gt;Node44</title>
<path fill="none" stroke="#191970" d="M2607.3896,-280.4425C2659.5457,-269.0227 2722.5312,-255.2317 2766.2522,-245.6588"/>
<polygon fill="#191970" stroke="#191970" points="2767.0843,-249.0596 2776.1043,-243.5017 2765.587,-242.2216 2767.0843,-249.0596"/>
</g>
<!-- Node2 -->
<g id="node3" class="node">
<title>Node2</title>
<g id="a_node3"><a xlink:href="../../de/d33/ASoA_8h.html" target="_top" xlink:title="Framework/ASoA.h">
<polygon fill="none" stroke="#000000" points="1394.5,-168.5 1394.5,-187.5 1502.5,-187.5 1502.5,-168.5 1394.5,-168.5"/>
<text text-anchor="middle" x="1448.5" y="-175.5" font-family="Helvetica,sans-Serif" font-size="10.00" fill="#000000">Framework/ASoA.h</text>
</a>
</g>
</g>
<!-- Node1&#45;&gt;Node2 -->
<g id="edge2" class="edge">
<title>Node1&#45;&gt;Node2</title>
<path fill="none" stroke="#191970" d="M1448.5,-224.2455C1448.5,-216.9382 1448.5,-206.6944 1448.5,-197.7046"/>
<polygon fill="#191970" stroke="#191970" points="1452.0001,-197.6426 1448.5,-187.6427 1445.0001,-197.6427 1452.0001,-197.6426"/>
</g>
<!-- Node8 -->
<g id="node9" class="node">
<title>Node8</title>
<g id="a_node9"><a xlink:href="../../de/d9b/FunctionalHelpers_8h.html" target="_top" xlink:title="Framework/FunctionalHelpers.h">
<polygon fill="none" stroke="#000000" points="1890.5,-112.5 1890.5,-131.5 2060.5,-131.5 2060.5,-112.5 1890.5,-112.5"/>
<text text-anchor="middle" x="1975.5" y="-119.5" font-family="Helvetica,sans-Serif" font-size="10.00" fill="#000000">Framework/FunctionalHelpers.h</text>
</a>
</g>
</g>
<!-- Node1&#45;&gt;Node8 -->
<g id="edge50" class="edge">
<title>Node1&#45;&gt;Node8</title>
<path fill="none" stroke="#191970" d="M1493.4317,-224.4509C1589.7882,-203.9729 1816.0122,-155.8949 1920.6432,-133.6584"/>
<polygon fill="#191970" stroke="#191970" points="1921.6281,-137.0273 1930.682,-131.5249 1920.1729,-130.1802 1921.6281,-137.0273"/>
</g>
<!-- Node9 -->
<g id="node10" class="node">
<title>Node9</title>
<polygon fill="none" stroke="#bfbfbf" points="2119,-56.5 2119,-75.5 2184,-75.5 2184,-56.5 2119,-56.5"/>
<text text-anchor="middle" x="2151.5" y="-63.5" font-family="Helvetica,sans-Serif" font-size="10.00" fill="#000000">functional</text>
</g>
<!-- Node1&#45;&gt;Node9 -->
<g id="edge58" class="edge">
<title>Node1&#45;&gt;Node9</title>
<path fill="none" stroke="#191970" d="M1519.5486,-226.9314C1660.8519,-212.1276 1971.9318,-175.6009 2069.5,-132 2095.3583,-120.4446 2119.9615,-98.6904 2135.3517,-83.3216"/>
<polygon fill="#191970" stroke="#191970" points="2138.054,-85.5631 2142.5179,-75.9546 2133.0363,-80.6822 2138.054,-85.5631"/>
</g>
<!-- Node1&#45;&gt;Node19 -->
<g id="edge56" class="edge">
<title>Node1&#45;&gt;Node19</title>
<path fill="none" stroke="#191970" d="M1519.7984,-230.4077C1608.8094,-225.0739 1765.4381,-212.887 1897.5,-188 1989.0524,-170.747 2012.0299,-164.0701 2099.5,-132 2140.8359,-116.8446 2186.7447,-94.6441 2215.1215,-80.2563"/>
<polygon fill="#191970" stroke="#191970" points="2217.0806,-83.1856 2224.3914,-75.5173 2213.8942,-76.9529 2217.0806,-83.1856"/>
</g>
<!-- Node24 -->
<g id="node25" class="node">
<title>Node24</title>
<polygon fill="none" stroke="#bfbfbf" points="1519.5,-56.5 1519.5,-75.5 1563.5,-75.5 1563.5,-56.5 1519.5,-56.5"/>
<text text-anchor="middle" x="1541.5" y="-63.5" font-family="Helvetica,sans-Serif" font-size="10.00" fill="#000000">string</text>
</g>
<!-- Node1&#45;&gt;Node24 -->
<g id="edge60" class="edge">
<title>Node1&#45;&gt;Node24</title>
<path fill="none" stroke="#191970" d="M1429.7326,-224.3054C1402.618,-209.0212 1353.935,-176.4281 1337.5,-132 1334.416,-123.6632 1331.8913,-118.896 1337.5,-112 1385.1189,-53.4519 1430.8598,-92.7291 1509.4801,-75.845"/>
<polygon fill="#191970" stroke="#191970" points="1510.3301,-79.2405 1519.2332,-73.4972 1508.6918,-72.4349 1510.3301,-79.2405"/>
</g>
<!-- Node1&#45;&gt;Node25 -->
<g id="edge61" class="edge">
<title>Node1&#45;&gt;Node25</title>
<path fill="none" stroke="#191970" d="M1519.6333,-228.395C1731.384,-211.4216 2344.9972,-160.0322 2377.5,-132 2390.5954,-120.7058 2394.9511,-101.0256 2396.2667,-86.0861"/>
<polygon fill="#191970" stroke="#191970" points="2399.7769,-85.9638 2396.7745,-75.8033 2392.7854,-85.6184 2399.7769,-85.9638"/>
</g>
<!-- Node35 -->
<g id="node36" class="node">
<title>Node35</title>
<g id="a_node36"><a xlink:href="../../db/d4f/StructToTuple_8h.html" target="_top" xlink:title="Framework/StructToTuple.h">
<polygon fill="none" stroke="#000000" points="790,-168.5 790,-187.5 937,-187.5 937,-168.5 790,-168.5"/>
<text text-anchor="middle" x="863.5" y="-175.5" font-family="Helvetica,sans-Serif" font-size="10.00" fill="#000000">Framework/StructToTuple.h</text>
</a>
</g>
</g>
<!-- Node1&#45;&gt;Node35 -->
<g id="edge46" class="edge">
<title>Node1&#45;&gt;Node35</title>
<path fill="none" stroke="#191970" d="M1377.3589,-228.1243C1282.0137,-220.1057 1107.2436,-204.9046 947.281,-188.057"/>
<polygon fill="#191970" stroke="#191970" points="947.5665,-184.5678 937.2539,-186.9967 946.8303,-191.529 947.5665,-184.5678"/>
</g>
<!-- Node36 -->
<g id="node37" class="node">
<title>Node36</title>
<polygon fill="none" stroke="#bfbfbf" points="737,-112.5 737,-131.5 778,-131.5 778,-112.5 737,-112.5"/>
<text text-anchor="middle" x="757.5" y="-119.5" font-family="Helvetica,sans-Serif" font-size="10.00" fill="#000000">tuple</text>
</g>
<!-- Node1&#45;&gt;Node36 -->
<g id="edge62" class="edge">
<title>Node1&#45;&gt;Node36</title>
<path fill="none" stroke="#191970" d="M1377.4975,-233.472C1215.1319,-231.6502 827.1009,-223.5818 780.5,-188 766.2204,-177.0969 760.7649,-156.7281 758.7029,-141.4902"/>
<polygon fill="#191970" stroke="#191970" points="762.1835,-141.1205 757.7235,-131.5101 755.217,-141.8042 762.1835,-141.1205"/>
</g>
<!-- Node37 -->
<g id="node38" class="node">
<title>Node37</title>
<g id="a_node38"><a xlink:href="../../d7/dbe/VariantHelpers_8h.html" target="_top" xlink:title="Framework/VariantHelpers.h">
<polygon fill="none" stroke="#000000" points="956,-168.5 956,-187.5 1111,-187.5 1111,-168.5 956,-168.5"/>
<text text-anchor="middle" x="1033.5" y="-175.5" font-family="Helvetica,sans-Serif" font-size="10.00" fill="#000000">Framework/VariantHelpers.h</text>
</a>
</g>
</g>
<!-- Node1&#45;&gt;Node37 -->
<g id="edge51" class="edge">
<title>Node1&#45;&gt;Node37</title>
<path fill="none" stroke="#191970" d="M1377.6305,-224.4369C1304.5175,-214.571 1190.6648,-199.2078 1114.1504,-188.8829"/>
<polygon fill="#191970" stroke="#191970" points="1114.4555,-185.3925 1104.0772,-187.5237 1113.5193,-192.3296 1114.4555,-185.3925"/>
</g>
<!-- Node38 -->
<g id="node39" class="node">
<title>Node38</title>
<polygon fill="none" stroke="#bfbfbf" points="1130.5,-168.5 1130.5,-187.5 1186.5,-187.5 1186.5,-168.5 1130.5,-168.5"/>
<text text-anchor="middle" x="1158.5" y="-175.5" font-family="Helvetica,sans-Serif" font-size="10.00" fill="#000000">sstream</text>
</g>
<!-- Node1&#45;&gt;Node38 -->
<g id="edge53" class="edge">
<title>Node1&#45;&gt;Node38</title>
<path fill="none" stroke="#191970" d="M1388.1478,-224.4942C1339.0196,-216.4221 1267.6913,-203.9465 1196.7291,-188.1417"/>
<polygon fill="#191970" stroke="#191970" points="1197.2452,-184.6704 1186.7208,-185.8896 1195.7085,-191.4996 1197.2452,-184.6704"/>
</g>
<!-- Node39 -->
<g id="node40" class="node">
<title>Node39</title>
<polygon fill="none" stroke="#bfbfbf" points="1204.5,-168.5 1204.5,-187.5 1272.5,-187.5 1272.5,-168.5 1204.5,-168.5"/>
<text text-anchor="middle" x="1238.5" y="-175.5" font-family="Helvetica,sans-Serif" font-size="10.00" fill="#000000">arrow/stl.h</text>
</g>
<!-- Node1&#45;&gt;Node39 -->
<g id="edge54" class="edge">
<title>Node1&#45;&gt;Node39</title>
<path fill="none" stroke="#191970" d="M1412.3997,-224.3733C1376.4446,-214.7852 1321.1914,-200.051 1282.6461,-189.7723"/>
<polygon fill="#191970" stroke="#191970" points="1283.3028,-186.3252 1272.7386,-187.1303 1281.4991,-193.0888 1283.3028,-186.3252"/>
</g>
<!-- Node1&#45;&gt;Node40 -->
<g id="edge55" class="edge">
<title>Node1&#45;&gt;Node40</title>
<path fill="none" stroke="#191970" d="M1519.6021,-231.74C1655.3495,-226.9825 1960.7065,-214.1495 2216.5,-188 2217.9676,-187.85 2219.4518,-187.6916 2220.9477,-187.5259"/>
<polygon fill="#191970" stroke="#191970" points="2221.4217,-190.9943 2230.9392,-186.3396 2220.5963,-184.0431 2221.4217,-190.9943"/>
</g>
<!-- Node1&#45;&gt;Node41 -->
<g id="edge57" class="edge">
<title>Node1&#45;&gt;Node41</title>
<path fill="none" stroke="#191970" d="M1519.7702,-231.5756C1699.7197,-225.2623 2170.0843,-207.5187 2347.7674,-187.8965"/>
<polygon fill="#191970" stroke="#191970" points="2348.2425,-191.365 2357.7801,-186.7517 2347.4472,-184.4104 2348.2425,-191.365"/>
</g>
<!-- Node42 -->
<g id="node43" class="node">
<title>Node42</title>
<polygon fill="none" stroke="#bfbfbf" points="1291,-168.5 1291,-187.5 1338,-187.5 1338,-168.5 1291,-168.5"/>
<text text-anchor="middle" x="1314.5" y="-175.5" font-family="Helvetica,sans-Serif" font-size="10.00" fill="#000000">vector</text>
</g>
<!-- Node1&#45;&gt;Node42 -->
<g id="edge59" class="edge">
<title>Node1&#45;&gt;Node42</title>
<path fill="none" stroke="#191970" d="M1425.4646,-224.3733C1403.7612,-215.3032 1371.0382,-201.6279 1346.745,-191.4755"/>
<polygon fill="#191970" stroke="#191970" points="1347.8111,-188.1278 1337.2348,-187.5011 1345.1119,-194.5865 1347.8111,-188.1278"/>
</g>
<!-- Node3 -->
<g id="node4" class="node">
<title>Node3</title>
<g id="a_node4"><a xlink:href="../../dd/dce/Pack_8h.html" target="_top" xlink:title="Framework/Pack.h">
<polygon fill="none" stroke="#000000" points="1582,-56.5 1582,-75.5 1687,-75.5 1687,-56.5 1582,-56.5"/>
<text text-anchor="middle" x="1634.5" y="-63.5" font-family="Helvetica,sans-Serif" font-size="10.00" fill="#000000">Framework/Pack.h</text>
</a>
</g>
</g>
<!-- Node2&#45;&gt;Node3 -->
<g id="edge3" class="edge">
<title>Node2&#45;&gt;Node3</title>
<path fill="none" stroke="#191970" d="M1408.7164,-168.4527C1371.347,-157.6384 1324.2519,-138.0726 1346.5,-112 1377.77,-75.3547 1507.5326,-83.0542 1571.6639,-75.8665"/>
<polygon fill="#191970" stroke="#191970" points="1572.2891,-79.3141 1581.7359,-74.5175 1571.3598,-72.3761 1572.2891,-79.3141"/>
</g>
<!-- Node7 -->
<g id="node8" class="node">
<title>Node7</title>
<g id="a_node8"><a xlink:href="../../d1/d00/CheckTypes_8h.html" target="_top" xlink:title="Framework/CheckTypes.h">
<polygon fill="none" stroke="#000000" points="269.5,-56.5 269.5,-75.5 409.5,-75.5 409.5,-56.5 269.5,-56.5"/>
<text text-anchor="middle" x="339.5" y="-63.5" font-family="Helvetica,sans-Serif" font-size="10.00" fill="#000000">Framework/CheckTypes.h</text>
</a>
</g>
</g>
<!-- Node2&#45;&gt;Node7 -->
<g id="edge7" class="edge">
<title>Node2&#45;&gt;Node7</title>
<path fill="none" stroke="#191970" d="M1394.3537,-172.4168C1296.6722,-162.2035 1098.2148,-140.7575 1067.5,-132 1047.2306,-126.2207 1044.9357,-117.1603 1024.5,-112 766.0965,-46.7491 689.0287,-99.6301 419.7563,-76.0403"/>
<polygon fill="#191970" stroke="#191970" points="419.959,-72.5445 409.6846,-75.1303 419.3291,-79.5161 419.959,-72.5445"/>
</g>
<!-- Node2&#45;&gt;Node8 -->
<g id="edge8" class="edge">
<title>Node2&#45;&gt;Node8</title>
<path fill="none" stroke="#191970" d="M1502.9133,-172.2179C1591.9161,-162.7603 1769.7425,-143.8642 1880.079,-132.1396"/>
<polygon fill="#191970" stroke="#191970" points="1880.6364,-135.6002 1890.2106,-131.063 1879.8967,-128.6394 1880.6364,-135.6002"/>
</g>
<!-- Node10 -->
<g id="node11" class="node">
<title>Node10</title>
<g id="a_node11"><a xlink:href="../../d9/de8/CompilerBuiltins_8h.html" target="_top" xlink:title="Framework/CompilerBuiltins.h">
<polygon fill="none" stroke="#000000" points="87.5,-56.5 87.5,-75.5 251.5,-75.5 251.5,-56.5 87.5,-56.5"/>
<text text-anchor="middle" x="169.5" y="-63.5" font-family="Helvetica,sans-Serif" font-size="10.00" fill="#000000">Framework/CompilerBuiltins.h</text>
</a>
</g>
</g>
<!-- Node2&#45;&gt;Node10 -->
<g id="edge11" class="edge">
<title>Node2&#45;&gt;Node10</title>
<path fill="none" stroke="#191970" d="M1394.105,-172.6155C1283.6469,-161.6101 1041.9932,-137.1414 1024.5,-132 1005.4304,-126.3953 1003.7251,-117.0457 984.5,-112 831.7324,-71.9056 436.9043,-88.1348 262.0056,-76.027"/>
<polygon fill="#191970" stroke="#191970" points="262.0511,-72.5208 251.819,-75.269 261.5316,-79.5015 262.0511,-72.5208"/>
</g>
<!-- Node11 -->
<g id="node12" class="node">
<title>Node11</title>
<g id="a_node12"><a xlink:href="../../db/d31/Traits_8h.html" target="_top" xlink:title="Framework/Traits.h">
<polygon fill="none" stroke="#000000" points="835,-112.5 835,-131.5 944,-131.5 944,-112.5 835,-112.5"/>
<text text-anchor="middle" x="889.5" y="-119.5" font-family="Helvetica,sans-Serif" font-size="10.00" fill="#000000">Framework/Traits.h</text>
</a>
</g>
</g>
<!-- Node2&#45;&gt;Node11 -->
<g id="edge12" class="edge">
<title>Node2&#45;&gt;Node11</title>
<path fill="none" stroke="#191970" d="M1394.3928,-172.5796C1290.901,-162.2119 1065.3313,-139.6146 954.1225,-128.4738"/>
<polygon fill="#191970" stroke="#191970" points="954.3478,-124.979 944.0487,-127.4646 953.65,-131.9441 954.3478,-124.979"/>
</g>
<!-- Node13 -->
<g id="node14" class="node">
<title>Node13</title>
<g id="a_node14"><a xlink:href="../../d0/d91/Expressions_8h.html" target="_top" xlink:title="Framework/Expressions.h">
<polygon fill="none" stroke="#000000" points="1077,-112.5 1077,-131.5 1218,-131.5 1218,-112.5 1077,-112.5"/>
<text text-anchor="middle" x="1147.5" y="-119.5" font-family="Helvetica,sans-Serif" font-size="10.00" fill="#000000">Framework/Expressions.h</text>
</a>
</g>
</g>
<!-- Node2&#45;&gt;Node13 -->
<g id="edge14" class="edge">
<title>Node2&#45;&gt;Node13</title>
<path fill="none" stroke="#191970" d="M1397.0983,-168.4369C1344.9351,-158.7321 1264.1803,-143.708 1208.7354,-133.3926"/>
<polygon fill="#191970" stroke="#191970" points="1209.1612,-129.9119 1198.6897,-131.5237 1207.8808,-136.7938 1209.1612,-129.9119"/>
</g>
<!-- Node2&#45;&gt;Node19 -->
<g id="edge39" class="edge">
<title>Node2&#45;&gt;Node19</title>
<path fill="none" stroke="#191970" d="M1502.5933,-176.0075C1633.0521,-170.8781 1962.1323,-155.9192 2069.5,-132 2122.1895,-120.2619 2180.1927,-95.525 2213.8677,-79.8931"/>
<polygon fill="#191970" stroke="#191970" points="2215.5405,-82.9742 2223.1004,-75.5513 2212.5616,-76.6397 2215.5405,-82.9742"/>
</g>
<!-- Node20 -->
<g id="node21" class="node">
<title>Node20</title>
<polygon fill="none" stroke="#bfbfbf" points="1208,-56.5 1208,-75.5 1355,-75.5 1355,-56.5 1208,-56.5"/>
<text text-anchor="middle" x="1281.5" y="-63.5" font-family="Helvetica,sans-Serif" font-size="10.00" fill="#000000">gandiva/selection_vector.h</text>
</g>
<!-- Node2&#45;&gt;Node20 -->
<g id="edge44" class="edge">
<title>Node2&#45;&gt;Node20</title>
<path fill="none" stroke="#191970" d="M1394.4218,-171.3154C1365.8271,-165.2762 1331.9,-153.798 1308.5,-132 1295.3622,-119.7616 1288.4445,-100.207 1284.9158,-85.5539"/>
<polygon fill="#191970" stroke="#191970" points="1288.2897,-84.5867 1282.8311,-75.5063 1281.4357,-86.0088 1288.2897,-84.5867"/>
</g>
<!-- Node26 -->
<g id="node27" class="node">
<title>Node26</title>
<g id="a_node27"><a xlink:href="../../d0/d92/Kernels_8h.html" target="_top" xlink:title="Framework/Kernels.h">
<polygon fill="none" stroke="#000000" points="1389,-112.5 1389,-131.5 1508,-131.5 1508,-112.5 1389,-112.5"/>
<text text-anchor="middle" x="1448.5" y="-119.5" font-family="Helvetica,sans-Serif" font-size="10.00" fill="#000000">Framework/Kernels.h</text>
</a>
</g>
</g>
<!-- Node2&#45;&gt;Node26 -->
<g id="edge30" class="edge">
<title>Node2&#45;&gt;Node26</title>
<path fill="none" stroke="#191970" d="M1448.5,-168.2455C1448.5,-160.9382 1448.5,-150.6944 1448.5,-141.7046"/>
<polygon fill="#191970" stroke="#191970" points="1452.0001,-141.6426 1448.5,-131.6427 1445.0001,-141.6427 1452.0001,-141.6426"/>
</g>
<!-- Node27 -->
<g id="node28" class="node">
<title>Node27</title>
<polygon fill="none" stroke="#bfbfbf" points="1705,-56.5 1705,-75.5 1838,-75.5 1838,-56.5 1705,-56.5"/>
<text text-anchor="middle" x="1771.5" y="-63.5" font-family="Helvetica,sans-Serif" font-size="10.00" fill="#000000">arrow/compute/kernel.h</text>
</g>
<!-- Node2&#45;&gt;Node27 -->
<g id="edge43" class="edge">
<title>Node2&#45;&gt;Node27</title>
<path fill="none" stroke="#191970" d="M1425.4217,-168.4325C1398.6282,-156.0145 1360.4037,-133.3954 1379.5,-112 1424.6781,-61.3828 1609.6747,-82.7064 1694.6827,-75.857"/>
<polygon fill="#191970" stroke="#191970" points="1695.1789,-79.3249 1704.7803,-74.8456 1694.4812,-72.3597 1695.1789,-79.3249"/>
</g>
<!-- Node30 -->
<g id="node31" class="node">
<title>Node30</title>
<polygon fill="none" stroke="#bfbfbf" points="1990.5,-56.5 1990.5,-75.5 2100.5,-75.5 2100.5,-56.5 1990.5,-56.5"/>
<text text-anchor="middle" x="2045.5" y="-63.5" font-family="Helvetica,sans-Serif" font-size="10.00" fill="#000000">arrow/util/variant.h</text>
</g>
<!-- Node2&#45;&gt;Node30 -->
<g id="edge41" class="edge">
<title>Node2&#45;&gt;Node30</title>
<path fill="none" stroke="#191970" d="M1502.6993,-174.1613C1595.5785,-167.1716 1781.1753,-151.2933 1843.5,-132 1861.7317,-126.3562 1863.7689,-119.0608 1881.5,-112 1917.4766,-97.6735 1959.5602,-85.9672 1992.089,-77.9494"/>
<polygon fill="#191970" stroke="#191970" points="1992.9662,-81.3382 2001.8601,-75.5807 1991.3169,-74.5352 1992.9662,-81.3382"/>
</g>
<!-- Node2&#45;&gt;Node31 -->
<g id="edge37" class="edge">
<title>Node2&#45;&gt;Node31</title>
<path fill="none" stroke="#191970" d="M1502.7689,-174.3473C1640.6268,-165.0684 2005.8465,-140.4863 2182.3154,-128.6086"/>
<polygon fill="#191970" stroke="#191970" points="2182.6338,-132.0952 2192.3761,-127.9314 2182.1636,-125.111 2182.6338,-132.0952"/>
</g>
<!-- Node32 -->
<g id="node33" class="node">
<title>Node32</title>
<polygon fill="none" stroke="#bfbfbf" points="1526.5,-112.5 1526.5,-131.5 1606.5,-131.5 1606.5,-112.5 1526.5,-112.5"/>
<text text-anchor="middle" x="1566.5" y="-119.5" font-family="Helvetica,sans-Serif" font-size="10.00" fill="#000000">arrow/array.h</text>
</g>
<!-- Node2&#45;&gt;Node32 -->
<g id="edge40" class="edge">
<title>Node2&#45;&gt;Node32</title>
<path fill="none" stroke="#191970" d="M1468.7849,-168.3733C1487.6421,-159.4241 1515.946,-145.9917 1537.2455,-135.8835"/>
<polygon fill="#191970" stroke="#191970" points="1538.9461,-138.9506 1546.4798,-131.5011 1535.9449,-132.6266 1538.9461,-138.9506"/>
</g>
<!-- Node33 -->
<g id="node34" class="node">
<title>Node33</title>
<polygon fill="none" stroke="#bfbfbf" points="1625,-112.5 1625,-131.5 1764,-131.5 1764,-112.5 1625,-112.5"/>
<text text-anchor="middle" x="1694.5" y="-119.5" font-family="Helvetica,sans-Serif" font-size="10.00" fill="#000000">arrow/compute/context.h</text>
</g>
<!-- Node2&#45;&gt;Node33 -->
<g id="edge42" class="edge">
<title>Node2&#45;&gt;Node33</title>
<path fill="none" stroke="#191970" d="M1490.5094,-168.4369C1532.6104,-158.8529 1597.5005,-144.0812 1642.7521,-133.78"/>
<polygon fill="#191970" stroke="#191970" points="1643.6902,-137.1561 1652.6639,-131.5237 1642.1364,-130.3307 1643.6902,-137.1561"/>
</g>
<!-- Node34 -->
<g id="node35" class="node">
<title>Node34</title>
<polygon fill="none" stroke="#bfbfbf" points="1782.5,-112.5 1782.5,-131.5 1834.5,-131.5 1834.5,-112.5 1782.5,-112.5"/>
<text text-anchor="middle" x="1808.5" y="-119.5" font-family="Helvetica,sans-Serif" font-size="10.00" fill="#000000">cassert</text>
</g>
<!-- Node2&#45;&gt;Node34 -->
<g id="edge45" class="edge">
<title>Node2&#45;&gt;Node34</title>
<path fill="none" stroke="#191970" d="M1502.7617,-172.4773C1567.4177,-165.3953 1678.5141,-151.6387 1772.5,-132 1772.5992,-131.9793 1772.6986,-131.9584 1772.798,-131.9375"/>
<polygon fill="#191970" stroke="#191970" points="1773.3166,-135.411 1782.2506,-129.7159 1771.7151,-128.5967 1773.3166,-135.411"/>
</g>
<!-- Node4 -->
<g id="node5" class="node">
<title>Node4</title>
<polygon fill="none" stroke="#bfbfbf" points="1541,-.5 1541,-19.5 1594,-19.5 1594,-.5 1541,-.5"/>
<text text-anchor="middle" x="1567.5" y="-7.5" font-family="Helvetica,sans-Serif" font-size="10.00" fill="#000000">cstddef</text>
</g>
<!-- Node3&#45;&gt;Node4 -->
<g id="edge4" class="edge">
<title>Node3&#45;&gt;Node4</title>
<path fill="none" stroke="#191970" d="M1622.8295,-56.2455C1612.9339,-47.9746 1598.5373,-35.9416 1586.9099,-26.2232"/>
<polygon fill="#191970" stroke="#191970" points="1588.9542,-23.3703 1579.0368,-19.6427 1584.465,-28.7413 1588.9542,-23.3703"/>
</g>
<!-- Node5 -->
<g id="node6" class="node">
<title>Node5</title>
<polygon fill="none" stroke="#bfbfbf" points="1612,-.5 1612,-19.5 1657,-19.5 1657,-.5 1612,-.5"/>
<text text-anchor="middle" x="1634.5" y="-7.5" font-family="Helvetica,sans-Serif" font-size="10.00" fill="#000000">utility</text>
</g>
<!-- Node3&#45;&gt;Node5 -->
<g id="edge5" class="edge">
<title>Node3&#45;&gt;Node5</title>
<path fill="none" stroke="#191970" d="M1634.5,-56.2455C1634.5,-48.9382 1634.5,-38.6944 1634.5,-29.7046"/>
<polygon fill="#191970" stroke="#191970" points="1638.0001,-29.6426 1634.5,-19.6427 1631.0001,-29.6427 1638.0001,-29.6426"/>
</g>
<!-- Node6 -->
<g id="node7" class="node">
<title>Node6</title>
<polygon fill="none" stroke="#bfbfbf" points="1675.5,-.5 1675.5,-19.5 1721.5,-19.5 1721.5,-.5 1675.5,-.5"/>
<text text-anchor="middle" x="1698.5" y="-7.5" font-family="Helvetica,sans-Serif" font-size="10.00" fill="#000000">cstdio</text>
</g>
<!-- Node3&#45;&gt;Node6 -->
<g id="edge6" class="edge">
<title>Node3&#45;&gt;Node6</title>
<path fill="none" stroke="#191970" d="M1645.6479,-56.2455C1655.0087,-48.0549 1668.5858,-36.1749 1679.6349,-26.5069"/>
<polygon fill="#191970" stroke="#191970" points="1682.2588,-28.8618 1687.4798,-19.6427 1677.6492,-23.5937 1682.2588,-28.8618"/>
</g>
<!-- Node8&#45;&gt;Node3 -->
<g id="edge9" class="edge">
<title>Node8&#45;&gt;Node3</title>
<path fill="none" stroke="#191970" d="M1917.2675,-112.4369C1856.0927,-102.3906 1760.2069,-86.6439 1697.3508,-76.3215"/>
<polygon fill="#191970" stroke="#191970" points="1697.607,-72.8168 1687.1719,-74.6499 1696.4726,-79.7243 1697.607,-72.8168"/>
</g>
<!-- Node8&#45;&gt;Node9 -->
<g id="edge10" class="edge">
<title>Node8&#45;&gt;Node9</title>
<path fill="none" stroke="#191970" d="M2005.7555,-112.3733C2035.1483,-103.021 2079.9292,-88.7725 2112.0934,-78.5385"/>
<polygon fill="#191970" stroke="#191970" points="2113.1713,-81.8685 2121.6393,-75.5011 2111.0488,-75.198 2113.1713,-81.8685"/>
</g>
<!-- Node12 -->
<g id="node13" class="node">
<title>Node12</title>
<polygon fill="none" stroke="#bfbfbf" points="0,-56.5 0,-75.5 69,-75.5 69,-56.5 0,-56.5"/>
<text text-anchor="middle" x="34.5" y="-63.5" font-family="Helvetica,sans-Serif" font-size="10.00" fill="#000000">type_traits</text>
</g>
<!-- Node11&#45;&gt;Node12 -->
<g id="edge13" class="edge">
<title>Node11&#45;&gt;Node12</title>
<path fill="none" stroke="#191970" d="M834.9449,-113.603C830.0674,-113.0008 825.1989,-112.4534 820.5,-112 495.2308,-80.6114 407.4121,-119.9347 79.7256,-75.9215"/>
<polygon fill="#191970" stroke="#191970" points="79.8435,-72.4054 69.4632,-74.5265 78.9006,-79.3416 79.8435,-72.4054"/>
</g>
<!-- Node13&#45;&gt;Node3 -->
<g id="edge17" class="edge">
<title>Node13&#45;&gt;Node3</title>
<path fill="none" stroke="#191970" d="M1218.3238,-115.4729C1300.6508,-107.6292 1440.8532,-93.4812 1571.5669,-76.0655"/>
<polygon fill="#191970" stroke="#191970" points="1572.3167,-79.4963 1581.7625,-74.6977 1571.3859,-72.5585 1572.3167,-79.4963"/>
</g>
<!-- Node13&#45;&gt;Node7 -->
<g id="edge18" class="edge">
<title>Node13&#45;&gt;Node7</title>
<path fill="none" stroke="#191970" d="M1076.572,-113.3263C1071.813,-112.8459 1067.089,-112.3978 1062.5,-112 780.249,-87.5311 705.7243,-101.6751 419.9395,-76.0708"/>
<polygon fill="#191970" stroke="#191970" points="419.9581,-72.5583 409.6834,-75.1431 419.3274,-79.5298 419.9581,-72.5583"/>
</g>
<!-- Node13&#45;&gt;Node10 -->
<g id="edge16" class="edge">
<title>Node13&#45;&gt;Node10</title>
<path fill="none" stroke="#191970" d="M1076.9579,-115.8502C1059.8001,-114.4689 1041.4976,-113.0911 1024.5,-112 688.5787,-90.4366 601.093,-102.3407 261.9266,-76.0672"/>
<polygon fill="#191970" stroke="#191970" points="262.0601,-72.567 251.8182,-75.2786 261.5157,-79.5458 262.0601,-72.567"/>
</g>
<!-- Node14 -->
<g id="node15" class="node">
<title>Node14</title>
<g id="a_node15"><a xlink:href="../../dd/dc2/BasicOps_8h.html" target="_top" xlink:title="Framework/BasicOps.h">
<polygon fill="none" stroke="#000000" points="1373.5,-56.5 1373.5,-75.5 1501.5,-75.5 1501.5,-56.5 1373.5,-56.5"/>
<text text-anchor="middle" x="1437.5" y="-63.5" font-family="Helvetica,sans-Serif" font-size="10.00" fill="#000000">Framework/BasicOps.h</text>
</a>
</g>
</g>
<!-- Node13&#45;&gt;Node14 -->
<g id="edge15" class="edge">
<title>Node13&#45;&gt;Node14</title>
<path fill="none" stroke="#191970" d="M1197.0233,-112.4369C1247.1759,-102.7522 1324.761,-87.7703 1378.1697,-77.4569"/>
<polygon fill="#191970" stroke="#191970" points="1379.026,-80.8563 1388.181,-75.5237 1377.6987,-73.9832 1379.026,-80.8563"/>
</g>
<!-- Node15 -->
<g id="node16" class="node">
<title>Node15</title>
<polygon fill="none" stroke="#bfbfbf" points="828,-56.5 828,-75.5 929,-75.5 929,-56.5 828,-56.5"/>
<text text-anchor="middle" x="878.5" y="-63.5" font-family="Helvetica,sans-Serif" font-size="10.00" fill="#000000">arrow/type_fwd.h</text>
</g>
<!-- Node13&#45;&gt;Node15 -->
<g id="edge19" class="edge">
<title>Node13&#45;&gt;Node15</title>
<path fill="none" stroke="#191970" d="M1101.5629,-112.4369C1055.2355,-102.7925 983.6732,-87.8948 934.1531,-77.5858"/>
<polygon fill="#191970" stroke="#191970" points="934.7511,-74.1353 924.2476,-75.5237 933.3244,-80.9884 934.7511,-74.1353"/>
</g>
<!-- Node16 -->
<g id="node17" class="node">
<title>Node16</title>
<polygon fill="none" stroke="#bfbfbf" points="947.5,-56.5 947.5,-75.5 1093.5,-75.5 1093.5,-56.5 947.5,-56.5"/>
<text text-anchor="middle" x="1020.5" y="-63.5" font-family="Helvetica,sans-Serif" font-size="10.00" fill="#000000">gandiva/gandiva_aliases.h</text>
</g>
<!-- Node13&#45;&gt;Node16 -->
<g id="edge20" class="edge">
<title>Node13&#45;&gt;Node16</title>
<path fill="none" stroke="#191970" d="M1125.6679,-112.3733C1105.1897,-103.3435 1074.3601,-89.7494 1051.3681,-79.6111"/>
<polygon fill="#191970" stroke="#191970" points="1052.6093,-76.3333 1042.0472,-75.5011 1049.785,-82.7383 1052.6093,-76.3333"/>
</g>
<!-- Node17 -->
<g id="node18" class="node">
<title>Node17</title>
<polygon fill="none" stroke="#bfbfbf" points="1111.5,-56.5 1111.5,-75.5 1189.5,-75.5 1189.5,-56.5 1111.5,-56.5"/>
<text text-anchor="middle" x="1150.5" y="-63.5" font-family="Helvetica,sans-Serif" font-size="10.00" fill="#000000">arrow/type.h</text>
</g>
<!-- Node13&#45;&gt;Node17 -->
<g id="edge21" class="edge">
<title>Node13&#45;&gt;Node17</title>
<path fill="none" stroke="#191970" d="M1148.0226,-112.2455C1148.414,-104.9382 1148.9628,-94.6944 1149.4444,-85.7046"/>
<polygon fill="#191970" stroke="#191970" points="1152.9434,-85.8156 1149.9834,-75.6427 1145.9534,-85.4411 1152.9434,-85.8156"/>
</g>
<!-- Node18 -->
<g id="node19" class="node">
<title>Node18</title>
<polygon fill="none" stroke="#bfbfbf" points="428,-56.5 428,-75.5 523,-75.5 523,-56.5 428,-56.5"/>
<text text-anchor="middle" x="475.5" y="-63.5" font-family="Helvetica,sans-Serif" font-size="10.00" fill="#000000">gandiva/arrow.h</text>
</g>
<!-- Node13&#45;&gt;Node18 -->
<g id="edge22" class="edge">
<title>Node13&#45;&gt;Node18</title>
<path fill="none" stroke="#191970" d="M1076.5663,-113.39C1071.8087,-112.8942 1067.0865,-112.4253 1062.5,-112 830.7391,-90.5091 768.6286,-104.0426 533.2793,-75.9622"/>
<polygon fill="#191970" stroke="#191970" points="533.3768,-72.4487 523.0297,-74.7262 532.5387,-79.3983 533.3768,-72.4487"/>
</g>
<!-- Node13&#45;&gt;Node19 -->
<g id="edge23" class="edge">
<title>Node13&#45;&gt;Node19</title>
<path fill="none" stroke="#191970" d="M1218.0446,-118.9303C1437.8534,-109.3613 2100.6865,-80.4727 2191.7588,-75.3357"/>
<polygon fill="#191970" stroke="#191970" points="2192.1807,-78.8154 2201.9251,-74.6563 2191.7139,-71.8309 2192.1807,-78.8154"/>
</g>
<!-- Node13&#45;&gt;Node20 -->
<g id="edge24" class="edge">
<title>Node13&#45;&gt;Node20</title>
<path fill="none" stroke="#191970" d="M1170.5354,-112.3733C1192.2388,-103.3032 1224.9618,-89.6279 1249.255,-79.4755"/>
<polygon fill="#191970" stroke="#191970" points="1250.8881,-82.5865 1258.7652,-75.5011 1248.1889,-76.1278 1250.8881,-82.5865"/>
</g>
<!-- Node21 -->
<g id="node22" class="node">
<title>Node21</title>
<polygon fill="none" stroke="#bfbfbf" points="541.5,-56.5 541.5,-75.5 633.5,-75.5 633.5,-56.5 541.5,-56.5"/>
<text text-anchor="middle" x="587.5" y="-63.5" font-family="Helvetica,sans-Serif" font-size="10.00" fill="#000000">gandiva/node.h</text>
</g>
<!-- Node13&#45;&gt;Node21 -->
<g id="edge25" class="edge">
<title>Node13&#45;&gt;Node21</title>
<path fill="none" stroke="#191970" d="M1076.5572,-113.484C1071.8017,-112.9655 1067.0826,-112.4658 1062.5,-112 879.3859,-93.3855 829.9314,-100.5212 643.7881,-76.0632"/>
<polygon fill="#191970" stroke="#191970" points="644.0371,-72.5656 633.6635,-74.7196 643.1162,-79.5048 644.0371,-72.5656"/>
</g>
<!-- Node22 -->
<g id="node23" class="node">
<title>Node22</title>
<polygon fill="none" stroke="#bfbfbf" points="652,-56.5 652,-75.5 741,-75.5 741,-56.5 652,-56.5"/>
<text text-anchor="middle" x="696.5" y="-63.5" font-family="Helvetica,sans-Serif" font-size="10.00" fill="#000000">gandiva/filter.h</text>
</g>
<!-- Node13&#45;&gt;Node22 -->
<g id="edge26" class="edge">
<title>Node13&#45;&gt;Node22</title>
<path fill="none" stroke="#191970" d="M1076.5404,-113.6379C1071.789,-113.0822 1067.0753,-112.5323 1062.5,-112 926.6697,-96.1987 889.6647,-96.9492 751.4127,-76.2143"/>
<polygon fill="#191970" stroke="#191970" points="751.6914,-72.7168 741.2808,-74.6837 750.6458,-79.6382 751.6914,-72.7168"/>
</g>
<!-- Node23 -->
<g id="node24" class="node">
<title>Node23</title>
<polygon fill="none" stroke="#bfbfbf" points="759,-56.5 759,-75.5 810,-75.5 810,-56.5 759,-56.5"/>
<text text-anchor="middle" x="784.5" y="-63.5" font-family="Helvetica,sans-Serif" font-size="10.00" fill="#000000">variant</text>
</g>
<!-- Node13&#45;&gt;Node23 -->
<g id="edge27" class="edge">
<title>Node13&#45;&gt;Node23</title>
<path fill="none" stroke="#191970" d="M1076.9232,-113.3692C999.8565,-103.7386 880.3222,-88.147 819.891,-76.012"/>
<polygon fill="#191970" stroke="#191970" points="820.5214,-72.5682 810.0161,-73.9425 819.0855,-79.4193 820.5214,-72.5682"/>
</g>
<!-- Node13&#45;&gt;Node24 -->
<g id="edge28" class="edge">
<title>Node13&#45;&gt;Node24</title>
<path fill="none" stroke="#191970" d="M1218.2602,-113.3759C1310.5216,-102.0862 1464.6442,-83.0575 1509.2826,-75.5994"/>
<polygon fill="#191970" stroke="#191970" points="1510.1078,-79.0056 1519.2856,-73.7125 1508.8101,-72.1269 1510.1078,-79.0056"/>
</g>
<!-- Node13&#45;&gt;Node25 -->
<g id="edge29" class="edge">
<title>Node13&#45;&gt;Node25</title>
<path fill="none" stroke="#191970" d="M1218.0604,-118.8922C1264.0333,-116.8837 1325.3222,-114.2369 1379.5,-112 1784.8037,-95.2656 1886.7666,-103.2401 2291.5,-76 2313.1817,-74.5407 2337.3252,-72.2855 2356.989,-70.2858"/>
<polygon fill="#191970" stroke="#191970" points="2357.5297,-73.7487 2367.1167,-69.2385 2356.8097,-66.7858 2357.5297,-73.7487"/>
</g>
<!-- Node26&#45;&gt;Node14 -->
<g id="edge31" class="edge">
<title>Node26&#45;&gt;Node14</title>
<path fill="none" stroke="#191970" d="M1446.5839,-112.2455C1445.1486,-104.9382 1443.1364,-94.6944 1441.3705,-85.7046"/>
<polygon fill="#191970" stroke="#191970" points="1444.756,-84.7805 1439.3941,-75.6427 1437.8873,-86.1298 1444.756,-84.7805"/>
</g>
<!-- Node26&#45;&gt;Node24 -->
<g id="edge36" class="edge">
<title>Node26&#45;&gt;Node24</title>
<path fill="none" stroke="#191970" d="M1464.6994,-112.2455C1479.1018,-103.5731 1500.3732,-90.7645 1516.8799,-80.825"/>
<polygon fill="#191970" stroke="#191970" points="1518.725,-83.7996 1525.4863,-75.6427 1515.114,-77.8028 1518.725,-83.7996"/>
</g>
<!-- Node26&#45;&gt;Node27 -->
<g id="edge32" class="edge">
<title>Node26&#45;&gt;Node27</title>
<path fill="none" stroke="#191970" d="M1503.6587,-112.4369C1559.8667,-102.6918 1647.0112,-87.5832 1706.5282,-77.2645"/>
<polygon fill="#191970" stroke="#191970" points="1707.3137,-80.6806 1716.5688,-75.5237 1706.1179,-73.7835 1707.3137,-80.6806"/>
</g>
<!-- Node26&#45;&gt;Node28 -->
<g id="edge33" class="edge">
<title>Node26&#45;&gt;Node28</title>
<path fill="none" stroke="#191970" d="M1508.2937,-112.9435C1511.4037,-112.5948 1514.4866,-112.2767 1517.5,-112 1923.6602,-74.6987 2027.5607,-103.5301 2434.5,-76 2450.9044,-74.8902 2468.7306,-73.3126 2484.9151,-71.7376"/>
<polygon fill="#191970" stroke="#191970" points="2485.677,-75.1792 2495.2821,-70.7079 2484.9851,-68.2135 2485.677,-75.1792"/>
</g>
<!-- Node29 -->
<g id="node30" class="node">
<title>Node29</title>
<polygon fill="none" stroke="#bfbfbf" points="1856.5,-56.5 1856.5,-75.5 1972.5,-75.5 1972.5,-56.5 1856.5,-56.5"/>
<text text-anchor="middle" x="1914.5" y="-63.5" font-family="Helvetica,sans-Serif" font-size="10.00" fill="#000000">arrow/util/visibility.h</text>
</g>
<!-- Node26&#45;&gt;Node29 -->
<g id="edge34" class="edge">
<title>Node26&#45;&gt;Node29</title>
<path fill="none" stroke="#191970" d="M1508.3217,-113.1997C1511.4244,-112.7841 1514.4981,-112.3817 1517.5,-112 1660.1429,-93.865 1698.874,-94.6575 1845.9675,-76.0221"/>
<polygon fill="#191970" stroke="#191970" points="1846.8043,-79.4438 1856.281,-74.7063 1845.9184,-72.5001 1846.8043,-79.4438"/>
</g>
<!-- Node26&#45;&gt;Node30 -->
<g id="edge35" class="edge">
<title>Node26&#45;&gt;Node30</title>
<path fill="none" stroke="#191970" d="M1508.3079,-113.0839C1511.4143,-112.6986 1514.4924,-112.3342 1517.5,-112 1719.7639,-89.5219 1774.3063,-99.6436 1980.143,-76.0758"/>
<polygon fill="#191970" stroke="#191970" points="1980.8482,-79.5176 1990.3791,-74.8905 1980.0429,-72.5641 1980.8482,-79.5176"/>
</g>
<!-- Node31&#45;&gt;Node19 -->
<g id="edge38" class="edge">
<title>Node31&#45;&gt;Node19</title>
<path fill="none" stroke="#191970" d="M2273.8809,-112.2455C2268.5954,-104.4564 2261.0459,-93.3308 2254.6762,-83.9439"/>
<polygon fill="#191970" stroke="#191970" points="2257.5545,-81.9522 2249.0432,-75.6427 2251.7621,-85.8827 2257.5545,-81.9522"/>
</g>
<!-- Node35&#45;&gt;Node11 -->
<g id="edge47" class="edge">
<title>Node35&#45;&gt;Node11</title>
<path fill="none" stroke="#191970" d="M868.0289,-168.2455C871.5334,-160.6973 876.4927,-150.0158 880.7623,-140.8197"/>
<polygon fill="#191970" stroke="#191970" points="883.9864,-142.1867 885.023,-131.6427 877.6373,-139.2389 883.9864,-142.1867"/>
</g>
<!-- Node35&#45;&gt;Node12 -->
<g id="edge49" class="edge">
<title>Node35&#45;&gt;Node12</title>
<path fill="none" stroke="#191970" d="M855.7939,-168.1241C843.2033,-152.8502 816.5889,-124.0079 786.5,-112 643.0424,-54.7486 250.3034,-95.86 79.4092,-75.7924"/>
<polygon fill="#191970" stroke="#191970" points="79.8278,-72.3175 69.4642,-74.5191 78.9387,-79.2608 79.8278,-72.3175"/>
</g>
<!-- Node35&#45;&gt;Node36 -->
<g id="edge48" class="edge">
<title>Node35&#45;&gt;Node36</title>
<path fill="none" stroke="#191970" d="M845.0362,-168.2455C828.3926,-159.4527 803.7007,-146.4079 784.7808,-136.4125"/>
<polygon fill="#191970" stroke="#191970" points="786.2291,-133.2193 775.7522,-131.6427 782.9592,-139.4086 786.2291,-133.2193"/>
</g>
<!-- Node37&#45;&gt;Node10 -->
<g id="edge52" class="edge">
<title>Node37&#45;&gt;Node10</title>
<path fill="none" stroke="#191970" d="M1025.2731,-168.1228C1011.8634,-152.8471 983.6442,-124.0025 952.5,-112 811.6916,-57.7348 429.6924,-87.1774 261.8349,-75.9976"/>
<polygon fill="#191970" stroke="#191970" points="262.0496,-72.504 251.8196,-75.2605 261.5357,-79.4852 262.0496,-72.504"/>
</g>
</g>
</svg>
