<?xml version="1.0" encoding="UTF-8" standalone="no"?>
<!DOCTYPE svg PUBLIC "-//W3C//DTD SVG 1.1//EN"
 "http://www.w3.org/Graphics/SVG/1.1/DTD/svg11.dtd">
<!-- Generated by graphviz version 2.40.1 (20161225.0304)
 -->
<!-- Title: /home/travis/build/AliceO2Group/AliceO2/Generators/src/GeneratorPythia8.cxx Pages: 1 -->
<!--zoomable 285 -->
<svg id="main" version="1.1" xmlns="http://www.w3.org/2000/svg" xmlns:xlink="http://www.w3.org/1999/xlink" xml:space="preserve" onload="init(evt)">
<style type="text/css"><![CDATA[
.edge:hover path { stroke: red; }
.edge:hover polygon { stroke: red; fill: red; }
]]></style>
<script type="text/javascript"><![CDATA[
var edges = document.getElementsByTagName('g');
if (edges && edges.length) {
  for (var i=0;i<edges.length;i++) {
    if (edges[i].id.substr(0,4)=='edge') {
      edges[i].setAttribute('class','edge');
    }
  }
}
]]></script>
        <defs>
                <circle id="rim" cx="0" cy="0" r="7"/>
                <circle id="rim2" cx="0" cy="0" r="3.5"/>
                <g id="zoomPlus">
                        <use xlink:href="#rim" fill="#404040">
                                <set attributeName="fill" to="#808080" begin="zoomplus.mouseover" end="zoomplus.mouseout"/>
                        </use>
                        <path d="M-4,0h8M0,-4v8" fill="none" stroke="white" stroke-width="1.5" pointer-events="none"/>
                </g>
                <g id="zoomMin">
                        <use xlink:href="#rim" fill="#404040">
                                <set attributeName="fill" to="#808080" begin="zoomminus.mouseover" end="zoomminus.mouseout"/>
                        </use>
                        <path d="M-4,0h8" fill="none" stroke="white" stroke-width="1.5" pointer-events="none"/>
                </g>
                <g id="dirArrow">
                        <path fill="none" stroke="white" stroke-width="1.5" d="M0,-3.0v7 M-2.5,-0.5L0,-3.0L2.5,-0.5"/>
                </g>
               <g id="resetDef">
                       <use xlink:href="#rim2" fill="#404040">
                               <set attributeName="fill" to="#808080" begin="reset.mouseover" end="reset.mouseout"/>
                       </use>
               </g>
        </defs>

<script type="text/javascript">
var viewWidth = 809;
var viewHeight = 285;
var sectionId = 'dynsection-0';
</script>
<script xlink:href="../../svgpan.js"/>
<svg id="graph" class="graph">
<g id="viewport">
<title>/home/travis/build/AliceO2Group/AliceO2/Generators/src/GeneratorPythia8.cxx</title>
<!-- Node0 -->
<g id="node1" class="node">
<title>Node0</title>
<polygon fill="#bfbfbf" stroke="#000000" points="211.7227,-235.5 211.7227,-276.5 411.7227,-276.5 411.7227,-235.5 211.7227,-235.5"/>
<text text-anchor="start" x="219.7227" y="-264.5" font-family="Helvetica,sans-Serif" font-size="10.00" fill="#000000">/home/travis/build</text>
<text text-anchor="start" x="219.7227" y="-253.5" font-family="Helvetica,sans-Serif" font-size="10.00" fill="#000000">/AliceO2Group/AliceO2</text>
<text text-anchor="middle" x="311.7227" y="-242.5" font-family="Helvetica,sans-Serif" font-size="10.00" fill="#000000">/Generators/src/GeneratorPythia8.cxx</text>
</g>
<!-- Node1 -->
<g id="node2" class="node">
<title>Node1</title>
<g id="a_node2"><a xlink:href="../../d8/da5/GeneratorPythia8_8h.html" target="_top" xlink:title="Generators/GeneratorPythia8.h">
<polygon fill="none" stroke="#000000" points="171.7227,-174 171.7227,-193 339.7227,-193 339.7227,-174 171.7227,-174"/>
<text text-anchor="middle" x="255.7227" y="-181" font-family="Helvetica,sans-Serif" font-size="10.00" fill="#000000">Generators/GeneratorPythia8.h</text>
</a>
</g>
</g>
<!-- Node0&#45;&gt;Node1 -->
<g id="edge1" class="edge">
<title>Node0&#45;&gt;Node1</title>
<path fill="none" stroke="#191970" d="M295.8251,-235.4183C287.4379,-224.56 277.2568,-211.379 269.2518,-201.0154"/>
<polygon fill="#191970" stroke="#191970" points="272.0094,-198.8599 263.1265,-193.0853 266.4696,-203.139 272.0094,-198.8599"/>
</g>
<!-- Node4 -->
<g id="node5" class="node">
<title>Node4</title>
<polygon fill="none" stroke="#bfbfbf" points="97.7227,-.5 97.7227,-19.5 165.7227,-19.5 165.7227,-.5 97.7227,-.5"/>
<text text-anchor="middle" x="131.7227" y="-7.5" font-family="Helvetica,sans-Serif" font-size="10.00" fill="#000000">TParticle.h</text>
</g>
<!-- Node0&#45;&gt;Node4 -->
<g id="edge18" class="edge">
<title>Node0&#45;&gt;Node4</title>
<path fill="none" stroke="#191970" d="M221.4471,-235.498C143.7376,-212.095 38.6226,-164.9485 2.7227,-76 -12.7058,-37.7733 44.4704,-21.4424 87.6254,-14.6389"/>
<polygon fill="#191970" stroke="#191970" points="88.2951,-18.0785 97.6894,-13.1799 87.2907,-11.1509 88.2951,-18.0785"/>
</g>
<!-- Node9 -->
<g id="node10" class="node">
<title>Node9</title>
<g id="a_node10"><a xlink:href="../../d2/d80/ConfigurationMacroHelper_8h.html" target="_top" xlink:title="Generators/Configuration\lMacroHelper.h">
<polygon fill="none" stroke="#000000" points="463.2227,-168.5 463.2227,-198.5 602.2227,-198.5 602.2227,-168.5 463.2227,-168.5"/>
<text text-anchor="start" x="471.2227" y="-186.5" font-family="Helvetica,sans-Serif" font-size="10.00" fill="#000000">Generators/Configuration</text>
<text text-anchor="middle" x="532.7227" y="-175.5" font-family="Helvetica,sans-Serif" font-size="10.00" fill="#000000">MacroHelper.h</text>
</a>
</g>
</g>
<!-- Node0&#45;&gt;Node9 -->
<g id="edge10" class="edge">
<title>Node0&#45;&gt;Node9</title>
<path fill="none" stroke="#191970" d="M374.4613,-235.4183C406.7032,-224.8412 445.6629,-212.0603 476.859,-201.8263"/>
<polygon fill="#191970" stroke="#191970" points="478.2857,-205.0419 486.6964,-198.5991 476.1036,-198.3906 478.2857,-205.0419"/>
</g>
<!-- Node10 -->
<g id="node11" class="node">
<title>Node10</title>
<polygon fill="none" stroke="#bfbfbf" points="330.2227,-112.5 330.2227,-131.5 405.2227,-131.5 405.2227,-112.5 330.2227,-112.5"/>
<text text-anchor="middle" x="367.7227" y="-119.5" font-family="Helvetica,sans-Serif" font-size="10.00" fill="#000000">FairLogger.h</text>
</g>
<!-- Node0&#45;&gt;Node10 -->
<g id="edge17" class="edge">
<title>Node0&#45;&gt;Node10</title>
<path fill="none" stroke="#191970" d="M327.5615,-235.303C334.8947,-224.8825 343.1882,-211.7741 348.7227,-199 356.7392,-180.4968 361.8018,-157.9639 364.6666,-142.0676"/>
<polygon fill="#191970" stroke="#191970" points="368.1832,-142.2575 366.375,-131.8181 361.2784,-141.1065 368.1832,-142.2575"/>
</g>
<!-- Node2 -->
<g id="node3" class="node">
<title>Node2</title>
<g id="a_node3"><a xlink:href="../../d9/d12/Generator_8h.html" target="_top" xlink:title="Generators/Generator.h">
<polygon fill="none" stroke="#000000" points="66.2227,-112.5 66.2227,-131.5 197.2227,-131.5 197.2227,-112.5 66.2227,-112.5"/>
<text text-anchor="middle" x="131.7227" y="-119.5" font-family="Helvetica,sans-Serif" font-size="10.00" fill="#000000">Generators/Generator.h</text>
</a>
</g>
</g>
<!-- Node1&#45;&gt;Node2 -->
<g id="edge2" class="edge">
<title>Node1&#45;&gt;Node2</title>
<path fill="none" stroke="#191970" d="M236.3477,-173.8906C215.8732,-163.7359 183.3785,-147.6196 160.0342,-136.0416"/>
<polygon fill="#191970" stroke="#191970" points="161.4754,-132.8496 150.9616,-131.5419 158.3652,-139.1207 161.4754,-132.8496"/>
</g>
<!-- Node8 -->
<g id="node9" class="node">
<title>Node8</title>
<polygon fill="none" stroke="#bfbfbf" points="215.7227,-112.5 215.7227,-131.5 311.7227,-131.5 311.7227,-112.5 215.7227,-112.5"/>
<text text-anchor="middle" x="263.7227" y="-119.5" font-family="Helvetica,sans-Serif" font-size="10.00" fill="#000000">Pythia8/Pythia.h</text>
</g>
<!-- Node1&#45;&gt;Node8 -->
<g id="edge9" class="edge">
<title>Node1&#45;&gt;Node8</title>
<path fill="none" stroke="#191970" d="M256.9727,-173.8906C258.0816,-165.3657 259.7371,-152.6392 261.131,-141.9235"/>
<polygon fill="#191970" stroke="#191970" points="264.6358,-142.1128 262.455,-131.7449 257.6943,-141.2098 264.6358,-142.1128"/>
</g>
<!-- Node3 -->
<g id="node4" class="node">
<title>Node3</title>
<polygon fill="none" stroke="#bfbfbf" points="12.2227,-56.5 12.2227,-75.5 103.2227,-75.5 103.2227,-56.5 12.2227,-56.5"/>
<text text-anchor="middle" x="57.7227" y="-63.5" font-family="Helvetica,sans-Serif" font-size="10.00" fill="#000000">FairGenerator.h</text>
</g>
<!-- Node2&#45;&gt;Node3 -->
<g id="edge3" class="edge">
<title>Node2&#45;&gt;Node3</title>
<path fill="none" stroke="#191970" d="M118.8329,-112.2455C107.7973,-103.8943 91.6935,-91.7076 78.7873,-81.9408"/>
<polygon fill="#191970" stroke="#191970" points="80.5509,-78.8862 70.4648,-75.6427 76.3268,-84.4681 80.5509,-78.8862"/>
</g>
<!-- Node2&#45;&gt;Node4 -->
<g id="edge4" class="edge">
<title>Node2&#45;&gt;Node4</title>
<path fill="none" stroke="#191970" d="M131.7227,-112.4509C131.7227,-94.184 131.7227,-53.9553 131.7227,-29.6976"/>
<polygon fill="#191970" stroke="#191970" points="135.2228,-29.5249 131.7227,-19.5249 128.2228,-29.5249 135.2228,-29.5249"/>
</g>
<!-- Node5 -->
<g id="node6" class="node">
<title>Node5</title>
<g id="a_node6"><a xlink:href="../../d7/dac/Trigger_8h.html" target="_top" xlink:title="Generators/Trigger.h">
<polygon fill="none" stroke="#000000" points="160.2227,-56.5 160.2227,-75.5 275.2227,-75.5 275.2227,-56.5 160.2227,-56.5"/>
<text text-anchor="middle" x="217.7227" y="-63.5" font-family="Helvetica,sans-Serif" font-size="10.00" fill="#000000">Generators/Trigger.h</text>
</a>
</g>
</g>
<!-- Node2&#45;&gt;Node5 -->
<g id="edge5" class="edge">
<title>Node2&#45;&gt;Node5</title>
<path fill="none" stroke="#191970" d="M146.7027,-112.2455C159.8978,-103.6534 179.3277,-91.0014 194.5306,-81.1018"/>
<polygon fill="#191970" stroke="#191970" points="196.4441,-84.0325 202.9143,-75.6427 192.6244,-78.1665 196.4441,-84.0325"/>
</g>
<!-- Node7 -->
<g id="node8" class="node">
<title>Node7</title>
<polygon fill="none" stroke="#bfbfbf" points="293.2227,-56.5 293.2227,-75.5 340.2227,-75.5 340.2227,-56.5 293.2227,-56.5"/>
<text text-anchor="middle" x="316.7227" y="-63.5" font-family="Helvetica,sans-Serif" font-size="10.00" fill="#000000">vector</text>
</g>
<!-- Node2&#45;&gt;Node7 -->
<g id="edge8" class="edge">
<title>Node2&#45;&gt;Node7</title>
<path fill="none" stroke="#191970" d="M163.1638,-112.4886C191.921,-103.7883 235.8987,-90.4811 283.1265,-76.1798"/>
<polygon fill="#191970" stroke="#191970" points="284.3736,-79.4592 292.93,-73.211 282.3447,-72.7597 284.3736,-79.4592"/>
</g>
<!-- Node5&#45;&gt;Node4 -->
<g id="edge7" class="edge">
<title>Node5&#45;&gt;Node4</title>
<path fill="none" stroke="#191970" d="M202.7426,-56.2455C189.5476,-47.6534 170.1176,-35.0014 154.9147,-25.1018"/>
<polygon fill="#191970" stroke="#191970" points="156.8209,-22.1665 146.5311,-19.6427 153.0012,-28.0325 156.8209,-22.1665"/>
</g>
<!-- Node6 -->
<g id="node7" class="node">
<title>Node6</title>
<polygon fill="none" stroke="#bfbfbf" points="185.2227,-.5 185.2227,-19.5 250.2227,-19.5 250.2227,-.5 185.2227,-.5"/>
<text text-anchor="middle" x="217.7227" y="-7.5" font-family="Helvetica,sans-Serif" font-size="10.00" fill="#000000">functional</text>
</g>
<!-- Node5&#45;&gt;Node6 -->
<g id="edge6" class="edge">
<title>Node5&#45;&gt;Node6</title>
<path fill="none" stroke="#191970" d="M217.7227,-56.2455C217.7227,-48.9382 217.7227,-38.6944 217.7227,-29.7046"/>
<polygon fill="#191970" stroke="#191970" points="221.2228,-29.6426 217.7227,-19.6427 214.2228,-29.6427 221.2228,-29.6426"/>
</g>
<!-- Node9&#45;&gt;Node10 -->
<g id="edge11" class="edge">
<title>Node9&#45;&gt;Node10</title>
<path fill="none" stroke="#191970" d="M492.3591,-168.4554C464.9492,-158.239 429.0567,-144.8609 402.8316,-135.0861"/>
<polygon fill="#191970" stroke="#191970" points="403.8845,-131.7433 393.2918,-131.5303 401.4397,-138.3025 403.8845,-131.7433"/>
</g>
<!-- Node11 -->
<g id="node12" class="node">
<title>Node11</title>
<polygon fill="none" stroke="#bfbfbf" points="422.7227,-112.5 422.7227,-131.5 480.7227,-131.5 480.7227,-112.5 422.7227,-112.5"/>
<text text-anchor="middle" x="451.7227" y="-119.5" font-family="Helvetica,sans-Serif" font-size="10.00" fill="#000000">TROOT.h</text>
</g>
<!-- Node9&#45;&gt;Node11 -->
<g id="edge12" class="edge">
<title>Node9&#45;&gt;Node11</title>
<path fill="none" stroke="#191970" d="M512.7002,-168.2977C500.6367,-159.1384 485.2838,-147.4816 473.0016,-138.1562"/>
<polygon fill="#191970" stroke="#191970" points="474.7728,-135.1065 464.6918,-131.8469 470.5398,-140.6816 474.7728,-135.1065"/>
</g>
<!-- Node12 -->
<g id="node13" class="node">
<title>Node12</title>
<polygon fill="none" stroke="#bfbfbf" points="498.7227,-112.5 498.7227,-131.5 566.7227,-131.5 566.7227,-112.5 498.7227,-112.5"/>
<text text-anchor="middle" x="532.7227" y="-119.5" font-family="Helvetica,sans-Serif" font-size="10.00" fill="#000000">TSystem.h</text>
</g>
<!-- Node9&#45;&gt;Node12 -->
<g id="edge13" class="edge">
<title>Node9&#45;&gt;Node12</title>
<path fill="none" stroke="#191970" d="M532.7227,-168.2977C532.7227,-160.3834 532.7227,-150.6043 532.7227,-142.0759"/>
<polygon fill="#191970" stroke="#191970" points="536.2228,-141.8469 532.7227,-131.8469 529.2228,-141.847 536.2228,-141.8469"/>
</g>
<!-- Node13 -->
<g id="node14" class="node">
<title>Node13</title>
<polygon fill="none" stroke="#bfbfbf" points="585.2227,-112.5 585.2227,-131.5 648.2227,-131.5 648.2227,-112.5 585.2227,-112.5"/>
<text text-anchor="middle" x="616.7227" y="-119.5" font-family="Helvetica,sans-Serif" font-size="10.00" fill="#000000">TGlobal.h</text>
</g>
<!-- Node9&#45;&gt;Node13 -->
<g id="edge14" class="edge">
<title>Node9&#45;&gt;Node13</title>
<path fill="none" stroke="#191970" d="M553.4867,-168.2977C566.1185,-159.0495 582.228,-147.2551 595.0257,-137.8853"/>
<polygon fill="#191970" stroke="#191970" points="597.2722,-140.5784 603.2732,-131.8469 593.137,-134.9303 597.2722,-140.5784"/>
</g>
<!-- Node14 -->
<g id="node15" class="node">
<title>Node14</title>
<polygon fill="none" stroke="#bfbfbf" points="666.7227,-112.5 666.7227,-131.5 738.7227,-131.5 738.7227,-112.5 666.7227,-112.5"/>
<text text-anchor="middle" x="702.7227" y="-119.5" font-family="Helvetica,sans-Serif" font-size="10.00" fill="#000000">TFunction.h</text>
</g>
<!-- Node9&#45;&gt;Node14 -->
<g id="edge15" class="edge">
<title>Node9&#45;&gt;Node14</title>
<path fill="none" stroke="#191970" d="M574.3093,-168.4554C602.6743,-158.194 639.856,-144.7429 666.9063,-134.9571"/>
<polygon fill="#191970" stroke="#191970" points="668.1658,-138.2235 676.3787,-131.5303 665.7844,-131.641 668.1658,-138.2235"/>
</g>
<!-- Node15 -->
<g id="node16" class="node">
<title>Node15</title>
<polygon fill="none" stroke="#bfbfbf" points="756.7227,-112.5 756.7227,-131.5 800.7227,-131.5 800.7227,-112.5 756.7227,-112.5"/>
<text text-anchor="middle" x="778.7227" y="-119.5" font-family="Helvetica,sans-Serif" font-size="10.00" fill="#000000">string</text>
</g>
<!-- Node9&#45;&gt;Node15 -->
<g id="edge16" class="edge">
<title>Node9&#45;&gt;Node15</title>
<path fill="none" stroke="#191970" d="M601.3337,-168.4815C641.325,-159.3977 692.8928,-147.122 746.7165,-132.1434"/>
<polygon fill="#191970" stroke="#191970" points="747.7516,-135.4883 756.4338,-129.4163 745.8601,-128.7486 747.7516,-135.4883"/>
</g>
</g>
</svg>
        <g id="navigator" transform="translate(0 0)" fill="#404254">
                <rect fill="#f2f5e9" fill-opacity="0.5" stroke="#606060" stroke-width=".5" x="0" y="0" width="60" height="60"/>
                <use id="zoomplus" xlink:href="#zoomPlus" x="17" y="9" onmousedown="handleZoom(evt,'in')"/>
                <use id="zoomminus" xlink:href="#zoomMin" x="42" y="9" onmousedown="handleZoom(evt,'out')"/>
                <use id="reset" xlink:href="#resetDef" x="30" y="36" onmousedown="handleReset()"/>
                <g id="arrowUp" xlink:href="#dirArrow" transform="translate(30 24)" onmousedown="handlePan(0,-1)">
                  <use xlink:href="#rim" fill="#404040">
                        <set attributeName="fill" to="#808080" begin="arrowUp.mouseover" end="arrowUp.mouseout"/>
                  </use>
                  <path fill="none" stroke="white" stroke-width="1.5" d="M0,-3.0v7 M-2.5,-0.5L0,-3.0L2.5,-0.5"/>
                </g>
                <g id="arrowRight" xlink:href="#dirArrow" transform="rotate(90) translate(36 -43)" onmousedown="handlePan(1,0)">
                  <use xlink:href="#rim" fill="#404040">
                        <set attributeName="fill" to="#808080" begin="arrowRight.mouseover" end="arrowRight.mouseout"/>
                  </use>
                  <path fill="none" stroke="white" stroke-width="1.5" d="M0,-3.0v7 M-2.5,-0.5L0,-3.0L2.5,-0.5"/>
                </g>
                <g id="arrowDown" xlink:href="#dirArrow" transform="rotate(180) translate(-30 -48)" onmousedown="handlePan(0,1)">
                  <use xlink:href="#rim" fill="#404040">
                        <set attributeName="fill" to="#808080" begin="arrowDown.mouseover" end="arrowDown.mouseout"/>
                  </use>
                  <path fill="none" stroke="white" stroke-width="1.5" d="M0,-3.0v7 M-2.5,-0.5L0,-3.0L2.5,-0.5"/>
                </g>
                <g id="arrowLeft" xlink:href="#dirArrow" transform="rotate(270) translate(-36 17)" onmousedown="handlePan(-1,0)">
                  <use xlink:href="#rim" fill="#404040">
                        <set attributeName="fill" to="#808080" begin="arrowLeft.mouseover" end="arrowLeft.mouseout"/>
                  </use>
                  <path fill="none" stroke="white" stroke-width="1.5" d="M0,-3.0v7 M-2.5,-0.5L0,-3.0L2.5,-0.5"/>
                </g>
        </g>
        <svg viewBox="0 0 15 15" width="100%" height="30px" preserveAspectRatio="xMaxYMin meet">
         <g id="arrow_out" transform="scale(0.3 0.3)">
          <a xlink:href="GeneratorPythia8_8cxx__incl_org.svg" target="_base">
           <rect id="button" ry="5" rx="5" y="6" x="6" height="38" width="38"
                fill="#f2f5e9" fill-opacity="0.5" stroke="#606060" stroke-width="1.0"/>
           <path id="arrow"
             d="M 11.500037,31.436501 C 11.940474,20.09759 22.043105,11.32322 32.158766,21.979434 L 37.068811,17.246167 C 37.068811,17.246167 37.088388,32 37.088388,32 L 22.160133,31.978069 C 22.160133,31.978069 26.997745,27.140456 26.997745,27.140456 C 18.528582,18.264221 13.291696,25.230495 11.500037,31.436501 z"
             style="fill:#404040;"/>
          </a>
         </g>
        </svg>
</svg>
