<?xml version="1.0" encoding="UTF-8" standalone="no"?>
<!DOCTYPE svg PUBLIC "-//W3C//DTD SVG 1.1//EN"
 "http://www.w3.org/Graphics/SVG/1.1/DTD/svg11.dtd">
<!-- Generated by graphviz version 2.40.1 (20161225.0304)
 -->
<!-- Title: /home/travis/build/AliceO2Group/AliceO2/Framework/Core/include/Framework/RootTableBuilderHelpers.h Pages: 1 -->
<svg width="3375pt" height="341pt"
 viewBox="0.00 0.00 3374.50 341.00" xmlns="http://www.w3.org/2000/svg" xmlns:xlink="http://www.w3.org/1999/xlink">
<g id="graph0" class="graph" transform="scale(1 1) rotate(0) translate(4 337)">
<title>/home/travis/build/AliceO2Group/AliceO2/Framework/Core/include/Framework/RootTableBuilderHelpers.h</title>
<!-- Node0 -->
<g id="node1" class="node">
<title>Node0</title>
<polygon fill="#bfbfbf" stroke="#000000" points="2682,-280.5 2682,-332.5 2887,-332.5 2887,-280.5 2682,-280.5"/>
<text text-anchor="start" x="2690" y="-320.5" font-family="Helvetica,sans-Serif" font-size="10.00" fill="#000000">/home/travis/build</text>
<text text-anchor="start" x="2690" y="-309.5" font-family="Helvetica,sans-Serif" font-size="10.00" fill="#000000">/AliceO2Group/AliceO2</text>
<text text-anchor="start" x="2690" y="-298.5" font-family="Helvetica,sans-Serif" font-size="10.00" fill="#000000">/Framework/Core/include</text>
<text text-anchor="middle" x="2784.5" y="-287.5" font-family="Helvetica,sans-Serif" font-size="10.00" fill="#000000">/Framework/RootTableBuilderHelpers.h</text>
</g>
<!-- Node1 -->
<g id="node2" class="node">
<title>Node1</title>
<g id="a_node2"><a xlink:href="../../d5/d98/TableBuilder_8h.html" target="_top" xlink:title="Framework/TableBuilder.h">
<polygon fill="none" stroke="#000000" points="2085.5,-224.5 2085.5,-243.5 2227.5,-243.5 2227.5,-224.5 2085.5,-224.5"/>
<text text-anchor="middle" x="2156.5" y="-231.5" font-family="Helvetica,sans-Serif" font-size="10.00" fill="#000000">Framework/TableBuilder.h</text>
</a>
</g>
</g>
<!-- Node0&#45;&gt;Node1 -->
<g id="edge1" class="edge">
<title>Node0&#45;&gt;Node1</title>
<path fill="none" stroke="#191970" d="M2681.8527,-294.6498C2557.7925,-280.3276 2351.5746,-256.5206 2237.9104,-243.3985"/>
<polygon fill="#191970" stroke="#191970" points="2238.2121,-239.9102 2227.8766,-242.2401 2237.4092,-246.864 2238.2121,-239.9102"/>
</g>
<!-- Node19 -->
<g id="node20" class="node">
<title>Node19</title>
<polygon fill="none" stroke="#bfbfbf" points="2219,-56.5 2219,-75.5 2300,-75.5 2300,-56.5 2219,-56.5"/>
<text text-anchor="middle" x="2259.5" y="-63.5" font-family="Helvetica,sans-Serif" font-size="10.00" fill="#000000">arrow/table.h</text>
</g>
<!-- Node0&#45;&gt;Node19 -->
<g id="edge66" class="edge">
<title>Node0&#45;&gt;Node19</title>
<path fill="none" stroke="#191970" d="M2794.8157,-280.4798C2798.6746,-269.4213 2802.5847,-256.2695 2804.5,-244 2809.87,-209.5993 2811.7375,-190.8875 2785.5,-168 2625.5841,-28.502 2524.03,-114.8653 2310.0989,-76.0342"/>
<polygon fill="#191970" stroke="#191970" points="2310.6309,-72.5729 2300.1547,-74.1538 2309.3302,-79.451 2310.6309,-72.5729"/>
</g>
<!-- Node24 -->
<g id="node25" class="node">
<title>Node24</title>
<polygon fill="none" stroke="#bfbfbf" points="83.5,-56.5 83.5,-75.5 127.5,-75.5 127.5,-56.5 83.5,-56.5"/>
<text text-anchor="middle" x="105.5" y="-63.5" font-family="Helvetica,sans-Serif" font-size="10.00" fill="#000000">string</text>
</g>
<!-- Node0&#45;&gt;Node24 -->
<g id="edge72" class="edge">
<title>Node0&#45;&gt;Node24</title>
<path fill="none" stroke="#191970" d="M2681.8279,-305.3238C2363.1507,-300.7644 1362.9686,-279.6124 540.5,-188 393.5218,-171.6285 350.8602,-184.2213 212.5,-132 179.8025,-119.659 146.1466,-96.9347 125.5237,-81.6447"/>
<polygon fill="#191970" stroke="#191970" points="127.6122,-78.836 117.524,-75.5989 123.3916,-84.4206 127.6122,-78.836"/>
</g>
<!-- Node25 -->
<g id="node26" class="node">
<title>Node25</title>
<polygon fill="none" stroke="#bfbfbf" points="2318.5,-56.5 2318.5,-75.5 2376.5,-75.5 2376.5,-56.5 2318.5,-56.5"/>
<text text-anchor="middle" x="2347.5" y="-63.5" font-family="Helvetica,sans-Serif" font-size="10.00" fill="#000000">memory</text>
</g>
<!-- Node0&#45;&gt;Node25 -->
<g id="edge73" class="edge">
<title>Node0&#45;&gt;Node25</title>
<path fill="none" stroke="#191970" d="M2813.2729,-280.2534C2822.5354,-269.9631 2831.6521,-257.4067 2836.5,-244 2856.4499,-188.8295 2876.299,-155.1024 2836.5,-112 2803.9955,-76.7975 2468.7644,-83.6539 2387.0034,-75.5799"/>
<polygon fill="#191970" stroke="#191970" points="2387.2105,-72.0778 2376.8457,-74.2736 2386.3176,-79.0206 2387.2105,-72.0778"/>
</g>
<!-- Node36 -->
<g id="node37" class="node">
<title>Node36</title>
<polygon fill="none" stroke="#bfbfbf" points="2361,-112.5 2361,-131.5 2402,-131.5 2402,-112.5 2361,-112.5"/>
<text text-anchor="middle" x="2381.5" y="-119.5" font-family="Helvetica,sans-Serif" font-size="10.00" fill="#000000">tuple</text>
</g>
<!-- Node0&#45;&gt;Node36 -->
<g id="edge74" class="edge">
<title>Node0&#45;&gt;Node36</title>
<path fill="none" stroke="#191970" d="M2789.3956,-280.4553C2793.6314,-249.1168 2795.0965,-197.0944 2765.5,-168 2740.3918,-143.3177 2498.6408,-128.2011 2412.1116,-123.5448"/>
<polygon fill="#191970" stroke="#191970" points="2412.2924,-120.0496 2402.1215,-123.0168 2411.9229,-127.0398 2412.2924,-120.0496"/>
</g>
<!-- Node39 -->
<g id="node40" class="node">
<title>Node39</title>
<polygon fill="none" stroke="#bfbfbf" points="2388.5,-168.5 2388.5,-187.5 2456.5,-187.5 2456.5,-168.5 2388.5,-168.5"/>
<text text-anchor="middle" x="2422.5" y="-175.5" font-family="Helvetica,sans-Serif" font-size="10.00" fill="#000000">arrow/stl.h</text>
</g>
<!-- Node0&#45;&gt;Node39 -->
<g id="edge64" class="edge">
<title>Node0&#45;&gt;Node39</title>
<path fill="none" stroke="#191970" d="M2711.2439,-280.4961C2634.6869,-253.3205 2517.6968,-211.7922 2458.903,-190.9221"/>
<polygon fill="#191970" stroke="#191970" points="2459.8973,-187.5611 2449.3025,-187.5142 2457.5556,-194.1578 2459.8973,-187.5611"/>
</g>
<!-- Node40 -->
<g id="node41" class="node">
<title>Node40</title>
<polygon fill="none" stroke="#bfbfbf" points="2475,-168.5 2475,-187.5 2584,-187.5 2584,-168.5 2475,-168.5"/>
<text text-anchor="middle" x="2529.5" y="-175.5" font-family="Helvetica,sans-Serif" font-size="10.00" fill="#000000">arrow/type_traits.h</text>
</g>
<!-- Node0&#45;&gt;Node40 -->
<g id="edge65" class="edge">
<title>Node0&#45;&gt;Node40</title>
<path fill="none" stroke="#191970" d="M2732.8969,-280.4961C2679.9715,-253.8258 2599.6135,-213.3317 2557.4955,-192.1075"/>
<polygon fill="#191970" stroke="#191970" points="2558.8855,-188.8888 2548.3802,-187.5142 2555.7354,-195.1399 2558.8855,-188.8888"/>
</g>
<!-- Node41 -->
<g id="node42" class="node">
<title>Node41</title>
<polygon fill="none" stroke="#bfbfbf" points="2602,-168.5 2602,-187.5 2691,-187.5 2691,-168.5 2602,-168.5"/>
<text text-anchor="middle" x="2646.5" y="-175.5" font-family="Helvetica,sans-Serif" font-size="10.00" fill="#000000">arrow/builder.h</text>
</g>
<!-- Node0&#45;&gt;Node41 -->
<g id="edge67" class="edge">
<title>Node0&#45;&gt;Node41</title>
<path fill="none" stroke="#191970" d="M2756.5736,-280.4961C2728.9567,-254.7803 2687.5376,-216.2125 2664.1757,-194.4589"/>
<polygon fill="#191970" stroke="#191970" points="2666.4212,-191.7674 2656.7175,-187.5142 2661.6509,-196.8903 2666.4212,-191.7674"/>
</g>
<!-- Node42 -->
<g id="node43" class="node">
<title>Node42</title>
<polygon fill="none" stroke="#bfbfbf" points="2709,-168.5 2709,-187.5 2756,-187.5 2756,-168.5 2709,-168.5"/>
<text text-anchor="middle" x="2732.5" y="-175.5" font-family="Helvetica,sans-Serif" font-size="10.00" fill="#000000">vector</text>
</g>
<!-- Node0&#45;&gt;Node42 -->
<g id="edge71" class="edge">
<title>Node0&#45;&gt;Node42</title>
<path fill="none" stroke="#191970" d="M2773.977,-280.4961C2763.9342,-255.6787 2749.0475,-218.8915 2740.1074,-196.799"/>
<polygon fill="#191970" stroke="#191970" points="2743.3458,-195.471 2736.3501,-187.5142 2736.8569,-198.0969 2743.3458,-195.471"/>
</g>
<!-- Node43 -->
<g id="node44" class="node">
<title>Node43</title>
<g id="a_node44"><a xlink:href="../../dd/da4/Logger_8h.html" target="_top" xlink:title="Framework/Logger.h">
<polygon fill="none" stroke="#000000" points="2889,-224.5 2889,-243.5 3004,-243.5 3004,-224.5 2889,-224.5"/>
<text text-anchor="middle" x="2946.5" y="-231.5" font-family="Helvetica,sans-Serif" font-size="10.00" fill="#000000">Framework/Logger.h</text>
</a>
</g>
</g>
<!-- Node0&#45;&gt;Node43 -->
<g id="edge63" class="edge">
<title>Node0&#45;&gt;Node43</title>
<path fill="none" stroke="#191970" d="M2842.9857,-280.3258C2867.7095,-269.2612 2895.4732,-256.8361 2916.0188,-247.6413"/>
<polygon fill="#191970" stroke="#191970" points="2917.4985,-250.8136 2925.1964,-243.534 2914.6391,-244.4243 2917.4985,-250.8136"/>
</g>
<!-- Node44 -->
<g id="node45" class="node">
<title>Node44</title>
<polygon fill="none" stroke="#bfbfbf" points="3022,-224.5 3022,-243.5 3107,-243.5 3107,-224.5 3022,-224.5"/>
<text text-anchor="middle" x="3064.5" y="-231.5" font-family="Helvetica,sans-Serif" font-size="10.00" fill="#000000">TTreeReader.h</text>
</g>
<!-- Node0&#45;&gt;Node44 -->
<g id="edge68" class="edge">
<title>Node0&#45;&gt;Node44</title>
<path fill="none" stroke="#191970" d="M2885.1908,-280.4283C2930.4768,-268.7024 2981.7343,-255.4304 3017.8128,-246.0887"/>
<polygon fill="#191970" stroke="#191970" points="3018.7653,-249.4575 3027.5687,-243.5626 3017.0106,-242.681 3018.7653,-249.4575"/>
</g>
<!-- Node45 -->
<g id="node46" class="node">
<title>Node45</title>
<polygon fill="none" stroke="#bfbfbf" points="3125,-224.5 3125,-243.5 3238,-243.5 3238,-224.5 3125,-224.5"/>
<text text-anchor="middle" x="3181.5" y="-231.5" font-family="Helvetica,sans-Serif" font-size="10.00" fill="#000000">TTreeReaderValue.h</text>
</g>
<!-- Node0&#45;&gt;Node45 -->
<g id="edge69" class="edge">
<title>Node0&#45;&gt;Node45</title>
<path fill="none" stroke="#191970" d="M2887.2537,-287.7352C2960.7037,-274.3217 3057.1528,-256.7083 3119.2408,-245.3698"/>
<polygon fill="#191970" stroke="#191970" points="3120.0722,-248.7759 3129.2808,-243.5363 3118.8146,-241.8898 3120.0722,-248.7759"/>
</g>
<!-- Node46 -->
<g id="node47" class="node">
<title>Node46</title>
<polygon fill="none" stroke="#bfbfbf" points="3256.5,-224.5 3256.5,-243.5 3366.5,-243.5 3366.5,-224.5 3256.5,-224.5"/>
<text text-anchor="middle" x="3311.5" y="-231.5" font-family="Helvetica,sans-Serif" font-size="10.00" fill="#000000">TTreeReaderArray.h</text>
</g>
<!-- Node0&#45;&gt;Node46 -->
<g id="edge70" class="edge">
<title>Node0&#45;&gt;Node46</title>
<path fill="none" stroke="#191970" d="M2887.1091,-293.2717C2978.6048,-281.3319 3116.4766,-262.9871 3246.2295,-244.1634"/>
<polygon fill="#191970" stroke="#191970" points="3246.9608,-247.5939 3256.353,-242.6913 3245.9534,-240.6668 3246.9608,-247.5939"/>
</g>
<!-- Node2 -->
<g id="node3" class="node">
<title>Node2</title>
<g id="a_node3"><a xlink:href="../../de/d33/ASoA_8h.html" target="_top" xlink:title="Framework/ASoA.h">
<polygon fill="none" stroke="#000000" points="1509.5,-168.5 1509.5,-187.5 1617.5,-187.5 1617.5,-168.5 1509.5,-168.5"/>
<text text-anchor="middle" x="1563.5" y="-175.5" font-family="Helvetica,sans-Serif" font-size="10.00" fill="#000000">Framework/ASoA.h</text>
</a>
</g>
</g>
<!-- Node1&#45;&gt;Node2 -->
<g id="edge2" class="edge">
<title>Node1&#45;&gt;Node2</title>
<path fill="none" stroke="#191970" d="M2085.2651,-227.2729C1968.8813,-216.2822 1739.7495,-194.6441 1627.9352,-184.0849"/>
<polygon fill="#191970" stroke="#191970" points="1628.098,-180.5848 1617.8132,-183.1291 1627.4398,-187.5538 1628.098,-180.5848"/>
</g>
<!-- Node8 -->
<g id="node9" class="node">
<title>Node8</title>
<g id="a_node9"><a xlink:href="../../de/d9b/FunctionalHelpers_8h.html" target="_top" xlink:title="Framework/FunctionalHelpers.h">
<polygon fill="none" stroke="#000000" points="292.5,-112.5 292.5,-131.5 462.5,-131.5 462.5,-112.5 292.5,-112.5"/>
<text text-anchor="middle" x="377.5" y="-119.5" font-family="Helvetica,sans-Serif" font-size="10.00" fill="#000000">Framework/FunctionalHelpers.h</text>
</a>
</g>
</g>
<!-- Node1&#45;&gt;Node8 -->
<g id="edge50" class="edge">
<title>Node1&#45;&gt;Node8</title>
<path fill="none" stroke="#191970" d="M2085.2017,-230.981C1853.6458,-220.9026 1101.6292,-186.0226 472.4632,-132.4106"/>
<polygon fill="#191970" stroke="#191970" points="472.5432,-128.9048 462.2814,-131.5405 471.947,-135.8794 472.5432,-128.9048"/>
</g>
<!-- Node9 -->
<g id="node10" class="node">
<title>Node9</title>
<polygon fill="none" stroke="#bfbfbf" points="0,-56.5 0,-75.5 65,-75.5 65,-56.5 0,-56.5"/>
<text text-anchor="middle" x="32.5" y="-63.5" font-family="Helvetica,sans-Serif" font-size="10.00" fill="#000000">functional</text>
</g>
<!-- Node1&#45;&gt;Node9 -->
<g id="edge58" class="edge">
<title>Node1&#45;&gt;Node9</title>
<path fill="none" stroke="#191970" d="M2085.0836,-233.3042C1813.7419,-230.4528 846.6837,-218.3434 540.5,-188 393.3337,-173.4155 355.4063,-170.0579 212.5,-132 159.1401,-117.7895 99.3448,-94.279 63.865,-79.4903"/>
<polygon fill="#191970" stroke="#191970" points="65.1032,-76.2142 54.5283,-75.5654 62.3905,-82.6672 65.1032,-76.2142"/>
</g>
<!-- Node1&#45;&gt;Node19 -->
<g id="edge56" class="edge">
<title>Node1&#45;&gt;Node19</title>
<path fill="none" stroke="#191970" d="M2151.4978,-224.4297C2140.7627,-202.4261 2118.371,-147.4135 2142.5,-112 2150.9743,-99.5624 2184.2728,-87.1757 2213.19,-78.3946"/>
<polygon fill="#191970" stroke="#191970" points="2214.1876,-81.7495 2222.7865,-75.56 2212.2046,-75.0362 2214.1876,-81.7495"/>
</g>
<!-- Node1&#45;&gt;Node24 -->
<g id="edge60" class="edge">
<title>Node1&#45;&gt;Node24</title>
<path fill="none" stroke="#191970" d="M2085.3416,-233.2231C1787.0627,-229.4906 636.6233,-210.2123 283.5,-132 229.6105,-120.0642 170.0531,-95.5002 135.3052,-79.938"/>
<polygon fill="#191970" stroke="#191970" points="136.3224,-76.5563 125.7696,-75.6134 133.4312,-82.9313 136.3224,-76.5563"/>
</g>
<!-- Node1&#45;&gt;Node25 -->
<g id="edge61" class="edge">
<title>Node1&#45;&gt;Node25</title>
<path fill="none" stroke="#191970" d="M2155.7666,-224.2448C2154.6123,-201.3593 2155.084,-143.7621 2185.5,-112 2189.8683,-107.4384 2262.1665,-88.0722 2308.6882,-75.9687"/>
<polygon fill="#191970" stroke="#191970" points="2309.6744,-79.3288 2318.4755,-73.4304 2307.9171,-72.553 2309.6744,-79.3288"/>
</g>
<!-- Node35 -->
<g id="node36" class="node">
<title>Node35</title>
<g id="a_node36"><a xlink:href="../../db/d4f/StructToTuple_8h.html" target="_top" xlink:title="Framework/StructToTuple.h">
<polygon fill="none" stroke="#000000" points="2185,-168.5 2185,-187.5 2332,-187.5 2332,-168.5 2185,-168.5"/>
<text text-anchor="middle" x="2258.5" y="-175.5" font-family="Helvetica,sans-Serif" font-size="10.00" fill="#000000">Framework/StructToTuple.h</text>
</a>
</g>
</g>
<!-- Node1&#45;&gt;Node35 -->
<g id="edge46" class="edge">
<title>Node1&#45;&gt;Node35</title>
<path fill="none" stroke="#191970" d="M2174.267,-224.2455C2190.2095,-215.4928 2213.8259,-202.527 2231.9989,-192.5496"/>
<polygon fill="#191970" stroke="#191970" points="2233.8552,-195.5233 2240.9366,-187.6427 2230.4863,-189.3873 2233.8552,-195.5233"/>
</g>
<!-- Node1&#45;&gt;Node36 -->
<g id="edge62" class="edge">
<title>Node1&#45;&gt;Node36</title>
<path fill="none" stroke="#191970" d="M2214.2908,-224.4391C2260.4043,-215.9293 2320.478,-202.5969 2340.5,-188 2356.6185,-176.249 2367.7959,-156.0517 2374.3625,-141.0869"/>
<polygon fill="#191970" stroke="#191970" points="2377.6426,-142.3121 2378.1759,-131.7307 2371.1603,-139.67 2377.6426,-142.3121"/>
</g>
<!-- Node37 -->
<g id="node38" class="node">
<title>Node37</title>
<g id="a_node38"><a xlink:href="../../d7/dbe/VariantHelpers_8h.html" target="_top" xlink:title="Framework/VariantHelpers.h">
<polygon fill="none" stroke="#000000" points="1816,-168.5 1816,-187.5 1971,-187.5 1971,-168.5 1816,-168.5"/>
<text text-anchor="middle" x="1893.5" y="-175.5" font-family="Helvetica,sans-Serif" font-size="10.00" fill="#000000">Framework/VariantHelpers.h</text>
</a>
</g>
</g>
<!-- Node1&#45;&gt;Node37 -->
<g id="edge51" class="edge">
<title>Node1&#45;&gt;Node37</title>
<path fill="none" stroke="#191970" d="M2111.5875,-224.4369C2066.388,-214.8127 1996.6193,-199.957 1948.2153,-189.6504"/>
<polygon fill="#191970" stroke="#191970" points="1948.7369,-186.1831 1938.2272,-187.5237 1947.279,-193.0296 1948.7369,-186.1831"/>
</g>
<!-- Node38 -->
<g id="node39" class="node">
<title>Node38</title>
<polygon fill="none" stroke="#bfbfbf" points="2034.5,-168.5 2034.5,-187.5 2090.5,-187.5 2090.5,-168.5 2034.5,-168.5"/>
<text text-anchor="middle" x="2062.5" y="-175.5" font-family="Helvetica,sans-Serif" font-size="10.00" fill="#000000">sstream</text>
</g>
<!-- Node1&#45;&gt;Node38 -->
<g id="edge53" class="edge">
<title>Node1&#45;&gt;Node38</title>
<path fill="none" stroke="#191970" d="M2140.1264,-224.2455C2125.5692,-215.5731 2104.069,-202.7645 2087.3848,-192.825"/>
<polygon fill="#191970" stroke="#191970" points="2089.0683,-189.7539 2078.6859,-187.6427 2085.4856,-195.7676 2089.0683,-189.7539"/>
</g>
<!-- Node1&#45;&gt;Node39 -->
<g id="edge54" class="edge">
<title>Node1&#45;&gt;Node39</title>
<path fill="none" stroke="#191970" d="M2201.9248,-224.4369C2251.2417,-214.0544 2329.4779,-197.5836 2378.3069,-187.3038"/>
<polygon fill="#191970" stroke="#191970" points="2379.1947,-190.6937 2388.2591,-185.2086 2377.7525,-183.8439 2379.1947,-190.6937"/>
</g>
<!-- Node1&#45;&gt;Node40 -->
<g id="edge55" class="edge">
<title>Node1&#45;&gt;Node40</title>
<path fill="none" stroke="#191970" d="M2221.3271,-224.4882C2281.6052,-215.6123 2374.2001,-201.8975 2464.5425,-188.1378"/>
<polygon fill="#191970" stroke="#191970" points="2465.3331,-191.5578 2474.6913,-186.5905 2464.2779,-184.6378 2465.3331,-191.5578"/>
</g>
<!-- Node1&#45;&gt;Node41 -->
<g id="edge57" class="edge">
<title>Node1&#45;&gt;Node41</title>
<path fill="none" stroke="#191970" d="M2227.6998,-228.2055C2312.0855,-220.952 2457.1482,-207.2717 2591.6766,-188.0197"/>
<polygon fill="#191970" stroke="#191970" points="2592.3585,-191.4576 2601.7554,-186.5639 2591.3578,-184.5295 2592.3585,-191.4576"/>
</g>
<!-- Node1&#45;&gt;Node42 -->
<g id="edge59" class="edge">
<title>Node1&#45;&gt;Node42</title>
<path fill="none" stroke="#191970" d="M2227.8697,-232.7083C2330.3631,-229.8034 2525.0859,-220.3715 2699.0143,-187.692"/>
<polygon fill="#191970" stroke="#191970" points="2699.6894,-191.1264 2708.8558,-185.8135 2698.3769,-184.2505 2699.6894,-191.1264"/>
</g>
<!-- Node3 -->
<g id="node4" class="node">
<title>Node3</title>
<g id="a_node4"><a xlink:href="../../dd/dce/Pack_8h.html" target="_top" xlink:title="Framework/Pack.h">
<polygon fill="none" stroke="#000000" points="663,-56.5 663,-75.5 768,-75.5 768,-56.5 663,-56.5"/>
<text text-anchor="middle" x="715.5" y="-63.5" font-family="Helvetica,sans-Serif" font-size="10.00" fill="#000000">Framework/Pack.h</text>
</a>
</g>
</g>
<!-- Node2&#45;&gt;Node3 -->
<g id="edge3" class="edge">
<title>Node2&#45;&gt;Node3</title>
<path fill="none" stroke="#191970" d="M1509.2966,-171.9231C1434.4092,-163.4437 1295.0981,-147.3694 1176.5,-132 1002.1219,-109.402 956.215,-102.9353 778.2145,-76.0869"/>
<polygon fill="#191970" stroke="#191970" points="778.664,-72.6151 768.2537,-74.584 777.6196,-79.5368 778.664,-72.6151"/>
</g>
<!-- Node7 -->
<g id="node8" class="node">
<title>Node7</title>
<g id="a_node8"><a xlink:href="../../d1/d00/CheckTypes_8h.html" target="_top" xlink:title="Framework/CheckTypes.h">
<polygon fill="none" stroke="#000000" points="932.5,-56.5 932.5,-75.5 1072.5,-75.5 1072.5,-56.5 932.5,-56.5"/>
<text text-anchor="middle" x="1002.5" y="-63.5" font-family="Helvetica,sans-Serif" font-size="10.00" fill="#000000">Framework/CheckTypes.h</text>
</a>
</g>
</g>
<!-- Node2&#45;&gt;Node7 -->
<g id="edge7" class="edge">
<title>Node2&#45;&gt;Node7</title>
<path fill="none" stroke="#191970" d="M1509.4149,-171.0298C1450.0579,-163.0403 1352.0853,-148.852 1268.5,-132 1189.6271,-116.0981 1098.8898,-92.4065 1046.3769,-78.1547"/>
<polygon fill="#191970" stroke="#191970" points="1047.2818,-74.7737 1036.7134,-75.5214 1045.4414,-81.5275 1047.2818,-74.7737"/>
</g>
<!-- Node2&#45;&gt;Node8 -->
<g id="edge8" class="edge">
<title>Node2&#45;&gt;Node8</title>
<path fill="none" stroke="#191970" d="M1509.4298,-176.8287C1350.7096,-173.15 872.3794,-160.3461 476.5,-132 475.2158,-131.908 473.9224,-131.813 472.6215,-131.715"/>
<polygon fill="#191970" stroke="#191970" points="472.7738,-128.2162 462.5278,-130.9124 472.2189,-135.1942 472.7738,-128.2162"/>
</g>
<!-- Node10 -->
<g id="node11" class="node">
<title>Node10</title>
<g id="a_node11"><a xlink:href="../../d9/de8/CompilerBuiltins_8h.html" target="_top" xlink:title="Framework/CompilerBuiltins.h">
<polygon fill="none" stroke="#000000" points="2036.5,-56.5 2036.5,-75.5 2200.5,-75.5 2200.5,-56.5 2036.5,-56.5"/>
<text text-anchor="middle" x="2118.5" y="-63.5" font-family="Helvetica,sans-Serif" font-size="10.00" fill="#000000">Framework/CompilerBuiltins.h</text>
</a>
</g>
</g>
<!-- Node2&#45;&gt;Node10 -->
<g id="edge11" class="edge">
<title>Node2&#45;&gt;Node10</title>
<path fill="none" stroke="#191970" d="M1582.9432,-168.4248C1601.6046,-159.2002 1630.5556,-144.7987 1655.5,-132 1672.4806,-123.2875 1675.2452,-117.5686 1693.5,-112 1832.8258,-69.4986 1876.6273,-91.0651 2026.2322,-75.9905"/>
<polygon fill="#191970" stroke="#191970" points="2026.6599,-79.465 2036.2415,-74.9435 2025.9316,-72.5029 2026.6599,-79.465"/>
</g>
<!-- Node11 -->
<g id="node12" class="node">
<title>Node11</title>
<g id="a_node12"><a xlink:href="../../db/d31/Traits_8h.html" target="_top" xlink:title="Framework/Traits.h">
<polygon fill="none" stroke="#000000" points="2195,-112.5 2195,-131.5 2304,-131.5 2304,-112.5 2195,-112.5"/>
<text text-anchor="middle" x="2249.5" y="-119.5" font-family="Helvetica,sans-Serif" font-size="10.00" fill="#000000">Framework/Traits.h</text>
</a>
</g>
</g>
<!-- Node2&#45;&gt;Node11 -->
<g id="edge12" class="edge">
<title>Node2&#45;&gt;Node11</title>
<path fill="none" stroke="#191970" d="M1617.6156,-173.5824C1742.3418,-163.4007 2049.6191,-138.3168 2184.38,-127.3159"/>
<polygon fill="#191970" stroke="#191970" points="2184.8728,-130.7874 2194.5549,-126.4853 2184.3032,-123.8106 2184.8728,-130.7874"/>
</g>
<!-- Node13 -->
<g id="node14" class="node">
<title>Node13</title>
<g id="a_node14"><a xlink:href="../../d0/d91/Expressions_8h.html" target="_top" xlink:title="Framework/Expressions.h">
<polygon fill="none" stroke="#000000" points="1278,-112.5 1278,-131.5 1419,-131.5 1419,-112.5 1278,-112.5"/>
<text text-anchor="middle" x="1348.5" y="-119.5" font-family="Helvetica,sans-Serif" font-size="10.00" fill="#000000">Framework/Expressions.h</text>
</a>
</g>
</g>
<!-- Node2&#45;&gt;Node13 -->
<g id="edge14" class="edge">
<title>Node2&#45;&gt;Node13</title>
<path fill="none" stroke="#191970" d="M1526.5402,-168.3733C1490.0925,-158.8799 1434.2754,-144.3415 1394.8711,-134.0781"/>
<polygon fill="#191970" stroke="#191970" points="1395.5369,-130.6348 1384.9775,-131.5011 1393.7724,-137.4087 1395.5369,-130.6348"/>
</g>
<!-- Node2&#45;&gt;Node19 -->
<g id="edge39" class="edge">
<title>Node2&#45;&gt;Node19</title>
<path fill="none" stroke="#191970" d="M1617.5057,-175.3488C1728.537,-169.5167 1978.9331,-154.2947 2061.5,-132 2081.8484,-126.5055 2084.7883,-119.4629 2104.5,-112 2139.9131,-98.5926 2181.0446,-86.542 2212.0343,-78.1413"/>
<polygon fill="#191970" stroke="#191970" points="2212.9667,-81.515 2221.7194,-75.545 2211.1541,-74.7537 2212.9667,-81.515"/>
</g>
<!-- Node20 -->
<g id="node21" class="node">
<title>Node20</title>
<polygon fill="none" stroke="#bfbfbf" points="1871,-56.5 1871,-75.5 2018,-75.5 2018,-56.5 1871,-56.5"/>
<text text-anchor="middle" x="1944.5" y="-63.5" font-family="Helvetica,sans-Serif" font-size="10.00" fill="#000000">gandiva/selection_vector.h</text>
</g>
<!-- Node2&#45;&gt;Node20 -->
<g id="edge44" class="edge">
<title>Node2&#45;&gt;Node20</title>
<path fill="none" stroke="#191970" d="M1617.7343,-170.3197C1664.4376,-162.937 1733.3056,-150.2039 1791.5,-132 1836.5926,-117.8945 1886.4232,-94.9235 1916.5925,-80.1405"/>
<polygon fill="#191970" stroke="#191970" points="1918.2558,-83.2225 1925.6659,-75.6501 1915.1509,-76.9488 1918.2558,-83.2225"/>
</g>
<!-- Node26 -->
<g id="node27" class="node">
<title>Node26</title>
<g id="a_node27"><a xlink:href="../../d0/d92/Kernels_8h.html" target="_top" xlink:title="Framework/Kernels.h">
<polygon fill="none" stroke="#000000" points="519,-112.5 519,-131.5 638,-131.5 638,-112.5 519,-112.5"/>
<text text-anchor="middle" x="578.5" y="-119.5" font-family="Helvetica,sans-Serif" font-size="10.00" fill="#000000">Framework/Kernels.h</text>
</a>
</g>
</g>
<!-- Node2&#45;&gt;Node26 -->
<g id="edge30" class="edge">
<title>Node2&#45;&gt;Node26</title>
<path fill="none" stroke="#191970" d="M1509.4913,-174.9295C1342.6377,-165.4434 835.3997,-136.6055 648.5624,-125.9832"/>
<polygon fill="#191970" stroke="#191970" points="648.4962,-122.4739 638.3137,-125.4006 648.0989,-129.4626 648.4962,-122.4739"/>
</g>
<!-- Node27 -->
<g id="node28" class="node">
<title>Node27</title>
<polygon fill="none" stroke="#bfbfbf" points="512,-56.5 512,-75.5 645,-75.5 645,-56.5 512,-56.5"/>
<text text-anchor="middle" x="578.5" y="-63.5" font-family="Helvetica,sans-Serif" font-size="10.00" fill="#000000">arrow/compute/kernel.h</text>
</g>
<!-- Node2&#45;&gt;Node27 -->
<g id="edge43" class="edge">
<title>Node2&#45;&gt;Node27</title>
<path fill="none" stroke="#191970" d="M1509.3744,-174.4396C1412.535,-167.8278 1203.3035,-152.4459 1027.5,-132 891.618,-116.197 733.5182,-91.4707 645.842,-77.1943"/>
<polygon fill="#191970" stroke="#191970" points="646.198,-73.7062 635.7646,-75.5489 645.0699,-80.6147 646.198,-73.7062"/>
</g>
<!-- Node30 -->
<g id="node31" class="node">
<title>Node30</title>
<polygon fill="none" stroke="#bfbfbf" points="145.5,-56.5 145.5,-75.5 255.5,-75.5 255.5,-56.5 145.5,-56.5"/>
<text text-anchor="middle" x="200.5" y="-63.5" font-family="Helvetica,sans-Serif" font-size="10.00" fill="#000000">arrow/util/variant.h</text>
</g>
<!-- Node2&#45;&gt;Node30 -->
<g id="edge41" class="edge">
<title>Node2&#45;&gt;Node30</title>
<path fill="none" stroke="#191970" d="M1509.1885,-177.0221C1307.2249,-173.195 606.1942,-158.1422 509.5,-132 491.0762,-127.019 489.5782,-118.1177 471.5,-112 461.7798,-108.7106 342.7519,-89.0705 265.7102,-76.5397"/>
<polygon fill="#191970" stroke="#191970" points="266.0327,-73.0463 255.6007,-74.897 264.9099,-79.9556 266.0327,-73.0463"/>
</g>
<!-- Node31 -->
<g id="node32" class="node">
<title>Node31</title>
<g id="a_node32"><a xlink:href="../../d1/dc1/ArrowCompatibility_8h.html" target="_top" xlink:title="Framework/ArrowCompatibility.h">
<polygon fill="none" stroke="#000000" points="1876.5,-112.5 1876.5,-131.5 2052.5,-131.5 2052.5,-112.5 1876.5,-112.5"/>
<text text-anchor="middle" x="1964.5" y="-119.5" font-family="Helvetica,sans-Serif" font-size="10.00" fill="#000000">Framework/ArrowCompatibility.h</text>
</a>
</g>
</g>
<!-- Node2&#45;&gt;Node31 -->
<g id="edge37" class="edge">
<title>Node2&#45;&gt;Node31</title>
<path fill="none" stroke="#191970" d="M1617.5806,-170.4476C1686.7724,-160.7849 1807.1166,-143.9787 1886.2926,-132.9217"/>
<polygon fill="#191970" stroke="#191970" points="1886.7987,-136.3851 1896.2185,-131.5356 1885.8305,-129.4524 1886.7987,-136.3851"/>
</g>
<!-- Node32 -->
<g id="node33" class="node">
<title>Node32</title>
<polygon fill="none" stroke="#bfbfbf" points="1702.5,-112.5 1702.5,-131.5 1782.5,-131.5 1782.5,-112.5 1702.5,-112.5"/>
<text text-anchor="middle" x="1742.5" y="-119.5" font-family="Helvetica,sans-Serif" font-size="10.00" fill="#000000">arrow/array.h</text>
</g>
<!-- Node2&#45;&gt;Node32 -->
<g id="edge40" class="edge">
<title>Node2&#45;&gt;Node32</title>
<path fill="none" stroke="#191970" d="M1594.2712,-168.3733C1624.165,-159.021 1669.7093,-144.7725 1702.4217,-134.5385"/>
<polygon fill="#191970" stroke="#191970" points="1703.6315,-137.8273 1712.1303,-131.5011 1701.5414,-131.1466 1703.6315,-137.8273"/>
</g>
<!-- Node33 -->
<g id="node34" class="node">
<title>Node33</title>
<polygon fill="none" stroke="#bfbfbf" points="1437,-112.5 1437,-131.5 1576,-131.5 1576,-112.5 1437,-112.5"/>
<text text-anchor="middle" x="1506.5" y="-119.5" font-family="Helvetica,sans-Serif" font-size="10.00" fill="#000000">arrow/compute/context.h</text>
</g>
<!-- Node2&#45;&gt;Node33 -->
<g id="edge42" class="edge">
<title>Node2&#45;&gt;Node33</title>
<path fill="none" stroke="#191970" d="M1553.5714,-168.2455C1545.3162,-160.1352 1533.3791,-148.4075 1523.5918,-138.7919"/>
<polygon fill="#191970" stroke="#191970" points="1525.9011,-136.1542 1516.3149,-131.6427 1520.9954,-141.1476 1525.9011,-136.1542"/>
</g>
<!-- Node34 -->
<g id="node35" class="node">
<title>Node34</title>
<polygon fill="none" stroke="#bfbfbf" points="1594.5,-112.5 1594.5,-131.5 1646.5,-131.5 1646.5,-112.5 1594.5,-112.5"/>
<text text-anchor="middle" x="1620.5" y="-119.5" font-family="Helvetica,sans-Serif" font-size="10.00" fill="#000000">cassert</text>
</g>
<!-- Node2&#45;&gt;Node34 -->
<g id="edge45" class="edge">
<title>Node2&#45;&gt;Node34</title>
<path fill="none" stroke="#191970" d="M1573.4286,-168.2455C1581.6838,-160.1352 1593.6209,-148.4075 1603.4082,-138.7919"/>
<polygon fill="#191970" stroke="#191970" points="1606.0046,-141.1476 1610.6851,-131.6427 1601.0989,-136.1542 1606.0046,-141.1476"/>
</g>
<!-- Node4 -->
<g id="node5" class="node">
<title>Node4</title>
<polygon fill="none" stroke="#bfbfbf" points="622,-.5 622,-19.5 675,-19.5 675,-.5 622,-.5"/>
<text text-anchor="middle" x="648.5" y="-7.5" font-family="Helvetica,sans-Serif" font-size="10.00" fill="#000000">cstddef</text>
</g>
<!-- Node3&#45;&gt;Node4 -->
<g id="edge4" class="edge">
<title>Node3&#45;&gt;Node4</title>
<path fill="none" stroke="#191970" d="M703.8295,-56.2455C693.9339,-47.9746 679.5373,-35.9416 667.9099,-26.2232"/>
<polygon fill="#191970" stroke="#191970" points="669.9542,-23.3703 660.0368,-19.6427 665.465,-28.7413 669.9542,-23.3703"/>
</g>
<!-- Node5 -->
<g id="node6" class="node">
<title>Node5</title>
<polygon fill="none" stroke="#bfbfbf" points="693,-.5 693,-19.5 738,-19.5 738,-.5 693,-.5"/>
<text text-anchor="middle" x="715.5" y="-7.5" font-family="Helvetica,sans-Serif" font-size="10.00" fill="#000000">utility</text>
</g>
<!-- Node3&#45;&gt;Node5 -->
<g id="edge5" class="edge">
<title>Node3&#45;&gt;Node5</title>
<path fill="none" stroke="#191970" d="M715.5,-56.2455C715.5,-48.9382 715.5,-38.6944 715.5,-29.7046"/>
<polygon fill="#191970" stroke="#191970" points="719.0001,-29.6426 715.5,-19.6427 712.0001,-29.6427 719.0001,-29.6426"/>
</g>
<!-- Node6 -->
<g id="node7" class="node">
<title>Node6</title>
<polygon fill="none" stroke="#bfbfbf" points="756.5,-.5 756.5,-19.5 802.5,-19.5 802.5,-.5 756.5,-.5"/>
<text text-anchor="middle" x="779.5" y="-7.5" font-family="Helvetica,sans-Serif" font-size="10.00" fill="#000000">cstdio</text>
</g>
<!-- Node3&#45;&gt;Node6 -->
<g id="edge6" class="edge">
<title>Node3&#45;&gt;Node6</title>
<path fill="none" stroke="#191970" d="M726.6479,-56.2455C736.0087,-48.0549 749.5858,-36.1749 760.6349,-26.5069"/>
<polygon fill="#191970" stroke="#191970" points="763.2588,-28.8618 768.4798,-19.6427 758.6492,-23.5937 763.2588,-28.8618"/>
</g>
<!-- Node8&#45;&gt;Node3 -->
<g id="edge9" class="edge">
<title>Node8&#45;&gt;Node3</title>
<path fill="none" stroke="#191970" d="M435.2202,-112.4369C495.6782,-102.4202 590.3394,-86.7367 652.6508,-76.4129"/>
<polygon fill="#191970" stroke="#191970" points="653.4517,-79.828 662.7451,-74.7404 652.3075,-72.9221 653.4517,-79.828"/>
</g>
<!-- Node8&#45;&gt;Node9 -->
<g id="edge10" class="edge">
<title>Node8&#45;&gt;Node9</title>
<path fill="none" stroke="#191970" d="M303.1124,-112.4625C243.9357,-104.4709 158.8368,-92.0811 74.9573,-75.9534"/>
<polygon fill="#191970" stroke="#191970" points="75.4852,-72.4906 65.0014,-74.0201 74.1508,-79.3622 75.4852,-72.4906"/>
</g>
<!-- Node12 -->
<g id="node13" class="node">
<title>Node12</title>
<polygon fill="none" stroke="#bfbfbf" points="2395,-56.5 2395,-75.5 2464,-75.5 2464,-56.5 2395,-56.5"/>
<text text-anchor="middle" x="2429.5" y="-63.5" font-family="Helvetica,sans-Serif" font-size="10.00" fill="#000000">type_traits</text>
</g>
<!-- Node11&#45;&gt;Node12 -->
<g id="edge13" class="edge">
<title>Node11&#45;&gt;Node12</title>
<path fill="none" stroke="#191970" d="M2280.4431,-112.3733C2310.5039,-103.021 2356.3026,-88.7725 2389.1978,-78.5385"/>
<polygon fill="#191970" stroke="#191970" points="2390.4519,-81.8139 2398.9607,-75.5011 2388.3723,-75.1299 2390.4519,-81.8139"/>
</g>
<!-- Node13&#45;&gt;Node3 -->
<g id="edge17" class="edge">
<title>Node13&#45;&gt;Node3</title>
<path fill="none" stroke="#191970" d="M1277.9952,-118.1296C1171.8892,-111.9039 964.6483,-98.1886 778.2117,-75.9959"/>
<polygon fill="#191970" stroke="#191970" points="778.5709,-72.514 768.2249,-74.7965 777.7361,-79.4641 778.5709,-72.514"/>
</g>
<!-- Node13&#45;&gt;Node7 -->
<g id="edge18" class="edge">
<title>Node13&#45;&gt;Node7</title>
<path fill="none" stroke="#191970" d="M1289.4136,-112.4369C1228.9544,-102.6516 1135.0812,-87.4582 1071.3095,-77.1368"/>
<polygon fill="#191970" stroke="#191970" points="1071.7734,-73.6664 1061.3427,-75.5237 1070.655,-80.5765 1071.7734,-73.6664"/>
</g>
<!-- Node13&#45;&gt;Node10 -->
<g id="edge16" class="edge">
<title>Node13&#45;&gt;Node10</title>
<path fill="none" stroke="#191970" d="M1419.1099,-112.828C1421.942,-112.5343 1424.747,-112.2567 1427.5,-112 1689.8092,-87.5425 1759.059,-98.1489 2026.2626,-75.9751"/>
<polygon fill="#191970" stroke="#191970" points="2026.5872,-79.4602 2036.2602,-75.1379 2026.003,-72.4846 2026.5872,-79.4602"/>
</g>
<!-- Node14 -->
<g id="node15" class="node">
<title>Node14</title>
<g id="a_node15"><a xlink:href="../../dd/dc2/BasicOps_8h.html" target="_top" xlink:title="Framework/BasicOps.h">
<polygon fill="none" stroke="#000000" points="786.5,-56.5 786.5,-75.5 914.5,-75.5 914.5,-56.5 786.5,-56.5"/>
<text text-anchor="middle" x="850.5" y="-63.5" font-family="Helvetica,sans-Serif" font-size="10.00" fill="#000000">Framework/BasicOps.h</text>
</a>
</g>
</g>
<!-- Node13&#45;&gt;Node14 -->
<g id="edge15" class="edge">
<title>Node13&#45;&gt;Node14</title>
<path fill="none" stroke="#191970" d="M1277.7421,-114.9605C1195.4769,-106.6367 1055.3339,-92.0265 924.7649,-76.1278"/>
<polygon fill="#191970" stroke="#191970" points="924.9316,-72.6222 914.5808,-74.8827 924.0821,-79.5705 924.9316,-72.6222"/>
</g>
<!-- Node15 -->
<g id="node16" class="node">
<title>Node15</title>
<polygon fill="none" stroke="#bfbfbf" points="1091,-56.5 1091,-75.5 1192,-75.5 1192,-56.5 1091,-56.5"/>
<text text-anchor="middle" x="1141.5" y="-63.5" font-family="Helvetica,sans-Serif" font-size="10.00" fill="#000000">arrow/type_fwd.h</text>
</g>
<!-- Node13&#45;&gt;Node15 -->
<g id="edge19" class="edge">
<title>Node13&#45;&gt;Node15</title>
<path fill="none" stroke="#191970" d="M1312.9154,-112.3733C1277.8984,-102.9001 1224.3119,-88.4032 1186.3875,-78.1435"/>
<polygon fill="#191970" stroke="#191970" points="1187.1873,-74.7341 1176.6202,-75.5011 1185.3592,-81.4912 1187.1873,-74.7341"/>
</g>
<!-- Node16 -->
<g id="node17" class="node">
<title>Node16</title>
<polygon fill="none" stroke="#bfbfbf" points="1210.5,-56.5 1210.5,-75.5 1356.5,-75.5 1356.5,-56.5 1210.5,-56.5"/>
<text text-anchor="middle" x="1283.5" y="-63.5" font-family="Helvetica,sans-Serif" font-size="10.00" fill="#000000">gandiva/gandiva_aliases.h</text>
</g>
<!-- Node13&#45;&gt;Node16 -->
<g id="edge20" class="edge">
<title>Node13&#45;&gt;Node16</title>
<path fill="none" stroke="#191970" d="M1337.1779,-112.2455C1327.5777,-103.9746 1313.6108,-91.9416 1302.3305,-82.2232"/>
<polygon fill="#191970" stroke="#191970" points="1304.553,-79.5182 1294.6924,-75.6427 1299.984,-84.8214 1304.553,-79.5182"/>
</g>
<!-- Node17 -->
<g id="node18" class="node">
<title>Node17</title>
<polygon fill="none" stroke="#bfbfbf" points="1374.5,-56.5 1374.5,-75.5 1452.5,-75.5 1452.5,-56.5 1374.5,-56.5"/>
<text text-anchor="middle" x="1413.5" y="-63.5" font-family="Helvetica,sans-Serif" font-size="10.00" fill="#000000">arrow/type.h</text>
</g>
<!-- Node13&#45;&gt;Node17 -->
<g id="edge21" class="edge">
<title>Node13&#45;&gt;Node17</title>
<path fill="none" stroke="#191970" d="M1359.8221,-112.2455C1369.4223,-103.9746 1383.3892,-91.9416 1394.6695,-82.2232"/>
<polygon fill="#191970" stroke="#191970" points="1397.016,-84.8214 1402.3076,-75.6427 1392.447,-79.5182 1397.016,-84.8214"/>
</g>
<!-- Node18 -->
<g id="node19" class="node">
<title>Node18</title>
<polygon fill="none" stroke="#bfbfbf" points="1471,-56.5 1471,-75.5 1566,-75.5 1566,-56.5 1471,-56.5"/>
<text text-anchor="middle" x="1518.5" y="-63.5" font-family="Helvetica,sans-Serif" font-size="10.00" fill="#000000">gandiva/arrow.h</text>
</g>
<!-- Node13&#45;&gt;Node18 -->
<g id="edge22" class="edge">
<title>Node13&#45;&gt;Node18</title>
<path fill="none" stroke="#191970" d="M1377.724,-112.3733C1405.9925,-103.0613 1448.9965,-88.8953 1480.0344,-78.671"/>
<polygon fill="#191970" stroke="#191970" points="1481.2544,-81.9542 1489.6573,-75.5011 1479.0643,-75.3056 1481.2544,-81.9542"/>
</g>
<!-- Node13&#45;&gt;Node19 -->
<g id="edge23" class="edge">
<title>Node13&#45;&gt;Node19</title>
<path fill="none" stroke="#191970" d="M1419.1054,-112.7788C1421.9388,-112.4987 1424.7453,-112.2374 1427.5,-112 1770.8386,-82.4144 1862.4123,-117.5561 2208.8618,-75.8729"/>
<polygon fill="#191970" stroke="#191970" points="2209.4198,-79.3309 2218.9242,-74.6494 2208.5748,-72.3821 2209.4198,-79.3309"/>
</g>
<!-- Node13&#45;&gt;Node20 -->
<g id="edge24" class="edge">
<title>Node13&#45;&gt;Node20</title>
<path fill="none" stroke="#191970" d="M1419.1177,-112.9077C1421.9477,-112.592 1424.7501,-112.288 1427.5,-112 1616.709,-92.1867 1667.2267,-95.4586 1860.5354,-76.0623"/>
<polygon fill="#191970" stroke="#191970" points="1861.1523,-79.5178 1870.7496,-75.0297 1860.4482,-72.5533 1861.1523,-79.5178"/>
</g>
<!-- Node21 -->
<g id="node22" class="node">
<title>Node21</title>
<polygon fill="none" stroke="#bfbfbf" points="1584.5,-56.5 1584.5,-75.5 1676.5,-75.5 1676.5,-56.5 1584.5,-56.5"/>
<text text-anchor="middle" x="1630.5" y="-63.5" font-family="Helvetica,sans-Serif" font-size="10.00" fill="#000000">gandiva/node.h</text>
</g>
<!-- Node13&#45;&gt;Node21 -->
<g id="edge25" class="edge">
<title>Node13&#45;&gt;Node21</title>
<path fill="none" stroke="#191970" d="M1396.6571,-112.4369C1445.9147,-102.6552 1522.3852,-87.4696 1574.3599,-77.1484"/>
<polygon fill="#191970" stroke="#191970" points="1575.2862,-80.5329 1584.413,-75.152 1573.9227,-73.6669 1575.2862,-80.5329"/>
</g>
<!-- Node22 -->
<g id="node23" class="node">
<title>Node22</title>
<polygon fill="none" stroke="#bfbfbf" points="1695,-56.5 1695,-75.5 1784,-75.5 1784,-56.5 1695,-56.5"/>
<text text-anchor="middle" x="1739.5" y="-63.5" font-family="Helvetica,sans-Serif" font-size="10.00" fill="#000000">gandiva/filter.h</text>
</g>
<!-- Node13&#45;&gt;Node22 -->
<g id="edge26" class="edge">
<title>Node13&#45;&gt;Node22</title>
<path fill="none" stroke="#191970" d="M1419.165,-112.7559C1498.0346,-102.3714 1621.8057,-85.8587 1684.8016,-76.0345"/>
<polygon fill="#191970" stroke="#191970" points="1685.4111,-79.4816 1694.7393,-74.4581 1684.3144,-72.5681 1685.4111,-79.4816"/>
</g>
<!-- Node23 -->
<g id="node24" class="node">
<title>Node23</title>
<polygon fill="none" stroke="#bfbfbf" points="1802,-56.5 1802,-75.5 1853,-75.5 1853,-56.5 1802,-56.5"/>
<text text-anchor="middle" x="1827.5" y="-63.5" font-family="Helvetica,sans-Serif" font-size="10.00" fill="#000000">variant</text>
</g>
<!-- Node13&#45;&gt;Node23 -->
<g id="edge27" class="edge">
<title>Node13&#45;&gt;Node23</title>
<path fill="none" stroke="#191970" d="M1419.1237,-112.9622C1421.952,-112.6314 1424.7524,-112.3093 1427.5,-112 1586.164,-94.1369 1630.5631,-106.0046 1791.3752,-75.8994"/>
<polygon fill="#191970" stroke="#191970" points="1792.4595,-79.2562 1801.6313,-73.9526 1791.154,-72.379 1792.4595,-79.2562"/>
</g>
<!-- Node13&#45;&gt;Node24 -->
<g id="edge28" class="edge">
<title>Node13&#45;&gt;Node24</title>
<path fill="none" stroke="#191970" d="M1277.5993,-120.4412C1041.1573,-115.0904 286.624,-96.7344 137.6918,-75.5501"/>
<polygon fill="#191970" stroke="#191970" points="138.0919,-72.0698 127.666,-73.9545 136.9916,-78.9828 138.0919,-72.0698"/>
</g>
<!-- Node13&#45;&gt;Node25 -->
<g id="edge29" class="edge">
<title>Node13&#45;&gt;Node25</title>
<path fill="none" stroke="#191970" d="M1419.1039,-112.7606C1421.9377,-112.4856 1424.7447,-112.2303 1427.5,-112 1814.684,-79.643 1919.0053,-132.0713 2308.1223,-75.6859"/>
<polygon fill="#191970" stroke="#191970" points="2308.8596,-79.1153 2318.2471,-74.2036 2307.8455,-72.1892 2308.8596,-79.1153"/>
</g>
<!-- Node26&#45;&gt;Node14 -->
<g id="edge31" class="edge">
<title>Node26&#45;&gt;Node14</title>
<path fill="none" stroke="#191970" d="M624.9494,-112.4369C671.7935,-102.7925 744.1539,-87.8948 794.2262,-77.5858"/>
<polygon fill="#191970" stroke="#191970" points="795.1534,-80.9684 804.2422,-75.5237 793.7418,-74.1122 795.1534,-80.9684"/>
</g>
<!-- Node26&#45;&gt;Node24 -->
<g id="edge36" class="edge">
<title>Node26&#45;&gt;Node24</title>
<path fill="none" stroke="#191970" d="M518.7542,-116.1147C411.2237,-105.4796 191.8588,-83.5748 137.5998,-75.4802"/>
<polygon fill="#191970" stroke="#191970" points="138.1504,-72.0236 127.7011,-73.7737 136.9611,-78.9218 138.1504,-72.0236"/>
</g>
<!-- Node26&#45;&gt;Node27 -->
<g id="edge32" class="edge">
<title>Node26&#45;&gt;Node27</title>
<path fill="none" stroke="#191970" d="M578.5,-112.2455C578.5,-104.9382 578.5,-94.6944 578.5,-85.7046"/>
<polygon fill="#191970" stroke="#191970" points="582.0001,-85.6426 578.5,-75.6427 575.0001,-85.6427 582.0001,-85.6426"/>
</g>
<!-- Node28 -->
<g id="node29" class="node">
<title>Node28</title>
<polygon fill="none" stroke="#bfbfbf" points="407.5,-56.5 407.5,-75.5 493.5,-75.5 493.5,-56.5 407.5,-56.5"/>
<text text-anchor="middle" x="450.5" y="-63.5" font-family="Helvetica,sans-Serif" font-size="10.00" fill="#000000">arrow/status.h</text>
</g>
<!-- Node26&#45;&gt;Node28 -->
<g id="edge33" class="edge">
<title>Node26&#45;&gt;Node28</title>
<path fill="none" stroke="#191970" d="M556.496,-112.3733C535.8565,-103.3435 504.7842,-89.7494 481.6111,-79.6111"/>
<polygon fill="#191970" stroke="#191970" points="482.7813,-76.3028 472.2169,-75.5011 479.9755,-82.7159 482.7813,-76.3028"/>
</g>
<!-- Node29 -->
<g id="node30" class="node">
<title>Node29</title>
<polygon fill="none" stroke="#bfbfbf" points="273.5,-56.5 273.5,-75.5 389.5,-75.5 389.5,-56.5 273.5,-56.5"/>
<text text-anchor="middle" x="331.5" y="-63.5" font-family="Helvetica,sans-Serif" font-size="10.00" fill="#000000">arrow/util/visibility.h</text>
</g>
<!-- Node26&#45;&gt;Node29 -->
<g id="edge34" class="edge">
<title>Node26&#45;&gt;Node29</title>
<path fill="none" stroke="#191970" d="M536.3198,-112.4369C494.0477,-102.8529 428.8938,-88.0812 383.4583,-77.78"/>
<polygon fill="#191970" stroke="#191970" points="384.0326,-74.3215 373.5062,-75.5237 382.4848,-81.1482 384.0326,-74.3215"/>
</g>
<!-- Node26&#45;&gt;Node30 -->
<g id="edge35" class="edge">
<title>Node26&#45;&gt;Node30</title>
<path fill="none" stroke="#191970" d="M518.8631,-113.436C457.8414,-104.6341 359.9938,-90.4129 265.6538,-76.1644"/>
<polygon fill="#191970" stroke="#191970" points="266.0638,-72.6867 255.6528,-74.6518 265.017,-79.608 266.0638,-72.6867"/>
</g>
<!-- Node31&#45;&gt;Node19 -->
<g id="edge38" class="edge">
<title>Node31&#45;&gt;Node19</title>
<path fill="none" stroke="#191970" d="M2016.1543,-112.4847C2063.532,-103.7158 2135.9299,-90.2127 2208.5961,-76.1583"/>
<polygon fill="#191970" stroke="#191970" points="2209.6971,-79.5101 2218.8488,-74.1719 2208.3656,-72.6379 2209.6971,-79.5101"/>
</g>
<!-- Node35&#45;&gt;Node11 -->
<g id="edge47" class="edge">
<title>Node35&#45;&gt;Node11</title>
<path fill="none" stroke="#191970" d="M2256.9323,-168.2455C2255.7579,-160.9382 2254.1116,-150.6944 2252.6668,-141.7046"/>
<polygon fill="#191970" stroke="#191970" points="2256.0922,-140.9606 2251.0497,-131.6427 2249.1809,-142.0714 2256.0922,-140.9606"/>
</g>
<!-- Node35&#45;&gt;Node12 -->
<g id="edge49" class="edge">
<title>Node35&#45;&gt;Node12</title>
<path fill="none" stroke="#191970" d="M2271.2016,-168.4684C2288.8919,-155.3134 2322.0922,-131.0583 2351.5,-112 2368.4344,-101.0253 2387.9965,-89.4915 2403.2938,-80.7183"/>
<polygon fill="#191970" stroke="#191970" points="2405.2487,-83.6328 2412.2058,-75.6422 2401.7842,-77.5502 2405.2487,-83.6328"/>
</g>
<!-- Node35&#45;&gt;Node36 -->
<g id="edge48" class="edge">
<title>Node35&#45;&gt;Node36</title>
<path fill="none" stroke="#191970" d="M2279.6445,-168.3733C2299.3892,-159.3838 2329.0698,-145.8706 2351.3055,-135.7471"/>
<polygon fill="#191970" stroke="#191970" points="2352.9806,-138.8302 2360.6315,-131.5011 2350.08,-132.4594 2352.9806,-138.8302"/>
</g>
<!-- Node37&#45;&gt;Node10 -->
<g id="edge52" class="edge">
<title>Node37&#45;&gt;Node10</title>
<path fill="none" stroke="#191970" d="M1883.8212,-168.0425C1871.5178,-154.1702 1853.4657,-128.84 1867.5,-112 1878.0045,-99.3955 1960.4071,-85.9746 2027.9764,-76.9032"/>
<polygon fill="#191970" stroke="#191970" points="2028.7998,-80.3247 2038.2533,-75.5412 2027.8802,-73.3854 2028.7998,-80.3247"/>
</g>
</g>
</svg>
