<?xml version="1.0" encoding="UTF-8" standalone="no"?>
<!DOCTYPE svg PUBLIC "-//W3C//DTD SVG 1.1//EN"
 "http://www.w3.org/Graphics/SVG/1.1/DTD/svg11.dtd">
<!-- Generated by graphviz version 2.40.1 (20161225.0304)
 -->
<!-- Title: /home/travis/build/AliceO2Group/AliceO2/Detectors/MUON/MCH/Raw/Decoder/src/testPageDecoder.cxx Pages: 1 -->
<!--zoomable 419 -->
<svg id="main" version="1.1" xmlns="http://www.w3.org/2000/svg" xmlns:xlink="http://www.w3.org/1999/xlink" xml:space="preserve" onload="init(evt)">
<style type="text/css"><![CDATA[
.edge:hover path { stroke: red; }
.edge:hover polygon { stroke: red; fill: red; }
]]></style>
<script type="text/javascript"><![CDATA[
var edges = document.getElementsByTagName('g');
if (edges && edges.length) {
  for (var i=0;i<edges.length;i++) {
    if (edges[i].id.substr(0,4)=='edge') {
      edges[i].setAttribute('class','edge');
    }
  }
}
]]></script>
        <defs>
                <circle id="rim" cx="0" cy="0" r="7"/>
                <circle id="rim2" cx="0" cy="0" r="3.5"/>
                <g id="zoomPlus">
                        <use xlink:href="#rim" fill="#404040">
                                <set attributeName="fill" to="#808080" begin="zoomplus.mouseover" end="zoomplus.mouseout"/>
                        </use>
                        <path d="M-4,0h8M0,-4v8" fill="none" stroke="white" stroke-width="1.5" pointer-events="none"/>
                </g>
                <g id="zoomMin">
                        <use xlink:href="#rim" fill="#404040">
                                <set attributeName="fill" to="#808080" begin="zoomminus.mouseover" end="zoomminus.mouseout"/>
                        </use>
                        <path d="M-4,0h8" fill="none" stroke="white" stroke-width="1.5" pointer-events="none"/>
                </g>
                <g id="dirArrow">
                        <path fill="none" stroke="white" stroke-width="1.5" d="M0,-3.0v7 M-2.5,-0.5L0,-3.0L2.5,-0.5"/>
                </g>
               <g id="resetDef">
                       <use xlink:href="#rim2" fill="#404040">
                               <set attributeName="fill" to="#808080" begin="reset.mouseover" end="reset.mouseout"/>
                       </use>
               </g>
        </defs>

<script type="text/javascript">
var viewWidth = 2151;
var viewHeight = 419;
var sectionId = 'dynsection-0';
</script>
<script xlink:href="../../svgpan.js"/>
<svg id="graph" class="graph">
<g id="viewport">
<title>/home/travis/build/AliceO2Group/AliceO2/Detectors/MUON/MCH/Raw/Decoder/src/testPageDecoder.cxx</title>
<!-- Node0 -->
<g id="node1" class="node">
<title>Node0</title>
<polygon fill="#bfbfbf" stroke="#000000" points="1145,-358.5 1145,-410.5 1327,-410.5 1327,-358.5 1145,-358.5"/>
<text text-anchor="start" x="1153" y="-398.5" font-family="Helvetica,sans-Serif" font-size="10.00" fill="#000000">/home/travis/build</text>
<text text-anchor="start" x="1153" y="-387.5" font-family="Helvetica,sans-Serif" font-size="10.00" fill="#000000">/AliceO2Group/AliceO2</text>
<text text-anchor="start" x="1153" y="-376.5" font-family="Helvetica,sans-Serif" font-size="10.00" fill="#000000">/Detectors/MUON/MCH/Raw</text>
<text text-anchor="middle" x="1236" y="-365.5" font-family="Helvetica,sans-Serif" font-size="10.00" fill="#000000">/Decoder/src/testPageDecoder.cxx</text>
</g>
<!-- Node1 -->
<g id="node2" class="node">
<title>Node1</title>
<polygon fill="none" stroke="#bfbfbf" points="392,-302.5 392,-321.5 524,-321.5 524,-302.5 392,-302.5"/>
<text text-anchor="middle" x="458" y="-309.5" font-family="Helvetica,sans-Serif" font-size="10.00" fill="#000000">boost/test/unit_test.hpp</text>
</g>
<!-- Node0&#45;&gt;Node1 -->
<g id="edge1" class="edge">
<title>Node0&#45;&gt;Node1</title>
<path fill="none" stroke="#191970" d="M1144.9904,-377.375C1011.6564,-366.7041 755.4468,-345.3184 538,-322 536.8866,-321.8806 535.7647,-321.7589 534.6359,-321.6352"/>
<polygon fill="#191970" stroke="#191970" points="534.6626,-318.1161 524.3334,-320.4734 533.8782,-325.072 534.6626,-318.1161"/>
</g>
<!-- Node2 -->
<g id="node3" class="node">
<title>Node2</title>
<polygon fill="none" stroke="#bfbfbf" points="1270,-.5 1270,-19.5 1330,-19.5 1330,-.5 1270,-.5"/>
<text text-anchor="middle" x="1300" y="-7.5" font-family="Helvetica,sans-Serif" font-size="10.00" fill="#000000">iostream</text>
</g>
<!-- Node0&#45;&gt;Node2 -->
<g id="edge2" class="edge">
<title>Node0&#45;&gt;Node2</title>
<path fill="none" stroke="#191970" d="M1327.3365,-377.6363C1527.4793,-361.3699 1987,-316.8034 1987,-250.5 1987,-250.5 1987,-250.5 1987,-127.5 1987,-61.4743 1487.6191,-22.6228 1340.3864,-12.603"/>
<polygon fill="#191970" stroke="#191970" points="1340.6184,-9.1108 1330.406,-11.9314 1340.1484,-16.095 1340.6184,-9.1108"/>
</g>
<!-- Node3 -->
<g id="node4" class="node">
<title>Node3</title>
<polygon fill="none" stroke="#bfbfbf" points="2015.5,-302.5 2015.5,-321.5 2070.5,-321.5 2070.5,-302.5 2015.5,-302.5"/>
<text text-anchor="middle" x="2043" y="-309.5" font-family="Helvetica,sans-Serif" font-size="10.00" fill="#000000">fstream</text>
</g>
<!-- Node0&#45;&gt;Node3 -->
<g id="edge3" class="edge">
<title>Node0&#45;&gt;Node3</title>
<path fill="none" stroke="#191970" d="M1327.21,-381.5369C1471.1625,-375.8538 1759.5087,-360.3849 2001,-322 2002.2908,-321.7948 2003.6007,-321.5712 2004.9209,-321.3326"/>
<polygon fill="#191970" stroke="#191970" points="2005.9994,-324.6852 2015.1044,-319.2676 2004.6082,-317.8248 2005.9994,-324.6852"/>
</g>
<!-- Node4 -->
<g id="node5" class="node">
<title>Node4</title>
<polygon fill="none" stroke="#bfbfbf" points="1556.5,-118 1556.5,-137 1627.5,-137 1627.5,-118 1556.5,-118"/>
<text text-anchor="middle" x="1592" y="-125" font-family="Helvetica,sans-Serif" font-size="10.00" fill="#000000">fmt/printf.h</text>
</g>
<!-- Node0&#45;&gt;Node4 -->
<g id="edge4" class="edge">
<title>Node0&#45;&gt;Node4</title>
<path fill="none" stroke="#191970" d="M1294.2309,-358.4843C1359.0627,-327.4291 1464.2733,-270.5895 1537,-199 1553.6366,-182.6235 1569.5465,-161.0766 1579.9354,-145.9328"/>
<polygon fill="#191970" stroke="#191970" points="1582.9738,-147.6865 1585.6477,-137.4346 1577.1643,-143.7815 1582.9738,-147.6865"/>
</g>
<!-- Node5 -->
<g id="node6" class="node">
<title>Node5</title>
<g id="a_node6"><a xlink:href="../../dc/d3a/RDHManip_8h.html" target="_top" xlink:title="MCHRawCommon/RDHManip.h">
<polygon fill="none" stroke="#000000" points="209.5,-179.5 209.5,-198.5 376.5,-198.5 376.5,-179.5 209.5,-179.5"/>
<text text-anchor="middle" x="293" y="-186.5" font-family="Helvetica,sans-Serif" font-size="10.00" fill="#000000">MCHRawCommon/RDHManip.h</text>
</a>
</g>
</g>
<!-- Node0&#45;&gt;Node5 -->
<g id="edge5" class="edge">
<title>Node0&#45;&gt;Node5</title>
<path fill="none" stroke="#191970" d="M1144.9563,-375.8836C1050.7762,-366.1261 899.7246,-348.112 771,-322 678.4358,-303.2232 657.0077,-291.2643 566,-266 484.8688,-243.4775 390.3315,-216.692 336.4868,-201.3848"/>
<polygon fill="#191970" stroke="#191970" points="337.1737,-197.9415 326.5976,-198.5725 335.2588,-204.6745 337.1737,-197.9415"/>
</g>
<!-- Node14 -->
<g id="node15" class="node">
<title>Node14</title>
<g id="a_node15"><a xlink:href="../../d0/d64/DataFormats_8h.html" target="_top" xlink:title="MCHRawCommon/DataFormats.h">
<polygon fill="none" stroke="#000000" points="1779.5,-118 1779.5,-137 1958.5,-137 1958.5,-118 1779.5,-118"/>
<text text-anchor="middle" x="1869" y="-125" font-family="Helvetica,sans-Serif" font-size="10.00" fill="#000000">MCHRawCommon/DataFormats.h</text>
</a>
</g>
</g>
<!-- Node0&#45;&gt;Node14 -->
<g id="edge16" class="edge">
<title>Node0&#45;&gt;Node14</title>
<path fill="none" stroke="#191970" d="M1302.5683,-358.3718C1330.7971,-347.239 1364.0352,-334.061 1394,-322 1560.5345,-254.969 1759.1166,-172.9889 1836.1786,-141.0976"/>
<polygon fill="#191970" stroke="#191970" points="1837.9086,-144.1695 1845.8096,-137.1108 1835.2312,-137.7017 1837.9086,-144.1695"/>
</g>
<!-- Node15 -->
<g id="node16" class="node">
<title>Node15</title>
<g id="a_node16"><a xlink:href="../../dc/d36/PageDecoder_8h.html" target="_top" xlink:title="MCHRawDecoder/PageDecoder.h">
<polygon fill="none" stroke="#000000" points="732,-179.5 732,-198.5 908,-198.5 908,-179.5 732,-179.5"/>
<text text-anchor="middle" x="820" y="-186.5" font-family="Helvetica,sans-Serif" font-size="10.00" fill="#000000">MCHRawDecoder/PageDecoder.h</text>
</a>
</g>
</g>
<!-- Node0&#45;&gt;Node15 -->
<g id="edge17" class="edge">
<title>Node0&#45;&gt;Node15</title>
<path fill="none" stroke="#191970" d="M1144.9244,-372.1996C1065.9335,-357.7607 951.892,-327.4765 871,-266 850.9373,-250.7527 836.2873,-225.2073 827.9652,-207.7538"/>
<polygon fill="#191970" stroke="#191970" points="831.1132,-206.2208 823.8034,-198.5516 824.7351,-209.1054 831.1132,-206.2208"/>
</g>
<!-- Node24 -->
<g id="node25" class="node">
<title>Node24</title>
<g id="a_node25"><a xlink:href="../../d4/d78/DataFormats_2Headers_2include_2Headers_2RAWDataHeader_8h.html" target="_top" xlink:title="Headers/RAWDataHeader.h">
<polygon fill="none" stroke="#000000" points="489.5,-179.5 489.5,-198.5 638.5,-198.5 638.5,-179.5 489.5,-179.5"/>
<text text-anchor="middle" x="564" y="-186.5" font-family="Helvetica,sans-Serif" font-size="10.00" fill="#000000">Headers/RAWDataHeader.h</text>
</a>
</g>
</g>
<!-- Node0&#45;&gt;Node24 -->
<g id="edge32" class="edge">
<title>Node0&#45;&gt;Node24</title>
<path fill="none" stroke="#191970" d="M1144.681,-368.9863C1044.3252,-350.4658 879.2664,-315.6394 743,-266 689.2489,-246.4194 628.4056,-219.1094 593.2928,-202.825"/>
<polygon fill="#191970" stroke="#191970" points="594.6413,-199.5921 584.0988,-198.5399 591.6842,-205.9368 594.6413,-199.5921"/>
</g>
<!-- Node25 -->
<g id="node26" class="node">
<title>Node25</title>
<g id="a_node26"><a xlink:href="../../de/d1f/RefBuffers_8h.html" target="_top" xlink:title="RefBuffers.h">
<polygon fill="none" stroke="#000000" points="395,-179.5 395,-198.5 471,-198.5 471,-179.5 395,-179.5"/>
<text text-anchor="middle" x="433" y="-186.5" font-family="Helvetica,sans-Serif" font-size="10.00" fill="#000000">RefBuffers.h</text>
</a>
</g>
</g>
<!-- Node0&#45;&gt;Node25 -->
<g id="edge34" class="edge">
<title>Node0&#45;&gt;Node25</title>
<path fill="none" stroke="#191970" d="M1144.9754,-373.0346C1066.7644,-362.387 951.2463,-344.7594 852,-322 767.0222,-302.5127 747.1434,-292.2328 664,-266 595.4118,-244.3596 515.9631,-217.4743 470.3825,-201.8734"/>
<polygon fill="#191970" stroke="#191970" points="471.2358,-198.466 460.6412,-198.5345 468.9661,-205.0878 471.2358,-198.466"/>
</g>
<!-- Node26 -->
<g id="node27" class="node">
<title>Node26</title>
<g id="a_node27"><a xlink:href="../../da/db7/BareGBTDecoder_8h.html" target="_top" xlink:title="BareGBTDecoder.h">
<polygon fill="none" stroke="#000000" points="1182,-302.5 1182,-321.5 1290,-321.5 1290,-302.5 1182,-302.5"/>
<text text-anchor="middle" x="1236" y="-309.5" font-family="Helvetica,sans-Serif" font-size="10.00" fill="#000000">BareGBTDecoder.h</text>
</a>
</g>
</g>
<!-- Node0&#45;&gt;Node26 -->
<g id="edge37" class="edge">
<title>Node0&#45;&gt;Node26</title>
<path fill="none" stroke="#191970" d="M1236,-358.3258C1236,-349.5142 1236,-339.8397 1236,-331.621"/>
<polygon fill="#191970" stroke="#191970" points="1239.5001,-331.534 1236,-321.534 1232.5001,-331.534 1239.5001,-331.534"/>
</g>
<!-- Node38 -->
<g id="node39" class="node">
<title>Node38</title>
<polygon fill="none" stroke="#bfbfbf" points="2089,-302.5 2089,-321.5 2143,-321.5 2143,-302.5 2089,-302.5"/>
<text text-anchor="middle" x="2116" y="-309.5" font-family="Helvetica,sans-Serif" font-size="10.00" fill="#000000">random</text>
</g>
<!-- Node0&#45;&gt;Node38 -->
<g id="edge72" class="edge">
<title>Node0&#45;&gt;Node38</title>
<path fill="none" stroke="#191970" d="M1327.106,-380.0279C1510.4559,-370.6627 1919.3567,-347.8404 2078.4939,-321.9195"/>
<polygon fill="#191970" stroke="#191970" points="2079.3339,-325.3272 2088.6098,-320.2078 2078.166,-318.4254 2079.3339,-325.3272"/>
</g>
<!-- Node5&#45;&gt;Node2 -->
<g id="edge9" class="edge">
<title>Node5&#45;&gt;Node2</title>
<path fill="none" stroke="#191970" d="M286.3639,-179.4991C276.1744,-163.6357 259.4962,-131.5704 276,-112 371.0563,.7189 456.572,-73.3228 603,-56 731.7047,-40.7739 1131.3718,-18.9065 1259.8136,-12.1019"/>
<polygon fill="#191970" stroke="#191970" points="1260.1895,-15.587 1269.9909,-11.5642 1259.8201,-8.5967 1260.1895,-15.587"/>
</g>
<!-- Node6 -->
<g id="node7" class="node">
<title>Node6</title>
<polygon fill="none" stroke="#bfbfbf" points="217,-.5 217,-19.5 267,-19.5 267,-.5 217,-.5"/>
<text text-anchor="middle" x="242" y="-7.5" font-family="Helvetica,sans-Serif" font-size="10.00" fill="#000000">cstdint</text>
</g>
<!-- Node5&#45;&gt;Node6 -->
<g id="edge6" class="edge">
<title>Node5&#45;&gt;Node6</title>
<path fill="none" stroke="#191970" d="M264.1892,-179.4613C247.481,-172.274 227.8485,-160.5938 218,-143 197.472,-106.328 217.419,-55.8633 231.2517,-28.8594"/>
<polygon fill="#191970" stroke="#191970" points="234.5039,-30.2014 236.1567,-19.7363 228.3385,-26.8866 234.5039,-30.2014"/>
</g>
<!-- Node7 -->
<g id="node8" class="node">
<title>Node7</title>
<polygon fill="none" stroke="#bfbfbf" points="612.5,-56.5 612.5,-75.5 677.5,-75.5 677.5,-56.5 612.5,-56.5"/>
<text text-anchor="middle" x="645" y="-63.5" font-family="Helvetica,sans-Serif" font-size="10.00" fill="#000000">functional</text>
</g>
<!-- Node5&#45;&gt;Node7 -->
<g id="edge7" class="edge">
<title>Node5&#45;&gt;Node7</title>
<path fill="none" stroke="#191970" d="M288.6829,-179.3313C282.2251,-163.2205 272.4727,-130.8002 289,-112 309.408,-88.7854 511.9957,-73.9252 602.135,-68.4129"/>
<polygon fill="#191970" stroke="#191970" points="602.5229,-71.896 612.2948,-67.8022 602.1028,-64.9086 602.5229,-71.896"/>
</g>
<!-- Node8 -->
<g id="node9" class="node">
<title>Node8</title>
<polygon fill="none" stroke="#bfbfbf" points="600.5,-118 600.5,-137 657.5,-137 657.5,-118 600.5,-118"/>
<text text-anchor="middle" x="629" y="-125" font-family="Helvetica,sans-Serif" font-size="10.00" fill="#000000">gsl/span</text>
</g>
<!-- Node5&#45;&gt;Node8 -->
<g id="edge8" class="edge">
<title>Node5&#45;&gt;Node8</title>
<path fill="none" stroke="#191970" d="M348.6427,-179.4963C401.1369,-170.4406 482.0012,-156.2596 552,-143 564.4559,-140.6405 578.02,-137.9506 590.2446,-135.4813"/>
<polygon fill="#191970" stroke="#191970" points="591.0409,-138.8911 600.1445,-133.4712 589.648,-132.0311 591.0409,-138.8911"/>
</g>
<!-- Node9 -->
<g id="node10" class="node">
<title>Node9</title>
<polygon fill="none" stroke="#bfbfbf" points="298,-118 298,-137 342,-137 342,-118 298,-118"/>
<text text-anchor="middle" x="320" y="-125" font-family="Helvetica,sans-Serif" font-size="10.00" fill="#000000">string</text>
</g>
<!-- Node5&#45;&gt;Node9 -->
<g id="edge10" class="edge">
<title>Node5&#45;&gt;Node9</title>
<path fill="none" stroke="#191970" d="M297.2188,-179.3906C301.0796,-170.5965 306.9034,-157.3312 311.6961,-146.4145"/>
<polygon fill="#191970" stroke="#191970" points="314.9066,-147.8083 315.7218,-137.2449 308.4971,-144.9943 314.9066,-147.8083"/>
</g>
<!-- Node10 -->
<g id="node11" class="node">
<title>Node10</title>
<polygon fill="none" stroke="#bfbfbf" points="360.5,-118 360.5,-137 433.5,-137 433.5,-118 360.5,-118"/>
<text text-anchor="middle" x="397" y="-125" font-family="Helvetica,sans-Serif" font-size="10.00" fill="#000000">string_view</text>
</g>
<!-- Node5&#45;&gt;Node10 -->
<g id="edge11" class="edge">
<title>Node5&#45;&gt;Node10</title>
<path fill="none" stroke="#191970" d="M309.25,-179.3906C326.1169,-169.4165 352.7099,-153.6908 372.2035,-142.1633"/>
<polygon fill="#191970" stroke="#191970" points="374.038,-145.1447 380.8641,-137.0419 370.4749,-139.1194 374.038,-145.1447"/>
</g>
<!-- Node11 -->
<g id="node12" class="node">
<title>Node11</title>
<polygon fill="none" stroke="#bfbfbf" points="855.5,-.5 855.5,-19.5 902.5,-19.5 902.5,-.5 855.5,-.5"/>
<text text-anchor="middle" x="879" y="-7.5" font-family="Helvetica,sans-Serif" font-size="10.00" fill="#000000">vector</text>
</g>
<!-- Node5&#45;&gt;Node11 -->
<g id="edge12" class="edge">
<title>Node5&#45;&gt;Node11</title>
<path fill="none" stroke="#191970" d="M339.0593,-179.4797C369.4197,-172.0909 409.4362,-160.1824 442,-143 461.5831,-132.6669 462.1345,-123.5916 481,-112 531.8328,-80.7665 545.9068,-73.3169 603,-56 699.9122,-26.6056 728.295,-37.7458 828,-20 833.6075,-19.002 839.5505,-17.8881 845.3226,-16.7762"/>
<polygon fill="#191970" stroke="#191970" points="846.2759,-20.1562 855.4185,-14.8024 844.9327,-13.2862 846.2759,-20.1562"/>
</g>
<!-- Node12 -->
<g id="node13" class="node">
<title>Node12</title>
<g id="a_node13"><a xlink:href="../../dd/d9a/RDHFields_8h.html" target="_top" xlink:title="MCHRawCommon/RDHFields.h">
<polygon fill="none" stroke="#000000" points="0,-56.5 0,-75.5 166,-75.5 166,-56.5 0,-56.5"/>
<text text-anchor="middle" x="83" y="-63.5" font-family="Helvetica,sans-Serif" font-size="10.00" fill="#000000">MCHRawCommon/RDHFields.h</text>
</a>
</g>
</g>
<!-- Node5&#45;&gt;Node12 -->
<g id="edge13" class="edge">
<title>Node5&#45;&gt;Node12</title>
<path fill="none" stroke="#191970" d="M263.129,-179.4608C239.7002,-171.3687 206.7011,-158.6008 180,-143 149.9209,-125.4256 119.0611,-99.2533 100.4576,-82.4061"/>
<polygon fill="#191970" stroke="#191970" points="102.7782,-79.7853 93.046,-75.5976 98.0425,-84.9403 102.7782,-79.7853"/>
</g>
<!-- Node13 -->
<g id="node14" class="node">
<title>Node13</title>
<polygon fill="none" stroke="#bfbfbf" points="490.5,-118 490.5,-137 543.5,-137 543.5,-118 490.5,-118"/>
<text text-anchor="middle" x="517" y="-125" font-family="Helvetica,sans-Serif" font-size="10.00" fill="#000000">cstddef</text>
</g>
<!-- Node5&#45;&gt;Node13 -->
<g id="edge15" class="edge">
<title>Node5&#45;&gt;Node13</title>
<path fill="none" stroke="#191970" d="M337.026,-179.4333C374.343,-170.9681 429.1122,-157.7022 476,-143 478.4143,-142.243 480.8931,-141.4211 483.379,-140.564"/>
<polygon fill="#191970" stroke="#191970" points="484.6548,-143.8247 492.8798,-137.1464 482.2853,-137.2379 484.6548,-143.8247"/>
</g>
<!-- Node12&#45;&gt;Node6 -->
<g id="edge14" class="edge">
<title>Node12&#45;&gt;Node6</title>
<path fill="none" stroke="#191970" d="M110.3331,-56.3733C137.0994,-46.9461 177.991,-32.544 207.0955,-22.2934"/>
<polygon fill="#191970" stroke="#191970" points="208.5867,-25.479 216.856,-18.8557 206.2612,-18.8766 208.5867,-25.479"/>
</g>
<!-- Node15&#45;&gt;Node7 -->
<g id="edge18" class="edge">
<title>Node15&#45;&gt;Node7</title>
<path fill="none" stroke="#191970" d="M782.4977,-179.4955C758.6872,-172.1954 728.117,-160.3804 705,-143 683.8251,-127.0797 666.1382,-101.8916 655.575,-84.6901"/>
<polygon fill="#191970" stroke="#191970" points="658.3104,-82.4398 650.2062,-75.6154 652.2858,-86.0042 658.3104,-82.4398"/>
</g>
<!-- Node15&#45;&gt;Node8 -->
<g id="edge19" class="edge">
<title>Node15&#45;&gt;Node8</title>
<path fill="none" stroke="#191970" d="M787.8213,-179.4504C757.7518,-170.42 711.6679,-156.3067 672,-143 669.5643,-142.1829 667.0569,-141.3246 664.535,-140.4486"/>
<polygon fill="#191970" stroke="#191970" points="665.4513,-137.0604 654.8565,-137.0315 663.1209,-143.6611 665.4513,-137.0604"/>
</g>
<!-- Node16 -->
<g id="node17" class="node">
<title>Node16</title>
<polygon fill="none" stroke="#bfbfbf" points="714,-118 714,-137 752,-137 752,-118 714,-118"/>
<text text-anchor="middle" x="733" y="-125" font-family="Helvetica,sans-Serif" font-size="10.00" fill="#000000">map</text>
</g>
<!-- Node15&#45;&gt;Node16 -->
<g id="edge20" class="edge">
<title>Node15&#45;&gt;Node16</title>
<path fill="none" stroke="#191970" d="M806.4063,-179.3906C792.6157,-169.6421 771.0528,-154.3994 754.859,-142.9521"/>
<polygon fill="#191970" stroke="#191970" points="756.6844,-139.9563 746.4983,-137.0419 752.6437,-145.6723 756.6844,-139.9563"/>
</g>
<!-- Node17 -->
<g id="node18" class="node">
<title>Node17</title>
<g id="a_node18"><a xlink:href="../../dd/d58/SampaChannelHandler_8h.html" target="_top" xlink:title="MCHRawDecoder/SampaChannel\lHandler.h">
<polygon fill="none" stroke="#000000" points="769.5,-112.5 769.5,-142.5 946.5,-142.5 946.5,-112.5 769.5,-112.5"/>
<text text-anchor="start" x="777.5" y="-130.5" font-family="Helvetica,sans-Serif" font-size="10.00" fill="#000000">MCHRawDecoder/SampaChannel</text>
<text text-anchor="middle" x="858" y="-119.5" font-family="Helvetica,sans-Serif" font-size="10.00" fill="#000000">Handler.h</text>
</a>
</g>
</g>
<!-- Node15&#45;&gt;Node17 -->
<g id="edge21" class="edge">
<title>Node15&#45;&gt;Node17</title>
<path fill="none" stroke="#191970" d="M825.9375,-179.3906C830.6041,-171.838 837.3085,-160.9876 843.3812,-151.1593"/>
<polygon fill="#191970" stroke="#191970" points="846.4252,-152.8914 848.7042,-142.5446 840.4702,-149.2119 846.4252,-152.8914"/>
</g>
<!-- Node17&#45;&gt;Node7 -->
<g id="edge22" class="edge">
<title>Node17&#45;&gt;Node7</title>
<path fill="none" stroke="#191970" d="M805.8943,-112.4554C769.4633,-101.9366 721.4242,-88.0661 687.3497,-78.2277"/>
<polygon fill="#191970" stroke="#191970" points="688.2703,-74.8506 677.6918,-75.4392 686.3284,-81.5759 688.2703,-74.8506"/>
</g>
<!-- Node18 -->
<g id="node19" class="node">
<title>Node18</title>
<g id="a_node19"><a xlink:href="../../d0/d5b/SampaCluster_8h.html" target="_top" xlink:title="MCHRawCommon/SampaCluster.h">
<polygon fill="none" stroke="#000000" points="945,-56.5 945,-75.5 1129,-75.5 1129,-56.5 945,-56.5"/>
<text text-anchor="middle" x="1037" y="-63.5" font-family="Helvetica,sans-Serif" font-size="10.00" fill="#000000">MCHRawCommon/SampaCluster.h</text>
</a>
</g>
</g>
<!-- Node17&#45;&gt;Node18 -->
<g id="edge23" class="edge">
<title>Node17&#45;&gt;Node18</title>
<path fill="none" stroke="#191970" d="M901.7883,-112.4554C931.7859,-102.149 971.1487,-88.6249 999.6616,-78.8286"/>
<polygon fill="#191970" stroke="#191970" points="1000.9413,-82.0898 1009.2614,-75.5303 998.6667,-75.4696 1000.9413,-82.0898"/>
</g>
<!-- Node21 -->
<g id="node22" class="node">
<title>Node21</title>
<g id="a_node22"><a xlink:href="../../d4/d09/DsElecId_8h.html" target="_top" xlink:title="MCHRawElecMap/DsElecId.h">
<polygon fill="none" stroke="#000000" points="695.5,-56.5 695.5,-75.5 850.5,-75.5 850.5,-56.5 695.5,-56.5"/>
<text text-anchor="middle" x="773" y="-63.5" font-family="Helvetica,sans-Serif" font-size="10.00" fill="#000000">MCHRawElecMap/DsElecId.h</text>
</a>
</g>
</g>
<!-- Node17&#45;&gt;Node21 -->
<g id="edge28" class="edge">
<title>Node17&#45;&gt;Node21</title>
<path fill="none" stroke="#191970" d="M836.9888,-112.2977C824.2066,-103.0495 807.9054,-91.2551 794.9552,-81.8853"/>
<polygon fill="#191970" stroke="#191970" points="796.763,-78.8732 786.6096,-75.8469 792.6597,-84.5445 796.763,-78.8732"/>
</g>
<!-- Node18&#45;&gt;Node2 -->
<g id="edge26" class="edge">
<title>Node18&#45;&gt;Node2</title>
<path fill="none" stroke="#191970" d="M1081.9125,-56.4369C1131.8013,-45.8142 1211.6217,-28.8182 1259.6088,-18.6004"/>
<polygon fill="#191970" stroke="#191970" points="1260.5816,-21.9718 1269.6334,-16.4659 1259.1238,-15.1253 1260.5816,-21.9718"/>
</g>
<!-- Node18&#45;&gt;Node11 -->
<g id="edge25" class="edge">
<title>Node18&#45;&gt;Node11</title>
<path fill="none" stroke="#191970" d="M1009.8388,-56.3733C982.8462,-46.8062 941.3975,-32.1156 912.4055,-21.8399"/>
<polygon fill="#191970" stroke="#191970" points="913.309,-18.4469 902.7143,-18.4051 910.9705,-25.0447 913.309,-18.4469"/>
</g>
<!-- Node19 -->
<g id="node20" class="node">
<title>Node19</title>
<polygon fill="none" stroke="#bfbfbf" points="1012.5,-.5 1012.5,-19.5 1061.5,-19.5 1061.5,-.5 1012.5,-.5"/>
<text text-anchor="middle" x="1037" y="-7.5" font-family="Helvetica,sans-Serif" font-size="10.00" fill="#000000">cstdlib</text>
</g>
<!-- Node18&#45;&gt;Node19 -->
<g id="edge24" class="edge">
<title>Node18&#45;&gt;Node19</title>
<path fill="none" stroke="#191970" d="M1037,-56.2455C1037,-48.9382 1037,-38.6944 1037,-29.7046"/>
<polygon fill="#191970" stroke="#191970" points="1040.5001,-29.6426 1037,-19.6427 1033.5001,-29.6427 1040.5001,-29.6426"/>
</g>
<!-- Node20 -->
<g id="node21" class="node">
<title>Node20</title>
<polygon fill="none" stroke="#bfbfbf" points="1552.5,-.5 1552.5,-19.5 1631.5,-19.5 1631.5,-.5 1552.5,-.5"/>
<text text-anchor="middle" x="1592" y="-7.5" font-family="Helvetica,sans-Serif" font-size="10.00" fill="#000000">fmt/format.h</text>
</g>
<!-- Node18&#45;&gt;Node20 -->
<g id="edge27" class="edge">
<title>Node18&#45;&gt;Node20</title>
<path fill="none" stroke="#191970" d="M1129.27,-56.6899C1247.8121,-44.7289 1449.3477,-24.3937 1542.3149,-15.0133"/>
<polygon fill="#191970" stroke="#191970" points="1542.7043,-18.4918 1552.3024,-14.0055 1542.0015,-11.5272 1542.7043,-18.4918"/>
</g>
<!-- Node21&#45;&gt;Node6 -->
<g id="edge29" class="edge">
<title>Node21&#45;&gt;Node6</title>
<path fill="none" stroke="#191970" d="M695.1893,-56.9072C692.4258,-56.5986 689.6894,-56.2954 687,-56 534.678,-39.2719 352.8282,-21.0058 277.438,-13.5083"/>
<polygon fill="#191970" stroke="#191970" points="277.4006,-9.9874 267.1036,-12.4817 276.7086,-16.9531 277.4006,-9.9874"/>
</g>
<!-- Node22 -->
<g id="node23" class="node">
<title>Node22</title>
<polygon fill="none" stroke="#bfbfbf" points="695.5,-.5 695.5,-19.5 744.5,-19.5 744.5,-.5 695.5,-.5"/>
<text text-anchor="middle" x="720" y="-7.5" font-family="Helvetica,sans-Serif" font-size="10.00" fill="#000000">iosfwd</text>
</g>
<!-- Node21&#45;&gt;Node22 -->
<g id="edge30" class="edge">
<title>Node21&#45;&gt;Node22</title>
<path fill="none" stroke="#191970" d="M763.7681,-56.2455C756.1683,-48.2155 745.2123,-36.6394 736.1632,-27.0781"/>
<polygon fill="#191970" stroke="#191970" points="738.542,-24.4998 729.1261,-19.6427 733.4579,-29.3115 738.542,-24.4998"/>
</g>
<!-- Node23 -->
<g id="node24" class="node">
<title>Node23</title>
<polygon fill="none" stroke="#bfbfbf" points="763,-.5 763,-19.5 819,-19.5 819,-.5 763,-.5"/>
<text text-anchor="middle" x="791" y="-7.5" font-family="Helvetica,sans-Serif" font-size="10.00" fill="#000000">optional</text>
</g>
<!-- Node21&#45;&gt;Node23 -->
<g id="edge31" class="edge">
<title>Node21&#45;&gt;Node23</title>
<path fill="none" stroke="#191970" d="M776.1354,-56.2455C778.51,-48.8579 781.8493,-38.4689 784.7615,-29.4087"/>
<polygon fill="#191970" stroke="#191970" points="788.1725,-30.234 787.9006,-19.6427 781.5083,-28.0919 788.1725,-30.234"/>
</g>
<!-- Node24&#45;&gt;Node6 -->
<g id="edge33" class="edge">
<title>Node24&#45;&gt;Node6</title>
<path fill="none" stroke="#191970" d="M565.4226,-179.4378C567.2282,-163.484 568.3714,-131.2891 552,-112 515.7454,-69.2841 350.4884,-31.6914 277.1893,-16.8004"/>
<polygon fill="#191970" stroke="#191970" points="277.5613,-13.3054 267.0683,-14.7702 276.1846,-20.1686 277.5613,-13.3054"/>
</g>
<!-- Node25&#45;&gt;Node8 -->
<g id="edge36" class="edge">
<title>Node25&#45;&gt;Node8</title>
<path fill="none" stroke="#191970" d="M463.625,-179.3906C497.8729,-168.6445 553.3982,-151.222 590.5434,-139.5667"/>
<polygon fill="#191970" stroke="#191970" points="592.0065,-142.776 600.4999,-136.4426 589.9107,-136.0971 592.0065,-142.776"/>
</g>
<!-- Node25&#45;&gt;Node13 -->
<g id="edge35" class="edge">
<title>Node25&#45;&gt;Node13</title>
<path fill="none" stroke="#191970" d="M446.125,-179.3906C459.44,-169.6421 480.2594,-154.3994 495.8947,-142.9521"/>
<polygon fill="#191970" stroke="#191970" points="497.9661,-145.7734 503.9672,-137.0419 493.8309,-140.1253 497.9661,-145.7734"/>
</g>
<!-- Node26&#45;&gt;Node2 -->
<g id="edge63" class="edge">
<title>Node26&#45;&gt;Node2</title>
<path fill="none" stroke="#191970" d="M1235.7605,-302.1753C1235.4913,-271.1248 1238.4331,-173.528 1283,-112 1301.0197,-87.1224 1326.9648,-102.7871 1342,-76 1351.7596,-58.6121 1336.5119,-39.4612 1321.7299,-26.2879"/>
<polygon fill="#191970" stroke="#191970" points="1323.6542,-23.3361 1313.7273,-19.6337 1319.1786,-28.7185 1323.6542,-23.3361"/>
</g>
<!-- Node26&#45;&gt;Node4 -->
<g id="edge57" class="edge">
<title>Node26&#45;&gt;Node4</title>
<path fill="none" stroke="#191970" d="M1290.1974,-303.0536C1325.0436,-295.9794 1370.6237,-284.2063 1408,-266 1475.9726,-232.8899 1543.9242,-173.1234 1574.7969,-144.1478"/>
<polygon fill="#191970" stroke="#191970" points="1577.3163,-146.582 1582.1587,-137.1585 1572.4966,-141.5055 1577.3163,-146.582"/>
</g>
<!-- Node26&#45;&gt;Node8 -->
<g id="edge56" class="edge">
<title>Node26&#45;&gt;Node8</title>
<path fill="none" stroke="#191970" d="M1181.8342,-308.912C1109.9684,-303.969 979.5294,-292.0483 871,-266 785.5601,-245.4934 756.2018,-250.4858 685,-199 665.5311,-184.9221 649.3989,-162.2719 639.5286,-146.2416"/>
<polygon fill="#191970" stroke="#191970" points="642.3179,-144.0818 634.2184,-137.2518 636.2909,-147.642 642.3179,-144.0818"/>
</g>
<!-- Node26&#45;&gt;Node17 -->
<g id="edge55" class="edge">
<title>Node26&#45;&gt;Node17</title>
<path fill="none" stroke="#191970" d="M1200.385,-302.4541C1172.6086,-294.3996 1133.4335,-281.6844 1101,-266 1036.7394,-234.9244 1028.3415,-213.7657 966,-179 945.3263,-167.471 921.6584,-156.0016 901.7582,-146.823"/>
<polygon fill="#191970" stroke="#191970" points="903.1637,-143.6172 892.6137,-142.6434 900.2538,-149.9837 903.1637,-143.6172"/>
</g>
<!-- Node26&#45;&gt;Node20 -->
<g id="edge58" class="edge">
<title>Node26&#45;&gt;Node20</title>
<path fill="none" stroke="#191970" d="M1290.0478,-307.5848C1403.4831,-296.8267 1656,-264.4094 1656,-189 1656,-189 1656,-189 1656,-127.5 1656,-87.9217 1627.6501,-48.978 1608.6873,-27.3561"/>
<polygon fill="#191970" stroke="#191970" points="1611.0394,-24.7406 1601.7202,-19.7003 1605.8622,-29.452 1611.0394,-24.7406"/>
</g>
<!-- Node27 -->
<g id="node28" class="node">
<title>Node27</title>
<polygon fill="none" stroke="#bfbfbf" points="1078,-179.5 1078,-198.5 1120,-198.5 1120,-179.5 1078,-179.5"/>
<text text-anchor="middle" x="1099" y="-186.5" font-family="Helvetica,sans-Serif" font-size="10.00" fill="#000000">array</text>
</g>
<!-- Node26&#45;&gt;Node27 -->
<g id="edge38" class="edge">
<title>Node26&#45;&gt;Node27</title>
<path fill="none" stroke="#191970" d="M1186.8298,-302.4556C1164.2875,-295.7509 1138.8863,-284.5394 1122,-266 1107.5886,-250.1778 1102.1899,-225.67 1100.1774,-208.5667"/>
<polygon fill="#191970" stroke="#191970" points="1103.6596,-208.211 1099.2831,-198.5624 1096.6874,-208.8343 1103.6596,-208.211"/>
</g>
<!-- Node28 -->
<g id="node29" class="node">
<title>Node28</title>
<g id="a_node29"><a xlink:href="../../d7/ddc/BareElinkDecoder_8h.html" target="_top" xlink:title="BareElinkDecoder.h">
<polygon fill="none" stroke="#000000" points="1341,-179.5 1341,-198.5 1453,-198.5 1453,-179.5 1341,-179.5"/>
<text text-anchor="middle" x="1397" y="-186.5" font-family="Helvetica,sans-Serif" font-size="10.00" fill="#000000">BareElinkDecoder.h</text>
</a>
</g>
</g>
<!-- Node26&#45;&gt;Node28 -->
<g id="edge39" class="edge">
<title>Node26&#45;&gt;Node28</title>
<path fill="none" stroke="#191970" d="M1289.3209,-302.4612C1328.1444,-294.3694 1376.0937,-281.6016 1389,-266 1402.1413,-250.1143 1402.4062,-225.6191 1400.5076,-208.5361"/>
<polygon fill="#191970" stroke="#191970" points="1403.958,-207.9408 1399.0612,-198.5455 1397.0302,-208.9439 1403.958,-207.9408"/>
</g>
<!-- Node29 -->
<g id="node30" class="node">
<title>Node29</title>
<g id="a_node30"><a xlink:href="../../dc/d46/Assertions_8h.html" target="_top" xlink:title="Assertions.h">
<polygon fill="none" stroke="#000000" points="1684.5,-118 1684.5,-137 1761.5,-137 1761.5,-118 1684.5,-118"/>
<text text-anchor="middle" x="1723" y="-125" font-family="Helvetica,sans-Serif" font-size="10.00" fill="#000000">Assertions.h</text>
</a>
</g>
</g>
<!-- Node26&#45;&gt;Node29 -->
<g id="edge62" class="edge">
<title>Node26&#45;&gt;Node29</title>
<path fill="none" stroke="#191970" d="M1290.2348,-309.3989C1399.97,-303.6863 1640.4543,-288.7163 1670,-266 1707.4633,-237.1963 1718.4509,-178.4965 1721.6695,-147.5787"/>
<polygon fill="#191970" stroke="#191970" points="1725.1915,-147.473 1722.5617,-137.2097 1718.2173,-146.8729 1725.1915,-147.473"/>
</g>
<!-- Node34 -->
<g id="node35" class="node">
<title>Node34</title>
<g id="a_node35"><a xlink:href="../../d7/dee/MakeArray_8h.html" target="_top" xlink:title="MakeArray.h">
<polygon fill="none" stroke="#000000" points="1130.5,-241 1130.5,-260 1207.5,-260 1207.5,-241 1130.5,-241"/>
<text text-anchor="middle" x="1169" y="-248" font-family="Helvetica,sans-Serif" font-size="10.00" fill="#000000">MakeArray.h</text>
</a>
</g>
</g>
<!-- Node26&#45;&gt;Node34 -->
<g id="edge59" class="edge">
<title>Node26&#45;&gt;Node34</title>
<path fill="none" stroke="#191970" d="M1225.5313,-302.3906C1215.2663,-292.9683 1199.4097,-278.4134 1187.0994,-267.1137"/>
<polygon fill="#191970" stroke="#191970" points="1189.3501,-264.4287 1179.6163,-260.2449 1184.6166,-269.5856 1189.3501,-264.4287"/>
</g>
<!-- Node36 -->
<g id="node37" class="node">
<title>Node36</title>
<polygon fill="none" stroke="#bfbfbf" points="1264,-235.5 1264,-265.5 1380,-265.5 1380,-235.5 1264,-235.5"/>
<text text-anchor="start" x="1272" y="-253.5" font-family="Helvetica,sans-Serif" font-size="10.00" fill="#000000">boost/multiprecision</text>
<text text-anchor="middle" x="1322" y="-242.5" font-family="Helvetica,sans-Serif" font-size="10.00" fill="#000000">/cpp_int.hpp</text>
</g>
<!-- Node26&#45;&gt;Node36 -->
<g id="edge64" class="edge">
<title>Node26&#45;&gt;Node36</title>
<path fill="none" stroke="#191970" d="M1249.4375,-302.3906C1260.9688,-294.1444 1277.9976,-281.9669 1292.6611,-271.4807"/>
<polygon fill="#191970" stroke="#191970" points="1294.8638,-274.2084 1300.962,-265.5446 1290.792,-268.5145 1294.8638,-274.2084"/>
</g>
<!-- Node37 -->
<g id="node38" class="node">
<title>Node37</title>
<g id="a_node38"><a xlink:href="../../d0/da1/PayloadDecoder_8h.html" target="_top" xlink:title="PayloadDecoder.h">
<polygon fill="none" stroke="#000000" points="880,-241 880,-260 984,-260 984,-241 880,-241"/>
<text text-anchor="middle" x="932" y="-248" font-family="Helvetica,sans-Serif" font-size="10.00" fill="#000000">PayloadDecoder.h</text>
</a>
</g>
</g>
<!-- Node26&#45;&gt;Node37 -->
<g id="edge65" class="edge">
<title>Node26&#45;&gt;Node37</title>
<path fill="none" stroke="#191970" d="M1183.4117,-302.4565C1135.1046,-293.5427 1061.5808,-279.6047 998,-266 992.6049,-264.8456 986.9727,-263.5943 981.3712,-262.3202"/>
<polygon fill="#191970" stroke="#191970" points="981.9098,-258.8527 971.3793,-260.0184 980.3383,-265.674 981.9098,-258.8527"/>
</g>
<!-- Node28&#45;&gt;Node2 -->
<g id="edge51" class="edge">
<title>Node28&#45;&gt;Node2</title>
<path fill="none" stroke="#191970" d="M1347.2965,-179.476C1326.8633,-172.8489 1305.1734,-161.6954 1293,-143 1285.482,-131.4541 1285.4923,-123.5526 1293,-112 1314.4671,-78.9672 1352.5329,-109.0328 1374,-76 1387.952,-54.5311 1360.713,-35.7303 1335.4369,-23.7441"/>
<polygon fill="#191970" stroke="#191970" points="1336.8501,-20.5421 1326.2933,-19.6442 1333.986,-26.9294 1336.8501,-20.5421"/>
</g>
<!-- Node28&#45;&gt;Node4 -->
<g id="edge49" class="edge">
<title>Node28&#45;&gt;Node4</title>
<path fill="none" stroke="#191970" d="M1427.4688,-179.3906C1460.9544,-168.8298 1514.8853,-151.8208 1551.812,-140.1747"/>
<polygon fill="#191970" stroke="#191970" points="1553.261,-143.3877 1561.7452,-137.0419 1551.1555,-136.7118 1553.261,-143.3877"/>
</g>
<!-- Node28&#45;&gt;Node7 -->
<g id="edge50" class="edge">
<title>Node28&#45;&gt;Node7</title>
<path fill="none" stroke="#191970" d="M1340.7857,-186.095C1246.0773,-180.6082 1059.0646,-167.0585 998,-143 976.4142,-134.4955 977.5072,-120.7012 956,-112 847.1311,-67.9551 807.6844,-96.4031 687.8628,-75.948"/>
<polygon fill="#191970" stroke="#191970" points="688.4081,-72.49 677.9483,-74.1761 687.1765,-79.3809 688.4081,-72.49"/>
</g>
<!-- Node28&#45;&gt;Node11 -->
<g id="edge53" class="edge">
<title>Node28&#45;&gt;Node11</title>
<path fill="none" stroke="#191970" d="M1340.661,-186.1433C1249.3594,-179.232 1066.1879,-155.7131 936,-76 916.5393,-64.0844 900.236,-43.3223 890.1178,-28.2606"/>
<polygon fill="#191970" stroke="#191970" points="892.997,-26.2669 884.6441,-19.7492 887.1094,-30.0533 892.997,-26.2669"/>
</g>
<!-- Node28&#45;&gt;Node14 -->
<g id="edge42" class="edge">
<title>Node28&#45;&gt;Node14</title>
<path fill="none" stroke="#191970" d="M1453.1546,-182.7047C1526.3883,-174.3547 1658.4392,-158.8189 1771,-143 1780.7229,-141.6336 1790.9745,-140.1072 1801.0374,-138.5599"/>
<polygon fill="#191970" stroke="#191970" points="1801.6665,-142.0042 1811.0107,-137.0107 1800.592,-135.0872 1801.6665,-142.0042"/>
</g>
<!-- Node28&#45;&gt;Node17 -->
<g id="edge46" class="edge">
<title>Node28&#45;&gt;Node17</title>
<path fill="none" stroke="#191970" d="M1340.6816,-183.9057C1257.3592,-176.18 1096.3856,-160.5314 960,-143 958.9119,-142.8601 957.8174,-142.7181 956.7176,-142.574"/>
<polygon fill="#191970" stroke="#191970" points="957.0751,-139.0907 946.6982,-141.2287 956.1435,-146.0284 957.0751,-139.0907"/>
</g>
<!-- Node28&#45;&gt;Node20 -->
<g id="edge48" class="edge">
<title>Node28&#45;&gt;Node20</title>
<path fill="none" stroke="#191970" d="M1436.2489,-179.4346C1459.3467,-172.3071 1488.0418,-160.6991 1509,-143 1546.6154,-111.2339 1572.5134,-57.9544 1584.4722,-29.4249"/>
<polygon fill="#191970" stroke="#191970" points="1587.8607,-30.3817 1588.3684,-19.799 1581.3721,-27.7553 1587.8607,-30.3817"/>
</g>
<!-- Node28&#45;&gt;Node29 -->
<g id="edge40" class="edge">
<title>Node28&#45;&gt;Node29</title>
<path fill="none" stroke="#191970" d="M1447.5798,-179.4581C1509.2874,-167.8169 1612.9063,-148.2692 1673.9237,-136.7583"/>
<polygon fill="#191970" stroke="#191970" points="1674.8916,-140.1375 1684.0694,-134.8443 1673.5939,-133.2588 1674.8916,-140.1375"/>
</g>
<!-- Node30 -->
<g id="node31" class="node">
<title>Node30</title>
<g id="a_node31"><a xlink:href="../../d5/d49/SampaHeader_8h.html" target="_top" xlink:title="MCHRawCommon/SampaHeader.h">
<polygon fill="none" stroke="#000000" points="1147.5,-56.5 1147.5,-75.5 1332.5,-75.5 1332.5,-56.5 1147.5,-56.5"/>
<text text-anchor="middle" x="1240" y="-63.5" font-family="Helvetica,sans-Serif" font-size="10.00" fill="#000000">MCHRawCommon/SampaHeader.h</text>
</a>
</g>
</g>
<!-- Node28&#45;&gt;Node30 -->
<g id="edge43" class="edge">
<title>Node28&#45;&gt;Node30</title>
<path fill="none" stroke="#191970" d="M1354.6702,-179.4697C1319.4688,-170.7265 1273.09,-157.0373 1260,-143 1245.5506,-127.5049 1241.2366,-102.9322 1240.0997,-85.7244"/>
<polygon fill="#191970" stroke="#191970" points="1243.5945,-85.5168 1239.7367,-75.6493 1236.5991,-85.7689 1243.5945,-85.5168"/>
</g>
<!-- Node31 -->
<g id="node32" class="node">
<title>Node31</title>
<polygon fill="none" stroke="#bfbfbf" points="1302,-118 1302,-137 1346,-137 1346,-118 1302,-118"/>
<text text-anchor="middle" x="1324" y="-125" font-family="Helvetica,sans-Serif" font-size="10.00" fill="#000000">bitset</text>
</g>
<!-- Node28&#45;&gt;Node31 -->
<g id="edge47" class="edge">
<title>Node28&#45;&gt;Node31</title>
<path fill="none" stroke="#191970" d="M1385.5938,-179.3906C1374.3031,-169.8786 1356.8033,-155.1357 1343.3381,-143.7917"/>
<polygon fill="#191970" stroke="#191970" points="1345.4699,-141.0111 1335.5671,-137.2449 1340.9598,-146.3646 1345.4699,-141.0111"/>
</g>
<!-- Node32 -->
<g id="node33" class="node">
<title>Node32</title>
<polygon fill="none" stroke="#bfbfbf" points="1364.5,-118 1364.5,-137 1429.5,-137 1429.5,-118 1364.5,-118"/>
<text text-anchor="middle" x="1397" y="-125" font-family="Helvetica,sans-Serif" font-size="10.00" fill="#000000">stdexcept</text>
</g>
<!-- Node28&#45;&gt;Node32 -->
<g id="edge52" class="edge">
<title>Node28&#45;&gt;Node32</title>
<path fill="none" stroke="#191970" d="M1397,-179.3906C1397,-170.8657 1397,-158.1392 1397,-147.4235"/>
<polygon fill="#191970" stroke="#191970" points="1400.5001,-147.2448 1397,-137.2449 1393.5001,-147.2449 1400.5001,-147.2448"/>
</g>
<!-- Node33 -->
<g id="node34" class="node">
<title>Node33</title>
<polygon fill="none" stroke="#bfbfbf" points="1448,-118 1448,-137 1500,-137 1500,-118 1448,-118"/>
<text text-anchor="middle" x="1474" y="-125" font-family="Helvetica,sans-Serif" font-size="10.00" fill="#000000">cassert</text>
</g>
<!-- Node28&#45;&gt;Node33 -->
<g id="edge54" class="edge">
<title>Node28&#45;&gt;Node33</title>
<path fill="none" stroke="#191970" d="M1409.0313,-179.3906C1421.0107,-169.8227 1439.6166,-154.9621 1453.8525,-143.5919"/>
<polygon fill="#191970" stroke="#191970" points="1456.4239,-146.0175 1462.0532,-137.0419 1452.0553,-140.5479 1456.4239,-146.0175"/>
</g>
<!-- Node29&#45;&gt;Node20 -->
<g id="edge41" class="edge">
<title>Node29&#45;&gt;Node20</title>
<path fill="none" stroke="#191970" d="M1717.5141,-117.747C1708.8717,-103.0152 1690.9017,-74.8139 1670,-56 1655.7756,-43.1964 1637.4417,-32.168 1622.123,-24.1216"/>
<polygon fill="#191970" stroke="#191970" points="1623.5393,-20.9154 1613.0384,-19.5078 1620.3695,-27.1567 1623.5393,-20.9154"/>
</g>
<!-- Node30&#45;&gt;Node2 -->
<g id="edge45" class="edge">
<title>Node30&#45;&gt;Node2</title>
<path fill="none" stroke="#191970" d="M1250.4512,-56.2455C1259.2269,-48.0549 1271.9554,-36.1749 1282.314,-26.5069"/>
<polygon fill="#191970" stroke="#191970" points="1284.7461,-29.0246 1289.6686,-19.6427 1279.9699,-23.9072 1284.7461,-29.0246"/>
</g>
<!-- Node30&#45;&gt;Node19 -->
<g id="edge44" class="edge">
<title>Node30&#45;&gt;Node19</title>
<path fill="none" stroke="#191970" d="M1205.1031,-56.3733C1167.6967,-46.0543 1108.6825,-29.7745 1071.4495,-19.5033"/>
<polygon fill="#191970" stroke="#191970" points="1072.1322,-16.061 1061.5615,-16.7756 1070.2707,-22.8089 1072.1322,-16.061"/>
</g>
<!-- Node34&#45;&gt;Node27 -->
<g id="edge60" class="edge">
<title>Node34&#45;&gt;Node27</title>
<path fill="none" stroke="#191970" d="M1158.0625,-240.8906C1147.338,-231.4683 1130.7713,-216.9134 1117.9099,-205.6137"/>
<polygon fill="#191970" stroke="#191970" points="1119.9143,-202.7158 1110.0917,-198.7449 1115.2941,-207.9745 1119.9143,-202.7158"/>
</g>
<!-- Node35 -->
<g id="node36" class="node">
<title>Node35</title>
<polygon fill="none" stroke="#bfbfbf" points="1138.5,-179.5 1138.5,-198.5 1207.5,-198.5 1207.5,-179.5 1138.5,-179.5"/>
<text text-anchor="middle" x="1173" y="-186.5" font-family="Helvetica,sans-Serif" font-size="10.00" fill="#000000">type_traits</text>
</g>
<!-- Node34&#45;&gt;Node35 -->
<g id="edge61" class="edge">
<title>Node34&#45;&gt;Node35</title>
<path fill="none" stroke="#191970" d="M1169.625,-240.8906C1170.1795,-232.3657 1171.0072,-219.6392 1171.7042,-208.9235"/>
<polygon fill="#191970" stroke="#191970" points="1175.2097,-208.951 1172.3662,-198.7449 1168.2244,-208.4966 1175.2097,-208.951"/>
</g>
<!-- Node37&#45;&gt;Node8 -->
<g id="edge71" class="edge">
<title>Node37&#45;&gt;Node8</title>
<path fill="none" stroke="#191970" d="M879.752,-243.6877C836.2152,-236.6122 773.4047,-223.0962 723,-199 693.3224,-184.8125 663.9252,-160.3271 646.1121,-144.0226"/>
<polygon fill="#191970" stroke="#191970" points="648.4793,-141.4443 638.7835,-137.1733 643.6997,-146.5585 648.4793,-141.4443"/>
</g>
<!-- Node37&#45;&gt;Node15 -->
<g id="edge68" class="edge">
<title>Node37&#45;&gt;Node15</title>
<path fill="none" stroke="#191970" d="M914.5,-240.8906C896.2535,-230.8713 867.4376,-215.0483 846.4194,-203.5071"/>
<polygon fill="#191970" stroke="#191970" points="847.8272,-200.2872 837.3771,-198.5419 844.458,-206.423 847.8272,-200.2872"/>
</g>
<!-- Node37&#45;&gt;Node16 -->
<g id="edge69" class="edge">
<title>Node37&#45;&gt;Node16</title>
<path fill="none" stroke="#191970" d="M932.9845,-240.6691C933.9381,-225.3118 933.3362,-195.6664 917,-179 867.1913,-128.1846 827.4378,-168.478 761,-143 759.9624,-142.6021 758.9161,-142.1718 757.8687,-141.7165"/>
<polygon fill="#191970" stroke="#191970" points="759.1368,-138.4392 748.6209,-137.1482 756.0365,-144.7153 759.1368,-138.4392"/>
</g>
<!-- Node37&#45;&gt;Node17 -->
<g id="edge67" class="edge">
<title>Node37&#45;&gt;Node17</title>
<path fill="none" stroke="#191970" d="M938.8983,-240.5923C948.0198,-226.1505 961.6527,-198.8771 950,-179 941.9505,-165.2692 928.7553,-154.9245 914.8385,-147.2498"/>
<polygon fill="#191970" stroke="#191970" points="916.1376,-143.9843 905.6358,-142.5832 912.9717,-150.2275 916.1376,-143.9843"/>
</g>
<!-- Node37&#45;&gt;Node19 -->
<g id="edge70" class="edge">
<title>Node37&#45;&gt;Node19</title>
<path fill="none" stroke="#191970" d="M940.9923,-240.7645C949.3209,-231.03 961.131,-215.2123 966,-199 972.4615,-177.485 963.2402,-133.3023 956,-112 947.4953,-86.9772 921.7002,-78.2258 936,-56 950.5302,-33.4161 979.1761,-21.7883 1002.2608,-15.8809"/>
<polygon fill="#191970" stroke="#191970" points="1003.1219,-19.2743 1012.08,-13.6172 1001.5493,-12.4532 1003.1219,-19.2743"/>
</g>
<!-- Node37&#45;&gt;Node24 -->
<g id="edge66" class="edge">
<title>Node37&#45;&gt;Node24</title>
<path fill="none" stroke="#191970" d="M879.6654,-241.7539C814.4147,-230.8492 702.7733,-212.1917 631.2437,-200.2377"/>
<polygon fill="#191970" stroke="#191970" points="631.4317,-196.7207 620.9915,-198.5244 630.2778,-203.6249 631.4317,-196.7207"/>
</g>
</g>
</svg>
        <g id="navigator" transform="translate(0 0)" fill="#404254">
                <rect fill="#f2f5e9" fill-opacity="0.5" stroke="#606060" stroke-width=".5" x="0" y="0" width="60" height="60"/>
                <use id="zoomplus" xlink:href="#zoomPlus" x="17" y="9" onmousedown="handleZoom(evt,'in')"/>
                <use id="zoomminus" xlink:href="#zoomMin" x="42" y="9" onmousedown="handleZoom(evt,'out')"/>
                <use id="reset" xlink:href="#resetDef" x="30" y="36" onmousedown="handleReset()"/>
                <g id="arrowUp" xlink:href="#dirArrow" transform="translate(30 24)" onmousedown="handlePan(0,-1)">
                  <use xlink:href="#rim" fill="#404040">
                        <set attributeName="fill" to="#808080" begin="arrowUp.mouseover" end="arrowUp.mouseout"/>
                  </use>
                  <path fill="none" stroke="white" stroke-width="1.5" d="M0,-3.0v7 M-2.5,-0.5L0,-3.0L2.5,-0.5"/>
                </g>
                <g id="arrowRight" xlink:href="#dirArrow" transform="rotate(90) translate(36 -43)" onmousedown="handlePan(1,0)">
                  <use xlink:href="#rim" fill="#404040">
                        <set attributeName="fill" to="#808080" begin="arrowRight.mouseover" end="arrowRight.mouseout"/>
                  </use>
                  <path fill="none" stroke="white" stroke-width="1.5" d="M0,-3.0v7 M-2.5,-0.5L0,-3.0L2.5,-0.5"/>
                </g>
                <g id="arrowDown" xlink:href="#dirArrow" transform="rotate(180) translate(-30 -48)" onmousedown="handlePan(0,1)">
                  <use xlink:href="#rim" fill="#404040">
                        <set attributeName="fill" to="#808080" begin="arrowDown.mouseover" end="arrowDown.mouseout"/>
                  </use>
                  <path fill="none" stroke="white" stroke-width="1.5" d="M0,-3.0v7 M-2.5,-0.5L0,-3.0L2.5,-0.5"/>
                </g>
                <g id="arrowLeft" xlink:href="#dirArrow" transform="rotate(270) translate(-36 17)" onmousedown="handlePan(-1,0)">
                  <use xlink:href="#rim" fill="#404040">
                        <set attributeName="fill" to="#808080" begin="arrowLeft.mouseover" end="arrowLeft.mouseout"/>
                  </use>
                  <path fill="none" stroke="white" stroke-width="1.5" d="M0,-3.0v7 M-2.5,-0.5L0,-3.0L2.5,-0.5"/>
                </g>
        </g>
        <svg viewBox="0 0 15 15" width="100%" height="30px" preserveAspectRatio="xMaxYMin meet">
         <g id="arrow_out" transform="scale(0.3 0.3)">
          <a xlink:href="testPageDecoder_8cxx__incl_org.svg" target="_base">
           <rect id="button" ry="5" rx="5" y="6" x="6" height="38" width="38"
                fill="#f2f5e9" fill-opacity="0.5" stroke="#606060" stroke-width="1.0"/>
           <path id="arrow"
             d="M 11.500037,31.436501 C 11.940474,20.09759 22.043105,11.32322 32.158766,21.979434 L 37.068811,17.246167 C 37.068811,17.246167 37.088388,32 37.088388,32 L 22.160133,31.978069 C 22.160133,31.978069 26.997745,27.140456 26.997745,27.140456 C 18.528582,18.264221 13.291696,25.230495 11.500037,31.436501 z"
             style="fill:#404040;"/>
          </a>
         </g>
        </svg>
</svg>
