<?xml version="1.0" encoding="UTF-8" standalone="no"?>
<!DOCTYPE svg PUBLIC "-//W3C//DTD SVG 1.1//EN"
 "http://www.w3.org/Graphics/SVG/1.1/DTD/svg11.dtd">
<!-- Generated by graphviz version 2.40.1 (20161225.0304)
 -->
<!-- Title: /home/travis/build/AliceO2Group/AliceO2/DataFormats/Detectors/TPC/include/DataFormatsTPC/CompressedClustersHelpers.h Pages: 1 -->
<svg width="569pt" height="251pt"
 viewBox="0.00 0.00 568.75 251.00" xmlns="http://www.w3.org/2000/svg" xmlns:xlink="http://www.w3.org/1999/xlink">
<g id="graph0" class="graph" transform="scale(1 1) rotate(0) translate(4 247)">
<title>/home/travis/build/AliceO2Group/AliceO2/DataFormats/Detectors/TPC/include/DataFormatsTPC/CompressedClustersHelpers.h</title>
<!-- Node0 -->
<g id="node1" class="node">
<title>Node0</title>
<polygon fill="#bfbfbf" stroke="#000000" points="71.2506,-179.5 71.2506,-242.5 238.2506,-242.5 238.2506,-179.5 71.2506,-179.5"/>
<text text-anchor="start" x="79.2506" y="-230.5" font-family="Helvetica,sans-Serif" font-size="10.00" fill="#000000">/home/travis/build</text>
<text text-anchor="start" x="79.2506" y="-219.5" font-family="Helvetica,sans-Serif" font-size="10.00" fill="#000000">/AliceO2Group/AliceO2</text>
<text text-anchor="start" x="79.2506" y="-208.5" font-family="Helvetica,sans-Serif" font-size="10.00" fill="#000000">/DataFormats/Detectors</text>
<text text-anchor="start" x="79.2506" y="-197.5" font-family="Helvetica,sans-Serif" font-size="10.00" fill="#000000">/TPC/include/DataFormatsTPC</text>
<text text-anchor="middle" x="154.7506" y="-186.5" font-family="Helvetica,sans-Serif" font-size="10.00" fill="#000000">/CompressedClustersHelpers.h</text>
</g>
<!-- Node1 -->
<g id="node2" class="node">
<title>Node1</title>
<polygon fill="none" stroke="#bfbfbf" points="112.2506,-56.5 112.2506,-75.5 181.2506,-75.5 181.2506,-56.5 112.2506,-56.5"/>
<text text-anchor="middle" x="146.7506" y="-63.5" font-family="Helvetica,sans-Serif" font-size="10.00" fill="#000000">type_traits</text>
</g>
<!-- Node0&#45;&gt;Node1 -->
<g id="edge1" class="edge">
<title>Node0&#45;&gt;Node1</title>
<path fill="none" stroke="#191970" d="M70.9757,-191.74C45.6694,-181.583 20.6653,-166.2012 5.7506,-143 -20.071,-102.8321 51.7075,-81.9519 102.0909,-72.5265"/>
<polygon fill="#191970" stroke="#191970" points="102.9263,-75.933 112.1606,-70.739 101.7028,-69.0408 102.9263,-75.933"/>
</g>
<!-- Node2 -->
<g id="node3" class="node">
<title>Node2</title>
<polygon fill="none" stroke="#bfbfbf" points="14.7506,-118 14.7506,-137 66.7506,-137 66.7506,-118 14.7506,-118"/>
<text text-anchor="middle" x="40.7506" y="-125" font-family="Helvetica,sans-Serif" font-size="10.00" fill="#000000">cassert</text>
</g>
<!-- Node0&#45;&gt;Node2 -->
<g id="edge2" class="edge">
<title>Node0&#45;&gt;Node2</title>
<path fill="none" stroke="#191970" d="M111.6521,-179.4322C94.7905,-167.0819 76.2005,-153.4655 62.2875,-143.2748"/>
<polygon fill="#191970" stroke="#191970" points="64.0209,-140.206 53.8852,-137.1205 59.8845,-145.8532 64.0209,-140.206"/>
</g>
<!-- Node3 -->
<g id="node4" class="node">
<title>Node3</title>
<polygon fill="none" stroke="#bfbfbf" points="85.2506,-118 85.2506,-137 150.2506,-137 150.2506,-118 85.2506,-118"/>
<text text-anchor="middle" x="117.7506" y="-125" font-family="Helvetica,sans-Serif" font-size="10.00" fill="#000000">stdexcept</text>
</g>
<!-- Node0&#45;&gt;Node3 -->
<g id="edge3" class="edge">
<title>Node0&#45;&gt;Node3</title>
<path fill="none" stroke="#191970" d="M140.7625,-179.4322C135.8415,-168.3266 130.4668,-156.1974 126.1502,-146.4557"/>
<polygon fill="#191970" stroke="#191970" points="129.3493,-145.0359 122.0981,-137.3112 122.9495,-147.8718 129.3493,-145.0359"/>
</g>
<!-- Node4 -->
<g id="node5" class="node">
<title>Node4</title>
<polygon fill="none" stroke="#bfbfbf" points="168.2506,-118 168.2506,-137 215.2506,-137 215.2506,-118 168.2506,-118"/>
<text text-anchor="middle" x="191.7506" y="-125" font-family="Helvetica,sans-Serif" font-size="10.00" fill="#000000">vector</text>
</g>
<!-- Node0&#45;&gt;Node4 -->
<g id="edge4" class="edge">
<title>Node0&#45;&gt;Node4</title>
<path fill="none" stroke="#191970" d="M168.7387,-179.4322C173.6598,-168.3266 179.0344,-156.1974 183.3511,-146.4557"/>
<polygon fill="#191970" stroke="#191970" points="186.5518,-147.8718 187.4031,-137.3112 180.1519,-145.0359 186.5518,-147.8718"/>
</g>
<!-- Node5 -->
<g id="node6" class="node">
<title>Node5</title>
<g id="a_node6"><a xlink:href="../../d4/d4a/FlattenRestore_8h.html" target="_top" xlink:title="Utilities to copy complex objects to flat buffer and restore. ">
<polygon fill="none" stroke="#000000" points="233.2506,-118 233.2506,-137 380.2506,-137 380.2506,-118 233.2506,-118"/>
<text text-anchor="middle" x="306.7506" y="-125" font-family="Helvetica,sans-Serif" font-size="10.00" fill="#000000">Algorithm/FlattenRestore.h</text>
</a>
</g>
</g>
<!-- Node0&#45;&gt;Node5 -->
<g id="edge5" class="edge">
<title>Node0&#45;&gt;Node5</title>
<path fill="none" stroke="#191970" d="M212.2153,-179.4322C235.6609,-166.5526 261.6129,-152.296 280.3848,-141.9838"/>
<polygon fill="#191970" stroke="#191970" points="282.1584,-145.003 289.2378,-137.1205 278.788,-138.8677 282.1584,-145.003"/>
</g>
<!-- Node6 -->
<g id="node7" class="node">
<title>Node6</title>
<g id="a_node7"><a xlink:href="../../d2/d7d/CompressedClusters_8h.html" target="_top" xlink:title="Container to store compressed TPC cluster data. ">
<polygon fill="none" stroke="#000000" points="398.7506,-112.5 398.7506,-142.5 560.7506,-142.5 560.7506,-112.5 398.7506,-112.5"/>
<text text-anchor="start" x="406.7506" y="-130.5" font-family="Helvetica,sans-Serif" font-size="10.00" fill="#000000">DataFormatsTPC/Compressed</text>
<text text-anchor="middle" x="479.7506" y="-119.5" font-family="Helvetica,sans-Serif" font-size="10.00" fill="#000000">Clusters.h</text>
</a>
</g>
</g>
<!-- Node0&#45;&gt;Node6 -->
<g id="edge7" class="edge">
<title>Node0&#45;&gt;Node6</title>
<path fill="none" stroke="#191970" d="M238.4462,-189.4967C292.1362,-175.7025 360.9698,-158.0175 411.3697,-145.0686"/>
<polygon fill="#191970" stroke="#191970" points="412.3795,-148.423 421.194,-142.5446 410.6375,-141.6431 412.3795,-148.423"/>
</g>
<!-- Node5&#45;&gt;Node1 -->
<g id="edge6" class="edge">
<title>Node5&#45;&gt;Node1</title>
<path fill="none" stroke="#191970" d="M281.7506,-117.8906C254.7449,-107.5103 211.5322,-90.9004 181.2912,-79.2766"/>
<polygon fill="#191970" stroke="#191970" points="182.165,-75.8628 171.5751,-75.5419 179.6535,-82.3968 182.165,-75.8628"/>
</g>
<!-- Node7 -->
<g id="node8" class="node">
<title>Node7</title>
<g id="a_node8"><a xlink:href="../../d2/d45/GPUCommonRtypes_8h.html" target="_top" xlink:title="GPUCommonRtypes.h">
<polygon fill="none" stroke="#000000" points="417.2506,-56.5 417.2506,-75.5 542.2506,-75.5 542.2506,-56.5 417.2506,-56.5"/>
<text text-anchor="middle" x="479.7506" y="-63.5" font-family="Helvetica,sans-Serif" font-size="10.00" fill="#000000">GPUCommonRtypes.h</text>
</a>
</g>
</g>
<!-- Node6&#45;&gt;Node7 -->
<g id="edge8" class="edge">
<title>Node6&#45;&gt;Node7</title>
<path fill="none" stroke="#191970" d="M479.7506,-112.2977C479.7506,-104.3834 479.7506,-94.6043 479.7506,-86.0759"/>
<polygon fill="#191970" stroke="#191970" points="483.2507,-85.8469 479.7506,-75.8469 476.2507,-85.847 483.2507,-85.8469"/>
</g>
<!-- Node8 -->
<g id="node9" class="node">
<title>Node8</title>
<polygon fill="none" stroke="#bfbfbf" points="450.2506,-.5 450.2506,-19.5 509.2506,-19.5 509.2506,-.5 450.2506,-.5"/>
<text text-anchor="middle" x="479.7506" y="-7.5" font-family="Helvetica,sans-Serif" font-size="10.00" fill="#000000">Rtypes.h</text>
</g>
<!-- Node7&#45;&gt;Node8 -->
<g id="edge9" class="edge">
<title>Node7&#45;&gt;Node8</title>
<path fill="none" stroke="#191970" d="M479.7506,-56.2455C479.7506,-48.9382 479.7506,-38.6944 479.7506,-29.7046"/>
<polygon fill="#191970" stroke="#191970" points="483.2507,-29.6426 479.7506,-19.6427 476.2507,-29.6427 483.2507,-29.6426"/>
</g>
</g>
</svg>
