<?xml version="1.0" encoding="UTF-8" standalone="no"?>
<!DOCTYPE svg PUBLIC "-//W3C//DTD SVG 1.1//EN"
 "http://www.w3.org/Graphics/SVG/1.1/DTD/svg11.dtd">
<!-- Generated by graphviz version 2.40.1 (20161225.0304)
 -->
<!-- Title: o2::tof::Digitizer Pages: 1 -->
<svg width="1290pt" height="805pt"
 viewBox="0.00 0.00 1290.00 805.00" xmlns="http://www.w3.org/2000/svg" xmlns:xlink="http://www.w3.org/1999/xlink">
<g id="graph0" class="graph" transform="scale(1 1) rotate(0) translate(4 801)">
<title>o2::tof::Digitizer</title>
<!-- Node2 -->
<g id="node1" class="node">
<title>Node2</title>
<polygon fill="#bfbfbf" stroke="#000000" points="579.5,-.5 579.5,-332.5 740.5,-332.5 740.5,-.5 579.5,-.5"/>
<text text-anchor="middle" x="660" y="-320.5" font-family="Helvetica,sans-Serif" font-size="10.00" fill="#000000">o2::tof::Digitizer</text>
<polyline fill="none" stroke="#000000" points="579.5,-313.5 740.5,-313.5 "/>
<text text-anchor="middle" x="660" y="-301.5" font-family="Helvetica,sans-Serif" font-size="10.00" fill="#000000"> </text>
<polyline fill="none" stroke="#000000" points="579.5,-294.5 740.5,-294.5 "/>
<text text-anchor="start" x="587.5" y="-282.5" font-family="Helvetica,sans-Serif" font-size="10.00" fill="#000000">+ Digitizer()</text>
<text text-anchor="start" x="587.5" y="-271.5" font-family="Helvetica,sans-Serif" font-size="10.00" fill="#000000">+ ~Digitizer()</text>
<text text-anchor="start" x="587.5" y="-260.5" font-family="Helvetica,sans-Serif" font-size="10.00" fill="#000000">+ init()</text>
<text text-anchor="start" x="587.5" y="-249.5" font-family="Helvetica,sans-Serif" font-size="10.00" fill="#000000">+ process()</text>
<text text-anchor="start" x="587.5" y="-238.5" font-family="Helvetica,sans-Serif" font-size="10.00" fill="#000000">+ setCalibApi()</text>
<text text-anchor="start" x="587.5" y="-227.5" font-family="Helvetica,sans-Serif" font-size="10.00" fill="#000000">+ setMCTruthContainer()</text>
<text text-anchor="start" x="587.5" y="-216.5" font-family="Helvetica,sans-Serif" font-size="10.00" fill="#000000">+ getMCTruthPerTimeFrame()</text>
<text text-anchor="start" x="587.5" y="-205.5" font-family="Helvetica,sans-Serif" font-size="10.00" fill="#000000">+ fillOutputContainer()</text>
<text text-anchor="start" x="587.5" y="-194.5" font-family="Helvetica,sans-Serif" font-size="10.00" fill="#000000">+ flushOutputContainer()</text>
<text text-anchor="start" x="587.5" y="-183.5" font-family="Helvetica,sans-Serif" font-size="10.00" fill="#000000">+ initParameters()</text>
<text text-anchor="start" x="587.5" y="-172.5" font-family="Helvetica,sans-Serif" font-size="10.00" fill="#000000">+ printParameters()</text>
<text text-anchor="start" x="587.5" y="-161.5" font-family="Helvetica,sans-Serif" font-size="10.00" fill="#000000">+ getShowerTimeSmeared()</text>
<text text-anchor="start" x="587.5" y="-150.5" font-family="Helvetica,sans-Serif" font-size="10.00" fill="#000000">+ getDigitTimeSmeared()</text>
<text text-anchor="start" x="587.5" y="-139.5" font-family="Helvetica,sans-Serif" font-size="10.00" fill="#000000">+ getCharge()</text>
<text text-anchor="start" x="587.5" y="-128.5" font-family="Helvetica,sans-Serif" font-size="10.00" fill="#000000">+ isFired()</text>
<text text-anchor="start" x="587.5" y="-117.5" font-family="Helvetica,sans-Serif" font-size="10.00" fill="#000000">+ getEffX()</text>
<text text-anchor="start" x="587.5" y="-106.5" font-family="Helvetica,sans-Serif" font-size="10.00" fill="#000000">+ getEffZ()</text>
<text text-anchor="start" x="587.5" y="-95.5" font-family="Helvetica,sans-Serif" font-size="10.00" fill="#000000">+ getFractionOfCharge()</text>
<text text-anchor="start" x="587.5" y="-84.5" font-family="Helvetica,sans-Serif" font-size="10.00" fill="#000000">+ getTimeLastHit()</text>
<text text-anchor="start" x="587.5" y="-73.5" font-family="Helvetica,sans-Serif" font-size="10.00" fill="#000000">+ getTotLastHit()</text>
<text text-anchor="start" x="587.5" y="-62.5" font-family="Helvetica,sans-Serif" font-size="10.00" fill="#000000">+ getXshift()</text>
<text text-anchor="start" x="587.5" y="-51.5" font-family="Helvetica,sans-Serif" font-size="10.00" fill="#000000">+ getZshift()</text>
<text text-anchor="start" x="587.5" y="-40.5" font-family="Helvetica,sans-Serif" font-size="10.00" fill="#000000">+ setEventID()</text>
<text text-anchor="start" x="587.5" y="-29.5" font-family="Helvetica,sans-Serif" font-size="10.00" fill="#000000">+ setSrcID()</text>
<text text-anchor="start" x="587.5" y="-18.5" font-family="Helvetica,sans-Serif" font-size="10.00" fill="#000000">+ test()</text>
<text text-anchor="start" x="587.5" y="-7.5" font-family="Helvetica,sans-Serif" font-size="10.00" fill="#000000">+ testFromHits()</text>
</g>
<!-- Node3 -->
<g id="node2" class="node">
<title>Node3</title>
<g id="a_node2"><a xlink:href="../../db/d26/classo2_1_1tof_1_1WindowFiller.html" target="_top" xlink:title="{o2::tof::WindowFiller\n||+ WindowFiller()\l+ ~WindowFiller()\l+ initObj()\l+ reset()\l+ newTF()\l+ getCurrentReadoutWindow()\l+ setCurrentReadoutWindow()\l+ setEventTime()\l+ getDigitPerTimeFrame()\l+ getReadoutWindowData()\l+ fillOutputContainer()\l+ flushOutputContainer()\l+ setContinuous()\l+ isContinuous()\l+ resizeVectorFutureDigit()\l# fillDigitsInStrip()\l# checkIfReuseFutureDigits()\l# checkIfReuseFutureDigitsRO()\l# insertDigitInFuture()\l# isMergable()\l# ClassDefNV()\l}">
<polygon fill="none" stroke="#000000" points="573.5,-370.5 573.5,-647.5 746.5,-647.5 746.5,-370.5 573.5,-370.5"/>
<text text-anchor="middle" x="660" y="-635.5" font-family="Helvetica,sans-Serif" font-size="10.00" fill="#000000">o2::tof::WindowFiller</text>
<polyline fill="none" stroke="#000000" points="573.5,-628.5 746.5,-628.5 "/>
<text text-anchor="middle" x="660" y="-616.5" font-family="Helvetica,sans-Serif" font-size="10.00" fill="#000000"> </text>
<polyline fill="none" stroke="#000000" points="573.5,-609.5 746.5,-609.5 "/>
<text text-anchor="start" x="581.5" y="-597.5" font-family="Helvetica,sans-Serif" font-size="10.00" fill="#000000">+ WindowFiller()</text>
<text text-anchor="start" x="581.5" y="-586.5" font-family="Helvetica,sans-Serif" font-size="10.00" fill="#000000">+ ~WindowFiller()</text>
<text text-anchor="start" x="581.5" y="-575.5" font-family="Helvetica,sans-Serif" font-size="10.00" fill="#000000">+ initObj()</text>
<text text-anchor="start" x="581.5" y="-564.5" font-family="Helvetica,sans-Serif" font-size="10.00" fill="#000000">+ reset()</text>
<text text-anchor="start" x="581.5" y="-553.5" font-family="Helvetica,sans-Serif" font-size="10.00" fill="#000000">+ newTF()</text>
<text text-anchor="start" x="581.5" y="-542.5" font-family="Helvetica,sans-Serif" font-size="10.00" fill="#000000">+ getCurrentReadoutWindow()</text>
<text text-anchor="start" x="581.5" y="-531.5" font-family="Helvetica,sans-Serif" font-size="10.00" fill="#000000">+ setCurrentReadoutWindow()</text>
<text text-anchor="start" x="581.5" y="-520.5" font-family="Helvetica,sans-Serif" font-size="10.00" fill="#000000">+ setEventTime()</text>
<text text-anchor="start" x="581.5" y="-509.5" font-family="Helvetica,sans-Serif" font-size="10.00" fill="#000000">+ getDigitPerTimeFrame()</text>
<text text-anchor="start" x="581.5" y="-498.5" font-family="Helvetica,sans-Serif" font-size="10.00" fill="#000000">+ getReadoutWindowData()</text>
<text text-anchor="start" x="581.5" y="-487.5" font-family="Helvetica,sans-Serif" font-size="10.00" fill="#000000">+ fillOutputContainer()</text>
<text text-anchor="start" x="581.5" y="-476.5" font-family="Helvetica,sans-Serif" font-size="10.00" fill="#000000">+ flushOutputContainer()</text>
<text text-anchor="start" x="581.5" y="-465.5" font-family="Helvetica,sans-Serif" font-size="10.00" fill="#000000">+ setContinuous()</text>
<text text-anchor="start" x="581.5" y="-454.5" font-family="Helvetica,sans-Serif" font-size="10.00" fill="#000000">+ isContinuous()</text>
<text text-anchor="start" x="581.5" y="-443.5" font-family="Helvetica,sans-Serif" font-size="10.00" fill="#000000">+ resizeVectorFutureDigit()</text>
<text text-anchor="start" x="581.5" y="-432.5" font-family="Helvetica,sans-Serif" font-size="10.00" fill="#000000"># fillDigitsInStrip()</text>
<text text-anchor="start" x="581.5" y="-421.5" font-family="Helvetica,sans-Serif" font-size="10.00" fill="#000000"># checkIfReuseFutureDigits()</text>
<text text-anchor="start" x="581.5" y="-410.5" font-family="Helvetica,sans-Serif" font-size="10.00" fill="#000000"># checkIfReuseFutureDigitsRO()</text>
<text text-anchor="start" x="581.5" y="-399.5" font-family="Helvetica,sans-Serif" font-size="10.00" fill="#000000"># insertDigitInFuture()</text>
<text text-anchor="start" x="581.5" y="-388.5" font-family="Helvetica,sans-Serif" font-size="10.00" fill="#000000"># isMergable()</text>
<text text-anchor="start" x="581.5" y="-377.5" font-family="Helvetica,sans-Serif" font-size="10.00" fill="#000000"># ClassDefNV()</text>
</a>
</g>
</g>
<!-- Node3&#45;&gt;Node2 -->
<g id="edge1" class="edge">
<title>Node3&#45;&gt;Node2</title>
<path fill="none" stroke="#191970" d="M660,-360.0238C660,-350.9865 660,-341.8651 660,-332.7624"/>
<polygon fill="none" stroke="#191970" points="656.5001,-360.1859 660,-370.1859 663.5001,-360.1859 656.5001,-360.1859"/>
</g>
<!-- Node4 -->
<g id="node3" class="node">
<title>Node4</title>
<polygon fill="none" stroke="#bfbfbf" points="0,-734 0,-791 138,-791 138,-734 0,-734"/>
<text text-anchor="middle" x="69" y="-779" font-family="Helvetica,sans-Serif" font-size="10.00" fill="#000000">vector&lt; o2::tof::Strip &gt; *</text>
<polyline fill="none" stroke="#bfbfbf" points="0,-772 138,-772 "/>
<text text-anchor="middle" x="69" y="-760" font-family="Helvetica,sans-Serif" font-size="10.00" fill="#000000"> </text>
<polyline fill="none" stroke="#bfbfbf" points="0,-753 138,-753 "/>
<text text-anchor="middle" x="69" y="-741" font-family="Helvetica,sans-Serif" font-size="10.00" fill="#000000"> </text>
</g>
<!-- Node4&#45;&gt;Node3 -->
<g id="edge2" class="edge">
<title>Node4&#45;&gt;Node3</title>
<path fill="none" stroke="#404040" d="M98.4039,-733.8383C121.4622,-712.6682 155.2068,-684.44 189,-666 309.8752,-600.0419 463.3103,-555.2645 561.5946,-530.9187"/>
<polygon fill="none" stroke="#404040" points="561.6458,-530.9062 566.5218,-525.5934 573.3012,-528.0509 568.4253,-533.3637 561.6458,-530.9062"/>
<text text-anchor="middle" x="230" y="-691" font-family="Helvetica,sans-Serif" font-size="10.00" fill="#000000"> #mStripsNext</text>
<text text-anchor="middle" x="230" y="-680" font-family="Helvetica,sans-Serif" font-size="10.00" fill="#000000">#mStripsCurrent</text>
</g>
<!-- Node5 -->
<g id="node4" class="node">
<title>Node5</title>
<polygon fill="none" stroke="#bfbfbf" points="156,-734 156,-791 286,-791 286,-734 156,-734"/>
<text text-anchor="middle" x="221" y="-779" font-family="Helvetica,sans-Serif" font-size="10.00" fill="#000000">vector&lt; o2::tof::Strip &gt;</text>
<polyline fill="none" stroke="#bfbfbf" points="156,-772 286,-772 "/>
<text text-anchor="middle" x="221" y="-760" font-family="Helvetica,sans-Serif" font-size="10.00" fill="#000000"> </text>
<polyline fill="none" stroke="#bfbfbf" points="156,-753 286,-753 "/>
<text text-anchor="middle" x="221" y="-741" font-family="Helvetica,sans-Serif" font-size="10.00" fill="#000000"> </text>
</g>
<!-- Node5&#45;&gt;Node3 -->
<g id="edge3" class="edge">
<title>Node5&#45;&gt;Node3</title>
<path fill="none" stroke="#404040" d="M247.5572,-733.7939C267.6987,-713.146 296.8125,-685.5987 326,-666 400.3228,-616.094 493.01,-573.8964 561.8759,-545.859"/>
<polygon fill="none" stroke="#404040" points="562.0206,-545.8006 566.0874,-539.8457 573.1485,-541.3092 569.0817,-547.2642 562.0206,-545.8006"/>
<text text-anchor="middle" x="350.5" y="-685.5" font-family="Helvetica,sans-Serif" font-size="10.00" fill="#000000"> #mStrips</text>
</g>
<!-- Node6 -->
<g id="node5" class="node">
<title>Node6</title>
<polygon fill="none" stroke="#bfbfbf" points="304,-728.5 304,-796.5 440,-796.5 440,-728.5 304,-728.5"/>
<text text-anchor="start" x="312" y="-784.5" font-family="Helvetica,sans-Serif" font-size="10.00" fill="#000000">vector&lt; o2::tof::Readout</text>
<text text-anchor="middle" x="372" y="-773.5" font-family="Helvetica,sans-Serif" font-size="10.00" fill="#000000">WindowData &gt;</text>
<polyline fill="none" stroke="#bfbfbf" points="304,-766.5 440,-766.5 "/>
<text text-anchor="middle" x="372" y="-754.5" font-family="Helvetica,sans-Serif" font-size="10.00" fill="#000000"> </text>
<polyline fill="none" stroke="#bfbfbf" points="304,-747.5 440,-747.5 "/>
<text text-anchor="middle" x="372" y="-735.5" font-family="Helvetica,sans-Serif" font-size="10.00" fill="#000000"> </text>
</g>
<!-- Node6&#45;&gt;Node3 -->
<g id="edge4" class="edge">
<title>Node6&#45;&gt;Node3</title>
<path fill="none" stroke="#404040" d="M374.8132,-728.4598C377.9099,-708.6003 384.4022,-683.9967 398,-666 439.5825,-610.9658 506.5515,-571.3244 562.3724,-545.6421"/>
<polygon fill="none" stroke="#404040" points="562.4335,-545.6147 566.2642,-539.5052 573.3771,-540.6914 569.5464,-546.8009 562.4335,-545.6147"/>
<text text-anchor="middle" x="460" y="-685.5" font-family="Helvetica,sans-Serif" font-size="10.00" fill="#000000"> #mReadoutWindowData</text>
</g>
<!-- Node7 -->
<g id="node6" class="node">
<title>Node7</title>
<polygon fill="none" stroke="#bfbfbf" points="458.5,-734 458.5,-791 589.5,-791 589.5,-734 458.5,-734"/>
<text text-anchor="middle" x="524" y="-779" font-family="Helvetica,sans-Serif" font-size="10.00" fill="#000000">vector&lt; o2::tof::Digit &gt;</text>
<polyline fill="none" stroke="#bfbfbf" points="458.5,-772 589.5,-772 "/>
<text text-anchor="middle" x="524" y="-760" font-family="Helvetica,sans-Serif" font-size="10.00" fill="#000000"> </text>
<polyline fill="none" stroke="#bfbfbf" points="458.5,-753 589.5,-753 "/>
<text text-anchor="middle" x="524" y="-741" font-family="Helvetica,sans-Serif" font-size="10.00" fill="#000000"> </text>
</g>
<!-- Node7&#45;&gt;Node3 -->
<g id="edge5" class="edge">
<title>Node7&#45;&gt;Node3</title>
<path fill="none" stroke="#404040" d="M524.3506,-733.5944C525.4986,-713.8587 528.8522,-687.4963 538,-666 545.4436,-648.5083 555.3304,-631.2768 566.2647,-615.0031"/>
<polygon fill="none" stroke="#404040" points="566.3611,-614.8639 566.4906,-607.6539 573.1958,-605.0004 573.0663,-612.2103 566.3611,-614.8639"/>
<text text-anchor="middle" x="597" y="-691" font-family="Helvetica,sans-Serif" font-size="10.00" fill="#000000"> #mFutureDigits</text>
<text text-anchor="middle" x="597" y="-680" font-family="Helvetica,sans-Serif" font-size="10.00" fill="#000000">#mDigitsPerTimeFrame</text>
</g>
<!-- Node8 -->
<g id="node7" class="node">
<title>Node8</title>
<polygon fill="none" stroke="#bfbfbf" points="630,-734 630,-791 690,-791 690,-734 630,-734"/>
<text text-anchor="middle" x="660" y="-779" font-family="Helvetica,sans-Serif" font-size="10.00" fill="#000000">Double_t</text>
<polyline fill="none" stroke="#bfbfbf" points="630,-772 690,-772 "/>
<text text-anchor="middle" x="660" y="-760" font-family="Helvetica,sans-Serif" font-size="10.00" fill="#000000"> </text>
<polyline fill="none" stroke="#bfbfbf" points="630,-753 690,-753 "/>
<text text-anchor="middle" x="660" y="-741" font-family="Helvetica,sans-Serif" font-size="10.00" fill="#000000"> </text>
</g>
<!-- Node8&#45;&gt;Node3 -->
<g id="edge6" class="edge">
<title>Node8&#45;&gt;Node3</title>
<path fill="none" stroke="#404040" d="M660,-733.9131C660,-714.8787 660,-688.2342 660,-659.9185"/>
<polygon fill="none" stroke="#404040" points="660.0001,-659.6983 656,-653.6983 660,-647.6983 664,-653.6982 660.0001,-659.6983"/>
<text text-anchor="middle" x="697" y="-685.5" font-family="Helvetica,sans-Serif" font-size="10.00" fill="#000000"> #mEventTime</text>
</g>
<!-- Node9 -->
<g id="node8" class="node">
<title>Node9</title>
<polygon fill="none" stroke="#bfbfbf" points="742.5,-734 742.5,-791 771.5,-791 771.5,-734 742.5,-734"/>
<text text-anchor="middle" x="757" y="-779" font-family="Helvetica,sans-Serif" font-size="10.00" fill="#000000">int</text>
<polyline fill="none" stroke="#bfbfbf" points="742.5,-772 771.5,-772 "/>
<text text-anchor="middle" x="757" y="-760" font-family="Helvetica,sans-Serif" font-size="10.00" fill="#000000"> </text>
<polyline fill="none" stroke="#bfbfbf" points="742.5,-753 771.5,-753 "/>
<text text-anchor="middle" x="757" y="-741" font-family="Helvetica,sans-Serif" font-size="10.00" fill="#000000"> </text>
</g>
<!-- Node9&#45;&gt;Node3 -->
<g id="edge7" class="edge">
<title>Node9&#45;&gt;Node3</title>
<path fill="none" stroke="#404040" d="M752.1739,-733.743C748.494,-714.3069 742.7374,-688.2333 735,-666 734.2181,-663.7533 733.4134,-661.4963 732.588,-659.2317"/>
<polygon fill="none" stroke="#404040" points="732.5331,-659.0862 726.6729,-654.884 728.2979,-647.8584 734.1581,-652.0606 732.5331,-659.0862"/>
<text text-anchor="middle" x="815" y="-685.5" font-family="Helvetica,sans-Serif" font-size="10.00" fill="#000000"> #mIcurrentReadoutWindow</text>
</g>
<!-- Node10 -->
<g id="node9" class="node">
<title>Node10</title>
<polygon fill="none" stroke="#bfbfbf" points="899,-734 899,-791 937,-791 937,-734 899,-734"/>
<text text-anchor="middle" x="918" y="-779" font-family="Helvetica,sans-Serif" font-size="10.00" fill="#000000">bool</text>
<polyline fill="none" stroke="#bfbfbf" points="899,-772 937,-772 "/>
<text text-anchor="middle" x="918" y="-760" font-family="Helvetica,sans-Serif" font-size="10.00" fill="#000000"> </text>
<polyline fill="none" stroke="#bfbfbf" points="899,-753 937,-753 "/>
<text text-anchor="middle" x="918" y="-741" font-family="Helvetica,sans-Serif" font-size="10.00" fill="#000000"> </text>
</g>
<!-- Node10&#45;&gt;Node3 -->
<g id="edge8" class="edge">
<title>Node10&#45;&gt;Node3</title>
<path fill="none" stroke="#404040" d="M914.1557,-733.6357C910.2769,-713.1725 902.6656,-685.9216 888,-666 854.1655,-620.0394 802.661,-582.9359 757.1599,-556.3619"/>
<polygon fill="none" stroke="#404040" points="757.062,-556.3059 749.8676,-556.7967 746.6475,-550.3445 753.8419,-549.8537 757.062,-556.3059"/>
<text text-anchor="middle" x="960" y="-691" font-family="Helvetica,sans-Serif" font-size="10.00" fill="#000000"> #mFutureToBeSorted</text>
<text text-anchor="middle" x="960" y="-680" font-family="Helvetica,sans-Serif" font-size="10.00" fill="#000000">#mContinuous</text>
</g>
<!-- Node11 -->
<g id="node10" class="node">
<title>Node11</title>
<polygon fill="none" stroke="#bfbfbf" points="1025,-734 1025,-791 1069,-791 1069,-734 1025,-734"/>
<text text-anchor="middle" x="1047" y="-779" font-family="Helvetica,sans-Serif" font-size="10.00" fill="#000000">static</text>
<polyline fill="none" stroke="#bfbfbf" points="1025,-772 1069,-772 "/>
<text text-anchor="middle" x="1047" y="-760" font-family="Helvetica,sans-Serif" font-size="10.00" fill="#000000"> </text>
<polyline fill="none" stroke="#bfbfbf" points="1025,-753 1069,-753 "/>
<text text-anchor="middle" x="1047" y="-741" font-family="Helvetica,sans-Serif" font-size="10.00" fill="#000000"> </text>
</g>
<!-- Node11&#45;&gt;Node3 -->
<g id="edge9" class="edge">
<title>Node11&#45;&gt;Node3</title>
<path fill="none" stroke="#404040" d="M1044.3925,-733.6307C1041.1135,-712.6306 1033.711,-684.713 1017,-666 949.5446,-590.4634 839.0454,-549.5992 758.8273,-528.6773"/>
<polygon fill="none" stroke="#404040" points="758.3553,-528.5578 751.5567,-530.9618 746.7227,-525.6109 753.5213,-523.2068 758.3553,-528.5578"/>
<text text-anchor="middle" x="1081.5" y="-685.5" font-family="Helvetica,sans-Serif" font-size="10.00" fill="#000000"> #MAXWINDOWS</text>
</g>
<!-- Node12 -->
<g id="node11" class="node">
<title>Node12</title>
<polygon fill="none" stroke="#bfbfbf" points="1136,-734 1136,-791 1174,-791 1174,-734 1136,-734"/>
<text text-anchor="middle" x="1155" y="-779" font-family="Helvetica,sans-Serif" font-size="10.00" fill="#000000">Int_t</text>
<polyline fill="none" stroke="#bfbfbf" points="1136,-772 1174,-772 "/>
<text text-anchor="middle" x="1155" y="-760" font-family="Helvetica,sans-Serif" font-size="10.00" fill="#000000"> </text>
<polyline fill="none" stroke="#bfbfbf" points="1136,-753 1174,-753 "/>
<text text-anchor="middle" x="1155" y="-741" font-family="Helvetica,sans-Serif" font-size="10.00" fill="#000000"> </text>
</g>
<!-- Node12&#45;&gt;Node3 -->
<g id="edge10" class="edge">
<title>Node12&#45;&gt;Node3</title>
<path fill="none" stroke="#404040" d="M1153.9279,-733.6769C1151.6437,-712.4221 1145.258,-684.1588 1128,-666 1076.7917,-612.1189 880.0864,-559.169 758.5844,-530.6296"/>
<polygon fill="none" stroke="#404040" points="758.3915,-530.5847 751.6401,-533.1182 746.7048,-527.8606 753.4562,-525.3271 758.3915,-530.5847"/>
<text text-anchor="middle" x="1215.5" y="-702" font-family="Helvetica,sans-Serif" font-size="10.00" fill="#000000"> #mFirstBunch</text>
<text text-anchor="middle" x="1215.5" y="-691" font-family="Helvetica,sans-Serif" font-size="10.00" fill="#000000">#mReadoutWindowCurrent</text>
<text text-anchor="middle" x="1215.5" y="-680" font-family="Helvetica,sans-Serif" font-size="10.00" fill="#000000">#mTF</text>
<text text-anchor="middle" x="1215.5" y="-669" font-family="Helvetica,sans-Serif" font-size="10.00" fill="#000000">#mFirstOrbit</text>
</g>
</g>
</svg>
