<?xml version="1.0" encoding="UTF-8" standalone="no"?>
<!DOCTYPE svg PUBLIC "-//W3C//DTD SVG 1.1//EN"
 "http://www.w3.org/Graphics/SVG/1.1/DTD/svg11.dtd">
<!-- Generated by graphviz version 2.40.1 (20161225.0304)
 -->
<!-- Title: GPUCA_NAMESPACE::gpu::Spline2D&lt; DataT, nFdimT, isConsistentT &gt; Pages: 1 -->
<svg width="681pt" height="1284pt"
 viewBox="0.00 0.00 680.50 1284.00" xmlns="http://www.w3.org/2000/svg" xmlns:xlink="http://www.w3.org/1999/xlink">
<g id="graph0" class="graph" transform="scale(1 1) rotate(0) translate(4 1280)">
<title>GPUCA_NAMESPACE::gpu::Spline2D&lt; DataT, nFdimT, isConsistentT &gt;</title>
<!-- Node3 -->
<g id="node1" class="node">
<title>Node3</title>
<polygon fill="#bfbfbf" stroke="#000000" points="460.5,-.5 460.5,-244.5 612.5,-244.5 612.5,-.5 460.5,-.5"/>
<text text-anchor="start" x="468.5" y="-232.5" font-family="Helvetica,sans-Serif" font-size="10.00" fill="#000000">GPUCA_NAMESPACE::gpu</text>
<text text-anchor="start" x="468.5" y="-221.5" font-family="Helvetica,sans-Serif" font-size="10.00" fill="#000000">::Spline2D&lt; DataT, nFdimT,</text>
<text text-anchor="middle" x="536.5" y="-210.5" font-family="Helvetica,sans-Serif" font-size="10.00" fill="#000000"> isConsistentT &gt;</text>
<polyline fill="none" stroke="#000000" points="460.5,-203.5 612.5,-203.5 "/>
<text text-anchor="middle" x="536.5" y="-191.5" font-family="Helvetica,sans-Serif" font-size="10.00" fill="#000000"> </text>
<polyline fill="none" stroke="#000000" points="460.5,-184.5 612.5,-184.5 "/>
<text text-anchor="start" x="468.5" y="-172.5" font-family="Helvetica,sans-Serif" font-size="10.00" fill="#000000">+ Spline2D()</text>
<text text-anchor="start" x="468.5" y="-161.5" font-family="Helvetica,sans-Serif" font-size="10.00" fill="#000000">+ Spline2D()</text>
<text text-anchor="start" x="468.5" y="-150.5" font-family="Helvetica,sans-Serif" font-size="10.00" fill="#000000">+ Spline2D()</text>
<text text-anchor="start" x="468.5" y="-139.5" font-family="Helvetica,sans-Serif" font-size="10.00" fill="#000000">+ operator=()</text>
<text text-anchor="start" x="468.5" y="-128.5" font-family="Helvetica,sans-Serif" font-size="10.00" fill="#000000">+ ~Spline2D()</text>
<text text-anchor="start" x="468.5" y="-117.5" font-family="Helvetica,sans-Serif" font-size="10.00" fill="#000000">+ GPUhd()</text>
<text text-anchor="start" x="468.5" y="-106.5" font-family="Helvetica,sans-Serif" font-size="10.00" fill="#000000">+ GPUgeneric()</text>
<text text-anchor="start" x="468.5" y="-95.5" font-family="Helvetica,sans-Serif" font-size="10.00" fill="#000000">+ GPUhd()</text>
<text text-anchor="start" x="468.5" y="-84.5" font-family="Helvetica,sans-Serif" font-size="10.00" fill="#000000">+ GPUhd()</text>
<text text-anchor="start" x="468.5" y="-73.5" font-family="Helvetica,sans-Serif" font-size="10.00" fill="#000000">+ GPUgeneric()</text>
<text text-anchor="start" x="468.5" y="-62.5" font-family="Helvetica,sans-Serif" font-size="10.00" fill="#000000">+ GPUhd()</text>
<text text-anchor="start" x="468.5" y="-51.5" font-family="Helvetica,sans-Serif" font-size="10.00" fill="#000000">+ GPUgeneric()</text>
<text text-anchor="start" x="468.5" y="-40.5" font-family="Helvetica,sans-Serif" font-size="10.00" fill="#000000">+ GPUhd()</text>
<text text-anchor="start" x="468.5" y="-29.5" font-family="Helvetica,sans-Serif" font-size="10.00" fill="#000000">+ GPUgeneric()</text>
<text text-anchor="start" x="468.5" y="-18.5" font-family="Helvetica,sans-Serif" font-size="10.00" fill="#000000">+ GPUhd()</text>
<text text-anchor="start" x="468.5" y="-7.5" font-family="Helvetica,sans-Serif" font-size="10.00" fill="#000000">+ readFromFile()</text>
</g>
<!-- Node4 -->
<g id="node2" class="node">
<title>Node4</title>
<g id="a_node2"><a xlink:href="../../df/d20/classGPUCA__NAMESPACE_1_1gpu_1_1Spline2DBase.html" target="_top" xlink:title="Base class to store data members and non&#45;inline methods. ">
<polygon fill="none" stroke="#000000" points="351,-282.5 351,-724.5 500,-724.5 500,-282.5 351,-282.5"/>
<text text-anchor="start" x="359" y="-712.5" font-family="Helvetica,sans-Serif" font-size="10.00" fill="#000000">GPUCA_NAMESPACE::gpu</text>
<text text-anchor="start" x="359" y="-701.5" font-family="Helvetica,sans-Serif" font-size="10.00" fill="#000000">::Spline2DBase&lt; DataT,</text>
<text text-anchor="middle" x="425.5" y="-690.5" font-family="Helvetica,sans-Serif" font-size="10.00" fill="#000000"> isConsistentT &gt;</text>
<polyline fill="none" stroke="#000000" points="351,-683.5 500,-683.5 "/>
<text text-anchor="middle" x="425.5" y="-671.5" font-family="Helvetica,sans-Serif" font-size="10.00" fill="#000000"> </text>
<polyline fill="none" stroke="#000000" points="351,-664.5 500,-664.5 "/>
<text text-anchor="start" x="359" y="-652.5" font-family="Helvetica,sans-Serif" font-size="10.00" fill="#000000">+ GPUhd()</text>
<text text-anchor="start" x="359" y="-641.5" font-family="Helvetica,sans-Serif" font-size="10.00" fill="#000000">+ Spline2DBase()</text>
<text text-anchor="start" x="359" y="-630.5" font-family="Helvetica,sans-Serif" font-size="10.00" fill="#000000">+ Spline2DBase()</text>
<text text-anchor="start" x="359" y="-619.5" font-family="Helvetica,sans-Serif" font-size="10.00" fill="#000000">+ operator=()</text>
<text text-anchor="start" x="359" y="-608.5" font-family="Helvetica,sans-Serif" font-size="10.00" fill="#000000">+ ~Spline2DBase()</text>
<text text-anchor="start" x="359" y="-597.5" font-family="Helvetica,sans-Serif" font-size="10.00" fill="#000000">+ recreate()</text>
<text text-anchor="start" x="359" y="-586.5" font-family="Helvetica,sans-Serif" font-size="10.00" fill="#000000">+ recreate()</text>
<text text-anchor="start" x="359" y="-575.5" font-family="Helvetica,sans-Serif" font-size="10.00" fill="#000000">+ approximateFunction()</text>
<text text-anchor="start" x="359" y="-564.5" font-family="Helvetica,sans-Serif" font-size="10.00" fill="#000000">+ writeToFile()</text>
<text text-anchor="start" x="359" y="-553.5" font-family="Helvetica,sans-Serif" font-size="10.00" fill="#000000">+ GPUhd()</text>
<text text-anchor="start" x="359" y="-542.5" font-family="Helvetica,sans-Serif" font-size="10.00" fill="#000000">+ GPUhd()</text>
<text text-anchor="start" x="359" y="-531.5" font-family="Helvetica,sans-Serif" font-size="10.00" fill="#000000">+ GPUhd()</text>
<text text-anchor="start" x="359" y="-520.5" font-family="Helvetica,sans-Serif" font-size="10.00" fill="#000000">+ GPUhd()</text>
<text text-anchor="start" x="359" y="-509.5" font-family="Helvetica,sans-Serif" font-size="10.00" fill="#000000">+ GPUhd()</text>
<text text-anchor="start" x="359" y="-498.5" font-family="Helvetica,sans-Serif" font-size="10.00" fill="#000000">+ GPUhd()</text>
<text text-anchor="start" x="359" y="-487.5" font-family="Helvetica,sans-Serif" font-size="10.00" fill="#000000">+ GPUhd()</text>
<text text-anchor="start" x="359" y="-476.5" font-family="Helvetica,sans-Serif" font-size="10.00" fill="#000000">+ GPUhd()</text>
<text text-anchor="start" x="359" y="-465.5" font-family="Helvetica,sans-Serif" font-size="10.00" fill="#000000">+ GPUhd()</text>
<text text-anchor="start" x="359" y="-454.5" font-family="Helvetica,sans-Serif" font-size="10.00" fill="#000000">+ GPUhd()</text>
<text text-anchor="start" x="359" y="-443.5" font-family="Helvetica,sans-Serif" font-size="10.00" fill="#000000">+ GPUhd()</text>
<text text-anchor="start" x="359" y="-432.5" font-family="Helvetica,sans-Serif" font-size="10.00" fill="#000000">+ GPUhd()</text>
<text text-anchor="start" x="359" y="-421.5" font-family="Helvetica,sans-Serif" font-size="10.00" fill="#000000">+ GPUhd()</text>
<text text-anchor="start" x="359" y="-410.5" font-family="Helvetica,sans-Serif" font-size="10.00" fill="#000000">+ GPUhd()</text>
<text text-anchor="start" x="359" y="-399.5" font-family="Helvetica,sans-Serif" font-size="10.00" fill="#000000">+ GPUhd()</text>
<text text-anchor="start" x="359" y="-388.5" font-family="Helvetica,sans-Serif" font-size="10.00" fill="#000000">+ GPUhd()</text>
<text text-anchor="start" x="359" y="-377.5" font-family="Helvetica,sans-Serif" font-size="10.00" fill="#000000">+ print()</text>
<text text-anchor="start" x="359" y="-366.5" font-family="Helvetica,sans-Serif" font-size="10.00" fill="#000000">+ cloneFromObject()</text>
<text text-anchor="start" x="359" y="-355.5" font-family="Helvetica,sans-Serif" font-size="10.00" fill="#000000">+ moveBufferTo()</text>
<text text-anchor="start" x="359" y="-344.5" font-family="Helvetica,sans-Serif" font-size="10.00" fill="#000000">+ destroy()</text>
<text text-anchor="start" x="359" y="-333.5" font-family="Helvetica,sans-Serif" font-size="10.00" fill="#000000">+ setActualBufferAddress()</text>
<text text-anchor="start" x="359" y="-322.5" font-family="Helvetica,sans-Serif" font-size="10.00" fill="#000000">+ setFutureBufferAddress()</text>
<text text-anchor="start" x="359" y="-311.5" font-family="Helvetica,sans-Serif" font-size="10.00" fill="#000000">+ readFromFile()</text>
<text text-anchor="start" x="359" y="-300.5" font-family="Helvetica,sans-Serif" font-size="10.00" fill="#000000">+ test()</text>
<text text-anchor="start" x="359" y="-289.5" font-family="Helvetica,sans-Serif" font-size="10.00" fill="#000000"># ClassDefNV()</text>
</a>
</g>
</g>
<!-- Node4&#45;&gt;Node3 -->
<g id="edge1" class="edge">
<title>Node4&#45;&gt;Node3</title>
<path fill="none" stroke="#191970" d="M492.7811,-272.5622C495.5248,-263.1445 498.2283,-253.8651 500.8629,-244.8218"/>
<polygon fill="none" stroke="#191970" points="489.3453,-271.8424 489.9085,-282.4223 496.0659,-273.8004 489.3453,-271.8424"/>
</g>
<!-- Node5 -->
<g id="node3" class="node">
<title>Node5</title>
<g id="a_node3"><a xlink:href="../../dc/d5e/classGPUCA__NAMESPACE_1_1gpu_1_1FlatObject.html" target="_top" xlink:title="GPUCA_GPUCODE. ">
<polygon fill="none" stroke="#000000" points="193.5,-805.5 193.5,-1159.5 351.5,-1159.5 351.5,-805.5 193.5,-805.5"/>
<text text-anchor="start" x="201.5" y="-1147.5" font-family="Helvetica,sans-Serif" font-size="10.00" fill="#000000">GPUCA_NAMESPACE::gpu</text>
<text text-anchor="middle" x="272.5" y="-1136.5" font-family="Helvetica,sans-Serif" font-size="10.00" fill="#000000">::FlatObject</text>
<polyline fill="none" stroke="#000000" points="193.5,-1129.5 351.5,-1129.5 "/>
<text text-anchor="middle" x="272.5" y="-1117.5" font-family="Helvetica,sans-Serif" font-size="10.00" fill="#000000"> </text>
<polyline fill="none" stroke="#000000" points="193.5,-1110.5 351.5,-1110.5 "/>
<text text-anchor="start" x="201.5" y="-1098.5" font-family="Helvetica,sans-Serif" font-size="10.00" fill="#000000">+ FlatObject()</text>
<text text-anchor="start" x="201.5" y="-1087.5" font-family="Helvetica,sans-Serif" font-size="10.00" fill="#000000">+ ~FlatObject()</text>
<text text-anchor="start" x="201.5" y="-1076.5" font-family="Helvetica,sans-Serif" font-size="10.00" fill="#000000">+ FlatObject()</text>
<text text-anchor="start" x="201.5" y="-1065.5" font-family="Helvetica,sans-Serif" font-size="10.00" fill="#000000">+ operator=()</text>
<text text-anchor="start" x="201.5" y="-1054.5" font-family="Helvetica,sans-Serif" font-size="10.00" fill="#000000">+ getFlatBufferSize()</text>
<text text-anchor="start" x="201.5" y="-1043.5" font-family="Helvetica,sans-Serif" font-size="10.00" fill="#000000">+ getFlatBufferPtr()</text>
<text text-anchor="start" x="201.5" y="-1032.5" font-family="Helvetica,sans-Serif" font-size="10.00" fill="#000000">+ isConstructed()</text>
<text text-anchor="start" x="201.5" y="-1021.5" font-family="Helvetica,sans-Serif" font-size="10.00" fill="#000000">+ isBufferInternal()</text>
<text text-anchor="start" x="201.5" y="-1010.5" font-family="Helvetica,sans-Serif" font-size="10.00" fill="#000000">+ adoptInternalBuffer()</text>
<text text-anchor="start" x="201.5" y="-999.5" font-family="Helvetica,sans-Serif" font-size="10.00" fill="#000000">+ clearInternalBufferPtr()</text>
<text text-anchor="start" x="201.5" y="-988.5" font-family="Helvetica,sans-Serif" font-size="10.00" fill="#000000">+ printC()</text>
<text text-anchor="start" x="201.5" y="-977.5" font-family="Helvetica,sans-Serif" font-size="10.00" fill="#000000">+ alignSize()</text>
<text text-anchor="start" x="201.5" y="-966.5" font-family="Helvetica,sans-Serif" font-size="10.00" fill="#000000">+ relocatePointer()</text>
<text text-anchor="start" x="201.5" y="-955.5" font-family="Helvetica,sans-Serif" font-size="10.00" fill="#000000">+ writeToFile()</text>
<text text-anchor="start" x="201.5" y="-944.5" font-family="Helvetica,sans-Serif" font-size="10.00" fill="#000000">+ readFromFile()</text>
<text text-anchor="start" x="201.5" y="-933.5" font-family="Helvetica,sans-Serif" font-size="10.00" fill="#000000">+ stressTest()</text>
<text text-anchor="start" x="201.5" y="-922.5" font-family="Helvetica,sans-Serif" font-size="10.00" fill="#000000"># startConstruction()</text>
<text text-anchor="start" x="201.5" y="-911.5" font-family="Helvetica,sans-Serif" font-size="10.00" fill="#000000"># finishConstruction()</text>
<text text-anchor="start" x="201.5" y="-900.5" font-family="Helvetica,sans-Serif" font-size="10.00" fill="#000000"># destroy()</text>
<text text-anchor="start" x="201.5" y="-889.5" font-family="Helvetica,sans-Serif" font-size="10.00" fill="#000000"># cloneFromObject()</text>
<text text-anchor="start" x="201.5" y="-878.5" font-family="Helvetica,sans-Serif" font-size="10.00" fill="#000000"># releaseInternalBuffer()</text>
<text text-anchor="start" x="201.5" y="-867.5" font-family="Helvetica,sans-Serif" font-size="10.00" fill="#000000"># moveBufferTo()</text>
<text text-anchor="start" x="201.5" y="-856.5" font-family="Helvetica,sans-Serif" font-size="10.00" fill="#000000"># setActualBufferAddress()</text>
<text text-anchor="start" x="201.5" y="-845.5" font-family="Helvetica,sans-Serif" font-size="10.00" fill="#000000"># setFutureBufferAddress()</text>
<text text-anchor="start" x="201.5" y="-834.5" font-family="Helvetica,sans-Serif" font-size="10.00" fill="#000000"># ClassDefNV()</text>
<text text-anchor="start" x="201.5" y="-823.5" font-family="Helvetica,sans-Serif" font-size="10.00" fill="#000000"># getClassAlignmentBytes()</text>
<text text-anchor="start" x="201.5" y="-812.5" font-family="Helvetica,sans-Serif" font-size="10.00" fill="#000000"># getBufferAlignmentBytes()</text>
</a>
</g>
</g>
<!-- Node5&#45;&gt;Node4 -->
<g id="edge2" class="edge">
<title>Node5&#45;&gt;Node4</title>
<path fill="none" stroke="#191970" d="M332.0972,-795.9178C339.5342,-772.6347 347.1956,-748.6492 354.7807,-724.9024"/>
<polygon fill="none" stroke="#191970" points="328.7456,-794.9082 329.0369,-805.499 335.4137,-797.0381 328.7456,-794.9082"/>
</g>
<!-- Node6 -->
<g id="node4" class="node">
<title>Node6</title>
<polygon fill="none" stroke="#bfbfbf" points="395.5,-1218.5 395.5,-1275.5 433.5,-1275.5 433.5,-1218.5 395.5,-1218.5"/>
<text text-anchor="middle" x="414.5" y="-1263.5" font-family="Helvetica,sans-Serif" font-size="10.00" fill="#000000">char</text>
<polyline fill="none" stroke="#bfbfbf" points="395.5,-1256.5 433.5,-1256.5 "/>
<text text-anchor="middle" x="414.5" y="-1244.5" font-family="Helvetica,sans-Serif" font-size="10.00" fill="#000000"> </text>
<polyline fill="none" stroke="#bfbfbf" points="395.5,-1237.5 433.5,-1237.5 "/>
<text text-anchor="middle" x="414.5" y="-1225.5" font-family="Helvetica,sans-Serif" font-size="10.00" fill="#000000"> </text>
</g>
<!-- Node6&#45;&gt;Node5 -->
<g id="edge3" class="edge">
<title>Node6&#45;&gt;Node5</title>
<path fill="none" stroke="#404040" d="M410.3818,-1218.4936C407.276,-1205.0622 401.8698,-1189.5035 392.5,-1178 382.1948,-1165.348 371.7338,-1171.8352 360.5,-1160 360.2114,-1159.696 359.9236,-1159.3908 359.6365,-1159.0845"/>
<polygon fill="none" stroke="#404040" points="359.4705,-1158.8968 352.4995,-1157.0516 351.5215,-1149.9071 358.4926,-1151.7523 359.4705,-1158.8968"/>
<text text-anchor="middle" x="460" y="-1192" font-family="Helvetica,sans-Serif" font-size="10.00" fill="#000000"> #mFlatBufferPtr</text>
<text text-anchor="middle" x="460" y="-1181" font-family="Helvetica,sans-Serif" font-size="10.00" fill="#000000">#mFlatBufferContainer</text>
</g>
<!-- Node7 -->
<g id="node5" class="node">
<title>Node7</title>
<polygon fill="none" stroke="#bfbfbf" points="140,-1218.5 140,-1275.5 169,-1275.5 169,-1218.5 140,-1218.5"/>
<text text-anchor="middle" x="154.5" y="-1263.5" font-family="Helvetica,sans-Serif" font-size="10.00" fill="#000000">int</text>
<polyline fill="none" stroke="#bfbfbf" points="140,-1256.5 169,-1256.5 "/>
<text text-anchor="middle" x="154.5" y="-1244.5" font-family="Helvetica,sans-Serif" font-size="10.00" fill="#000000"> </text>
<polyline fill="none" stroke="#bfbfbf" points="140,-1237.5 169,-1237.5 "/>
<text text-anchor="middle" x="154.5" y="-1225.5" font-family="Helvetica,sans-Serif" font-size="10.00" fill="#000000"> </text>
</g>
<!-- Node7&#45;&gt;Node4 -->
<g id="edge9" class="edge">
<title>Node7&#45;&gt;Node4</title>
<path fill="none" stroke="#404040" d="M146.7091,-1218.2766C128.5738,-1145.8504 89.2573,-951.14 146.5,-805 185.4221,-705.6323 274.1703,-619.4157 341.1956,-564.9277"/>
<polygon fill="none" stroke="#404040" points="341.5614,-564.634 343.7355,-557.7584 350.9184,-557.1209 348.7443,-563.9964 341.5614,-564.634"/>
<text text-anchor="middle" x="165.5" y="-980" font-family="Helvetica,sans-Serif" font-size="10.00" fill="#000000"> +const</text>
</g>
<!-- Node7&#45;&gt;Node5 -->
<g id="edge4" class="edge">
<title>Node7&#45;&gt;Node5</title>
<path fill="none" stroke="#404040" d="M167.2402,-1218.4426C172.9919,-1205.5498 180.3156,-1189.1336 188.4142,-1170.9805"/>
<polygon fill="none" stroke="#404040" points="188.518,-1170.7476 187.3096,-1163.6385 193.4071,-1159.7887 194.6155,-1166.8979 188.518,-1170.7476"/>
<text text-anchor="middle" x="228" y="-1186.5" font-family="Helvetica,sans-Serif" font-size="10.00" fill="#000000"> #mFlatBufferSize</text>
</g>
<!-- Node8 -->
<g id="node6" class="node">
<title>Node8</title>
<polygon fill="none" stroke="#bfbfbf" points="252,-1218.5 252,-1275.5 313,-1275.5 313,-1218.5 252,-1218.5"/>
<text text-anchor="middle" x="282.5" y="-1263.5" font-family="Helvetica,sans-Serif" font-size="10.00" fill="#000000">unsigned</text>
<polyline fill="none" stroke="#bfbfbf" points="252,-1256.5 313,-1256.5 "/>
<text text-anchor="middle" x="282.5" y="-1244.5" font-family="Helvetica,sans-Serif" font-size="10.00" fill="#000000"> </text>
<polyline fill="none" stroke="#bfbfbf" points="252,-1237.5 313,-1237.5 "/>
<text text-anchor="middle" x="282.5" y="-1225.5" font-family="Helvetica,sans-Serif" font-size="10.00" fill="#000000"> </text>
</g>
<!-- Node8&#45;&gt;Node5 -->
<g id="edge5" class="edge">
<title>Node8&#45;&gt;Node5</title>
<path fill="none" stroke="#404040" d="M281.4203,-1218.4426C280.942,-1205.7919 280.3355,-1189.749 279.6645,-1172.0014"/>
<polygon fill="none" stroke="#404040" points="279.6562,-1171.7802 275.4324,-1165.9356 279.2028,-1159.7887 283.4267,-1165.6333 279.6562,-1171.7802"/>
<text text-anchor="middle" x="336" y="-1186.5" font-family="Helvetica,sans-Serif" font-size="10.00" fill="#000000"> #mConstructionMask</text>
</g>
<!-- Node9 -->
<g id="node7" class="node">
<title>Node9</title>
<polygon fill="none" stroke="#bfbfbf" points="0,-954 0,-1011 101,-1011 101,-954 0,-954"/>
<text text-anchor="middle" x="50.5" y="-999" font-family="Helvetica,sans-Serif" font-size="10.00" fill="#000000">DataT DataT &amp;u2</text>
<polyline fill="none" stroke="#bfbfbf" points="0,-992 101,-992 "/>
<text text-anchor="middle" x="50.5" y="-980" font-family="Helvetica,sans-Serif" font-size="10.00" fill="#000000"> </text>
<polyline fill="none" stroke="#bfbfbf" points="0,-973 101,-973 "/>
<text text-anchor="middle" x="50.5" y="-961" font-family="Helvetica,sans-Serif" font-size="10.00" fill="#000000"> </text>
</g>
<!-- Node9&#45;&gt;Node4 -->
<g id="edge6" class="edge">
<title>Node9&#45;&gt;Node4</title>
<path fill="none" stroke="#404040" d="M47.7644,-953.8913C44.6422,-906.3633 44.4626,-809.7668 85.5,-743 145.0803,-646.0643 260.1462,-577.7164 339.8092,-539.4926"/>
<polygon fill="none" stroke="#404040" points="339.9548,-539.4239 343.672,-533.2446 350.8056,-534.2992 347.0884,-540.4785 339.9548,-539.4239"/>
<text text-anchor="middle" x="104.5" y="-762.5" font-family="Helvetica,sans-Serif" font-size="10.00" fill="#000000"> +const</text>
</g>
<!-- Node10 -->
<g id="node8" class="node">
<title>Node10</title>
<polygon fill="none" stroke="#bfbfbf" points="599.5,-954 599.5,-1011 645.5,-1011 645.5,-954 599.5,-954"/>
<text text-anchor="middle" x="622.5" y="-999" font-family="Helvetica,sans-Serif" font-size="10.00" fill="#000000">DataT</text>
<polyline fill="none" stroke="#bfbfbf" points="599.5,-992 645.5,-992 "/>
<text text-anchor="middle" x="622.5" y="-980" font-family="Helvetica,sans-Serif" font-size="10.00" fill="#000000"> </text>
<polyline fill="none" stroke="#bfbfbf" points="599.5,-973 645.5,-973 "/>
<text text-anchor="middle" x="622.5" y="-961" font-family="Helvetica,sans-Serif" font-size="10.00" fill="#000000"> </text>
</g>
<!-- Node10&#45;&gt;Node3 -->
<g id="edge11" class="edge">
<title>Node10&#45;&gt;Node3</title>
<path fill="none" stroke="#404040" d="M624.8214,-953.7067C627.7665,-915.6001 632.6814,-846.3106 634.5,-787 640.1851,-601.5871 600.9655,-390.0245 570.4522,-256.4012"/>
<polygon fill="none" stroke="#404040" points="570.4087,-256.2121 565.1637,-251.2632 567.7146,-244.5183 572.9596,-249.4672 570.4087,-256.2121"/>
<text text-anchor="middle" x="653.5" y="-517.5" font-family="Helvetica,sans-Serif" font-size="10.00" fill="#000000"> +const</text>
<text text-anchor="middle" x="653.5" y="-506.5" font-family="Helvetica,sans-Serif" font-size="10.00" fill="#000000">+x2</text>
<text text-anchor="middle" x="653.5" y="-495.5" font-family="Helvetica,sans-Serif" font-size="10.00" fill="#000000">+u1</text>
<text text-anchor="middle" x="653.5" y="-484.5" font-family="Helvetica,sans-Serif" font-size="10.00" fill="#000000">+u2</text>
</g>
<!-- Node10&#45;&gt;Node4 -->
<g id="edge7" class="edge">
<title>Node10&#45;&gt;Node4</title>
<path fill="none" stroke="#404040" d="M616.0315,-953.7618C607.2761,-917.741 589.7861,-854.6985 564.5,-805 560.025,-796.2047 556.4192,-795.5548 551.5,-787 535.2395,-758.7223 519.6208,-727.9575 505.2503,-697.465"/>
<polygon fill="none" stroke="#404040" points="505.0901,-697.1217 498.9274,-693.3772 500.0135,-686.2484 506.1762,-689.9929 505.0901,-697.1217"/>
<text text-anchor="middle" x="593" y="-779" font-family="Helvetica,sans-Serif" font-size="10.00" fill="#000000"> #mFparameters</text>
<text text-anchor="middle" x="593" y="-768" font-family="Helvetica,sans-Serif" font-size="10.00" fill="#000000">+x2Min</text>
<text text-anchor="middle" x="593" y="-757" font-family="Helvetica,sans-Serif" font-size="10.00" fill="#000000">+x2Max</text>
<text text-anchor="middle" x="593" y="-746" font-family="Helvetica,sans-Serif" font-size="10.00" fill="#000000">+x1Max</text>
</g>
<!-- Node11 -->
<g id="node9" class="node">
<title>Node11</title>
<polygon fill="none" stroke="#bfbfbf" points="369.5,-954 369.5,-1011 481.5,-1011 481.5,-954 369.5,-954"/>
<text text-anchor="middle" x="425.5" y="-999" font-family="Helvetica,sans-Serif" font-size="10.00" fill="#000000">Spline1D&lt; DataT &gt;</text>
<polyline fill="none" stroke="#bfbfbf" points="369.5,-992 481.5,-992 "/>
<text text-anchor="middle" x="425.5" y="-980" font-family="Helvetica,sans-Serif" font-size="10.00" fill="#000000"> </text>
<polyline fill="none" stroke="#bfbfbf" points="369.5,-973 481.5,-973 "/>
<text text-anchor="middle" x="425.5" y="-961" font-family="Helvetica,sans-Serif" font-size="10.00" fill="#000000"> </text>
</g>
<!-- Node11&#45;&gt;Node4 -->
<g id="edge8" class="edge">
<title>Node11&#45;&gt;Node4</title>
<path fill="none" stroke="#404040" d="M425.5,-953.9708C425.5,-910.3536 425.5,-823.0411 425.5,-736.8011"/>
<polygon fill="none" stroke="#404040" points="425.5001,-736.644 421.5,-730.6441 425.5,-724.644 429.5,-730.644 425.5001,-736.644"/>
<text text-anchor="middle" x="453" y="-768" font-family="Helvetica,sans-Serif" font-size="10.00" fill="#000000"> #mGridU1</text>
<text text-anchor="middle" x="453" y="-757" font-family="Helvetica,sans-Serif" font-size="10.00" fill="#000000">#mGridU2</text>
</g>
<!-- Node12 -->
<g id="node10" class="node">
<title>Node12</title>
<polygon fill="none" stroke="#bfbfbf" points="499.5,-954 499.5,-1011 555.5,-1011 555.5,-954 499.5,-954"/>
<text text-anchor="middle" x="527.5" y="-999" font-family="Helvetica,sans-Serif" font-size="10.00" fill="#000000">DataT &amp;</text>
<polyline fill="none" stroke="#bfbfbf" points="499.5,-992 555.5,-992 "/>
<text text-anchor="middle" x="527.5" y="-980" font-family="Helvetica,sans-Serif" font-size="10.00" fill="#000000"> </text>
<polyline fill="none" stroke="#bfbfbf" points="499.5,-973 555.5,-973 "/>
<text text-anchor="middle" x="527.5" y="-961" font-family="Helvetica,sans-Serif" font-size="10.00" fill="#000000"> </text>
</g>
<!-- Node12&#45;&gt;Node4 -->
<g id="edge10" class="edge">
<title>Node12&#45;&gt;Node4</title>
<path fill="none" stroke="#404040" d="M522.3469,-953.6695C514.2058,-908.6055 497.631,-818.7842 481.5,-743 481.0367,-740.8236 480.5691,-738.6366 480.0976,-736.4403"/>
<polygon fill="none" stroke="#404040" points="480.0765,-736.3426 474.8986,-731.3237 477.5399,-724.6137 482.7178,-729.6326 480.0765,-736.3426"/>
<text text-anchor="middle" x="501.5" y="-762.5" font-family="Helvetica,sans-Serif" font-size="10.00" fill="#000000"> +u1</text>
</g>
</g>
</svg>
