<?xml version="1.0" encoding="UTF-8" standalone="no"?>
<!DOCTYPE svg PUBLIC "-//W3C//DTD SVG 1.1//EN"
 "http://www.w3.org/Graphics/SVG/1.1/DTD/svg11.dtd">
<!-- Generated by graphviz version 2.40.1 (20161225.0304)
 -->
<!-- Title: /home/travis/build/AliceO2Group/AliceO2/GPU/GPUTracking/TPCConvert/GPUTPCConvertImpl.h Pages: 1 -->
<svg width="1036pt" height="328pt"
 viewBox="0.00 0.00 1035.50 328.00" xmlns="http://www.w3.org/2000/svg" xmlns:xlink="http://www.w3.org/1999/xlink">
<g id="graph0" class="graph" transform="scale(1 1) rotate(0) translate(4 324)">
<title>/home/travis/build/AliceO2Group/AliceO2/GPU/GPUTracking/TPCConvert/GPUTPCConvertImpl.h</title>
<!-- Node48 -->
<g id="node1" class="node">
<title>Node48</title>
<polygon fill="#bfbfbf" stroke="#000000" points="404.5,-267.5 404.5,-319.5 569.5,-319.5 569.5,-267.5 404.5,-267.5"/>
<text text-anchor="start" x="412.5" y="-307.5" font-family="Helvetica,sans-Serif" font-size="10.00" fill="#000000">/home/travis/build</text>
<text text-anchor="start" x="412.5" y="-296.5" font-family="Helvetica,sans-Serif" font-size="10.00" fill="#000000">/AliceO2Group/AliceO2</text>
<text text-anchor="start" x="412.5" y="-285.5" font-family="Helvetica,sans-Serif" font-size="10.00" fill="#000000">/GPU/GPUTracking/TPCConvert</text>
<text text-anchor="middle" x="487" y="-274.5" font-family="Helvetica,sans-Serif" font-size="10.00" fill="#000000">/GPUTPCConvertImpl.h</text>
</g>
<!-- Node49 -->
<g id="node2" class="node">
<title>Node49</title>
<g id="a_node2"><a xlink:href="../../d0/dd4/GPUTPCGMMerger_8cxx.html" target="_top" xlink:title="/home/travis/build\l/AliceO2Group/AliceO2\l/GPU/GPUTracking/Merger\l/GPUTPCGMMerger.cxx">
<polygon fill="none" stroke="#000000" points="0,-178.5 0,-230.5 142,-230.5 142,-178.5 0,-178.5"/>
<text text-anchor="start" x="8" y="-218.5" font-family="Helvetica,sans-Serif" font-size="10.00" fill="#000000">/home/travis/build</text>
<text text-anchor="start" x="8" y="-207.5" font-family="Helvetica,sans-Serif" font-size="10.00" fill="#000000">/AliceO2Group/AliceO2</text>
<text text-anchor="start" x="8" y="-196.5" font-family="Helvetica,sans-Serif" font-size="10.00" fill="#000000">/GPU/GPUTracking/Merger</text>
<text text-anchor="middle" x="71" y="-185.5" font-family="Helvetica,sans-Serif" font-size="10.00" fill="#000000">/GPUTPCGMMerger.cxx</text>
</a>
</g>
</g>
<!-- Node48&#45;&gt;Node49 -->
<g id="edge1" class="edge">
<title>Node48&#45;&gt;Node49</title>
<path fill="none" stroke="#191970" d="M394.2568,-279.7306C326.3682,-268.8099 232.3005,-251.9234 151,-231 148.1661,-230.2707 145.2868,-229.4936 142.3863,-228.6806"/>
<polygon fill="#191970" stroke="#191970" points="394.073,-283.2455 404.4997,-281.365 395.1761,-276.3329 394.073,-283.2455"/>
</g>
<!-- Node52 -->
<g id="node5" class="node">
<title>Node52</title>
<g id="a_node5"><a xlink:href="../../d5/d84/GPUTPCGMSliceTrack_8cxx.html" target="_top" xlink:title="/home/travis/build\l/AliceO2Group/AliceO2\l/GPU/GPUTracking/Merger\l/GPUTPCGMSliceTrack.cxx">
<polygon fill="none" stroke="#000000" points="160,-178.5 160,-230.5 304,-230.5 304,-178.5 160,-178.5"/>
<text text-anchor="start" x="168" y="-218.5" font-family="Helvetica,sans-Serif" font-size="10.00" fill="#000000">/home/travis/build</text>
<text text-anchor="start" x="168" y="-207.5" font-family="Helvetica,sans-Serif" font-size="10.00" fill="#000000">/AliceO2Group/AliceO2</text>
<text text-anchor="start" x="168" y="-196.5" font-family="Helvetica,sans-Serif" font-size="10.00" fill="#000000">/GPU/GPUTracking/Merger</text>
<text text-anchor="middle" x="232" y="-185.5" font-family="Helvetica,sans-Serif" font-size="10.00" fill="#000000">/GPUTPCGMSliceTrack.cxx</text>
</a>
</g>
</g>
<!-- Node48&#45;&gt;Node52 -->
<g id="edge4" class="edge">
<title>Node48&#45;&gt;Node52</title>
<path fill="none" stroke="#191970" d="M402.4749,-263.9991C370.6393,-252.8878 334.7556,-240.3637 304.1513,-229.6822"/>
<polygon fill="#191970" stroke="#191970" points="401.6197,-267.4076 412.2146,-267.3984 403.9265,-260.7986 401.6197,-267.4076"/>
</g>
<!-- Node53 -->
<g id="node6" class="node">
<title>Node53</title>
<g id="a_node6"><a xlink:href="../../df/dad/GPUTPCGMTrackParam_8cxx.html" target="_top" xlink:title="/home/travis/build\l/AliceO2Group/AliceO2\l/GPU/GPUTracking/Merger\l/GPUTPCGMTrackParam.cxx">
<polygon fill="none" stroke="#000000" points="322,-178.5 322,-230.5 474,-230.5 474,-178.5 322,-178.5"/>
<text text-anchor="start" x="330" y="-218.5" font-family="Helvetica,sans-Serif" font-size="10.00" fill="#000000">/home/travis/build</text>
<text text-anchor="start" x="330" y="-207.5" font-family="Helvetica,sans-Serif" font-size="10.00" fill="#000000">/AliceO2Group/AliceO2</text>
<text text-anchor="start" x="330" y="-196.5" font-family="Helvetica,sans-Serif" font-size="10.00" fill="#000000">/GPU/GPUTracking/Merger</text>
<text text-anchor="middle" x="398" y="-185.5" font-family="Helvetica,sans-Serif" font-size="10.00" fill="#000000">/GPUTPCGMTrackParam.cxx</text>
</a>
</g>
</g>
<!-- Node48&#45;&gt;Node53 -->
<g id="edge6" class="edge">
<title>Node48&#45;&gt;Node53</title>
<path fill="none" stroke="#191970" d="M453.5029,-260.0029C443.7529,-250.2529 433.2511,-239.7511 424.0341,-230.5341"/>
<polygon fill="#191970" stroke="#191970" points="451.2325,-262.6822 460.7784,-267.2784 456.1822,-257.7325 451.2325,-262.6822"/>
</g>
<!-- Node54 -->
<g id="node7" class="node">
<title>Node54</title>
<g id="a_node7"><a xlink:href="../../d5/d85/GPUTPCSliceData_8cxx.html" target="_top" xlink:title="/home/travis/build\l/AliceO2Group/AliceO2\l/GPU/GPUTracking/SliceTracker\l/GPUTPCSliceData.cxx">
<polygon fill="none" stroke="#000000" points="492.5,-178.5 492.5,-230.5 659.5,-230.5 659.5,-178.5 492.5,-178.5"/>
<text text-anchor="start" x="500.5" y="-218.5" font-family="Helvetica,sans-Serif" font-size="10.00" fill="#000000">/home/travis/build</text>
<text text-anchor="start" x="500.5" y="-207.5" font-family="Helvetica,sans-Serif" font-size="10.00" fill="#000000">/AliceO2Group/AliceO2</text>
<text text-anchor="start" x="500.5" y="-196.5" font-family="Helvetica,sans-Serif" font-size="10.00" fill="#000000">/GPU/GPUTracking/SliceTracker</text>
<text text-anchor="middle" x="576" y="-185.5" font-family="Helvetica,sans-Serif" font-size="10.00" fill="#000000">/GPUTPCSliceData.cxx</text>
</a>
</g>
</g>
<!-- Node48&#45;&gt;Node54 -->
<g id="edge8" class="edge">
<title>Node48&#45;&gt;Node54</title>
<path fill="none" stroke="#191970" d="M520.4971,-260.0029C530.2471,-250.2529 540.7489,-239.7511 549.9659,-230.5341"/>
<polygon fill="#191970" stroke="#191970" points="517.8178,-257.7325 513.2216,-267.2784 522.7675,-262.6822 517.8178,-257.7325"/>
</g>
<!-- Node55 -->
<g id="node8" class="node">
<title>Node55</title>
<g id="a_node8"><a xlink:href="../../db/d4b/GPUTPCTracker_8cxx.html" target="_top" xlink:title="/home/travis/build\l/AliceO2Group/AliceO2\l/GPU/GPUTracking/SliceTracker\l/GPUTPCTracker.cxx">
<polygon fill="none" stroke="#000000" points="677.5,-178.5 677.5,-230.5 844.5,-230.5 844.5,-178.5 677.5,-178.5"/>
<text text-anchor="start" x="685.5" y="-218.5" font-family="Helvetica,sans-Serif" font-size="10.00" fill="#000000">/home/travis/build</text>
<text text-anchor="start" x="685.5" y="-207.5" font-family="Helvetica,sans-Serif" font-size="10.00" fill="#000000">/AliceO2Group/AliceO2</text>
<text text-anchor="start" x="685.5" y="-196.5" font-family="Helvetica,sans-Serif" font-size="10.00" fill="#000000">/GPU/GPUTracking/SliceTracker</text>
<text text-anchor="middle" x="761" y="-185.5" font-family="Helvetica,sans-Serif" font-size="10.00" fill="#000000">/GPUTPCTracker.cxx</text>
</a>
</g>
</g>
<!-- Node48&#45;&gt;Node55 -->
<g id="edge9" class="edge">
<title>Node48&#45;&gt;Node55</title>
<path fill="none" stroke="#191970" d="M577.1182,-264.228C610.5259,-253.3766 648.1627,-241.1515 680.6438,-230.6011"/>
<polygon fill="#191970" stroke="#191970" points="575.7872,-260.9803 567.3577,-267.3984 577.9498,-267.6379 575.7872,-260.9803"/>
</g>
<!-- Node56 -->
<g id="node9" class="node">
<title>Node56</title>
<g id="a_node9"><a xlink:href="../../d2/d77/GPUTPCConvertKernel_8cxx.html" target="_top" xlink:title="/home/travis/build\l/AliceO2Group/AliceO2\l/GPU/GPUTracking/TPCConvert\l/GPUTPCConvertKernel.cxx">
<polygon fill="none" stroke="#000000" points="862.5,-178.5 862.5,-230.5 1027.5,-230.5 1027.5,-178.5 862.5,-178.5"/>
<text text-anchor="start" x="870.5" y="-218.5" font-family="Helvetica,sans-Serif" font-size="10.00" fill="#000000">/home/travis/build</text>
<text text-anchor="start" x="870.5" y="-207.5" font-family="Helvetica,sans-Serif" font-size="10.00" fill="#000000">/AliceO2Group/AliceO2</text>
<text text-anchor="start" x="870.5" y="-196.5" font-family="Helvetica,sans-Serif" font-size="10.00" fill="#000000">/GPU/GPUTracking/TPCConvert</text>
<text text-anchor="middle" x="945" y="-185.5" font-family="Helvetica,sans-Serif" font-size="10.00" fill="#000000">/GPUTPCConvertKernel.cxx</text>
</a>
</g>
</g>
<!-- Node48&#45;&gt;Node56 -->
<g id="edge11" class="edge">
<title>Node48&#45;&gt;Node56</title>
<path fill="none" stroke="#191970" d="M579.8226,-280.702C654.3699,-269.7026 761.5054,-252.2697 854,-231 856.7262,-230.3731 859.4916,-229.7126 862.279,-229.0257"/>
<polygon fill="#191970" stroke="#191970" points="578.9117,-277.298 569.5249,-282.2111 579.9267,-284.224 578.9117,-277.298"/>
</g>
<!-- Node50 -->
<g id="node3" class="node">
<title>Node50</title>
<g id="a_node3"><a xlink:href="../../d0/d25/GPUReconstructionIncludesDevice_8h.html" target="_top" xlink:title="/home/travis/build\l/AliceO2Group/AliceO2\l/GPU/GPUTracking/Base\l/GPUReconstructionIncludesDevice.h">
<polygon fill="none" stroke="#000000" points="217,-89.5 217,-141.5 413,-141.5 413,-89.5 217,-89.5"/>
<text text-anchor="start" x="225" y="-129.5" font-family="Helvetica,sans-Serif" font-size="10.00" fill="#000000">/home/travis/build</text>
<text text-anchor="start" x="225" y="-118.5" font-family="Helvetica,sans-Serif" font-size="10.00" fill="#000000">/AliceO2Group/AliceO2</text>
<text text-anchor="start" x="225" y="-107.5" font-family="Helvetica,sans-Serif" font-size="10.00" fill="#000000">/GPU/GPUTracking/Base</text>
<text text-anchor="middle" x="315" y="-96.5" font-family="Helvetica,sans-Serif" font-size="10.00" fill="#000000">/GPUReconstructionIncludesDevice.h</text>
</a>
</g>
</g>
<!-- Node49&#45;&gt;Node50 -->
<g id="edge2" class="edge">
<title>Node49&#45;&gt;Node50</title>
<path fill="none" stroke="#191970" d="M151.7366,-175.051C181.4472,-164.2139 214.8588,-152.0269 243.6807,-141.514"/>
<polygon fill="#191970" stroke="#191970" points="150.426,-171.8034 142.2308,-178.5183 152.8248,-178.3796 150.426,-171.8034"/>
</g>
<!-- Node51 -->
<g id="node4" class="node">
<title>Node51</title>
<g id="a_node4"><a xlink:href="../../d3/d33/GPUReconstructionHIP_8hip_8cxx.html" target="_top" xlink:title="/home/travis/build\l/AliceO2Group/AliceO2\l/GPU/GPUTracking/Base\l/hip/GPUReconstructionHIP.hip.cxx">
<polygon fill="none" stroke="#000000" points="223,-.5 223,-52.5 407,-52.5 407,-.5 223,-.5"/>
<text text-anchor="start" x="231" y="-40.5" font-family="Helvetica,sans-Serif" font-size="10.00" fill="#000000">/home/travis/build</text>
<text text-anchor="start" x="231" y="-29.5" font-family="Helvetica,sans-Serif" font-size="10.00" fill="#000000">/AliceO2Group/AliceO2</text>
<text text-anchor="start" x="231" y="-18.5" font-family="Helvetica,sans-Serif" font-size="10.00" fill="#000000">/GPU/GPUTracking/Base</text>
<text text-anchor="middle" x="315" y="-7.5" font-family="Helvetica,sans-Serif" font-size="10.00" fill="#000000">/hip/GPUReconstructionHIP.hip.cxx</text>
</a>
</g>
</g>
<!-- Node50&#45;&gt;Node51 -->
<g id="edge3" class="edge">
<title>Node50&#45;&gt;Node51</title>
<path fill="none" stroke="#191970" d="M315,-79.1155C315,-70.2061 315,-60.8475 315,-52.5341"/>
<polygon fill="#191970" stroke="#191970" points="311.5001,-79.2784 315,-89.2784 318.5001,-79.2785 311.5001,-79.2784"/>
</g>
<!-- Node52&#45;&gt;Node50 -->
<g id="edge5" class="edge">
<title>Node52&#45;&gt;Node50</title>
<path fill="none" stroke="#191970" d="M263.5065,-170.7159C272.5234,-161.0472 282.2096,-150.6608 290.721,-141.5341"/>
<polygon fill="#191970" stroke="#191970" points="260.7144,-168.578 256.4538,-178.2784 265.8338,-173.3522 260.7144,-168.578"/>
</g>
<!-- Node53&#45;&gt;Node50 -->
<g id="edge7" class="edge">
<title>Node53&#45;&gt;Node50</title>
<path fill="none" stroke="#191970" d="M366.4935,-170.7159C357.4766,-161.0472 347.7904,-150.6608 339.279,-141.5341"/>
<polygon fill="#191970" stroke="#191970" points="364.1662,-173.3522 373.5462,-178.2784 369.2856,-168.578 364.1662,-173.3522"/>
</g>
<!-- Node55&#45;&gt;Node50 -->
<g id="edge10" class="edge">
<title>Node55&#45;&gt;Node50</title>
<path fill="none" stroke="#191970" d="M667.4222,-177.7152C576.3681,-156.96 482.0814,-140.8066 413.2294,-129.9851"/>
<polygon fill="#191970" stroke="#191970" points="666.831,-181.1705 677.3612,-180.0022 668.4008,-174.3488 666.831,-181.1705"/>
</g>
</g>
</svg>
