<?xml version="1.0" encoding="UTF-8" standalone="no"?>
<!DOCTYPE svg PUBLIC "-//W3C//DTD SVG 1.1//EN"
 "http://www.w3.org/Graphics/SVG/1.1/DTD/svg11.dtd">
<!-- Generated by graphviz version 2.40.1 (20161225.0304)
 -->
<!-- Title: /home/travis/build/AliceO2Group/AliceO2/Framework/Core/src/Kernels.cxx Pages: 1 -->
<!--zoomable 330 -->
<svg id="main" version="1.1" xmlns="http://www.w3.org/2000/svg" xmlns:xlink="http://www.w3.org/1999/xlink" xml:space="preserve" onload="init(evt)">
<style type="text/css"><![CDATA[
.edge:hover path { stroke: red; }
.edge:hover polygon { stroke: red; fill: red; }
]]></style>
<script type="text/javascript"><![CDATA[
var edges = document.getElementsByTagName('g');
if (edges && edges.length) {
  for (var i=0;i<edges.length;i++) {
    if (edges[i].id.substr(0,4)=='edge') {
      edges[i].setAttribute('class','edge');
    }
  }
}
]]></script>
        <defs>
                <circle id="rim" cx="0" cy="0" r="7"/>
                <circle id="rim2" cx="0" cy="0" r="3.5"/>
                <g id="zoomPlus">
                        <use xlink:href="#rim" fill="#404040">
                                <set attributeName="fill" to="#808080" begin="zoomplus.mouseover" end="zoomplus.mouseout"/>
                        </use>
                        <path d="M-4,0h8M0,-4v8" fill="none" stroke="white" stroke-width="1.5" pointer-events="none"/>
                </g>
                <g id="zoomMin">
                        <use xlink:href="#rim" fill="#404040">
                                <set attributeName="fill" to="#808080" begin="zoomminus.mouseover" end="zoomminus.mouseout"/>
                        </use>
                        <path d="M-4,0h8" fill="none" stroke="white" stroke-width="1.5" pointer-events="none"/>
                </g>
                <g id="dirArrow">
                        <path fill="none" stroke="white" stroke-width="1.5" d="M0,-3.0v7 M-2.5,-0.5L0,-3.0L2.5,-0.5"/>
                </g>
               <g id="resetDef">
                       <use xlink:href="#rim2" fill="#404040">
                               <set attributeName="fill" to="#808080" begin="reset.mouseover" end="reset.mouseout"/>
                       </use>
               </g>
        </defs>

<script type="text/javascript">
var viewWidth = 2665;
var viewHeight = 330;
var sectionId = 'dynsection-0';
</script>
<script xlink:href="../../svgpan.js"/>
<svg id="graph" class="graph">
<g id="viewport">
<title>/home/travis/build/AliceO2Group/AliceO2/Framework/Core/src/Kernels.cxx</title>
<!-- Node0 -->
<g id="node1" class="node">
<title>Node0</title>
<polygon fill="#bfbfbf" stroke="#000000" points="2227.5,-280.5 2227.5,-321.5 2403.5,-321.5 2403.5,-280.5 2227.5,-280.5"/>
<text text-anchor="start" x="2235.5" y="-309.5" font-family="Helvetica,sans-Serif" font-size="10.00" fill="#000000">/home/travis/build</text>
<text text-anchor="start" x="2235.5" y="-298.5" font-family="Helvetica,sans-Serif" font-size="10.00" fill="#000000">/AliceO2Group/AliceO2</text>
<text text-anchor="middle" x="2315.5" y="-287.5" font-family="Helvetica,sans-Serif" font-size="10.00" fill="#000000">/Framework/Core/src/Kernels.cxx</text>
</g>
<!-- Node1 -->
<g id="node2" class="node">
<title>Node1</title>
<g id="a_node2"><a xlink:href="../../d0/d92/Kernels_8h.html" target="_top" xlink:title="Framework/Kernels.h">
<polygon fill="none" stroke="#000000" points="610,-112.5 610,-131.5 729,-131.5 729,-112.5 610,-112.5"/>
<text text-anchor="middle" x="669.5" y="-119.5" font-family="Helvetica,sans-Serif" font-size="10.00" fill="#000000">Framework/Kernels.h</text>
</a>
</g>
</g>
<!-- Node0&#45;&gt;Node1 -->
<g id="edge1" class="edge">
<title>Node0&#45;&gt;Node1</title>
<path fill="none" stroke="#191970" d="M2227.381,-299.641C2032.9325,-295.9938 1552.5924,-283.4229 1152.5,-244 983.9224,-227.3893 934.497,-246.4319 775.5,-188 743.0634,-176.0794 709.9216,-153.4131 689.5301,-138.0059"/>
<polygon fill="#191970" stroke="#191970" points="691.414,-135.0388 681.3586,-131.7012 687.1379,-140.581 691.414,-135.0388"/>
</g>
<!-- Node4 -->
<g id="node5" class="node">
<title>Node4</title>
<polygon fill="none" stroke="#bfbfbf" points="87.5,-56.5 87.5,-75.5 173.5,-75.5 173.5,-56.5 87.5,-56.5"/>
<text text-anchor="middle" x="130.5" y="-63.5" font-family="Helvetica,sans-Serif" font-size="10.00" fill="#000000">arrow/status.h</text>
</g>
<!-- Node0&#45;&gt;Node4 -->
<g id="edge66" class="edge">
<title>Node0&#45;&gt;Node4</title>
<path fill="none" stroke="#191970" d="M2227.3947,-300.1393C1885.0484,-296.5383 653.6846,-281.1079 482.5,-244 346.162,-214.4458 203.91,-119.2118 151.4903,-81.5436"/>
<polygon fill="#191970" stroke="#191970" points="153.462,-78.65 143.3132,-75.608 149.3499,-84.3149 153.462,-78.65"/>
</g>
<!-- Node6 -->
<g id="node7" class="node">
<title>Node6</title>
<polygon fill="none" stroke="#bfbfbf" points="191.5,-56.5 191.5,-75.5 301.5,-75.5 301.5,-56.5 191.5,-56.5"/>
<text text-anchor="middle" x="246.5" y="-63.5" font-family="Helvetica,sans-Serif" font-size="10.00" fill="#000000">arrow/util/variant.h</text>
</g>
<!-- Node0&#45;&gt;Node6 -->
<g id="edge68" class="edge">
<title>Node0&#45;&gt;Node6</title>
<path fill="none" stroke="#191970" d="M2227.2104,-299.537C2004.4429,-295.3908 1401.5845,-281.3452 900.5,-244 671.3393,-226.921 597.0063,-280.1597 386.5,-188 332.1361,-164.1995 283.5678,-111.5478 260.5688,-83.842"/>
<polygon fill="#191970" stroke="#191970" points="263.0485,-81.3436 254.0251,-75.7913 257.6165,-85.7589 263.0485,-81.3436"/>
</g>
<!-- Node8 -->
<g id="node9" class="node">
<title>Node8</title>
<g id="a_node9"><a xlink:href="../../d5/d98/TableBuilder_8h.html" target="_top" xlink:title="Framework/TableBuilder.h">
<polygon fill="none" stroke="#000000" points="1161.5,-224.5 1161.5,-243.5 1303.5,-243.5 1303.5,-224.5 1161.5,-224.5"/>
<text text-anchor="middle" x="1232.5" y="-231.5" font-family="Helvetica,sans-Serif" font-size="10.00" fill="#000000">Framework/TableBuilder.h</text>
</a>
</g>
</g>
<!-- Node0&#45;&gt;Node8 -->
<g id="edge8" class="edge">
<title>Node0&#45;&gt;Node8</title>
<path fill="none" stroke="#191970" d="M2227.3328,-295.5455C2021.5949,-282.8175 1512.2348,-251.3058 1313.6274,-239.019"/>
<polygon fill="#191970" stroke="#191970" points="1313.75,-235.5199 1303.5529,-238.3957 1313.3177,-242.5066 1313.75,-235.5199"/>
</g>
<!-- Node23 -->
<g id="node24" class="node">
<title>Node23</title>
<polygon fill="none" stroke="#bfbfbf" points="2225.5,-56.5 2225.5,-75.5 2303.5,-75.5 2303.5,-56.5 2225.5,-56.5"/>
<text text-anchor="middle" x="2264.5" y="-63.5" font-family="Helvetica,sans-Serif" font-size="10.00" fill="#000000">arrow/type.h</text>
</g>
<!-- Node0&#45;&gt;Node23 -->
<g id="edge67" class="edge">
<title>Node0&#45;&gt;Node23</title>
<path fill="none" stroke="#191970" d="M2334.5173,-280.1908C2356.0762,-253.9479 2386.1898,-207.4812 2369.5,-168 2353.3011,-129.6802 2314.8849,-98.6601 2289.2887,-81.273"/>
<polygon fill="#191970" stroke="#191970" points="2291.1041,-78.2778 2280.8271,-75.7019 2287.2547,-84.1244 2291.1041,-78.2778"/>
</g>
<!-- Node30 -->
<g id="node31" class="node">
<title>Node30</title>
<polygon fill="none" stroke="#bfbfbf" points="2405.5,-56.5 2405.5,-75.5 2463.5,-75.5 2463.5,-56.5 2405.5,-56.5"/>
<text text-anchor="middle" x="2434.5" y="-63.5" font-family="Helvetica,sans-Serif" font-size="10.00" fill="#000000">memory</text>
</g>
<!-- Node0&#45;&gt;Node30 -->
<g id="edge69" class="edge">
<title>Node0&#45;&gt;Node30</title>
<path fill="none" stroke="#191970" d="M2343.9116,-280.2823C2355.7121,-270.434 2368.6816,-257.799 2377.5,-244 2410.4673,-192.4131 2425.8014,-120.1813 2431.5869,-85.7555"/>
<polygon fill="#191970" stroke="#191970" points="2435.0855,-86.0392 2433.1945,-75.6145 2428.1719,-84.9431 2435.0855,-86.0392"/>
</g>
<!-- Node41 -->
<g id="node42" class="node">
<title>Node41</title>
<polygon fill="none" stroke="#bfbfbf" points="2271,-168.5 2271,-187.5 2360,-187.5 2360,-168.5 2271,-168.5"/>
<text text-anchor="middle" x="2315.5" y="-175.5" font-family="Helvetica,sans-Serif" font-size="10.00" fill="#000000">arrow/builder.h</text>
</g>
<!-- Node0&#45;&gt;Node41 -->
<g id="edge65" class="edge">
<title>Node0&#45;&gt;Node41</title>
<path fill="none" stroke="#191970" d="M2315.5,-280.4126C2315.5,-257.3618 2315.5,-220.2774 2315.5,-197.6259"/>
<polygon fill="#191970" stroke="#191970" points="2319.0001,-197.5181 2315.5,-187.5182 2312.0001,-197.5182 2319.0001,-197.5181"/>
</g>
<!-- Node43 -->
<g id="node44" class="node">
<title>Node43</title>
<g id="a_node44"><a xlink:href="../../df/d1f/ArrowDebugHelpers_8h.html" target="_top" xlink:title="ArrowDebugHelpers.h">
<polygon fill="none" stroke="#000000" points="2455,-224.5 2455,-243.5 2578,-243.5 2578,-224.5 2455,-224.5"/>
<text text-anchor="middle" x="2516.5" y="-231.5" font-family="Helvetica,sans-Serif" font-size="10.00" fill="#000000">ArrowDebugHelpers.h</text>
</a>
</g>
</g>
<!-- Node0&#45;&gt;Node43 -->
<g id="edge64" class="edge">
<title>Node0&#45;&gt;Node43</title>
<path fill="none" stroke="#191970" d="M2377.1726,-280.4425C2410.2059,-269.4314 2449.8525,-256.2158 2478.3923,-246.7026"/>
<polygon fill="#191970" stroke="#191970" points="2479.6149,-249.9844 2487.995,-243.5017 2477.4013,-243.3436 2479.6149,-249.9844"/>
</g>
<!-- Node44 -->
<g id="node45" class="node">
<title>Node44</title>
<polygon fill="none" stroke="#bfbfbf" points="2596.5,-224.5 2596.5,-243.5 2656.5,-243.5 2656.5,-224.5 2596.5,-224.5"/>
<text text-anchor="middle" x="2626.5" y="-231.5" font-family="Helvetica,sans-Serif" font-size="10.00" fill="#000000">iostream</text>
</g>
<!-- Node0&#45;&gt;Node44 -->
<g id="edge70" class="edge">
<title>Node0&#45;&gt;Node44</title>
<path fill="none" stroke="#191970" d="M2403.61,-283.5683C2454.4581,-273.2641 2519.8295,-259.6042 2586.4605,-244.1742"/>
<polygon fill="#191970" stroke="#191970" points="2587.3522,-247.5603 2596.2988,-241.885 2585.7658,-240.7424 2587.3522,-247.5603"/>
</g>
<!-- Node2 -->
<g id="node3" class="node">
<title>Node2</title>
<g id="a_node3"><a xlink:href="../../dd/dc2/BasicOps_8h.html" target="_top" xlink:title="Framework/BasicOps.h">
<polygon fill="none" stroke="#000000" points="605.5,-56.5 605.5,-75.5 733.5,-75.5 733.5,-56.5 605.5,-56.5"/>
<text text-anchor="middle" x="669.5" y="-63.5" font-family="Helvetica,sans-Serif" font-size="10.00" fill="#000000">Framework/BasicOps.h</text>
</a>
</g>
</g>
<!-- Node1&#45;&gt;Node2 -->
<g id="edge2" class="edge">
<title>Node1&#45;&gt;Node2</title>
<path fill="none" stroke="#191970" d="M669.5,-112.2455C669.5,-104.9382 669.5,-94.6944 669.5,-85.7046"/>
<polygon fill="#191970" stroke="#191970" points="673.0001,-85.6426 669.5,-75.6427 666.0001,-85.6427 673.0001,-85.6426"/>
</g>
<!-- Node3 -->
<g id="node4" class="node">
<title>Node3</title>
<polygon fill="none" stroke="#bfbfbf" points="454,-56.5 454,-75.5 587,-75.5 587,-56.5 454,-56.5"/>
<text text-anchor="middle" x="520.5" y="-63.5" font-family="Helvetica,sans-Serif" font-size="10.00" fill="#000000">arrow/compute/kernel.h</text>
</g>
<!-- Node1&#45;&gt;Node3 -->
<g id="edge3" class="edge">
<title>Node1&#45;&gt;Node3</title>
<path fill="none" stroke="#191970" d="M643.886,-112.3733C619.4313,-103.1822 582.3946,-89.2624 555.2791,-79.0713"/>
<polygon fill="#191970" stroke="#191970" points="556.3719,-75.7431 545.7798,-75.5011 553.9091,-82.2956 556.3719,-75.7431"/>
</g>
<!-- Node1&#45;&gt;Node4 -->
<g id="edge4" class="edge">
<title>Node1&#45;&gt;Node4</title>
<path fill="none" stroke="#191970" d="M609.5717,-116.3766C492.1603,-105.3549 239.0365,-81.5699 183.8216,-75.7743"/>
<polygon fill="#191970" stroke="#191970" points="183.9072,-72.2617 173.5767,-74.6135 183.1191,-79.2172 183.9072,-72.2617"/>
</g>
<!-- Node5 -->
<g id="node6" class="node">
<title>Node5</title>
<polygon fill="none" stroke="#bfbfbf" points="319.5,-56.5 319.5,-75.5 435.5,-75.5 435.5,-56.5 319.5,-56.5"/>
<text text-anchor="middle" x="377.5" y="-63.5" font-family="Helvetica,sans-Serif" font-size="10.00" fill="#000000">arrow/util/visibility.h</text>
</g>
<!-- Node1&#45;&gt;Node5 -->
<g id="edge5" class="edge">
<title>Node1&#45;&gt;Node5</title>
<path fill="none" stroke="#191970" d="M619.6352,-112.4369C569.1367,-102.7522 491.0165,-87.7703 437.2395,-77.4569"/>
<polygon fill="#191970" stroke="#191970" points="437.6394,-73.9699 427.1591,-75.5237 436.3209,-80.8446 437.6394,-73.9699"/>
</g>
<!-- Node1&#45;&gt;Node6 -->
<g id="edge6" class="edge">
<title>Node1&#45;&gt;Node6</title>
<path fill="none" stroke="#191970" d="M609.7315,-113.8779C604.9172,-113.2375 600.1277,-112.6049 595.5,-112 472.1182,-95.8712 438.6035,-93.9474 311.7504,-76.1454"/>
<polygon fill="#191970" stroke="#191970" points="312.0332,-72.6508 301.6427,-74.7212 311.0565,-79.5823 312.0332,-72.6508"/>
</g>
<!-- Node7 -->
<g id="node8" class="node">
<title>Node7</title>
<polygon fill="none" stroke="#bfbfbf" points="751.5,-56.5 751.5,-75.5 795.5,-75.5 795.5,-56.5 751.5,-56.5"/>
<text text-anchor="middle" x="773.5" y="-63.5" font-family="Helvetica,sans-Serif" font-size="10.00" fill="#000000">string</text>
</g>
<!-- Node1&#45;&gt;Node7 -->
<g id="edge7" class="edge">
<title>Node1&#45;&gt;Node7</title>
<path fill="none" stroke="#191970" d="M687.6154,-112.2455C703.945,-103.4527 728.171,-90.4079 746.7339,-80.4125"/>
<polygon fill="#191970" stroke="#191970" points="748.4468,-83.4654 755.5922,-75.6427 745.1281,-77.3021 748.4468,-83.4654"/>
</g>
<!-- Node8&#45;&gt;Node7 -->
<g id="edge61" class="edge">
<title>Node8&#45;&gt;Node7</title>
<path fill="none" stroke="#191970" d="M1161.1082,-231.1983C1043.5761,-225.9042 819.6621,-212.6849 793.5,-188 765.6469,-161.7196 766.9033,-112.8118 770.2229,-85.582"/>
<polygon fill="#191970" stroke="#191970" points="773.6883,-86.0727 771.6418,-75.6774 766.759,-85.08 773.6883,-86.0727"/>
</g>
<!-- Node9 -->
<g id="node10" class="node">
<title>Node9</title>
<g id="a_node10"><a xlink:href="../../de/d33/ASoA_8h.html" target="_top" xlink:title="Framework/ASoA.h">
<polygon fill="none" stroke="#000000" points="1328.5,-168.5 1328.5,-187.5 1436.5,-187.5 1436.5,-168.5 1328.5,-168.5"/>
<text text-anchor="middle" x="1382.5" y="-175.5" font-family="Helvetica,sans-Serif" font-size="10.00" fill="#000000">Framework/ASoA.h</text>
</a>
</g>
</g>
<!-- Node8&#45;&gt;Node9 -->
<g id="edge9" class="edge">
<title>Node8&#45;&gt;Node9</title>
<path fill="none" stroke="#191970" d="M1258.2859,-224.3733C1282.9047,-215.1822 1320.19,-201.2624 1347.4875,-191.0713"/>
<polygon fill="#191970" stroke="#191970" points="1348.9063,-194.2777 1357.0506,-187.5011 1346.458,-187.7198 1348.9063,-194.2777"/>
</g>
<!-- Node15 -->
<g id="node16" class="node">
<title>Node15</title>
<g id="a_node16"><a xlink:href="../../de/d9b/FunctionalHelpers_8h.html" target="_top" xlink:title="Framework/FunctionalHelpers.h">
<polygon fill="none" stroke="#000000" points="1968.5,-112.5 1968.5,-131.5 2138.5,-131.5 2138.5,-112.5 1968.5,-112.5"/>
<text text-anchor="middle" x="2053.5" y="-119.5" font-family="Helvetica,sans-Serif" font-size="10.00" fill="#000000">Framework/FunctionalHelpers.h</text>
</a>
</g>
</g>
<!-- Node8&#45;&gt;Node15 -->
<g id="edge51" class="edge">
<title>Node8&#45;&gt;Node15</title>
<path fill="none" stroke="#191970" d="M1302.1438,-224.4993C1453.6892,-203.8256 1812.6302,-154.8592 1973.3091,-132.9396"/>
<polygon fill="#191970" stroke="#191970" points="1974.1666,-136.3551 1983.6017,-131.5355 1973.2203,-129.4193 1974.1666,-136.3551"/>
</g>
<!-- Node16 -->
<g id="node17" class="node">
<title>Node16</title>
<polygon fill="none" stroke="#bfbfbf" points="2322,-56.5 2322,-75.5 2387,-75.5 2387,-56.5 2322,-56.5"/>
<text text-anchor="middle" x="2354.5" y="-63.5" font-family="Helvetica,sans-Serif" font-size="10.00" fill="#000000">functional</text>
</g>
<!-- Node8&#45;&gt;Node16 -->
<g id="edge59" class="edge">
<title>Node8&#45;&gt;Node16</title>
<path fill="none" stroke="#191970" d="M1303.6306,-231.2933C1460.8592,-225.0173 1833.8701,-208.437 1958.5,-188 2053.3981,-172.4385 2075.645,-160.4687 2167.5,-132 2221.2333,-115.3464 2282.5562,-93.0639 2319.8896,-79.1226"/>
<polygon fill="#191970" stroke="#191970" points="2321.1655,-82.3822 2329.3008,-75.595 2318.7085,-75.8276 2321.1655,-82.3822"/>
</g>
<!-- Node25 -->
<g id="node26" class="node">
<title>Node25</title>
<polygon fill="none" stroke="#bfbfbf" points="2126,-56.5 2126,-75.5 2207,-75.5 2207,-56.5 2126,-56.5"/>
<text text-anchor="middle" x="2166.5" y="-63.5" font-family="Helvetica,sans-Serif" font-size="10.00" fill="#000000">arrow/table.h</text>
</g>
<!-- Node8&#45;&gt;Node25 -->
<g id="edge57" class="edge">
<title>Node8&#45;&gt;Node25</title>
<path fill="none" stroke="#191970" d="M1303.5776,-230.5897C1507.3901,-220.1922 2083.3518,-186.2542 2147.5,-132 2160.7038,-120.8327 2165.0451,-101.1356 2166.3278,-86.1576"/>
<polygon fill="#191970" stroke="#191970" points="2169.839,-85.9954 2166.8086,-75.8432 2162.8466,-85.6694 2169.839,-85.9954"/>
</g>
<!-- Node8&#45;&gt;Node30 -->
<g id="edge62" class="edge">
<title>Node8&#45;&gt;Node30</title>
<path fill="none" stroke="#191970" d="M1303.576,-231.8909C1470.2022,-226.6147 1882.2052,-211.5539 2018.5,-188 2106.0905,-172.8629 2125.2009,-157.0058 2210.5,-132 2275.2871,-113.0074 2350.572,-90.7962 2395.2823,-77.5906"/>
<polygon fill="#191970" stroke="#191970" points="2396.5557,-80.864 2405.1545,-74.6743 2394.5726,-74.1508 2396.5557,-80.864"/>
</g>
<!-- Node35 -->
<g id="node36" class="node">
<title>Node35</title>
<g id="a_node36"><a xlink:href="../../db/d4f/StructToTuple_8h.html" target="_top" xlink:title="Framework/StructToTuple.h">
<polygon fill="none" stroke="#000000" points="396,-168.5 396,-187.5 543,-187.5 543,-168.5 396,-168.5"/>
<text text-anchor="middle" x="469.5" y="-175.5" font-family="Helvetica,sans-Serif" font-size="10.00" fill="#000000">Framework/StructToTuple.h</text>
</a>
</g>
</g>
<!-- Node8&#45;&gt;Node35 -->
<g id="edge47" class="edge">
<title>Node8&#45;&gt;Node35</title>
<path fill="none" stroke="#191970" d="M1161.404,-228.7819C1020.0926,-218.4105 704.5308,-195.25 553.3657,-184.1553"/>
<polygon fill="#191970" stroke="#191970" points="553.4396,-180.6514 543.2102,-183.4099 552.9271,-187.6326 553.4396,-180.6514"/>
</g>
<!-- Node36 -->
<g id="node37" class="node">
<title>Node36</title>
<polygon fill="none" stroke="#bfbfbf" points="385,-112.5 385,-131.5 426,-131.5 426,-112.5 385,-112.5"/>
<text text-anchor="middle" x="405.5" y="-119.5" font-family="Helvetica,sans-Serif" font-size="10.00" fill="#000000">tuple</text>
</g>
<!-- Node8&#45;&gt;Node36 -->
<g id="edge63" class="edge">
<title>Node8&#45;&gt;Node36</title>
<path fill="none" stroke="#191970" d="M1161.1452,-228.677C1068.5495,-221.396 902.0736,-207.0326 760.5,-188 618.0723,-168.8526 578.658,-168.5311 436.267,-132.1823"/>
<polygon fill="#191970" stroke="#191970" points="436.8426,-128.7166 426.2863,-129.619 435.1013,-135.4966 436.8426,-128.7166"/>
</g>
<!-- Node37 -->
<g id="node38" class="node">
<title>Node37</title>
<g id="a_node38"><a xlink:href="../../d7/dbe/VariantHelpers_8h.html" target="_top" xlink:title="Framework/VariantHelpers.h">
<polygon fill="none" stroke="#000000" points="1155,-168.5 1155,-187.5 1310,-187.5 1310,-168.5 1155,-168.5"/>
<text text-anchor="middle" x="1232.5" y="-175.5" font-family="Helvetica,sans-Serif" font-size="10.00" fill="#000000">Framework/VariantHelpers.h</text>
</a>
</g>
</g>
<!-- Node8&#45;&gt;Node37 -->
<g id="edge52" class="edge">
<title>Node8&#45;&gt;Node37</title>
<path fill="none" stroke="#191970" d="M1232.5,-224.2455C1232.5,-216.9382 1232.5,-206.6944 1232.5,-197.7046"/>
<polygon fill="#191970" stroke="#191970" points="1236.0001,-197.6426 1232.5,-187.6427 1229.0001,-197.6427 1236.0001,-197.6426"/>
</g>
<!-- Node38 -->
<g id="node39" class="node">
<title>Node38</title>
<polygon fill="none" stroke="#bfbfbf" points="802.5,-168.5 802.5,-187.5 858.5,-187.5 858.5,-168.5 802.5,-168.5"/>
<text text-anchor="middle" x="830.5" y="-175.5" font-family="Helvetica,sans-Serif" font-size="10.00" fill="#000000">sstream</text>
</g>
<!-- Node8&#45;&gt;Node38 -->
<g id="edge54" class="edge">
<title>Node8&#45;&gt;Node38</title>
<path fill="none" stroke="#191970" d="M1161.38,-227.9798C1089.7158,-221.2483 975.8512,-208.7396 868.701,-188.0152"/>
<polygon fill="#191970" stroke="#191970" points="869.1737,-184.5413 858.6869,-186.0501 867.8258,-191.4103 869.1737,-184.5413"/>
</g>
<!-- Node39 -->
<g id="node40" class="node">
<title>Node39</title>
<polygon fill="none" stroke="#bfbfbf" points="876.5,-168.5 876.5,-187.5 944.5,-187.5 944.5,-168.5 876.5,-168.5"/>
<text text-anchor="middle" x="910.5" y="-175.5" font-family="Helvetica,sans-Serif" font-size="10.00" fill="#000000">arrow/stl.h</text>
</g>
<!-- Node8&#45;&gt;Node39 -->
<g id="edge55" class="edge">
<title>Node8&#45;&gt;Node39</title>
<path fill="none" stroke="#191970" d="M1168.2631,-224.4808C1111.792,-215.8481 1027.4676,-202.3155 954.5,-188 954.3991,-187.9802 954.2981,-187.9604 954.197,-187.9404"/>
<polygon fill="#191970" stroke="#191970" points="955.0683,-184.5466 944.5673,-185.9529 953.6534,-191.4021 955.0683,-184.5466"/>
</g>
<!-- Node40 -->
<g id="node41" class="node">
<title>Node40</title>
<polygon fill="none" stroke="#bfbfbf" points="963,-168.5 963,-187.5 1072,-187.5 1072,-168.5 963,-168.5"/>
<text text-anchor="middle" x="1017.5" y="-175.5" font-family="Helvetica,sans-Serif" font-size="10.00" fill="#000000">arrow/type_traits.h</text>
</g>
<!-- Node8&#45;&gt;Node40 -->
<g id="edge56" class="edge">
<title>Node8&#45;&gt;Node40</title>
<path fill="none" stroke="#191970" d="M1195.5402,-224.3733C1159.0925,-214.8799 1103.2754,-200.3415 1063.8711,-190.0781"/>
<polygon fill="#191970" stroke="#191970" points="1064.5369,-186.6348 1053.9775,-187.5011 1062.7724,-193.4087 1064.5369,-186.6348"/>
</g>
<!-- Node8&#45;&gt;Node41 -->
<g id="edge58" class="edge">
<title>Node8&#45;&gt;Node41</title>
<path fill="none" stroke="#191970" d="M1303.5941,-231.9469C1504.0559,-225.9764 2071.2546,-207.7837 2256.5,-188 2257.8074,-187.8604 2259.1298,-187.7101 2260.4624,-187.5506"/>
<polygon fill="#191970" stroke="#191970" points="2261.3535,-190.9628 2270.8023,-186.1699 2260.427,-184.0243 2261.3535,-190.9628"/>
</g>
<!-- Node42 -->
<g id="node43" class="node">
<title>Node42</title>
<polygon fill="none" stroke="#bfbfbf" points="1090,-168.5 1090,-187.5 1137,-187.5 1137,-168.5 1090,-168.5"/>
<text text-anchor="middle" x="1113.5" y="-175.5" font-family="Helvetica,sans-Serif" font-size="10.00" fill="#000000">vector</text>
</g>
<!-- Node8&#45;&gt;Node42 -->
<g id="edge60" class="edge">
<title>Node8&#45;&gt;Node42</title>
<path fill="none" stroke="#191970" d="M1212.0432,-224.3733C1193.0262,-215.4241 1164.4825,-201.9917 1143.0024,-191.8835"/>
<polygon fill="#191970" stroke="#191970" points="1144.2284,-188.5923 1133.6899,-187.5011 1141.2478,-194.926 1144.2284,-188.5923"/>
</g>
<!-- Node9&#45;&gt;Node1 -->
<g id="edge37" class="edge">
<title>Node9&#45;&gt;Node1</title>
<path fill="none" stroke="#191970" d="M1328.2448,-169.0819C1325.2901,-168.6919 1322.3607,-168.3276 1319.5,-168 1108.9946,-143.8906 858.5922,-130.437 739.3432,-124.952"/>
<polygon fill="#191970" stroke="#191970" points="739.4038,-121.4512 729.2549,-124.4926 739.0853,-128.4439 739.4038,-121.4512"/>
</g>
<!-- Node9&#45;&gt;Node3 -->
<g id="edge44" class="edge">
<title>Node9&#45;&gt;Node3</title>
<path fill="none" stroke="#191970" d="M1328.2199,-169.2752C1325.2716,-168.8353 1322.3504,-168.4075 1319.5,-168 1241.9174,-156.9092 712.5668,-90.8535 597.3286,-76.0958"/>
<polygon fill="#191970" stroke="#191970" points="597.5909,-72.6008 587.226,-74.7961 596.6976,-79.5435 597.5909,-72.6008"/>
</g>
<!-- Node9&#45;&gt;Node6 -->
<g id="edge42" class="edge">
<title>Node9&#45;&gt;Node6</title>
<path fill="none" stroke="#191970" d="M1328.2526,-169.0107C1325.2959,-168.639 1322.3639,-168.2982 1319.5,-168 1160.6032,-151.4539 755.8052,-173.3749 601.5,-132 582.685,-126.955 581.0637,-117.903 562.5,-112 457.7361,-78.6866 424.2823,-91.9222 311.7002,-76.1217"/>
<polygon fill="#191970" stroke="#191970" points="312.0498,-72.6359 301.651,-74.6643 311.0451,-79.5634 312.0498,-72.6359"/>
</g>
<!-- Node10 -->
<g id="node11" class="node">
<title>Node10</title>
<g id="a_node11"><a xlink:href="../../dd/dce/Pack_8h.html" target="_top" xlink:title="Framework/Pack.h">
<polygon fill="none" stroke="#000000" points="2003,-56.5 2003,-75.5 2108,-75.5 2108,-56.5 2003,-56.5"/>
<text text-anchor="middle" x="2055.5" y="-63.5" font-family="Helvetica,sans-Serif" font-size="10.00" fill="#000000">Framework/Pack.h</text>
</a>
</g>
</g>
<!-- Node9&#45;&gt;Node10 -->
<g id="edge10" class="edge">
<title>Node9&#45;&gt;Node10</title>
<path fill="none" stroke="#191970" d="M1382.0999,-168.0457C1382.1065,-153.204 1384.5655,-125.5705 1401.5,-112 1451.0494,-72.2934 1893.2664,-82.4653 1992.8081,-75.8305"/>
<polygon fill="#191970" stroke="#191970" points="1993.31,-79.3004 2002.9745,-74.9593 1992.7122,-72.326 1993.31,-79.3004"/>
</g>
<!-- Node14 -->
<g id="node15" class="node">
<title>Node14</title>
<g id="a_node15"><a xlink:href="../../d1/d00/CheckTypes_8h.html" target="_top" xlink:title="Framework/CheckTypes.h">
<polygon fill="none" stroke="#000000" points="995.5,-56.5 995.5,-75.5 1135.5,-75.5 1135.5,-56.5 995.5,-56.5"/>
<text text-anchor="middle" x="1065.5" y="-63.5" font-family="Helvetica,sans-Serif" font-size="10.00" fill="#000000">Framework/CheckTypes.h</text>
</a>
</g>
</g>
<!-- Node9&#45;&gt;Node14 -->
<g id="edge14" class="edge">
<title>Node9&#45;&gt;Node14</title>
<path fill="none" stroke="#191970" d="M1328.1168,-168.7744C1274.0542,-159.1827 1195.1729,-143.9311 1166.5,-132 1135.9774,-119.2992 1104.7009,-97.1728 1085.2014,-82.0704"/>
<polygon fill="#191970" stroke="#191970" points="1087.1329,-79.1359 1077.1159,-75.6848 1082.7944,-84.6294 1087.1329,-79.1359"/>
</g>
<!-- Node9&#45;&gt;Node15 -->
<g id="edge15" class="edge">
<title>Node9&#45;&gt;Node15</title>
<path fill="none" stroke="#191970" d="M1436.6349,-174.1638C1537.1831,-166.9339 1759.8338,-150.4334 1958.4195,-132.0801"/>
<polygon fill="#191970" stroke="#191970" points="1958.8218,-135.5579 1968.4557,-131.1491 1958.1751,-128.5878 1958.8218,-135.5579"/>
</g>
<!-- Node17 -->
<g id="node18" class="node">
<title>Node17</title>
<g id="a_node18"><a xlink:href="../../d9/de8/CompilerBuiltins_8h.html" target="_top" xlink:title="Framework/CompilerBuiltins.h">
<polygon fill="none" stroke="#000000" points="813.5,-56.5 813.5,-75.5 977.5,-75.5 977.5,-56.5 813.5,-56.5"/>
<text text-anchor="middle" x="895.5" y="-63.5" font-family="Helvetica,sans-Serif" font-size="10.00" fill="#000000">Framework/CompilerBuiltins.h</text>
</a>
</g>
</g>
<!-- Node9&#45;&gt;Node17 -->
<g id="edge18" class="edge">
<title>Node9&#45;&gt;Node17</title>
<path fill="none" stroke="#191970" d="M1328.3788,-169.0826C1264.3152,-158.4048 1161.5296,-140.8552 1123.5,-132 1056.337,-116.3612 979.5553,-92.9659 934.4293,-78.6374"/>
<polygon fill="#191970" stroke="#191970" points="935.3424,-75.2549 924.7517,-75.5492 933.2144,-81.9236 935.3424,-75.2549"/>
</g>
<!-- Node18 -->
<g id="node19" class="node">
<title>Node18</title>
<g id="a_node19"><a xlink:href="../../db/d31/Traits_8h.html" target="_top" xlink:title="Framework/Traits.h">
<polygon fill="none" stroke="#000000" points="444,-112.5 444,-131.5 553,-131.5 553,-112.5 444,-112.5"/>
<text text-anchor="middle" x="498.5" y="-119.5" font-family="Helvetica,sans-Serif" font-size="10.00" fill="#000000">Framework/Traits.h</text>
</a>
</g>
</g>
<!-- Node9&#45;&gt;Node18 -->
<g id="edge19" class="edge">
<title>Node9&#45;&gt;Node18</title>
<path fill="none" stroke="#191970" d="M1328.2534,-169.0028C1325.2965,-168.6332 1322.3642,-168.295 1319.5,-168 986.6555,-133.721 900.5681,-164.033 567.5,-132 566.0316,-131.8588 564.5466,-131.7083 563.0499,-131.5499"/>
<polygon fill="#191970" stroke="#191970" points="563.3892,-128.0659 553.0547,-130.4003 562.5893,-135.0201 563.3892,-128.0659"/>
</g>
<!-- Node20 -->
<g id="node21" class="node">
<title>Node20</title>
<g id="a_node21"><a xlink:href="../../d0/d91/Expressions_8h.html" target="_top" xlink:title="Framework/Expressions.h">
<polygon fill="none" stroke="#000000" points="1175,-112.5 1175,-131.5 1316,-131.5 1316,-112.5 1175,-112.5"/>
<text text-anchor="middle" x="1245.5" y="-119.5" font-family="Helvetica,sans-Serif" font-size="10.00" fill="#000000">Framework/Expressions.h</text>
</a>
</g>
</g>
<!-- Node9&#45;&gt;Node20 -->
<g id="edge21" class="edge">
<title>Node9&#45;&gt;Node20</title>
<path fill="none" stroke="#191970" d="M1358.9489,-168.3733C1336.6609,-159.2629 1303.0063,-145.5062 1278.1363,-135.3404"/>
<polygon fill="#191970" stroke="#191970" points="1279.3247,-132.0451 1268.7438,-131.5011 1276.6761,-138.5247 1279.3247,-132.0451"/>
</g>
<!-- Node9&#45;&gt;Node25 -->
<g id="edge40" class="edge">
<title>Node9&#45;&gt;Node25</title>
<path fill="none" stroke="#191970" d="M1436.789,-173.1043C1519.8996,-165.2142 1674.6049,-148.8572 1727.5,-132 1745.6842,-126.2049 1747.2292,-117.5159 1765.5,-112 1912.9619,-67.4814 1960.1131,-98.4235 2115.9787,-76.0811"/>
<polygon fill="#191970" stroke="#191970" points="2116.536,-79.5368 2125.9137,-74.6065 2115.5082,-72.6127 2116.536,-79.5368"/>
</g>
<!-- Node26 -->
<g id="node27" class="node">
<title>Node26</title>
<polygon fill="none" stroke="#bfbfbf" points="1838,-56.5 1838,-75.5 1985,-75.5 1985,-56.5 1838,-56.5"/>
<text text-anchor="middle" x="1911.5" y="-63.5" font-family="Helvetica,sans-Serif" font-size="10.00" fill="#000000">gandiva/selection_vector.h</text>
</g>
<!-- Node9&#45;&gt;Node26 -->
<g id="edge45" class="edge">
<title>Node9&#45;&gt;Node26</title>
<path fill="none" stroke="#191970" d="M1375.7456,-168.0956C1366.921,-153.8195 1354.1835,-127.478 1368.5,-112 1401.7857,-76.0136 1744.6703,-80.578 1827.6516,-75.892"/>
<polygon fill="#191970" stroke="#191970" points="1828.0444,-79.3726 1837.7596,-75.146 1827.529,-72.3916 1828.0444,-79.3726"/>
</g>
<!-- Node31 -->
<g id="node32" class="node">
<title>Node31</title>
<g id="a_node32"><a xlink:href="../../d1/dc1/ArrowCompatibility_8h.html" target="_top" xlink:title="Framework/ArrowCompatibility.h">
<polygon fill="none" stroke="#000000" points="1774.5,-112.5 1774.5,-131.5 1950.5,-131.5 1950.5,-112.5 1774.5,-112.5"/>
<text text-anchor="middle" x="1862.5" y="-119.5" font-family="Helvetica,sans-Serif" font-size="10.00" fill="#000000">Framework/ArrowCompatibility.h</text>
</a>
</g>
</g>
<!-- Node9&#45;&gt;Node31 -->
<g id="edge38" class="edge">
<title>Node9&#45;&gt;Node31</title>
<path fill="none" stroke="#191970" d="M1436.629,-171.6849C1517.815,-162.2132 1672.1165,-144.2114 1771.0036,-132.6746"/>
<polygon fill="#191970" stroke="#191970" points="1771.4637,-136.1447 1780.9907,-131.5094 1770.6524,-129.1919 1771.4637,-136.1447"/>
</g>
<!-- Node32 -->
<g id="node33" class="node">
<title>Node32</title>
<polygon fill="none" stroke="#bfbfbf" points="1410.5,-112.5 1410.5,-131.5 1490.5,-131.5 1490.5,-112.5 1410.5,-112.5"/>
<text text-anchor="middle" x="1450.5" y="-119.5" font-family="Helvetica,sans-Serif" font-size="10.00" fill="#000000">arrow/array.h</text>
</g>
<!-- Node9&#45;&gt;Node32 -->
<g id="edge41" class="edge">
<title>Node9&#45;&gt;Node32</title>
<path fill="none" stroke="#191970" d="M1394.3447,-168.2455C1404.388,-159.9746 1418.9995,-147.9416 1430.8004,-138.2232"/>
<polygon fill="#191970" stroke="#191970" points="1433.2967,-140.7015 1438.791,-131.6427 1428.8467,-135.298 1433.2967,-140.7015"/>
</g>
<!-- Node33 -->
<g id="node34" class="node">
<title>Node33</title>
<polygon fill="none" stroke="#bfbfbf" points="1509,-112.5 1509,-131.5 1648,-131.5 1648,-112.5 1509,-112.5"/>
<text text-anchor="middle" x="1578.5" y="-119.5" font-family="Helvetica,sans-Serif" font-size="10.00" fill="#000000">arrow/compute/context.h</text>
</g>
<!-- Node9&#45;&gt;Node33 -->
<g id="edge43" class="edge">
<title>Node9&#45;&gt;Node33</title>
<path fill="none" stroke="#191970" d="M1416.1936,-168.3733C1449.2087,-158.9404 1499.6573,-144.5265 1535.5386,-134.2747"/>
<polygon fill="#191970" stroke="#191970" points="1536.5924,-137.6137 1545.2461,-131.5011 1534.6693,-130.8831 1536.5924,-137.6137"/>
</g>
<!-- Node34 -->
<g id="node35" class="node">
<title>Node34</title>
<polygon fill="none" stroke="#bfbfbf" points="1666.5,-112.5 1666.5,-131.5 1718.5,-131.5 1718.5,-112.5 1666.5,-112.5"/>
<text text-anchor="middle" x="1692.5" y="-119.5" font-family="Helvetica,sans-Serif" font-size="10.00" fill="#000000">cassert</text>
</g>
<!-- Node9&#45;&gt;Node34 -->
<g id="edge46" class="edge">
<title>Node9&#45;&gt;Node34</title>
<path fill="none" stroke="#191970" d="M1436.5974,-170.7873C1490.1328,-163.2377 1574.5633,-150.2278 1656.2611,-132.0922"/>
<polygon fill="#191970" stroke="#191970" points="1657.2201,-135.4641 1666.2085,-129.8552 1655.6842,-128.6346 1657.2201,-135.4641"/>
</g>
<!-- Node11 -->
<g id="node12" class="node">
<title>Node11</title>
<polygon fill="none" stroke="#bfbfbf" points="1962,-.5 1962,-19.5 2015,-19.5 2015,-.5 1962,-.5"/>
<text text-anchor="middle" x="1988.5" y="-7.5" font-family="Helvetica,sans-Serif" font-size="10.00" fill="#000000">cstddef</text>
</g>
<!-- Node10&#45;&gt;Node11 -->
<g id="edge11" class="edge">
<title>Node10&#45;&gt;Node11</title>
<path fill="none" stroke="#191970" d="M2043.8295,-56.2455C2033.9339,-47.9746 2019.5373,-35.9416 2007.9099,-26.2232"/>
<polygon fill="#191970" stroke="#191970" points="2009.9542,-23.3703 2000.0368,-19.6427 2005.465,-28.7413 2009.9542,-23.3703"/>
</g>
<!-- Node12 -->
<g id="node13" class="node">
<title>Node12</title>
<polygon fill="none" stroke="#bfbfbf" points="2033,-.5 2033,-19.5 2078,-19.5 2078,-.5 2033,-.5"/>
<text text-anchor="middle" x="2055.5" y="-7.5" font-family="Helvetica,sans-Serif" font-size="10.00" fill="#000000">utility</text>
</g>
<!-- Node10&#45;&gt;Node12 -->
<g id="edge12" class="edge">
<title>Node10&#45;&gt;Node12</title>
<path fill="none" stroke="#191970" d="M2055.5,-56.2455C2055.5,-48.9382 2055.5,-38.6944 2055.5,-29.7046"/>
<polygon fill="#191970" stroke="#191970" points="2059.0001,-29.6426 2055.5,-19.6427 2052.0001,-29.6427 2059.0001,-29.6426"/>
</g>
<!-- Node13 -->
<g id="node14" class="node">
<title>Node13</title>
<polygon fill="none" stroke="#bfbfbf" points="2096.5,-.5 2096.5,-19.5 2142.5,-19.5 2142.5,-.5 2096.5,-.5"/>
<text text-anchor="middle" x="2119.5" y="-7.5" font-family="Helvetica,sans-Serif" font-size="10.00" fill="#000000">cstdio</text>
</g>
<!-- Node10&#45;&gt;Node13 -->
<g id="edge13" class="edge">
<title>Node10&#45;&gt;Node13</title>
<path fill="none" stroke="#191970" d="M2066.6479,-56.2455C2076.0087,-48.0549 2089.5858,-36.1749 2100.6349,-26.5069"/>
<polygon fill="#191970" stroke="#191970" points="2103.2588,-28.8618 2108.4798,-19.6427 2098.6492,-23.5937 2103.2588,-28.8618"/>
</g>
<!-- Node15&#45;&gt;Node10 -->
<g id="edge16" class="edge">
<title>Node15&#45;&gt;Node10</title>
<path fill="none" stroke="#191970" d="M2053.8484,-112.2455C2054.1093,-104.9382 2054.4752,-94.6944 2054.7963,-85.7046"/>
<polygon fill="#191970" stroke="#191970" points="2058.2964,-85.7613 2055.1556,-75.6427 2051.3008,-85.5113 2058.2964,-85.7613"/>
</g>
<!-- Node15&#45;&gt;Node16 -->
<g id="edge17" class="edge">
<title>Node15&#45;&gt;Node16</title>
<path fill="none" stroke="#191970" d="M2112.8351,-112.467C2163.1915,-104.1477 2237.5814,-91.3218 2311.9654,-76.0154"/>
<polygon fill="#191970" stroke="#191970" points="2312.9009,-79.396 2321.9823,-73.9389 2311.48,-72.5417 2312.9009,-79.396"/>
</g>
<!-- Node19 -->
<g id="node20" class="node">
<title>Node19</title>
<polygon fill="none" stroke="#bfbfbf" points="0,-56.5 0,-75.5 69,-75.5 69,-56.5 0,-56.5"/>
<text text-anchor="middle" x="34.5" y="-63.5" font-family="Helvetica,sans-Serif" font-size="10.00" fill="#000000">type_traits</text>
</g>
<!-- Node18&#45;&gt;Node19 -->
<g id="edge20" class="edge">
<title>Node18&#45;&gt;Node19</title>
<path fill="none" stroke="#191970" d="M443.7151,-113.2399C440.5999,-112.8041 437.5116,-112.3873 434.5,-112 280.0043,-92.1333 237.1876,-101.2749 79.0924,-75.9032"/>
<polygon fill="#191970" stroke="#191970" points="79.4406,-72.4139 69.0085,-74.2636 78.3171,-79.3232 79.4406,-72.4139"/>
</g>
<!-- Node20&#45;&gt;Node2 -->
<g id="edge22" class="edge">
<title>Node20&#45;&gt;Node2</title>
<path fill="none" stroke="#191970" d="M1174.5917,-116.5257C1079.107,-108.9283 903.6574,-94.1759 743.6056,-76.0838"/>
<polygon fill="#191970" stroke="#191970" points="743.9051,-72.5954 733.5736,-74.943 743.1141,-79.5505 743.9051,-72.5954"/>
</g>
<!-- Node20&#45;&gt;Node7 -->
<g id="edge35" class="edge">
<title>Node20&#45;&gt;Node7</title>
<path fill="none" stroke="#191970" d="M1174.9129,-119.1635C1089.3838,-114.7187 940.952,-103.7725 805.8201,-75.8977"/>
<polygon fill="#191970" stroke="#191970" points="806.2071,-72.4027 795.7012,-73.7731 804.7686,-79.2534 806.2071,-72.4027"/>
</g>
<!-- Node20&#45;&gt;Node10 -->
<g id="edge24" class="edge">
<title>Node20&#45;&gt;Node10</title>
<path fill="none" stroke="#191970" d="M1316.0505,-115.9757C1333.208,-114.5903 1351.5083,-113.1791 1368.5,-112 1643.2553,-92.9335 1715.8092,-106.2634 1993.0272,-76.0628"/>
<polygon fill="#191970" stroke="#191970" points="1993.4177,-79.5411 2002.9757,-74.97 1992.6533,-72.5829 1993.4177,-79.5411"/>
</g>
<!-- Node20&#45;&gt;Node14 -->
<g id="edge25" class="edge">
<title>Node20&#45;&gt;Node14</title>
<path fill="none" stroke="#191970" d="M1214.5569,-112.3733C1184.4961,-103.021 1138.6974,-88.7725 1105.8022,-78.5385"/>
<polygon fill="#191970" stroke="#191970" points="1106.6277,-75.1299 1096.0393,-75.5011 1104.5481,-81.8139 1106.6277,-75.1299"/>
</g>
<!-- Node20&#45;&gt;Node17 -->
<g id="edge23" class="edge">
<title>Node20&#45;&gt;Node17</title>
<path fill="none" stroke="#191970" d="M1185.7305,-112.4369C1124.5723,-102.6516 1029.614,-87.4582 965.105,-77.1368"/>
<polygon fill="#191970" stroke="#191970" points="965.4503,-73.6476 955.0229,-75.5237 964.3444,-80.5597 965.4503,-73.6476"/>
</g>
<!-- Node21 -->
<g id="node22" class="node">
<title>Node21</title>
<polygon fill="none" stroke="#bfbfbf" points="1223,-56.5 1223,-75.5 1324,-75.5 1324,-56.5 1223,-56.5"/>
<text text-anchor="middle" x="1273.5" y="-63.5" font-family="Helvetica,sans-Serif" font-size="10.00" fill="#000000">arrow/type_fwd.h</text>
</g>
<!-- Node20&#45;&gt;Node21 -->
<g id="edge26" class="edge">
<title>Node20&#45;&gt;Node21</title>
<path fill="none" stroke="#191970" d="M1250.3772,-112.2455C1254.1513,-104.6973 1259.4921,-94.0158 1264.0901,-84.8197"/>
<polygon fill="#191970" stroke="#191970" points="1267.337,-86.1522 1268.6787,-75.6427 1261.076,-83.0217 1267.337,-86.1522"/>
</g>
<!-- Node22 -->
<g id="node23" class="node">
<title>Node22</title>
<polygon fill="none" stroke="#bfbfbf" points="1342.5,-56.5 1342.5,-75.5 1488.5,-75.5 1488.5,-56.5 1342.5,-56.5"/>
<text text-anchor="middle" x="1415.5" y="-63.5" font-family="Helvetica,sans-Serif" font-size="10.00" fill="#000000">gandiva/gandiva_aliases.h</text>
</g>
<!-- Node20&#45;&gt;Node22 -->
<g id="edge27" class="edge">
<title>Node20&#45;&gt;Node22</title>
<path fill="none" stroke="#191970" d="M1274.724,-112.3733C1302.9925,-103.0613 1345.9965,-88.8953 1377.0344,-78.671"/>
<polygon fill="#191970" stroke="#191970" points="1378.2544,-81.9542 1386.6573,-75.5011 1376.0643,-75.3056 1378.2544,-81.9542"/>
</g>
<!-- Node20&#45;&gt;Node23 -->
<g id="edge28" class="edge">
<title>Node20&#45;&gt;Node23</title>
<path fill="none" stroke="#191970" d="M1316.1508,-117.1729C1342.8828,-115.4248 1373.5878,-113.5109 1401.5,-112 1760.1866,-92.5836 1854.9907,-120.5923 2215.1069,-75.9777"/>
<polygon fill="#191970" stroke="#191970" points="2215.8048,-79.4178 2225.2937,-74.7051 2214.937,-72.4718 2215.8048,-79.4178"/>
</g>
<!-- Node24 -->
<g id="node25" class="node">
<title>Node24</title>
<polygon fill="none" stroke="#bfbfbf" points="1507,-56.5 1507,-75.5 1602,-75.5 1602,-56.5 1507,-56.5"/>
<text text-anchor="middle" x="1554.5" y="-63.5" font-family="Helvetica,sans-Serif" font-size="10.00" fill="#000000">gandiva/arrow.h</text>
</g>
<!-- Node20&#45;&gt;Node24 -->
<g id="edge29" class="edge">
<title>Node20&#45;&gt;Node24</title>
<path fill="none" stroke="#191970" d="M1298.2679,-112.4369C1353.4733,-102.432 1439.8736,-86.7737 1496.8411,-76.4495"/>
<polygon fill="#191970" stroke="#191970" points="1497.5553,-79.8772 1506.7709,-74.6499 1496.307,-72.9894 1497.5553,-79.8772"/>
</g>
<!-- Node20&#45;&gt;Node25 -->
<g id="edge30" class="edge">
<title>Node20&#45;&gt;Node25</title>
<path fill="none" stroke="#191970" d="M1316.1559,-117.264C1342.8885,-115.5265 1373.5925,-113.596 1401.5,-112 1716.1873,-94.0036 1799.6083,-115.4986 2115.5611,-76.0757"/>
<polygon fill="#191970" stroke="#191970" points="2116.4519,-79.4913 2125.9365,-74.7698 2115.5777,-72.5461 2116.4519,-79.4913"/>
</g>
<!-- Node20&#45;&gt;Node26 -->
<g id="edge31" class="edge">
<title>Node20&#45;&gt;Node26</title>
<path fill="none" stroke="#191970" d="M1316.4358,-113.4123C1321.1929,-112.9112 1325.9144,-112.4349 1330.5,-112 1548.6181,-91.3121 1606.4988,-97.2816 1827.7832,-76.1281"/>
<polygon fill="#191970" stroke="#191970" points="1828.1435,-79.6097 1837.7616,-75.1666 1827.472,-72.642 1828.1435,-79.6097"/>
</g>
<!-- Node27 -->
<g id="node28" class="node">
<title>Node27</title>
<polygon fill="none" stroke="#bfbfbf" points="1620.5,-56.5 1620.5,-75.5 1712.5,-75.5 1712.5,-56.5 1620.5,-56.5"/>
<text text-anchor="middle" x="1666.5" y="-63.5" font-family="Helvetica,sans-Serif" font-size="10.00" fill="#000000">gandiva/node.h</text>
</g>
<!-- Node20&#45;&gt;Node27 -->
<g id="edge32" class="edge">
<title>Node20&#45;&gt;Node27</title>
<path fill="none" stroke="#191970" d="M1316.3735,-113.5617C1401.8892,-103.3023 1541.7673,-86.2532 1610.3379,-76.0946"/>
<polygon fill="#191970" stroke="#191970" points="1610.9527,-79.5416 1620.3174,-74.5865 1609.9066,-72.6201 1610.9527,-79.5416"/>
</g>
<!-- Node28 -->
<g id="node29" class="node">
<title>Node28</title>
<polygon fill="none" stroke="#bfbfbf" points="1731,-56.5 1731,-75.5 1820,-75.5 1820,-56.5 1731,-56.5"/>
<text text-anchor="middle" x="1775.5" y="-63.5" font-family="Helvetica,sans-Serif" font-size="10.00" fill="#000000">gandiva/filter.h</text>
</g>
<!-- Node20&#45;&gt;Node28 -->
<g id="edge33" class="edge">
<title>Node20&#45;&gt;Node28</title>
<path fill="none" stroke="#191970" d="M1316.4463,-113.5174C1321.2009,-112.9909 1325.9189,-112.4803 1330.5,-112 1500.8411,-94.141 1546.9349,-99.695 1720.7643,-75.9864"/>
<polygon fill="#191970" stroke="#191970" points="1721.3328,-79.4413 1730.762,-74.61 1720.3781,-72.5067 1721.3328,-79.4413"/>
</g>
<!-- Node29 -->
<g id="node30" class="node">
<title>Node29</title>
<polygon fill="none" stroke="#bfbfbf" points="1154,-56.5 1154,-75.5 1205,-75.5 1205,-56.5 1154,-56.5"/>
<text text-anchor="middle" x="1179.5" y="-63.5" font-family="Helvetica,sans-Serif" font-size="10.00" fill="#000000">variant</text>
</g>
<!-- Node20&#45;&gt;Node29 -->
<g id="edge34" class="edge">
<title>Node20&#45;&gt;Node29</title>
<path fill="none" stroke="#191970" d="M1234.0037,-112.2455C1224.2558,-103.9746 1210.0741,-91.9416 1198.6202,-82.2232"/>
<polygon fill="#191970" stroke="#191970" points="1200.7541,-79.4437 1190.8646,-75.6427 1196.2253,-84.7813 1200.7541,-79.4437"/>
</g>
<!-- Node20&#45;&gt;Node30 -->
<g id="edge36" class="edge">
<title>Node20&#45;&gt;Node30</title>
<path fill="none" stroke="#191970" d="M1316.1446,-117.0535C1342.8759,-115.2917 1373.582,-113.3996 1401.5,-112 1840.1117,-90.0115 1956.9806,-139.9376 2395.0952,-75.8879"/>
<polygon fill="#191970" stroke="#191970" points="2395.7919,-79.3231 2405.1748,-74.4026 2394.7713,-72.3979 2395.7919,-79.3231"/>
</g>
<!-- Node31&#45;&gt;Node25 -->
<g id="edge39" class="edge">
<title>Node31&#45;&gt;Node25</title>
<path fill="none" stroke="#191970" d="M1917.2843,-112.4902C1966.7476,-103.8195 2041.7939,-90.4558 2115.8988,-76.2798"/>
<polygon fill="#191970" stroke="#191970" points="2116.7111,-79.6878 2125.8722,-74.3658 2115.3918,-72.8133 2116.7111,-79.6878"/>
</g>
<!-- Node35&#45;&gt;Node18 -->
<g id="edge48" class="edge">
<title>Node35&#45;&gt;Node18</title>
<path fill="none" stroke="#191970" d="M474.5514,-168.2455C478.5019,-160.617 484.1097,-149.7881 488.9058,-140.5267"/>
<polygon fill="#191970" stroke="#191970" points="492.0159,-142.1321 493.5065,-131.6427 485.7999,-138.9131 492.0159,-142.1321"/>
</g>
<!-- Node35&#45;&gt;Node19 -->
<g id="edge50" class="edge">
<title>Node35&#45;&gt;Node19</title>
<path fill="none" stroke="#191970" d="M432.4121,-168.4509C352.5679,-147.8934 164.693,-99.521 78.7782,-77.4004"/>
<polygon fill="#191970" stroke="#191970" points="79.6226,-74.0037 69.0657,-74.8997 77.8771,-80.7826 79.6226,-74.0037"/>
</g>
<!-- Node35&#45;&gt;Node36 -->
<g id="edge49" class="edge">
<title>Node35&#45;&gt;Node36</title>
<path fill="none" stroke="#191970" d="M458.3521,-168.2455C448.9913,-160.0549 435.4142,-148.1749 424.3651,-138.5069"/>
<polygon fill="#191970" stroke="#191970" points="426.3508,-135.5937 416.5202,-131.6427 421.7412,-140.8618 426.3508,-135.5937"/>
</g>
<!-- Node37&#45;&gt;Node17 -->
<g id="edge53" class="edge">
<title>Node37&#45;&gt;Node17</title>
<path fill="none" stroke="#191970" d="M1180.5173,-168.4876C1141.2163,-160.6082 1086.2322,-148.1046 1039.5,-132 997.4528,-117.5099 951.0642,-94.9889 922.5987,-80.3659"/>
<polygon fill="#191970" stroke="#191970" points="924.1531,-77.2293 913.6645,-75.7326 920.9304,-83.4434 924.1531,-77.2293"/>
</g>
</g>
</svg>
        <g id="navigator" transform="translate(0 0)" fill="#404254">
                <rect fill="#f2f5e9" fill-opacity="0.5" stroke="#606060" stroke-width=".5" x="0" y="0" width="60" height="60"/>
                <use id="zoomplus" xlink:href="#zoomPlus" x="17" y="9" onmousedown="handleZoom(evt,'in')"/>
                <use id="zoomminus" xlink:href="#zoomMin" x="42" y="9" onmousedown="handleZoom(evt,'out')"/>
                <use id="reset" xlink:href="#resetDef" x="30" y="36" onmousedown="handleReset()"/>
                <g id="arrowUp" xlink:href="#dirArrow" transform="translate(30 24)" onmousedown="handlePan(0,-1)">
                  <use xlink:href="#rim" fill="#404040">
                        <set attributeName="fill" to="#808080" begin="arrowUp.mouseover" end="arrowUp.mouseout"/>
                  </use>
                  <path fill="none" stroke="white" stroke-width="1.5" d="M0,-3.0v7 M-2.5,-0.5L0,-3.0L2.5,-0.5"/>
                </g>
                <g id="arrowRight" xlink:href="#dirArrow" transform="rotate(90) translate(36 -43)" onmousedown="handlePan(1,0)">
                  <use xlink:href="#rim" fill="#404040">
                        <set attributeName="fill" to="#808080" begin="arrowRight.mouseover" end="arrowRight.mouseout"/>
                  </use>
                  <path fill="none" stroke="white" stroke-width="1.5" d="M0,-3.0v7 M-2.5,-0.5L0,-3.0L2.5,-0.5"/>
                </g>
                <g id="arrowDown" xlink:href="#dirArrow" transform="rotate(180) translate(-30 -48)" onmousedown="handlePan(0,1)">
                  <use xlink:href="#rim" fill="#404040">
                        <set attributeName="fill" to="#808080" begin="arrowDown.mouseover" end="arrowDown.mouseout"/>
                  </use>
                  <path fill="none" stroke="white" stroke-width="1.5" d="M0,-3.0v7 M-2.5,-0.5L0,-3.0L2.5,-0.5"/>
                </g>
                <g id="arrowLeft" xlink:href="#dirArrow" transform="rotate(270) translate(-36 17)" onmousedown="handlePan(-1,0)">
                  <use xlink:href="#rim" fill="#404040">
                        <set attributeName="fill" to="#808080" begin="arrowLeft.mouseover" end="arrowLeft.mouseout"/>
                  </use>
                  <path fill="none" stroke="white" stroke-width="1.5" d="M0,-3.0v7 M-2.5,-0.5L0,-3.0L2.5,-0.5"/>
                </g>
        </g>
        <svg viewBox="0 0 15 15" width="100%" height="30px" preserveAspectRatio="xMaxYMin meet">
         <g id="arrow_out" transform="scale(0.3 0.3)">
          <a xlink:href="Kernels_8cxx__incl_org.svg" target="_base">
           <rect id="button" ry="5" rx="5" y="6" x="6" height="38" width="38"
                fill="#f2f5e9" fill-opacity="0.5" stroke="#606060" stroke-width="1.0"/>
           <path id="arrow"
             d="M 11.500037,31.436501 C 11.940474,20.09759 22.043105,11.32322 32.158766,21.979434 L 37.068811,17.246167 C 37.068811,17.246167 37.088388,32 37.088388,32 L 22.160133,31.978069 C 22.160133,31.978069 26.997745,27.140456 26.997745,27.140456 C 18.528582,18.264221 13.291696,25.230495 11.500037,31.436501 z"
             style="fill:#404040;"/>
          </a>
         </g>
        </svg>
</svg>
