<?xml version="1.0" encoding="UTF-8" standalone="no"?>
<!DOCTYPE svg PUBLIC "-//W3C//DTD SVG 1.1//EN"
 "http://www.w3.org/Graphics/SVG/1.1/DTD/svg11.dtd">
<!-- Generated by graphviz version 2.40.1 (20161225.0304)
 -->
<!-- Title: o2::tpc::ca::Config Pages: 1 -->
<svg width="169pt" height="237pt"
 viewBox="0.00 0.00 169.00 237.00" xmlns="http://www.w3.org/2000/svg" xmlns:xlink="http://www.w3.org/1999/xlink">
<g id="graph0" class="graph" transform="scale(1 1) rotate(0) translate(4 233)">
<title>o2::tpc::ca::Config</title>
<!-- Node1 -->
<g id="node1" class="node">
<title>Node1</title>
<polygon fill="#bfbfbf" stroke="#000000" points="0,-.5 0,-68.5 104,-68.5 104,-.5 0,-.5"/>
<text text-anchor="middle" x="52" y="-56.5" font-family="Helvetica,sans-Serif" font-size="10.00" fill="#000000">o2::tpc::ca::Config</text>
<polyline fill="none" stroke="#000000" points="0,-49.5 104,-49.5 "/>
<text text-anchor="middle" x="52" y="-37.5" font-family="Helvetica,sans-Serif" font-size="10.00" fill="#000000"> </text>
<polyline fill="none" stroke="#000000" points="0,-30.5 104,-30.5 "/>
<text text-anchor="start" x="8" y="-18.5" font-family="Helvetica,sans-Serif" font-size="10.00" fill="#000000">+ Config()</text>
<text text-anchor="start" x="8" y="-7.5" font-family="Helvetica,sans-Serif" font-size="10.00" fill="#000000">+ init()</text>
</g>
<!-- Node2 -->
<g id="node2" class="node">
<title>Node2</title>
<polygon fill="none" stroke="#bfbfbf" points="33,-171.5 33,-228.5 71,-228.5 71,-171.5 33,-171.5"/>
<text text-anchor="middle" x="52" y="-216.5" font-family="Helvetica,sans-Serif" font-size="10.00" fill="#000000">bool</text>
<polyline fill="none" stroke="#bfbfbf" points="33,-209.5 71,-209.5 "/>
<text text-anchor="middle" x="52" y="-197.5" font-family="Helvetica,sans-Serif" font-size="10.00" fill="#000000"> </text>
<polyline fill="none" stroke="#bfbfbf" points="33,-190.5 71,-190.5 "/>
<text text-anchor="middle" x="52" y="-178.5" font-family="Helvetica,sans-Serif" font-size="10.00" fill="#000000"> </text>
</g>
<!-- Node2&#45;&gt;Node1 -->
<g id="edge1" class="edge">
<title>Node2&#45;&gt;Node1</title>
<path fill="none" stroke="#404040" d="M52,-171.1721C52,-146.3248 52,-109.989 52,-81.0279"/>
<polygon fill="none" stroke="#404040" points="52.0001,-80.7164 48,-74.7164 52,-68.7164 56,-74.7164 52.0001,-80.7164"/>
<text text-anchor="middle" x="106.5" y="-145" font-family="Helvetica,sans-Serif" font-size="10.00" fill="#000000"> +caClusterer</text>
<text text-anchor="middle" x="106.5" y="-134" font-family="Helvetica,sans-Serif" font-size="10.00" fill="#000000">+outputCAClusters</text>
<text text-anchor="middle" x="106.5" y="-123" font-family="Helvetica,sans-Serif" font-size="10.00" fill="#000000">+zsDecoder</text>
<text text-anchor="middle" x="106.5" y="-112" font-family="Helvetica,sans-Serif" font-size="10.00" fill="#000000">+outputCompClusters</text>
<text text-anchor="middle" x="106.5" y="-101" font-family="Helvetica,sans-Serif" font-size="10.00" fill="#000000">+outputTracks</text>
<text text-anchor="middle" x="106.5" y="-90" font-family="Helvetica,sans-Serif" font-size="10.00" fill="#000000">+processMC</text>
</g>
</g>
</svg>
