<?xml version="1.0" encoding="UTF-8" standalone="no"?>
<!DOCTYPE svg PUBLIC "-//W3C//DTD SVG 1.1//EN"
 "http://www.w3.org/Graphics/SVG/1.1/DTD/svg11.dtd">
<!-- Generated by graphviz version 2.40.1 (20161225.0304)
 -->
<!-- Title: /home/travis/build/AliceO2Group/AliceO2/Detectors/MUON/MCH/Raw/ElecMap/include/MCHRawElecMap/DsDetId.h Pages: 1 -->
<!--zoomable 261 -->
<svg id="main" version="1.1" xmlns="http://www.w3.org/2000/svg" xmlns:xlink="http://www.w3.org/1999/xlink" xml:space="preserve" onload="init(evt)">
<style type="text/css"><![CDATA[
.edge:hover path { stroke: red; }
.edge:hover polygon { stroke: red; fill: red; }
]]></style>
<script type="text/javascript"><![CDATA[
var edges = document.getElementsByTagName('g');
if (edges && edges.length) {
  for (var i=0;i<edges.length;i++) {
    if (edges[i].id.substr(0,4)=='edge') {
      edges[i].setAttribute('class','edge');
    }
  }
}
]]></script>
        <defs>
                <circle id="rim" cx="0" cy="0" r="7"/>
                <circle id="rim2" cx="0" cy="0" r="3.5"/>
                <g id="zoomPlus">
                        <use xlink:href="#rim" fill="#404040">
                                <set attributeName="fill" to="#808080" begin="zoomplus.mouseover" end="zoomplus.mouseout"/>
                        </use>
                        <path d="M-4,0h8M0,-4v8" fill="none" stroke="white" stroke-width="1.5" pointer-events="none"/>
                </g>
                <g id="zoomMin">
                        <use xlink:href="#rim" fill="#404040">
                                <set attributeName="fill" to="#808080" begin="zoomminus.mouseover" end="zoomminus.mouseout"/>
                        </use>
                        <path d="M-4,0h8" fill="none" stroke="white" stroke-width="1.5" pointer-events="none"/>
                </g>
                <g id="dirArrow">
                        <path fill="none" stroke="white" stroke-width="1.5" d="M0,-3.0v7 M-2.5,-0.5L0,-3.0L2.5,-0.5"/>
                </g>
               <g id="resetDef">
                       <use xlink:href="#rim2" fill="#404040">
                               <set attributeName="fill" to="#808080" begin="reset.mouseover" end="reset.mouseout"/>
                       </use>
               </g>
        </defs>

<script type="text/javascript">
var viewWidth = 2614;
var viewHeight = 261;
var sectionId = 'dynsection-1';
</script>
<script xlink:href="../../svgpan.js"/>
<svg id="graph" class="graph">
<g id="viewport">
<title>/home/travis/build/AliceO2Group/AliceO2/Detectors/MUON/MCH/Raw/ElecMap/include/MCHRawElecMap/DsDetId.h</title>
<!-- Node3 -->
<g id="node1" class="node">
<title>Node3</title>
<polygon fill="#bfbfbf" stroke="#000000" points="755.5,-189.5 755.5,-252.5 940.5,-252.5 940.5,-189.5 755.5,-189.5"/>
<text text-anchor="start" x="763.5" y="-240.5" font-family="Helvetica,sans-Serif" font-size="10.00" fill="#000000">/home/travis/build</text>
<text text-anchor="start" x="763.5" y="-229.5" font-family="Helvetica,sans-Serif" font-size="10.00" fill="#000000">/AliceO2Group/AliceO2</text>
<text text-anchor="start" x="763.5" y="-218.5" font-family="Helvetica,sans-Serif" font-size="10.00" fill="#000000">/Detectors/MUON/MCH/Raw</text>
<text text-anchor="start" x="763.5" y="-207.5" font-family="Helvetica,sans-Serif" font-size="10.00" fill="#000000">/ElecMap/include/MCHRawElecMap</text>
<text text-anchor="middle" x="848" y="-196.5" font-family="Helvetica,sans-Serif" font-size="10.00" fill="#000000">/DsDetId.h</text>
</g>
<!-- Node4 -->
<g id="node2" class="node">
<title>Node4</title>
<g id="a_node2"><a xlink:href="../../d2/d71/MUON_2MCH_2Raw_2ElecMap_2include_2MCHRawElecMap_2Mapper_8h.html" target="_top" xlink:title="/home/travis/build\l/AliceO2Group/AliceO2\l/Detectors/MUON/MCH/Raw\l/ElecMap/include/MCHRawElecMap\l/Mapper.h">
<polygon fill="none" stroke="#000000" points="755.5,-89.5 755.5,-152.5 940.5,-152.5 940.5,-89.5 755.5,-89.5"/>
<text text-anchor="start" x="763.5" y="-140.5" font-family="Helvetica,sans-Serif" font-size="10.00" fill="#000000">/home/travis/build</text>
<text text-anchor="start" x="763.5" y="-129.5" font-family="Helvetica,sans-Serif" font-size="10.00" fill="#000000">/AliceO2Group/AliceO2</text>
<text text-anchor="start" x="763.5" y="-118.5" font-family="Helvetica,sans-Serif" font-size="10.00" fill="#000000">/Detectors/MUON/MCH/Raw</text>
<text text-anchor="start" x="763.5" y="-107.5" font-family="Helvetica,sans-Serif" font-size="10.00" fill="#000000">/ElecMap/include/MCHRawElecMap</text>
<text text-anchor="middle" x="848" y="-96.5" font-family="Helvetica,sans-Serif" font-size="10.00" fill="#000000">/Mapper.h</text>
</a>
</g>
</g>
<!-- Node3&#45;&gt;Node4 -->
<g id="edge1" class="edge">
<title>Node3&#45;&gt;Node4</title>
<path fill="none" stroke="#191970" d="M848,-179.2111C848,-170.37 848,-161.1767 848,-152.778"/>
<polygon fill="#191970" stroke="#191970" points="844.5001,-179.3593 848,-189.3594 851.5001,-179.3594 844.5001,-179.3593"/>
</g>
<!-- Node6 -->
<g id="node4" class="node">
<title>Node6</title>
<g id="a_node4"><a xlink:href="../../d3/d4b/ElectronicMapperDummy_8cxx.html" target="_top" xlink:title="/home/travis/build\l/AliceO2Group/AliceO2\l/Detectors/MUON/MCH/Raw\l/ElecMap/src/ElectronicMapperDummy.cxx">
<polygon fill="none" stroke="#000000" points="0,-.5 0,-52.5 222,-52.5 222,-.5 0,-.5"/>
<text text-anchor="start" x="8" y="-40.5" font-family="Helvetica,sans-Serif" font-size="10.00" fill="#000000">/home/travis/build</text>
<text text-anchor="start" x="8" y="-29.5" font-family="Helvetica,sans-Serif" font-size="10.00" fill="#000000">/AliceO2Group/AliceO2</text>
<text text-anchor="start" x="8" y="-18.5" font-family="Helvetica,sans-Serif" font-size="10.00" fill="#000000">/Detectors/MUON/MCH/Raw</text>
<text text-anchor="middle" x="111" y="-7.5" font-family="Helvetica,sans-Serif" font-size="10.00" fill="#000000">/ElecMap/src/ElectronicMapperDummy.cxx</text>
</a>
</g>
</g>
<!-- Node3&#45;&gt;Node6 -->
<g id="edge19" class="edge">
<title>Node3&#45;&gt;Node6</title>
<path fill="none" stroke="#191970" d="M745.1024,-216.531C599.4009,-208.9623 341.1978,-190.6251 256,-153 204.5069,-130.2596 157.9811,-82.651 132.192,-52.7628"/>
<polygon fill="#191970" stroke="#191970" points="745.2288,-220.0419 755.3946,-217.0574 745.5864,-213.0511 745.2288,-220.0419"/>
</g>
<!-- Node7 -->
<g id="node5" class="node">
<title>Node7</title>
<g id="a_node5"><a xlink:href="../../d1/d4a/ElectronicMapperGenerated_8cxx.html" target="_top" xlink:title="/home/travis/build\l/AliceO2Group/AliceO2\l/Detectors/MUON/MCH/Raw\l/ElecMap/src/ElectronicMapperGenerated.cxx">
<polygon fill="none" stroke="#000000" points="240,-.5 240,-52.5 476,-52.5 476,-.5 240,-.5"/>
<text text-anchor="start" x="248" y="-40.5" font-family="Helvetica,sans-Serif" font-size="10.00" fill="#000000">/home/travis/build</text>
<text text-anchor="start" x="248" y="-29.5" font-family="Helvetica,sans-Serif" font-size="10.00" fill="#000000">/AliceO2Group/AliceO2</text>
<text text-anchor="start" x="248" y="-18.5" font-family="Helvetica,sans-Serif" font-size="10.00" fill="#000000">/Detectors/MUON/MCH/Raw</text>
<text text-anchor="middle" x="358" y="-7.5" font-family="Helvetica,sans-Serif" font-size="10.00" fill="#000000">/ElecMap/src/ElectronicMapperGenerated.cxx</text>
</a>
</g>
</g>
<!-- Node3&#45;&gt;Node7 -->
<g id="edge23" class="edge">
<title>Node3&#45;&gt;Node7</title>
<path fill="none" stroke="#191970" d="M758.9864,-185.6671C662.3066,-147.2911 510.1481,-86.8935 423.7289,-52.5904"/>
<polygon fill="#191970" stroke="#191970" points="757.8698,-188.9894 768.4556,-189.4258 760.4524,-182.4832 757.8698,-188.9894"/>
</g>
<!-- Node13 -->
<g id="node11" class="node">
<title>Node13</title>
<g id="a_node11"><a xlink:href="../../dd/d04/CH_8cxx.html" target="_top" xlink:title="/home/travis/build\l/AliceO2Group/AliceO2\l/Detectors/MUON/MCH/Raw\l/ElecMap/src/CH.cxx">
<polygon fill="none" stroke="#000000" points="1784,-95 1784,-147 1934,-147 1934,-95 1784,-95"/>
<text text-anchor="start" x="1792" y="-135" font-family="Helvetica,sans-Serif" font-size="10.00" fill="#000000">/home/travis/build</text>
<text text-anchor="start" x="1792" y="-124" font-family="Helvetica,sans-Serif" font-size="10.00" fill="#000000">/AliceO2Group/AliceO2</text>
<text text-anchor="start" x="1792" y="-113" font-family="Helvetica,sans-Serif" font-size="10.00" fill="#000000">/Detectors/MUON/MCH/Raw</text>
<text text-anchor="middle" x="1859" y="-102" font-family="Helvetica,sans-Serif" font-size="10.00" fill="#000000">/ElecMap/src/CH.cxx</text>
</a>
</g>
</g>
<!-- Node3&#45;&gt;Node13 -->
<g id="edge10" class="edge">
<title>Node3&#45;&gt;Node13</title>
<path fill="none" stroke="#191970" d="M950.9542,-210.8166C1154.683,-190.6654 1604.9664,-146.127 1783.7262,-128.4455"/>
<polygon fill="#191970" stroke="#191970" points="950.4564,-207.3487 940.8495,-211.8161 951.1455,-214.3147 950.4564,-207.3487"/>
</g>
<!-- Node20 -->
<g id="node18" class="node">
<title>Node20</title>
<g id="a_node18"><a xlink:href="../../db/d49/CH6L_8cxx.html" target="_top" xlink:title="/home/travis/build\l/AliceO2Group/AliceO2\l/Detectors/MUON/MCH/Raw\l/ElecMap/src/CH6L.cxx">
<polygon fill="none" stroke="#000000" points="1952,-95 1952,-147 2102,-147 2102,-95 1952,-95"/>
<text text-anchor="start" x="1960" y="-135" font-family="Helvetica,sans-Serif" font-size="10.00" fill="#000000">/home/travis/build</text>
<text text-anchor="start" x="1960" y="-124" font-family="Helvetica,sans-Serif" font-size="10.00" fill="#000000">/AliceO2Group/AliceO2</text>
<text text-anchor="start" x="1960" y="-113" font-family="Helvetica,sans-Serif" font-size="10.00" fill="#000000">/Detectors/MUON/MCH/Raw</text>
<text text-anchor="middle" x="2027" y="-102" font-family="Helvetica,sans-Serif" font-size="10.00" fill="#000000">/ElecMap/src/CH6L.cxx</text>
</a>
</g>
</g>
<!-- Node3&#45;&gt;Node20 -->
<g id="edge17" class="edge">
<title>Node3&#45;&gt;Node20</title>
<path fill="none" stroke="#191970" d="M951.0973,-218.5598C1186.1119,-212.3558 1755.663,-193.5174 1943,-153 1950.1689,-151.4495 1957.5369,-149.3897 1964.7891,-147.0599"/>
<polygon fill="#191970" stroke="#191970" points="950.7451,-215.0677 940.8401,-218.8281 950.9282,-222.0653 950.7451,-215.0677"/>
</g>
<!-- Node21 -->
<g id="node19" class="node">
<title>Node21</title>
<g id="a_node19"><a xlink:href="../../d6/d4f/DsDetId_8cxx.html" target="_top" xlink:title="/home/travis/build\l/AliceO2Group/AliceO2\l/Detectors/MUON/MCH/Raw\l/ElecMap/src/DsDetId.cxx">
<polygon fill="none" stroke="#000000" points="2120,-95 2120,-147 2270,-147 2270,-95 2120,-95"/>
<text text-anchor="start" x="2128" y="-135" font-family="Helvetica,sans-Serif" font-size="10.00" fill="#000000">/home/travis/build</text>
<text text-anchor="start" x="2128" y="-124" font-family="Helvetica,sans-Serif" font-size="10.00" fill="#000000">/AliceO2Group/AliceO2</text>
<text text-anchor="start" x="2128" y="-113" font-family="Helvetica,sans-Serif" font-size="10.00" fill="#000000">/Detectors/MUON/MCH/Raw</text>
<text text-anchor="middle" x="2195" y="-102" font-family="Helvetica,sans-Serif" font-size="10.00" fill="#000000">/ElecMap/src/DsDetId.cxx</text>
</a>
</g>
</g>
<!-- Node3&#45;&gt;Node21 -->
<g id="edge18" class="edge">
<title>Node3&#45;&gt;Node21</title>
<path fill="none" stroke="#191970" d="M950.7373,-219.5602C1210.8495,-215.2593 1890.405,-199.7607 2111,-153 2118.1752,-151.479 2125.5472,-149.4379 2132.8018,-147.1189"/>
<polygon fill="#191970" stroke="#191970" points="950.4805,-216.0638 940.5389,-219.7266 950.5948,-223.0629 950.4805,-216.0638"/>
</g>
<!-- Node22 -->
<g id="node20" class="node">
<title>Node22</title>
<g id="a_node20"><a xlink:href="../../d4/d6a/ElectronicMapperImplHelper_8h.html" target="_top" xlink:title="/home/travis/build\l/AliceO2Group/AliceO2\l/Detectors/MUON/MCH/Raw\l/ElecMap/src/ElectronicMapperImpl\lHelper.h">
<polygon fill="none" stroke="#000000" points="265,-89.5 265,-152.5 451,-152.5 451,-89.5 265,-89.5"/>
<text text-anchor="start" x="273" y="-140.5" font-family="Helvetica,sans-Serif" font-size="10.00" fill="#000000">/home/travis/build</text>
<text text-anchor="start" x="273" y="-129.5" font-family="Helvetica,sans-Serif" font-size="10.00" fill="#000000">/AliceO2Group/AliceO2</text>
<text text-anchor="start" x="273" y="-118.5" font-family="Helvetica,sans-Serif" font-size="10.00" fill="#000000">/Detectors/MUON/MCH/Raw</text>
<text text-anchor="start" x="273" y="-107.5" font-family="Helvetica,sans-Serif" font-size="10.00" fill="#000000">/ElecMap/src/ElectronicMapperImpl</text>
<text text-anchor="middle" x="358" y="-96.5" font-family="Helvetica,sans-Serif" font-size="10.00" fill="#000000">Helper.h</text>
</a>
</g>
</g>
<!-- Node3&#45;&gt;Node22 -->
<g id="edge20" class="edge">
<title>Node3&#45;&gt;Node22</title>
<path fill="none" stroke="#191970" d="M745.3883,-200.0588C658.5723,-182.3413 535.2236,-157.1681 451.1945,-140.0193"/>
<polygon fill="#191970" stroke="#191970" points="744.7608,-203.5028 755.2587,-202.0732 746.1605,-196.6442 744.7608,-203.5028"/>
</g>
<!-- Node5 -->
<g id="node3" class="node">
<title>Node5</title>
<g id="a_node3"><a xlink:href="../../df/dcf/PageDecoder_8cxx.html" target="_top" xlink:title="/home/travis/build\l/AliceO2Group/AliceO2\l/Detectors/MUON/MCH/Raw\l/Decoder/src/PageDecoder.cxx">
<polygon fill="none" stroke="#000000" points="494,-.5 494,-52.5 658,-52.5 658,-.5 494,-.5"/>
<text text-anchor="start" x="502" y="-40.5" font-family="Helvetica,sans-Serif" font-size="10.00" fill="#000000">/home/travis/build</text>
<text text-anchor="start" x="502" y="-29.5" font-family="Helvetica,sans-Serif" font-size="10.00" fill="#000000">/AliceO2Group/AliceO2</text>
<text text-anchor="start" x="502" y="-18.5" font-family="Helvetica,sans-Serif" font-size="10.00" fill="#000000">/Detectors/MUON/MCH/Raw</text>
<text text-anchor="middle" x="576" y="-7.5" font-family="Helvetica,sans-Serif" font-size="10.00" fill="#000000">/Decoder/src/PageDecoder.cxx</text>
</a>
</g>
</g>
<!-- Node4&#45;&gt;Node5 -->
<g id="edge2" class="edge">
<title>Node4&#45;&gt;Node5</title>
<path fill="none" stroke="#191970" d="M747.2575,-85.9994C715.3904,-74.9279 680.7491,-62.8926 651.0135,-52.5617"/>
<polygon fill="#191970" stroke="#191970" points="746.455,-89.4257 757.0498,-89.4015 748.7523,-82.8134 746.455,-89.4257"/>
</g>
<!-- Node4&#45;&gt;Node6 -->
<g id="edge3" class="edge">
<title>Node4&#45;&gt;Node6</title>
<path fill="none" stroke="#191970" d="M745.1793,-113.0742C622.3306,-102.8198 410.8233,-82.6763 231,-53 228.0529,-52.5136 225.0693,-52.0012 222.0619,-51.4671"/>
<polygon fill="#191970" stroke="#191970" points="745.0721,-116.5772 755.3271,-113.9155 745.6505,-109.6011 745.0721,-116.5772"/>
</g>
<!-- Node4&#45;&gt;Node7 -->
<g id="edge4" class="edge">
<title>Node4&#45;&gt;Node7</title>
<path fill="none" stroke="#191970" d="M745.3145,-102.3448C672.5627,-88.9859 572.7035,-70.3629 485,-53 482.1277,-52.4314 479.2196,-51.8521 476.2868,-51.2649"/>
<polygon fill="#191970" stroke="#191970" points="744.9287,-105.8323 755.3961,-104.1942 746.1918,-98.9472 744.9287,-105.8323"/>
</g>
<!-- Node8 -->
<g id="node6" class="node">
<title>Node8</title>
<g id="a_node6"><a xlink:href="../../df/d54/MUON_2MCH_2Raw_2ElecMap_2src_2Mapper_8cxx.html" target="_top" xlink:title="/home/travis/build\l/AliceO2Group/AliceO2\l/Detectors/MUON/MCH/Raw\l/ElecMap/src/Mapper.cxx">
<polygon fill="none" stroke="#000000" points="676,-.5 676,-52.5 826,-52.5 826,-.5 676,-.5"/>
<text text-anchor="start" x="684" y="-40.5" font-family="Helvetica,sans-Serif" font-size="10.00" fill="#000000">/home/travis/build</text>
<text text-anchor="start" x="684" y="-29.5" font-family="Helvetica,sans-Serif" font-size="10.00" fill="#000000">/AliceO2Group/AliceO2</text>
<text text-anchor="start" x="684" y="-18.5" font-family="Helvetica,sans-Serif" font-size="10.00" fill="#000000">/Detectors/MUON/MCH/Raw</text>
<text text-anchor="middle" x="751" y="-7.5" font-family="Helvetica,sans-Serif" font-size="10.00" fill="#000000">/ElecMap/src/Mapper.cxx</text>
</a>
</g>
</g>
<!-- Node4&#45;&gt;Node8 -->
<g id="edge5" class="edge">
<title>Node4&#45;&gt;Node8</title>
<path fill="none" stroke="#191970" d="M808.1246,-82.1523C797.9264,-72.217 787.2027,-61.7696 777.8358,-52.6442"/>
<polygon fill="#191970" stroke="#191970" points="805.8254,-84.7988 815.4306,-89.27 810.7101,-79.7848 805.8254,-84.7988"/>
</g>
<!-- Node9 -->
<g id="node7" class="node">
<title>Node9</title>
<g id="a_node7"><a xlink:href="../../d2/da7/testElectronicMapper_8cxx.html" target="_top" xlink:title="/home/travis/build\l/AliceO2Group/AliceO2\l/Detectors/MUON/MCH/Raw\l/ElecMap/src/testElectronicMapper.cxx">
<polygon fill="none" stroke="#000000" points="843.5,-.5 843.5,-52.5 1046.5,-52.5 1046.5,-.5 843.5,-.5"/>
<text text-anchor="start" x="851.5" y="-40.5" font-family="Helvetica,sans-Serif" font-size="10.00" fill="#000000">/home/travis/build</text>
<text text-anchor="start" x="851.5" y="-29.5" font-family="Helvetica,sans-Serif" font-size="10.00" fill="#000000">/AliceO2Group/AliceO2</text>
<text text-anchor="start" x="851.5" y="-18.5" font-family="Helvetica,sans-Serif" font-size="10.00" fill="#000000">/Detectors/MUON/MCH/Raw</text>
<text text-anchor="middle" x="945" y="-7.5" font-family="Helvetica,sans-Serif" font-size="10.00" fill="#000000">/ElecMap/src/testElectronicMapper.cxx</text>
</a>
</g>
</g>
<!-- Node4&#45;&gt;Node9 -->
<g id="edge6" class="edge">
<title>Node4&#45;&gt;Node9</title>
<path fill="none" stroke="#191970" d="M887.8754,-82.1523C898.0736,-72.217 908.7973,-61.7696 918.1642,-52.6442"/>
<polygon fill="#191970" stroke="#191970" points="885.2899,-79.7848 880.5694,-89.27 890.1746,-84.7988 885.2899,-79.7848"/>
</g>
<!-- Node10 -->
<g id="node8" class="node">
<title>Node10</title>
<g id="a_node8"><a xlink:href="../../d4/dbc/rawdump_8cxx.html" target="_top" xlink:title="/home/travis/build\l/AliceO2Group/AliceO2\l/Detectors/MUON/MCH/Raw\l/Tools/rawdump.cxx">
<polygon fill="none" stroke="#000000" points="1064,-.5 1064,-52.5 1214,-52.5 1214,-.5 1064,-.5"/>
<text text-anchor="start" x="1072" y="-40.5" font-family="Helvetica,sans-Serif" font-size="10.00" fill="#000000">/home/travis/build</text>
<text text-anchor="start" x="1072" y="-29.5" font-family="Helvetica,sans-Serif" font-size="10.00" fill="#000000">/AliceO2Group/AliceO2</text>
<text text-anchor="start" x="1072" y="-18.5" font-family="Helvetica,sans-Serif" font-size="10.00" fill="#000000">/Detectors/MUON/MCH/Raw</text>
<text text-anchor="middle" x="1139" y="-7.5" font-family="Helvetica,sans-Serif" font-size="10.00" fill="#000000">/Tools/rawdump.cxx</text>
</a>
</g>
</g>
<!-- Node4&#45;&gt;Node10 -->
<g id="edge7" class="edge">
<title>Node4&#45;&gt;Node10</title>
<path fill="none" stroke="#191970" d="M950.7719,-87.6256C988.0885,-75.5073 1029.5199,-62.0528 1063.9908,-50.8586"/>
<polygon fill="#191970" stroke="#191970" points="949.3043,-84.4222 940.8743,-90.8398 951.4664,-91.08 949.3043,-84.4222"/>
</g>
<!-- Node11 -->
<g id="node9" class="node">
<title>Node11</title>
<g id="a_node9"><a xlink:href="../../d0/d75/DataDecoderSpec_8cxx.html" target="_top" xlink:title="/home/travis/build\l/AliceO2Group/AliceO2\l/Detectors/MUON/MCH/Workflow\l/src/DataDecoderSpec.cxx">
<polygon fill="none" stroke="#000000" points="1232,-.5 1232,-52.5 1406,-52.5 1406,-.5 1232,-.5"/>
<text text-anchor="start" x="1240" y="-40.5" font-family="Helvetica,sans-Serif" font-size="10.00" fill="#000000">/home/travis/build</text>
<text text-anchor="start" x="1240" y="-29.5" font-family="Helvetica,sans-Serif" font-size="10.00" fill="#000000">/AliceO2Group/AliceO2</text>
<text text-anchor="start" x="1240" y="-18.5" font-family="Helvetica,sans-Serif" font-size="10.00" fill="#000000">/Detectors/MUON/MCH/Workflow</text>
<text text-anchor="middle" x="1319" y="-7.5" font-family="Helvetica,sans-Serif" font-size="10.00" fill="#000000">/src/DataDecoderSpec.cxx</text>
</a>
</g>
</g>
<!-- Node4&#45;&gt;Node11 -->
<g id="edge8" class="edge">
<title>Node4&#45;&gt;Node11</title>
<path fill="none" stroke="#191970" d="M950.5589,-104.9599C1026.217,-92.5077 1131.4768,-73.8857 1223,-53 1225.9499,-52.3268 1228.9451,-51.6219 1231.9657,-50.8926"/>
<polygon fill="#191970" stroke="#191970" points="949.8537,-101.5287 940.5511,-106.5995 950.9855,-108.4366 949.8537,-101.5287"/>
</g>
<!-- Node12 -->
<g id="node10" class="node">
<title>Node12</title>
<g id="a_node10"><a xlink:href="../../db/d1c/file-to-digits-workflow_8cxx.html" target="_top" xlink:title="/home/travis/build\l/AliceO2Group/AliceO2\l/Detectors/MUON/MCH/Workflow\l/src/file&#45;to&#45;digits&#45;workflow.cxx">
<polygon fill="none" stroke="#000000" points="1424,-.5 1424,-52.5 1598,-52.5 1598,-.5 1424,-.5"/>
<text text-anchor="start" x="1432" y="-40.5" font-family="Helvetica,sans-Serif" font-size="10.00" fill="#000000">/home/travis/build</text>
<text text-anchor="start" x="1432" y="-29.5" font-family="Helvetica,sans-Serif" font-size="10.00" fill="#000000">/AliceO2Group/AliceO2</text>
<text text-anchor="start" x="1432" y="-18.5" font-family="Helvetica,sans-Serif" font-size="10.00" fill="#000000">/Detectors/MUON/MCH/Workflow</text>
<text text-anchor="middle" x="1511" y="-7.5" font-family="Helvetica,sans-Serif" font-size="10.00" fill="#000000">/src/file&#45;to&#45;digits&#45;workflow.cxx</text>
</a>
</g>
</g>
<!-- Node4&#45;&gt;Node12 -->
<g id="edge9" class="edge">
<title>Node4&#45;&gt;Node12</title>
<path fill="none" stroke="#191970" d="M951.1156,-113.3109C1065.302,-103.7135 1254.4749,-84.5964 1415,-53 1417.884,-52.4323 1420.8082,-51.8232 1423.7548,-51.1806"/>
<polygon fill="#191970" stroke="#191970" points="950.6599,-109.8367 940.9846,-114.154 951.2404,-116.8126 950.6599,-109.8367"/>
</g>
<!-- Node14 -->
<g id="node12" class="node">
<title>Node14</title>
<g id="a_node12"><a xlink:href="../../d3/ddc/CH5L_8cxx.html" target="_top" xlink:title="/home/travis/build\l/AliceO2Group/AliceO2\l/Detectors/MUON/MCH/Raw\l/ElecMap/src/CH5L.cxx">
<polygon fill="none" stroke="#000000" points="1616,-.5 1616,-52.5 1766,-52.5 1766,-.5 1616,-.5"/>
<text text-anchor="start" x="1624" y="-40.5" font-family="Helvetica,sans-Serif" font-size="10.00" fill="#000000">/home/travis/build</text>
<text text-anchor="start" x="1624" y="-29.5" font-family="Helvetica,sans-Serif" font-size="10.00" fill="#000000">/AliceO2Group/AliceO2</text>
<text text-anchor="start" x="1624" y="-18.5" font-family="Helvetica,sans-Serif" font-size="10.00" fill="#000000">/Detectors/MUON/MCH/Raw</text>
<text text-anchor="middle" x="1691" y="-7.5" font-family="Helvetica,sans-Serif" font-size="10.00" fill="#000000">/ElecMap/src/CH5L.cxx</text>
</a>
</g>
</g>
<!-- Node13&#45;&gt;Node14 -->
<g id="edge11" class="edge">
<title>Node13&#45;&gt;Node14</title>
<path fill="none" stroke="#191970" d="M1803.6597,-89.8711C1782.2374,-77.821 1757.9895,-64.1816 1737.4915,-52.6515"/>
<polygon fill="#191970" stroke="#191970" points="1802.2168,-93.0752 1812.6485,-94.9273 1805.6487,-86.9741 1802.2168,-93.0752"/>
</g>
<!-- Node15 -->
<g id="node13" class="node">
<title>Node15</title>
<g id="a_node13"><a xlink:href="../../df/d85/CH5R_8cxx.html" target="_top" xlink:title="/home/travis/build\l/AliceO2Group/AliceO2\l/Detectors/MUON/MCH/Raw\l/ElecMap/src/CH5R.cxx">
<polygon fill="none" stroke="#000000" points="1784,-.5 1784,-52.5 1934,-52.5 1934,-.5 1784,-.5"/>
<text text-anchor="start" x="1792" y="-40.5" font-family="Helvetica,sans-Serif" font-size="10.00" fill="#000000">/home/travis/build</text>
<text text-anchor="start" x="1792" y="-29.5" font-family="Helvetica,sans-Serif" font-size="10.00" fill="#000000">/AliceO2Group/AliceO2</text>
<text text-anchor="start" x="1792" y="-18.5" font-family="Helvetica,sans-Serif" font-size="10.00" fill="#000000">/Detectors/MUON/MCH/Raw</text>
<text text-anchor="middle" x="1859" y="-7.5" font-family="Helvetica,sans-Serif" font-size="10.00" fill="#000000">/ElecMap/src/CH5R.cxx</text>
</a>
</g>
</g>
<!-- Node13&#45;&gt;Node15 -->
<g id="edge12" class="edge">
<title>Node13&#45;&gt;Node15</title>
<path fill="none" stroke="#191970" d="M1859,-84.6645C1859,-74.0577 1859,-62.6746 1859,-52.8157"/>
<polygon fill="#191970" stroke="#191970" points="1855.5001,-84.9273 1859,-94.9273 1862.5001,-84.9273 1855.5001,-84.9273"/>
</g>
<!-- Node16 -->
<g id="node14" class="node">
<title>Node16</title>
<g id="a_node14"><a xlink:href="../../d9/d57/CH6R_8cxx.html" target="_top" xlink:title="/home/travis/build\l/AliceO2Group/AliceO2\l/Detectors/MUON/MCH/Raw\l/ElecMap/src/CH6R.cxx">
<polygon fill="none" stroke="#000000" points="1952,-.5 1952,-52.5 2102,-52.5 2102,-.5 1952,-.5"/>
<text text-anchor="start" x="1960" y="-40.5" font-family="Helvetica,sans-Serif" font-size="10.00" fill="#000000">/home/travis/build</text>
<text text-anchor="start" x="1960" y="-29.5" font-family="Helvetica,sans-Serif" font-size="10.00" fill="#000000">/AliceO2Group/AliceO2</text>
<text text-anchor="start" x="1960" y="-18.5" font-family="Helvetica,sans-Serif" font-size="10.00" fill="#000000">/Detectors/MUON/MCH/Raw</text>
<text text-anchor="middle" x="2027" y="-7.5" font-family="Helvetica,sans-Serif" font-size="10.00" fill="#000000">/ElecMap/src/CH6R.cxx</text>
</a>
</g>
</g>
<!-- Node13&#45;&gt;Node16 -->
<g id="edge13" class="edge">
<title>Node13&#45;&gt;Node16</title>
<path fill="none" stroke="#191970" d="M1914.3403,-89.8711C1935.7626,-77.821 1960.0105,-64.1816 1980.5085,-52.6515"/>
<polygon fill="#191970" stroke="#191970" points="1912.3513,-86.9741 1905.3515,-94.9273 1915.7832,-93.0752 1912.3513,-86.9741"/>
</g>
<!-- Node17 -->
<g id="node15" class="node">
<title>Node17</title>
<g id="a_node15"><a xlink:href="../../df/df9/CH7L_8cxx.html" target="_top" xlink:title="/home/travis/build\l/AliceO2Group/AliceO2\l/Detectors/MUON/MCH/Raw\l/ElecMap/src/CH7L.cxx">
<polygon fill="none" stroke="#000000" points="2120,-.5 2120,-52.5 2270,-52.5 2270,-.5 2120,-.5"/>
<text text-anchor="start" x="2128" y="-40.5" font-family="Helvetica,sans-Serif" font-size="10.00" fill="#000000">/home/travis/build</text>
<text text-anchor="start" x="2128" y="-29.5" font-family="Helvetica,sans-Serif" font-size="10.00" fill="#000000">/AliceO2Group/AliceO2</text>
<text text-anchor="start" x="2128" y="-18.5" font-family="Helvetica,sans-Serif" font-size="10.00" fill="#000000">/Detectors/MUON/MCH/Raw</text>
<text text-anchor="middle" x="2195" y="-7.5" font-family="Helvetica,sans-Serif" font-size="10.00" fill="#000000">/ElecMap/src/CH7L.cxx</text>
</a>
</g>
</g>
<!-- Node13&#45;&gt;Node17 -->
<g id="edge14" class="edge">
<title>Node13&#45;&gt;Node17</title>
<path fill="none" stroke="#191970" d="M1934.1978,-91.7199C1937.1588,-90.7684 1940.1005,-89.8575 1943,-89 2016.2267,-67.3446 2037.1724,-72.5089 2111,-53 2113.9569,-52.2187 2116.9644,-51.3976 2119.9967,-50.5479"/>
<polygon fill="#191970" stroke="#191970" points="1933.0865,-88.4009 1924.704,-94.8804 1935.2976,-95.0426 1933.0865,-88.4009"/>
</g>
<!-- Node18 -->
<g id="node16" class="node">
<title>Node18</title>
<g id="a_node16"><a xlink:href="../../d7/daf/CH7R_8cxx.html" target="_top" xlink:title="/home/travis/build\l/AliceO2Group/AliceO2\l/Detectors/MUON/MCH/Raw\l/ElecMap/src/CH7R.cxx">
<polygon fill="none" stroke="#000000" points="2288,-.5 2288,-52.5 2438,-52.5 2438,-.5 2288,-.5"/>
<text text-anchor="start" x="2296" y="-40.5" font-family="Helvetica,sans-Serif" font-size="10.00" fill="#000000">/home/travis/build</text>
<text text-anchor="start" x="2296" y="-29.5" font-family="Helvetica,sans-Serif" font-size="10.00" fill="#000000">/AliceO2Group/AliceO2</text>
<text text-anchor="start" x="2296" y="-18.5" font-family="Helvetica,sans-Serif" font-size="10.00" fill="#000000">/Detectors/MUON/MCH/Raw</text>
<text text-anchor="middle" x="2363" y="-7.5" font-family="Helvetica,sans-Serif" font-size="10.00" fill="#000000">/ElecMap/src/CH7R.cxx</text>
</a>
</g>
</g>
<!-- Node13&#45;&gt;Node18 -->
<g id="edge15" class="edge">
<title>Node13&#45;&gt;Node18</title>
<path fill="none" stroke="#191970" d="M1931.9934,-91.9303C1935.6893,-90.8565 1939.3721,-89.87 1943,-89 2089.0475,-53.9776 2131.9925,-83.7446 2279,-53 2281.8439,-52.4052 2284.7284,-51.7528 2287.6318,-51.0545"/>
<polygon fill="#191970" stroke="#191970" points="1930.728,-88.658 1922.2084,-94.9561 1932.7961,-95.3455 1930.728,-88.658"/>
</g>
<!-- Node19 -->
<g id="node17" class="node">
<title>Node19</title>
<g id="a_node17"><a xlink:href="../../d9/d44/CH8L_8cxx.html" target="_top" xlink:title="/home/travis/build\l/AliceO2Group/AliceO2\l/Detectors/MUON/MCH/Raw\l/ElecMap/src/CH8L.cxx">
<polygon fill="none" stroke="#000000" points="2456,-.5 2456,-52.5 2606,-52.5 2606,-.5 2456,-.5"/>
<text text-anchor="start" x="2464" y="-40.5" font-family="Helvetica,sans-Serif" font-size="10.00" fill="#000000">/home/travis/build</text>
<text text-anchor="start" x="2464" y="-29.5" font-family="Helvetica,sans-Serif" font-size="10.00" fill="#000000">/AliceO2Group/AliceO2</text>
<text text-anchor="start" x="2464" y="-18.5" font-family="Helvetica,sans-Serif" font-size="10.00" fill="#000000">/Detectors/MUON/MCH/Raw</text>
<text text-anchor="middle" x="2531" y="-7.5" font-family="Helvetica,sans-Serif" font-size="10.00" fill="#000000">/ElecMap/src/CH8L.cxx</text>
</a>
</g>
</g>
<!-- Node13&#45;&gt;Node19 -->
<g id="edge16" class="edge">
<title>Node13&#45;&gt;Node19</title>
<path fill="none" stroke="#191970" d="M1931.3754,-91.9341C1935.2758,-90.8378 1939.1668,-89.8477 1943,-89 2162.2729,-40.5087 2226.4052,-95.0705 2447,-53 2449.854,-52.4557 2452.7471,-51.8462 2455.6577,-51.1842"/>
<polygon fill="#191970" stroke="#191970" points="1930.2507,-88.6176 1921.6883,-94.8575 1932.2731,-95.3191 1930.2507,-88.6176"/>
</g>
<!-- Node22&#45;&gt;Node6 -->
<g id="edge21" class="edge">
<title>Node22&#45;&gt;Node6</title>
<path fill="none" stroke="#191970" d="M265.768,-85.7129C237.0368,-74.7205 205.8887,-62.8036 179.1189,-52.5617"/>
<polygon fill="#191970" stroke="#191970" points="264.8187,-89.097 275.4092,-89.4015 267.3201,-82.5592 264.8187,-89.097"/>
</g>
<!-- Node22&#45;&gt;Node7 -->
<g id="edge22" class="edge">
<title>Node22&#45;&gt;Node7</title>
<path fill="none" stroke="#191970" d="M358,-79.2457C358,-70.2008 358,-60.8836 358,-52.6442"/>
<polygon fill="#191970" stroke="#191970" points="354.5001,-79.2699 358,-89.27 361.5001,-79.27 354.5001,-79.2699"/>
</g>
</g>
</svg>
        <g id="navigator" transform="translate(0 0)" fill="#404254">
                <rect fill="#f2f5e9" fill-opacity="0.5" stroke="#606060" stroke-width=".5" x="0" y="0" width="60" height="60"/>
                <use id="zoomplus" xlink:href="#zoomPlus" x="17" y="9" onmousedown="handleZoom(evt,'in')"/>
                <use id="zoomminus" xlink:href="#zoomMin" x="42" y="9" onmousedown="handleZoom(evt,'out')"/>
                <use id="reset" xlink:href="#resetDef" x="30" y="36" onmousedown="handleReset()"/>
                <g id="arrowUp" xlink:href="#dirArrow" transform="translate(30 24)" onmousedown="handlePan(0,-1)">
                  <use xlink:href="#rim" fill="#404040">
                        <set attributeName="fill" to="#808080" begin="arrowUp.mouseover" end="arrowUp.mouseout"/>
                  </use>
                  <path fill="none" stroke="white" stroke-width="1.5" d="M0,-3.0v7 M-2.5,-0.5L0,-3.0L2.5,-0.5"/>
                </g>
                <g id="arrowRight" xlink:href="#dirArrow" transform="rotate(90) translate(36 -43)" onmousedown="handlePan(1,0)">
                  <use xlink:href="#rim" fill="#404040">
                        <set attributeName="fill" to="#808080" begin="arrowRight.mouseover" end="arrowRight.mouseout"/>
                  </use>
                  <path fill="none" stroke="white" stroke-width="1.5" d="M0,-3.0v7 M-2.5,-0.5L0,-3.0L2.5,-0.5"/>
                </g>
                <g id="arrowDown" xlink:href="#dirArrow" transform="rotate(180) translate(-30 -48)" onmousedown="handlePan(0,1)">
                  <use xlink:href="#rim" fill="#404040">
                        <set attributeName="fill" to="#808080" begin="arrowDown.mouseover" end="arrowDown.mouseout"/>
                  </use>
                  <path fill="none" stroke="white" stroke-width="1.5" d="M0,-3.0v7 M-2.5,-0.5L0,-3.0L2.5,-0.5"/>
                </g>
                <g id="arrowLeft" xlink:href="#dirArrow" transform="rotate(270) translate(-36 17)" onmousedown="handlePan(-1,0)">
                  <use xlink:href="#rim" fill="#404040">
                        <set attributeName="fill" to="#808080" begin="arrowLeft.mouseover" end="arrowLeft.mouseout"/>
                  </use>
                  <path fill="none" stroke="white" stroke-width="1.5" d="M0,-3.0v7 M-2.5,-0.5L0,-3.0L2.5,-0.5"/>
                </g>
        </g>
        <svg viewBox="0 0 15 15" width="100%" height="30px" preserveAspectRatio="xMaxYMin meet">
         <g id="arrow_out" transform="scale(0.3 0.3)">
          <a xlink:href="DsDetId_8h__dep__incl_org.svg" target="_base">
           <rect id="button" ry="5" rx="5" y="6" x="6" height="38" width="38"
                fill="#f2f5e9" fill-opacity="0.5" stroke="#606060" stroke-width="1.0"/>
           <path id="arrow"
             d="M 11.500037,31.436501 C 11.940474,20.09759 22.043105,11.32322 32.158766,21.979434 L 37.068811,17.246167 C 37.068811,17.246167 37.088388,32 37.088388,32 L 22.160133,31.978069 C 22.160133,31.978069 26.997745,27.140456 26.997745,27.140456 C 18.528582,18.264221 13.291696,25.230495 11.500037,31.436501 z"
             style="fill:#404040;"/>
          </a>
         </g>
        </svg>
</svg>
