<?xml version="1.0" encoding="UTF-8" standalone="no"?>
<!DOCTYPE svg PUBLIC "-//W3C//DTD SVG 1.1//EN"
 "http://www.w3.org/Graphics/SVG/1.1/DTD/svg11.dtd">
<!-- Generated by graphviz version 2.40.1 (20161225.0304)
 -->
<!-- Title: /home/travis/build/AliceO2Group/AliceO2/GPU/GPUTracking/dEdx/GPUdEdx.cxx Pages: 1 -->
<svg width="1030pt" height="453pt"
 viewBox="0.00 0.00 1030.00 453.00" xmlns="http://www.w3.org/2000/svg" xmlns:xlink="http://www.w3.org/1999/xlink">
<g id="graph0" class="graph" transform="scale(1 1) rotate(0) translate(4 449)">
<title>/home/travis/build/AliceO2Group/AliceO2/GPU/GPUTracking/dEdx/GPUdEdx.cxx</title>
<!-- Node0 -->
<g id="node1" class="node">
<title>Node0</title>
<polygon fill="#bfbfbf" stroke="#000000" points="218.5,-392.5 218.5,-444.5 350.5,-444.5 350.5,-392.5 218.5,-392.5"/>
<text text-anchor="start" x="226.5" y="-432.5" font-family="Helvetica,sans-Serif" font-size="10.00" fill="#000000">/home/travis/build</text>
<text text-anchor="start" x="226.5" y="-421.5" font-family="Helvetica,sans-Serif" font-size="10.00" fill="#000000">/AliceO2Group/AliceO2</text>
<text text-anchor="start" x="226.5" y="-410.5" font-family="Helvetica,sans-Serif" font-size="10.00" fill="#000000">/GPU/GPUTracking/dEdx</text>
<text text-anchor="middle" x="284.5" y="-399.5" font-family="Helvetica,sans-Serif" font-size="10.00" fill="#000000">/GPUdEdx.cxx</text>
</g>
<!-- Node1 -->
<g id="node2" class="node">
<title>Node1</title>
<g id="a_node2"><a xlink:href="../../dc/d55/GPUdEdx_8h.html" target="_top" xlink:title="GPUdEdx.h">
<polygon fill="none" stroke="#000000" points="249,-336.5 249,-355.5 320,-355.5 320,-336.5 249,-336.5"/>
<text text-anchor="middle" x="284.5" y="-343.5" font-family="Helvetica,sans-Serif" font-size="10.00" fill="#000000">GPUdEdx.h</text>
</a>
</g>
</g>
<!-- Node0&#45;&gt;Node1 -->
<g id="edge1" class="edge">
<title>Node0&#45;&gt;Node1</title>
<path fill="none" stroke="#191970" d="M284.5,-392.3258C284.5,-383.5142 284.5,-373.8397 284.5,-365.621"/>
<polygon fill="#191970" stroke="#191970" points="288.0001,-365.534 284.5,-355.534 281.0001,-365.534 288.0001,-365.534"/>
</g>
<!-- Node12 -->
<g id="node13" class="node">
<title>Node12</title>
<g id="a_node13"><a xlink:href="../../d6/d1b/GPUTPCGeometry_8h.html" target="_top" xlink:title="GPUTPCGeometry.h">
<polygon fill="none" stroke="#000000" points="98,-224.5 98,-243.5 211,-243.5 211,-224.5 98,-224.5"/>
<text text-anchor="middle" x="154.5" y="-231.5" font-family="Helvetica,sans-Serif" font-size="10.00" fill="#000000">GPUTPCGeometry.h</text>
</a>
</g>
</g>
<!-- Node0&#45;&gt;Node12 -->
<g id="edge29" class="edge">
<title>Node0&#45;&gt;Node12</title>
<path fill="none" stroke="#191970" d="M265.5802,-392.4128C257.5048,-381.2293 248.001,-368.002 239.5,-356 213.4192,-319.1781 183.3259,-275.7618 166.859,-251.9234"/>
<polygon fill="#191970" stroke="#191970" points="169.6241,-249.768 161.0629,-243.5264 163.8632,-253.7445 169.6241,-249.768"/>
</g>
<!-- Node16 -->
<g id="node17" class="node">
<title>Node16</title>
<g id="a_node17"><a xlink:href="../../df/d13/GPUParam_8h.html" target="_top" xlink:title="GPUParam.h">
<polygon fill="none" stroke="#000000" points="310,-280.5 310,-299.5 387,-299.5 387,-280.5 310,-280.5"/>
<text text-anchor="middle" x="348.5" y="-287.5" font-family="Helvetica,sans-Serif" font-size="10.00" fill="#000000">GPUParam.h</text>
</a>
</g>
</g>
<!-- Node0&#45;&gt;Node16 -->
<g id="edge34" class="edge">
<title>Node0&#45;&gt;Node16</title>
<path fill="none" stroke="#191970" d="M305.7646,-392.2939C313.7298,-381.5307 322.3334,-368.6423 328.5,-356 335.7173,-341.2037 340.9514,-323.2617 344.2505,-309.8218"/>
<polygon fill="#191970" stroke="#191970" points="347.7344,-310.2894 346.5678,-299.759 340.9129,-308.7185 347.7344,-310.2894"/>
</g>
<!-- Node20 -->
<g id="node21" class="node">
<title>Node20</title>
<g id="a_node21"><a xlink:href="../../d3/d1f/GPUdEdxInfo_8h.html" target="_top" xlink:title="GPUdEdxInfo.h">
<polygon fill="none" stroke="#000000" points="700,-280.5 700,-299.5 789,-299.5 789,-280.5 700,-280.5"/>
<text text-anchor="middle" x="744.5" y="-287.5" font-family="Helvetica,sans-Serif" font-size="10.00" fill="#000000">GPUdEdxInfo.h</text>
</a>
</g>
</g>
<!-- Node0&#45;&gt;Node20 -->
<g id="edge30" class="edge">
<title>Node0&#45;&gt;Node20</title>
<path fill="none" stroke="#191970" d="M350.8967,-399.9522C446.2174,-373.3246 619.2685,-324.9831 700.3525,-302.3325"/>
<polygon fill="#191970" stroke="#191970" points="701.5488,-305.6324 710.2384,-299.5709 699.6654,-298.8905 701.5488,-305.6324"/>
</g>
<!-- Node21 -->
<g id="node22" class="node">
<title>Node21</title>
<g id="a_node22"><a xlink:href="../../dd/d0b/GPUCommonAlgorithm_8h.html" target="_top" xlink:title="GPUCommonAlgorithm.h">
<polygon fill="none" stroke="#000000" points="0,-168.5 0,-187.5 139,-187.5 139,-168.5 0,-168.5"/>
<text text-anchor="middle" x="69.5" y="-175.5" font-family="Helvetica,sans-Serif" font-size="10.00" fill="#000000">GPUCommonAlgorithm.h</text>
</a>
</g>
</g>
<!-- Node0&#45;&gt;Node21 -->
<g id="edge31" class="edge">
<title>Node0&#45;&gt;Node21</title>
<path fill="none" stroke="#191970" d="M243.3944,-392.4192C198.8174,-362.047 128.669,-307.8107 88.5,-244 79.5782,-229.8272 74.7269,-211.3393 72.1653,-197.5374"/>
<polygon fill="#191970" stroke="#191970" points="75.6173,-196.9592 70.5677,-187.6452 68.7069,-198.0753 75.6173,-196.9592"/>
</g>
<!-- Node2 -->
<g id="node3" class="node">
<title>Node2</title>
<g id="a_node3"><a xlink:href="../../d2/d6d/GPUDef_8h.html" target="_top" xlink:title="GPUDef.h">
<polygon fill="none" stroke="#000000" points="593,-112.5 593,-131.5 656,-131.5 656,-112.5 593,-112.5"/>
<text text-anchor="middle" x="624.5" y="-119.5" font-family="Helvetica,sans-Serif" font-size="10.00" fill="#000000">GPUDef.h</text>
</a>
</g>
</g>
<!-- Node1&#45;&gt;Node2 -->
<g id="edge2" class="edge">
<title>Node1&#45;&gt;Node2</title>
<path fill="none" stroke="#191970" d="M320.0712,-340.3118C400.2789,-326.78 591.654,-290.3127 635.5,-244 659.0596,-219.1149 656.6604,-201.2825 648.5,-168 646.1257,-158.3164 641.3179,-148.4071 636.6247,-140.2776"/>
<polygon fill="#191970" stroke="#191970" points="639.5472,-138.3486 631.3208,-131.672 633.5881,-142.0214 639.5472,-138.3486"/>
</g>
<!-- Node1&#45;&gt;Node12 -->
<g id="edge12" class="edge">
<title>Node1&#45;&gt;Node12</title>
<path fill="none" stroke="#191970" d="M271.5859,-336.4411C259.4591,-327.3465 240.9242,-313.1391 225.5,-300 206.6512,-283.9437 186.0171,-264.5437 171.8752,-250.9465"/>
<polygon fill="#191970" stroke="#191970" points="173.983,-248.1161 164.3614,-243.6804 169.1169,-253.1481 173.983,-248.1161"/>
</g>
<!-- Node13 -->
<g id="node14" class="node">
<title>Node13</title>
<g id="a_node14"><a xlink:href="../../d6/da2/GPUCommonMath_8h.html" target="_top" xlink:title="GPUCommonMath.h">
<polygon fill="none" stroke="#000000" points="225,-168.5 225,-187.5 340,-187.5 340,-168.5 225,-168.5"/>
<text text-anchor="middle" x="282.5" y="-175.5" font-family="Helvetica,sans-Serif" font-size="10.00" fill="#000000">GPUCommonMath.h</text>
</a>
</g>
</g>
<!-- Node1&#45;&gt;Node13 -->
<g id="edge14" class="edge">
<title>Node1&#45;&gt;Node13</title>
<path fill="none" stroke="#191970" d="M284.3867,-336.4862C284.0706,-309.9293 283.1734,-234.5651 282.7401,-198.1655"/>
<polygon fill="#191970" stroke="#191970" points="286.2359,-197.7855 282.617,-187.8279 279.2364,-197.8689 286.2359,-197.7855"/>
</g>
<!-- Node1&#45;&gt;Node16 -->
<g id="edge18" class="edge">
<title>Node1&#45;&gt;Node16</title>
<path fill="none" stroke="#191970" d="M295.6479,-336.2455C305.0087,-328.0549 318.5858,-316.1749 329.6349,-306.5069"/>
<polygon fill="#191970" stroke="#191970" points="332.2588,-308.8618 337.4798,-299.6427 327.6492,-303.5937 332.2588,-308.8618"/>
</g>
<!-- Node1&#45;&gt;Node20 -->
<g id="edge28" class="edge">
<title>Node1&#45;&gt;Node20</title>
<path fill="none" stroke="#191970" d="M320.2563,-342.5489C390.4342,-335.6316 551.0789,-319.0875 685.5,-300 686.8018,-299.8151 688.1191,-299.6241 689.4472,-299.428"/>
<polygon fill="#191970" stroke="#191970" points="690.4096,-302.8213 699.7615,-297.8421 689.3457,-295.9026 690.4096,-302.8213"/>
</g>
<!-- Node3 -->
<g id="node4" class="node">
<title>Node3</title>
<g id="a_node4"><a xlink:href="../../df/d21/GPUCommonDef_8h.html" target="_top" xlink:title="GPUCommonDef.h">
<polygon fill="none" stroke="#000000" points="234,-56.5 234,-75.5 341,-75.5 341,-56.5 234,-56.5"/>
<text text-anchor="middle" x="287.5" y="-63.5" font-family="Helvetica,sans-Serif" font-size="10.00" fill="#000000">GPUCommonDef.h</text>
</a>
</g>
</g>
<!-- Node2&#45;&gt;Node3 -->
<g id="edge3" class="edge">
<title>Node2&#45;&gt;Node3</title>
<path fill="none" stroke="#191970" d="M592.7959,-116.7317C537.6331,-107.5651 423.0138,-88.5186 350.9799,-76.5486"/>
<polygon fill="#191970" stroke="#191970" points="351.5474,-73.095 341.1089,-74.9083 350.3998,-80.0003 351.5474,-73.095"/>
</g>
<!-- Node6 -->
<g id="node7" class="node">
<title>Node6</title>
<g id="a_node7"><a xlink:href="../../d2/d37/GPUDefConstantsAndSettings_8h.html" target="_top" xlink:title="GPUDefConstantsAndSettings.h">
<polygon fill="none" stroke="#000000" points="851,-56.5 851,-75.5 1022,-75.5 1022,-56.5 851,-56.5"/>
<text text-anchor="middle" x="936.5" y="-63.5" font-family="Helvetica,sans-Serif" font-size="10.00" fill="#000000">GPUDefConstantsAndSettings.h</text>
</a>
</g>
</g>
<!-- Node2&#45;&gt;Node6 -->
<g id="edge6" class="edge">
<title>Node2&#45;&gt;Node6</title>
<path fill="none" stroke="#191970" d="M656.1332,-116.3222C706.9711,-107.1975 807.8133,-89.0976 873.678,-77.2757"/>
<polygon fill="#191970" stroke="#191970" points="874.3091,-80.7185 883.5334,-75.5068 873.0724,-73.8286 874.3091,-80.7185"/>
</g>
<!-- Node7 -->
<g id="node8" class="node">
<title>Node7</title>
<g id="a_node8"><a xlink:href="../../dc/de9/GPUDefGPUParameters_8h.html" target="_top" xlink:title="GPUDefGPUParameters.h">
<polygon fill="none" stroke="#000000" points="367.5,-56.5 367.5,-75.5 507.5,-75.5 507.5,-56.5 367.5,-56.5"/>
<text text-anchor="middle" x="437.5" y="-63.5" font-family="Helvetica,sans-Serif" font-size="10.00" fill="#000000">GPUDefGPUParameters.h</text>
</a>
</g>
</g>
<!-- Node2&#45;&gt;Node7 -->
<g id="edge7" class="edge">
<title>Node2&#45;&gt;Node7</title>
<path fill="none" stroke="#191970" d="M592.778,-112.5004C561.4805,-103.1278 513.4672,-88.7495 479.1203,-78.4638"/>
<polygon fill="#191970" stroke="#191970" points="479.9614,-75.0622 469.3776,-75.5462 477.9532,-81.768 479.9614,-75.0622"/>
</g>
<!-- Node9 -->
<g id="node10" class="node">
<title>Node9</title>
<g id="a_node10"><a xlink:href="../../d3/d4c/GPUDefOpenCL12Templates_8h.html" target="_top" xlink:title="GPUDefOpenCL12Templates.h">
<polygon fill="none" stroke="#000000" points="525.5,-56.5 525.5,-75.5 689.5,-75.5 689.5,-56.5 525.5,-56.5"/>
<text text-anchor="middle" x="607.5" y="-63.5" font-family="Helvetica,sans-Serif" font-size="10.00" fill="#000000">GPUDefOpenCL12Templates.h</text>
</a>
</g>
</g>
<!-- Node2&#45;&gt;Node9 -->
<g id="edge9" class="edge">
<title>Node2&#45;&gt;Node9</title>
<path fill="none" stroke="#191970" d="M621.5388,-112.2455C619.2962,-104.8579 616.1423,-94.4689 613.3919,-85.4087"/>
<polygon fill="#191970" stroke="#191970" points="616.6812,-84.1948 610.4272,-75.6427 609.983,-86.2282 616.6812,-84.1948"/>
</g>
<!-- Node10 -->
<g id="node11" class="node">
<title>Node10</title>
<g id="a_node11"><a xlink:href="../../d2/d45/GPUCommonRtypes_8h.html" target="_top" xlink:title="GPUCommonRtypes.h">
<polygon fill="none" stroke="#000000" points="708,-56.5 708,-75.5 833,-75.5 833,-56.5 708,-56.5"/>
<text text-anchor="middle" x="770.5" y="-63.5" font-family="Helvetica,sans-Serif" font-size="10.00" fill="#000000">GPUCommonRtypes.h</text>
</a>
</g>
</g>
<!-- Node2&#45;&gt;Node10 -->
<g id="edge10" class="edge">
<title>Node2&#45;&gt;Node10</title>
<path fill="none" stroke="#191970" d="M649.5983,-112.3733C673.4555,-103.2226 709.5335,-89.3844 736.071,-79.2057"/>
<polygon fill="#191970" stroke="#191970" points="737.6459,-82.3503 745.7292,-75.5011 735.139,-75.8145 737.6459,-82.3503"/>
</g>
<!-- Node4 -->
<g id="node5" class="node">
<title>Node4</title>
<g id="a_node5"><a xlink:href="../../d5/d93/GPUCommonDefSettings_8h.html" target="_top" xlink:title="GPUCommonDefSettings.h">
<polygon fill="none" stroke="#000000" points="74.5,-.5 74.5,-19.5 222.5,-19.5 222.5,-.5 74.5,-.5"/>
<text text-anchor="middle" x="148.5" y="-7.5" font-family="Helvetica,sans-Serif" font-size="10.00" fill="#000000">GPUCommonDefSettings.h</text>
</a>
</g>
</g>
<!-- Node3&#45;&gt;Node4 -->
<g id="edge4" class="edge">
<title>Node3&#45;&gt;Node4</title>
<path fill="none" stroke="#191970" d="M263.605,-56.3733C240.9918,-47.2629 206.8458,-33.5062 181.6127,-23.3404"/>
<polygon fill="#191970" stroke="#191970" points="182.6666,-19.9917 172.0831,-19.5011 180.0507,-26.4845 182.6666,-19.9917"/>
</g>
<!-- Node5 -->
<g id="node6" class="node">
<title>Node5</title>
<g id="a_node6"><a xlink:href="../../da/d5a/GPUCommonDefAPI_8h.html" target="_top" xlink:title="GPUCommonDefAPI.h">
<polygon fill="none" stroke="#000000" points="240.5,-.5 240.5,-19.5 364.5,-19.5 364.5,-.5 240.5,-.5"/>
<text text-anchor="middle" x="302.5" y="-7.5" font-family="Helvetica,sans-Serif" font-size="10.00" fill="#000000">GPUCommonDefAPI.h</text>
</a>
</g>
</g>
<!-- Node3&#45;&gt;Node5 -->
<g id="edge5" class="edge">
<title>Node3&#45;&gt;Node5</title>
<path fill="none" stroke="#191970" d="M290.1128,-56.2455C292.0916,-48.8579 294.8744,-38.4689 297.3012,-29.4087"/>
<polygon fill="#191970" stroke="#191970" points="300.7105,-30.2078 299.9171,-19.6427 293.9489,-28.3966 300.7105,-30.2078"/>
</g>
<!-- Node8 -->
<g id="node9" class="node">
<title>Node8</title>
<g id="a_node9"><a xlink:href="../../d6/dff/GPUDefMacros_8h.html" target="_top" xlink:title="GPUDefMacros.h">
<polygon fill="none" stroke="#000000" points="388.5,-.5 388.5,-19.5 486.5,-19.5 486.5,-.5 388.5,-.5"/>
<text text-anchor="middle" x="437.5" y="-7.5" font-family="Helvetica,sans-Serif" font-size="10.00" fill="#000000">GPUDefMacros.h</text>
</a>
</g>
</g>
<!-- Node7&#45;&gt;Node8 -->
<g id="edge8" class="edge">
<title>Node7&#45;&gt;Node8</title>
<path fill="none" stroke="#191970" d="M437.5,-56.2455C437.5,-48.9382 437.5,-38.6944 437.5,-29.7046"/>
<polygon fill="#191970" stroke="#191970" points="441.0001,-29.6426 437.5,-19.6427 434.0001,-29.6427 441.0001,-29.6426"/>
</g>
<!-- Node11 -->
<g id="node12" class="node">
<title>Node11</title>
<polygon fill="none" stroke="#bfbfbf" points="741,-.5 741,-19.5 800,-19.5 800,-.5 741,-.5"/>
<text text-anchor="middle" x="770.5" y="-7.5" font-family="Helvetica,sans-Serif" font-size="10.00" fill="#000000">Rtypes.h</text>
</g>
<!-- Node10&#45;&gt;Node11 -->
<g id="edge11" class="edge">
<title>Node10&#45;&gt;Node11</title>
<path fill="none" stroke="#191970" d="M770.5,-56.2455C770.5,-48.9382 770.5,-38.6944 770.5,-29.7046"/>
<polygon fill="#191970" stroke="#191970" points="774.0001,-29.6426 770.5,-19.6427 767.0001,-29.6427 774.0001,-29.6426"/>
</g>
<!-- Node12&#45;&gt;Node3 -->
<g id="edge13" class="edge">
<title>Node12&#45;&gt;Node3</title>
<path fill="none" stroke="#191970" d="M154.3703,-224.1875C154.59,-201.6743 158.147,-145.6639 186.5,-112 199.6065,-96.4385 219.0845,-85.8882 237.4479,-78.8627"/>
<polygon fill="#191970" stroke="#191970" points="238.6577,-82.1473 246.9096,-75.5023 236.3149,-75.551 238.6577,-82.1473"/>
</g>
<!-- Node13&#45;&gt;Node3 -->
<g id="edge15" class="edge">
<title>Node13&#45;&gt;Node3</title>
<path fill="none" stroke="#191970" d="M282.9263,-168.4509C283.7418,-150.184 285.5377,-109.9553 286.6206,-85.6976"/>
<polygon fill="#191970" stroke="#191970" points="290.1252,-85.6711 287.0748,-75.5249 283.1322,-85.3588 290.1252,-85.6711"/>
</g>
<!-- Node14 -->
<g id="node15" class="node">
<title>Node14</title>
<polygon fill="none" stroke="#bfbfbf" points="316,-112.5 316,-131.5 363,-131.5 363,-112.5 316,-112.5"/>
<text text-anchor="middle" x="339.5" y="-119.5" font-family="Helvetica,sans-Serif" font-size="10.00" fill="#000000">cmath</text>
</g>
<!-- Node13&#45;&gt;Node14 -->
<g id="edge16" class="edge">
<title>Node13&#45;&gt;Node14</title>
<path fill="none" stroke="#191970" d="M292.4286,-168.2455C300.6838,-160.1352 312.6209,-148.4075 322.4082,-138.7919"/>
<polygon fill="#191970" stroke="#191970" points="325.0046,-141.1476 329.6851,-131.6427 320.0989,-136.1542 325.0046,-141.1476"/>
</g>
<!-- Node15 -->
<g id="node16" class="node">
<title>Node15</title>
<polygon fill="none" stroke="#bfbfbf" points="195.5,-112.5 195.5,-131.5 259.5,-131.5 259.5,-112.5 195.5,-112.5"/>
<text text-anchor="middle" x="227.5" y="-119.5" font-family="Helvetica,sans-Serif" font-size="10.00" fill="#000000">algorithm</text>
</g>
<!-- Node13&#45;&gt;Node15 -->
<g id="edge17" class="edge">
<title>Node13&#45;&gt;Node15</title>
<path fill="none" stroke="#191970" d="M272.9197,-168.2455C264.9542,-160.1352 253.4359,-148.4075 243.9921,-138.7919"/>
<polygon fill="#191970" stroke="#191970" points="246.4747,-136.3247 236.9705,-131.6427 241.4805,-141.2297 246.4747,-136.3247"/>
</g>
<!-- Node16&#45;&gt;Node2 -->
<g id="edge21" class="edge">
<title>Node16&#45;&gt;Node2</title>
<path fill="none" stroke="#191970" d="M387.2191,-288.9241C453.5252,-286.2066 584.5754,-276.7288 614.5,-244 639.8463,-216.2785 634.9599,-168.6799 629.5054,-141.8664"/>
<polygon fill="#191970" stroke="#191970" points="632.8406,-140.7467 627.2195,-131.766 626.0133,-142.2919 632.8406,-140.7467"/>
</g>
<!-- Node16&#45;&gt;Node3 -->
<g id="edge19" class="edge">
<title>Node16&#45;&gt;Node3</title>
<path fill="none" stroke="#191970" d="M365.5567,-280.377C377.8089,-272.4014 393.3708,-259.8248 400.5,-244 417.5839,-206.0784 429.4298,-186.3997 371.5,-112 360.1432,-97.4143 342.8073,-86.8215 326.8278,-79.5043"/>
<polygon fill="#191970" stroke="#191970" points="328.2021,-76.2855 317.6315,-75.5692 325.4483,-82.721 328.2021,-76.2855"/>
</g>
<!-- Node16&#45;&gt;Node12 -->
<g id="edge24" class="edge">
<title>Node16&#45;&gt;Node12</title>
<path fill="none" stroke="#191970" d="M315.1502,-280.3733C282.472,-270.9404 232.5382,-256.5265 197.023,-246.2747"/>
<polygon fill="#191970" stroke="#191970" points="197.993,-242.9119 187.4146,-243.5011 196.0516,-249.6373 197.993,-242.9119"/>
</g>
<!-- Node16&#45;&gt;Node13 -->
<g id="edge20" class="edge">
<title>Node16&#45;&gt;Node13</title>
<path fill="none" stroke="#191970" d="M332.8571,-280.2404C321.0296,-272.0269 305.3625,-259.203 296.5,-244 288.2966,-229.9277 284.8745,-211.6686 283.4598,-197.9238"/>
<polygon fill="#191970" stroke="#191970" points="286.9257,-197.3391 282.6827,-187.631 279.9456,-197.8661 286.9257,-197.3391"/>
</g>
<!-- Node17 -->
<g id="node18" class="node">
<title>Node17</title>
<g id="a_node18"><a xlink:href="../../dd/dc6/GPUSettings_8h.html" target="_top" xlink:title="GPUSettings.h">
<polygon fill="none" stroke="#000000" points="305.5,-224.5 305.5,-243.5 391.5,-243.5 391.5,-224.5 305.5,-224.5"/>
<text text-anchor="middle" x="348.5" y="-231.5" font-family="Helvetica,sans-Serif" font-size="10.00" fill="#000000">GPUSettings.h</text>
</a>
</g>
</g>
<!-- Node16&#45;&gt;Node17 -->
<g id="edge22" class="edge">
<title>Node16&#45;&gt;Node17</title>
<path fill="none" stroke="#191970" d="M348.5,-280.2455C348.5,-272.9382 348.5,-262.6944 348.5,-253.7046"/>
<polygon fill="#191970" stroke="#191970" points="352.0001,-253.6426 348.5,-243.6427 345.0001,-253.6427 352.0001,-253.6426"/>
</g>
<!-- Node18 -->
<g id="node19" class="node">
<title>Node18</title>
<g id="a_node19"><a xlink:href="../../d9/d9c/GPUTPCGMPolynomialField_8h.html" target="_top" xlink:title="GPUTPCGMPolynomialField.h">
<polygon fill="none" stroke="#000000" points="447.5,-224.5 447.5,-243.5 605.5,-243.5 605.5,-224.5 447.5,-224.5"/>
<text text-anchor="middle" x="526.5" y="-231.5" font-family="Helvetica,sans-Serif" font-size="10.00" fill="#000000">GPUTPCGMPolynomialField.h</text>
</a>
</g>
</g>
<!-- Node16&#45;&gt;Node18 -->
<g id="edge25" class="edge">
<title>Node16&#45;&gt;Node18</title>
<path fill="none" stroke="#191970" d="M379.0993,-280.3733C408.8261,-271.021 454.1159,-256.7725 486.6456,-246.5385"/>
<polygon fill="#191970" stroke="#191970" points="487.8113,-249.8409 496.3,-243.5011 485.7105,-243.1636 487.8113,-249.8409"/>
</g>
<!-- Node17&#45;&gt;Node13 -->
<g id="edge23" class="edge">
<title>Node17&#45;&gt;Node13</title>
<path fill="none" stroke="#191970" d="M337.0037,-224.2455C327.2558,-215.9746 313.0741,-203.9416 301.6202,-194.2232"/>
<polygon fill="#191970" stroke="#191970" points="303.7541,-191.4437 293.8646,-187.6427 299.2253,-196.7813 303.7541,-191.4437"/>
</g>
<!-- Node19 -->
<g id="node20" class="node">
<title>Node19</title>
<g id="a_node20"><a xlink:href="../../da/dab/GPUTPCDef_8h.html" target="_top" xlink:title="GPUTPCDef.h">
<polygon fill="none" stroke="#000000" points="504.5,-168.5 504.5,-187.5 586.5,-187.5 586.5,-168.5 504.5,-168.5"/>
<text text-anchor="middle" x="545.5" y="-175.5" font-family="Helvetica,sans-Serif" font-size="10.00" fill="#000000">GPUTPCDef.h</text>
</a>
</g>
</g>
<!-- Node18&#45;&gt;Node19 -->
<g id="edge26" class="edge">
<title>Node18&#45;&gt;Node19</title>
<path fill="none" stroke="#191970" d="M529.8095,-224.2455C532.3433,-216.7776 535.9177,-206.2427 539.015,-197.1137"/>
<polygon fill="#191970" stroke="#191970" points="542.3298,-198.237 542.2284,-187.6427 535.7009,-195.9879 542.3298,-198.237"/>
</g>
<!-- Node19&#45;&gt;Node2 -->
<g id="edge27" class="edge">
<title>Node19&#45;&gt;Node2</title>
<path fill="none" stroke="#191970" d="M559.2607,-168.2455C571.1552,-159.814 588.565,-147.4729 602.4085,-137.6598"/>
<polygon fill="#191970" stroke="#191970" points="604.7628,-140.2811 610.8969,-131.6427 600.7146,-134.5704 604.7628,-140.2811"/>
</g>
<!-- Node21&#45;&gt;Node3 -->
<g id="edge32" class="edge">
<title>Node21&#45;&gt;Node3</title>
<path fill="none" stroke="#191970" d="M79.561,-168.2219C94.5609,-154.1031 124.1765,-127.9557 153.5,-112 180.4166,-97.3539 212.8707,-86.0687 239.0979,-78.3418"/>
<polygon fill="#191970" stroke="#191970" points="240.1717,-81.675 248.8202,-75.5551 238.2429,-74.946 240.1717,-81.675"/>
</g>
<!-- Node21&#45;&gt;Node15 -->
<g id="edge33" class="edge">
<title>Node21&#45;&gt;Node15</title>
<path fill="none" stroke="#191970" d="M96.6612,-168.3733C122.7067,-159.1419 162.2116,-145.1402 190.9979,-134.9375"/>
<polygon fill="#191970" stroke="#191970" points="192.437,-138.1408 200.6933,-131.5011 190.0985,-131.5429 192.437,-138.1408"/>
</g>
</g>
</svg>
