<?xml version="1.0" encoding="UTF-8" standalone="no"?>
<!DOCTYPE svg PUBLIC "-//W3C//DTD SVG 1.1//EN"
 "http://www.w3.org/Graphics/SVG/1.1/DTD/svg11.dtd">
<!-- Generated by graphviz version 2.40.1 (20161225.0304)
 -->
<!-- Title: /home/travis/build/AliceO2Group/AliceO2/Detectors/MUON/MCH/Raw/ElecMap/include/MCHRawElecMap/FeeLinkId.h Pages: 1 -->
<svg width="2823pt" height="272pt"
 viewBox="0.00 0.00 2823.00 272.00" xmlns="http://www.w3.org/2000/svg" xmlns:xlink="http://www.w3.org/1999/xlink">
<g id="graph0" class="graph" transform="scale(1 1) rotate(0) translate(4 268)">
<title>/home/travis/build/AliceO2Group/AliceO2/Detectors/MUON/MCH/Raw/ElecMap/include/MCHRawElecMap/FeeLinkId.h</title>
<!-- Node3 -->
<g id="node1" class="node">
<title>Node3</title>
<polygon fill="#bfbfbf" stroke="#000000" points="1663.5,-200.5 1663.5,-263.5 1848.5,-263.5 1848.5,-200.5 1663.5,-200.5"/>
<text text-anchor="start" x="1671.5" y="-251.5" font-family="Helvetica,sans-Serif" font-size="10.00" fill="#000000">/home/travis/build</text>
<text text-anchor="start" x="1671.5" y="-240.5" font-family="Helvetica,sans-Serif" font-size="10.00" fill="#000000">/AliceO2Group/AliceO2</text>
<text text-anchor="start" x="1671.5" y="-229.5" font-family="Helvetica,sans-Serif" font-size="10.00" fill="#000000">/Detectors/MUON/MCH/Raw</text>
<text text-anchor="start" x="1671.5" y="-218.5" font-family="Helvetica,sans-Serif" font-size="10.00" fill="#000000">/ElecMap/include/MCHRawElecMap</text>
<text text-anchor="middle" x="1756" y="-207.5" font-family="Helvetica,sans-Serif" font-size="10.00" fill="#000000">/FeeLinkId.h</text>
</g>
<!-- Node4 -->
<g id="node2" class="node">
<title>Node4</title>
<g id="a_node2"><a xlink:href="../../db/d18/UserLogicEndpointDecoder_8h.html" target="_top" xlink:title="/home/travis/build\l/AliceO2Group/AliceO2\l/Detectors/MUON/MCH/Raw\l/Decoder/src/UserLogicEndpointDecoder.h">
<polygon fill="none" stroke="#000000" points="180,-106 180,-158 400,-158 400,-106 180,-106"/>
<text text-anchor="start" x="188" y="-146" font-family="Helvetica,sans-Serif" font-size="10.00" fill="#000000">/home/travis/build</text>
<text text-anchor="start" x="188" y="-135" font-family="Helvetica,sans-Serif" font-size="10.00" fill="#000000">/AliceO2Group/AliceO2</text>
<text text-anchor="start" x="188" y="-124" font-family="Helvetica,sans-Serif" font-size="10.00" fill="#000000">/Detectors/MUON/MCH/Raw</text>
<text text-anchor="middle" x="290" y="-113" font-family="Helvetica,sans-Serif" font-size="10.00" fill="#000000">/Decoder/src/UserLogicEndpointDecoder.h</text>
</a>
</g>
</g>
<!-- Node3&#45;&gt;Node4 -->
<g id="edge1" class="edge">
<title>Node3&#45;&gt;Node4</title>
<path fill="none" stroke="#191970" d="M1653.4063,-225.0018C1386.963,-206.8269 674.7117,-158.2423 400.0989,-139.5102"/>
<polygon fill="#191970" stroke="#191970" points="1653.2465,-228.4989 1663.4616,-225.6877 1653.723,-221.5152 1653.2465,-228.4989"/>
</g>
<!-- Node7 -->
<g id="node5" class="node">
<title>Node7</title>
<g id="a_node5"><a xlink:href="../../d2/d71/MUON_2MCH_2Raw_2ElecMap_2include_2MCHRawElecMap_2Mapper_8h.html" target="_top" xlink:title="/home/travis/build\l/AliceO2Group/AliceO2\l/Detectors/MUON/MCH/Raw\l/ElecMap/include/MCHRawElecMap\l/Mapper.h">
<polygon fill="none" stroke="#000000" points="924.5,-100.5 924.5,-163.5 1109.5,-163.5 1109.5,-100.5 924.5,-100.5"/>
<text text-anchor="start" x="932.5" y="-151.5" font-family="Helvetica,sans-Serif" font-size="10.00" fill="#000000">/home/travis/build</text>
<text text-anchor="start" x="932.5" y="-140.5" font-family="Helvetica,sans-Serif" font-size="10.00" fill="#000000">/AliceO2Group/AliceO2</text>
<text text-anchor="start" x="932.5" y="-129.5" font-family="Helvetica,sans-Serif" font-size="10.00" fill="#000000">/Detectors/MUON/MCH/Raw</text>
<text text-anchor="start" x="932.5" y="-118.5" font-family="Helvetica,sans-Serif" font-size="10.00" fill="#000000">/ElecMap/include/MCHRawElecMap</text>
<text text-anchor="middle" x="1017" y="-107.5" font-family="Helvetica,sans-Serif" font-size="10.00" fill="#000000">/Mapper.h</text>
</a>
</g>
</g>
<!-- Node3&#45;&gt;Node7 -->
<g id="edge4" class="edge">
<title>Node3&#45;&gt;Node7</title>
<path fill="none" stroke="#191970" d="M1652.9637,-218.0573C1508.6119,-198.5239 1248.3565,-163.3067 1109.7572,-144.5517"/>
<polygon fill="#191970" stroke="#191970" points="1652.7744,-221.5635 1663.1534,-219.4362 1653.7131,-214.6268 1652.7744,-221.5635"/>
</g>
<!-- Node8 -->
<g id="node6" class="node">
<title>Node8</title>
<g id="a_node6"><a xlink:href="../../d3/d4b/ElectronicMapperDummy_8cxx.html" target="_top" xlink:title="/home/travis/build\l/AliceO2Group/AliceO2\l/Detectors/MUON/MCH/Raw\l/ElecMap/src/ElectronicMapperDummy.cxx">
<polygon fill="none" stroke="#000000" points="1585,-6 1585,-58 1807,-58 1807,-6 1585,-6"/>
<text text-anchor="start" x="1593" y="-46" font-family="Helvetica,sans-Serif" font-size="10.00" fill="#000000">/home/travis/build</text>
<text text-anchor="start" x="1593" y="-35" font-family="Helvetica,sans-Serif" font-size="10.00" fill="#000000">/AliceO2Group/AliceO2</text>
<text text-anchor="start" x="1593" y="-24" font-family="Helvetica,sans-Serif" font-size="10.00" fill="#000000">/Detectors/MUON/MCH/Raw</text>
<text text-anchor="middle" x="1696" y="-13" font-family="Helvetica,sans-Serif" font-size="10.00" fill="#000000">/ElecMap/src/ElectronicMapperDummy.cxx</text>
</a>
</g>
</g>
<!-- Node3&#45;&gt;Node8 -->
<g id="edge20" class="edge">
<title>Node3&#45;&gt;Node8</title>
<path fill="none" stroke="#191970" d="M1754.2599,-190.395C1752.1264,-163.8848 1747.4076,-129.1647 1737,-100 1731.7645,-85.3287 1723.1625,-70.3603 1715.1861,-58.2156"/>
<polygon fill="#191970" stroke="#191970" points="1750.7769,-190.7605 1754.9801,-200.486 1757.7592,-190.2621 1750.7769,-190.7605"/>
</g>
<!-- Node15 -->
<g id="node13" class="node">
<title>Node15</title>
<g id="a_node13"><a xlink:href="../../dd/d04/CH_8cxx.html" target="_top" xlink:title="/home/travis/build\l/AliceO2Group/AliceO2\l/Detectors/MUON/MCH/Raw\l/ElecMap/src/CH.cxx">
<polygon fill="none" stroke="#000000" points="1993,-106 1993,-158 2143,-158 2143,-106 1993,-106"/>
<text text-anchor="start" x="2001" y="-146" font-family="Helvetica,sans-Serif" font-size="10.00" fill="#000000">/home/travis/build</text>
<text text-anchor="start" x="2001" y="-135" font-family="Helvetica,sans-Serif" font-size="10.00" fill="#000000">/AliceO2Group/AliceO2</text>
<text text-anchor="start" x="2001" y="-124" font-family="Helvetica,sans-Serif" font-size="10.00" fill="#000000">/Detectors/MUON/MCH/Raw</text>
<text text-anchor="middle" x="2068" y="-113" font-family="Helvetica,sans-Serif" font-size="10.00" fill="#000000">/ElecMap/src/CH.cxx</text>
</a>
</g>
</g>
<!-- Node3&#45;&gt;Node15 -->
<g id="edge13" class="edge">
<title>Node3&#45;&gt;Node15</title>
<path fill="none" stroke="#191970" d="M1858.3132,-199.2073C1902.1897,-185.1443 1952.5195,-169.013 1992.8712,-156.0797"/>
<polygon fill="#191970" stroke="#191970" points="1857.2201,-195.8822 1848.7655,-202.2675 1859.3567,-202.5482 1857.2201,-195.8822"/>
</g>
<!-- Node22 -->
<g id="node20" class="node">
<title>Node22</title>
<g id="a_node20"><a xlink:href="../../d4/d6a/ElectronicMapperImplHelper_8h.html" target="_top" xlink:title="/home/travis/build\l/AliceO2Group/AliceO2\l/Detectors/MUON/MCH/Raw\l/ElecMap/src/ElectronicMapperImpl\lHelper.h">
<polygon fill="none" stroke="#000000" points="1542,-100.5 1542,-163.5 1728,-163.5 1728,-100.5 1542,-100.5"/>
<text text-anchor="start" x="1550" y="-151.5" font-family="Helvetica,sans-Serif" font-size="10.00" fill="#000000">/home/travis/build</text>
<text text-anchor="start" x="1550" y="-140.5" font-family="Helvetica,sans-Serif" font-size="10.00" fill="#000000">/AliceO2Group/AliceO2</text>
<text text-anchor="start" x="1550" y="-129.5" font-family="Helvetica,sans-Serif" font-size="10.00" fill="#000000">/Detectors/MUON/MCH/Raw</text>
<text text-anchor="start" x="1550" y="-118.5" font-family="Helvetica,sans-Serif" font-size="10.00" fill="#000000">/ElecMap/src/ElectronicMapperImpl</text>
<text text-anchor="middle" x="1635" y="-107.5" font-family="Helvetica,sans-Serif" font-size="10.00" fill="#000000">Helper.h</text>
</a>
</g>
</g>
<!-- Node3&#45;&gt;Node22 -->
<g id="edge21" class="edge">
<title>Node3&#45;&gt;Node22</title>
<path fill="none" stroke="#191970" d="M1709.9409,-193.9347C1697.9006,-183.9839 1685.0498,-173.3634 1673.4514,-163.778"/>
<polygon fill="#191970" stroke="#191970" points="1707.7769,-196.6868 1717.7148,-200.3594 1712.2362,-191.291 1707.7769,-196.6868"/>
</g>
<!-- Node23 -->
<g id="node21" class="node">
<title>Node23</title>
<g id="a_node21"><a xlink:href="../../df/dc0/FeeLinkId_8cxx.html" target="_top" xlink:title="/home/travis/build\l/AliceO2Group/AliceO2\l/Detectors/MUON/MCH/Raw\l/ElecMap/src/FeeLinkId.cxx">
<polygon fill="none" stroke="#000000" points="2161,-106 2161,-158 2311,-158 2311,-106 2161,-106"/>
<text text-anchor="start" x="2169" y="-146" font-family="Helvetica,sans-Serif" font-size="10.00" fill="#000000">/home/travis/build</text>
<text text-anchor="start" x="2169" y="-135" font-family="Helvetica,sans-Serif" font-size="10.00" fill="#000000">/AliceO2Group/AliceO2</text>
<text text-anchor="start" x="2169" y="-124" font-family="Helvetica,sans-Serif" font-size="10.00" fill="#000000">/Detectors/MUON/MCH/Raw</text>
<text text-anchor="middle" x="2236" y="-113" font-family="Helvetica,sans-Serif" font-size="10.00" fill="#000000">/ElecMap/src/FeeLinkId.cxx</text>
</a>
</g>
</g>
<!-- Node3&#45;&gt;Node23 -->
<g id="edge24" class="edge">
<title>Node3&#45;&gt;Node23</title>
<path fill="none" stroke="#191970" d="M1858.885,-219.9036C1939.5245,-209.0916 2054.0841,-190.785 2152,-164 2158.3221,-162.2706 2164.8308,-160.2473 2171.2946,-158.0731"/>
<polygon fill="#191970" stroke="#191970" points="1858.1817,-216.4661 1848.7283,-221.2498 1859.1015,-223.4054 1858.1817,-216.4661"/>
</g>
<!-- Node24 -->
<g id="node22" class="node">
<title>Node24</title>
<g id="a_node22"><a xlink:href="../../d3/d47/testFeeLinkId_8cxx.html" target="_top" xlink:title="/home/travis/build\l/AliceO2Group/AliceO2\l/Detectors/MUON/MCH/Raw\l/ElecMap/src/testFeeLinkId.cxx">
<polygon fill="none" stroke="#000000" points="2329.5,-106 2329.5,-158 2494.5,-158 2494.5,-106 2329.5,-106"/>
<text text-anchor="start" x="2337.5" y="-146" font-family="Helvetica,sans-Serif" font-size="10.00" fill="#000000">/home/travis/build</text>
<text text-anchor="start" x="2337.5" y="-135" font-family="Helvetica,sans-Serif" font-size="10.00" fill="#000000">/AliceO2Group/AliceO2</text>
<text text-anchor="start" x="2337.5" y="-124" font-family="Helvetica,sans-Serif" font-size="10.00" fill="#000000">/Detectors/MUON/MCH/Raw</text>
<text text-anchor="middle" x="2412" y="-113" font-family="Helvetica,sans-Serif" font-size="10.00" fill="#000000">/ElecMap/src/testFeeLinkId.cxx</text>
</a>
</g>
</g>
<!-- Node3&#45;&gt;Node24 -->
<g id="edge25" class="edge">
<title>Node3&#45;&gt;Node24</title>
<path fill="none" stroke="#191970" d="M1858.9916,-226.2393C1972.943,-218.3309 2161.4367,-200.6857 2320,-164 2327.2493,-162.3228 2334.7244,-160.2768 2342.1335,-158.0384"/>
<polygon fill="#191970" stroke="#191970" points="1858.6192,-222.7565 1848.8806,-226.929 1859.0957,-229.7403 1858.6192,-222.7565"/>
</g>
<!-- Node5 -->
<g id="node3" class="node">
<title>Node5</title>
<g id="a_node3"><a xlink:href="../../df/dcf/PageDecoder_8cxx.html" target="_top" xlink:title="/home/travis/build\l/AliceO2Group/AliceO2\l/Detectors/MUON/MCH/Raw\l/Decoder/src/PageDecoder.cxx">
<polygon fill="none" stroke="#000000" points="208,-6 208,-58 372,-58 372,-6 208,-6"/>
<text text-anchor="start" x="216" y="-46" font-family="Helvetica,sans-Serif" font-size="10.00" fill="#000000">/home/travis/build</text>
<text text-anchor="start" x="216" y="-35" font-family="Helvetica,sans-Serif" font-size="10.00" fill="#000000">/AliceO2Group/AliceO2</text>
<text text-anchor="start" x="216" y="-24" font-family="Helvetica,sans-Serif" font-size="10.00" fill="#000000">/Detectors/MUON/MCH/Raw</text>
<text text-anchor="middle" x="290" y="-13" font-family="Helvetica,sans-Serif" font-size="10.00" fill="#000000">/Decoder/src/PageDecoder.cxx</text>
</a>
</g>
</g>
<!-- Node4&#45;&gt;Node5 -->
<g id="edge2" class="edge">
<title>Node4&#45;&gt;Node5</title>
<path fill="none" stroke="#191970" d="M290,-95.8962C290,-83.4433 290,-69.7413 290,-58.2299"/>
<polygon fill="#191970" stroke="#191970" points="286.5001,-95.9872 290,-105.9872 293.5001,-95.9873 286.5001,-95.9872"/>
</g>
<!-- Node6 -->
<g id="node4" class="node">
<title>Node6</title>
<g id="a_node4"><a xlink:href="../../d8/dcb/testUserLogicEndpointDecoder_8cxx.html" target="_top" xlink:title="/home/travis/build\l/AliceO2Group/AliceO2\l/Detectors/MUON/MCH/Raw\l/Decoder/src/testUserLogicEndpoint\lDecoder.cxx">
<polygon fill="none" stroke="#000000" points="0,-.5 0,-63.5 190,-63.5 190,-.5 0,-.5"/>
<text text-anchor="start" x="8" y="-51.5" font-family="Helvetica,sans-Serif" font-size="10.00" fill="#000000">/home/travis/build</text>
<text text-anchor="start" x="8" y="-40.5" font-family="Helvetica,sans-Serif" font-size="10.00" fill="#000000">/AliceO2Group/AliceO2</text>
<text text-anchor="start" x="8" y="-29.5" font-family="Helvetica,sans-Serif" font-size="10.00" fill="#000000">/Detectors/MUON/MCH/Raw</text>
<text text-anchor="start" x="8" y="-18.5" font-family="Helvetica,sans-Serif" font-size="10.00" fill="#000000">/Decoder/src/testUserLogicEndpoint</text>
<text text-anchor="middle" x="95" y="-7.5" font-family="Helvetica,sans-Serif" font-size="10.00" fill="#000000">Decoder.cxx</text>
</a>
</g>
</g>
<!-- Node4&#45;&gt;Node6 -->
<g id="edge3" class="edge">
<title>Node4&#45;&gt;Node6</title>
<path fill="none" stroke="#191970" d="M230.1774,-101.3218C206.8415,-89.3546 180.1026,-75.6423 156.5988,-63.5891"/>
<polygon fill="#191970" stroke="#191970" points="228.7798,-104.5384 239.2751,-105.9872 231.974,-98.3096 228.7798,-104.5384"/>
</g>
<!-- Node7&#45;&gt;Node5 -->
<g id="edge5" class="edge">
<title>Node7&#45;&gt;Node5</title>
<path fill="none" stroke="#191970" d="M914.1876,-128.3225C787.4359,-122.1208 566.0768,-105.8394 381,-64 373.8127,-62.3752 366.4078,-60.3636 359.0724,-58.1462"/>
<polygon fill="#191970" stroke="#191970" points="914.119,-131.8231 924.2747,-128.8045 914.4532,-124.8311 914.119,-131.8231"/>
</g>
<!-- Node7&#45;&gt;Node8 -->
<g id="edge6" class="edge">
<title>Node7&#45;&gt;Node8</title>
<path fill="none" stroke="#191970" d="M1119.6021,-123.8454C1232.2323,-113.8907 1418.0646,-94.5095 1576,-64 1584.9972,-62.2619 1594.3145,-60.219 1603.5974,-58.0203"/>
<polygon fill="#191970" stroke="#191970" points="1119.2634,-120.3615 1109.607,-124.721 1119.8744,-127.3348 1119.2634,-120.3615"/>
</g>
<!-- Node9 -->
<g id="node7" class="node">
<title>Node9</title>
<g id="a_node7"><a xlink:href="../../d1/d4a/ElectronicMapperGenerated_8cxx.html" target="_top" xlink:title="/home/travis/build\l/AliceO2Group/AliceO2\l/Detectors/MUON/MCH/Raw\l/ElecMap/src/ElectronicMapperGenerated.cxx">
<polygon fill="none" stroke="#000000" points="1331,-6 1331,-58 1567,-58 1567,-6 1331,-6"/>
<text text-anchor="start" x="1339" y="-46" font-family="Helvetica,sans-Serif" font-size="10.00" fill="#000000">/home/travis/build</text>
<text text-anchor="start" x="1339" y="-35" font-family="Helvetica,sans-Serif" font-size="10.00" fill="#000000">/AliceO2Group/AliceO2</text>
<text text-anchor="start" x="1339" y="-24" font-family="Helvetica,sans-Serif" font-size="10.00" fill="#000000">/Detectors/MUON/MCH/Raw</text>
<text text-anchor="middle" x="1449" y="-13" font-family="Helvetica,sans-Serif" font-size="10.00" fill="#000000">/ElecMap/src/ElectronicMapperGenerated.cxx</text>
</a>
</g>
</g>
<!-- Node7&#45;&gt;Node9 -->
<g id="edge7" class="edge">
<title>Node7&#45;&gt;Node9</title>
<path fill="none" stroke="#191970" d="M1119.6669,-109.7022C1178.6534,-96.7244 1254.0881,-79.8449 1321,-64 1329.0243,-62.0998 1337.323,-60.1013 1345.6603,-58.0695"/>
<polygon fill="#191970" stroke="#191970" points="1118.6153,-106.3497 1109.5995,-111.9145 1120.1177,-113.1866 1118.6153,-106.3497"/>
</g>
<!-- Node10 -->
<g id="node8" class="node">
<title>Node10</title>
<g id="a_node8"><a xlink:href="../../df/d54/MUON_2MCH_2Raw_2ElecMap_2src_2Mapper_8cxx.html" target="_top" xlink:title="/home/travis/build\l/AliceO2Group/AliceO2\l/Detectors/MUON/MCH/Raw\l/ElecMap/src/Mapper.cxx">
<polygon fill="none" stroke="#000000" points="942,-6 942,-58 1092,-58 1092,-6 942,-6"/>
<text text-anchor="start" x="950" y="-46" font-family="Helvetica,sans-Serif" font-size="10.00" fill="#000000">/home/travis/build</text>
<text text-anchor="start" x="950" y="-35" font-family="Helvetica,sans-Serif" font-size="10.00" fill="#000000">/AliceO2Group/AliceO2</text>
<text text-anchor="start" x="950" y="-24" font-family="Helvetica,sans-Serif" font-size="10.00" fill="#000000">/Detectors/MUON/MCH/Raw</text>
<text text-anchor="middle" x="1017" y="-13" font-family="Helvetica,sans-Serif" font-size="10.00" fill="#000000">/ElecMap/src/Mapper.cxx</text>
</a>
</g>
</g>
<!-- Node7&#45;&gt;Node10 -->
<g id="edge8" class="edge">
<title>Node7&#45;&gt;Node10</title>
<path fill="none" stroke="#191970" d="M1017,-90.1631C1017,-79.2863 1017,-67.8798 1017,-58.078"/>
<polygon fill="#191970" stroke="#191970" points="1013.5001,-90.3593 1017,-100.3594 1020.5001,-90.3594 1013.5001,-90.3593"/>
</g>
<!-- Node11 -->
<g id="node9" class="node">
<title>Node11</title>
<g id="a_node9"><a xlink:href="../../d2/da7/testElectronicMapper_8cxx.html" target="_top" xlink:title="/home/travis/build\l/AliceO2Group/AliceO2\l/Detectors/MUON/MCH/Raw\l/ElecMap/src/testElectronicMapper.cxx">
<polygon fill="none" stroke="#000000" points="1109.5,-6 1109.5,-58 1312.5,-58 1312.5,-6 1109.5,-6"/>
<text text-anchor="start" x="1117.5" y="-46" font-family="Helvetica,sans-Serif" font-size="10.00" fill="#000000">/home/travis/build</text>
<text text-anchor="start" x="1117.5" y="-35" font-family="Helvetica,sans-Serif" font-size="10.00" fill="#000000">/AliceO2Group/AliceO2</text>
<text text-anchor="start" x="1117.5" y="-24" font-family="Helvetica,sans-Serif" font-size="10.00" fill="#000000">/Detectors/MUON/MCH/Raw</text>
<text text-anchor="middle" x="1211" y="-13" font-family="Helvetica,sans-Serif" font-size="10.00" fill="#000000">/ElecMap/src/testElectronicMapper.cxx</text>
</a>
</g>
</g>
<!-- Node7&#45;&gt;Node11 -->
<g id="edge9" class="edge">
<title>Node7&#45;&gt;Node11</title>
<path fill="none" stroke="#191970" d="M1087.2452,-95.7911C1111.4069,-83.3367 1137.9712,-69.6437 1160.2733,-58.1478"/>
<polygon fill="#191970" stroke="#191970" points="1085.4015,-92.8038 1078.1165,-100.4966 1088.6088,-99.0258 1085.4015,-92.8038"/>
</g>
<!-- Node12 -->
<g id="node10" class="node">
<title>Node12</title>
<g id="a_node10"><a xlink:href="../../d4/dbc/rawdump_8cxx.html" target="_top" xlink:title="/home/travis/build\l/AliceO2Group/AliceO2\l/Detectors/MUON/MCH/Raw\l/Tools/rawdump.cxx">
<polygon fill="none" stroke="#000000" points="390,-6 390,-58 540,-58 540,-6 390,-6"/>
<text text-anchor="start" x="398" y="-46" font-family="Helvetica,sans-Serif" font-size="10.00" fill="#000000">/home/travis/build</text>
<text text-anchor="start" x="398" y="-35" font-family="Helvetica,sans-Serif" font-size="10.00" fill="#000000">/AliceO2Group/AliceO2</text>
<text text-anchor="start" x="398" y="-24" font-family="Helvetica,sans-Serif" font-size="10.00" fill="#000000">/Detectors/MUON/MCH/Raw</text>
<text text-anchor="middle" x="465" y="-13" font-family="Helvetica,sans-Serif" font-size="10.00" fill="#000000">/Tools/rawdump.cxx</text>
</a>
</g>
</g>
<!-- Node7&#45;&gt;Node12 -->
<g id="edge10" class="edge">
<title>Node7&#45;&gt;Node12</title>
<path fill="none" stroke="#191970" d="M914.3774,-123.6282C818.69,-114.2901 672.5675,-96.0967 549,-64 542.5051,-62.3129 535.8221,-60.2898 529.1975,-58.0911"/>
<polygon fill="#191970" stroke="#191970" points="914.0544,-127.1132 924.3435,-124.5866 914.7245,-120.1453 914.0544,-127.1132"/>
</g>
<!-- Node13 -->
<g id="node11" class="node">
<title>Node13</title>
<g id="a_node11"><a xlink:href="../../d0/d75/DataDecoderSpec_8cxx.html" target="_top" xlink:title="/home/travis/build\l/AliceO2Group/AliceO2\l/Detectors/MUON/MCH/Workflow\l/src/DataDecoderSpec.cxx">
<polygon fill="none" stroke="#000000" points="558,-6 558,-58 732,-58 732,-6 558,-6"/>
<text text-anchor="start" x="566" y="-46" font-family="Helvetica,sans-Serif" font-size="10.00" fill="#000000">/home/travis/build</text>
<text text-anchor="start" x="566" y="-35" font-family="Helvetica,sans-Serif" font-size="10.00" fill="#000000">/AliceO2Group/AliceO2</text>
<text text-anchor="start" x="566" y="-24" font-family="Helvetica,sans-Serif" font-size="10.00" fill="#000000">/Detectors/MUON/MCH/Workflow</text>
<text text-anchor="middle" x="645" y="-13" font-family="Helvetica,sans-Serif" font-size="10.00" fill="#000000">/src/DataDecoderSpec.cxx</text>
</a>
</g>
</g>
<!-- Node7&#45;&gt;Node13 -->
<g id="edge11" class="edge">
<title>Node7&#45;&gt;Node13</title>
<path fill="none" stroke="#191970" d="M914.2633,-108.7576C862.1021,-96.4342 797.8931,-80.4621 741,-64 734.5871,-62.1444 727.9629,-60.1347 721.3312,-58.0574"/>
<polygon fill="#191970" stroke="#191970" points="913.6574,-112.2106 924.1932,-111.094 915.2607,-105.3967 913.6574,-112.2106"/>
</g>
<!-- Node14 -->
<g id="node12" class="node">
<title>Node14</title>
<g id="a_node12"><a xlink:href="../../db/d1c/file-to-digits-workflow_8cxx.html" target="_top" xlink:title="/home/travis/build\l/AliceO2Group/AliceO2\l/Detectors/MUON/MCH/Workflow\l/src/file&#45;to&#45;digits&#45;workflow.cxx">
<polygon fill="none" stroke="#000000" points="750,-6 750,-58 924,-58 924,-6 750,-6"/>
<text text-anchor="start" x="758" y="-46" font-family="Helvetica,sans-Serif" font-size="10.00" fill="#000000">/home/travis/build</text>
<text text-anchor="start" x="758" y="-35" font-family="Helvetica,sans-Serif" font-size="10.00" fill="#000000">/AliceO2Group/AliceO2</text>
<text text-anchor="start" x="758" y="-24" font-family="Helvetica,sans-Serif" font-size="10.00" fill="#000000">/Detectors/MUON/MCH/Workflow</text>
<text text-anchor="middle" x="837" y="-13" font-family="Helvetica,sans-Serif" font-size="10.00" fill="#000000">/src/file&#45;to&#45;digits&#45;workflow.cxx</text>
</a>
</g>
</g>
<!-- Node7&#45;&gt;Node14 -->
<g id="edge12" class="edge">
<title>Node7&#45;&gt;Node14</title>
<path fill="none" stroke="#191970" d="M951.2867,-95.4926C928.9672,-83.0929 904.4938,-69.4965 883.9403,-58.078"/>
<polygon fill="#191970" stroke="#191970" points="949.6055,-98.5624 960.0469,-100.3594 953.0051,-92.4433 949.6055,-98.5624"/>
</g>
<!-- Node16 -->
<g id="node14" class="node">
<title>Node16</title>
<g id="a_node14"><a xlink:href="../../d3/ddc/CH5L_8cxx.html" target="_top" xlink:title="/home/travis/build\l/AliceO2Group/AliceO2\l/Detectors/MUON/MCH/Raw\l/ElecMap/src/CH5L.cxx">
<polygon fill="none" stroke="#000000" points="2329,-6 2329,-58 2479,-58 2479,-6 2329,-6"/>
<text text-anchor="start" x="2337" y="-46" font-family="Helvetica,sans-Serif" font-size="10.00" fill="#000000">/home/travis/build</text>
<text text-anchor="start" x="2337" y="-35" font-family="Helvetica,sans-Serif" font-size="10.00" fill="#000000">/AliceO2Group/AliceO2</text>
<text text-anchor="start" x="2337" y="-24" font-family="Helvetica,sans-Serif" font-size="10.00" fill="#000000">/Detectors/MUON/MCH/Raw</text>
<text text-anchor="middle" x="2404" y="-13" font-family="Helvetica,sans-Serif" font-size="10.00" fill="#000000">/ElecMap/src/CH5L.cxx</text>
</a>
</g>
</g>
<!-- Node15&#45;&gt;Node16 -->
<g id="edge14" class="edge">
<title>Node15&#45;&gt;Node16</title>
<path fill="none" stroke="#191970" d="M2143.1978,-102.7199C2146.1588,-101.7684 2149.1005,-100.8575 2152,-100 2225.2267,-78.3446 2246.7733,-85.6554 2320,-64 2325.986,-62.2297 2332.1522,-60.2315 2338.296,-58.1196"/>
<polygon fill="#191970" stroke="#191970" points="2142.0865,-99.4009 2133.704,-105.8804 2144.2976,-106.0426 2142.0865,-99.4009"/>
</g>
<!-- Node17 -->
<g id="node15" class="node">
<title>Node17</title>
<g id="a_node15"><a xlink:href="../../df/d85/CH5R_8cxx.html" target="_top" xlink:title="/home/travis/build\l/AliceO2Group/AliceO2\l/Detectors/MUON/MCH/Raw\l/ElecMap/src/CH5R.cxx">
<polygon fill="none" stroke="#000000" points="2497,-6 2497,-58 2647,-58 2647,-6 2497,-6"/>
<text text-anchor="start" x="2505" y="-46" font-family="Helvetica,sans-Serif" font-size="10.00" fill="#000000">/home/travis/build</text>
<text text-anchor="start" x="2505" y="-35" font-family="Helvetica,sans-Serif" font-size="10.00" fill="#000000">/AliceO2Group/AliceO2</text>
<text text-anchor="start" x="2505" y="-24" font-family="Helvetica,sans-Serif" font-size="10.00" fill="#000000">/Detectors/MUON/MCH/Raw</text>
<text text-anchor="middle" x="2572" y="-13" font-family="Helvetica,sans-Serif" font-size="10.00" fill="#000000">/ElecMap/src/CH5R.cxx</text>
</a>
</g>
</g>
<!-- Node15&#45;&gt;Node17 -->
<g id="edge15" class="edge">
<title>Node15&#45;&gt;Node17</title>
<path fill="none" stroke="#191970" d="M2140.9934,-102.9303C2144.6893,-101.8565 2148.3721,-100.87 2152,-100 2298.0475,-64.9776 2341.9525,-99.0224 2488,-64 2494.829,-62.3624 2501.8526,-60.3118 2508.7916,-58.0439"/>
<polygon fill="#191970" stroke="#191970" points="2139.728,-99.658 2131.2084,-105.9561 2141.7961,-106.3455 2139.728,-99.658"/>
</g>
<!-- Node18 -->
<g id="node16" class="node">
<title>Node18</title>
<g id="a_node16"><a xlink:href="../../d9/d57/CH6R_8cxx.html" target="_top" xlink:title="/home/travis/build\l/AliceO2Group/AliceO2\l/Detectors/MUON/MCH/Raw\l/ElecMap/src/CH6R.cxx">
<polygon fill="none" stroke="#000000" points="2665,-6 2665,-58 2815,-58 2815,-6 2665,-6"/>
<text text-anchor="start" x="2673" y="-46" font-family="Helvetica,sans-Serif" font-size="10.00" fill="#000000">/home/travis/build</text>
<text text-anchor="start" x="2673" y="-35" font-family="Helvetica,sans-Serif" font-size="10.00" fill="#000000">/AliceO2Group/AliceO2</text>
<text text-anchor="start" x="2673" y="-24" font-family="Helvetica,sans-Serif" font-size="10.00" fill="#000000">/Detectors/MUON/MCH/Raw</text>
<text text-anchor="middle" x="2740" y="-13" font-family="Helvetica,sans-Serif" font-size="10.00" fill="#000000">/ElecMap/src/CH6R.cxx</text>
</a>
</g>
</g>
<!-- Node15&#45;&gt;Node18 -->
<g id="edge16" class="edge">
<title>Node15&#45;&gt;Node18</title>
<path fill="none" stroke="#191970" d="M2140.3754,-102.9341C2144.2758,-101.8378 2148.1668,-100.8477 2152,-100 2371.2729,-51.5087 2436.7271,-112.4913 2656,-64 2663.0093,-62.4499 2670.2117,-60.4237 2677.3117,-58.1425"/>
<polygon fill="#191970" stroke="#191970" points="2139.2507,-99.6176 2130.6883,-105.8575 2141.2731,-106.3191 2139.2507,-99.6176"/>
</g>
<!-- Node19 -->
<g id="node17" class="node">
<title>Node19</title>
<g id="a_node17"><a xlink:href="../../df/df9/CH7L_8cxx.html" target="_top" xlink:title="/home/travis/build\l/AliceO2Group/AliceO2\l/Detectors/MUON/MCH/Raw\l/ElecMap/src/CH7L.cxx">
<polygon fill="none" stroke="#000000" points="1825,-6 1825,-58 1975,-58 1975,-6 1825,-6"/>
<text text-anchor="start" x="1833" y="-46" font-family="Helvetica,sans-Serif" font-size="10.00" fill="#000000">/home/travis/build</text>
<text text-anchor="start" x="1833" y="-35" font-family="Helvetica,sans-Serif" font-size="10.00" fill="#000000">/AliceO2Group/AliceO2</text>
<text text-anchor="start" x="1833" y="-24" font-family="Helvetica,sans-Serif" font-size="10.00" fill="#000000">/Detectors/MUON/MCH/Raw</text>
<text text-anchor="middle" x="1900" y="-13" font-family="Helvetica,sans-Serif" font-size="10.00" fill="#000000">/ElecMap/src/CH7L.cxx</text>
</a>
</g>
</g>
<!-- Node15&#45;&gt;Node19 -->
<g id="edge17" class="edge">
<title>Node15&#45;&gt;Node19</title>
<path fill="none" stroke="#191970" d="M2015.6548,-100.8422C1992.5782,-87.106 1965.768,-71.1476 1943.7742,-58.0561"/>
<polygon fill="#191970" stroke="#191970" points="2013.9154,-103.8799 2024.2985,-105.9872 2017.4958,-97.8648 2013.9154,-103.8799"/>
</g>
<!-- Node20 -->
<g id="node18" class="node">
<title>Node20</title>
<g id="a_node18"><a xlink:href="../../d7/daf/CH7R_8cxx.html" target="_top" xlink:title="/home/travis/build\l/AliceO2Group/AliceO2\l/Detectors/MUON/MCH/Raw\l/ElecMap/src/CH7R.cxx">
<polygon fill="none" stroke="#000000" points="1993,-6 1993,-58 2143,-58 2143,-6 1993,-6"/>
<text text-anchor="start" x="2001" y="-46" font-family="Helvetica,sans-Serif" font-size="10.00" fill="#000000">/home/travis/build</text>
<text text-anchor="start" x="2001" y="-35" font-family="Helvetica,sans-Serif" font-size="10.00" fill="#000000">/AliceO2Group/AliceO2</text>
<text text-anchor="start" x="2001" y="-24" font-family="Helvetica,sans-Serif" font-size="10.00" fill="#000000">/Detectors/MUON/MCH/Raw</text>
<text text-anchor="middle" x="2068" y="-13" font-family="Helvetica,sans-Serif" font-size="10.00" fill="#000000">/ElecMap/src/CH7R.cxx</text>
</a>
</g>
</g>
<!-- Node15&#45;&gt;Node20 -->
<g id="edge18" class="edge">
<title>Node15&#45;&gt;Node20</title>
<path fill="none" stroke="#191970" d="M2068,-95.8962C2068,-83.4433 2068,-69.7413 2068,-58.2299"/>
<polygon fill="#191970" stroke="#191970" points="2064.5001,-95.9872 2068,-105.9872 2071.5001,-95.9873 2064.5001,-95.9872"/>
</g>
<!-- Node21 -->
<g id="node19" class="node">
<title>Node21</title>
<g id="a_node19"><a xlink:href="../../d9/d44/CH8L_8cxx.html" target="_top" xlink:title="/home/travis/build\l/AliceO2Group/AliceO2\l/Detectors/MUON/MCH/Raw\l/ElecMap/src/CH8L.cxx">
<polygon fill="none" stroke="#000000" points="2161,-6 2161,-58 2311,-58 2311,-6 2161,-6"/>
<text text-anchor="start" x="2169" y="-46" font-family="Helvetica,sans-Serif" font-size="10.00" fill="#000000">/home/travis/build</text>
<text text-anchor="start" x="2169" y="-35" font-family="Helvetica,sans-Serif" font-size="10.00" fill="#000000">/AliceO2Group/AliceO2</text>
<text text-anchor="start" x="2169" y="-24" font-family="Helvetica,sans-Serif" font-size="10.00" fill="#000000">/Detectors/MUON/MCH/Raw</text>
<text text-anchor="middle" x="2236" y="-13" font-family="Helvetica,sans-Serif" font-size="10.00" fill="#000000">/ElecMap/src/CH8L.cxx</text>
</a>
</g>
</g>
<!-- Node15&#45;&gt;Node21 -->
<g id="edge19" class="edge">
<title>Node15&#45;&gt;Node21</title>
<path fill="none" stroke="#191970" d="M2120.3452,-100.8422C2143.4218,-87.106 2170.232,-71.1476 2192.2258,-58.0561"/>
<polygon fill="#191970" stroke="#191970" points="2118.5042,-97.8648 2111.7015,-105.9872 2122.0846,-103.8799 2118.5042,-97.8648"/>
</g>
<!-- Node22&#45;&gt;Node8 -->
<g id="edge22" class="edge">
<title>Node22&#45;&gt;Node8</title>
<path fill="none" stroke="#191970" d="M1659.7015,-91.5058C1666.5799,-80.2297 1673.8668,-68.284 1680.0924,-58.078"/>
<polygon fill="#191970" stroke="#191970" points="1656.5205,-89.9997 1654.3008,-100.3594 1662.4964,-93.645 1656.5205,-89.9997"/>
</g>
<!-- Node22&#45;&gt;Node9 -->
<g id="edge23" class="edge">
<title>Node22&#45;&gt;Node9</title>
<path fill="none" stroke="#191970" d="M1567.3452,-95.6265C1544.2619,-83.2161 1518.9231,-69.5931 1497.6349,-58.1478"/>
<polygon fill="#191970" stroke="#191970" points="1565.9386,-98.8439 1576.4037,-100.4966 1569.2534,-92.6785 1565.9386,-98.8439"/>
</g>
</g>
</svg>
