<?xml version="1.0" encoding="UTF-8" standalone="no"?>
<!DOCTYPE svg PUBLIC "-//W3C//DTD SVG 1.1//EN"
 "http://www.w3.org/Graphics/SVG/1.1/DTD/svg11.dtd">
<!-- Generated by graphviz version 2.40.1 (20161225.0304)
 -->
<!-- Title: o2::framework::AnalysisDataProcessorBuilder::GroupSlicer&lt; G, A &gt;::GroupSlicerIterator Pages: 1 -->
<svg width="910pt" height="369pt"
 viewBox="0.00 0.00 910.00 369.00" xmlns="http://www.w3.org/2000/svg" xmlns:xlink="http://www.w3.org/1999/xlink">
<g id="graph0" class="graph" transform="scale(1 1) rotate(0) translate(4 365)">
<title>o2::framework::AnalysisDataProcessorBuilder::GroupSlicer&lt; G, A &gt;::GroupSlicerIterator</title>
<!-- Node1 -->
<g id="node1" class="node">
<title>Node1</title>
<polygon fill="#bfbfbf" stroke="#000000" points="351.5,-.5 351.5,-233.5 512.5,-233.5 512.5,-.5 351.5,-.5"/>
<text text-anchor="start" x="359.5" y="-221.5" font-family="Helvetica,sans-Serif" font-size="10.00" fill="#000000">o2::framework::AnalysisData</text>
<text text-anchor="start" x="359.5" y="-210.5" font-family="Helvetica,sans-Serif" font-size="10.00" fill="#000000">ProcessorBuilder::GroupSlicer</text>
<text text-anchor="middle" x="432" y="-199.5" font-family="Helvetica,sans-Serif" font-size="10.00" fill="#000000">&lt; G, A &gt;::GroupSlicerIterator</text>
<polyline fill="none" stroke="#000000" points="351.5,-192.5 512.5,-192.5 "/>
<text text-anchor="middle" x="432" y="-180.5" font-family="Helvetica,sans-Serif" font-size="10.00" fill="#000000"> </text>
<polyline fill="none" stroke="#000000" points="351.5,-173.5 512.5,-173.5 "/>
<text text-anchor="start" x="359.5" y="-161.5" font-family="Helvetica,sans-Serif" font-size="10.00" fill="#000000">+ GroupSlicerIterator()</text>
<text text-anchor="start" x="359.5" y="-150.5" font-family="Helvetica,sans-Serif" font-size="10.00" fill="#000000">+ GroupSlicerIterator()</text>
<text text-anchor="start" x="359.5" y="-139.5" font-family="Helvetica,sans-Serif" font-size="10.00" fill="#000000">+ GroupSlicerIterator()</text>
<text text-anchor="start" x="359.5" y="-128.5" font-family="Helvetica,sans-Serif" font-size="10.00" fill="#000000">+ operator=()</text>
<text text-anchor="start" x="359.5" y="-117.5" font-family="Helvetica,sans-Serif" font-size="10.00" fill="#000000">+ operator=()</text>
<text text-anchor="start" x="359.5" y="-106.5" font-family="Helvetica,sans-Serif" font-size="10.00" fill="#000000">+ GroupSlicerIterator()</text>
<text text-anchor="start" x="359.5" y="-95.5" font-family="Helvetica,sans-Serif" font-size="10.00" fill="#000000">+ hasIndexTo()</text>
<text text-anchor="start" x="359.5" y="-84.5" font-family="Helvetica,sans-Serif" font-size="10.00" fill="#000000">+ isIndexTo()</text>
<text text-anchor="start" x="359.5" y="-73.5" font-family="Helvetica,sans-Serif" font-size="10.00" fill="#000000">+ operator++()</text>
<text text-anchor="start" x="359.5" y="-62.5" font-family="Helvetica,sans-Serif" font-size="10.00" fill="#000000">+ operator==()</text>
<text text-anchor="start" x="359.5" y="-51.5" font-family="Helvetica,sans-Serif" font-size="10.00" fill="#000000">+ operator!=()</text>
<text text-anchor="start" x="359.5" y="-40.5" font-family="Helvetica,sans-Serif" font-size="10.00" fill="#000000">+ groupingElement()</text>
<text text-anchor="start" x="359.5" y="-29.5" font-family="Helvetica,sans-Serif" font-size="10.00" fill="#000000">+ operator*()</text>
<text text-anchor="start" x="359.5" y="-18.5" font-family="Helvetica,sans-Serif" font-size="10.00" fill="#000000">+ associatedTables()</text>
<text text-anchor="start" x="359.5" y="-7.5" font-family="Helvetica,sans-Serif" font-size="10.00" fill="#000000">+ prepareArgument()</text>
</g>
<!-- Node2 -->
<g id="node2" class="node">
<title>Node2</title>
<polygon fill="none" stroke="#bfbfbf" points="0,-287 0,-355 152,-355 152,-287 0,-287"/>
<text text-anchor="start" x="8" y="-343" font-family="Helvetica,sans-Serif" font-size="10.00" fill="#000000">array&lt; soa::SelectionVector</text>
<text text-anchor="middle" x="76" y="-332" font-family="Helvetica,sans-Serif" font-size="10.00" fill="#000000"> const *, sizeof...(A)&gt;</text>
<polyline fill="none" stroke="#bfbfbf" points="0,-325 152,-325 "/>
<text text-anchor="middle" x="76" y="-313" font-family="Helvetica,sans-Serif" font-size="10.00" fill="#000000"> </text>
<polyline fill="none" stroke="#bfbfbf" points="0,-306 152,-306 "/>
<text text-anchor="middle" x="76" y="-294" font-family="Helvetica,sans-Serif" font-size="10.00" fill="#000000"> </text>
</g>
<!-- Node2&#45;&gt;Node1 -->
<g id="edge1" class="edge">
<title>Node2&#45;&gt;Node1</title>
<path fill="none" stroke="#404040" d="M131.954,-286.9724C150.6582,-275.7195 171.6641,-263.2131 191,-252 240.1613,-223.4908 295.4486,-192.4487 340.6567,-167.3273"/>
<polygon fill="none" stroke="#404040" points="340.8351,-167.2283 344.1396,-160.8189 351.3269,-161.4039 348.0225,-167.8134 340.8351,-167.2283"/>
<text text-anchor="middle" x="221.5" y="-255" font-family="Helvetica,sans-Serif" font-size="10.00" fill="#000000"> +selections</text>
</g>
<!-- Node3 -->
<g id="node3" class="node">
<title>Node3</title>
<g id="a_node3"><a xlink:href="../../d6/d30/classuint64__t.html" target="_top" xlink:title="{uint64_t\n||}">
<polygon fill="none" stroke="#000000" points="170,-292.5 170,-349.5 226,-349.5 226,-292.5 170,-292.5"/>
<text text-anchor="middle" x="198" y="-337.5" font-family="Helvetica,sans-Serif" font-size="10.00" fill="#000000">uint64_t</text>
<polyline fill="none" stroke="#000000" points="170,-330.5 226,-330.5 "/>
<text text-anchor="middle" x="198" y="-318.5" font-family="Helvetica,sans-Serif" font-size="10.00" fill="#000000"> </text>
<polyline fill="none" stroke="#000000" points="170,-311.5 226,-311.5 "/>
<text text-anchor="middle" x="198" y="-299.5" font-family="Helvetica,sans-Serif" font-size="10.00" fill="#000000"> </text>
</a>
</g>
</g>
<!-- Node3&#45;&gt;Node1 -->
<g id="edge2" class="edge">
<title>Node3&#45;&gt;Node1</title>
<path fill="none" stroke="#404040" d="M223.8349,-292.157C227.5065,-288.3294 231.2948,-284.5166 235,-281 268.6349,-249.0771 307.5279,-215.97 341.8257,-187.9318"/>
<polygon fill="none" stroke="#404040" points="342.0628,-187.7388 344.1909,-180.8489 351.3694,-180.1632 349.2413,-187.0532 342.0628,-187.7388"/>
<text text-anchor="middle" x="291.5" y="-255" font-family="Helvetica,sans-Serif" font-size="10.00" fill="#000000"> +position</text>
</g>
<!-- Node4 -->
<g id="node4" class="node">
<title>Node4</title>
<polygon fill="none" stroke="#bfbfbf" points="244,-287 244,-355 400,-355 400,-287 244,-287"/>
<text text-anchor="start" x="252" y="-343" font-family="Helvetica,sans-Serif" font-size="10.00" fill="#000000">array&lt; soa::SelectionVector</text>
<text text-anchor="middle" x="322" y="-332" font-family="Helvetica,sans-Serif" font-size="10.00" fill="#000000">::const_iterator, sizeof...(A)&gt;</text>
<polyline fill="none" stroke="#bfbfbf" points="244,-325 400,-325 "/>
<text text-anchor="middle" x="322" y="-313" font-family="Helvetica,sans-Serif" font-size="10.00" fill="#000000"> </text>
<polyline fill="none" stroke="#bfbfbf" points="244,-306 400,-306 "/>
<text text-anchor="middle" x="322" y="-294" font-family="Helvetica,sans-Serif" font-size="10.00" fill="#000000"> </text>
</g>
<!-- Node4&#45;&gt;Node1 -->
<g id="edge3" class="edge">
<title>Node4&#45;&gt;Node1</title>
<path fill="none" stroke="#404040" d="M340.4115,-286.855C347.0207,-274.598 354.9199,-259.9485 363.2703,-244.4624"/>
<polygon fill="none" stroke="#404040" points="363.4176,-244.1891 362.7445,-237.0095 369.113,-233.6268 369.7861,-240.8064 363.4176,-244.1891"/>
<text text-anchor="middle" x="378" y="-255" font-family="Helvetica,sans-Serif" font-size="10.00" fill="#000000"> +starts</text>
</g>
<!-- Node5 -->
<g id="node5" class="node">
<title>Node5</title>
<polygon fill="none" stroke="#bfbfbf" points="418.5,-292.5 418.5,-349.5 471.5,-349.5 471.5,-292.5 418.5,-292.5"/>
<text text-anchor="middle" x="445" y="-337.5" font-family="Helvetica,sans-Serif" font-size="10.00" fill="#000000">iterator</text>
<polyline fill="none" stroke="#bfbfbf" points="418.5,-330.5 471.5,-330.5 "/>
<text text-anchor="middle" x="445" y="-318.5" font-family="Helvetica,sans-Serif" font-size="10.00" fill="#000000"> </text>
<polyline fill="none" stroke="#bfbfbf" points="418.5,-311.5 471.5,-311.5 "/>
<text text-anchor="middle" x="445" y="-299.5" font-family="Helvetica,sans-Serif" font-size="10.00" fill="#000000"> </text>
</g>
<!-- Node5&#45;&gt;Node1 -->
<g id="edge4" class="edge">
<title>Node5&#45;&gt;Node1</title>
<path fill="none" stroke="#404040" d="M437.8876,-292.2646C435.9053,-282.9852 434.0172,-272.6121 433,-263 432.4061,-257.3875 431.9079,-251.6468 431.4932,-245.8428"/>
<polygon fill="none" stroke="#404040" points="431.4931,-245.8382 427.1319,-240.0954 430.7557,-233.8609 435.1168,-239.6038 431.4931,-245.8382"/>
<text text-anchor="middle" x="486" y="-255" font-family="Helvetica,sans-Serif" font-size="10.00" fill="#000000"> +mGroupingElement</text>
</g>
<!-- Node6 -->
<g id="node6" class="node">
<title>Node6</title>
<polygon fill="none" stroke="#bfbfbf" points="489.5,-281.5 489.5,-360.5 632.5,-360.5 632.5,-281.5 489.5,-281.5"/>
<text text-anchor="start" x="497.5" y="-348.5" font-family="Helvetica,sans-Serif" font-size="10.00" fill="#000000">array&lt; std::vector</text>
<text text-anchor="start" x="497.5" y="-337.5" font-family="Helvetica,sans-Serif" font-size="10.00" fill="#000000">&lt; arrow::compute::Datum</text>
<text text-anchor="middle" x="561" y="-326.5" font-family="Helvetica,sans-Serif" font-size="10.00" fill="#000000"> &gt;, sizeof...(A)&gt;</text>
<polyline fill="none" stroke="#bfbfbf" points="489.5,-319.5 632.5,-319.5 "/>
<text text-anchor="middle" x="561" y="-307.5" font-family="Helvetica,sans-Serif" font-size="10.00" fill="#000000"> </text>
<polyline fill="none" stroke="#bfbfbf" points="489.5,-300.5 632.5,-300.5 "/>
<text text-anchor="middle" x="561" y="-288.5" font-family="Helvetica,sans-Serif" font-size="10.00" fill="#000000"> </text>
</g>
<!-- Node6&#45;&gt;Node1 -->
<g id="edge5" class="edge">
<title>Node6&#45;&gt;Node1</title>
<path fill="none" stroke="#404040" d="M551.0432,-281.3145C547.8461,-271.4494 543.847,-261.0997 539,-252 533.2465,-241.1985 526.5983,-230.4006 519.4885,-219.8813"/>
<polygon fill="none" stroke="#404040" points="519.393,-219.744 512.6841,-217.0999 512.5445,-209.8901 519.2534,-212.5342 519.393,-219.744"/>
<text text-anchor="middle" x="566.5" y="-255" font-family="Helvetica,sans-Serif" font-size="10.00" fill="#000000"> +groups</text>
</g>
<!-- Node7 -->
<g id="node7" class="node">
<title>Node7</title>
<polygon fill="none" stroke="#bfbfbf" points="650.5,-287 650.5,-355 795.5,-355 795.5,-287 650.5,-287"/>
<text text-anchor="start" x="658.5" y="-343" font-family="Helvetica,sans-Serif" font-size="10.00" fill="#000000">array&lt; std::vector</text>
<text text-anchor="middle" x="723" y="-332" font-family="Helvetica,sans-Serif" font-size="10.00" fill="#000000">&lt; uint64_t &gt;, sizeof...(A)&gt;</text>
<polyline fill="none" stroke="#bfbfbf" points="650.5,-325 795.5,-325 "/>
<text text-anchor="middle" x="723" y="-313" font-family="Helvetica,sans-Serif" font-size="10.00" fill="#000000"> </text>
<polyline fill="none" stroke="#bfbfbf" points="650.5,-306 795.5,-306 "/>
<text text-anchor="middle" x="723" y="-294" font-family="Helvetica,sans-Serif" font-size="10.00" fill="#000000"> </text>
</g>
<!-- Node7&#45;&gt;Node1 -->
<g id="edge6" class="edge">
<title>Node7&#45;&gt;Node1</title>
<path fill="none" stroke="#404040" d="M674.2931,-286.855C632.9588,-257.8783 572.5509,-215.5305 522.3941,-180.3691"/>
<polygon fill="none" stroke="#404040" points="522.3342,-180.3271 515.125,-180.1582 512.5081,-173.4387 519.7173,-173.6075 522.3342,-180.3271"/>
<text text-anchor="middle" x="659.5" y="-255" font-family="Helvetica,sans-Serif" font-size="10.00" fill="#000000"> +offsets</text>
</g>
<!-- Node8 -->
<g id="node8" class="node">
<title>Node8</title>
<polygon fill="none" stroke="#bfbfbf" points="814,-292.5 814,-349.5 902,-349.5 902,-292.5 814,-292.5"/>
<text text-anchor="middle" x="858" y="-337.5" font-family="Helvetica,sans-Serif" font-size="10.00" fill="#000000">tuple&lt; A... &gt; *</text>
<polyline fill="none" stroke="#bfbfbf" points="814,-330.5 902,-330.5 "/>
<text text-anchor="middle" x="858" y="-318.5" font-family="Helvetica,sans-Serif" font-size="10.00" fill="#000000"> </text>
<polyline fill="none" stroke="#bfbfbf" points="814,-311.5 902,-311.5 "/>
<text text-anchor="middle" x="858" y="-299.5" font-family="Helvetica,sans-Serif" font-size="10.00" fill="#000000"> </text>
</g>
<!-- Node8&#45;&gt;Node1 -->
<g id="edge7" class="edge">
<title>Node8&#45;&gt;Node1</title>
<path fill="none" stroke="#404040" d="M822.2794,-292.2991C816.6422,-288.2851 810.7676,-284.3822 805,-281 713.7292,-227.4768 601.7817,-180.5132 524.4756,-150.715"/>
<polygon fill="none" stroke="#404040" points="524.0578,-150.555 517.024,-152.1444 512.8515,-146.2631 519.8853,-144.6736 524.0578,-150.555"/>
<text text-anchor="middle" x="782" y="-255" font-family="Helvetica,sans-Serif" font-size="10.00" fill="#000000"> +mAt</text>
</g>
</g>
</svg>
