<?xml version="1.0" encoding="UTF-8" standalone="no"?>
<!DOCTYPE svg PUBLIC "-//W3C//DTD SVG 1.1//EN"
 "http://www.w3.org/Graphics/SVG/1.1/DTD/svg11.dtd">
<!-- Generated by graphviz version 2.40.1 (20161225.0304)
 -->
<!-- Title: /home/travis/build/AliceO2Group/AliceO2/Utilities/rANS/include/librans/Encoder.h Pages: 1 -->
<svg width="638pt" height="229pt"
 viewBox="0.00 0.00 637.76 229.00" xmlns="http://www.w3.org/2000/svg" xmlns:xlink="http://www.w3.org/1999/xlink">
<g id="graph0" class="graph" transform="scale(1 1) rotate(0) translate(4 225)">
<title>/home/travis/build/AliceO2Group/AliceO2/Utilities/rANS/include/librans/Encoder.h</title>
<!-- Node0 -->
<g id="node1" class="node">
<title>Node0</title>
<polygon fill="#bfbfbf" stroke="#000000" points="131.5,-168.5 131.5,-220.5 258.5,-220.5 258.5,-168.5 131.5,-168.5"/>
<text text-anchor="start" x="139.5" y="-208.5" font-family="Helvetica,sans-Serif" font-size="10.00" fill="#000000">/home/travis/build</text>
<text text-anchor="start" x="139.5" y="-197.5" font-family="Helvetica,sans-Serif" font-size="10.00" fill="#000000">/AliceO2Group/AliceO2</text>
<text text-anchor="start" x="139.5" y="-186.5" font-family="Helvetica,sans-Serif" font-size="10.00" fill="#000000">/Utilities/rANS/include</text>
<text text-anchor="middle" x="195" y="-175.5" font-family="Helvetica,sans-Serif" font-size="10.00" fill="#000000">/librans/Encoder.h</text>
</g>
<!-- Node1 -->
<g id="node2" class="node">
<title>Node1</title>
<polygon fill="none" stroke="#bfbfbf" points="0,-112.5 0,-131.5 58,-131.5 58,-112.5 0,-112.5"/>
<text text-anchor="middle" x="29" y="-119.5" font-family="Helvetica,sans-Serif" font-size="10.00" fill="#000000">memory</text>
</g>
<!-- Node0&#45;&gt;Node1 -->
<g id="edge1" class="edge">
<title>Node0&#45;&gt;Node1</title>
<path fill="none" stroke="#191970" d="M135.0702,-168.3258C109.7359,-157.2612 81.2867,-144.8361 60.2338,-135.6413"/>
<polygon fill="#191970" stroke="#191970" points="61.3945,-132.329 50.8296,-131.534 58.5928,-138.7439 61.3945,-132.329"/>
</g>
<!-- Node2 -->
<g id="node3" class="node">
<title>Node2</title>
<polygon fill="none" stroke="#bfbfbf" points="15,-.5 15,-19.5 79,-19.5 79,-.5 15,-.5"/>
<text text-anchor="middle" x="47" y="-7.5" font-family="Helvetica,sans-Serif" font-size="10.00" fill="#000000">algorithm</text>
</g>
<!-- Node0&#45;&gt;Node2 -->
<g id="edge2" class="edge">
<title>Node0&#45;&gt;Node2</title>
<path fill="none" stroke="#191970" d="M172.3178,-168.2468C162.8408,-157.1508 151.7806,-144.0339 142,-132 112.2737,-95.4253 78.6379,-51.6352 60.4369,-27.7296"/>
<polygon fill="#191970" stroke="#191970" points="63.0944,-25.4419 54.2572,-19.5976 57.521,-29.6772 63.0944,-25.4419"/>
</g>
<!-- Node3 -->
<g id="node4" class="node">
<title>Node3</title>
<g id="a_node4"><a xlink:href="../../d8/dd9/SymbolTable_8h.html" target="_top" xlink:title="Container for information needed to encode/decode a symbol of the alphabet. ">
<polygon fill="none" stroke="#000000" points="151,-112.5 151,-131.5 239,-131.5 239,-112.5 151,-112.5"/>
<text text-anchor="middle" x="195" y="-119.5" font-family="Helvetica,sans-Serif" font-size="10.00" fill="#000000">SymbolTable.h</text>
</a>
</g>
</g>
<!-- Node0&#45;&gt;Node3 -->
<g id="edge3" class="edge">
<title>Node0&#45;&gt;Node3</title>
<path fill="none" stroke="#191970" d="M195,-168.3258C195,-159.5142 195,-149.8397 195,-141.621"/>
<polygon fill="#191970" stroke="#191970" points="198.5001,-141.534 195,-131.534 191.5001,-141.534 198.5001,-141.534"/>
</g>
<!-- Node9 -->
<g id="node10" class="node">
<title>Node9</title>
<g id="a_node10"><a xlink:href="../../d2/d53/EncoderSymbol_8h.html" target="_top" xlink:title="Structure containing all relevant information to encode a symbol. ">
<polygon fill="none" stroke="#000000" points="354.5,-56.5 354.5,-75.5 455.5,-75.5 455.5,-56.5 354.5,-56.5"/>
<text text-anchor="middle" x="405" y="-63.5" font-family="Helvetica,sans-Serif" font-size="10.00" fill="#000000">EncoderSymbol.h</text>
</a>
</g>
</g>
<!-- Node0&#45;&gt;Node9 -->
<g id="edge11" class="edge">
<title>Node0&#45;&gt;Node9</title>
<path fill="none" stroke="#191970" d="M237.4966,-168.4961C280.6235,-142.1066 345.8688,-102.1827 380.8392,-80.7841"/>
<polygon fill="#191970" stroke="#191970" points="382.7486,-83.7191 389.4516,-75.5142 379.0949,-77.7482 382.7486,-83.7191"/>
</g>
<!-- Node12 -->
<g id="node13" class="node">
<title>Node12</title>
<g id="a_node13"><a xlink:href="../../d5/d7a/Coder_8h.html" target="_top" xlink:title="Stateless class for coding and decoding symbols using rANS. ">
<polygon fill="none" stroke="#000000" points="378.5,-112.5 378.5,-131.5 431.5,-131.5 431.5,-112.5 378.5,-112.5"/>
<text text-anchor="middle" x="405" y="-119.5" font-family="Helvetica,sans-Serif" font-size="10.00" fill="#000000">Coder.h</text>
</a>
</g>
</g>
<!-- Node0&#45;&gt;Node12 -->
<g id="edge15" class="edge">
<title>Node0&#45;&gt;Node12</title>
<path fill="none" stroke="#191970" d="M258.5768,-172.5509C294.5852,-160.1194 338.3341,-145.0156 368.5832,-134.5725"/>
<polygon fill="#191970" stroke="#191970" points="369.9831,-137.7919 378.2935,-131.2201 367.6987,-131.1752 369.9831,-137.7919"/>
</g>
<!-- Node4 -->
<g id="node5" class="node">
<title>Node4</title>
<polygon fill="none" stroke="#bfbfbf" points="249.5,-.5 249.5,-19.5 296.5,-19.5 296.5,-.5 249.5,-.5"/>
<text text-anchor="middle" x="273" y="-7.5" font-family="Helvetica,sans-Serif" font-size="10.00" fill="#000000">vector</text>
</g>
<!-- Node3&#45;&gt;Node4 -->
<g id="edge4" class="edge">
<title>Node3&#45;&gt;Node4</title>
<path fill="none" stroke="#191970" d="M202.7211,-112.284C209.9576,-103.0783 220.9817,-88.7959 230,-76 241.1577,-60.1687 253.1304,-41.6542 261.6015,-28.2706"/>
<polygon fill="#191970" stroke="#191970" points="264.7287,-29.8723 267.0891,-19.5438 258.8029,-26.146 264.7287,-29.8723"/>
</g>
<!-- Node5 -->
<g id="node6" class="node">
<title>Node5</title>
<g id="a_node6"><a xlink:href="../../d0/d51/SymbolStatistics_8h.html" target="_top" xlink:title="Structure to depict the distribution of symbols in the source message. ">
<polygon fill="none" stroke="#000000" points="114.5,-56.5 114.5,-75.5 221.5,-75.5 221.5,-56.5 114.5,-56.5"/>
<text text-anchor="middle" x="168" y="-63.5" font-family="Helvetica,sans-Serif" font-size="10.00" fill="#000000">SymbolStatistics.h</text>
</a>
</g>
</g>
<!-- Node3&#45;&gt;Node5 -->
<g id="edge5" class="edge">
<title>Node3&#45;&gt;Node5</title>
<path fill="none" stroke="#191970" d="M190.297,-112.2455C186.6576,-104.6973 181.5076,-94.0158 177.0738,-84.8197"/>
<polygon fill="#191970" stroke="#191970" points="180.1449,-83.1303 172.6491,-75.6427 173.8395,-86.1704 180.1449,-83.1303"/>
</g>
<!-- Node5&#45;&gt;Node2 -->
<g id="edge6" class="edge">
<title>Node5&#45;&gt;Node2</title>
<path fill="none" stroke="#191970" d="M147.1994,-56.3733C127.7757,-47.3838 98.5776,-33.8706 76.7036,-23.7471"/>
<polygon fill="#191970" stroke="#191970" points="78.0745,-20.5249 67.5292,-19.5011 75.1344,-26.8776 78.0745,-20.5249"/>
</g>
<!-- Node5&#45;&gt;Node4 -->
<g id="edge10" class="edge">
<title>Node5&#45;&gt;Node4</title>
<path fill="none" stroke="#191970" d="M186.2896,-56.2455C202.7762,-47.4527 227.2352,-34.4079 245.9765,-24.4125"/>
<polygon fill="#191970" stroke="#191970" points="247.7435,-27.4368 254.92,-19.6427 244.4494,-21.2604 247.7435,-27.4368"/>
</g>
<!-- Node6 -->
<g id="node7" class="node">
<title>Node6</title>
<polygon fill="none" stroke="#bfbfbf" points="315,-.5 315,-19.5 367,-19.5 367,-.5 315,-.5"/>
<text text-anchor="middle" x="341" y="-7.5" font-family="Helvetica,sans-Serif" font-size="10.00" fill="#000000">cassert</text>
</g>
<!-- Node5&#45;&gt;Node6 -->
<g id="edge7" class="edge">
<title>Node5&#45;&gt;Node6</title>
<path fill="none" stroke="#191970" d="M197.7398,-56.3733C227.4659,-46.7509 273.2042,-31.9455 304.9725,-21.6621"/>
<polygon fill="#191970" stroke="#191970" points="306.322,-24.9041 314.7581,-18.4945 304.1662,-18.2443 306.322,-24.9041"/>
</g>
<!-- Node7 -->
<g id="node8" class="node">
<title>Node7</title>
<polygon fill="none" stroke="#bfbfbf" points="97,-.5 97,-19.5 157,-19.5 157,-.5 97,-.5"/>
<text text-anchor="middle" x="127" y="-7.5" font-family="Helvetica,sans-Serif" font-size="10.00" fill="#000000">iostream</text>
</g>
<!-- Node5&#45;&gt;Node7 -->
<g id="edge8" class="edge">
<title>Node5&#45;&gt;Node7</title>
<path fill="none" stroke="#191970" d="M160.8583,-56.2455C155.1556,-48.4564 147.01,-37.3308 140.1375,-27.9439"/>
<polygon fill="#191970" stroke="#191970" points="142.7913,-25.6437 134.0598,-19.6427 137.1432,-29.7789 142.7913,-25.6437"/>
</g>
<!-- Node8 -->
<g id="node9" class="node">
<title>Node8</title>
<polygon fill="none" stroke="#bfbfbf" points="175,-.5 175,-19.5 231,-19.5 231,-.5 175,-.5"/>
<text text-anchor="middle" x="203" y="-7.5" font-family="Helvetica,sans-Serif" font-size="10.00" fill="#000000">numeric</text>
</g>
<!-- Node5&#45;&gt;Node8 -->
<g id="edge9" class="edge">
<title>Node5&#45;&gt;Node8</title>
<path fill="none" stroke="#191970" d="M174.0965,-56.2455C178.9145,-48.5367 185.7751,-37.5598 191.6032,-28.2348"/>
<polygon fill="#191970" stroke="#191970" points="194.6413,-29.9777 196.9733,-19.6427 188.7053,-26.2677 194.6413,-29.9777"/>
</g>
<!-- Node9&#45;&gt;Node6 -->
<g id="edge13" class="edge">
<title>Node9&#45;&gt;Node6</title>
<path fill="none" stroke="#191970" d="M393.8521,-56.2455C384.4913,-48.0549 370.9142,-36.1749 359.8651,-26.5069"/>
<polygon fill="#191970" stroke="#191970" points="361.8508,-23.5937 352.0202,-19.6427 357.2412,-28.8618 361.8508,-23.5937"/>
</g>
<!-- Node10 -->
<g id="node11" class="node">
<title>Node10</title>
<polygon fill="none" stroke="#bfbfbf" points="539,-.5 539,-19.5 589,-19.5 589,-.5 539,-.5"/>
<text text-anchor="middle" x="564" y="-7.5" font-family="Helvetica,sans-Serif" font-size="10.00" fill="#000000">cstdint</text>
</g>
<!-- Node9&#45;&gt;Node10 -->
<g id="edge12" class="edge">
<title>Node9&#45;&gt;Node10</title>
<path fill="none" stroke="#191970" d="M432.3331,-56.3733C459.0994,-46.9461 499.991,-32.544 529.0955,-22.2934"/>
<polygon fill="#191970" stroke="#191970" points="530.5867,-25.479 538.856,-18.8557 528.2612,-18.8766 530.5867,-25.479"/>
</g>
<!-- Node11 -->
<g id="node12" class="node">
<title>Node11</title>
<g id="a_node12"><a xlink:href="../../d4/da1/helper_8h.html" target="_top" xlink:title="various helper functions ">
<polygon fill="none" stroke="#000000" points="428,-.5 428,-19.5 484,-19.5 484,-.5 428,-.5"/>
<text text-anchor="middle" x="456" y="-7.5" font-family="Helvetica,sans-Serif" font-size="10.00" fill="#000000">helper.h</text>
</a>
</g>
</g>
<!-- Node9&#45;&gt;Node11 -->
<g id="edge14" class="edge">
<title>Node9&#45;&gt;Node11</title>
<path fill="none" stroke="#191970" d="M413.8835,-56.2455C421.1966,-48.2155 431.7391,-36.6394 440.4467,-27.0781"/>
<polygon fill="#191970" stroke="#191970" points="443.0727,-29.3928 447.2183,-19.6427 437.8972,-24.6795 443.0727,-29.3928"/>
</g>
<!-- Node12&#45;&gt;Node4 -->
<g id="edge16" class="edge">
<title>Node12&#45;&gt;Node4</title>
<path fill="none" stroke="#191970" d="M388.1058,-112.4349C373.4252,-103.7729 351.92,-90.2229 335,-76 317.2608,-61.0885 299.394,-41.4668 287.4281,-27.5032"/>
<polygon fill="#191970" stroke="#191970" points="289.9151,-25.0231 280.794,-19.6327 284.5628,-29.5346 289.9151,-25.0231"/>
</g>
<!-- Node12&#45;&gt;Node6 -->
<g id="edge18" class="edge">
<title>Node12&#45;&gt;Node6</title>
<path fill="none" stroke="#191970" d="M384.814,-112.3849C371.0068,-104.6364 353.6875,-92.3416 345,-76 337.5066,-61.9046 336.9739,-43.6475 338.0508,-29.9093"/>
<polygon fill="#191970" stroke="#191970" points="341.5681,-29.9533 339.2164,-19.6227 334.6126,-29.165 341.5681,-29.9533"/>
</g>
<!-- Node12&#45;&gt;Node9 -->
<g id="edge21" class="edge">
<title>Node12&#45;&gt;Node9</title>
<path fill="none" stroke="#191970" d="M405,-112.2455C405,-104.9382 405,-94.6944 405,-85.7046"/>
<polygon fill="#191970" stroke="#191970" points="408.5001,-85.6426 405,-75.6427 401.5001,-85.6427 408.5001,-85.6426"/>
</g>
<!-- Node12&#45;&gt;Node10 -->
<g id="edge17" class="edge">
<title>Node12&#45;&gt;Node10</title>
<path fill="none" stroke="#191970" d="M431.6161,-120.4947C484.7364,-116.876 600.8855,-105.6781 625,-76 639.9607,-57.5876 615.6304,-37.7641 593.4049,-24.7012"/>
<polygon fill="#191970" stroke="#191970" points="594.8855,-21.5195 584.4466,-19.7082 591.4775,-27.6339 594.8855,-21.5195"/>
</g>
<!-- Node12&#45;&gt;Node11 -->
<g id="edge22" class="edge">
<title>Node12&#45;&gt;Node11</title>
<path fill="none" stroke="#191970" d="M425.1561,-112.4543C438.8815,-104.7394 455.9635,-92.4561 464,-76 471.114,-61.4329 468.0137,-42.9834 463.7659,-29.2964"/>
<polygon fill="#191970" stroke="#191970" points="466.9331,-27.7565 460.2864,-19.506 460.3373,-30.1007 466.9331,-27.7565"/>
</g>
<!-- Node13 -->
<g id="node14" class="node">
<title>Node13</title>
<g id="a_node14"><a xlink:href="../../d7/d99/DecoderSymbol_8h.html" target="_top" xlink:title="Structure containing all relevant information for decoding a rANS encoded symbol. ...">
<polygon fill="none" stroke="#000000" points="512.5,-56.5 512.5,-75.5 615.5,-75.5 615.5,-56.5 512.5,-56.5"/>
<text text-anchor="middle" x="564" y="-63.5" font-family="Helvetica,sans-Serif" font-size="10.00" fill="#000000">DecoderSymbol.h</text>
</a>
</g>
</g>
<!-- Node12&#45;&gt;Node13 -->
<g id="edge19" class="edge">
<title>Node12&#45;&gt;Node13</title>
<path fill="none" stroke="#191970" d="M431.613,-112.6269C457.8238,-103.3954 498.0712,-89.2202 527.3097,-78.9224"/>
<polygon fill="#191970" stroke="#191970" points="528.4978,-82.2147 536.7672,-75.5914 526.1724,-75.6123 528.4978,-82.2147"/>
</g>
<!-- Node13&#45;&gt;Node10 -->
<g id="edge20" class="edge">
<title>Node13&#45;&gt;Node10</title>
<path fill="none" stroke="#191970" d="M564,-56.2455C564,-48.9382 564,-38.6944 564,-29.7046"/>
<polygon fill="#191970" stroke="#191970" points="567.5001,-29.6426 564,-19.6427 560.5001,-29.6427 567.5001,-29.6426"/>
</g>
</g>
</svg>
