<?xml version="1.0" encoding="UTF-8" standalone="no"?>
<!DOCTYPE svg PUBLIC "-//W3C//DTD SVG 1.1//EN"
 "http://www.w3.org/Graphics/SVG/1.1/DTD/svg11.dtd">
<!-- Generated by graphviz version 2.40.1 (20161225.0304)
 -->
<!-- Title: /home/travis/build/AliceO2Group/AliceO2/Detectors/MUON/MCH/Mapping/Interface/include/MCHMappingInterface/Segmentation.h Pages: 1 -->
<svg width="2689pt" height="261pt"
 viewBox="0.00 0.00 2689.00 261.00" xmlns="http://www.w3.org/2000/svg" xmlns:xlink="http://www.w3.org/1999/xlink">
<g id="graph0" class="graph" transform="scale(1 1) rotate(0) translate(4 257)">
<title>/home/travis/build/AliceO2Group/AliceO2/Detectors/MUON/MCH/Mapping/Interface/include/MCHMappingInterface/Segmentation.h</title>
<!-- Node11 -->
<g id="node1" class="node">
<title>Node11</title>
<polygon fill="#bfbfbf" stroke="#000000" points="1272,-189.5 1272,-252.5 1484,-252.5 1484,-189.5 1272,-189.5"/>
<text text-anchor="start" x="1280" y="-240.5" font-family="Helvetica,sans-Serif" font-size="10.00" fill="#000000">/home/travis/build</text>
<text text-anchor="start" x="1280" y="-229.5" font-family="Helvetica,sans-Serif" font-size="10.00" fill="#000000">/AliceO2Group/AliceO2</text>
<text text-anchor="start" x="1280" y="-218.5" font-family="Helvetica,sans-Serif" font-size="10.00" fill="#000000">/Detectors/MUON/MCH/Mapping</text>
<text text-anchor="start" x="1280" y="-207.5" font-family="Helvetica,sans-Serif" font-size="10.00" fill="#000000">/Interface/include/MCHMappingInterface</text>
<text text-anchor="middle" x="1378" y="-196.5" font-family="Helvetica,sans-Serif" font-size="10.00" fill="#000000">/Segmentation.h</text>
</g>
<!-- Node12 -->
<g id="node2" class="node">
<title>Node12</title>
<g id="a_node2"><a xlink:href="../../d7/d47/Impl3_2src_2CreateSegmentation_8cxx.html" target="_top" xlink:title="/home/travis/build\l/AliceO2Group/AliceO2\l/Detectors/MUON/MCH/Mapping\l/Impl3/src/CreateSegmentation.cxx">
<polygon fill="none" stroke="#000000" points="0,-95 0,-147 188,-147 188,-95 0,-95"/>
<text text-anchor="start" x="8" y="-135" font-family="Helvetica,sans-Serif" font-size="10.00" fill="#000000">/home/travis/build</text>
<text text-anchor="start" x="8" y="-124" font-family="Helvetica,sans-Serif" font-size="10.00" fill="#000000">/AliceO2Group/AliceO2</text>
<text text-anchor="start" x="8" y="-113" font-family="Helvetica,sans-Serif" font-size="10.00" fill="#000000">/Detectors/MUON/MCH/Mapping</text>
<text text-anchor="middle" x="94" y="-102" font-family="Helvetica,sans-Serif" font-size="10.00" fill="#000000">/Impl3/src/CreateSegmentation.cxx</text>
</a>
</g>
</g>
<!-- Node11&#45;&gt;Node12 -->
<g id="edge1" class="edge">
<title>Node11&#45;&gt;Node12</title>
<path fill="none" stroke="#191970" d="M1261.5434,-217.903C1005.205,-210.4988 398.9079,-189.6097 197,-153 188.3404,-151.4299 179.3887,-149.3576 170.5441,-147.0206"/>
<polygon fill="#191970" stroke="#191970" points="1261.5317,-221.404 1271.6281,-218.1925 1261.7327,-214.4069 1261.5317,-221.404"/>
</g>
<!-- Node13 -->
<g id="node3" class="node">
<title>Node13</title>
<g id="a_node3"><a xlink:href="../../d3/d19/Impl4_2src_2CreateSegmentation_8cxx.html" target="_top" xlink:title="/home/travis/build\l/AliceO2Group/AliceO2\l/Detectors/MUON/MCH/Mapping\l/Impl4/src/CreateSegmentation.cxx">
<polygon fill="none" stroke="#000000" points="206,-95 206,-147 394,-147 394,-95 206,-95"/>
<text text-anchor="start" x="214" y="-135" font-family="Helvetica,sans-Serif" font-size="10.00" fill="#000000">/home/travis/build</text>
<text text-anchor="start" x="214" y="-124" font-family="Helvetica,sans-Serif" font-size="10.00" fill="#000000">/AliceO2Group/AliceO2</text>
<text text-anchor="start" x="214" y="-113" font-family="Helvetica,sans-Serif" font-size="10.00" fill="#000000">/Detectors/MUON/MCH/Mapping</text>
<text text-anchor="middle" x="300" y="-102" font-family="Helvetica,sans-Serif" font-size="10.00" fill="#000000">/Impl4/src/CreateSegmentation.cxx</text>
</a>
</g>
</g>
<!-- Node11&#45;&gt;Node13 -->
<g id="edge2" class="edge">
<title>Node11&#45;&gt;Node13</title>
<path fill="none" stroke="#191970" d="M1261.8193,-216.2723C1040.1598,-206.6945 564.5798,-183.3096 403,-153 394.5341,-151.4119 385.7851,-149.3614 377.1279,-147.0658"/>
<polygon fill="#191970" stroke="#191970" points="1261.7163,-219.771 1271.8575,-216.7041 1262.0172,-212.7775 1261.7163,-219.771"/>
</g>
<!-- Node14 -->
<g id="node4" class="node">
<title>Node14</title>
<g id="a_node4"><a xlink:href="../../dd/d1c/SegmentationContours_8h.html" target="_top" xlink:title="/home/travis/build\l/AliceO2Group/AliceO2\l/Detectors/MUON/MCH/Mapping\l/SegContour/include/MCHMappingSegContour\l/SegmentationContours.h">
<polygon fill="none" stroke="#000000" points="412.5,-89.5 412.5,-152.5 649.5,-152.5 649.5,-89.5 412.5,-89.5"/>
<text text-anchor="start" x="420.5" y="-140.5" font-family="Helvetica,sans-Serif" font-size="10.00" fill="#000000">/home/travis/build</text>
<text text-anchor="start" x="420.5" y="-129.5" font-family="Helvetica,sans-Serif" font-size="10.00" fill="#000000">/AliceO2Group/AliceO2</text>
<text text-anchor="start" x="420.5" y="-118.5" font-family="Helvetica,sans-Serif" font-size="10.00" fill="#000000">/Detectors/MUON/MCH/Mapping</text>
<text text-anchor="start" x="420.5" y="-107.5" font-family="Helvetica,sans-Serif" font-size="10.00" fill="#000000">/SegContour/include/MCHMappingSegContour</text>
<text text-anchor="middle" x="531" y="-96.5" font-family="Helvetica,sans-Serif" font-size="10.00" fill="#000000">/SegmentationContours.h</text>
</a>
</g>
</g>
<!-- Node11&#45;&gt;Node14 -->
<g id="edge3" class="edge">
<title>Node11&#45;&gt;Node14</title>
<path fill="none" stroke="#191970" d="M1261.8138,-214.9863C1119.9743,-206.4848 873.143,-187.9397 664,-153 659.3151,-152.2173 654.5504,-151.3616 649.7471,-150.4491"/>
<polygon fill="#191970" stroke="#191970" points="1261.6531,-218.4828 1271.8428,-215.5811 1262.0676,-211.4951 1261.6531,-218.4828"/>
</g>
<!-- Node16 -->
<g id="node6" class="node">
<title>Node16</title>
<g id="a_node6"><a xlink:href="../../d5/d2d/MUON_2MCH_2Mapping_2test_2src_2Segmentation_8cxx.html" target="_top" xlink:title="/home/travis/build\l/AliceO2Group/AliceO2\l/Detectors/MUON/MCH/Mapping\l/test/src/Segmentation.cxx">
<polygon fill="none" stroke="#000000" points="593,-.5 593,-52.5 763,-52.5 763,-.5 593,-.5"/>
<text text-anchor="start" x="601" y="-40.5" font-family="Helvetica,sans-Serif" font-size="10.00" fill="#000000">/home/travis/build</text>
<text text-anchor="start" x="601" y="-29.5" font-family="Helvetica,sans-Serif" font-size="10.00" fill="#000000">/AliceO2Group/AliceO2</text>
<text text-anchor="start" x="601" y="-18.5" font-family="Helvetica,sans-Serif" font-size="10.00" fill="#000000">/Detectors/MUON/MCH/Mapping</text>
<text text-anchor="middle" x="678" y="-7.5" font-family="Helvetica,sans-Serif" font-size="10.00" fill="#000000">/test/src/Segmentation.cxx</text>
</a>
</g>
</g>
<!-- Node11&#45;&gt;Node16 -->
<g id="edge8" class="edge">
<title>Node11&#45;&gt;Node16</title>
<path fill="none" stroke="#191970" d="M1261.7311,-217.112C1077.6931,-209.83 735.9267,-191.2854 696,-153 669.341,-127.4369 669.7454,-81.6153 673.2866,-52.7005"/>
<polygon fill="#191970" stroke="#191970" points="1261.5973,-220.6094 1271.7263,-217.5026 1261.8706,-213.6147 1261.5973,-220.6094"/>
</g>
<!-- Node17 -->
<g id="node7" class="node">
<title>Node17</title>
<g id="a_node7"><a xlink:href="../../da/d72/BenchSegmentation_8cxx.html" target="_top" xlink:title="/home/travis/build\l/AliceO2Group/AliceO2\l/Detectors/MUON/MCH/Mapping\l/test/src/BenchSegmentation.cxx">
<polygon fill="none" stroke="#000000" points="705.5,-95 705.5,-147 882.5,-147 882.5,-95 705.5,-95"/>
<text text-anchor="start" x="713.5" y="-135" font-family="Helvetica,sans-Serif" font-size="10.00" fill="#000000">/home/travis/build</text>
<text text-anchor="start" x="713.5" y="-124" font-family="Helvetica,sans-Serif" font-size="10.00" fill="#000000">/AliceO2Group/AliceO2</text>
<text text-anchor="start" x="713.5" y="-113" font-family="Helvetica,sans-Serif" font-size="10.00" fill="#000000">/Detectors/MUON/MCH/Mapping</text>
<text text-anchor="middle" x="794" y="-102" font-family="Helvetica,sans-Serif" font-size="10.00" fill="#000000">/test/src/BenchSegmentation.cxx</text>
</a>
</g>
</g>
<!-- Node11&#45;&gt;Node17 -->
<g id="edge6" class="edge">
<title>Node11&#45;&gt;Node17</title>
<path fill="none" stroke="#191970" d="M1261.7384,-210.5618C1162.6164,-200.2788 1016.7875,-181.865 892,-153 884.5891,-151.2857 876.9378,-149.2587 869.3302,-147.07"/>
<polygon fill="#191970" stroke="#191970" points="1261.4779,-214.0534 1271.783,-211.5926 1262.1925,-207.0899 1261.4779,-214.0534"/>
</g>
<!-- Node18 -->
<g id="node8" class="node">
<title>Node18</title>
<g id="a_node8"><a xlink:href="../../dc/d1b/generatePadIndices_8cxx.html" target="_top" xlink:title="/home/travis/build\l/AliceO2Group/AliceO2\l/Detectors/MUON/MCH/Mapping\l/test/src/generatePadIndices.cxx">
<polygon fill="none" stroke="#000000" points="901,-95 901,-147 1075,-147 1075,-95 901,-95"/>
<text text-anchor="start" x="909" y="-135" font-family="Helvetica,sans-Serif" font-size="10.00" fill="#000000">/home/travis/build</text>
<text text-anchor="start" x="909" y="-124" font-family="Helvetica,sans-Serif" font-size="10.00" fill="#000000">/AliceO2Group/AliceO2</text>
<text text-anchor="start" x="909" y="-113" font-family="Helvetica,sans-Serif" font-size="10.00" fill="#000000">/Detectors/MUON/MCH/Mapping</text>
<text text-anchor="middle" x="988" y="-102" font-family="Helvetica,sans-Serif" font-size="10.00" fill="#000000">/test/src/generatePadIndices.cxx</text>
</a>
</g>
</g>
<!-- Node11&#45;&gt;Node18 -->
<g id="edge7" class="edge">
<title>Node11&#45;&gt;Node18</title>
<path fill="none" stroke="#191970" d="M1261.9152,-196.8026C1207.5753,-184.7996 1142.154,-169.3781 1084,-153 1077.4895,-151.1664 1070.766,-149.1606 1064.0408,-147.0758"/>
<polygon fill="#191970" stroke="#191970" points="1261.4102,-200.2751 1271.9285,-199.0035 1262.913,-193.4383 1261.4102,-200.2751"/>
</g>
<!-- Node19 -->
<g id="node9" class="node">
<title>Node19</title>
<g id="a_node9"><a xlink:href="../../d9/da3/testPadIndices_8cxx.html" target="_top" xlink:title="/home/travis/build\l/AliceO2Group/AliceO2\l/Detectors/MUON/MCH/Mapping\l/test/src/testPadIndices.cxx">
<polygon fill="none" stroke="#000000" points="1093,-95 1093,-147 1263,-147 1263,-95 1093,-95"/>
<text text-anchor="start" x="1101" y="-135" font-family="Helvetica,sans-Serif" font-size="10.00" fill="#000000">/home/travis/build</text>
<text text-anchor="start" x="1101" y="-124" font-family="Helvetica,sans-Serif" font-size="10.00" fill="#000000">/AliceO2Group/AliceO2</text>
<text text-anchor="start" x="1101" y="-113" font-family="Helvetica,sans-Serif" font-size="10.00" fill="#000000">/Detectors/MUON/MCH/Mapping</text>
<text text-anchor="middle" x="1178" y="-102" font-family="Helvetica,sans-Serif" font-size="10.00" fill="#000000">/test/src/testPadIndices.cxx</text>
</a>
</g>
</g>
<!-- Node11&#45;&gt;Node19 -->
<g id="edge9" class="edge">
<title>Node11&#45;&gt;Node19</title>
<path fill="none" stroke="#191970" d="M1305.9113,-184.9557C1280.9147,-172.4573 1253.3887,-158.6944 1230.2956,-147.1478"/>
<polygon fill="#191970" stroke="#191970" points="1304.4837,-188.1549 1314.9933,-189.4966 1307.6142,-181.8939 1304.4837,-188.1549"/>
</g>
<!-- Node20 -->
<g id="node10" class="node">
<title>Node20</title>
<g id="a_node10"><a xlink:href="../../d4/d03/PreClusterFinderMapping_8h.html" target="_top" xlink:title="/home/travis/build\l/AliceO2Group/AliceO2\l/Detectors/MUON/MCH/PreClustering\l/src/PreClusterFinderMapping.h">
<polygon fill="none" stroke="#000000" points="1281,-95 1281,-147 1475,-147 1475,-95 1281,-95"/>
<text text-anchor="start" x="1289" y="-135" font-family="Helvetica,sans-Serif" font-size="10.00" fill="#000000">/home/travis/build</text>
<text text-anchor="start" x="1289" y="-124" font-family="Helvetica,sans-Serif" font-size="10.00" fill="#000000">/AliceO2Group/AliceO2</text>
<text text-anchor="start" x="1289" y="-113" font-family="Helvetica,sans-Serif" font-size="10.00" fill="#000000">/Detectors/MUON/MCH/PreClustering</text>
<text text-anchor="middle" x="1378" y="-102" font-family="Helvetica,sans-Serif" font-size="10.00" fill="#000000">/src/PreClusterFinderMapping.h</text>
</a>
</g>
</g>
<!-- Node11&#45;&gt;Node20 -->
<g id="edge10" class="edge">
<title>Node11&#45;&gt;Node20</title>
<path fill="none" stroke="#191970" d="M1378,-179.1631C1378,-168.2863 1378,-156.8798 1378,-147.078"/>
<polygon fill="#191970" stroke="#191970" points="1374.5001,-179.3593 1378,-189.3594 1381.5001,-179.3594 1374.5001,-179.3593"/>
</g>
<!-- Node22 -->
<g id="node12" class="node">
<title>Node22</title>
<g id="a_node12"><a xlink:href="../../d4/dbc/PreClusterFinderMapping_8cxx.html" target="_top" xlink:title="/home/travis/build\l/AliceO2Group/AliceO2\l/Detectors/MUON/MCH/PreClustering\l/src/PreClusterFinderMapping.cxx">
<polygon fill="none" stroke="#000000" points="1406,-.5 1406,-52.5 1600,-52.5 1600,-.5 1406,-.5"/>
<text text-anchor="start" x="1414" y="-40.5" font-family="Helvetica,sans-Serif" font-size="10.00" fill="#000000">/home/travis/build</text>
<text text-anchor="start" x="1414" y="-29.5" font-family="Helvetica,sans-Serif" font-size="10.00" fill="#000000">/AliceO2Group/AliceO2</text>
<text text-anchor="start" x="1414" y="-18.5" font-family="Helvetica,sans-Serif" font-size="10.00" fill="#000000">/Detectors/MUON/MCH/PreClustering</text>
<text text-anchor="middle" x="1503" y="-7.5" font-family="Helvetica,sans-Serif" font-size="10.00" fill="#000000">/src/PreClusterFinderMapping.cxx</text>
</a>
</g>
</g>
<!-- Node11&#45;&gt;Node22 -->
<g id="edge13" class="edge">
<title>Node11&#45;&gt;Node22</title>
<path fill="none" stroke="#191970" d="M1454.6154,-183.4332C1465.9736,-174.8584 1476.3964,-164.7397 1484,-153 1503.6184,-122.7101 1505.9863,-79.9038 1505.0989,-52.6758"/>
<polygon fill="#191970" stroke="#191970" points="1452.333,-180.7612 1446.2066,-189.4052 1456.3863,-186.4684 1452.333,-180.7612"/>
</g>
<!-- Node23 -->
<g id="node13" class="node">
<title>Node23</title>
<g id="a_node13"><a xlink:href="../../d7/de0/MUON_2MCH_2Simulation_2src_2Digitizer_8cxx.html" target="_top" xlink:title="/home/travis/build\l/AliceO2Group/AliceO2\l/Detectors/MUON/MCH/Simulation\l/src/Digitizer.cxx">
<polygon fill="none" stroke="#000000" points="1531,-95 1531,-147 1713,-147 1713,-95 1531,-95"/>
<text text-anchor="start" x="1539" y="-135" font-family="Helvetica,sans-Serif" font-size="10.00" fill="#000000">/home/travis/build</text>
<text text-anchor="start" x="1539" y="-124" font-family="Helvetica,sans-Serif" font-size="10.00" fill="#000000">/AliceO2Group/AliceO2</text>
<text text-anchor="start" x="1539" y="-113" font-family="Helvetica,sans-Serif" font-size="10.00" fill="#000000">/Detectors/MUON/MCH/Simulation</text>
<text text-anchor="middle" x="1622" y="-102" font-family="Helvetica,sans-Serif" font-size="10.00" fill="#000000">/src/Digitizer.cxx</text>
</a>
</g>
</g>
<!-- Node11&#45;&gt;Node23 -->
<g id="edge14" class="edge">
<title>Node11&#45;&gt;Node23</title>
<path fill="none" stroke="#191970" d="M1464.346,-185.6123C1495.2641,-172.9409 1529.5315,-158.8969 1558.1994,-147.1478"/>
<polygon fill="#191970" stroke="#191970" points="1462.794,-182.4658 1454.8682,-189.4966 1465.4486,-188.9429 1462.794,-182.4658"/>
</g>
<!-- Node24 -->
<g id="node14" class="node">
<title>Node24</title>
<g id="a_node14"><a xlink:href="../../dc/dc3/testDigitization_8cxx.html" target="_top" xlink:title="/home/travis/build\l/AliceO2Group/AliceO2\l/Detectors/MUON/MCH/Simulation\l/test/testDigitization.cxx">
<polygon fill="none" stroke="#000000" points="1731,-95 1731,-147 1913,-147 1913,-95 1731,-95"/>
<text text-anchor="start" x="1739" y="-135" font-family="Helvetica,sans-Serif" font-size="10.00" fill="#000000">/home/travis/build</text>
<text text-anchor="start" x="1739" y="-124" font-family="Helvetica,sans-Serif" font-size="10.00" fill="#000000">/AliceO2Group/AliceO2</text>
<text text-anchor="start" x="1739" y="-113" font-family="Helvetica,sans-Serif" font-size="10.00" fill="#000000">/Detectors/MUON/MCH/Simulation</text>
<text text-anchor="middle" x="1822" y="-102" font-family="Helvetica,sans-Serif" font-size="10.00" fill="#000000">/test/testDigitization.cxx</text>
</a>
</g>
</g>
<!-- Node11&#45;&gt;Node24 -->
<g id="edge15" class="edge">
<title>Node11&#45;&gt;Node24</title>
<path fill="none" stroke="#191970" d="M1494.2648,-201.4419C1561.2753,-189.3178 1646.8659,-172.3795 1722,-153 1729.0603,-151.1789 1736.3556,-149.1457 1743.6402,-147.0111"/>
<polygon fill="#191970" stroke="#191970" points="1493.3183,-198.0559 1484.0957,-203.2707 1494.5573,-204.9453 1493.3183,-198.0559"/>
</g>
<!-- Node25 -->
<g id="node15" class="node">
<title>Node25</title>
<g id="a_node15"><a xlink:href="../../d0/d75/DataDecoderSpec_8cxx.html" target="_top" xlink:title="/home/travis/build\l/AliceO2Group/AliceO2\l/Detectors/MUON/MCH/Workflow\l/src/DataDecoderSpec.cxx">
<polygon fill="none" stroke="#000000" points="1931,-95 1931,-147 2105,-147 2105,-95 1931,-95"/>
<text text-anchor="start" x="1939" y="-135" font-family="Helvetica,sans-Serif" font-size="10.00" fill="#000000">/home/travis/build</text>
<text text-anchor="start" x="1939" y="-124" font-family="Helvetica,sans-Serif" font-size="10.00" fill="#000000">/AliceO2Group/AliceO2</text>
<text text-anchor="start" x="1939" y="-113" font-family="Helvetica,sans-Serif" font-size="10.00" fill="#000000">/Detectors/MUON/MCH/Workflow</text>
<text text-anchor="middle" x="2018" y="-102" font-family="Helvetica,sans-Serif" font-size="10.00" fill="#000000">/src/DataDecoderSpec.cxx</text>
</a>
</g>
</g>
<!-- Node11&#45;&gt;Node25 -->
<g id="edge16" class="edge">
<title>Node11&#45;&gt;Node25</title>
<path fill="none" stroke="#191970" d="M1494.3303,-213.1411C1605.2668,-204.0803 1776.5189,-185.999 1922,-153 1929.4528,-151.3095 1937.1447,-149.2695 1944.7793,-147.0477"/>
<polygon fill="#191970" stroke="#191970" points="1493.8061,-209.6719 1484.1194,-213.9635 1494.3682,-216.6493 1493.8061,-209.6719"/>
</g>
<!-- Node26 -->
<g id="node16" class="node">
<title>Node26</title>
<g id="a_node16"><a xlink:href="../../d2/d75/DigitSamplerSpec_8cxx.html" target="_top" xlink:title="Implementation of a data processor to read and send digits. ">
<polygon fill="none" stroke="#000000" points="2123,-95 2123,-147 2297,-147 2297,-95 2123,-95"/>
<text text-anchor="start" x="2131" y="-135" font-family="Helvetica,sans-Serif" font-size="10.00" fill="#000000">/home/travis/build</text>
<text text-anchor="start" x="2131" y="-124" font-family="Helvetica,sans-Serif" font-size="10.00" fill="#000000">/AliceO2Group/AliceO2</text>
<text text-anchor="start" x="2131" y="-113" font-family="Helvetica,sans-Serif" font-size="10.00" fill="#000000">/Detectors/MUON/MCH/Workflow</text>
<text text-anchor="middle" x="2210" y="-102" font-family="Helvetica,sans-Serif" font-size="10.00" fill="#000000">/src/DigitSamplerSpec.cxx</text>
</a>
</g>
</g>
<!-- Node11&#45;&gt;Node26 -->
<g id="edge17" class="edge">
<title>Node11&#45;&gt;Node26</title>
<path fill="none" stroke="#191970" d="M1494.5849,-218.4667C1640.7458,-213.4133 1898.3056,-198.2841 2114,-153 2121.737,-151.3756 2129.7203,-149.3336 2137.6242,-147.0709"/>
<polygon fill="#191970" stroke="#191970" points="1494.1328,-214.9798 1484.2559,-218.8134 1494.3677,-221.9759 1494.1328,-214.9798"/>
</g>
<!-- Node27 -->
<g id="node17" class="node">
<title>Node27</title>
<g id="a_node17"><a xlink:href="../../db/d1c/file-to-digits-workflow_8cxx.html" target="_top" xlink:title="/home/travis/build\l/AliceO2Group/AliceO2\l/Detectors/MUON/MCH/Workflow\l/src/file&#45;to&#45;digits&#45;workflow.cxx">
<polygon fill="none" stroke="#000000" points="2315,-95 2315,-147 2489,-147 2489,-95 2315,-95"/>
<text text-anchor="start" x="2323" y="-135" font-family="Helvetica,sans-Serif" font-size="10.00" fill="#000000">/home/travis/build</text>
<text text-anchor="start" x="2323" y="-124" font-family="Helvetica,sans-Serif" font-size="10.00" fill="#000000">/AliceO2Group/AliceO2</text>
<text text-anchor="start" x="2323" y="-113" font-family="Helvetica,sans-Serif" font-size="10.00" fill="#000000">/Detectors/MUON/MCH/Workflow</text>
<text text-anchor="middle" x="2402" y="-102" font-family="Helvetica,sans-Serif" font-size="10.00" fill="#000000">/src/file&#45;to&#45;digits&#45;workflow.cxx</text>
</a>
</g>
</g>
<!-- Node11&#45;&gt;Node27 -->
<g id="edge18" class="edge">
<title>Node11&#45;&gt;Node27</title>
<path fill="none" stroke="#191970" d="M1494.5509,-216.0762C1708.0547,-206.4564 2153.947,-183.4189 2306,-153 2313.9244,-151.4147 2322.1005,-149.3659 2330.1821,-147.0714"/>
<polygon fill="#191970" stroke="#191970" points="1494.0837,-212.5936 1484.2505,-216.5381 1494.3972,-219.5866 1494.0837,-212.5936"/>
</g>
<!-- Node28 -->
<g id="node18" class="node">
<title>Node28</title>
<g id="a_node18"><a xlink:href="../../d0/d5c/PreClusterSinkSpec_8cxx.html" target="_top" xlink:title="Implementation of a data processor to write preclusters. ">
<polygon fill="none" stroke="#000000" points="2507,-95 2507,-147 2681,-147 2681,-95 2507,-95"/>
<text text-anchor="start" x="2515" y="-135" font-family="Helvetica,sans-Serif" font-size="10.00" fill="#000000">/home/travis/build</text>
<text text-anchor="start" x="2515" y="-124" font-family="Helvetica,sans-Serif" font-size="10.00" fill="#000000">/AliceO2Group/AliceO2</text>
<text text-anchor="start" x="2515" y="-113" font-family="Helvetica,sans-Serif" font-size="10.00" fill="#000000">/Detectors/MUON/MCH/Workflow</text>
<text text-anchor="middle" x="2594" y="-102" font-family="Helvetica,sans-Serif" font-size="10.00" fill="#000000">/src/PreClusterSinkSpec.cxx</text>
</a>
</g>
</g>
<!-- Node11&#45;&gt;Node28 -->
<g id="edge19" class="edge">
<title>Node11&#45;&gt;Node28</title>
<path fill="none" stroke="#191970" d="M1494.3224,-217.7822C1740.7728,-210.3369 2308.4188,-189.6952 2498,-153 2506.1066,-151.4309 2514.4724,-149.3593 2522.729,-147.0227"/>
<polygon fill="#191970" stroke="#191970" points="1494.1515,-214.2857 1484.261,-218.0842 1494.3616,-221.2825 1494.1515,-214.2857"/>
</g>
<!-- Node15 -->
<g id="node5" class="node">
<title>Node15</title>
<g id="a_node5"><a xlink:href="../../de/de2/SegmentationContours_8cxx.html" target="_top" xlink:title="/home/travis/build\l/AliceO2Group/AliceO2\l/Detectors/MUON/MCH/Mapping\l/SegContour/src/SegmentationContours.cxx">
<polygon fill="none" stroke="#000000" points="347,-.5 347,-52.5 575,-52.5 575,-.5 347,-.5"/>
<text text-anchor="start" x="355" y="-40.5" font-family="Helvetica,sans-Serif" font-size="10.00" fill="#000000">/home/travis/build</text>
<text text-anchor="start" x="355" y="-29.5" font-family="Helvetica,sans-Serif" font-size="10.00" fill="#000000">/AliceO2Group/AliceO2</text>
<text text-anchor="start" x="355" y="-18.5" font-family="Helvetica,sans-Serif" font-size="10.00" fill="#000000">/Detectors/MUON/MCH/Mapping</text>
<text text-anchor="middle" x="461" y="-7.5" font-family="Helvetica,sans-Serif" font-size="10.00" fill="#000000">/SegContour/src/SegmentationContours.cxx</text>
</a>
</g>
</g>
<!-- Node14&#45;&gt;Node15 -->
<g id="edge4" class="edge">
<title>Node14&#45;&gt;Node15</title>
<path fill="none" stroke="#191970" d="M501.3649,-80.9926C494.2648,-71.4075 486.8631,-61.4152 480.366,-52.6442"/>
<polygon fill="#191970" stroke="#191970" points="498.7315,-83.3177 507.4963,-89.27 504.3564,-79.1511 498.7315,-83.3177"/>
</g>
<!-- Node14&#45;&gt;Node16 -->
<g id="edge5" class="edge">
<title>Node14&#45;&gt;Node16</title>
<path fill="none" stroke="#191970" d="M589.185,-83.5953C605.302,-73.2344 622.4471,-62.2126 637.3313,-52.6442"/>
<polygon fill="#191970" stroke="#191970" points="586.8769,-80.9182 580.3578,-89.27 590.6623,-86.8065 586.8769,-80.9182"/>
</g>
<!-- Node21 -->
<g id="node11" class="node">
<title>Node21</title>
<g id="a_node11"><a xlink:href="../../d8/dfc/PreClusterFinder_8cxx.html" target="_top" xlink:title="/home/travis/build\l/AliceO2Group/AliceO2\l/Detectors/MUON/MCH/PreClustering\l/src/PreClusterFinder.cxx">
<polygon fill="none" stroke="#000000" points="1194,-.5 1194,-52.5 1388,-52.5 1388,-.5 1194,-.5"/>
<text text-anchor="start" x="1202" y="-40.5" font-family="Helvetica,sans-Serif" font-size="10.00" fill="#000000">/home/travis/build</text>
<text text-anchor="start" x="1202" y="-29.5" font-family="Helvetica,sans-Serif" font-size="10.00" fill="#000000">/AliceO2Group/AliceO2</text>
<text text-anchor="start" x="1202" y="-18.5" font-family="Helvetica,sans-Serif" font-size="10.00" fill="#000000">/Detectors/MUON/MCH/PreClustering</text>
<text text-anchor="middle" x="1291" y="-7.5" font-family="Helvetica,sans-Serif" font-size="10.00" fill="#000000">/src/PreClusterFinder.cxx</text>
</a>
</g>
</g>
<!-- Node20&#45;&gt;Node21 -->
<g id="edge11" class="edge">
<title>Node20&#45;&gt;Node21</title>
<path fill="none" stroke="#191970" d="M1346.9734,-87.2986C1336.5396,-75.9654 1325.06,-63.4962 1315.2271,-52.8157"/>
<polygon fill="#191970" stroke="#191970" points="1344.6485,-89.9409 1353.9966,-94.9273 1349.7984,-85.1997 1344.6485,-89.9409"/>
</g>
<!-- Node20&#45;&gt;Node22 -->
<g id="edge12" class="edge">
<title>Node20&#45;&gt;Node22</title>
<path fill="none" stroke="#191970" d="M1420.8557,-88.6011C1436.2973,-76.9272 1453.5199,-63.907 1468.1909,-52.8157"/>
<polygon fill="#191970" stroke="#191970" points="1418.354,-86.1047 1412.4877,-94.9273 1422.5754,-91.6886 1418.354,-86.1047"/>
</g>
</g>
</svg>
